<?xml version="1.0" encoding="UTF-8"?>
<svg version="1.1" viewBox="0 0 2000 2000" width="1280" height="1280" xmlns="http://www.w3.org/2000/svg">
<path transform="translate(781,32)" d="m0 0h3l3 6 28 13 33 15 27 12 37 17 26 12 3 5 2 7 2 2-1 8-1 5 1 28 2 39 3 79 3 121 12 2 17 5 10 4 8 6 6 7 11 7 6 9 7 19 7 28 3 21 9 77 4 30-1 11-1 3v10l3 9 2 18 7 87 6 102 1 3 3 2 2 20 1 23 23 5 1 1 1 40v32l-5 1-64 3 9 11 7 14 6 20 4 11 5 10-1 6-6 8-11 6-1 4-1 35-4 10-7 2-5 1 1 14 1 5 10 1 6 2h8l10-4 12-3 16-2h16l16 4 16 8 5 3h17l66 6 66 5 57 5 63 5 98 8 3 2 2 30 2 7 8 5 24 3 44 5 7 2 1 2v92l-20 8-14 4h-17l-36-5-40-6h-3l-1 2-14-1-53-7-212-29-101-14-71-10-20-3-7 14-6 18-1 7 2 31v16l-11 10-10 5h-2l1 10-3 5 1 89 8 1 61 17 226 64 112 32 21 7 4 4 1 2v89l-1 48-16 9-21 11-7-1-60-20-2-5v-22l-23 11-36 18v85l-5 3-41 21-5 3-9-3-55-25-5-3v-19l1-5-26 13-22 12-20 10-16 9-6 3-2 91-9 6-28 15-19 11-2 2-5-1-8-5-24-12-19-10-14-8-1-2-1-93-41-21-19-10-29-15-19-10-29-15-19-10-17-9v22l-10 4-38 13-15 5-5-1-29-17-14-9-2-2-2-38-1-30-1-8-45-23-20-10-19-10-26-13v16l-9 4-26 10-18 6-6-1-19-12-12-8-1-1-1-10-3-65-2-41 4-7 6-4 16-5h2l-1-46 2-7 6-3h9l8 4 1 4-1 42 15-4 30-7 5 1 10 5 18-4 178-45 44-11h3v-12l-6-10-15-20-12-18-12-23-25-50-11-23-8-15-7-16-11-35-1-1-81-12-57-9-75-11-16-5-4-2-1-2v-9l3-3 7-1v-15l5-5-3-5-3-9-2-4-1-6v-12h15l39 2v-5l2-2 58 4 23 2h7l-7-15-8-24-2-9-1-16 1-15 6-30 5-14 5-10 8-10 11-8 14-6 20-6 28-6 50-8 48-7 3-1v-56l-1-66-3-123-2-126v-111l-1-17-1-172-1-69-2-56v-34l3-11 4-16 6-10 9-10 9-6 11-4 13-1zm31 69v15l1 21 2 168 1 68 1 127 2 174 1 58 4 133 1 43 1 7 24-4 5-1 8 5 4-1 7-8 1-2v-20l-3-106-1-28-8-64-6-64-2-19-2-31-2-20-1-17v-28l2-26 5-14 10-20 1-6v-81l-1-9 1-2-1-79-1-36v-22l1-7v-14l-1-6v-34l6-5 2-4 1-16-15-7-36-15-8-3zm140 356 2 148 2 87 3 212 2 1 8-1v-41l11 1 1 6 2 36h10l2-2-2-29v-16l3-5v-6l-1-2-6-107-4-55-1-14 1-3-2-4-9-103-9-68-6-23-4-10zm57 110-1 5 1 7 5 1 2-2-1-9-2-2zm4 43v13l5 2 2-1v-12l-2-2zm2 45 1 12 1 2 7 1v-8l-2-6zm1 41 1 15 1 1h10v-7l-2-6-8-3zm4 44-1 5 1 15 10 1 1-1v-8l-2-9zm2 45 1 16 1 5 2 1h8l1-3-1-13-5-5zm3 46-1 3 1 18 1 2 9 1 1-1v-18l-2-4zm-198 125-1 1v35l1 129h32l17-1v-29l-1-89-1-44-5-1-7 1-3 3v2l-6-2-1-2-11-2zm-93 6-55 9-33 7-12 4-13 10-6 9-4 9-3 14-1 7v20l5 15 4 11 9 14 4 3 15 3h5l7-13 8-10 8-6 7-3h12l8 3 8 9 6 16 6 2v14l7 2 14 2v-17l-2-68-1-64-1-2zm241 25-14 1v56l4 4 6 3h6l1-3 1-33v-27zm48 3-1 18v18l11 3h7l-1-10-5-17-6-9-3-3zm-445 21-11 1-4 4-1 6h21l5-3 3-5v-3zm437 22-2 1v7l3 2h7l7-5-3-3zm17 4-2 2 5 8 2 11 3 1 3-13v-5l-9-4zm-25 3-1 2 4-1zm-427 1-19 1-3 1 3 13 1 1 20-1 5-1-1-14zm469 1-3 13-1 7 4 1 6-7 1-4-5-10zm-370 29-8 3-5 5-6 7-4 8 1 4 28 7 10 2h6l1-10 3-5-1-8-6-9-6-3-4-1zm-92 4-16 4-1 2 2 4 16-1 4-1v-6l-2-2zm375 27 1 22 5 1h7l1-3-1-19-1-1zm-314 116 12 36 9 20 13 28 6 15 5-1 3-2-2-6-9-19-4-13-2-15-3-37-2-2-22-4zm46 71 1 5 6 12 4 1v-10l-3-7-2-1zm271 23-1 38 4 2h7l1-23v-13l-5-3zm-238 19-3 5-3 6 1 2 6-11zm3 4-2 6-6 10-10 8 3 9 9 17 10 14 10 13 3 1-1-40-5-13-6-17-2-7zm-10 9 1 2zm-1 2m245 11 1 5 5-1 1-3zm-132 24v29l1 26 13 3 20 4 8-16 6-13 2-6v-19l-1-1h-25l-16-6z" fill="#282927"/>
<path transform="translate(781,32)" d="m0 0h3l3 6 28 13 33 15 27 12 37 17 26 12 3 5 2 7 2 2-1 8-1 5 1 28 2 39 3 79 3 121 7 1v1h-6v37l1 13 2 3v5l-3-3 2 147 2 87 2 136v59h-1l-1-7-1-3v-12l-4 4-2 10-5 16-4 5-8 2-1 3-5 2-46 1-8-1 1-3v-20l-3-106-1-28-8-64-6-64-2-19-2-31-2-20-1-17v-28l2-26 5-14 10-20 1-6v-81l-1-9 1-2-1-79-1-36v-22l1-7v-14l-1-6v-34l6-5 2-4 1-16-31-13-27-11-4-1 2 36 2 168 1 68 1 127 2 174 1 58 4 133 1 49-2-1-1-14-6 1h-6l-7-4-4 1-1 15 1 4v-10l5-1 3 1v2l3-1 5-5h6l-1 3-4 4-1 2h-2l-1 4-7 4h-2l-2 11-2 9-1 3 1 5v38h-1v11h1v6h-1v14l1 5v3l1 55v49l-8 3-30 2h-17l-3-8 1-11-4-1-1-17-2-68v-51l1-5 1-15v-19l-1-13h-5l3-2v-56l-1-66-3-123-2-126v-111l-1-17-1-172-1-69-2-56v-34l3-11 4-16 6-10 9-10 9-6 11-4 13-1z" fill="#646564"/>
<path transform="translate(1043,1007)" d="m0 0 3 1 6 19 4 13 6 12-1 6-6 8-11 6-1 4-1 35-4 10-7 2-5 1 1 14 1 5 10 1 6 2h8l10-4 12-3 16-2h16l16 4 16 8 5 3h17l66 6 66 5 57 5 63 5 98 8 3 2 2 30 2 7 8 5 24 3 44 5 7 2 1 2v92l-20 8-14 4h-17l-36-5-40-6h-3l-1 2-14-1-53-7-212-29-101-14-71-10-20-3-2 1-3-4v-2h-3v-2l-5-1-6-2-10-2-7-3v-6l-9 6-11-1-7-6-5-8v-2l-6-3v-2l-2-1 2-2-5-4-3-10v-10l2-3 14-1-16-8-3-4 3-5 2-2-6-5-6-12-4-4v-2l-4-2-7-6-7-2v2h-4v-2h-2l-4-5v-7l3-3 7-1 20 2 19 1 16 2 11 1 1 1h11l1 1h22l17 2h12l1-5h-2l-1-6-2-7-3-7v-2h2v-4h3v-5l1-4h-9l-3 2h-3l3 3 2 1v7l-4 3-7-2v-8l3-4-3-8v-28l2-6 2-1v-15l5-6 8-7 2-2 8-2 1-15h1v12l9 1 9 2-2-12 2 1 1 10h2l-1-11-1-5h2l-1-3zm-28 26-2 1v7l3 2h7l7-5-3-3zm17 4-2 2 5 8 2 11 3 1 3-13v-5l-9-4zm-25 3-1 2 4-1zm42 2-3 13-1 7 4 1 6-7 1-4-5-10z" fill="#414243"/>
<path transform="translate(964,1473)" d="m0 0 11 2 78 22 205 58 112 32 21 7 3 2-2 6-9 2-10 4-18 7-4 1-2 2-24 11-11 5-9 5-13 5-19 9-49 21-9 4-7 3-6 2-15 7-7 3-16 7-14 7-10 3-8 4-14 6-10 5-27 12-8 4-5 2-12 5-26 12-17 6-9 4-14 7-8 3-10 5-5 3-7 4-2 4-6 1-13-6-8-3v-2l-5-1-9-4-9-5-6-2-2-3-6-1-7-3-4-2-3-3-4-1-1-2-5-1-11-4-17-8-9-4-1-2-6-2-14-7-1-2h4l-7-5-5-3v-3l-8-2v2l4 1v2l4 1 4 5-5-2-5-3-6-4-8-4v-2l-7-1-1-2 7 1-18-10 1-2 3-1-1-6 4-2 6 4h2l2 2 2 1-1 3-3 1-8-2-1 3 6 2v-2h5l16 6 10 1h3 3v-2h2l-1-3 5-1v1h7l1-1 9-1 6 1v1l-9 1-4 3-3 4h-7l-5 3-1 6 6 2 7 1 1 3-7-1 4 2 17 9 5 2 4 2v-3l-3-3v-3h-2l-1-5-5-2 1-5 12-8 1-4 1-1 10-1-13-1-2-3h9l10 1 9 1 11-2v2l2 1v-2l4-1 6 2 5 4 15-3 2-4 5-2 2 5 12-4h5l1-2 2 7 6-1 8-2 4-4 4 1 1 4-3 7 2-2h3l1-4 5-4 6-2 5-5 6-2 6 1 1 3-1 3 4-1 6-3 3-1 4-8 7-1 4-1v-6l6-3h2v-8l-6 1-5-3-1-2 2-3 7-2 1-7 6-7 1-3-5-2-2-3 1-4 1-3-9-3-5-4-9-2 1-4 6-2 2-6 1-1h10l6 1 1-4-5-1 1-4 6-2 1-5 5-4 10-3 9-1 3-3 1-9 3-4 2 2 1-5-2-19 5-5h3l-1-4h-2v-13h-2v-2h-3l-3-5-2-1v-2l-6-2-5-3-13-4-8-3-21-7-13-2-9-3-4-1-9-3-5-1-3-2v-2l-3 1-10-5z" fill="#515251"/>
<path transform="translate(776,35)" d="m0 0h4l1 7 4 2 3 3 2 1 1 8h4l2-7 3 1v152l1 35 1 16 1 110v25l-2 16-3 2-2-8-1-10v-78l-2-70 1-64v-58l-3-43-2-8-1-9-6-1v72l2 119 1 151 2 137 1 112 2 175 1 91v107l-2 14-3 2-1-1-1-17-1-70-2-32-1-24-1-50-1-96-3-134-2-182-2-74-3-309h-3l1 61 1 30 1 57 2 206 1 55 2 195 2 150 1 117v117l-1 5v9l-3 14-2 7-4 3-5-2-1-8-2-35-1-18-1-64-2-92-2-88-2-143-2-136-3-184-1-99v-142l-3 1 1 110 1 69 1 129 1 53 1 103 1 53 3 260 1 119v78l-4 11h-3l-1-65v-47l-2-41-2-25-1-18-1-5h-1l-4-170-2-126v-111l-1-17-1-172-1-69-2-56v-34l3-11 4-16 6-10 9-10 9-6 11-4z" fill="#BCBEBF"/>
<path transform="translate(781,32)" d="m0 0h3l3 6 28 13 33 15 27 12 37 17 15 7v2h2l-1 4v-2l-8-1-3 3-5 15h-3l-1 5h-6l-13-4-9-1-5-5-9-3h-7v-2h-2l-1 2-5-2-10-1-25-10-4-1 2 36 2 168 1 68 1 127 2 174 1 58 4 133 1 49-2-1-1-14-6 1h-6l-7-4-4 1-1 15 1 4v-10l5-1 3 1v2l3-1 5-5h6l-1 3-4 4-1 2h-2l-1 4-7 4h-2l-2 11-2 9-1 3 1 5v38h-1v11h1v6h-1v14l1 5v3l1 55v49l-8 3-30 2h-17l-3-8 1-11-4-1-1-17-2-68v-51l1-5 1-15v-19l-1-13h-5l3-2v-75l1-5h1l2 29 2 26 2 39v63l1 48 2-3 3-7v-93l-3-283-1-81-1-53-1-103-1-53-1-129-2-159v-20l4-1 1 142 1 99 4 245 2 158 2 102 2 100 1 38 1 64 3 49v9l1 3 4 1 4-4 2-12 2-9v-8l1-4v-117l-1-117-2-152-2-193-1-57-2-211-1-50-1-30v-61h3l1 5 3 304 2 74 2 182 3 134 1 96 1 50 2 40 1 21 1 72 1 10 2-1 2-18v-114l-1-81-2-174-1-112-2-137-1-151-2-119v-70l3-3 5 2 2 13 1 4 3 43v58l-1 72 2 62v78l2 16h2l2-16v-25l-1-112-1-14-1-35v-152l-2-1-2 7h-4l-1-8-5-2-1-2-4-2v-9z" fill="#6E757C"/>
<path transform="translate(726,925)" d="m0 0h12l1 2 1 11v19l-1 15-1 5h-1l-1-15-8 2-49 8-33 7-12 4-13 10-6 10-4 11-3 17v20l5 15 4 11 9 14 7 3 16 3 2-6 7-11 9-10 12-6h12l8 3 7 7 5 10 2 9 6 2 1 7v7l22 4 2 1v11l1 1v6l-3-1-31-3h-26v69l-5 3-5-1v-2h-2v2l-5 2-6-1-5-1-1-1-4 1-4-2-4-4v-7l-2 3-1 5h-5v1h-7l-3-1v-2l-10 1v-2l-4 1-6-1h-1l-2-2-6 1-5-2-5 1-1-3-1 2-5-1h-3-2v-2l-7 1-4-2-3 1v-2h-14v-2l-12-1-4-2-1 2-4-1-5-2-6-1-16-3-10-3-1-4 5-4 14-5 11-2 28 2 13 1 6 1h11l-30-4-31-5-4-2v-3l14-4-5-5-6-3-7-8-1-8v-7l1-2-2-1h-16l9 4v4l-2 4 2 11 6 4-2 1-6-4-5-1-3-4-1-5h-2l-1-5 3-4-5-1-2-1v-4h-5l-6 2h-4l1-5 4-1 69 5 16 1-7-15-8-24-2-9-1-16 1-15 6-30 5-14 5-10 8-10 11-8 14-6 20-6 28-6 50-8zm-148 86-11 1-4 4-1 6h21l5-3 3-5v-3zm2 30-19 1-3 1 3 13 1 1 20-1 5-1-1-14zm99 30-8 3-5 5-6 7-4 8 1 4 28 7 10 2h6l1-10 3-5-1-8-6-9-6-3-4-1zm-92 4-16 4-1 2 2 4 16-1 4-1v-6l-2-2z" fill="#2A2B29"/>
<path transform="translate(1092,1509)" d="m0 0 11 2 52 15 43 12 60 17 112 32 21 7 1 2-9 3-24 11h-2v2l-9 3-17 9-17 7-14 7-12 5-15 7-26 11-19 8-9 4-6 2-10 5-12 4-22 11-16 4-2 3-10 2-6 6-13 4-7-1-3-2v-2l-11-2-3-2-1-6 4-4 6-1 1-4 2-3h11l1-2h-2v-7l-6-3 3-3 6 1 4 1v2h4l-1-3-4-1-1-2-7-2-5-4-4-6-2-1-2 1h-8l-7-5 1-2h2l-1-7-11-3-10-5-9-3v-2h-2l1-5 6-3 3-5 6-1h8v-6l2-2 4-2-1-6 4-1h7l2-1 2-5 8-2 1-4 13-8 13-3 5-3 4-5v-8l-2-2-1-5 2-3h-2l1-2 5-2 3-4-2-2-6-7-3-4v-2h-6l-6-3-6-2-10-2-17-5v-3l-4-1v-2z" fill="#656665"/>
<path transform="translate(1093,1142)" d="m0 0h9l15 3 11 4 2 2 10 3-1-4 4 2h17l66 6 66 5 57 5 63 5 98 8 3 2 2 30 1 7h-6l-8 4-19 5-11 2-4 1h-8l-6 1-52-4-87-9-45-5-128-12-68-7-17-2-4-2-5-27-1-8 8-5 10-4 15-4z" fill="#BCBEBF"/>
<path transform="translate(776,35)" d="m0 0h4l1 7 4 2 3 3 2 1 1 8h4l2-7 3 1v152l1 35 1 16 1 110v25l-2 16-3 2-2-8-1-10v-78l-2-70 1-64v-58l-3-43-2-8-1-9-6-1v72l2 119 1 151 2 137 1 112 2 175 1 91v107l-2 14-3 2-1-1-1-17-1-70-2-32-1-24-1-50-1-96-3-134-2-182-2-74-3-309-4 1v77l1 116 2 84v41l-1 32-1 16-3 14-3 18-2 2-3-7-2-17-1-21-2-20-1-25-1-43v-185l-1-33v-38l-6 3h-3l-1 7 2 5-1 1v20l1 5-1 4 2 4 2 104v179l-2 17-2 4-1-11-2-73-1-56-1 110v64l-1 105h-1v-111l-1-17-1-172-1-69-2-56v-34l3-11 4-16 6-10 9-10 9-6 11-4z" fill="#FEFEFE"/>
<path transform="translate(927,102)" d="m0 0 12 6 2 4 2 7 2 2-1 8-1 5 1 28 2 39 3 79 3 121 7 1v1h-6v37l1 13 2 3v5l-3-3 2 147v15l-2-4-1-11-1-81-1 6-2-4-2-7v-13l2-8h4l-1-12-7-3-6-15-3-17-1-17-1-7-2-61-1-1v-17l6-3h2v-4l-5-4-1-2-2-23-2-45-1-14-1-6v-34l-1-3-1 3v71l-1 42-5 5-9-1-10 6-13 5-5 2-5 5h-2v2l-6 2 2 4 10 3 2 2 1 8 1 143 1 14v59l-2-1-1-61-1-143-1-17-9-2-1 7h-1l-1-9-2-3 1-7-1-79-1-36v-22l1-7v-14l-1-6v-34l6-5 2-4 1-16-31-13v-1h8l5 2 3-1v2l7-1 9 3 5 4v2h10l12 4 6 1 1-5 3-3 4-12 4-4 8 2 1-2h-2z" fill="#6A7177"/>
<path transform="translate(685,1127)" d="m0 0h26l31 3 4 2h17l34-2 3 3-1 73v22l1 14v35l-1 14-4 4-11 3-14 2-6 1h-9l-41-7-11-1-3-3-12-2-4-5-1-20v-13l1-20v-102z" fill="#D8190B"/>
<path transform="translate(788,441)" d="m0 0h1l3 19 1 15v34l2 18 1 18 2 10 4 1 3-12 1-31 1-10-1-11v-24h2v-5h2l2-14h2l1 3 1 63 1 1 1 45 1 24 1 89 1 58 4 133 1 49-2-1-1-14-6 1h-6l-7-4-4 1-1 15 1 4v-10l5-1 3 1v2l3-1 5-5h6l-1 3-4 4-1 2h-2l-1 4-7 4h-2l-2 11-2 9-1 3 1 5v38h-1v11h1v6h-1v14l1 5v3l1 55v49l-8 3-30 2h-17l-3-8 1-11-4-1v-91h1l1 12 1 72 2 7v12h2v4h6l1-41 1-23 2 2 3 58 1 2 7-1 3-2h7l1-1 1-99 2 2 2 92 1 11h8l1-37v-43l-3-270-2-102-2-212v-14z" fill="#656665"/>
<path transform="translate(992,1210)" d="m0 0 9 1v2l3-1h11l15 3 12 1 6 1 5 1 2 3v4h3l2-4 7 2 5-1 6-3 24 2 30 4 24 3 16 1 31 4 18 2 14 2 20 2 51 6 21 2 14 2 19 2 10 2 21 2 25 5 10 3 7 6 5 3 5 4 5 8 3 2v4h-13l-50-5-23-3-46-6-15-2-12-1-12-2-23-2-18-2-12-1-28-1h-13l-21-2-36-4-43-6-57-7-54-7-4-2 2-4 6-6 1-3 3-2 5-10z" fill="#BCBEBF"/>
<path transform="translate(1470,1238)" d="m0 0h7v2l4-1 1 1h6l2 2 8-1 1 1h19v2l9-1 7 1 29 1 14-2 13-3 7-1v2h2v13l-2 3h2v14l1 6v52l-13 6-20 6h-17l-36-5-40-6h-3l-1 2-14-1-17-2-8-4 3-1v-2l-10 1-4-2-9-2-8-4-4-3 8-3 9-1 9-3h8l2 2 11-5 3 1 1 7-1 10 7 4v2l5-1-2-2-4-7 1-5-3 1v-2h3v-2h-2l1-5 3-2 2-3 4-1 3-2 1-3v-22h2l1-5 1-3-1-4-1-5 1-2h-2z" fill="#272826"/>
<path transform="translate(765,48)" d="m0 0h3l1 5 3 304 2 74 2 182 3 134 1 96 1 50 2 40 1 21 1 72 1 10 2-1 2-18v-114l-1-81v-94h2l1 59 3 273v44l-1 23-1 2-6 1-2-1-2-11-2-92-1 97-2 2h-7l-5 2-5 1-2-3-3-58-2 57-1 5-4 1-2-1v-4h-2l-1-18-2-1-1-72-1 62h-1l-2-68v-51l1-5 1-15v-19l-1-13h-5l3-2v-75l1-5h1l2 29 2 26 2 39v63l1 48 2-3 3-7v-93l-3-283-1-81-1-53-1-103-1-53-1-129-2-159v-20l4-1 1 142 1 99 4 245 2 158 2 102 2 100 1 38 1 64 3 49v9l1 3 4 1 4-4 2-12 2-9v-8l1-4v-117l-1-117-2-152-2-193-1-57-2-211-1-50-1-30z" fill="#697077"/>
<path transform="translate(927,304)" d="m0 0h2l2 31v30l1 1 2 61 1 7 1 17 4 20 4 10v2l7 1 1 2v12h-4l-1 10v12l2 6 3-3 1 82 2 15 1 21 1 51 2 136v59h-1l-1-7-1-3v-12l-4 4-2 10-5 16-4 5-8 2-1 3h-2l-2-177-1-123-2-172v-74l-1-27 2-9z" fill="#514F48"/>
<path transform="translate(867,357)" d="m0 0 2 2 1 4 1-2 6 1 3 1 1 3 1 14 1 151 1 53 1 1 2 148 1 123v28l-1 21h-10l-4 2 1-3v-20l-3-106-1-28-8-64-6-64-2-19-2-31-2-20-1-17v-28l2-26 5-14 10-20 1-6z" fill="#6D747A"/>
<path transform="translate(779,35)" d="m0 0h1l1 7 4 2 3 3 2 1 1 8h4l2-7 3 1v152l1 35 1 16 1 110v25l-2 16-3 2-2-8-1-10v-78l-2-70 1-64v-58l-3-43-2-8-1-9-6-1v72l2 119 1 151 2 137 1 112 2 175 1 91v107l-2 14-3 2-1-1-1-17-1-70-2-32-1-24-1-50-1-96-3-134-2-182-2-74-3-309-3-1 5-2 4 4-1 7v193l2 108 2 51 2 22 1-14v-85l-1-45-1-16v-123l-1-80 1-21-3 1 1-5h2z" fill="#BBBDBE"/>
<path transform="translate(1090,1137)" d="m0 0h16l16 4 16 8 3 4-1 2-10-3-4-3-17-5-13-1-13 1-10 3-16 5-9 5 2 13 4 22 11 2 67 7 41 4 65 6 60 6 75 8 53 5 29 2 6-1h7l7-2 12-2 17-5 6-3 7 1 8 5v1l-18-1-15 5-9 4 13 2 1 2h-19l-3-2v-3l-7 1-4 3 3 2 1 5v10l-1 1h-13l-19-3-22-2-18-1v-2h-10l-82-9-16-1-2-1-39-4-73-8-41-4-29-3-43-5-9-1-40-4-2-1-13-1-2-4 5-4 5-5 4-2 1-4 8-6 11-11 6-4 5-5 3-1 3 1 2-5 5-4 6-3 8-1v-3l-10 1 3-2 15-4z" fill="#697077"/>
<path transform="translate(467,1102)" d="m0 0 58 4 23 2h7v-2h2l4 9 3 3 8 1h7l1 1h16v2l11-1 6 1 11 1 13 1 7 2 1 7v7l-1 7-1 20-1-2-11 1 12 2v20l-2 6h-5v1h-7l-3-1v-2l-10 1v-2l-4 1-6-1h-1l-2-2-6 1-5-2-5 1-1-3-1 2-5-1h-3-2v-2l-7 1-4-2-3 1v-2h-14v-2l-12-1-4-2-1 2-4-1-5-2-6-1-16-3-10-3-1-4 5-4 14-5 11-2 28 2 13 1 6 1h11l-30-4-31-5-4-2v-3l14-4-5-5-6-3-7-8-1-8v-7l1-2-2-1h-16l9 4v4l-2 4 2 11 6 4-2 1-6-4-5-1-3-4-1-5h-2l-1-5 3-4-5-1-2-1v-4h-5l-6 2h-4l1-5z" fill="#484D50"/>
<path transform="translate(741,243)" d="m0 0h2l1 129 1 53 1 103 1 53 3 260 1 119v78l-4 11h-3l-1-65v-47l-2-41-2-25-1-18-1-5h-1l-4-170-1-73v-222l1-115 2-1 2 105 1 30 1 7 2-17z" fill="#B9BBBC"/>
<path transform="translate(962,1474)" d="m0 0 9 3 4 2h2l3 3 12 3 5 2 9 2 7 2 9 2 16 5 18 6 8 3 6 3 1 2h2v2l4 2 1 4h3v2h2l1 10-1 3h2l1 4-6 3-1 6 2 19-3 2-1-2-2 5-2 9-3 2-12 2-9 3-3 3-1 4-6 2-1 4 5 1-1 5-6-1h-10l-3 6-6 3-1 3 9 1 6 5 8 3 1 3-2 1 1 5 5 3-1 5-4 2-3 10-7 3-1 3 5 3h6v8l-6 3h-2v6l-8 3-3 1-4 7-8 3-3 2-2-1v-6l-5-1 1-2 3-1 3-6 6-3 5-2-1-8-8 1v-2l-4-2-1-4 5-4-7-1-2-3 1-5 6-5h2l1-6-1-2 6-3h2l-1-4h-7l-4-7-3 1h-9l1 3 9-3 2 4-3 3-5 3-2 5-9 3v-2l6-2v-3l-9 1-2 6h-2v-2h-2l-1-2h-6l1-2 9-2 1-6h2l1-5h-4v2l-6 3h-5l-2-3-1 4h-2v2l-10 2 2-3h2v-2h2l1-3h-2v2l-7 1-1-1v-5l5 3 5-2 1-4 3-3-2-1-5 2v-2l4-3 6-4 10-7 3-1 1-2h2v-2l5-1v-2l5-2 6-2 18-2 17-2 7-4 6-7 1-2h2l-1-3 1-18 2-2v11l2 4v3 4l1-10v-9l-2-1-4-8v-5l-3-1-1-6 2 1 1-4-3-6-2-9-11-8-6-1h-7l-1-3h-7l-9-3-10 1-2-1v-3l-5-1-1 4-4-1-2-7-4 1-3-3-7-8z" fill="#3F4041"/>
<path transform="translate(874,960)" d="m0 0 2 1 1 23 1 2 1-2 9 3 2 1 2 10 1 3 2-8 2-1h11l6 3 2 3 2 22 6-3-1-8-1-1-1-7v-9l5-2 3 2 2 10v11l1 9v9h-1l-2-7-5-1-2 4 2 2-2 1-3 8h-2l1 6 4-8h5l3 5 1 2v7l1 1 1 7 1 63 2 3-4 4h-9l-6-1-18-1-16-2-9-2h-47v-1l32-1h17l-1-29-1-89z" fill="#3D3E3E"/>
<path transform="translate(793,1130)" d="m0 0 6 1 1 2-1 73v22l1 14v35l-1 14-4 4-11 3-14 2-6 1h-9l-41-7-11-1-3-4 7 1 22 4 23 2 1-2 3-40v-69l1-45-1-6h-8v-1z" fill="#B5140C"/>
<path transform="translate(1087,1144)" d="m0 0h19l8 3-1 4 11 1 12 4 11 9 5 2-7-11-2-3 3-1h14l66 6 15 1v1l-23 1v2l4-1 3 2 9 3 6 3-1 3h-55l3 6 1 4v11h-2l-1 4-6 4-3 1-25-1-39-4-18-2-10-2-22-3-4-3-4-11-1-5v-7l1-2h9v-1l-9-2 1-5 8-3 9-2 39 1v-2l-26-1-3-2z" fill="#FDFDFD"/>
<path transform="translate(938,111)" d="m0 0 3 1 2 7 2 2-1 8-1 5 1 28 2 39 3 79 3 121 7 1v1h-6v37l1 13 2 3v5l-3-3 2 147v15l-2-4-1-11-1-81-1 6-2-4-2-7v-13l2-8h4l-1-12-7-3-6-15-3-17-1-17-1-7-2-61-1-1v-17l6-3h2v-4l-5-4-1-2-2-25v-36l-1-66-1-43 1-13 3-11 1-14 2-10z" fill="#6C7379"/>
<path transform="translate(991,1207)" d="m0 0h9l3 1 42 4 26 3 57 5 15 2h24l24 3 72 8 22 2 2 1 36 3 72 8v2h18l29 3v1h-16l19 2 13 1 5 2 7 3-1 5-1 3-1 24-3 3-10 2h-11l-39-3-49-6-36-5-64-8-15-2-80-9-26-3h-9l-5-2-38-5-17-2-9-2-22-3-23-2-18-3-18-2-5-2 1-7 5-5 13-19zm1 3-4 2-6 11-2 1-3 5-6 6 1 3 17 3 82 10 74 10 27 3 14 1h14l27 1 25 2 25 3 12 1 3 1 22 2 10 2 26 3 15 2 34 4 39 4h13l-1-5-5-5-2-4-7-6-5-3-5-4-19-5-23-4-21-2-3-1-22-2-19-3-29-3-19-2-22-3-22-2-13-2-28-3-14-2-24-2-40-5-21-2-9-1-6 3-5 1-7-2-2 4h-3l-1-5-1-2-9-1-8-2h-7l-16-3h-10l-2 1v-2z" fill="#697077"/>
<path transform="translate(899,357)" d="m0 0 7 1 1 14 1 90v145l-1 3-1 14-1 2-1 12 2 20-1 23-2 11-1 7-3 4-1 10-1 5 1 2-3 7 3 1 2 3v12l2 3-1 6-4 4-5-1v-29-4l-1-75v-43l-1-24-2-59-1-44-1-66v-45l2-4z" fill="#BCBEBF"/>
<path transform="translate(884,132)" d="m0 0 12 2 6 3 2 10 2 133 1 43 3-1v-41l-1-62-1-26v-47l2-6 8-2 2 3 1 176-2 9-1 2h-11l-9 7-12 4-1-1-1-33-1-94v-73z" fill="#BCBEBF"/>
<path transform="translate(918,346)" d="m0 0 4 1 1 4 1 26 3 281v44l1 50v109l-2 23-2 9h-4v-33l-1-16-2-59-1-49-1-71-1-3h2l-1-5-1-81-3-95v-132z" fill="#6A7178"/>
<path transform="translate(1297,1608)" d="m0 0 5 1-1 11 7-2 4-6h9l3 4h8l2-1h7l-1 3-4 2-3 3-19 8-14 7-12 5-15 7-26 11-19 8-9 4-6 2-7 4-13 1-4-1-3 3-5 2-7-1 1-8-1-5v-1h-8l-4-2v-2l-2-1-2-3 3-1v-1l7-2 2-1v-5l-5-1h-3l-4-2 11-3 3 1-3-9 5-1 2 2-1 1 4 3 3-1 3-3v-4l4-4 8-1 4-8 7-3 1 4 4 3h6v-2h3l1-2 3 5h7v2l-3 1h-1v4h2l1-3 3-1 2-6 4-2h3l-1-3-4-1-3 2v4l-8 1-2-4 2-2 2-5 2-2h7l3 3v2l5-2h7l3 4-3 4h-3l-1 6h-2l-1 9h3l2-6 3-1v-2l3-3 4-5 8-4 3-4h6v4h-3l1 8 6-3 5-6 4-1 1-2h2v-2h2z" fill="#697077"/>
<path transform="translate(903,351)" d="m0 0h4l1 2 2 182 1 113 1 58 1 85v115h-20l-1-1-1-24-1-73-1-145-2-107v-79h1l2 81 1 31 1 15v55l1 63v4 28l4 1 3-1 1-8-2-3v-12l-4-4 1-5 1-3-1-3 2-8v-5l3-4 1-9 2-9 1-26-2-17 1-12 1-4 1-12 1-3v-145l-1-104h-7l-9 4h-2l-1 4-1 38h-1v-39l2-6 7-5z" fill="#6A7077"/>
<path transform="translate(871,1592)" d="m0 0h9l2 7-1 1h6v1h12l3 2 2-2 2-5 4-3 10 2 7 2 4-1 3 2-2 4-12 5-17 9-22 10-4 3-1 5v56l-6 1-16-4-27-7-5-5-1-19v-16l-1-1-7-1-2-5 1-2h7l-1-12 5-5h3l2-4 5-2 8-1 6-4 4 2 2 2 4 1 7 1 8-1v-3l-3-2-2 1v-5l-2-1 1-3z" fill="#697077"/>
<path transform="translate(811,51)" d="m0 0 6 1 31 14 27 12 37 17 15 7v2h2l-1 4v-2l-8-1-3 3-5 15h-3l-1 5h-6l-13-4-9-1-5-5-9-3h-7v-2h-2l-1 2-5-2-10-1-25-10-3-3-1-5-1-28z" fill="#424445"/>
<path transform="translate(936,1598)" d="m0 0h6l1 1v12l-1 27v16l-3 6-18 11-14 8-18 10-8 3h-6v-58l2-6 10-6 16-7 17-9 12-5z" fill="#B6140B"/>
<path transform="translate(864,459)" d="m0 0h1v5h2l2 12v16l-1 24 1 33 2 21 1 23 3 91v59l-2 6h-1l-2-9-2-5-7-59-5-54-2-19-2-31-2-20-1-17v-28l2-26 5-14 3-6 5 1z" fill="#454647"/>
<path transform="translate(793,773)" d="m0 0 3 1 3 7 2 17 3 8 1 1h7l1-6v-9l-3-10v-4l7-4 2 1 1 4v13l1 16 1 1 1 56 1 28 1 2 1 19-2-1-1-14-6 1h-6l-7-4-4 1-1 15 1 4v-10l5-1 3 1v2l3-1 5-5h6l-1 3-4 4-1 2h-2l-1 4-7 4h-2l-2 11-2 9-1 3 1 5v38h-1v11h1v6h-1v14l1 5v3l1 55v49l-6 2 1-5v-87l-1-78-1-99-1-38z" fill="#514F48"/>
<path transform="translate(931,366)" d="m0 0h1l2 61 1 7 1 17 4 20 4 10v2l7 1 1 2v12h-4l-1 10v12l2 6 3-3 1 82 2 15 1 21 1 51 2 136v59h-1l-1-25-1-57-1-30v-42l-1-39-3 14-1 9h-2v-2h-2l-4-11-1-4-1-7v-19l1-3 1-19v-13l-2-9v-5l-1-2v-7l-2-12 2-15v-13l-1-20-1-15-2-22-1-13v-14l-1-1-1-16v-35l-1-28-1-45z" fill="#656665"/>
<path transform="translate(1076,1203)" d="m0 0h35l11 2 26 2 17 3 38 3 14 2 22 2 14 2 66 8 16 2 12 1 24 3 21 2 7 1 5 1 17 3 12 4v4h-16l-6-1-28-2-49-6-29-3-5-1-26-2-36-4-57-6-90-10-15-2-3-1v-4h2z" fill="#BCBEBF"/>
<path transform="translate(927,304)" d="m0 0h2l2 31v33l1 47 1 28v32l1 16 1 2v13l2 25 1 11 2 38v10l-2 16 2 10v8l1 4 1 6 1 11v13l-1 13-1 7v18l1 7 4 9v3h2v2h2v-11l4-15h1l1 42v37h-3l-1 3-1 54-2 4-3-2-1-9-1-24v-12l-2-24-2-18 1-14-1-16-1-1-1-7-1-29-1-6 1-7-1-7v-9l-3-22-2-12v-46l-1-62v-20l-1-9-2-1v20h-1l-1-61v-74l-1-27 2-9z" fill="#515151"/>
<path transform="translate(907,332)" d="m0 0h12l2 3-1 7-4 5-5 2-1 75h-1l-2-73-13 4-7 5-1 5v39l1 7 1 145 2 107 1 145 1 73 1 24h20l1-2v-33l-1-102 1-6h1l1 50 2 41 1 52h11l-3 2-46 1-6-1 3-3 9 1v-57l-1-118-1-82-1-122-1-14-1-143-1-8-8-3-5-3v-3l3-2h3v-2l10-6 16-6z" fill="#5C5D5C"/>
<path transform="translate(1034,1144)" d="m0 0 7 1 11 2-3 2-12 7-12 11-8 7-13 13-6 1-40-4-23-3-6-3-5-5-4-10v-7l3-5 2-1h16l18 2 26 1 11 1h37l-1-8z" fill="#BCBEBF"/>
<path transform="translate(1043,1007)" d="m0 0 3 1 6 19 4 13 6 12-1 6-6 8-11 6-1 4-1 35-4 10-5 1 4-5 1-4-1-2 2-1v-2h-10l-1-3 1-4h-12l-2-5 2-14-1-4v-13h2l-1-5h-4l-4 7-1 8v12l1 3-1 7-5 1-4-2-1-9v-35l-1-6 5-6 8-7 2-2 8-2 1-15h1v12l9 1 9 2-2-12 2 1 1 10h2l-1-11-1-5h2l-1-3zm-28 26-2 1v7l3 2h7l7-5-3-3zm17 4-2 2 5 8 2 11 3 1 3-13v-5l-9-4zm-25 3-1 2 4-1zm42 2-3 13-1 7 4 1 6-7 1-4-5-10z" fill="#656665"/>
<path transform="translate(769,1689)" d="m0 0 4 2 6 2 2 2 2 1-1 3-3 1-8-2-1 3 6 2v-2h5l16 6 10 1h3 3v-2h2l-1-3 5-1v1h7l1-1 9-1 6 1v1l-9 1-4 3-3 4h-7l-5 3-1 6 6 2 7 1 1 3-7-1 4 2 17 9 5 2 4 2v-2l6 1 7 4 9 3h7l3 6 8 4 6 2 12 5 10 5 10 3 5 4 12 3 1 3 5 2 4 2h7l5-3 5-6 9-1 6-3 7-3 9-5 8-5 5-1h10l15-8 10-4 7-4 12-2-1 3-15 6-24 11-17 6-9 4-14 7-8 3-10 5-5 3-7 4-2 4-6 1-13-6-8-3v-2l-5-1-9-4-9-5-6-2-2-3-6-1-7-3-4-2-3-3-4-1-1-2-5-1-11-4-17-8-9-4-1-2-6-2-14-7-1-2h4l-7-5-5-3v-3l-8-2v2l4 1v2l4 1 4 5-5-2-5-3-6-4-8-4v-2l-7-1-1-2 7 1-18-10 1-2 3-1-1-6z" fill="#3E3F3F"/>
<path transform="translate(875,126)" d="m0 0h2l2 10v51l2 153-7 6-6 2-1-11-1-67-1-36v-22l1-7v-14l-1-6v-34l6-5 2-4z" fill="#BDBEBF"/>
<path transform="translate(890,1137)" d="m0 0h37l12 2 8 3 3 5 5 2 10 1h37l4-4 12-3 8-1 1-4 1 5 6 1 2 2-3 2v6l2 1h-39l-11-1-26-1-18-2h-16l-3 3-1 2v7l4 10v2l10 5 50 6 13 1 4 2-4 3-3 5-5 6h-16l-25-2-18-4-9-6v-6l6-2-4-1-6-8-4-8-6-10-3-6-5-3-12-4-1-5z" fill="#6A7178"/>
<path transform="translate(658,1126)" d="m0 0h9l3 1h12l2 2 1 23v45l-5 3-5-1v-2l-25-3-4-2v-10l1-12 3-1-2-3-1-10h2l-1-21 2-8z" fill="#505151"/>
<path transform="translate(938,111)" d="m0 0 3 1 2 7 2 2-1 8-1 5 1 28 2 39 3 79 2 79v17h-1l-2-16-2-100-1-26-1-8-2-35-2-4-1 2v68l1 50v29l-4 1-2-4-2-11-1-12-1-36-1-66-1-43 1-13 3-11 1-14 2-10z" fill="#BEC0C0"/>
<path transform="translate(998,1052)" d="m0 0h1v44l9 1v-8l-1-2v-12l1-9h2l1-4 4-4v2h2l1 5h-2l1 8v8l1 2-2 13 2 4h11l1 3-1 4 10 1 1 3-3 7-6 5-5 1v18l-18 4-4 2-2 3h-37l-13-2-5-5-1-2-11-3-8-1h-40l1 4 12 4 6 4 15 27 3 4-5-2-3-5-8-13-5-7-2-1v-2l-8-4-9-2-3-3-1-4 1-2 4-1 49 1 17 2 1 1h11l1 1h22l17 2h12l1-5h-2l-1-6-2-7-3-7v-2h2v-4h3v-5l1-4h-9l-3 2h-3l3 3 2 1v7l-4 3-7-2v-8l3-4-3-8v-28l2-6 2-1z" fill="#656665"/>
<path transform="translate(871,1592)" d="m0 0h9l2 7-1 1h6v1h12l3 2 2-2 2-5 4-3 10 2 7 2 4-1 3 2-2 4-12 5-17 9-22 10-4 3-1 5v56l-6 1-16-4-27-7-5-5-1-19v-16l-1-1-7-1-2-5 1-2h7l-1-12 5-5h3l2-4 5-2 8-1 6-4 4 2 2 2 4 1 7 1 8-1v-3l-3-2-2 1v-5l-2-1 1-3zm-30 19-9 1-9 6v14l2 13 1 18 6 8 5 3 21 6 10 2 3-5 1-4 1-37 3-10 3-3-5-2-2-2h-5v-2l-6-2-10-1-2-3z" fill="#646564"/>
<path transform="translate(1507,1224)" d="m0 0 11 1 60 6 21 3 2 3v92h-1l-1-52-1-7v-11l1-2h-2l1-3 1-13-5-1-13 3-9 2-9 1-29-1-13-1-8-1h-14l-3-1-7 1-2-2h-5l-7-2h-4l-2 12h2l1 10 1 2-1 4h-2v3h-2l1 4v18l-2 4-2 2-4 2-1-2-4 2h-13l-22-2-17-1-21-3-14-1-16-3-10-2v-1h7l36 5 40 4 19 1h9l12-2 1-26 2-5v-3l-6-2-5-2-25-2-7-1-1-2h9l20 2h13v-10l-1-5-4-3 9-4 5 1v3l2 1h18l-13-2-2-2 10-3 9-4z" fill="#47494A"/>
<path transform="translate(765,48)" d="m0 0h3l1 5 3 304 2 74 1 84 1 168 1 41 1 87-3 1-1-10-2-152-2-193-1-57-2-211-1-50-1-30z" fill="#697077"/>
<path transform="translate(544,1160)" d="m0 0h15l40 4 38 4 3 1 1 2v10l-2 9h-12l-43-6-24-3-20-4-6-3-2-3 1-4 5-5z" fill="#656665"/>
<path transform="translate(741,63)" d="m0 0h3l1 142 1 99 4 245 1 75v111l-2-1-1-52-1-20-1-81-1-53-1-103-1-53-1-129-2-159v-20z" fill="#697077"/>
<path transform="translate(871,361)" d="m0 0 6 1 3 1 1 3 1 14 1 151v81l-1 13-1 16-2-1-1-6 1-4-1-3v-20l-1-5-1-90-1-14v-12l-1-12v-22l-1-14-1-5-1-7-1-39v-24z" fill="#BCBEBF"/>
<path transform="translate(1083,1539)" d="m0 0h3l6 8v8l2 3 1 9 4 4-2 5-2 9-1 4-9 3-10 4-3 1-2 5-6 4-2 4-7 2-8-1-14 7-1 5 9 3 2 4-3 3-2 3-1-5 2-4-9-3-5-4-9-2 1-4 6-2 2-6 1-1h10l6 1 1-4-5-1 1-4 6-2 1-5 5-4 10-3 9-1 3-3 1-9 3-4 2 2 1-5-2-19z" fill="#484E51"/>
<path transform="translate(794,1373)" d="m0 0 4 1 2 1 1 10 1 33-4 3-9-5-4-4-1 3-19-2-4-5-1 3h-11l-2 1-1-2v-35l2 3 2 4 4-1 6 4 2 3h2l1-3 4-2 7-1 4-2v2h4v2l3-3 2-4h2l1-3z" fill="#504E48"/>
<path transform="translate(1072,871)" d="m0 0h1l1 10 1 23 23 5 1 1v33l-1 11h-13l-10-4-5-3-5-7-2-8-3-13-4-6-1-4 12-3v-11l2-2h4l-1-3z" fill="#404142"/>
<path transform="translate(916,349)" d="m0 0 5 1 1 12 1 61v72l-1 45-2 9h-2l-1-20-2-23-2-30-1-23v-101z" fill="#BCBEBF"/>
<path transform="translate(798,857)" d="m0 0 4 2 3 7 4 11 2 5 5 5 2 1v2l5 1 2 4 1 19-2-1-1-14-6 1h-6l-7-4-4 1-1 15 1 4v-10l5-1 3 1v2l3-1 5-5h6l-1 3-4 4-1 2h-2l-1 4-7 4h-2l-2 11-2 9-1 3 1 5v38h-1v11h1v6h-1v14l1 5v3l1 55v49l-6 2 1-5v-87l-1-78v-92h2v-10z" fill="#504F48"/>
<path transform="translate(874,960)" d="m0 0 2 1 1 81 2-12h6l1-3 4 1 2 10v19l1 18-1 45-5 2-7 1-6-1h-47v-1l32-1h17l-1-29-1-89z" fill="#505151"/>
<path transform="translate(933,1201)" d="m0 0 18 1 31 3 3 1-2 5-14 21-3 5-2 1h-12l-14-3-4-3v-4h-2l-3-5-2-6-2-5v-7l2-3z" fill="#697076"/>
<path transform="translate(888,1700)" d="m0 0m58-3 2 3 1 4h3l-2 4-5 7h-2l-1 2-10 6-1 4-4 2h-5l-1-2 3-5 7-4 3-3 4-7 3-4-6 1-4 4-3 2-6 2-9 8h-2v2l-3 1-3 6h-3v2l-3 3-7 2-5-2-2-5-7 1-6 2-3-2 1-6 3-3 8-3 3-4 1-4-10-1h-3l-5-2-7-1 4-2-13-1-2-3h9l10 1 9 1 11-2v2l2 1v-2l4-1 6 2 5 4 15-3 2-4 5-2 2 5 12-4h5z" fill="#4F4D47"/>
<path transform="translate(927,304)" d="m0 0h2l2 31v33l1 47 1 28v32l1 16 1 2v13l2 25 1 11 2 38v10l-2 16 2 10v8l1 4 1 6 1 11v13l-1 13-1 7v22l-2-1v-31l1-10-1-13-3-17v-15l-1-6v-41l-1-18v-16l-2-15v-11l-1-26 1-4-5-2v20h-1l-1-61v-74l-1-27 2-9z" fill="#515151"/>
<path transform="translate(924,208)" d="m0 0 2 2 1 9v31l1 5 2 32 2 39 1 9 5 5 1 2-1 3-7 2-1-5v-10l-1-12v-16h-2v19l-2 9 1 32v69l2 172 1 123 1 96-2 3-1-8v-67l-1-50v-45l-3-280-1-26-1-4h-5l4-8-1-6h-12l-14 7-11 4h-3l3-3 12-4 16-8 8 1 4-4 1-52v-61z" fill="#656665"/>
<path transform="translate(905,1041)" d="m0 0 5 2 4 6 2 10v61l-3 3h-8l-8-3-1-9v-62l4-6z" fill="#656665"/>
<path transform="translate(811,51)" d="m0 0 6 1 10 5-1 3h3l5 1-2 2 2 1v2l4-1 9 5 3 4 7 3 2 5 4 2 1 5-1 2h-3v2l-5 2h-5l-1 3h-15l-7-1-4 1-5-1v-2l-4-2-2-28z" fill="#282927"/>
<path transform="translate(1155,1222)" d="m0 0h12l24 3 72 8 22 2 2 1 36 3 72 8v2h18l29 3v1h-16l19 2 13 1 5 2 7 3-1 5-1 3-1 24-3 3-10 2h-11l-39-3-49-6-36-5-64-8-15-2-26-3v-1h11l69 8 20 3 44 6 26 3 12 2 33 2h31l4-2 1-2v-27l-3-2-14-3-26-3-13-2-22-2-15-2-86-10-47-5-28-3-46-5-22-2v-1z" fill="#636464"/>
<path transform="translate(1043,1007)" d="m0 0 3 1 6 19 4 13 6 12-1 6h-1l-1-5-4 6h-2l2-7-4-9-2-1-3 17h-2v-2h-2l-1 3-18 1-3-1-6-9-4 4-1 4-2 2-7-1-1-9-1-6 4-5 8-7 2-2 8-2 1-15h1v12l9 1 9 2-2-12 2 1 1 10h2l-1-11-1-5h2l-1-3zm-28 26-2 1v7l3 2h7l7-5-3-3zm17 4-2 2 5 8 2 11 3 1 3-13v-5l-9-4zm-25 3-1 2 4-1z" fill="#697077"/>
<path transform="translate(517,1155)" d="m0 0 29 2 13 1 24 3 56 6 4 1v20l-2 6h-5v1h-7l-3-1v-2l-10 1v-2l-4 1-6-1h-1l-2-2-6 1-5-2-5 1-1-3-1 2-5-1h-3-2v-2l-7 1-4-2-3 1v-2h-14v-2l-12-1-4-2-1 2-4-1-5-2-6-1-16-3-10-3-1-4 5-4 14-5zm27 5-6 2-5 5-1 4 5 5 17 4 50 7 26 3h9l2-9v-10l-1-2-3-1-21-2-17-2-40-4z" fill="#505151"/>
<path transform="translate(924,990)" d="m0 0 5 2 2 10v11l1 9v9h-1l-2-7-5-1-2 4 2 2-2 1-3 8h-2v16l2 28-1 3-1 39-1 1h-11l-8-2-2-3-1-76 1-23 2-7 6-1 5 5 7 12 1-2-1-7v-4h-3l-3-7-4-8 1-2 3 3 4 10-3-10-2-5-4-1-6-1h-2l-2 3 1-6 2-1h11l6 3 2 3 2 22 6-3-1-8-1-1-1-7v-9zm-19 51-6 3-3 5v62l1 9 8 3h8l3-3v-61l-3-12-5-5z" fill="#3E3F3F"/>
<path transform="translate(971,1478)" d="m0 0 6 1 3 3 12 3 5 2 9 2 7 2 9 2 16 5 18 6 8 3 6 3 1 2h2v2l4 2 1 4h3v2h2l1 10-1 3h2l1 4-6 3-1 6 2 19-3 2-1-2-3 3-2-10-4-5-3-9-3-7v-3h-2l-1-5 2-4-2-3-2-8-5-5-5-3v-2l-5-1-2-2-16-6v-2l-6 1-3-2-10-2h-10l-4 1v-2l-10-2-5-4-3-1v-3h-3z" fill="#272826"/>
<path transform="translate(1028,1584)" d="m0 0m9-1h2v2l-18 7-9 1-4 1-11 3-5 2v2l-5 3h-2v5l8 4-2 10 1 2 9-3 2 4-3 3-5 3-2 5-9 3v-2l6-2v-3l-9 1-2 6h-2v-2h-2l-1-2h-6l1-2 9-2 1-6h2l1-5h-4v2l-6 3h-5l-2-3-1 4h-2v2l-10 2 2-3h2v-2h2l1-3h-2v2l-7 1-1-1v-5l5 3 5-2 1-4 3-3-2-1-5 2v-2l4-3 6-4 10-7 3-1 1-2h2v-2l5-1v-2l5-2 6-2 18-2h16z" fill="#3E3F40"/>
<path transform="translate(953,403)" d="m0 0h11l17 5 10 4 8 6 6 7 11 7 1 3-3 1-3-2-6-1v-2h-6l-9-2-5-1-3-1-2 1 3 9 2 5v3l3 1h-2v2h4l1-2v3l9 3 3 2v2l4 1v7l-3 1h3v2h-6l-2-1-1 3h-6-3l-2-4-1-13-7-17-4-6v-2l-2-1 1-2-4-1-11-10-4 1-1 22 1 17h-2l-1-13v-35z" fill="#4E4D48"/>
<path transform="translate(924,1181)" d="m0 0 13 1 25 3 38 4-5 8-5 6h-16l-25-2-18-4-9-6v-6l6-2z" fill="#697077"/>
<path transform="translate(507,1107)" d="m0 0 25 1 10 4-1 4-7 7-1 8 1 3 15 6 11 1 5 2v3l-16-1h-18l-5 1-2 3 7 2-4 1-15-3-1-4 14-4-5-5-6-3-7-8-1-8v-7z" fill="#404141"/>
<path transform="translate(1389,1595)" d="m0 0 5 1-2 6-9 2-10 4-18 7-4 1-2 2-24 11-11 5-9 5-13 5-19 9-49 21-9 4-7 3-6 2-15 7-7 3-16 7-14 7-10 3-8 4-14 6-10 5-27 12-8 4-3-1 3-1 1-3 14-6 10-5 4-3 11-4 14-5h3v-2l6-3 5-5 10-2 2-3 16-4 8-4 7-4 26-10 4-3 13-4 11-5 23-10 17-7 10-5 21-9 10-5 20-9 14-7h4v-2l28-13h4z" fill="#434545"/>
<path transform="translate(998,1052)" d="m0 0h1v44l9 1v-8l-1-2v-12l1-9h2l1-4 4-4v2h2l1 5h-2l1 8v8l1 2-2 13 2 4h11l1 3-1 4 10 1 1 3-3 7-6 5h-5l-2-4v-3h-2l-3-9 1-2-4-1v6l-3 1v-5l1-4h-9l-3 2h-3l3 3 2 1v7l-4 3-7-2v-8l3-4-3-8v-28l2-6 2-1z" fill="#504F48"/>
<path transform="translate(727,1664)" d="m0 0h17l7 3 14 1 3 8 3 5-2 5-2 3h-2v5l-5 1h-7v-3l-9-4 1 2-4-1-9-5-10-4-11-5 2-2-2-2v-3l3-1 5 2 1 2 5 2 14 3-3-5-10-5z" fill="#3F4041"/>
<path transform="translate(594,1123)" d="m0 0h10l8 2h25v2l5 1 1 2v10l-12 6h-13l-13-4-4-2-13-3-5-4 1-5z" fill="#505151"/>
<path transform="translate(887,644)" d="m0 0h1l1 21 3 216 1 24h20l1-2v-33l-1-102 1-6h1l1 50 2 41 1 52h11l-3 2-46 1-6-1v-1l13-1v-66l-1-133z" fill="#484949"/>
<path transform="translate(924,1044)" d="m0 0 5 1 3 6 1 7-1 66-2 2-7-1-2-6-2-39v-16l2-19z" fill="#505150"/>
<path transform="translate(737,843)" d="m0 0h1l2 29 2 26 2 39v56l-1 7-1 34h-1l-1 62h-1l-2-68v-51l1-5 1-15v-19l-1-13h-5l3-2v-75z" fill="#696F74"/>
<path transform="translate(740,1022)" d="m0 0h1l1 12 1 72 2 7v12h2v4h6l1-41 1-23 2 2 3 58 1 2 7-1 3-2h7l1-1 1-99 2 2 2 92 1 11 3 1v1l-25 2h-17l-3-8 1-11-4-1z" fill="#646564"/>
<path transform="translate(807,1153)" d="m0 0h10l13 3 1 5h-2l1 7 2-4-1 21-4 3-8 3h-7l-5-2-3-5 1-6-1-8v-12z" fill="#4F4D46"/>
<path transform="translate(1525,1226)" d="m0 0 15 1 45 5 14 2 2 3v92h-1l-1-52-1-7v-11l1-2h-2l1-3 1-13-5-1-13 3-9 2-9 1-29-1-13-1h-3v-3h-9l-7-1v-1h16l10 1h35l5-2-6-1-19-2-9-2-2-4-7-2z" fill="#474849"/>
<path transform="translate(817,836)" d="m0 0h4 1l1 29v26l-5-1v-2l-5-2-4-5-3-10-4-11-4-2-1 10-3-1 2-1-1-21 5-1 8 1 5-5z" fill="#515151"/>
<path transform="translate(907,332)" d="m0 0h12l2 3-1 7-4 5-5 2-1 75h-1l-2-73-13 4-7 5-3 6-4-6-10-3-2-2v-3l3-2h3v-2l10-6 16-6z" fill="#404142"/>
<path transform="translate(647,1170)" d="m0 0h11l19 2 6 2 1 2v20l-5 1-12-1-17-2-4-2v-10z" fill="#6A7178"/>
<path transform="translate(731,1443)" d="m0 0 4 1-5 2v2h-2v2l-10 5-9 2-4 1h-7l-7 2-6 3h-6l-4 2-2 2h-7l-5 1-1 2-3 2v-2l-6 1-4-1v2l-9 1-7 2-4 2-10-1-4 4-6 1-2-1-7 3h-8l-5-2 4-2 123-31z" fill="#585651"/>
<path transform="translate(1206,1290)" d="m0 0h8l9 1h5 4l2 2 13 1 5-1 13 2 5 1v-4l4 1 2 4h-3v2l5-2 4-4 5-1h7l9 3 11-1 6 5 1-3 10-1 3 6v4l-7 1-7-3v-2h-2v2h-3v-2h-6l-6 1h-8l-2 2-1 2-9-2h-19l-2-2-9-1h-9l-14-3-11-1-2-3-7-1-4-1z" fill="#272826"/>
<path transform="translate(910,352)" d="m0 0h1l1 129 3 95 1 86-2-1-1-59-1-37v66l1 52v56h-1l-1-33-1-58-2-212v-46h1z" fill="#656665"/>
<path transform="translate(1446,1302)" d="m0 0 3 1 1 7-1 10 7 4v2h8l2-2v2l4 1-3 1 4 2-1 2-14-1-17-2-8-4 3-1v-2l-10 1-4-2-9-2-8-4-4-3 8-3 9-1 9-3h8l2 2z" fill="#292A29"/>
<path transform="translate(1093,1142)" d="m0 0h9l15 3 11 4 2 2 10 3-1-4 4 2 9 13v2l-5-1-11-9-12-4-11-2v-3l-7-3h-19l-4 1 2 1 21 1 5 1v2h-39l-16 4-2 5 9 1 2 2-3 1-8-1v9l3 10 3 7 8 2 23 3 5 1 33 4 3 2h-11l-56-6-11-2-2-5-3-18-2-13 8-5 10-4 15-4z" fill="#BCBEBF"/>
<path transform="translate(747,488)" d="m0 0h2l2 136v111l-2-1-1-52-1-20-1-81-1-53v-39z" fill="#697077"/>
<path transform="translate(791,280)" d="m0 0h1l1 14 1 28v21l-2 72-3 18h-1l-1-17v-39l-1-7v-51l2-24v-13z" fill="#656665"/>
<path transform="translate(620,1169)" d="m0 0 11 1 5 2 3 3v11l-5 2-28-3-17-5-5-3 1-4 2-2 7-1h18z" fill="#6A7178"/>
<path transform="translate(729,87)" d="m0 0 4 1v93l1 37v30l-3 3-2-27v-13l-1-19-1-54v-45z" fill="#BBBDBE"/>
<path transform="translate(1039,1162)" d="m0 0 3 1 4 9 3 12v8h-11l-23-2-5-2 2-4 8-7 8-8z" fill="#FEFEFE"/>
<path transform="translate(954,691)" d="m0 0h1l1 42v37h-3l-4 2-3-5-2-20v-13l-1-20-1-10 2 3 2 6v2h2v2h2v-11z" fill="#504E47"/>
<path transform="translate(557,1149)" d="m0 0h22l46 4 15 2 2 7-1 2h-9l-41-5-23-3-12-2-2-1 1-3z" fill="#656665"/>
<path transform="translate(794,1373)" d="m0 0 4 1 2 1 1 10 1 33-4 3-9-5-4-4-1 3-10-1v-1l10-1v-23l2-1 3-11h2l1-3z" fill="#504F48"/>
<path transform="translate(792,826)" d="m0 0h2l1 41 1 101 1 72v85l-2 5-7 1 1-2h4l1-37v-43l-2-182z" fill="#656665"/>
<path transform="translate(867,451)" d="m0 0 2 1 2 22v48l1 10 1 30 1 19 2 83 1 38v16l-1 24h-1l-1-58-3-93-1-24-2-18-1-35 1-22v-16l-1-12h-2l-1-2-4-1 2-6 1-2z" fill="#646564"/>
<path transform="translate(826,992)" d="m0 0h1v129h-2v-13l-2-2-1-4-1-15-1-6-2-24 1-17 2-6 2-21 2-5z" fill="#5B5A55"/>
<path transform="translate(685,1127)" d="m0 0h26l31 3 4 3h-13l-10-2-14-1h-22v64l1 7-1 11v9l2 18v31l2 5 3 4-1 7 6 2v1h-7l-5-2-3-4-1-20v-13l1-20v-102z" fill="#B5150D"/>
<path transform="translate(1034,1248)" d="m0 0h9l20 3 2 1 12 1 5 1 22 3 18 2 5 2 15 1 18 2 35 4 19 2-2 2-24-2-15-2h-19-2l-1 7-2 1-1-7-11-2-9-2h-7l-8-2-9-1-5-1h-4l1 7-3-1v-7h-5l-3 1v-2l-5 1-4-3h-8l-2-2-3 1-9-1-5-2-8-1-1-2-6-1z" fill="#494E51"/>
<path transform="translate(982,917)" d="m0 0h11l4 1h8l5 2-1 9-2 3h-2v2l-5 4-11 1-8-4-7-8-1-8z" fill="#404142"/>
<path transform="translate(423,1468)" d="m0 0h11l1 1v26l1 13-6 1-2-1v2l-8 1v-39l2-1z" fill="#404141"/>
<path transform="translate(748,682)" d="m0 0h1l1 52 1-27h1l2 102v46l-2 1-1 16h-1l-1-31-1-87z" fill="#6A7178"/>
<path transform="translate(1045,1656)" d="m0 0 3 2-6 5-1 5 3 6 7-1 1 3-3 2-2 8-3 4-7 1-2 7-6 2-5 1-7-6h-6l2-2 3-1 4-8 7-1 4-1v-6l6-3h2v-8l-6 1-3-2 6-1v-2h2v-2l7-1z" fill="#504F48"/>
<path transform="translate(810,1231)" d="m0 0h8l7 4 3 6h-3l3 3-1 5-3 1v3l1 4-1 8-4 2h-7l-5-4-1-7 1-17 1-7z" fill="#504E47"/>
<path transform="translate(948,1673)" d="m0 0 5 1 1 5-2 6 4 2-7 3-4 6-5 3-9 2-1-2 2-4v-1l-2-1-1-3-5 1 1 3-3 1-2 5-3 3-9 3h-4l-2-4-7-1-1-2 8-3h3v-2h2v-2h2v-2h2l1 4-3 6h5l5-5 4-5 7-4 5-5h2v-2l6-3z" fill="#4E4D46"/>
<path transform="translate(880,1132)" d="m0 0 17 1 8 1 19 1v1h-43l1 6 2 2 11 3 7 3-1 3 4 2 7 11 5 8 3 5 8 3 8 1v1l-13 1v6l8 5 18 4 38 3v1l-13 1-41-4-1-2-12-5-6-5 2-5 3-3-6-5-6-12-4-4v-2l-4-2-7-6-7-2v2h-4v-2h-2l-4-5v-7l3-3z" fill="#454A4C"/>
<path transform="translate(931,475)" d="m0 0h2l1 16 1 2v13l2 25 1 11 2 38v10l-2 16 2 10v8l1 4 1 6 1 11v13l-1 13-1 7v22l-2-1v-31l1-10-1-13-3-17v-15l-1-6v-41l-1-18v-16l-2-15v-11l-1-26z" fill="#514F48"/>
<path transform="translate(1567,1251)" d="m0 0 3 1 3 3 6 3 4 4 3 8v7l-1 1 3 15 1 10 2 3v8l3 10h-2l1 4-9 3-4 3-3-1 4-2 2-13 1-18-2-10-1-6-1-10-4-4-5-1-2-6z" fill="#3F4041"/>
<path transform="translate(1009,1161)" d="m0 0h18l-2 4-4 5-7 4-6 4-4 1-9-2-12-3-4-4 4-8h21z" fill="#FDFDFD"/>
<path transform="translate(900,1026)" d="m0 0 8 1 6 10 2 4 3 41-1 3-1 39-1 1h-11l-8-2-2-3-1-76 2-14zm5 15-6 3-3 5v62l1 9 8 3h8l3-3v-61l-3-12-5-5z" fill="#515151"/>
<path transform="translate(981,1537)" d="m0 0 4 1 1 3h2l1 5 7 1 1 5-4 2-3 4-3 1-5 5-9 3-2-1-1 3-7 2h-4l-2 2-2-1v2h-5l-2 1-3-3 3-3h2l2-4 11-2v-3h4l1-3h3l1-2 1-1 4-1v-2l3-2-1-9z" fill="#3E3F40"/>
<path transform="translate(1428,1254)" d="m0 0 30 2 5 2 7 3-1 5-1 3-1 24-3 3-10 2h-11l-39-3-49-6-36-5-64-8-15-2-26-3v-1h11l69 8 20 3 44 6 26 3 12 2 33 2h31l4-2 1-2v-27l-3-2-14-3-20-2z" fill="#656665"/>
<path transform="translate(772,490)" d="m0 0h1l2 25 1 168 1 41 1 87-2 1-1-69-1-34-1-68-1-101z" fill="#656665"/>
<path transform="translate(653,1128)" d="m0 0 23 1h6l1 2v8l-2 8-2 1v-2l-12 3-10-1-3-5-2-3v-10z" fill="#656665"/>
<path transform="translate(960,1092)" d="m0 0 1 4v2l11 3v1h-10l1 3v19h12v-15l2 3 1 9v6l-2 3h-10l-5-1-9-1-3-5 1-17v-6l3-5 4-2z" fill="#3E3F40"/>
<path transform="translate(1147,1219)" d="m0 0 17 1 63 7 57 6 16 1 22 3 72 8 1 2h-10l-82-9-16-1-2-1-39-4-73-8-10-1-13-1-3-1z" fill="#6A7178"/>
<path transform="translate(915,97)" d="m0 0 10 4 2 1v2h2l-1 4v-2l-8-1-3 3-5 15h-3l-1 5h-6l-13-4-9-1-5-5-9-3h-7v-2h-2l-1 2-5-2-10-1-5-2 2-2h5l7 2h8v2l6-1 9 2 5 1 4 2 5 1h15l5-2 4-2 2-6 2-4z" fill="#484E50"/>
<path transform="translate(1021,1014)" d="m0 0h1v12l9 1 10 2 2 8-1 4-10-3v3l4 6v5l-5-1v2l-7-1-4-3-1-3-9 2-6-1-2-5 4-3 2 1 3-3v-3l4-3 5-2zm-6 19-2 1v7l3 2h7l7-5-3-3z" fill="#BDBFC0"/>
<path transform="translate(874,960)" d="m0 0 2 1 1 121 1-6h1l1 8 2 1-1 3h2l1 24-2 4v4l3 1-2 2-9-1h-47v-1l32-1h17l-1-29-1-89z" fill="#727372"/>
<path transform="translate(871,1592)" d="m0 0h9l2 7-1 1h6v1h12l3 2 2-2 2-5 4-3 10 2 7 2 4-1 3 2-2 4-12 5-6 3-2-1 5-4 4-4h2l-2-3-12-1v3h6l-1 4-5 3-10-1-2-1h-12l-6-1-4 6h-2v2h-15l-2-1 1-3 7 1 8-1v-3l-3-2-2 1v-5l-2-1 1-3z" fill="#474A4B"/>
<path transform="translate(964,1473)" d="m0 0 11 2 78 22 10 3-1 3-8 2-13-5-21-7-13-2-9-3-4-1-9-3-5-1-3-2v-2l-3 1-10-5z" fill="#5C5C5B"/>
<path transform="translate(1090,1137)" d="m0 0h16l16 4 16 8 3 4-1 2-10-3-4-3-17-5-13-1-13 1-10 3-16 5-9 5-2 8-4-4 3-1 2-5 5-4 6-3 8-1v-3l-10 1 3-2 15-4z" fill="#686E73"/>
<path transform="translate(1506,1229)" d="m0 0h14v1h10l2-1v2l3 1 8 2 19 2 6 1 4 2-10 2h-26l-21-3-24-3-2-2 7-2 9-1z" fill="#272826"/>
<path transform="translate(796,968)" d="m0 0h1v13h2l1-2v6h-1v11h1v6h-1v14l1 5v3l1 55v49l-6 2 1-5z" fill="#514F49"/>
<path transform="translate(922,1036)" d="m0 0h5l3 5 1 2v6l-2-1v-3l-7 1-2 21v19l2 35 1 3 7 1 1-4 1-54h1l1 54 2 3-4 4h-9l-6-1h-7v-2l6-1 1-41 1-2-2-27v-12l2 2z" fill="#3F4041"/>
<path transform="translate(935,347)" d="m0 0 5 1v28l-1 48-3 3-1-2-1-12-2-53v-11z" fill="#BCBEBF"/>
<path transform="translate(763,1660)" d="m0 0h7l9 7 4-1 6-3 2 1-3 2 1 3 11 1-3 2-4 3 2 5 4 5 4 2 6 12 5 1-4 2-5-2-2 1-1-4-5-2-3-8-2-2 1-2-15-3-6-5 1-8-4-4-6-2z" fill="#3E3F40"/>
<path transform="translate(924,1057)" d="m0 0 5 3 1 11v40l-2 9-4 1-1-2-1-21v-38z" fill="#656665"/>
<path transform="translate(959,1209)" d="m0 0h13l3 3-1 5-8 18-1 1h-10l-5-2 2-5 2-4 1-14z" fill="#BCBEBF"/>
<path transform="translate(813,339)" d="m0 0h1v95l-3-1-4-10-1-13 3-8 2-8-1-16v-15l-3-3-2-7 1-4 5-3z" fill="#656665"/>
<path transform="translate(970,1235)" d="m0 0 5 3 54 7 65 8 51 7 27 3 3 1v2h-9l-12-2-20-2h-9l-5-2-38-5-17-2-9-2-22-3-23-2-18-3-18-2-5-2z" fill="#686D71"/>
<path transform="translate(879,990)" d="m0 0 3 2 3-1 4 3 2 9 1 16v19h-1l-1-10h-4l-3 3-4-1-1 13-2-1v-21l2-3 1-6 3 2 1-2v-9l-3-3h-1z" fill="#272826"/>
<path transform="translate(740,1022)" d="m0 0h1l1 12 1 72 2 7v12h2v4h6l1-41 1-23 2 2 2 47-2-1-1 15-1 4-9 1-3-8 1-11-4-1z" fill="#5A5C5C"/>
<path transform="translate(1016,1104)" d="m0 0h5l-1 4 2 4v4h2l2 5v21l-11 2 1-7h-2l-1-6-2-7-3-7v-2h2v-4l5-1z" fill="#676968"/>
<path transform="translate(1206,1290)" d="m0 0h8l9 1h5 4l2 2 13 1 5-1 13 2 5 1v-4l4 1 2 4h-3v2l10 1 5 2-1 2h-23l-2-2-9-1h-9l-14-3-11-1-2-3-7-1-4-1z" fill="#3B3C3C"/>
<path transform="translate(960,988)" d="m0 0h1l1 56 3 3 6 3 6 1v1l-5 1-3 4-8 2h-3l-7-2-2-6v-9-3-14l1 2 2 1 1 8 1 1v8l1 5 3-9-1-8-1-2h2v-2h-2v-2h2l1-34z" fill="#565859"/>
<path transform="translate(1374,1306)" d="m0 0 9 1h3l4 1 7 2v2l6 2 11 5 9 2 2 1 6-1 3 1 1 4 3 2-11-1-17-2-1-4-3 1-9-1-16-2-12-3 8-2 13 2v-1l-14-3z" fill="#3F4040"/>
<path transform="translate(885,362)" d="m0 0 1 3v39l1 7v141h-1l-1-91-1 51h-1l-1-149 2 1z" fill="#666869"/>
<path transform="translate(1468,1250)" d="m0 0 3 1 1 10 1 2-1 4h-2v3h-2l1 4v18l-2 4-2 2-4 2-1-2-4 2h-13l-22-2-17-1-21-3-14-1-16-3-10-2v-1h7l36 5 40 4 19 1h9l12-2 1-26 2-5v-3l-6-2-5-2-25-2-7-1-1-2h9l20 2h13z" fill="#494A4B"/>
<path transform="translate(740,1328)" d="m0 0 5 3v8h2l1-2 4 2 4 12 2 14v5l-2 1-8-8-2-9-7-4 1 2-2 3-2-5v-3h4l-1-8-1-1v-8z" fill="#636464"/>
<path transform="translate(792,640)" d="m0 0h1l1 5 1 22v29l2 9 4 7-3 20-5 5-1-3-1-25v-68z" fill="#514F48"/>
<path transform="translate(886,1027)" d="m0 0 4 1 2 10-1 11-2-1-3 1-4 16h-2l-1 10-2-3-1-9v-21h1l2-12h6z" fill="#504E47"/>
<path transform="translate(997,485)" d="m0 0 5 1 6 5 12 6v2l4 2 3 3-1 5-2 3-11-1v-1l6-1 1-4-5-5-8-7-2 1 1 3h3v2h2v3l4 2 1 4-4 2-11-1 1-2h-4l-1-4-1-1-1-15z" fill="#3F4041"/>
<path transform="translate(974,425)" d="m0 0h9l-3 3 3 9 2 5v3l3 1h-2v2h4l1-2v3l9 3 3 2v2l4 1v7l-3 1h3v2h-6l-2-1-1 3h-6-3l-2-4-1-13-7-17-4-6v-2l-2-1z" fill="#3E4040"/>
<path transform="translate(911,555)" d="m0 0h1l1 10 1 37 1 76v63l-2-2-1-59-1-49z" fill="#4D4E4E"/>
<path transform="translate(642,1168)" d="m0 0h1v20l-2 6h-5v1h-7l-3-1v-2l-10 1v-2l-4 1-6-1h-1l-2-2-6 1-5-2-5 1-1-3-1 2-5-1h-3-2v-2l-7 1-4-2-3 1v-2h-14v-2l-12-1-1-2h16l17 3 45 6 27 3 2-21z" fill="#4A4D4E"/>
<path transform="translate(1063,1143)" d="m0 0h6l-3 1v3l-10 3-9 6-2 4-6 1-5 5-9 7-11 11-5 3v4l-7 3 2-4v-1h-2v-2l8-7 13-13 11-9 9-7 6-3h3v-2z" fill="#505659"/>
<path transform="translate(747,558)" d="m0 0 2 1 1 44 1 21v111l-2-1-1-52z" fill="#656767"/>
<path transform="translate(1155,1222)" d="m0 0h12l24 3 72 8 22 2-3 3-15-1-34-4-33-3-35-4-22-2v-1z" fill="#656665"/>
<path transform="translate(867,353)" d="m0 0 3 3 10 3 2 2 1 8 1 143 1 14v59l-2-1-1-61-1-143-1-17-9-2-1 7h-1l-1-9z" fill="#696E74"/>
<path transform="translate(903,351)" d="m0 0h4l1 2 1 83v99h-1l-2-163v-14h-7l-9 4h-2l-1 4-1 38h-1v-39l2-6 7-5z" fill="#6A7178"/>
<path transform="translate(927,474)" d="m0 0 3 1 1 10v73l-1 25h-1l-1-11-2-46v-32z" fill="#4F4D47"/>
<path transform="translate(517,1155)" d="m0 0 14 1v1l-10 1-9 5-2 2-1 5 4 2 14 4 7 1-3 1-1 2-4-1-5-2-6-1-16-3-10-3-1-4 5-4 14-5z" fill="#3E3F40"/>
<path transform="translate(818,1156)" d="m0 0 9 6 2 4-2 7-6 1v12l-3 3-5-1-1-3-1-13-2-6 5-8z" fill="#54524C"/>
<path transform="translate(998,1205)" d="m0 0h11l4 1 39 4 26 3 42 5 30 3 5 1v1h-12l-15-2-57-5-55-6-13-1-3-2h5l-7-1z" fill="#474A4C"/>
<path transform="translate(1316,1572)" d="m0 0 23 6 44 13 3 2h-10l-2-1-5 1-4-2-12-2-10-3-13-4-8-2-7-3z" fill="#71777E"/>
<path transform="translate(650,1156)" d="m0 0h10l21 3 2 2v7l-3 1-21-2-9-1-2-4z" fill="#656665"/>
<path transform="translate(966,416)" d="m0 0 5 1v2h9l9 1 1-2 8-1 7 8 11 7 1 3-3 1-3-2-6-1v-2h-6l-9-2-5-1-2-1v-1l-9-1-8-8z" fill="#555657"/>
<path transform="translate(799,586)" d="m0 0 5 1 2 9v19l-4 4-5-2-3-9v-13l3-7z" fill="#6A7178"/>
<path transform="translate(945,260)" d="m0 0h1l1 63v41l-2 7-1 9-2 1v-48l2-61z" fill="#656665"/>
<path transform="translate(1039,1162)" d="m0 0 3 1 4 9 3 12v8h-11l-23-2-5-2 2-4 8-7 8-8zm-7 6-8 7-10 10v3l6 1h15l5-2 1-10-3-7-1-2z" fill="#BDBFC0"/>
<path transform="translate(948,498)" d="m0 0h4l2 40 1 82-2-4-1-11-1-81-1 6-2-4-2-7v-13z" fill="#7B8187"/>
<path transform="translate(944,183)" d="m0 0h1l2 47 3 84 1 45v17h-1l-2-16-2-100-1-26-1-8-1-32z" fill="#C7C9CA"/>
<path transform="translate(951,405)" d="m0 0h1l1 48-1-2h-3v-2l-3 1-2-8v-2h-2v-17h2l6-12z" fill="#656665"/>
<path transform="translate(916,108)" d="m0 0h1l-1 12-3 11-5 5-3 2-2-5-3-2-9-2-1-1-10-2-2-4-6-1-7-3-15-2-7-3v-1h8l5 2 3-1v2l7-1 9 3 5 4v2h10l12 4 6 1 1-5 3-3z" fill="#666766"/>
<path transform="translate(747,1332)" d="m0 0 5 1 3 3 2 12 1 9 2 5-1 4h2v2h5v1l-5 1-3 5-4-1-6-4-3 3-5-13-1-2v-6-3l8 5 2 9 5 6 3 1-1-10-2-12-3-9h-6v-5z" fill="#373837"/>
<path transform="translate(1043,1007)" d="m0 0 3 1 6 19 1 4v11l-6-2-2 16h-1l-1-15-4-16-1-8 2 1 1 10h2l-1-11-1-5h2l-1-3z" fill="#777D82"/>
<path transform="translate(746,1375)" d="m0 0 2 3 1 7h5v3l2 1 2 6 2 7-1 5-2 2-8 1-2 2-1-2z" fill="#6C6D6D"/>
<path transform="translate(900,999)" d="m0 0 5 1 5 10 1 6 2 1 1-1 2 1v8l1 4-2 4-5-10-4-7-3-2h-6l-1 7-1 21h-1v-26l1-12 2-4z" fill="#272826"/>
<path transform="translate(1041,1159)" d="m0 0 4 5 1-4h2l3 14 3 18 11 2 13 2v2h-10l-36-4v-1l-11-1v-2l28 2-3-16-4-11-1-2-6 1 4-4z" fill="#697077"/>
<path transform="translate(685,1127)" d="m0 0h26l31 3 4 3h-13l-10-2-14-1h-22v64l1 7-2 20h-1l-1-74v-19z" fill="#B6140C"/>
<path transform="translate(940,1137)" d="m0 0 11 1 1 1h11l1 1h22l17 2 12 1v1h-33v2h-3v2l-2 1h-16l-2-1v-2h-2v-3l-11-3-6-1z" fill="#474B4D"/>
<path transform="translate(820,732)" d="m0 0h1l4 133v30l-2-2-1-28-1-56-1-5-1-13z" fill="#8E9192"/>
<path transform="translate(1389,1595)" d="m0 0 5 1-2 6-9 2-10 4-18 7-4 1-2 2-24 11-8 4-3-1 2-3 17-7 17-9 7-1v-2l28-13h4z" fill="#424344"/>
<path transform="translate(956,692)" d="m0 0h1l2 136v59h-1l-1-25-1-57-1-30z" fill="#A0A3A6"/>
<path transform="translate(1127,1524)" d="m0 0 7 1 3 2 6 1 7 9v2l3 1 2 3-4 5-6 3h2l-1 3-3-1-3-4v-2l-4-1 1-4 1-3h2v-2l3-2-4-1-1-3-4-2-4-1v-2l-3-1z" fill="#514F48"/>
<path transform="translate(954,766)" d="m0 0 2 4v89l-2-1-2-16v-48l1-5v-7l-1-2v-10z" fill="#272826"/>
<path transform="translate(797,424)" d="m0 0h2l4 8 1 8-1 11-4 5-4-2-3-9v-11l3-7z" fill="#BCBEBF"/>
<path transform="translate(1034,1248)" d="m0 0h9l20 3 2 1 12 1 5 1 22 3-1 3-8 1 1 7-3-1v-7h-5l-3 1v-2l-5 1-4-3h-8l-2-2-3 1-9-1-5-2-8-1-1-2-6-1z" fill="#4C5153"/>
<path transform="translate(647,1170)" d="m0 0h11l19 2 6 2 1 2v20l-5 1-12-1-17-2-4-2v-10zm2 1-1 3-1 16 2 2 17 2h5l2-1 6-1 2 1v-6l-1-3-1-2h-2l-1-5-2-1 2-2-10-2-8-1z" fill="#646564"/>
<path transform="translate(521,1157)" d="m0 0h24l-1 2-13 2-5 3-4 3 2 6 9 3v1l-10-1-10-3-4-3v-5l4-4z" fill="#474D50"/>
<path transform="translate(793,1375)" d="m0 0 5 3 1 1 1 9v14l-2-4-1-14-1-2-3-1-2 6h-2l1 17 2 10v2h-3l-4-4-1 3-10-1v-1l10-1v-23l2-1 3-11z" fill="#515151"/>
<path transform="translate(562,1154)" d="m0 0 22 3 48 6h9l2-1v5l-1-2-11 1-3 1-45-5-10-1 3-2-25-3v-1z" fill="#484D4F"/>
<path transform="translate(885,1135)" d="m0 0 49 1 5 1v1h-52l1 4 12 4 6 4 15 27 3 4-5-2-3-5-8-13-5-7-2-1v-2l-8-4-9-2-3-3-1-4 1-2z" fill="#636463"/>
<path transform="translate(478,1105)" d="m0 0h10l2 3 7 2 2 4-3 3 1 10 1 3 6 4-2 1-6-4-5-1-3-4-1-5h-2l-1-5 3-4-5-1-2-1v-4z" fill="#3F4041"/>
<path transform="translate(748,1369)" d="m0 0 7 5 7 1 2-5 8 1 3 7v2l-9-1v2h-3v2l4 2-3 3h-2l-1 2-3-6-6-2-3 1-3-8 1-5z" fill="#292A29"/>
<path transform="translate(976,1316)" d="m0 0h1v27l4-1 2-9 2-8h1l1 13v16l-5 5-4-2-1-3-5-1 3-1v-23z" fill="#4F5152"/>
<path transform="translate(1510,1219)" d="m0 0 7 1 8 5v1l-18-1-15 5-9 4 13 2 1 2h-19l-3-2v-3h-6l3-3 23-5 14-5z" fill="#686E73"/>
<path transform="translate(733,458)" d="m0 0h1l1 66v73l-2 1-1-8v-33z" fill="#697077"/>
<path transform="translate(1037,1583)" d="m0 0h2v2l-18 7-9 1-4 1-11 3-5 2v2l-5 3h-2v5l3 3-5 3-3-1v-4-3l-2-2 12-8-2-2h6l8-5 10-2 16-2z" fill="#272826"/>
<path transform="translate(772,490)" d="m0 0h1l2 25v92h-2l-1-67z" fill="#666A6C"/>
<path transform="translate(924,1181)" d="m0 0 13 1 25 3 38 4-3 3-1-1-32-3-20-2h-15l-1 5 7 5 28 4v1h-14l-18-4-9-6v-6l6-2z" fill="#656665"/>
<path transform="translate(1017,435)" d="m0 0 4 4 6 15 5 18 2 7-1 4-6-12 1-2-6-1h-7l-3-1v-2h2l2-6-3-1-1-3h3v3h2l1 7 3-2 3-1-1-8h2v-2h-3l-1 4-4-1-1-2 5-2-1-5-3-7z" fill="#454747"/>
<path transform="translate(899,1013)" d="m0 0 5 1 5 5 7 14v8l-4-5-4-7v-2h-8l-3 1-1 6h-1v-13l2-7z" fill="#414142"/>
<path transform="translate(921,1180)" d="m0 0 7 2 8 1v1l-13 1v6l8 5 18 4 38 3v1l-13 1-41-4-1-2-12-5-6-5 2-5 5-1z" fill="#474C4E"/>
<path transform="translate(958,989)" d="m0 0h2l-1 34-2-2v-7h-4l-1 6h-2l-1-3 1-4v-18l3-4z" fill="#3C3D3E"/>
<path transform="translate(954,691)" d="m0 0h1v44l-1 6h-1l-1 27h-1l-1-33-2-3v-10h3l-1-3v-13z" fill="#535453"/>
<path transform="translate(1578,1232)" d="m0 0 15 1 7 2 1 2v92h-1l-1-52-1-7v-11l1-2h-2l1-3 1-13-7-1-1-3h-6l-2-2-5-2z" fill="#959797"/>
<path transform="translate(967,1697)" d="m0 0 4 1 1 4-3 7 2-2h3l1-4 3-2 3 1h-2v2h-2l-2 4-4 4-5 3h-2l-1 4-1 3-6 3h-5l1-5h2l2-5 7-4 1-6-7-1 4-2 5-3z" fill="#514F48"/>
<path transform="translate(909,1593)" d="m0 0 11 2 7 2 4-1 3 2-2 4-12 5-6 3-2-1 5-4 4-4h2l-2-3-12-1v3h6l-1 4-5 3-10-1-2-1-10-1v-1h11l3 1 3-3 2-5z" fill="#53534F"/>
<path transform="translate(1021,1014)" d="m0 0h1v12l9 1 10 2 2 8-1 4-10-3-5-2-11-2v-3l4-2z" fill="#C2C3C4"/>
<path transform="translate(914,762)" d="m0 0h1l1 50 2 41v35h-1v-31h-2v13h-1l-1-102z" fill="#505151"/>
<path transform="translate(1106,1143)" d="m0 0 11 2 11 4 2 2 10 3-1-4 4 2 9 13v2l-5-1-11-9-12-4-11-2v-3l-7-3z" fill="#BEC0C1"/>
<path transform="translate(1350,1301)" d="m0 0 4 1h12l1 9-8 1-3 3-11-2 3-3-7-3 3-3-1-2 7 1z" fill="#272826"/>
<path transform="translate(1023,1489)" d="m0 0 16 4 24 7-1 3-8 2-13-5-21-7 1-3z" fill="#5C5D5B"/>
<path transform="translate(1e3 522)" d="m0 0 6 3v3h2l2 9 5 3 3 6v6h-2l-1 2h-8l-4-2 6-2-1-9-1-4-5-3-2-3z" fill="#424345"/>
<path transform="translate(1206,1290)" d="m0 0h8l9 1h5 4l2 2 13 1 5-1 13 2 5 1v-4l4 1 2 4h-3l-1 3h-9l-4-2h-7-4-8v-2h-9l-6-1h-5l-1 2-2-3-7-1-4-1z" fill="#272826"/>
<path transform="translate(683,1161)" d="m0 0h1l1 5v31l-5 3-5-1-1-3h9v-22l-35-4 2-1-2-5 2 1 15 2 18 1z" fill="#414240"/>
<path transform="translate(748,1381)" d="m0 0 2 1 4-1 6 4 2 3h2l1-3 5-1v2l-4 2-1 3-1 19-3-2-1 3h-11v-2l8-1 2-5-1-7-1-4-2-1-1-3v-3l-5 1z" fill="#4F504F"/>
<path transform="translate(630,1127)" d="m0 0h6l2 1v2l3 1 1 3-7 6-5 1-8-1v-10l3-2z" fill="#656665"/>
<path transform="translate(897,992)" d="m0 0h11l6 3 2 3 1 22-2-3h-3l-3-7-4-8 1-2 3 3 4 10-3-10-2-5-4-1-6-1h-2l-2 3 1-6z" fill="#404142"/>
<path transform="translate(1059,1715)" d="m0 0 7 1 3 5-5 3-6 1-2 9-4 3-6-1v-3l1-5h2v-2l6-2 1-7z" fill="#656665"/>
<path transform="translate(886,1063)" d="m0 0 4 1 2 5-1 26-2 4-3 1-1-8v-26z" fill="#514F48"/>
<path transform="translate(1502,1239)" d="m0 0h16l10 1 17 1 21 1 1 2-4 2-29-1-13-1h-3v-3h-9l-7-1z" fill="#595B5B"/>
<path transform="translate(1096,1140)" d="m0 0h23l16 7 5 5v3l-10-3-4-3-17-5-10-1z" fill="#5B5D5D"/>
<path transform="translate(1015,1518)" d="m0 0 5 1 3 4v4l-5 1-4-1v1l15 2v1l-13 1-6-1-3 3h-5l1-2-9-3v-1l11-1 6-4z" fill="#404243"/>
<path transform="translate(1053,1035)" d="m0 0 2 3 7 14-1 6h-1l-1-5-4 6h-2l2-7-4-9-2-1-3 17h-2v-2h-2l-1 3-5-1v-6h1v5l3-1 3-16h1l1 9 1-10h3 3z" fill="#C7C8C9"/>
<path transform="translate(887,1832)" d="m0 0 1 2 4 1v87l-1 7h-1l-1-93-4-3z" fill="#878989"/>
<path transform="translate(1130,1712)" d="m0 0m-3 1 3 1-19 10-24 10-14 7-3-1 3-1 1-3 14-6 10-5 4-3 11-4z" fill="#3E3F40"/>
<path transform="translate(927,1202)" d="m0 0h6l-1 2v9l5 11v5l3 1 1 3 5 2v1l-8-1-4-3v-4h-2l-3-5-2-6-2-5v-7z" fill="#656665"/>
<path transform="translate(922,1201)" d="m0 0h11v1l-6 1-1 2v7l3 6 2 6 1 4h2l2 6-4-2-5-5-5-6-3-8v-9z" fill="#484E51"/>
<path transform="translate(873,650)" d="m0 0h1l1 34v59l-2 6h-1l-2-9-2-5 1-4v3l4 2 1-2-2-1 1-2-2-1 2-1v-12l-1-2v-7l-1-2h2l1-4-2-1 1-8-1-11z" fill="#4F4F4D"/>
<path transform="translate(423,1468)" d="m0 0h11l1 3h-2v-2h-2v2h-4l-1 5-2 1 1 1v7l-1 4v8l-2 3h1l1 7 4 1v2l-8 1v-39l2-1z" fill="#40403F"/>
<path transform="translate(820,917)" d="m0 0 1 3-5 9-3 12-2 14v8l1 14 1 6 4 9h5l2-1-1 5-1 1h-5l-6-9-2-10-1-25 6-27 3-6h2z" fill="#404142"/>
<path transform="translate(900,349)" d="m0 0h11l-1 75h-1l-2-73-13 4-7 5-3 6-2-3-2-4 5 2 2-4 8-6z" fill="#515252"/>
<path transform="translate(724,1329)" d="m0 0 5 1 6 4 1 8v5l-2-4-2-7-2-1v5l-7 11-5 4-1-6v-5h2l1-5zm3 2-3 5-3 6 1 2 6-11zm-7 13 1 2z" fill="#7A7E82"/>
<path transform="translate(1343,1287)" d="m0 0h7l36 5 40 4 28 2-3 2-19-1-11-1-17-1-21-3-14-1-16-3-10-2z" fill="#4D5051"/>
<path transform="translate(1458,1298)" d="m0 0 1 3-2 5h-2l-1 2h2v2h-3l3 1v6l6 9h-6v-2l-4-1-4-3 1-13-1-4 4-1v-2z" fill="#3D3E3F"/>
<path transform="translate(810,1056)" d="m0 0 2 4v38l3 13h2l2 3v5l-2 2v5l5-3 4 1h-2l-2 6-1 1h-6l-2-4 1-14-3-7-2-19z" fill="#404142"/>
<path transform="translate(812,1635)" d="m0 0 1 3h8l1 2v15l-2-4v-11l-4 2-1 4-2 3 1 4 1 2v8l-4 1v-2l-4 1 3-6-3-9 2-9z" fill="#424344"/>
<path transform="translate(731,1443)" d="m0 0 4 1-5 2v2h-2v2l-10 5-9 2-4 1-6-2 4-2 3-2h5l1-4z" fill="#504E47"/>
<path transform="translate(903,351)" d="m0 0h4l1 2v16h-2v-11h-7l-9 4h-2l-1 4-1 38h-1v-39l2-6 7-5z" fill="#686D72"/>
<path transform="translate(926,1688)" d="m0 0m-1 1m-16 1h2l1 4-3 6h5l5-5 4-5 2 1-1 4h-2l-2 5-3 3-9 3h-4l-2-4-7-1-1-2 8-3h3v-2h2v-2h2z" fill="#514F48"/>
<path transform="translate(649,1127)" d="m0 0 2 1 1 22h4v2l17 1 2 1v3h-25l-1 5-2-3v-3h2l-1-21 1-4z" fill="#474C4F"/>
<path transform="translate(803,895)" d="m0 0 5 2 3 2h11l1-2 1 6h-8l-5 5h-3v-2l-7 1-1 9-2-1v-10l2-8z" fill="#3E3F40"/>
<path transform="translate(867,470)" d="m0 0h1l1 6v16l-1 24 1 33 2 21v11l-2-3-2-21-1-38v-21l1-13-1-11z" fill="#4F5151"/>
<path transform="translate(536,1572)" d="m0 0h12l4 4-1 6-6 1-3-1-7-1-3-3 1-5z" fill="#404142"/>
<path transform="translate(922,1036)" d="m0 0h5l3 5 1 2v6l-2-1v-3l-7 1-2 21h-3l-1-13v-12l2 2z" fill="#3D3D3E"/>
<path transform="translate(889,768)" d="m0 0h1l1 40v31h-3v-69z" fill="#494A4B"/>
<path transform="translate(918,346)" d="m0 0 4 1 1 4v26h-1l-2-27-6 1-1 1-1 101h-1v-104z" fill="#6A7178"/>
<path transform="translate(964,1377)" d="m0 0 1 2-3 5 1 89h-2l-1-25-1-65 2-3h2z" fill="#858788"/>
<path transform="translate(775,1387)" d="m0 0 4 2-1 5-2 4-2 11h-6l-1-1 1-10 2-9z" fill="#656665"/>
<path transform="translate(973,411)" d="m0 0h2v2l6-2h8l8 5v2l-7 1-1 1h-9l-2-1v-2l-9-2-1-2z" fill="#444546"/>
<path transform="translate(820,849)" d="m0 0 2 3 1 13v11h-4l-3-8-2-7 1-8h2z" fill="#514F48"/>
<path transform="translate(1067,1507)" d="m0 0 7 3v2l6 2 3 3h3l3 4 2 8-2 4-2 5-2-1v-2h-2v-13h-2v-2h-3l-3-5-2-1v-2l-6-2z" fill="#514F48"/>
<path transform="translate(1023,1109)" d="m0 0 13 1 3 3-2 5-6 5h-5l-3-7z" fill="#2A2B29"/>
<path transform="translate(1099,978)" d="m0 0 1 4-5 1-47 2h-17l1-2 17-1 2-1 38-1h9z" fill="#686A6C"/>
<path transform="translate(1314,1237)" d="m0 0 20 1 24 3 36 4 1 2h-10l-71-8z" fill="#6A7178"/>
<path transform="translate(1507,1224)" d="m0 0 11 1 18 3v1l-9 2h-8l-1-1h-12l-7 2-4-1 5-5z" fill="#404243"/>
<path transform="translate(1041,1076)" d="m0 0h1v35l-4 10-5 1 4-5 1-4-1-2 2-1v-2h-5l-1-2 3-2v-3h2v-13z" fill="#878B8F"/>
<path transform="translate(929,640)" d="m0 0h2l1 13 1 1 1 9v19l-3-3-1 24h-1z" fill="#404142"/>
<path transform="translate(467,1102)" d="m0 0 58 4 23 2v1h-16l-44-3h-13l-6 2h-4l1-5z" fill="#838688"/>
<path transform="translate(929,1689)" d="m0 0 2 1 1 3 3 1-3 1-1 5 3 2-5 2-2-6-6 4-3 3-12 3-6-3-1-2-6-2 4-1 6 2 1 4 13-4 4-5 3-4v-2z" fill="#272826"/>
<path transform="translate(1e3 487)" d="m0 0 5 1 3 3 12 6v2l4 2 3 3-1 5-2 3-11-1v-1l6-1 1-4-5-5-8-7-5 1v-2h-2l-1-4z" fill="#505253"/>
<path transform="translate(975,1745)" d="m0 0 2 1-2 4-5 5-5 6-9 6-4 4h-2v2h-2l1-4 4-6 8-7 8-6h2l1-4z" fill="#504E47"/>
<path transform="translate(880,1132)" d="m0 0 17 1 8 1 19 1v1h-45l1 8 7 3-2 1v2h-4v-2h-2l-4-5v-7l3-3z" fill="#414344"/>
<path transform="translate(737,999)" d="m0 0h1l1 19 1 1v77h-1l-2-68z" fill="#A4A8AA"/>
<path transform="translate(891,823)" d="m0 0h1l2 60v18l1 3 18 1v1h-20l-1-1-1-24z" fill="#656665"/>
<path transform="translate(818,1156)" d="m0 0 9 6 2 4-1 5h-1l-2-7-4-2-1-2-4 1-1 4 1 7 1 5-2 2-1 6h5l2-3-1 5-4 2-3-1-1-3-1-13-2-6 5-8z" fill="#515252"/>
<path transform="translate(992,1750)" d="m0 0h4l-1 5-9 10-3 2-2-4-3 3-1 3 5-1-1 2-8 1 2-7 8-6 3-5z" fill="#272826"/>
<path transform="translate(747,1332)" d="m0 0 5 1 3 3 2 12 1 9 2 5-1 4h2v2h5v1l-5 1-2 3-7-2-3-5 1-2 4 5 3 1-1-10-2-12-3-9h-6v-5z" fill="#51504B"/>
<path transform="translate(916,1060)" d="m0 0h1l2 22-1 3-1 39-1 1h-11l-8-2-2-5 1-7h1l1 9 7 2h8l2-4z" fill="#4F5151"/>
<path transform="translate(911,555)" d="m0 0h1l1 10 1 37v28l-3 1z" fill="#515151"/>
<path transform="translate(983,1237)" d="m0 0h13l20 2 21 3 19 3 1 2-11-1-43-5-20-3z" fill="#FEFEFE"/>
<path transform="translate(962,1474)" d="m0 0 9 3-1 4h3v3l4 1 6 4 8 2v3h5l-4 3-3-1v-3l-5-1-1 4-4-1-2-7-4 1-3-3-7-8z" fill="#464643"/>
<path transform="translate(646,1173)" d="m0 0h1v19l26 4v3l-5 2-6-1-5-1-1-1-4 1-4-2-4-4v-13z" fill="#47494A"/>
<path transform="translate(1072,871)" d="m0 0h1l1 10 1 23 19 4v1l-14 1-12-2 3-2 1-5h-3l-1-7 5-1-1-3z" fill="#656767"/>
<path transform="translate(1068,1740)" d="m0 0h2l-1 3-15 6-24 11-3 1v-3l8-5 16-7 7-4z" fill="#3D3E3F"/>
<path transform="translate(1079,1214)" d="m0 0h8l33 4 30 3 5 1v1h-12l-15-2-57-5v-1z" fill="#4B4F51"/>
<path transform="translate(1016,580)" d="m0 0h2l4 7-2 10h-10l-2-5v-8l4 4h3z" fill="#404142"/>
<path transform="translate(546,1157)" d="m0 0 13 1 24 3 56 6 2 1-1 3v-2l-24-2-17-2-40-4-12-1z" fill="#494E50"/>
<path transform="translate(877,830)" d="m0 0h1l1 67-1 5-2-2v-69z" fill="#656665"/>
<path transform="translate(885,362)" d="m0 0 1 3v55l-2 3-1-2-1-58 2 1z" fill="#646564"/>
<path transform="translate(957,1725)" d="m0 0h6l1 5-5 4-6 3h-2v2l-5 1-3-2 2-2h3v-2h2l1-5 1-2z" fill="#514F48"/>
<path transform="translate(1214,1673)" d="m0 0h5l-3 2-4 2-4 4-6 2-15 7-7 3-6 2v-3l10-6 26-10z" fill="#454647"/>
<path transform="translate(707,1333)" d="m0 0h3l2 6v14l-4 1v2l3 1-2 3-3-4-1-10v-10z" fill="#51504B"/>
<path transform="translate(1303,1165)" d="m0 0h11l75 6v1h-26l-10-1h-7l-1-1-32-2-10-2z" fill="#FDFDFD"/>
<path transform="translate(932,757)" d="m0 0 2 4 1 21v13l-2 5-2-3v-39z" fill="#272826"/>
<path transform="translate(1034,1248)" d="m0 0h9l20 3 2 1 12 1 1 2-10 2-2-2-3 1-9-1-5-2-8-1-1-2-6-1z" fill="#494E50"/>
<path transform="translate(1281,1236)" d="m0 0 22 1 26 3-1 3h-9l-33-4-5-2z" fill="#646564"/>
<path transform="translate(576,1158)" d="m0 0 12 1 41 5 2 3-37-4-21-2z" fill="#3F4041"/>
<path transform="translate(800,751)" d="m0 0h7l1 2v11l-3 4-4-2-3-5z" fill="#6A7178"/>
<path transform="translate(1387,1248)" d="m0 0 26 1 29 3v1h-16l2 2-13-1-13-2-1-1-11-1z" fill="#606161"/>
<path transform="translate(1100,1214)" d="m0 0 18 1 27 3 2 1v2h-8l-46-5v-1z" fill="#686D72"/>
<path transform="translate(957,1076)" d="m0 0 4 1 8 3 2 1v10l-3 5-2-1v-4h-5l1-8-5-3z" fill="#404142"/>
<path transform="translate(959,1684)" d="m0 0 6 2-2 4-4 6 3 1v2h-3v2l-5 2-5-1 1-6 5-1 2-4 1-5-2-1z" fill="#4E4C46"/>
<path transform="translate(1e3 1188)" d="m0 0 2 1-3 3-1 3h-2l-2 4-3 3 3 3 9 2-3 1h-13l-5 1 1-4-3-1 6-2 6-7 3-5z" fill="#2E302F"/>
<path transform="translate(393,1524)" d="m0 0h1l1 21 2 22v42h-1l-4-82z" fill="#737677"/>
<path transform="translate(423,1483)" d="m0 0 2 2 1 7 4 2h-2l3 7v6l-8 1-1-5h-1v-5l2-2z" fill="#282927"/>
<path transform="translate(963,1734)" d="m0 0h2l1 3-4 5-7 5h-2l-2 4-5 5-2-1v-3l4-3 3-6 7-6h2v-2z" fill="#514F48"/>
<path transform="translate(877,1108)" d="m0 0 2 1 1 4h2v7l3 1-2 2-9-1h-47v-1l32-1h18z" fill="#555656"/>
<path transform="translate(964,1473)" d="m0 0 11 2 21 6v1h-5l-1 3-10-2-3-2v-2l-3 1-10-5z" fill="#595956"/>
<path transform="translate(733,614)" d="m0 0 2 1 1 47-1 11-2 2z" fill="#697076"/>
<path transform="translate(658,1126)" d="m0 0h9l3 1h12l2 2 1 23-1 8h-1l-1-13-1-2 1-9v-6h-12l-14-1-5-1v-1z" fill="#464747"/>
<path transform="translate(1232,1611)" d="m0 0h7l4 5-4 1-3 2v4l-8 1-2-4 2-2 2-5z" fill="#6A7178"/>
<path transform="translate(956,1686)" d="m0 0h2l1 3-4 6-5 1-1 4-3-1-8 2-4-1 9-4 7-8z" fill="#272826"/>
<path transform="translate(1092,1509)" d="m0 0 11 2 15 5 2 6-5-1-17-5v-3l-4-1v-2z" fill="#5E5D59"/>
<path transform="translate(1374,1306)" d="m0 0 9 1h3l4 1 7 2v2l2 2-9 1-14-3z" fill="#272826"/>
<path transform="translate(1392,1172)" d="m0 0 20 1 49 4v1h-20l-37-2-5-2-7-1z" fill="#FEFEFE"/>
<path transform="translate(1023,1167)" d="m0 0 4 1-7 7-2 3h-2v2l-7 7v4l-7 3 2-4v-1h-2v-2l8-7z" fill="#4A4D50"/>
<path transform="translate(1365,1244)" d="m0 0 30 3v1l-5 1 11 1 1 2-15-1-15-2-11-1v-2h4z" fill="#656665"/>
<path transform="translate(1e3 1697)" d="m0 0 3 1-2 5-6 3-7 8-7 7-4 1 2-5 1-3 6-4h2v-2l8-7z" fill="#272826"/>
<path transform="translate(777,1347)" d="m0 0 5 1 2 9-2 5-2 1-5-1-1-9z" fill="#514F48"/>
<path transform="translate(1058,1051)" d="m0 0 2 2v7l-5 6-12 6 2-4v-6l5-1 6-4z" fill="#919495"/>
<path transform="translate(546,1147)" d="m0 0 31 1v1h-20l-1 2-2 2 6 1v1h-9v-2h-8l-3-1 1-4z" fill="#505151"/>
<path transform="translate(948,318)" d="m0 0h2l1 41v17h-1l-2-16z" fill="#BCBEBF"/>
<path transform="translate(1471,1232)" d="m0 0 5 1v3l11 3v2h-5l-7-2h-4l-2 11h-1l-2-11-4-3z" fill="#3B3C3C"/>
<path transform="translate(1063,1143)" d="m0 0h6l-3 1v3l-10 3-9 6-2 4-7-1v-2l13-8 5-2v-2z" fill="#2D2F2D"/>
<path transform="translate(899,1763)" d="m0 0 9 3h6l16 6 3 4-2 2-3-3v-1l-9-1-7-1-5-4-5-1-3-2z" fill="#363737"/>
<path transform="translate(1043,1007)" d="m0 0 3 1 4 12v8l-1-4h-2l-1 6-2-1-3-17h2l-1-3z" fill="#505354"/>
<path transform="translate(1068,1718)" d="m0 0h3v2h12l4 4-10-2-2 5 4 3-4 2-3 4-1-2h-6l5-5 1-5v-2l-3-1z" fill="#514F48"/>
<path transform="translate(1353,1612)" d="m0 0 2 3-4 1-2 2-24 11-8 4-3-1 2-3 17-7 17-9z" fill="#434444"/>
<path transform="translate(642,1168)" d="m0 0h1v20l-2 6h-5v1h-7l-3-1v-2l-10 1 1-3h9l5 1h8l2-22z" fill="#3F4041"/>
<path transform="translate(995,1106)" d="m0 0 9 2v7l-4 3-7-2v-8z" fill="#697076"/>
<path transform="translate(667,1070)" d="m0 0 2 1 1 5h-2l-2 4-5 6-3 1-2 3-3-1 2-5 8-10z" fill="#434545"/>
<path transform="translate(969,863)" d="m0 0h11v1h-8l-1 40-1 1h-9v-1h8z" fill="#878A8C"/>
<path transform="translate(1418,1232)" d="m0 0h11l22 2h12l5-1-4 4 3 2v5l-2-4-13-3-29-3-5-1z" fill="#656665"/>
<path transform="translate(927,536)" d="m0 0h2v7l1-6h1v21l-1 25h-1l-1-11z" fill="#484744"/>
<path transform="translate(1040,1681)" d="m0 0h4l-2 6-6 4-7 7h-4v-2l-2-1 7-4h2l2-6 2-3z" fill="#3C3D3D"/>
<path transform="translate(1368,1316)" d="m0 0 11 1 9 2 13 1 8 1v3l-13-1-37-5v-1z" fill="#666765"/>
<path transform="translate(708,1449)" d="m0 0h3v3l-6 2-5 2-2 2-7 2-4 1 1-2h2l-1-2-5-1 4-2z" fill="#5D5D59"/>
<path transform="translate(1411,1319)" d="m0 0 12 2 2 1 6-1 3 1 1 4 3 2-11-1-17-2v-1l11-1-10-2z" fill="#5D5D59"/>
<path transform="translate(817,1241)" d="m0 0 10 2 1 5-1 1h-5v2l-4 1-3-3 1-7z" fill="#515151"/>
<path transform="translate(886,1027)" d="m0 0 4 1 1 6h-5l-3 7-5 1v-7l1-5h6z" fill="#514F48"/>
<path transform="translate(718,1659)" d="m0 0h5l-1 2-9 2-6 4 1 4 3 1v2l-4-1-3-3-6-3-1-3z" fill="#404142"/>
<path transform="translate(1220,1296)" d="m0 0 12 1 12 3h13l6 2 1 2-14-1-37-5v-1z" fill="#6E7070"/>
<path transform="translate(998,1205)" d="m0 0h11l4 1 19 2 6 2v1h-12l-23-2-3-2h5l-7-1z" fill="#424546"/>
<path transform="translate(671,933)" d="m0 0 4 1-12 4-15 1-9 3-7 1v-2l-2-1z" fill="#56585A"/>
<path transform="translate(781,34)" d="m0 0 12 7 3 1 3 4-2 1-3 7h-2l-1-8-7-5-3-3z" fill="#383A39"/>
<path transform="translate(699,1518)" d="m0 0h6l1 4-2 6-6 1-3-3v-5z" fill="#404142"/>
<path transform="translate(1092,958)" d="m0 0h6v14l-9-6-1-5z" fill="#404142"/>
<path transform="translate(858,1722)" d="m0 0h2l-2 7-4 2h-3l2 7-5-2-1-5h-2l-1-5h9z" fill="#514F48"/>
<path transform="translate(1427,1231)" d="m0 0h12l16 1 6-1h9l-1 2-6 2h-12l-22-2z" fill="#6A7178"/>
<path transform="translate(1047,1039)" d="m0 0 4 3h-2l-3 17h-2v-2h-2l-1 3-5-1v-6h1v5l3-1 3-16h1l1 9 1-10z" fill="#CBCCCD"/>
<path transform="translate(1e3 492)" d="m0 0 5 2 11 11-2 5h-5l1-5-4-3v-3h-2v-2h-3l-2-2-2-1z" fill="#272826"/>
<path transform="translate(900,349)" d="m0 0h11l-1 13-2-3-1-8-13 4-7 5-3 6-2-3-2-4 5 2 2-4 8-6z" fill="#4C5051"/>
<path transform="translate(1535,1242)" d="m0 0h31l1 2-4 2h-10l-18-2z" fill="#686D72"/>
<path transform="translate(1425,1252)" d="m0 0h9l33 3-2 2 5 2-1 2-6-2-5-2-25-2-7-1z" fill="#515252"/>
<path transform="translate(954,407)" d="m0 0 5 1-1 4-3 2-1 22 1 17h-2l-1-13v-24l1-8z" fill="#444545"/>
<path transform="translate(970,1235)" d="m0 0 5 3 42 6v2l-11-1-31-4-5-2z" fill="#686D71"/>
<path transform="translate(1155,1222)" d="m0 0h12l14 2 2 2-11 1-29-3v-1z" fill="#626362"/>
<path transform="translate(434,1472)" d="m0 0h1v23l1 13h-3l-2-10v-10l2-5z" fill="#514F48"/>
<path transform="translate(963,1355)" d="m0 0 10 1 7 3-4 5-4 2-1-2h-6l-2-2zm1 2 1 5 5-1 1-3z" fill="#5F6061"/>
<path transform="translate(1218,1284)" d="m0 0h16l11 2 14 2v2l-3 1-4-1h-11l-7-3-12-1h-5z" fill="#272826"/>
<path transform="translate(1016,1104)" d="m0 0h5l-1 4 1 2v7l-8 1-1-1v-5l3-2z" fill="#707579"/>
<path transform="translate(922,108)" d="m0 0 5 3v8l-3 2-4-1-1-2v-9z" fill="#BCBEBF"/>
<path transform="translate(1077,1721)" d="m0 0 11 3v3l-3 3-9-1-2-3z" fill="#656665"/>
<path transform="translate(764,1370)" d="m0 0 8 1 3 7v2l-5-1h-6l-6-3 4-1z" fill="#363737"/>
<path transform="translate(1090,1137)" d="m0 0h16l10 2v1h-42v-1z" fill="#898C8D"/>
<path transform="translate(886,1033)" d="m0 0 5 1v7l-4-1-2 3-1 5-5 1v-7l4-2z" fill="#404142"/>
<path transform="translate(978,1556)" d="m0 0h8l-3 5-16 6h-2l1-3 3-1 1-2 5-2z" fill="#484D50"/>
<path transform="translate(945,1200)" d="m0 0 21 1 21 2v1l-13 1-33-3z" fill="#4A4E51"/>
<path transform="translate(1082,1139)" d="m0 0 9 1-1 2h-7l-17 4v-2l-10 1 3-2 11-3z" fill="#5E6162"/>
<path transform="translate(592,1120)" d="m0 0h4v2l11-1 6 1 11 1 7 1v1l-9 1h-10l-8-2-16-2z" fill="#45494B"/>
<path transform="translate(891,881)" d="m0 0h1l1 24 19 1v1l-31 1-6-1v-1l13-1 2-7z" fill="#464748"/>
<path transform="translate(871,715)" d="m0 0 3 2v12l-1 4v4l-4-3-1-9 2-5z" fill="#353636"/>
<path transform="translate(1173,1687)" d="m0 0 2 3-6 4-11 1v-4l9-3h5z" fill="#697077"/>
<path transform="translate(1008,1115)" d="m0 0h2v4h2l1 2 4 1 1 3-2 2 2 9v6h-3l1-5h-2l-1-6-2-7-3-7z" fill="#4C4E4F"/>
<path transform="translate(411,1107)" d="m0 0h15l18 1v1l-31 2-1 8h-1z" fill="#6C6D6D"/>
<path transform="translate(916,1732)" d="m0 0 4 1-3 6-6 4-4 1v-6l5-4z" fill="#514F48"/>
<path transform="translate(787,1710)" d="m0 0 7 3 1 2h-3l3 1v2l4 1v2l4 1 4 5-5-2-5-3-6-4-8-4v-2h4z" fill="#3F4041"/>
<path transform="translate(769,1689)" d="m0 0 4 2 6 2 2 2 2 1-1 3-3 1-8-2v-2h-2l-2-5z" fill="#3F4041"/>
<path transform="translate(805,833)" d="m0 0h5l2 5-1 3-7 1-4-1v-5z" fill="#656665"/>
<path transform="translate(1022,452)" d="m0 0h3v2h-2l2 10-5 1-4 2 1-7v-2h-2v-3h-3v-2l5 1 4 1z" fill="#272826"/>
<path transform="translate(1322,1619)" d="m0 0 5 1v2l8-1-4 3-17 7-5 2v-2l5-3 7-2-1-3z" fill="#656665"/>
<path transform="translate(1080,1707)" d="m0 0h9l4 3v5l-7-1-6-3z" fill="#514F48"/>
<path transform="translate(841,1623)" d="m0 0 14 1 13 4 1 2h-8l-12-3-8-3z" fill="#BCBEBF"/>
<path transform="translate(1510,1219)" d="m0 0 7 1 8 5v1l-18-1h-5l2-3z" fill="#6D7378"/>
<path transform="translate(684,1660)" d="m0 0h14v1l-9 2-1 3 4 2 10 4-3 1-10-3-6-3v-6z" fill="#404142"/>
<path transform="translate(907,1597)" d="m0 0 2 1v2h6l-1 4-5 3-10-1-2-1-10-1v-1h11l3 1 5-2z" fill="#505150"/>
<path transform="translate(962,1361)" d="m0 0 3 2h6v4l-7 2v9l-2-1v-2l-2 1v2h-2l-1-3 3-5 3-3z" fill="#4D4F4F"/>
<path transform="translate(925,1203)" d="m0 0 1 2v7l3 6 2 6 1 4h2l2 6-4-2-6-10-3-8v-9z" fill="#505151"/>
<path transform="translate(656,1159)" d="m0 0 11 1 2 1-1 4-2 1-9-1-5-2 1-3z" fill="#6A7178"/>
<path transform="translate(1024,1103)" d="m0 0h3l2 4 10 1 1 3-13-1-4-1v7l-2-4-2-5 3-3z" fill="#44484A"/>
<path transform="translate(803,895)" d="m0 0 5 2 1 2h-2l1 3-5 2-2 4-1 8-2-1v-10l2-8z" fill="#282927"/>
<path transform="translate(1032,1193)" d="m0 0h20l10 2 16 2v1h-10l-36-4z" fill="#606160"/>
<path transform="translate(825,1008)" d="m0 0h1v23l-4 3v-14l2-10z" fill="#504E47"/>
<path transform="translate(974,425)" d="m0 0h9l-3 3 3 9 2 5v3l3 1h-2l-1 2-5-10-5-9v-2l-2-1z" fill="#404142"/>
<path transform="translate(1477,1231)" d="m0 0 7 1-1 2 13 2 1 2h-19l-3-2v-4z" fill="#656665"/>
<path transform="translate(872,1749)" d="m0 0h7l4 4 4 2 7 2v4l4 1v2l-6-2-2-1v-2l-7-2-5-4-6-3z" fill="#272826"/>
<path transform="translate(980,1714)" d="m0 0 1 3-3 5 2 1-5 5-3 2-4-1 1-4 5-4h2v-2h2z" fill="#514F48"/>
<path transform="translate(805,1028)" d="m0 0h2l4 15v12l-2 1-1-14-2-4-3 4v-6l2-6z" fill="#404142"/>
<path transform="translate(893,1719)" d="m0 0 6 2 1 3-1 3-8 1-3-1 2-5z" fill="#515252"/>
<path transform="translate(427,1472)" d="m0 0h4l1 5-1 8h-6v-7l-2-1 3-1z" fill="#292A28"/>
<path transform="translate(650,1195)" d="m0 0h8l15 2v2l-5 2-6-1-5-1-1-1-4 1-4-2h2z" fill="#3E3F40"/>
<path transform="translate(601,1697)" d="m0 0h1l1 17 1 7v15l-1 9h-1l-1-22z" fill="#6B6D6E"/>
<path transform="translate(1376,1314)" d="m0 0 14 2h3l1 2h2l1 3-16-2-12-3 4-1z" fill="#272826"/>
<path transform="translate(1285,1234)" d="m0 0h15l13 2 1 2h-11l-16-1-2-1z" fill="#697076"/>
<path transform="translate(604,1187)" d="m0 0h8l27 3 1-3-1 5h-8l-5-1h-12l-2 1-6-1 2-2z" fill="#4A4C4D"/>
<path transform="translate(867,353)" d="m0 0 3 3 10 3 2 2v8l-2-3v-3l-9-2-1 7h-1l-1-9z" fill="#686E72"/>
<path transform="translate(731,1443)" d="m0 0 4 1-5 2v2h-2v2l-3 2-3-1 3-1-2-2-6 2-5 1v-3z" fill="#5C5B58"/>
<path transform="translate(740,1098)" d="m0 0h3v8l2 7 1 19h-1l-2-7 1-11-4-1z" fill="#585A59"/>
<path transform="translate(805,682)" d="m0 0 3 1v12h-4l-4-7h2l1-4z" fill="#6A7178"/>
<path transform="translate(933,1739)" d="m0 0 3 1-2 5-3 1v2l-5 2h-3l1-4 4-4h2v-2z" fill="#514F48"/>
<path transform="translate(1093,1728)" d="m0 0 2 3-12 5-10 5-3-1 3-1 1-3 14-6z" fill="#3B3C3D"/>
<path transform="translate(954,1717)" d="m0 0m-2 0 2 1v2l-2 1-1 4 2 1-6 6-4 1-1-4 2-3h3l2-7z" fill="#514F48"/>
<path transform="translate(1038,1017)" d="m0 0 2 1 1 10h2l1-3 1 4 2-5 4-1v9h-3l-3-1v2h-4l-2-8z" fill="#676969"/>
<path transform="translate(989,427)" d="m0 0 17 2 7 1 4 4-3 2-3-2-6-1v-2h-6l-9-2z" fill="#474949"/>
<path transform="translate(918,346)" d="m0 0 4 1 1 4v26h-1l-2-27-6 1-3 1v-3z" fill="#6A7178"/>
<path transform="translate(859,956)" d="m0 0 10 1v1l-7 1-3 4h-5l-2-4-11-1v-1h17z" fill="#696B6A"/>
<path transform="translate(873,1595)" d="m0 0h5v9l-2 1-6-4-2-4z" fill="#656665"/>
<path transform="translate(794,1392)" d="m0 0 2 1 1 3v12l-1 5-3-1-1-8v-8z" fill="#656665"/>
<path transform="translate(1151,1261)" d="m0 0 14 1 10 2v2h-9l-12-2-12-1v-1z" fill="#686D71"/>
<path transform="translate(823,1038)" d="m0 0 2 1 1 8v22l-1 6-2-1v-9l1-3v-8l-1-4z" fill="#2B2C2A"/>
<path transform="translate(1017,435)" d="m0 0 4 4 5 12-1 2-3-1-1 4-4-1-1-2 5-2-1-5-3-7z" fill="#4A4B4C"/>
<path transform="translate(781,32)" d="m0 0h3l1 5-3-2-1 3 3 1 8 8-1 5-1-4-5-2-1-2-4-2v-9z" fill="#82878C"/>
<path transform="translate(631,1625)" d="m0 0h5l3 3-1 5h-6l-4-2 2-5z" fill="#404142"/>
<path transform="translate(937,1572)" d="m0 0h2v4l2 1-10 2-2-1v2l-8 1-1-4 11-1z" fill="#404142"/>
<path transform="translate(819,1154)" d="m0 0 9 1 3 3v3h-2l-1 3-9-7z" fill="#4B4A45"/>
<path transform="translate(980,864)" d="m0 0h1l1 6 1 21v14h-1l-2-13z" fill="#999C9F"/>
<path transform="translate(964,1312)" d="m0 0h1v27l-1 10h-1l-1-29-1-2z" fill="#7C7D7C"/>
<path transform="translate(992,1109)" d="m0 0h1v7l7 1h3l-2 6h-7l-2-3-1-6z" fill="#404142"/>
<path transform="translate(897,759)" d="m0 0 4 2-1 6 1 5-2 2-3-2v-7h-2l-1-3z" fill="#B8BABB"/>
<path transform="translate(874,748)" d="m0 0h1l-1 55h-1l-1-53z" fill="#656665"/>
<path transform="translate(992,1750)" d="m0 0h4l-1 5-3 4h-5v-2h-2l1-4z" fill="#3D3E3E"/>
<path transform="translate(562,1154)" d="m0 0 22 3 12 2v1h-8l-37-4v-1z" fill="#474B4D"/>
<path transform="translate(467,1102)" d="m0 0 18 1 1 2-11 1-6 2h-4l1-5z" fill="#828486"/>
<path transform="translate(959,993)" d="m0 0h1v41l-1 7h-1l-1-8-1-2h2v-2h-2v-2h2z" fill="#474849"/>
<path transform="translate(899,1737)" d="m0 0 3 1 1 3-3 1v2l-10 4 2-6 4-4z" fill="#514F48"/>
<path transform="translate(975,1109)" d="m0 0 2 3 1 9-1 5h-2v2h-7l-3-2h-2v-2h12z" fill="#606262"/>
<path transform="translate(961,1101)" d="m0 0h11v1h-10l1 3v17l-2-1-1-3v-16z" fill="#909393"/>
<path transform="translate(1e3 522)" d="m0 0 6 3 1 9h-5l-2-3z" fill="#5E6266"/>
<path transform="translate(791,1714)" d="m0 0 10 3 2 1 2 4 9 5 2 3-5-1-6-4-3-3-3-1-1-2-3-1v-2l-4-1z" fill="#272826"/>
<path transform="translate(677,1500)" d="m0 0 2 1 1 2-2 1-11 1-7-2h-3v-2z" fill="#3E3F40"/>
<path transform="translate(1159,1284)" d="m0 0h14l2 2-1 2-5-1v2h-7l-4-4z" fill="#2A2B2A"/>
<path transform="translate(712,927)" d="m0 0h5l-3 3-13 1-11 2h-11v-1z" fill="#5C5E5F"/>
<path transform="translate(796,43)" d="m0 0 9 3 4 2v2l-9-1-3-1-1 6-1 2h-4l-1-4 2-3v5l2-1 3-8z" fill="#66696C"/>
<path transform="translate(1159,1671)" d="m0 0 5 1 2 1-1 3h-2l-1 2-5 1-3-1 1-6z" fill="#6A7178"/>
<path transform="translate(879,1592)" d="m0 0 2 1 1 6-1 1h6v1h12l2 4-3-1h-11l-2 1-6-2-1-10z" fill="#444648"/>
<path transform="translate(1051,1549)" d="m0 0 4 1v12l-2 10h-1v-6l-1-2 1-5-2-1z" fill="#272826"/>
<path transform="translate(913,661)" d="m0 0 2 1v28h-3v-28z" fill="#50504D"/>
<path transform="translate(1045,1656)" d="m0 0 3 2-6 5-1 4h-2v-2l-6 1-3-2 6-1v-2h2v-2l7-1z" fill="#504E47"/>
<path transform="translate(836,1437)" d="m0 0 10 1 5 1 1 4-4 1-3-1v-2l-7 1v-3l-3-1z" fill="#585957"/>
<path transform="translate(1574,1332)" d="m0 0 3 1-1 3 2 2-11 3h-17v-1h16v-2l5-2v-3z" fill="#4F5152"/>
<path transform="translate(991,1207)" d="m0 0m-2 1 2 1-2 1zm-1 2m-1 1 1 3-5 9-3 1-1 4-7 7-1-3 5-5z" fill="#676D73"/>
<path transform="translate(534,1178)" d="m0 0h16l10 2-3 2-6 1-4-1v-1l-12-1z" fill="#454748"/>
<path transform="translate(756,1110)" d="m0 0 2 3 1 19 4 1h-11l3-1z" fill="#4E4E4B"/>
<path transform="translate(891,1044)" d="m0 0h1l1 6 1-5h1v33h-1l-1-8v-12l-2-2z" fill="#404142"/>
<path transform="translate(1324,1312)" d="m0 0h21l8 2 4 3-19-2-14-2z" fill="#6C6D6D"/>
<path transform="translate(1343,1287)" d="m0 0h7l28 4 1 2h-10l-16-3-10-2z" fill="#4B4F51"/>
<path transform="translate(1468,1250)" d="m0 0 3 1 1 10 1 2-1 4h-2v3h-2l1-6 1-5-6-2 3-1z" fill="#45484A"/>
<path transform="translate(812,1668)" d="m0 0 3 1-1 4-3 1-2-1v2l-3 2-3-1-4-1 1-2 11-4z" fill="#404142"/>
<path transform="translate(981,1537)" d="m0 0 4 1 1 3h2l1 6-3-1v-4l-1 3h-2l-1 3-2-3-1-5z" fill="#404142"/>
<path transform="translate(740,1331)" d="m0 0 3 1 1 3v11l-3-1-2-6v-7z" fill="#BCBEBF"/>
<path transform="translate(869,739)" d="m0 0 2 1 2 10-1 28h-1l-1-28zm6 3 1 2v4h-2v-5z" fill="#9B9D9E"/>
<path transform="translate(1008,565)" d="m0 0 5 1-4 2 1 11 5-1v-8l2 1v8l-5 5-4-2-1-4v-11z" fill="#636566"/>
<path transform="translate(915,97)" d="m0 0 10 4 2 1v2h2l-1 4v-2l-8-1-3 2 2-6h-4z" fill="#5C5F60"/>
<path transform="translate(1063,1147)" d="m0 0h2v2l-12 5-5 3-2 8-4-4 3-1 2-5 5-4 6-3z" fill="#656A6D"/>
<path transform="translate(966,416)" d="m0 0 5 1v2l10 2 3 3-10 1-8-8z" fill="#656666"/>
<path transform="translate(785,1395)" d="m0 0 2 1 1 3 1 11 2 6h-2l-4-4z" fill="#514F48"/>
<path transform="translate(600,1085)" d="m0 0h7l6 3v2l-8 1-5-3z" fill="#404142"/>
<path transform="translate(896,995)" d="m0 0h6l6 3 5 10 1 7-2-2-4-10v-2l-5-2-6-1-2 1z" fill="#272826"/>
<path transform="translate(868,731)" d="m0 0 1 3 4 2 2-1v8l-2 6h-1l-2-9-2-5z" fill="#535352"/>
<path transform="translate(907,332)" d="m0 0h12l2 3-1 7-4 5-5 2v-3l7-5 1-7h-7l-5-1z" fill="#4D5051"/>
<path transform="translate(744,1656)" d="m0 0h9l9 3v1h-8l-8-1-2 3-4-1 2-4z" fill="#404142"/>
<path transform="translate(423,1483)" d="m0 0 2 2 1 7 4 2-3 2v2l2 1v3h-3l-2-2-1-10z" fill="#2F302F"/>
<path transform="translate(648,1164)" d="m0 0 2 1 15 2v1h-6v2h5v1l-16-1 2-1z" fill="#46494A"/>
<path transform="translate(1022,990)" d="m0 0h1v18l-1 6h-1l-2-17 1-3h2z" fill="#494A4C"/>
<path transform="translate(849,1701)" d="m0 0h9l10 1 5 2v2h-7v-2h-15z" fill="#464541"/>
<path transform="translate(1017,1685)" d="m0 0 2 1-2 6-12 6-2-1v-6h3v3l5-2h3l2-6z" fill="#272826"/>
<path transform="translate(871,1592)" d="m0 0h8v12l-2-2 1-7-9 2-1 2-3-1 1-3z" fill="#51504D"/>
<path transform="translate(809,1361)" d="m0 0 7 1 6 12-1 3-7-12-7-1h-5l2-2z" fill="#404142"/>
<path transform="translate(721,1344)" d="m0 0h5l-1 4-6 7-2-2 1-6z" fill="#7D8082"/>
<path transform="translate(707,1344)" d="m0 0 4 4 1 5-4 1v2l3 1-2 3-3-4v-10z" fill="#484843"/>
<path transform="translate(959,1059)" d="m0 0h2v2h2v2l5-2 3-1v2h-2l1 4-1 3-4 1z" fill="#404142"/>
<path transform="translate(1042,1057)" d="m0 0h2l2 7-1 5h-3l-4-8z" fill="#595955"/>
<path transform="translate(1021,1732)" d="m0 0 4 3-1 5h-7l-1-5 3-2 2 1z" fill="#656665"/>
<path transform="translate(1471,1232)" d="m0 0 5 1v4h-7l-1 7h-1l-1-5-4-3z" fill="#4B4E50"/>
<path transform="translate(910,1166)" d="m0 0h2l5 8 3 5 1 4-2-1-5-5-4-7z" fill="#45494B"/>
<path transform="translate(1049,1150)" d="m0 0 2 1v2l-5 5-1 2-7-1v-2z" fill="#424648"/>
<path transform="translate(1210,1628)" d="m0 0 2 1-1 6-5 1-1 2-1-6-2-2z" fill="#656665"/>
<path transform="translate(538,1574)" d="m0 0h6l3 4-1 2h-7l-3-3z" fill="#272826"/>
<path transform="translate(779,1380)" d="m0 0 1 2h4v2l4-3-1 7h-4l-3-3h-6l1-2h2v-2z" fill="#4F4F4D"/>
<path transform="translate(1054,1145)" d="m0 0h2v2l-15 9-6 4-2-1 7-6 9-5h3v-2z" fill="#6C7175"/>
<path transform="translate(991,1482)" d="m0 0h6l6 3-1 3h-7l-5-4z" fill="#51504D"/>
<path transform="translate(964,1473)" d="m0 0 11 2 7 2-3 2-5 1-10-5z" fill="#666766"/>
<path transform="translate(749,1379)" d="m0 0 8 1 3 3 7 1-3 4h-2l-1 2-3-6-6-2-3 1z" fill="#343535"/>
<path transform="translate(891,1758)" d="m0 0h5l12 5 3 2v2l-5-1-12-5v-2z" fill="#393A3A"/>
<path transform="translate(1020,1713)" d="m0 0 3 1 1 3-1 2-8 1-2-3z" fill="#514F48"/>
<path transform="translate(1456,1328)" d="m0 0h11l4 2-1 2-14-1-8-1v-1z" fill="#6A6B6C"/>
<path transform="translate(1403,1319)" d="m0 0h7l12 4v1h-13v-3l-3 1-4-2z" fill="#292A28"/>
<path transform="translate(1029,466)" d="m0 0 2 1 3 12-1 4-6-12 1-2h-3v-2z" fill="#565758"/>
<path transform="translate(1299,1636)" d="m0 0 3 1-9 4-12 5-2-1 3-1 1-4 2 1 3-2z" fill="#656665"/>
<path transform="translate(1015,1518)" d="m0 0 5 1 3 4v4h-3l-1-4-5-1-1 3-1-4z" fill="#3D3E3F"/>
<path transform="translate(1281,1236)" d="m0 0 21 1-1 3-15-1-5-2z" fill="#5C5D5C"/>
<path transform="translate(642,1168)" d="m0 0h1v20l-3 1 1-20z" fill="#414243"/>
<path transform="translate(1096,1140)" d="m0 0h21v2l2 1-2 1-2-1h-16z" fill="#40413F"/>
<path transform="translate(995,1106)" d="m0 0 9 2v7l-2 1v-6l-3-1-4 1 2 7-4-1v-8z" fill="#5F6160"/>
<path transform="translate(951,1957)" d="m0 0 4 2 1 2h2l1 4-3 1-8-5-2-2z" fill="#414241"/>
<path transform="translate(700,1289)" d="m0 0 7 1 16 3 3 2-12-1-11-1z" fill="#B21E17"/>
<path transform="translate(587,1186)" d="m0 0h17v2l4 1h-3l-1 2-1-2-6 1-5-2-5 1z" fill="#424446"/>
<path transform="translate(683,1174)" d="m0 0 2 1v22l-5 3-5-1-1-3h9z" fill="#4F4E49"/>
<path transform="translate(1027,1167)" d="m0 0 3 1-16 16-2-1 2-3h2v-2l5-5z" fill="#64686A"/>
<path transform="translate(1058,1051)" d="m0 0 2 2v7l-5 4-3-1 1-4 4-4z" fill="#686B6C"/>
<path transform="translate(1153,1698)" d="m0 0h6l-4 3-8 4-7 2-4 2 5-6 10-2z" fill="#515252"/>
<path transform="translate(1235,1664)" d="m0 0 3 1-19 8-8 2 3-4 12-3z" fill="#656665"/>
<path transform="translate(749,1364)" d="m0 0 7 6 2-4h3v2h5v1l-5 1-2 3-7-2-3-5z" fill="#4D4E4F"/>
<path transform="translate(1095,1277)" d="m0 0h2l1 3 13 1v2l-15-1-6-1v-2z" fill="#636566"/>
<path transform="translate(1043,1007)" d="m0 0 3 1 2 6v5l-1-2h-5l-1-5h2l-1-3z" fill="#454748"/>
<path transform="translate(1025,893)" d="m0 0h5l1 1v8l-5-2z" fill="#676D72"/>
<path transform="translate(816,840)" d="m0 0h6v5l-3 2-5-1v-5z" fill="#514F48"/>
<path transform="translate(874,708)" d="m0 0h1v27l-3-2 1-2-2-1 2-1v-12l-1-2z" fill="#505150"/>
<path transform="translate(817,1176)" d="m0 0 2 3 1 6-4 1-2-1-1-4 2-4z" fill="#514F48"/>
<path transform="translate(1076,905)" d="m0 0 14 2 4 2-14 1-5-1z" fill="#949697"/>
<path transform="translate(817,716)" d="m0 0h2v8l-2 2-4-3 1-5z" fill="#514F48"/>
<path transform="translate(1015,580)" d="m0 0h1v8l-4 2-4-7 4-1z" fill="#272826"/>
<path transform="translate(1030,1721)" d="m0 0 5 1-1 5-7 1 1-5z" fill="#656665"/>
<path transform="translate(964,1377)" d="m0 0 1 2-3 5-1 28h-1l-1-29 2-3h2z" fill="#636462"/>
<path transform="translate(963,1355)" d="m0 0h6l3 2-1 6-6 1-2-2zm1 2 1 5 5-1 1-3z" fill="#76797B"/>
<path transform="translate(879,1136)" d="m0 0h2l1 6 2 2 9 2-1 2-8-1-5-3-1-5z" fill="#4A4E51"/>
<path transform="translate(637,1124)" d="m0 0 7 2 1 7v7l-2 2-1-12-1-2-4-1z" fill="#434648"/>
<path transform="translate(582,1055)" d="m0 0h3l-1 3-15 1-2-2 2-1z" fill="#5B5D5E"/>
<path transform="translate(938,443)" d="m0 0h3v12l-3-1-1-2v-8z" fill="#BCBEBF"/>
<path transform="translate(972,1770)" d="m0 0 6 1v5l-7 2-2 1 1-6z" fill="#484E51"/>
<path transform="translate(981,1682)" d="m0 0 6 2 5 4v2l-3 1h-3l-3-6-5-1z" fill="#454543"/>
<path transform="translate(681,1636)" d="m0 0 3 1-5 1v4l3 3-7-1-2-4 4-3z" fill="#404142"/>
<path transform="translate(1127,1258)" d="m0 0 24 3v1h-17l-7-2z" fill="#696F74"/>
<path transform="translate(1147,1219)" d="m0 0 17 1 3 2-4 1-13-1-3-1z" fill="#696F76"/>
<path transform="translate(559,1182)" d="m0 0h7l14 2-3 3h-2v-2l-7 1-4-2-3 1v-2z" fill="#3E3F40"/>
<path transform="translate(1012,455)" d="m0 0h3v3h2l1 7v3l-6-1v-2h2l2-6-3-1z" fill="#404142"/>
<path transform="translate(1394,1703)" d="m0 0h1v34l-3 1 1-4z" fill="#4F4E4C"/>
<path transform="translate(818,1714)" d="m0 0 5 1 1 4-1 2-4 1v-3l-3 1 1-5z" fill="#484E51"/>
<path transform="translate(935,1681)" d="m0 0h5l-8 8-7 2 6-7z" fill="#41403B"/>
<path transform="translate(997,1241)" d="m0 0 20 3v2l-11-1-13-2z" fill="#676C6F"/>
<path transform="translate(576,1158)" d="m0 0 12 1 4 2v1h-9l-10-1z" fill="#3B3C3C"/>
<path transform="translate(1072,871)" d="m0 0h1l1 10v14h-3l-1 6h-1l-1-7 5-1-1-3z" fill="#6B6C6D"/>
<path transform="translate(797,819)" d="m0 0h2l1 9-1 3h-2l-2-5v-5h2z" fill="#515151"/>
<path transform="translate(962,403)" d="m0 0 17 4v1h-6l-1 1h-6z" fill="#616262"/>
<path transform="translate(899,1763)" d="m0 0 9 3 9 4-2 2-3-1-6-3-5-2-2-1z" fill="#272826"/>
<path transform="translate(980,1742)" d="m0 0 2 1-1 4-5 2-1-3h-3l-1 4h-2l2-5z" fill="#514F48"/>
<path transform="translate(1214,1673)" d="m0 0h5l-3 2-4 2-4 4-11 1 2-2 11-4z" fill="#494B4C"/>
<path transform="translate(1322,1308)" d="m0 0 8 1 3 1v2h-12v-2l-3-1z" fill="#2B2C2A"/>
<path transform="translate(667,1070)" d="m0 0 2 1-1 3-5 4-5 6-2-1 7-9z" fill="#5C5E5E"/>
<path transform="translate(1043,1035)" d="m0 0h2l1 2v13l-1 6h-1z" fill="#5A5B5B"/>
<path transform="translate(955,733)" d="m0 0h1v16l-4-2v-7l1-2z" fill="#514F4A"/>
<path transform="translate(953,403)" d="m0 0h6l2 1v2l-7 2-1 8h-1v-11z" fill="#515150"/>
<path transform="translate(781,34)" d="m0 0 12 7-4 3-5-3-3-3z" fill="#484A4B"/>
<path transform="translate(976,1683)" d="m0 0 2 2h-2v2h-2l-1 4-1 3-4 1-3 1-1-2 3-3h3v-2h2l2-4z" fill="#4D4B46"/>
<path transform="translate(747,1358)" d="m0 0h1l3 11 7 4v2l-4-1-7-6-1-9z" fill="#3D3E3E"/>
<path transform="translate(1081,1212)" d="m0 0h10l8 1 1 2h-13l-6-2z" fill="#696F75"/>
<path transform="translate(830,1174)" d="m0 0h1v11l-4 3h-2v-2h2l1-9z" fill="#504E47"/>
<path transform="translate(1082,1139)" d="m0 0 9 1-1 2h-7l-7 1v-2h-6v-1z" fill="#535556"/>
<path transform="translate(877,1056)" d="m0 0h2l1 12-1 7-2-3-1-12z" fill="#484845"/>
<path transform="translate(1012,1031)" d="m0 0 3 1-4 3v3l-3 2-5 2-4 3 2-4 10-9z" fill="#64696D"/>
<path transform="translate(954,744)" d="m0 0h1v11l-2 7h-1v-15z" fill="#404142"/>
<path transform="translate(954,691)" d="m0 0h1l-1 13-3 10h-1v-8z" fill="#514F48"/>
<path transform="translate(936,345)" d="m0 0m-3 1 3 1-4 2v11l-1 5h-1v-17z" fill="#676C6F"/>
<path transform="translate(1261,1652)" d="m0 0 4 1-11 5-9 3v-2l5-1v-2z" fill="#656665"/>
<path transform="translate(422,1500)" d="m0 0h1l1 7 4 1v2l-8 1v-8h2z" fill="#4D4C48"/>
<path transform="translate(1599,1311)" d="m0 0h1v15l-3-1 1-2-3-1h3l-1-9h2z" fill="#3B3C3C"/>
<path transform="translate(981,1204)" d="m0 0 6 1 1 3v3l-4 4-2-4 3-5-4-1z" fill="#424546"/>
<path transform="translate(998,1205)" d="m0 0h11l4 1v3h-10l-3-2h5l-7-1z" fill="#4E5050"/>
<path transform="translate(546,1157)" d="m0 0 13 1 6 1-3 2-15-1z" fill="#444849"/>
<path transform="translate(1126,1148)" d="m0 0 10 2h3l2 5-7-2-5-2z" fill="#6A6F73"/>
<path transform="translate(737,843)" d="m0 0h1l1 15-1 1-1 8h-1v-19z" fill="#8E9397"/>
<path transform="translate(983,1713)" d="m0 0h3l-1 5-5 4h-2l2-5 1-3z" fill="#373837"/>
<path transform="translate(1224,1670)" d="m0 0 3 1-4 4-8 3-4-1 5-3h3v-2z" fill="#434445"/>
<path transform="translate(697,1520)" d="m0 0h6l1 4-2 2-5-1z" fill="#272826"/>
<path transform="translate(754,1343)" d="m0 0h2l2 14 2 5-2 4-2-6z" fill="#50504F"/>
<path transform="translate(1265,1304)" d="m0 0h18l4 3-15-1-7-1z" fill="#747675"/>
<path transform="translate(514,1173)" d="m0 0 20 4-3 1-1 2-4-1-5-2-6-1z" fill="#3B3C3D"/>
<path transform="translate(1013,1127)" d="m0 0 1 3 3 1 1 11h-3l1-5h-2l-1-6-1-3z" fill="#494C4D"/>
<path transform="translate(815,778)" d="m0 0 3 1-4 2 1 4 4 1v-6h1v7l-2 3-3-1v-2h-2l-1-7z" fill="#515252"/>
<path transform="translate(770,1696)" d="m0 0 1 2 8 1 1 2h-4l1 3-5-2-2-1z" fill="#272826"/>
<path transform="translate(986,1338)" d="m0 0h1v16l-6 5 3-9 1-1z" fill="#6A6C6D"/>
<path transform="translate(1349,1310)" d="m0 0h6l3 3-2 2-11-2z" fill="#333433"/>
<path transform="translate(1119,1257)" d="m0 0 8 1v2h5v1l-7 1-5-2-9-1v-1z" fill="#66696B"/>
<path transform="translate(956,1718)" d="m0 0h3l-1 5-4 2h-3l1-5z" fill="#272826"/>
<path transform="translate(1011,1687)" d="m0 0h4l1 3h-2v2l-5 2-2-4z" fill="#514F48"/>
<path transform="translate(1180,1658)" d="m0 0h4l1 5-2 2h-6l1-4 2-1z" fill="#656665"/>
<path transform="translate(1353,1612)" d="m0 0 2 3-4 1-2 2-5 2h-3l1-3z" fill="#444545"/>
<path transform="translate(418,1511)" d="m0 0h2v2h-3l-1 3h-2v2h-5l1-3-2-1z" fill="#4B4D4D"/>
<path transform="translate(747,1438)" d="m0 0 1 3-3 5-4 1 2-3-7-1 4-2 7-1z" fill="#6A6966"/>
<path transform="translate(777,1354)" d="m0 0 5 1v7h-3l-2-2z" fill="#515151"/>
<path transform="translate(900,1026)" d="m0 0 8 1 1 4-2-1h-7l-4 3 1-5z" fill="#514F48"/>
<path transform="translate(1046,1654)" d="m0 0h4l-2 6-5 4-2-1 6-5h-2l-4 1-1-2h4v-2z" fill="#514F48"/>
<path transform="translate(1006,1653)" d="m0 0 4 1-1 5-4 1 2-3-7-1-1-2z" fill="#514F48"/>
<path transform="translate(1253,1300)" d="m0 0 9 1 2 3-14-1-1-2z" fill="#666765"/>
<path transform="translate(1097,1277)" d="m0 0 8 1 7 1-1 2h-14z" fill="#292A29"/>
<path transform="translate(1570,1241)" d="m0 0h8l-1 3-5 1h-7l1-3z" fill="#4D4C49"/>
<path transform="translate(641,938)" d="m0 0 4 1-9 4h-4v-2l-2-1z" fill="#4E5051"/>
<path transform="translate(871,725)" d="m0 0 3 1-1 7v4l-4-3-1-4h2z" fill="#424242"/>
<path transform="translate(903,349)" d="m0 0h8l-1 13-2-3-1-8-4-1z" fill="#484E51"/>
<path transform="translate(1067,1733)" d="m0 0 5 1v3l-2 1h-6l1-4z" fill="#656665"/>
<path transform="translate(764,1370)" d="m0 0 6 3v3l-5 1-2-1z" fill="#505151"/>
<path transform="translate(724,1329)" d="m0 0 1 3-2 7-4 8-2-3h2l1-5z" fill="#61615F"/>
<path transform="translate(1368,1316)" d="m0 0 7 1 5 2v1l-13-1-8-1v-1z" fill="#747574"/>
<path transform="translate(1066,1253)" d="m0 0h11l1 2-10 2z" fill="#4B4F51"/>
<path transform="translate(957,1039)" d="m0 0 2 3-4 9h-1l-1-8z" fill="#272826"/>
<path transform="translate(825,1008)" d="m0 0h1v16h-2l1-6h-2l1-8z" fill="#464643"/>
<path transform="translate(918,346)" d="m0 0 4 1-1 4-5-1-5 2v-3z" fill="#696F75"/>
<path transform="translate(1037,1741)" d="m0 0 6 1-1 4-5 1-2-1 1-4z" fill="#656665"/>
<path transform="translate(1037,1625)" d="m0 0 4 1 2 4-3 3-2 3-1-5 2-4h-2z" fill="#474D50"/>
<path transform="translate(856,1608)" d="m0 0 16 2 1 2h-15l-2-1z" fill="#4C4D4E"/>
<path transform="translate(992,1491)" d="m0 0 10 1-1 4h-7l-3-3z" fill="#3D3E3F"/>
<path transform="translate(423,1468)" d="m0 0h11l1 3h-2v-2h-2v2l-5 1-3-1z" fill="#514F48"/>
<path transform="translate(974,1225)" d="m0 0 1 2-2 5h-2v3h-3l1-5z" fill="#313332"/>
<path transform="translate(1047,1039)" d="m0 0 4 3h-2l-2 13h-1v-15z" fill="#D8DADA"/>
<path transform="translate(738,958)" d="m0 0h1v14l-1 5h-1l-1-15h2z" fill="#4A4C4D"/>
<path transform="translate(1024,893)" d="m0 0h1l2 7 4 2v-7h1v10h-3l-5-5z" fill="#434647"/>
<path transform="translate(1006,538)" d="m0 0 3 1 1 6-3 2-2-2z" fill="#404142"/>
<path transform="translate(1017,435)" d="m0 0 4 4 2 4-1 4-3-3-2-5z" fill="#525454"/>
<path transform="translate(838,108)" d="m0 0h5l7 3v1h-9l-5-2z" fill="#555A5C"/>
<path transform="translate(917,1771)" d="m0 0h11l5 5-2 2-3-3v-1l-9-1z" fill="#2A2B29"/>
<path transform="translate(992,1750)" d="m0 0h4l-1 5-3 4h-2l2-5v-2l-4 1 1-2z" fill="#272826"/>
<path transform="translate(975,1745)" d="m0 0 2 1-2 4-5 3-3-1 4-2 1-4z" fill="#272826"/>
<path transform="translate(989,1611)" d="m0 0 4 2-3 8-2-1 1-6-2-1z" fill="#272826"/>
<path transform="translate(984,1542)" d="m0 0h2l1 4 5 2-4 2h-6l1-5h2z" fill="#272826"/>
<path transform="translate(1042,1512)" d="m0 0 3 2 2 5 2 2-1 5-3-3z" fill="#514F48"/>
<path transform="translate(421,1482)" d="m0 0h2l1 8v7l-2 2-1-1z" fill="#4E4D47"/>
<path transform="translate(1599,1253)" d="m0 0h1v24h-1l-1-7v-11l1-2h-2z" fill="#494A49"/>
<path transform="translate(1102,1142)" d="m0 0h13l5 2v2l-11-2-7-1z" fill="#585C60"/>
<path transform="translate(1091,1140)" d="m0 0 7 1-4 2h-16v-1l6-1h6z" fill="#66696B"/>
<path transform="translate(649,1127)" d="m0 0 2 1v14h-3v-7l1-4z" fill="#424547"/>
<path transform="translate(592,1120)" d="m0 0h4v2l11-1 2 2h-15l-6-1z" fill="#424546"/>
<path transform="translate(929,546)" d="m0 0 2 4v8l-3 3v-10z" fill="#4D4C46"/>
<path transform="translate(1093,1728)" d="m0 0 2 3-8 3h-4v-2z" fill="#3C3D3E"/>
<path transform="translate(397,1618)" d="m0 0h1l1 12 1 4-1 9h-1l-1-10z" fill="#727473"/>
<path transform="translate(723,1447)" d="m0 0 2 1v2l-3 2h-7l-2-2 4-1z" fill="#272826"/>
<path transform="translate(723,1445)" d="m0 0 2 1-3 3-8 1-2 1v-3z" fill="#6D6D6B"/>
<path transform="translate(1458,1296)" d="m0 0h7v3l-5 1v-2l-4 2h-5l4-3z" fill="#46494A"/>
<path transform="translate(1104,1255)" d="m0 0 11 1 4 2h-15z" fill="#686E73"/>
<path transform="translate(1563,1240)" d="m0 0m-6 0h5l3 3-20-1v-1z" fill="#454647"/>
<path transform="translate(1586,1233)" d="m0 0 13 1-2 3-9-1z" fill="#6E7070"/>
<path transform="translate(975,1109)" d="m0 0 2 3 1 9-1 5-2-4z" fill="#7D7F7F"/>
<path transform="translate(992,1109)" d="m0 0h1v7l7 1h3l-2 2-6 1-4-5z" fill="#494E50"/>
<path transform="translate(667,1073)" d="m0 0 3 3h-2l-2 4-3 2-1-4 3-1z" fill="#505150"/>
<path transform="translate(824,1030)" d="m0 0 2 1v16h-1l-1-8-1-1z" fill="#3C3D3E"/>
<path transform="translate(1e3 524)" d="m0 0 5 4 1 6h-4z" fill="#BCBEBF"/>
<path transform="translate(933,1750)" d="m0 0 3 1-1 4-5 2-1-5z" fill="#514F48"/>
<path transform="translate(854,1738)" d="m0 0 8 1 2 1v2l3 1-4 1-9-5z" fill="#514F48"/>
<path transform="translate(909,1600)" d="m0 0h6l-1 4-5 3-2-1v-2l2-1z" fill="#514F48"/>
<path transform="translate(1247,1553)" d="m0 0 8 1 6 2-4 2-10-3z" fill="#7A8086"/>
<path transform="translate(1223,1294)" d="m0 0h6l6 2-4 2-11-2z" fill="#3F4041"/>
<path transform="translate(1038,1017)" d="m0 0 2 1 1 10h2l1-3 1 5-1 2h-2l-3-7z" fill="#6B6D6F"/>
<path transform="translate(1073,903)" d="m0 0 3 3 6 1v1l-11 1-3-2 4-2z" fill="#6A6D6F"/>
<path transform="translate(1050,616)" d="m0 0h2l-1 11-2 3v-13z" fill="#797B7A"/>
<path transform="translate(996,465)" d="m0 0h11v2h-6l-2-1-1 3h-4v-3z" fill="#65686B"/>
<path transform="translate(989,427)" d="m0 0 16 2 1 2h-7l-9-2z" fill="#3D3E3F"/>
<path transform="translate(981,1762)" d="m0 0 2 3v3l-6 1 1-5z" fill="#3F4041"/>
<path transform="translate(1028,1704)" d="m0 0 4 1 1 3-6 2-2-2 1-3z" fill="#514F48"/>
<path transform="translate(1256,1656)" d="m0 0 4 1-3 3-5 2-3-1z" fill="#424344"/>
<path transform="translate(1227,1633)" d="m0 0 4 2-3 5-3-1-3-2 3-1z" fill="#656665"/>
<path transform="translate(909,1593)" d="m0 0 6 1-4 2-4 1v5l-5 1 2-2 2-5z" fill="#3F4142"/>
<path transform="translate(581,1481)" d="m0 0h2v2l-5 2-3 2-6-2 4-2z" fill="#6E6F6B"/>
<path transform="translate(711,1449)" d="m0 0 2 3-1 2-7 2h-6l4-2 3-2h5z" fill="#272826"/>
<path transform="translate(960,1370)" d="m0 0h3l1 8-2-1v-2l-2 1v2h-2l-1-3z" fill="#3E3F40"/>
<path transform="translate(716,1349)" d="m0 0 2 4-2 4-5 3 2-6z" fill="#51514F"/>
<path transform="translate(822,1171)" d="m0 0h5v2l-6 1-1 8-2-3v-6z" fill="#515252"/>
<path transform="translate(968,416)" d="m0 0h8l3 3v1h-6l-2-1v-2z" fill="#51514F"/>
<path transform="translate(1045,1656)" d="m0 0 3 2-6 5-3-1 1-4h5z" fill="#404142"/>
<path transform="translate(847,1603)" d="m0 0 4 2 2 2-1 2-4-1v-2l-5 1z" fill="#51514E"/>
<path transform="translate(1023,1489)" d="m0 0 5 1-2 5-6-2 1-3z" fill="#5D5E5E"/>
<path transform="translate(421,1458)" d="m0 0 2 1-1 3 4 2-7 4 1-9z" fill="#636465"/>
<path transform="translate(1402,1302)" d="m0 0 4 2v4l-5-1z" fill="#717579"/>
<path transform="translate(1155,1222)" d="m0 0h7v2l-6 1-13-1v-1z" fill="#606160"/>
<path transform="translate(1063,1143)" d="m0 0h6l-3 1v3l-6 1v-3z" fill="#3D4041"/>
<path transform="translate(737,1138)" d="m0 0 4 1-1 5h-4l-1-3z" fill="#A04743"/>
<path transform="translate(825,1069)" d="m0 0h1v12l-2 2-1-3v-6h1z" fill="#3C3D3D"/>
<path transform="translate(904,1039)" d="m0 0 4 1-1 2-7 2-4 5v-5l5-3z" fill="#514F48"/>
<path transform="translate(797,969)" d="m0 0 3 1v8l-1 3h-2z" fill="#4A4942"/>
<path transform="translate(737,1754)" d="m0 0h2v2h4v2l4 1-2 2-10-5z" fill="#515354"/>
<path transform="translate(944,1677)" d="m0 0 7 1-2 4-4 4-1-2 2-1v-4z" fill="#272826"/>
<path transform="translate(751,1656)" d="m0 0 11 3v1h-8l-6-1v-2z" fill="#3C3D3D"/>
<path transform="translate(949,1620)" d="m0 0 5 3 3-1v3l-7 1-1-1z" fill="#404142"/>
<path transform="translate(916,1594)" d="m0 0 9 2 1 3-15-3v-1z" fill="#4A4B4B"/>
<path transform="translate(1167,1263)" d="m0 0 8 1v2h-9l-6-1v-1z" fill="#676B6E"/>
<path transform="translate(1474,1237)" d="m0 0 11 1 2 1v2h-5l-7-2z" fill="#414345"/>
<path transform="translate(1481,1233)" d="m0 0h8l8 2v1h-10l-6-2z" fill="#444647"/>
<path transform="translate(659,1168)" d="m0 0h9l2 1v2l-11-1z" fill="#383939"/>
<path transform="translate(692,930)" d="m0 0h5l-4 3h-14v-1z" fill="#67696A"/>
<path transform="translate(822,897)" d="m0 0 2 2-1 4-9-1 4-3h4z" fill="#3D3E3E"/>
</svg>
