<?xml version="1.0" encoding="UTF-8"?>
<svg version="1.1" viewBox="0 0 2048 1325" width="1280" height="1280" xmlns="http://www.w3.org/2000/svg">
<path transform="translate(1195,318)" d="m0 0h8l49 10 73 15 40 8 8 3 4 4 3 8 1 293v46l58 1 1-3v3l77 2h72l10-3-8-5-1 2-1-2 1-2h-76l1-3 64-1 16-1 5-5 8-5 6-1 32 1 14 7 8 3 8 9 4 9 20 1 59 1 92 2h9l4-1 4-13 2-19v-97l5 1v42l-1 59-2 15-4 12 11 1 46 1 6 3 5 5 1 3 2 94v14l-2 5 1 4 1 1v11l-1 4 1 2v66l-1 27-4 13v29l-3 6-1 1h-18l-1-2-1-24-25 7-14 6-3 6-3 2 1 8 3 4-1 5-3 9-5 2h-13l-4-2-5-14-2-5 4-2-6 1-1-1h-9l-17 5-6 4-2 4 4 13 1 2v6l-6 5h-10l-6 1-6-4-2-10 3-1-3-9-10-11-9-3-44-5-209-22-41-3 1 6-3 7-8 9-4 2h-9l-4-5-3-9v-10l2-2-28-5-91-10-163-16-13-1h-30l-12 3-1 4v10l-5 2h-13l-4-9 2-7-9-1h-28l-16 8-1 6-14-2-6-2v-1l10-1 17-9 1-8 9-3-1-16-1-2-23-2-1-24-2-4-18-2-62-5-49-4-18-2-1 16 3 5-8 3h-12l-1-4 4-4h2l-1-13-1-2-26-5-31-3-20-1-2 1-1 4v10l-1 2-16 3h-5v16l5 2v5l-4 2-8 1h-10l-3-2v-5l5-3 1-9v-7l-13-1-7-3-1-18-1-3-10-2-41-4-37-3v14l2 6-5 2h-11l-2-3 3-5v-13l-29-4-39-4-7 1-5 5-6 9-17 3-1 5v8l2 4-4 3-6 2h-7l-3-3 2-4 2-2v-13l-16-3-1-1v-17l-1-2-12-2-24-2h-11l-1 8 2 5 3 3v3h-22l3-5 3-4v-7l-1-3-8-2-34-4-27-1-3 1-4 6-7 1-2 4-17 2v13l4 4v2l-3 1h-15l-2-1 2-4h2v-11l-3-4-12-2-1-1v-17l-21-1-1 11 5 2v3h-14l-3-2 3-2-1-11-1-2-30-4-52-4-1 13h-16v14l2 4-1 1h-14l-1-3 3-2-1-8-1-5-9-1-3-2-1-5v-10l-4-4-3-1-14-1-4-2-1-79-2-3 1-4 19 1 4 2 3-1 1-4v-15l-3-15v-5l9-3 1-21 3-10 8-5 9-4 9-1 24-1 2-1 27-1 6-9 7-4 5-1h49l16 1 8 3 1 4-6-2h-74l-5 5-1 4h54l23 1 3 1v2h4l-2-1v-2l51-1 1-14h1v17l-2 1-26 1 1 9 4 4 12 4 15 1h89l48-1 2-4 3 1v4h107l65 1h155l2-17 9-69 5-35 2-2 49-3h7l2 1v3h2l-1-6v-23l1-53 2-40 3-28 2-14 1-15 5-3 6-1 2-16 3-2 2 1-1 15 21-1 4-1 2-14 1-1h6l1 1v15h4v-14l4-1 1 1 1 13 15-1 58-7 54-7 67-8 23-2zm-296 258-1 27-4 31-1 8-4 2-1 4 3 1 11-3 10-2 2-2v-13l-2-2-5-1-1-12-1-25-2-9zm-585 58m4 1m1312 56v3l-7 1-5 2 4 4 11 1 12-1v-3l-7-5zm-15 9m-9 1-2 1 1 3 8-2v-2z" fill="#FBFBFB"/>
<path transform="translate(877,528)" d="m0 0h24l1 3-5 39v7l1-2 2 1-1 27-4 31-2 8-3 2-1 6h-2v6l-2 3-57 1-1 1h-44v4l-29-1h-14l-8 4-5 5 1-5 5-6h-49l-11 1h-9-3l-1 10h-1l-1-12-39 1-12 2-43 1h-53l-73-1v5l-2-3v-4l-35 1-15 1h-27l-5-1h-52l-17-1v4l8 7 7 2 8 1 87 1h43l52 1v1l31 1 3 5 4 1h44l6 2 3 5v2l-20 1-2 1v-2h-25l-70-1h-38l-2 7h13l28 1 60 1h34l26 1 1-1 1-16 19-1h7l8 4h22l13-1 1-1 1-7h26l2 1 1 7 5 1 6 1v-2l4-1h20l2-6 4-1 52 1 7 1 1 5-1 1-13 1 1 1 13 1 27 1h14l7 3v2h2l-1 3-3-1-176-3h-27l-1 8 94 2 90 2h25l1-2 1-14 43-2 4-2h7v2l9 1 6 3 10-2 1-5v-2h2l1 2v12h-39v8l-1 3h24l17 1v11h-31l-169-4-103-3-301-7-23-1-8-1-38-2-6-1h-21l-3 2h-12v2l52 1 50 2 66 1 40 2 35 1h47l2-1 1 2 49 2 80 2 74 2h21l60 2 38 1 4-1 4 1 92 3v5l-32-1-65-1-1-1-35-1-63-1-4 3-4-1-5 1 1 3 9 1-1 2h-6l13 23 13 22 12 19 4 3 86 14 48 8 29 5 1 1 1 44-17-1-40-3-6-1-1 16 3 5-8 3h-12l-1-4 4-4h2l-1-13-1-2-26-5-31-3-20-1-2 1-1 4v10l-1 2-16 3h-5v16l5 2v5l-4 2-8 1h-10l-3-2v-5l5-3 1-9v-7l-13-1-7-3-1-18-1-3-10-2-41-4-37-3v14l2 6-5 2h-11l-2-3 3-5v-13l-29-4-39-4-7 1-5 5-6 9-17 3-1 5v8l2 4-4 3-6 2h-7l-3-3 2-4 2-2v-13l-16-3-1-1v-17l-1-2-12-2-24-2h-11l-1 8 2 5 3 3v3h-22l3-5 3-4v-7l-1-3-8-2-34-4-27-1-3 1-4 6-7 1-2 4-17 2v13l4 4v2l-3 1h-15l-2-1 2-4h2v-11l-3-4-12-2-1-1v-17l-21-1-1 11 5 2v3h-14l-3-2 3-2-1-11-1-2-30-4-52-4-1 13h-16v14l2 4-1 1h-14l-1-3 3-2-1-8-1-5-9-1-3-2-1-5v-10l-4-4-3-1-14-1-4-2-1-79-2-3 1-4 19 1 4 2 3-1 1-4v-15l-3-15v-5l9-3 1-21 3-10 8-5 9-4 9-1 24-1 2-1 27-1 6-9 7-4 5-1h49l16 1 8 3 1 4-6-2h-74l-5 5-1 4h54l23 1 3 1v2h4l-2-1v-2l51-1 1-14h1v17l-2 1-26 1 1 9 4 4 12 4 15 1h89l48-1 2-4 3 1v4h107l65 1h155l2-17 9-69 5-35 2-2z" fill="#818182"/>
<path transform="translate(1206,654)" d="m0 0h110l16 1 39 1v2h-35l-2-1 1 2v21h9l11 1-3 2 7 8 2 5v5l-5-5-6-8-10-5h-8l-1-1-13-1-8 3-9 9-4 6h-2v7l2-5 6-8 3 1-3 10-3 9-1 8h-3l-1-2 2-8h-2l-1 2 1 14 2 6 2 1h35l-1-21-6-9-6-4 4-1 8 4 6 8 1 4 1 16 4-12 1-16h13l2 1v3h2l1 7 1-11 8-1 8 3 58 1 1-3v3l77 2 66 1v2h-190l-11 1v3l20 1 13 1-3 2-20 9-3 2 1 17 1 1 16 1 132 4 48 1 1-9h-10l-36-2 3-3 16-7 21-9 3 1 6 15 1 1 45 2-1-6h-30l-1-2 32-1-2-14-4-8-7-6-4-2 1-2 9 4 7 6 4 8 3 18 4-8 3-12 2-1 16-1h11v6h18l23 1-4 3-27 14-9 5-4 5h-2v2l-5 4 5 1 121 4 37 1h15l4-1v22l7-1 6-5h2v14l-2 1h-11l-8-1-252-10-361-14-122-4h-6l31 2 45 2 77 2 65 3 106 4 2 1 224 9 56 1 117 5 30 2-2 4-16 10-32 21-13 8-1 3-44-2-7-1-129-7-50-2-7-1-92-5-30-1-8-1-49-2-7-1-47-2-7-1-36-2-30-1-26-2-66-3-30-2-49-2-9-1-27-1-51-4 4-3 28-10 14-6h3v-2l18-6 13-6-12 3-24 7h-2v-39l9 1 28 1h25l25 1 1-2v2l25 1-1-13 1-29h2v-3l4 1h-3l1 24 4-10 1-14-2-1 37-1 9-1 1-30 2-6z" fill="#080708"/>
<path transform="translate(1195,318)" d="m0 0h8l49 10 73 15 40 8 8 3 4 4 3 8 1 293v45l-16-1v11l-2 1v-8h-2v-3h-14l-1 15-4 12-2 2-1-18-3-7-5-5-6-3h-3l8 6 4 7v21l-2 1h-33l-4-3-2-12v-10l4 1v6l-1 3 2 1 2-13 5-12v-2l-4 2-4 7-2 4h-1v-6l5-6 7-8 6-5 6-2 13 1 3 1 9 1 9 6 8 11-1-7-6-8-2-2 1-1-17-2-1-23 37 1v-2l-4 1-35-1-16-1h-112l-1 6-1 30-1 1-9 1-35 1v14l-5 12h-1v-26l-1-1v3h-2v42l-3 1-16-1-7-1h-50l-28-1-9-2v39l29-9 10-2-2 3-17 7-10 3h-8l-3-1v-40l-5-2 2-1 3 1-1-41h18v-27l4-1 6-4 8-2h30l11 2 8 4v9l-1 2-17 2h-17l-4 1-7-1-13-1-4-1-1 4-1 13h66l39 1v-28l-4-1 6-1h27v-3l-13-1v-2h14l-1-11v-320l4-5z" fill="#787979"/>
<path transform="translate(1933,857)" d="m0 0h4l2 5v66l-1 27-4 13v29l-3 6-1 1h-18l-1-2-1-24-25 7-14 6-3 6-3 2 1 8 3 4-1 5-3 9-5 2h-13l-4-2-5-14-2-5 4-2-6 1-1-1h-9l-17 5-6 4-2 4 4 13 1 2v6l-6 5h-10l-6 1-6-4-2-10 3-1-3-9-10-11-9-3-44-5-209-22-41-3 1 6-3 7-8 9-4 2h-9l-4-5-3-9v-10l2-2-28-5-91-10-163-16-11-2-42-4-14-2h-17v4h-6l-2-6-3-2-2-11 1-4 1-2 1-32h10l175 15 538 46h24l66-17 5-1-1-1-1-19v-34l7-3z" fill="#FBFBFB"/>
<path transform="translate(1174,834)" d="m0 0 26 1 109 7 26 2 263 17 168 11 14 1h25l71-14 2-4 57-11 4 1v11l-6 2-57 12-2 1v53l3 1-18 5-55 14h-24l-503-43-151-13-69-6v32l-2 3 1 11 1 3 3 2 1 5 6 1-1-5h18l25 3 38 4v1h-39l-12 3-1 4v10l-5 2h-13l-4-9 2-7-9-1h-28l-16 8-1 6-14-2-6-2v-1l10-1 17-9 1-8 9-3-1-16-1-2-23-2-1-24-2-4-18-2-21-2-1-2h8l20 2 13 1 1 1 10 1h9l-1-4-2 2-4-1v-2h-7l-1 3-3-1v-3l-10 2-1-3h-5l-1 1h-5v-2l-11 1-5-2h-1l-4 2v-19h4l1-2 32 2 98 8h7l11-4 22-12z" fill="#323233"/>
<path transform="translate(1166,397)" d="m0 0h3v235l-39 1-106 1-38 1-12 11-16 16 54 1-1 9-5 2-11 1-25 1h-11v2l-19 1h-4l2-4 13-12 11-9 20-20h-46l-1-4v-209l1-1 48-5z" fill="#21473C"/>
<path transform="translate(127,690)" d="m0 0 4 1v15l36 1 4 2-19 1v9l6 34 2 11v4h2l4 8 7 2 116 8 170 12 7 1 35 2 257 18 12 1 84 6 3 1 22 2h25l20 2 1 1 1 44-17-1-40-3-6-1-1 16 3 5-8 3h-12l-1-4 4-4h2l-1-13-1-2-26-5-31-3-20-1-2 1-1 4v10l-1 2-16 3h-5v16l5 2v5l-4 2-8 1h-10l-3-2v-5l5-3 1-9v-7l-13-1-7-3-1-18-1-3-10-2-41-4-37-3v14l2 6-5 2h-11l-2-3 3-5v-13l-29-4-39-4-7 1-5 5-6 9-17 3-1 5v8l2 4-4 3-6 2h-7l-3-3 2-4 2-2v-13l-16-3-1-1v-17l-1-2-12-2-24-2h-11l-1 8 2 5 3 3v3h-22l3-5 3-4v-7l-1-3-8-2-34-4-27-1-3 1-4 6-7 1-2 4-17 2v13l4 4v2l-3 1h-15l-2-1 2-4h2v-11l-3-4-12-2-1-1v-17l-21-1-1 11 5 2v3h-14l-3-2 3-2-1-11-1-2-30-4-52-4-1 13h-16v14l2 4-1 1h-14l-1-3 3-2-1-8-1-5-9-1-3-2-1-5v-10l-4-4-3-1-14-1-4-2-1-79-2-3 1-4 19 1 2 2v3h2l12 73 1 5v9l8 1-3-22-11-67-2-26z" fill="#323233"/>
<path transform="translate(1071,761)" d="m0 0h40v1l-6 1 31 2 45 2 77 2 65 3 106 4 2 1 224 9 56 1 117 5 30 2-2 4-16 10-32 21-13 8-1 3-44-2-7-1-129-7-50-2-7-1-92-5-30-1-8-1-49-2-7-1-47-2-7-1-36-2-30-1-26-2-66-3-30-2-49-2-9-1-27-1-51-4 4-3 28-10 14-6h3v-2l18-6 13-6z" fill="#323233"/>
<path transform="translate(877,528)" d="m0 0h24l1 3-5 39v7l1-2 2 1-1 27-4 31-2 8-3 2-1 6h-2v6l-2 3-57 1-1 1h-44v4l-29-1h-14l-8 4-5 5 1-5 5-6h-49l-11 1h-9-3l-1 10h-1l-1-12-39 1-12 2-43 1h-53l-73-1v5l-2-3v-4l-35 1-15 1h-27l-5-1h-52l-17-1v4l8 7 7 2 8 1 87 1h43l52 1v1l31 1 3 5 4 1h44l6 2 3 5v2l-20 1-2 1v-2h-25l-70-1h-38l-2 7h13l28 1 60 1h34l26 1 1-1 1-16 19-1h7l8 4h22l13-1 1-1 1-7h26l2 1 1 7 5 1 6 1v-2l4-1h20l2-6 4-1 52 1 7 1 1 5-1 1-13 1 1 1 13 1 27 1h14l7 3v2h2l-1 3-3-1-176-3h-27l-1 8 94 2 90 2h25l1-2 1-14 43-2 4-2h7v2l9 1 6 3 10-2 1-5v-2h2l1 2v12h-39v8l-1 3h24l17 1v11h-31l-169-4-103-3-210-5-37-1-8-1-51-2-13-1-5-3v-4h20l16 1h48v-14h-5v5l-79 1-2-1v-2l-24 1-5 3-3 1h-7l-10-5-6-8-1-2v-16l7-8 4-2h11l2 1h37l266-1h261l2-17 9-69 5-35 2-2z" fill="#446E6A"/>
<path transform="translate(1166,397)" d="m0 0h3v235l-39 1-106 1-38 1-12 11-16 16 54 1-1 9-5 2-11 1-25 1h-11v2l-19 1h-4l2-4 13-12 11-9 20-20h-46l-1-4v-209l1-1 48-5zm-20 32-38 3-27 3-17 1-4 1-30 2-18 2-22 1-35 3-4 2-1 102v47l1 1h23l101-3 35-1 41-2v-162z" fill="#909192"/>
<path transform="translate(1870,585)" d="m0 0 5 1v42l-1 59-2 15-4 12 11 1 46 1 2 2-9 6-23 13-24 14-14 8-9 4h-15l-133-4-25-1-7-1 5-5h2v-2l5-5 8-5 24-12 7-4-39-2v-6l-29 2-1 7-3 9-3 5h-1l-3-19-4-8-7-6-8-3 1 1 8 6 5 7 2 7v10l-2 1-29 1 30 1 1 6h-19l-26-1-4-6-4-11-9 3-20 9-12 5 35 2 10 1-1 9h-48l-132-4-16-1-3-2h2l-2-12v-5l8-5 16-7-30-3v-3l11-2h120l70 1v-2l16-4-8-5-1 2-1-2 1-2h-76l1-3 64-1 16-1 5-5 8-5 6-1 32 1 14 7 8 3 8 9 4 9 20 1 59 1 92 2h9l4-1 4-13 2-19zm-240 106v3l-7 1-5 2 4 4 11 1 12-1v-3l-7-5zm-15 9m-9 1-2 1 1 3 8-2v-2z" fill="#929394"/>
<path transform="translate(153,710)" d="m0 0 107 3 96 3v3l-5 6-10 6-7 2h-9l-18-2 7 2v2l-11 1-24 1h58l50 8 122 20 45 7-2 2-57 16-33 9-46-3-212-15-31-2-7-2-4-6-5-25-5-30v-5z" fill="#FCFCFC"/>
<path transform="translate(1174,834)" d="m0 0 26 1 109 7 26 2 263 17 168 11 14 1h25l71-14 2-4 57-11 4 1v11l-6 2-57 12-2 1v53l3 1-18 5-55 14h-24v-1h14l-1-53-1-1-100-6-301-20-57-4-55-4-39-2-45-3h-16l-16 6-42 21-3 1h-22l-53-4h-18l-21-2-14-1h-14l-2 1v3l-4 1v-19h4l1-2 32 2 98 8h7l11-4 22-12z" fill="#162E93"/>
<path transform="translate(1e3 441)" d="m0 0h8l-4 1 5 9 12 19 12 20 15 24 17 28 15 24 11 17 4 7v2h12v1l-107 3-29 1h-23l-1-1v-47l1-102 4-2z" fill="#446E6A"/>
<path transform="translate(1194,339)" d="m0 0h1l2 14 2 10h3l1-4h2l1-5 5-6 1-3 11-1 8 3 5 2v3 2l7 2 3 7 4 5 4 6v4l-4 3-10 2-1 2 99 17 23 5v1l-13-1-40-7h-11l-1-1-9 1-2 1v3l4 1v2h7l-1 2-12-1-7-3-2 1-3 1-14 1-9 2-1 2-5 2h-6v8l4 1 3-8 15 1 46 7 26 4 5 1v12l-16-1 15 2 2 2v27l-4 1-16-2-1-1v-28l1-2h-5l1 1v17l-5 1-9-1 3 2 10 2 1 1v7l-15-1-6-1v-18l17 2-2-2-15-3-1-10-6-2-30-4h-12l-1 4 1 2v9l2 10 1 1 1 8 2 1 2 5 2 3-2 10h-2v7l1 4v9l1 3 1 18-1 15-2 3-2 9h-2l-1 11-5 11-2 10-24 1v3l-10 5-6 7-3 3v-255z" fill="#707071"/>
<path transform="translate(1195,318)" d="m0 0h8l49 10 73 15 40 8 8 3 4 4 3 8v107h-1l-1-87-1-14-5-10-8-3-22-4-50-10-26-5-15-3-9-2-26-5-17-3-6-1-1 72-1 126 1 26 1 48 1 2 6-8 9-6 2 1v4h21l28 1 6 1v16l-21 1-10 2-4 7-1 10h37v25l-63 1-1 6-1 30-1 1-9 1-35 1v14l-5 12h-1v-26l-1-1v3h-2v42l-3 1-16-1-7-1h-50l-28-1-9-2v39l29-9 10-2-2 3-17 7-10 3h-8l-3-1v-40l-5-2 2-1 3 1-1-41h18v-27l4-1 6-4 8-2h30l11 2 8 4v9l-1 2-17 2h-17l-4 1-7-1-13-1-4-1-1 4-1 13h66l39 1v-28l-4-1 6-1h27v-3l-13-1v-2h14l-1-11v-320l4-5z" fill="#909192"/>
<path transform="translate(232,614)" d="m0 0h49l16 1 8 3 1 4-6-2h-74l-5 5-1 4h54l23 1 3 1v2h4l-2-1v-2l51-1 1-14h1v17l-2 1-26 1 1 9 4 4 12 4 15 1h89l48-1 2-4 3 1v4h107v1l-41 1-266 1h-37l-2-1h-11l-6 4-4 5v16l6 9 10 5h7l7-3 1-1h24v2h81l-1-5 1-1h5l1 1-1 14-21 1h-27l-36-2 2 5 3 1 32 2 32 1v1h-46l-23-1-8-1-38-2-6-1h-21l-3 2h-12v2h12l4 1-1 3h-38l-34-1 1 11 7 41v5l-2-4-4-21-4-24v-9l1-1 15-1-33-1-3-1-1-15h-3l2 26 11 67 2 12v10l-8-1-3-19-10-62v-6h-2l1-3 4-1 1-4v-15l-3-15v-5l9-3 1-21 3-10 8-5 9-4 9-1 24-1 2-1 27-1 6-9 7-4z" fill="#919293"/>
<path transform="translate(1075,763)" d="m0 0 15 1 1 5 27 9 10 4 15 5 16 3 18 4 13 1 10 1 28 1 19 1 19 2h14l12 1 3 1h27l13 1 46 2h9l27 2h27l17 1 5 1h12l27 1 20 1h14l17 1 34 1 28 1 41 1 10 1h28l71 2 12 1h18l18-4 5-4 10-5 1-2 6-2v-2h2l-1-4 2-1h17l-5 5-16 10-29 19-13 8-1 3-44-2-7-1-129-7-50-2-7-1-92-5-30-1-8-1-49-2-7-1-47-2-7-1-36-2-30-1-26-2-66-3-30-2-49-2-9-1-27-1-51-4 4-3 28-10 14-6h3v-2l18-6z" fill="#0A090A"/>
<path transform="translate(361,679)" d="m0 0h34l4 2 2 4 17 2 8-1 5 1h4v-7l4-1 82 1 3 5 4 1h44l6 2 3 5v2l-20 1-2 1v-2h-25l-70-1h-38l-2 7h13l28 1 60 1h34l26 1 1-1 1-16 19-1h7l8 4h22l13-1 1-1 1-7h26l2 1 1 7 5 1 6 1v-2l4-1h20l2-6 4-1 52 1 7 1 1 5-1 1-13 1 1 1 13 1 27 1h14l7 3v2h2l-1 3-3-1-176-3h-27l-1 8 94 2 90 2h25l1-2 1-14 43-2 4-2h7v2l9 1 6 3 10-2 1-5v-2h2l1 2v12h-39v8l-1 3h24l17 1v11h-31l-169-4-103-3-210-5-37-1-8-1-51-2-13-1-5-3v-4h20l16 1h48v-14h-5v5h-17l-5-3 2-3h2l1-5z" fill="#373738"/>
<path transform="translate(359,717)" d="m0 0h22l55 1 61 2-2 4-11 8-12 4-29 1-17-1-8-2 5 2 7 1h41l11-3 11-6 7-7h37l73 2 8 1-1 3-10 7-5 2h-59l-8-2 4 2 6 1h56l9-3 9-7 2-3h25l15 1h16l34 1v4l-3 2-19 4-22 7-63 17-39 11-6-1-4 1-74-12-129-21-13-3 1-3 10-5z" fill="#FCFCFC"/>
<path transform="translate(162,771)" d="m0 0 4 5 7 2 116 8 170 12 7 1 35 2 257 18 12 1 84 6 3 1 22 2h25l20 2 1 1 1 44h-6l4-1-1-33h-9l-25-2-60-4-20-2-37-2-28-2-61-5-41-3-27-2-62-4-23-2-41-3-22-1-17-2-54-4-44-3h-17v15l-2 2-63-5-24-1-12-2-1-1 1-13h2l1 3 10-1 3 1 2-3h8l2 6 2-7-2-1-56-4-34-4-8-5-2-3z" fill="#17348D"/>
<path transform="translate(1174,834)" d="m0 0 26 1 15 1 20 3v1l-7 1-5 1h-6l-2 1 15 1h30l23 3h11l13 1 16 2 32 1 16 2 24 1 14 2 24 1 22 1 21 2 28 1 19 2 29 1 29 3h15l34 3 29 1 6 1 11 1 31 1 16 2 34 1 30 2 7-2v13l-2-1-100-6-301-20-57-4-55-4-39-2-45-3h-16l-16 6-42 21-3 1h-22l-53-4h-18l-21-2-14-1h-14l-2 1v3l-4 1v-19h4l1-2 32 2 98 8h7l11-4 22-12z" fill="#0C2C8E"/>
<path transform="translate(1583,709)" d="m0 0h1l1 16-6 1-31 14-5 2 35 2 10 1-1 9h-48l-132-4-16-1-3-2h2l-2-12v-5l8-5 16-7-30-3v-3l11-2h120l70 1z" fill="#8F9091"/>
<path transform="translate(847,677)" d="m0 0h34l-1 5h44l1 1v18h-30v-1h29l-1-14h-2l1 6-5 3-8 1-8-4-6-1v-2l-7 1-5 2-21 1h-21v14l-2 3h-25l-184-4-1-3 2-7h27l176 3 3 1 1-2h-2v-2l-8-2h-13l-27-1-13-1-2-2 1-1 13-1v-4l-7-1-56-1-1 6-5 1h-20v2h-11l-1-2v-7l-28-1v7l-2 2-21 1h-14l-8-4h-26v16l-2 2-27-1h-33l-60-1-38-1-3-1 1-7 1-1h38l70 1 25 1h2 20l-4-7-5-1h-44l-5-2-2-4-82-1v-1h221l64 1 3-1 2 1 100 1 13 1 1 2 8 1v-2h-5v-5z" fill="#757576"/>
<path transform="translate(232,614)" d="m0 0h49l16 1 8 3 1 4-6-2h-74l-5 5-1 4h54l23 1 3 1v2h4l-2-1v-2l51-1 1-14h1v17l-2 1-26 1 1 9 4 4 12 4 15 1h89l48-1 2-4 3 1v4h107v1l-41 1-266 1h-37l-2-1h-11l-6 4-4 5-3 9-2 1-12 1-26-2h-7l3 2 10 2 10 6 4 7-1 3-6 2h-7l12 2v1l-5 1-17 1v9h-4l-1-2-3-38-3-19-3-9-41-1 4-3 9-4 9-1 24-1 2-1 27-1 6-9 7-4z" fill="#FCFCFC"/>
<path transform="translate(1069,657)" d="m0 0h30l11 2 8 4v9l-1 2-17 2h-17l-4 1-7-1-13-1-4-1-1 4-1 13h66l31 2v3h-2v42l-3 1-16-1-7-1h-50l-28-1-9-2v39l29-9 10-2-2 3-17 7-10 3h-8l-3-1v-40l-5-2 2-1 3 1-1-41h18v-27l4-1 6-4z" fill="#303031"/>
<path transform="translate(708,735)" d="m0 0 6 1 7 10 13 22 12 20 9 14v1l-12-1-171-28-5-1v-2l40-10 55-15 25-7z" fill="#FDFDFD"/>
<path transform="translate(554,775)" d="m0 0 6 1 1-1 14 1 152 25 28 5 10 13v1l-22-1-128-9-141-10-6-1 4-2 36-9 43-12z" fill="#FDFDFD"/>
<path transform="translate(251,653)" d="m0 0h11l2 1h93v1l-21 1-58 1h70l9 1h38l18-1h14l9 1h218l6 1 26-1h138l4 2-1 1h-44v4l-29-1h-14l-8 4-5 5 1-5 5-6h-49l-11 1h-9-3l-1 10h-1l-1-12-39 1-12 2-43 1h-53l-73-1v5l-2-3v-4l-35 1-15 1h-27l-5-1h-52l-17-1v4l8 7 7 2 8 1 87 1h43l52 1v1l-55 1v7l-7 1-3-1-8 1-17-2-2-5-3-1h-34l-2 5-3 3 4 3-62 1-2-1v-2l-24 1-5 3-3 1h-7l-10-5-6-8-1-2v-16l7-8z" fill="#898A8B"/>
<path transform="translate(1206,654)" d="m0 0h62v1h-37l1 31 2 1v2h2l1 6 4 2 1 2 1-2 1-33 1-1 7 1 1 42v11l-5 5h-3l-1-5-6 1h-6l-2 16-6 1h-18l-13-1v7h-20l-6-1v-21l-1-1v22h-11l-5-1-1-14h-1v-29h2v-3l4 1h-3l1 24 4-10 1-14-2-1 37-1 9-1 1-30 2-6z" fill="#323233"/>
<path transform="translate(1145,757)" d="m0 0h27l59 2 167 6 217 8 80 3 45 2 63 2 47 2 1-20h1v21l7-1 6-5h2v14l-2 1h-11l-8-1-252-10-447-17-2-1z" fill="#313132"/>
<path transform="translate(1e3 441)" d="m0 0h8l-4 1 5 9 12 19 12 20 15 24 17 28 15 24 11 17 4 7v2h12v1l-35 1h-29v-1l28-1 1-1-3-2-6-1-6-4-4-7-6-11-8-12-7-11-9-14-10-14-7-9-4-8-2-6h-2l-4-6v-2h-2l-7-14v-2l-4-1-9-13v-6h-2v-2l-20 2-1 61h-1v-62l4-2z" fill="#617670"/>
<path transform="translate(1342,581)" d="m0 0h16l9 1 1 8v19l-1 1-26 1-6 3-2 8v6h36l1 28-3 1-35-1-16-1-41-1-1-2 1-3 1-20 17-1 2-22 3-10 2-2 27 1-20-1-6-2 4-3 9-4 14-3z" fill="#909192"/>
<path transform="translate(361,679)" d="m0 0h34l4 2 2 4 17 2 8-1 5 1h4v-7l4-1 82 1 3 5 4 1h44l6 2 3 5v2l-20 1-2 1v-2h-25l-70-1h-38l-2 7h13l75 3 7 1v6l138 4v1h-35l-210-5-37-1-8-1-51-2-13-1-5-3v-4h20l16 1h48v-14h-5v5h-17l-5-3 2-3h2l1-5z" fill="#3C3C3D"/>
<path transform="translate(493,803)" d="m0 0h37l228 16 12 1 84 6 3 1 22 2h25l20 2 1 1 1 44h-6l4-1-1-33h-9l-25-2-60-4-20-2-37-2-28-2-61-5-41-3-55-4-1-2-11-2-3 1-4-2h-21l-17-1-7-2h-20l-8-1-2-4z" fill="#112A94"/>
<path transform="translate(1872,871)" d="m0 0h1l1 34v19l3 1-18 5-51 13h-13v-53l5-2 42-8 29-6z" fill="#333334"/>
<path transform="translate(839,576)" d="m0 0 3 4 5 13 5 4 2 13v40h12l2 2-6 1-2 1 1 4-37 1h-138l-27 1-9-1h-214l-9-1h-14l-18 1h-38l-15-1h-65l1-2 58-1 21-1 210-1h261l2-17 7-55h2z" fill="#454546"/>
<path transform="translate(1211,843)" d="m0 0 19 1h30l23 3h11l13 1 16 2 32 1 16 2 24 1 14 2 24 1 22 1 21 2 28 1 19 2 29 1 29 3h15l34 3 29 1 6 1 11 1 31 1 16 2 34 1 30 2 7-2-1 10h-17l-78-5-105-7-26-2-64-4-21-2-64-4-38-3-35-2-46-3-7-1-81-5-6-1 2-1v-3z" fill="#0630A4"/>
<path transform="translate(1620,702)" d="m0 0 9 3 8 7 4 8 3 18 4-8 3-12 2-1 16-1h11v6h18l23 1-4 3-27 14-9 5-4 5h-2v2l-5 4 5 1 25 1v1h-31l-35-1-68-2v-2h21l1-9h-10l-36-2 3-3 16-7 21-9 3 1 6 15 1 1 45 2-1-6h-30l-1-2 32-1-2-14-4-8-7-6-4-2z" fill="#353536"/>
<path transform="translate(1321,699)" d="m0 0 7 1 8 6 3 5 1 4 1 16 4-12 1-16h13l2 1v3h2l1 7 1-11 8-1 8 3 58 1 1-3v3l77 2 66 1v2h-190l-11 1v3l20 1 13 1-3 2-20 9-3 2 1 17 1 1 16 1 63 2v1h-35l-109-4-14-1-1-2v-5l-1-3-9-1v-1l33-1-1-21-6-9-6-4z" fill="#313132"/>
<path transform="translate(921,686)" d="m0 0h2l1 2v12h-39v8l-1 3h24l17 1v11h-31l-124-3-5-1-36-1-3-1-1-7 1-1h113l1-2 1-14 43-2 4-2h7v2l9 1 6 3 10-2 1-5z" fill="#373738"/>
<path transform="translate(1614,682)" d="m0 0 30 1 3 3v2l4 2 1 3-4 4v7l2 9v12l-3 9-3 5h-1l-3-19-4-8-7-6-8-3 1 1 8 6 5 7 2 7v10l-2 1-29 1 30 1 1 6h-19l-26-1-4-6-4-13v-14l15-4-8-5-1 2-1-2 1-2h-76l1-3 64-1 16-1 5-5 8-5zm16 9v3l-7 1-5 2 4 4 11 1 12-1v-3l-7-5zm-15 9m-9 1-2 1 1 3 8-2v-2z" fill="#FCFCFC"/>
<path transform="translate(1069,657)" d="m0 0h30l11 2 8 4v9l-1 2-17 2h-17l-4 1-7-1-13-1-4-1-1 4-1 13h66v1l-50 1 1 13v30h-26l-9-2v39l29-9 10-2-2 3-17 7-10 3h-8l-3-1v-40l-5-2 2-1 3 1-1-41h18v-27l4-1 6-4z" fill="#383839"/>
<path transform="translate(970,878)" d="m0 0h8l20 2 13 1 1 1 21 2v-6l4 1-2 5 5 1h6v-5h9l1 1v35l-1 4 2 11 3 2 1 5 6 1-1-5h18l25 3 38 4v1h-39l-12 3-1 4v10l-5 2h-13l-4-9 2-7-9-1h-28l-16 8-1 6-14-2-6-2v-1l10-1 17-9 1-8 9-3-1-16-1-2-23-2-1-24-2-4-18-2-21-2z" fill="#100F10"/>
<path transform="translate(239,666)" d="m0 0h1l1 13 6 9 10 5h7l7-3 1-1h24v2h81l-1-5 1-1h5l1 1-1 14-21 1h-27l-36-2 2 5 3 1 32 2 32 1v1h-46l-23-1-8-1-38-2-6-1h-21l-3 2h-12v2h12l4 1-1 3h-38l-33-1v-1h40l10-1-3-2 1-1 19-3-3-1h-22l-1 6h-1v-9l2-1 15-1 1-1-9-1 1-2h7l6-2-2-6-2-3-12-6-9-2-2-3 17 1 20 1 11-1z" fill="#8E8F90"/>
<path transform="translate(918,351)" d="m0 0h9l-2 4-3 7v233l1 14 1 3 1 22v7l-2 5h-1v16l12 1 2 2-3 6h-2v2l-5 3h-3l-2-13-4 1h-16l-1-3h-6l1-13h5v-2l12-3 1-1v-13l-5-4v-11l4-8 1-4v-41l-1-11v-12l1-2 1-34 1-8 1-105v-1-35z" fill="#909192"/>
<path transform="translate(929,330)" d="m0 0 3 1v5h-2v7l-1 4h10l1 2-7 3h-15l-1 1v34l2 1-3 1v105l-1 8-1 34-1 2v12l1 13v39l-4 11-1 1-1 11 3 1-4 1-1-1-1-12-1-25-2-9-2-5h-2l-1 3h-1v-8l5-41-6-1v-1h7l2 1v3h2l-1-6v-23l1-53 2-40 3-28 2-14 1-15 5-3 6-1 2-16z" fill="#909192"/>
<path transform="translate(1105,612)" d="m0 0 3 1v7h3l-1 4-5 2-22 2-31 1-6 1 3 2-7 1-18 1-38 1-12 11-16 16 54 1-1 9-5 2-11 1-25 1h-11v2l-19 1h-4l2-4 13-12 11-9 19-19h2v-2h-11v-1l13-1 1-1h12l-4-4-6 1v-4l1-4 43-1 67-1 1-4 4 4z" fill="#787979"/>
<path transform="translate(1243,415)" d="m0 0 15 1 46 7 26 4 5 1v12l-16-1 15 2 2 2v27l-4 1-16-2-1-1v-28l1-2h-5l1 1v17l-5 1-9-1 3 2 10 2 1 1v7l-15-1-6-1v-18l17 2-2-2-15-3-1-10-6-2-36-5-6-2v-9z" fill="#131314"/>
<path transform="translate(651,658)" d="m0 0 9 1 26-1h138l4 2-1 1h-44v4l-29-1h-14l-8 4-5 5 1-5 5-6h-49l-11 1h-9-3l-1 10h-1l-1-12-39 1-12 2-43 1h-53l-73-1v5l-2-3v-4l-35 1-15 1h-27l-5-1h-52l-17-1v4l8 7 6 2v1h-10l-24-3-2-3v-7l1-2h2v-2h88l19 1 60-1 5 1h125l57-1z" fill="#919293"/>
<path transform="translate(845,559)" d="m0 0 6 4 9 7 3 5 6 7 8 7 9 9v2h2l4 4 1-9 3-17 2-3 2 1-1 27-4 31-2 8-3 2-1 6h-2v-11l1-10v-14l-3 4-2 8-5 11h-3l-1 5-5 4-4-1-7 1-2-2-1-5 1-21 9-3h2l-2-5-1-3-5-2-3-4-3-23-5-4-3-6v-5h-2z" fill="#797A7A"/>
<path transform="translate(830,691)" d="m0 0h8l3 3v13l-2 3h-25l-184-4-1-3 2-7h27l176 3 3 1 1-2h-2v-2l-6-2z" fill="#FDFDFD"/>
<path transform="translate(1095,762)" d="m0 0h16l122 4 185 7 156 6 97 4 57 2 118 5v1h-30l-1 1-57-2-47-2-56-1-202-8-22-1-2-1-154-6-17-1-77-2-65-3-21-2z" fill="#B8B8B9"/>
<path transform="translate(1166,397)" d="m0 0h3v235h-50v-1l35-2v-1l10-1v-101l-1-38-1-23 1-13v-43l-4-4-29 1-17 2-36 3-32 3-36 3-13 1h-10l-2-1v-2z" fill="#7D7E7E"/>
<path transform="translate(1150,693)" d="m0 0 4 1h-3l1 24 4-10 1-14-2-1h37v41h1v7h-20l-6-1v-21l-1-1v22h-11l-5-1-1-14h-1v-29h2z" fill="#313132"/>
<path transform="translate(1928,967)" d="m0 0h5l1 5v25l-3 6-1 1h-18l-1-2-1-24-25 7-14 6-3 6-3 2 1 8 3 4-1 5-3 9-5 2h-13l-4-2-5-14-1-4 7-1-1-8 1-2 27-9 32-12z" fill="#101011"/>
<path transform="translate(265,794)" d="m0 0 19 1 40 4 1 2 9-1 1 1v15l-2 2-63-5-24-1-12-2-1-1 1-13h2l1 3 10-1 3 1 2-3h8l2 6z" fill="#707071"/>
<path transform="translate(1158,842)" d="m0 0h2v2l-11 6h-2v2l-19 9-4 5-10 4h-26l-9-1v-2l-26 1-5 1-10-1 3 2 21 2 17 2 1 2h-10l-27-2h-18l-21-2-14-1h-14l-2 1v3l-4 1v-19h4l1-2 32 2 98 8h7l11-4 22-12z" fill="#0E2D8E"/>
<path transform="translate(567,653)" d="m0 0h46v2l48-1 4 1 20 1v1l-19 1-7 2-9-1h-214l-9-1h-14l-18 1h-38l-15-1h-65l1-2 58-1 21-1z" fill="#302F30"/>
<path transform="translate(1268,594)" d="m0 0h19l12 1-3 11-2 19-1 3-5 1h-12v20l-1 5h-8v-25h-37l3-5 1-3 3-1 3 2 1-3 7-1 5-4 13-2 1-1z" fill="#787979"/>
<path transform="translate(952,521)" d="m0 0 4 5 5 17 1 6h2l3 5 5 4 10 13 4 6 2 9h2v2l5 2 3 1v2l4 1-9 1-27 1h-15v-20z" fill="#21483D"/>
<path transform="translate(1322,682)" d="m0 0 9 2 10 9 4 9 1 6v11l-4 12-2 2-1-18-3-7-5-5-6-3h-3l8 6 4 7v21l-2 1h-19l-12-1 4-2 1-27 3-5 8-11 3-3v-3z" fill="#FCFCFC"/>
<path transform="translate(1271,654)" d="m0 0h45l16 1 39 1v2h-35l-2-1 1 2v21h9l11 1-3 2 7 8 2 5v5l-5-5-6-8-10-5h-8l-1-1-13-1-8 3-9 9-4 6h-2l-1 2v-46h-23z" fill="#2F2F30"/>
<path transform="translate(585,692)" d="m0 0h1v12l-1 1-27-1h-33l-60-1-38-1-3-1 1-7 1-1h38l70 1 25 1h2 18l4 1v-3z" fill="#FCFCFC"/>
<path transform="translate(499,717)" d="m0 0h26l27 1 80 2 74 2h21l60 2 38 1 4-1 4 1 92 3v5l-32-1-65-1-1-1-35-1-54-1v-2l-10 1h-3l-1-1h-65l-13-1-3-1-48-2-56-1-40-1z" fill="#49494A"/>
<path transform="translate(1372,702)" d="m0 0 9 3 58 1 1-3v3l77 2 66 1v2h-190l-11 1v3h7v1l-9 1-2 9-8 10-2-4 3-5-1-3-6-3-7 1-8 6h-4l-3 3 3-12 1-16h13l2 1v3h2l1 7 1-11z" fill="#373738"/>
<path transform="translate(1380,659)" d="m0 0h1v45l-16-1v11l-2 1v-8h-2v-3h-14l-2 4-2-9-5-8-9-7-9-1 1 4-8 8-6 10-1 27-1 1 8 1v1h-14l-4-3-2-12v-10l4 1v6l-1 3 2 1 2-13 5-12v-2l-4 2-4 7-2 4h-1v-6l5-6 7-8 6-5 6-2 13 1 3 1 9 1 9 6 8 11-1-7-6-8-2-2 1-1h12l10 9 4 5 1-4z" fill="#8F9091"/>
<path transform="translate(842,545)" d="m0 0h1v14l2 1-2 4h2l2 10 6 3 1 2 3 23 10 10v4l-10 3-1 22 2 5 8-1h4l4-2 1-5h3l3-9 2-4 2-8 4-4v16l-2 27-2 3h-57v-1h33l-1-6 4-1-10-1-1-2v-38l-2-13-5-4-5-12h-3l1-14z" fill="#6B6F70"/>
<path transform="translate(291,712)" d="m0 0h87l40 2 35 1h47l2-1 1 3-4 2 96 2 48 2v1l-22 1-5 5-8 6-7 2h-56l-8-2-4-3 10 2h59l8-4 7-5 1-2-81-2h-37l-7 7-13 7-9 2h-41l-10-2-4-3 10 2 27 1 19-1 12-4 11-8 2-3h-31l-30-1-55-1v-2h-24l-7-1-52-1-7-1z" fill="#88898A"/>
<path transform="translate(1582,724)" d="m0 0 3 1 6 15 1 1 45 2 2 12-1 1h-13l-4-4-6-1-1 4h-48v-1h21l1-9h-10l-36-2 3-3 16-7z" fill="#737374"/>
<path transform="translate(1069,657)" d="m0 0h30l11 2 8 4v9l-1 2-17 2h-17l-4 1-7-1-13-1-4-1-1 4-1 13-1 1h-14v-1h13v-27l4-1 6-4z" fill="#909192"/>
<path transform="translate(226,709)" d="m0 0h36l50 2v1l-14 1 52 1 7 1 24 1v1l-22 1-9 10-10 5-1 2 38 6 141 23 12 2 1 2h-10l-129-21-47-8-8-1h-61l3-2 35-1v-2l-12-2v-1l15 1 8 1h9l11-4 8-6 3-5-126-4-5-1z" fill="#909192"/>
<path transform="translate(245,659)" d="m0 0 1 3-2 3v8l4 2h10l2-6h2l2 6 35 2 12 2 6 4 6 1 1 2h5v3l-10 1h-47l-5 3-3 1h-7l-10-5-6-8-1-2v-10l3-8z" fill="#313132"/>
<path transform="translate(847,677)" d="m0 0h34l-1 5h44l1 1v18h-30v-1h29l-1-14h-2l1 6-5 3-8 1-8-4-6-1v-2l-7 1-5 2-43 2v-2l-10-1-1 3h-14l-27-1-5-1v-2h13l1-2 30 1h14l13-1h16v-3l-6-1-13-1h-5v-5z" fill="#838384"/>
<path transform="translate(225,703)" d="m0 0h21l6 1 38 2 8 1 23 1 180 4v3l-1 1h-47l-35-1-40-2-66-1-50-2-40-1-12-1v-2l12-1z" fill="#FDFDFD"/>
<path transform="translate(726,709)" d="m0 0h103l10 1v1h-11l1 8-1 2-58-1-5-1-36-1-3-1-1-7z" fill="#414142"/>
<path transform="translate(832,825)" d="m0 0h11l11 1 3 1 22 2h25l20 2 1 1 1 44h-6l4-1-1-33h-9l-25-2-60-4-10-1-1-2 12-2 3-3z" fill="#0C2B8F"/>
<path transform="translate(970,878)" d="m0 0h8l20 2 13 1 1 1 19 2v2l12 2 3 2v26h-5l-2 14h-1l-1-14-1-2-23-2-1-24-2-4-18-2-21-2z" fill="#343435"/>
<path transform="translate(1485,778)" d="m0 0h61l201 8 99 4v1h-30l-1 1-57-2-47-2-56-1-129-5-18-2-23-1z" fill="#BDBDBE"/>
<path transform="translate(725,679)" d="m0 0 4 1 100 1 13 1 1 2 8 1v-3l13 1 6 2v3l-29 2h-14l-30-1-1 1h-13v2h-8l-2-2 1-1 13-1v-4l-7-1-56-1-1 6-5 1h-20v2h-11l-1-2v-7l-2-1 40-1z" fill="#717172"/>
<path transform="translate(1935,844)" d="m0 0 4 1v11l-6 2-57 12-12 5-10 1-1-4 4-1v-2l9-4 6-4h4l2-6z" fill="#0F36A2"/>
<path transform="translate(1762,1007)" d="m0 0h11l22 2h9l-5 7 3 12 2 4v6l-6 5h-10l-6 1-6-4-2-10 3-1-3-9-10-11z" fill="#100F10"/>
<path transform="translate(845,559)" d="m0 0 6 4 9 7 3 5 6 7 8 7 9 9v2h2l4 4 1-9 3-17 2-3 2 1-1 27-4 31-2 8-3 2-1 6h-2v-11l3-28v-5l-9-1-8-4-5-1-2-2-5-2-1-3-4-2v-6l2-3h3l-1-4-12-9-3-7z" fill="#959697"/>
<path transform="translate(737,860)" d="m0 0 32 2-1 6v10l-1 2-16 3h-5v16l5 2v5l-4 2h-14l-3-3 4-4 2-16z" fill="#0D0C0D"/>
<path transform="translate(1124,694)" d="m0 0h24v31l-8 6-11 5h-5l-1-2v-21z" fill="#717172"/>
<path transform="translate(877,528)" d="m0 0h24l1 3-6 46-2 7-10-2 3-2 2-6 3-24 1-2 1-11-35 1-8 1-2 4-2 16h-4l-1 2 1-23 2-7 1-1z" fill="#333437"/>
<path transform="translate(916,389)" d="m0 0 4 1v196h-5l-1-48 1-44z" fill="#1B1B1C"/>
<path transform="translate(863,538)" d="m0 0h30l-2 14-2 6-13 3-4 2h-13l-6-4-2-4v-13l3-3z" fill="#797A7A"/>
<path transform="translate(1257,852)" d="m0 0h18l17 1 22 2 77 5 55 4 36 2 37 3 65 4 23 2 66 4 53 4 68 4-1 3-1-1-100-6-301-20-57-4-55-4-19-1z" fill="#0C2B8E"/>
<path transform="translate(494,839)" d="m0 0h10l28 3-2 4-7 11-17 3-1 5v8l2 4-4 3-3 1h-7l-3-2 1-3h2l1-8z" fill="#0C0B0C"/>
<path transform="translate(98,712)" d="m0 0 19 1 2 2v3h2l12 73 1 5v9l-4-4-5-18-5-30-2-19-3-12-2-1-2 5h-3v2l-5 2v69l-3-1-1-79-2-3z" fill="#1C3493"/>
<path transform="translate(956,661)" d="m0 0 2 1 54 1-1 9-5 2-11 1-25 1h-11v2l-19 1h-4l2-4 5-5 2 1-4 5 10-10z" fill="#919293"/>
<path transform="translate(914,352)" d="m0 0h1v70l-2 55-2 11-3 13-1 18-1 6h-1v-23l1-53 2-40 3-28 2-14z" fill="#FDFDFD"/>
<path transform="translate(1863,992)" d="m0 0h5l-1 6-2 1 1 8 3 4-1 5-3 9-5 2h-13l-4-2-5-14-1-4 7-1-1-8 1-2 9-3h9z" fill="#111011"/>
<path transform="translate(759,807)" d="m0 0 23 3 74 12 12 2v3h-14l-84-6-4-2-7-11z" fill="#FDFDFD"/>
<path transform="translate(299,822)" d="m0 0h9l20 2 2 3h2v-2h6l2 1-1 5-2 2-7 1-2 4-17 2v13l4 4v2l-3 1h-15l-2-1 2-4h2z" fill="#0F0E0F"/>
<path transform="translate(1118,694)" d="m0 0h3v42h-24l1-31 16-3 3-5z" fill="#717172"/>
<path transform="translate(1049,693)" d="m0 0h3l3 7 7 3 7 1 1 2v30h-15l-7-1v-40z" fill="#717172"/>
<path transform="translate(1644,683)" d="m0 0 9 3 7 4 8 3 8 9 5 10-1 4-29 2v5h-1l-2-15-1-4v-7l4-5-7-8z" fill="#969798"/>
<path transform="translate(1321,699)" d="m0 0 7 1 8 6 3 5 1 4 1 16 2-1 2-3 6-1 6-5 7-1 8 5-2 5-2 7-9 6-2 2h-7l-2-3-3-1-3-3v7l-4 1-1-1-2-11-2-21-6-9-6-4z" fill="#0D0C0D"/>
<path transform="translate(1073,705)" d="m0 0h22l1 1-1 30h-23v-30z" fill="#717172"/>
<path transform="translate(1155,852)" d="m0 0h7l-4 4-23 12-10 6-9 3h-13l-31-3-25-2-9-2v-2h13l2-1h26l5 1 10 1h20l11-5 14-4h2l1-2 12-3z" fill="#062FA3"/>
<path transform="translate(1423,971)" d="m0 0h9l28 3 2 4-1 8-7 9-5 4-2 1h-9l-4-5-3-9v-10l2-2-10-2z" fill="#141415"/>
<path transform="translate(740,777)" d="m0 0 3 1 8 14 7 10 3 2 86 14 48 8 16 3v1h-32l-22-2v-1l8-1-2-2-57-9-44-7h-2l7 11-1 2-2-1-4-6-5-7-28-5-1-2h12l16 2-10-16-4-7z" fill="#565858"/>
<path transform="translate(125,710)" d="m0 0 2 1 8 50 6 37v6h-6l-3-13-9-55-2-12v-6h-2l1-3 4-1z" fill="#FCFCFC"/>
<path transform="translate(1105,612)" d="m0 0 3 1v7l-9 3-21 1-80 1-7-3v-2l28-1 13-1 67-1 1-4 4 4z" fill="#353536"/>
<path transform="translate(879,739)" d="m0 0h8v13h2v-9l1-3h20l1 1v11h2l-1-6 1-5h10v14h-18l-18-1 1 2v6l-3-1 1-8-6-2v4h2v2l2 1h-3l-1 3h-2v-14z" fill="#7D7D7E"/>
<path transform="translate(139,808)" d="m0 0h11l16 2v12l-1 1h-14v14l2 4-1 1h-14l-1-3 4-3v-10l-2-2-1-14z" fill="#0E0D0E"/>
<path transform="translate(631,706)" d="m0 0h43l91 2v1l-39 1v7l39 1v1h-40l-44-2v-2h4v-7h-17l-37-1z" fill="#49494A"/>
<path transform="translate(1265,432)" d="m0 0 18 2 4 1v19l-12-1-3-1v3l12 1 3 1v8l-16-1-6-2v-17l12 1 6 1-1-2-17-3z" fill="#121112"/>
<path transform="translate(1243,415)" d="m0 0 15 1 27 4 3 1v12l-19-2-26-4-1-1v-9z" fill="#062FA3"/>
<path transform="translate(307,678)" d="m0 0h87v1l-33 1-2 5-3 3 4 3-62 1-2-2 23-1 10-1-12-4-6-4z" fill="#717172"/>
<path transform="translate(916,608)" d="m0 0 4 1v51l-1 2h-2l-1-13-1-3-1 1-1 16h-13v-2h-6l1-13h5v-2l12-3 2-3 1-31z" fill="#3C3C3D"/>
<path transform="translate(466,719)" d="m0 0h40l33 1 56 1 48 2v1l-22 1-5 5-8 6-7 2h-56l-8-2-4-3 10 2h59l8-4 7-5 1-2-81-2h-37l-7 7-13 7-9 2h-41l-10-2-4-3 10 2 27 1 19-1 12-4 11-8 2-3h-31z" fill="#878788"/>
<path transform="translate(1871,860)" d="m0 0h5l-4 2-6 4-9 3v2l-3 1v3l10-1 8-2-1 3-49 10-26 5-1 53h9v1h-24v-1h14l-1-64 1-3h2l1 11 23-4v-2h6v-2l6-3 9-4 7-4-2-3z" fill="#0E2E8E"/>
<path transform="translate(1582,724)" d="m0 0 3 1 6 15 1 5-50-2 3-3 16-7z" fill="#0E0D0E"/>
<path transform="translate(1158,842)" d="m0 0h2v2l-11 6h-2v2l-19 9-4 5-10 4h-26l-9-1v-2l-26 1-5 1-10-1v-4l3-1 1-2h-6v-1l21 1 48 4h7l11-4 22-12z" fill="#162E92"/>
<path transform="translate(842,545)" d="m0 0h1v14l2 1-2 4h2l2 10 6 3 1 2 3 23 10 10v4l-10 3-1 21h-1l-1-22-2-18-1-3-5-4-5-12h-3l1-14z" fill="#737374"/>
<path transform="translate(1038,613)" d="m0 0h60v4l-2 1-64 1h-41l1-4 6-1z" fill="#FDFDFD"/>
<path transform="translate(1212,589)" d="m0 0 84 3 46 3v1h-16l-26-1h-13l-19-1v17l-2 2-13 2-5 4-7 1-1 2-6-1-1 5 2 2h-5v-9l5-8 10-2h21v-16l-34-1-18-1z" fill="#626263"/>
<path transform="translate(1840,866)" d="m0 0h9v3l-7 3-4 3-12 4v2h-6v2l-12 3-11 1-1-4v-7l-2-1 9-1 12-3z" fill="#112A94"/>
<path transform="translate(1288,421)" d="m0 0 42 6 5 1v10l-3 1-18-3-23-3-3-1z" fill="#0C0B0C"/>
<path transform="translate(851,617)" d="m0 0h2l1 33h-16l-3-2v-9l2-14 5-5z" fill="#0D2D8E"/>
<path transform="translate(1292,437)" d="m0 0 13 1 7 1v17l-5 1-9-1 3 2 10 2 1 1v7l-15-1-6-1v-18l17 2-2-2-12-2-2-2z" fill="#141314"/>
<path transform="translate(1870,585)" d="m0 0 5 1v42l-1 59-2 15-4 12-2 1-1-4 4-16 1-13z" fill="#FDFDFD"/>
<path transform="translate(726,709)" d="m0 0h56l5 1v8h-20l-32-1v-2h-5v2h-4l-1-7z" fill="#090809"/>
<path transform="translate(499,717)" d="m0 0h26l27 1 80 2 74 2v1l-23 1v1l-24 1-13-1-3-1-48-2-56-1-40-1z" fill="#575758"/>
<path transform="translate(1884,814)" d="m0 0h3l-2 4-8 7-16 11-19 13-6 4-3-1v-5h-10v-4l2-1 13-1 1 3h-2v2l11-7 5-5 5-2 2-6 1-2-3-2v-3l3-1h15 3z" fill="#8D8E8F"/>
<path transform="translate(876,829)" d="m0 0h28l20 2 1 1 1 44h-6l4-1-1-33h-9l-22-2-3-2-6-1v-2l-3-1v-2l-4-2z" fill="#172E92"/>
<path transform="translate(398,796)" d="m0 0h32l29 2 28 3-2 2h-11l-6 1h-7l-3 1h-21l-4-2h-19l-14-1-2-2z" fill="#0D2694"/>
<path transform="translate(1160,674)" d="m0 0 16 2h9l4 2 1 2v12h-31z" fill="#FDFDFD"/>
<path transform="translate(313,657)" d="m0 0h35l9 1h38l18-1h14l9 1h214v1l-30 1-74 1h-109l-4-1-67 1-32-2-21-1z" fill="#727273"/>
<path transform="translate(567,653)" d="m0 0h46v2l48-1 4 1 20 1v1l-19 1-7 2-9-1h-60l-26-2-1-3z" fill="#313132"/>
<path transform="translate(1063,692)" d="m0 0h36l-1 12-1 2h-24l-1 30h-2l-1-43h-6z" fill="#303031"/>
<path transform="translate(137,639)" d="m0 0h34l8 2 4 9 2 16 1 3 1 27 1 12h-4l-2-21-1-3-1-25-2-14-8-1h-34z" fill="#0831A4"/>
<path transform="translate(298,699)" d="m0 0h20l16 1h28l-1 8h-26l-32-2-5-3z" fill="#303031"/>
<path transform="translate(226,709)" d="m0 0h36l50 2v1l-14 1 52 1 7 1 24 1v1l-22 1-9 10-7 4-3-1 12-8 4-6-126-4-5-1z" fill="#919293"/>
<path transform="translate(686,658)" d="m0 0h138l4 2-1 1h-44v4l-29-1h-14l-7 1 3-4-14-1-36-1z" fill="#737374"/>
<path transform="translate(171,639)" d="m0 0h7l4 4 3 11 2 14 3 40h5v-6l4-1h19l4 2v1l-20 3 10 2v1l-24 1h-35l1 11 7 41v5l-2-4-4-21-4-24v-9l1-1 15-1v-1h10l6 1v-10h1l1 10 2-1-1-11-1-27-2-13-3-12-1-3-8-1z" fill="#78797A"/>
<path transform="translate(1380,659)" d="m0 0h1v45l-16-1v11l-2 1v-8h-2l-1-11-4-8-5-5 1-1h12l10 9 4 5 1-4z" fill="#939495"/>
<path transform="translate(378,686)" d="m0 0 4 1v13h-41l-9-1v-7h46z" fill="#FDFDFD"/>
<path transform="translate(841,726)" d="m0 0h20l64 2v5l-32-1-65-1-1-1-35-1-3-2 50 1h13l-11-1z" fill="#838485"/>
<path transform="translate(1334,722)" d="m0 0h1l2 16 1 7h3l1-7 3 1 4 8-2 1h-21l-14-1-1-2v-5l-1-3-9-1v-1l33-1z" fill="#3A3A3B"/>
<path transform="translate(1257,852)" d="m0 0h18l17 1 22 2 77 5 55 4 17 1 6 1v1h-18l-191-13z" fill="#0D2D8E"/>
<path transform="translate(1221,583)" d="m0 0h45v7l-1 1h-19l-29-1-5-2 2-4z" fill="#8E8F90"/>
<path transform="translate(868,683)" d="m0 0h6l-1 2 16 2v1l-22 3-5 2-22 1v-2l-10-1-1 3h-14l-27-1-5-1v-2h13l1-2 30 1h14l13-1h16v-3h-2z" fill="#7E7E7F"/>
<path transform="translate(1513,620)" d="m0 0h76l9 1 4 2v2l-9-1h-77v26l-2 3-1-1-1-9v-21z" fill="#FDFDFD"/>
<path transform="translate(914,502)" d="m0 0h1v84h5v23h-4l-1 31h-1l-1-11-5-4v-11l4-8 1-4v-41l-1-11v-12l1-2z" fill="#777878"/>
<path transform="translate(232,614)" d="m0 0h49l16 1 8 3 1 4-6-2-74-1-3-2z" fill="#FDFDFD"/>
<path transform="translate(1248,430)" d="m0 0 10 1 2 4v26l-5 1-7-1z" fill="#082497"/>
<path transform="translate(1018,893)" d="m0 0h10l10 2 1 1v15l-7 1-13-2-1-1z" fill="#080708"/>
<path transform="translate(1865,713)" d="m0 0 2 3-5 5-8 7-14 7-12 3-57 1-37-1-13-2-8-3 2-1 12 2 14 1h83l12-2 14-6 10-8z" fill="#757576"/>
<path transform="translate(918,351)" d="m0 0h9l-2 4-3 7-1 164h-1l-1-136-2-2h-1v-35z" fill="#7B7C7C"/>
<path transform="translate(1192,398)" d="m0 0h1v200h-1l-1-48-1-28 1-123z" fill="#797A7A"/>
<path transform="translate(893,735)" d="m0 0v3l-15 1-11-1 5 7 1 8-6 9-6-1-4-6-1-8 6-10 4-1z" fill="#253B99"/>
<path transform="translate(677,725)" d="m0 0h47l3 2 1-1h10v1l-9 1-4 3-4-1-5 1 1 3 9 1-1 2h-6l13 23 9 15-1 3-4-5-17-29-5-7-6-1-12 1-1-1h-6v-1l19-4 3-2v-2l-34-1z" fill="#646566"/>
<path transform="translate(1679,723)" d="m0 0h42l-4 3-23 12h-3l-2-5-6-2-4-1z" fill="#090809"/>
<path transform="translate(1380,716)" d="m0 0h22l13 1-3 2-20 9-17 6-5 1 6-8 2-5z" fill="#080708"/>
<path transform="translate(1265,662)" d="m0 0 5 1v37l-1 13-1 2-4 1-1-1v-50z" fill="#313132"/>
<path transform="translate(1212,382)" d="m0 0 14 1 84 14 43 8 8 2v1l-13-1-51-9-74-12-11-1z" fill="#313132"/>
<path transform="translate(1314,681)" d="m0 0 3 1h-2v5l-4 6-5 10-2 5-1 23-6 3-2-2-2-12v-10l4 1v6l-1 3 2 1 2-13 5-12v-2l-4 2-4 7-2 4h-1v-6l5-6 7-8 6-5z" fill="#717272"/>
<path transform="translate(896,684)" d="m0 0h28l-1 4v-2h-2l1 6-5 3-8 1-8-4-6-1v-2l-7 1-5 2h-17l1-2 27-3h2z" fill="#717172"/>
<path transform="translate(937,577)" d="m0 0h1l1 16 2 5 3 7 1 13v6l-4 4h-2l1 3 22 1v1l-26 1v-51z" fill="#797A7A"/>
<path transform="translate(501,714)" d="m0 0 2 3-5 2h-62l-44-2-1-2h109z" fill="#7C7C7D"/>
<path transform="translate(851,682)" d="m0 0 13 1 6 2v3l-29 2h-14l-34-1-3-2 7-1h20l6 1 4-1v-3l14 1 10 1z" fill="#282829"/>
<path transform="translate(774,681)" d="m0 0h55l13 1 1 3-16-2v3l-5 2-5-1h-23l-1 1 3 2h-13v2h-8l-2-2 1-1 13-1v-4l-13-2z" fill="#7B7C7D"/>
<path transform="translate(986,630)" d="m0 0h29l17 1-2 2-6 1-38 1-12 11-15 15h-3l-2 4-10 9-3 3-2-1 12-13 11-9 19-19h2v-2h-11v-1l13-1z" fill="#777778"/>
<path transform="translate(962,384)" d="m0 0h8v6l-1 2h2l1-8h5l2 12-5 2-22 2-2-4v-10h4l-1 7-1 3 18-2-6-1-1-7-1 8h-7l1-9z" fill="#7F8080"/>
<path transform="translate(1704,958)" d="m0 0h14l5 6v5h-2l-1 3h-9l-1 4 13 1 1 2-1 2-10-1-11-1-2-3 1-5 5-3 5 1 4-1 1-4-3-1 1-1-4-1v4h-2v-2l-7 3 1-5z" fill="#78797A"/>
<path transform="translate(588,689)" d="m0 0 23 2 6 3 1 1v6l-1 1h-20l-5-4h-4z" fill="#0E0D0E"/>
<path transform="translate(651,658)" d="m0 0 9 1h62l16 1-4 4 1 2-6 5-2 2 1-5 5-6h-49l-11 1h-9-3l-1 10h-1l-1-12h-38l1-2z" fill="#919293"/>
<path transform="translate(1172,835)" d="m0 0h8l-5 4-7 2-2 7-5 4-6 1-3 3-7 2h-3l-1 3-9 2-7 1 5-5 14-7h3v-2l8-4 5-2v-3z" fill="#0C2289"/>
<path transform="translate(1282,660)" d="m0 0 6 3v25l-2 11-2 2h-4v-40z" fill="#313132"/>
<path transform="translate(395,679)" d="m0 0h43l-3 1v7l-7 1-3-1-8 1-17-2-2-5z" fill="#717172"/>
<path transform="translate(1674,955)" d="m0 0 14 1 4 5-1 6-3 2h-4l-2-4v-7h-3v7l2 1-1 4-4 1v-2h-3l3 3 6 1h9l1 4-3 2-1 5h-3l2-6 1-2-8 1-8-1-2-2 1-6 6-2-2-5-4 1 1-5z" fill="#6E6F70"/>
<path transform="translate(895,577)" d="m0 0h1l-1 13-3 14-4-2v-2h-2l-7-8-8-8v-1l16-1 7 2z" fill="#717272"/>
<path transform="translate(251,653)" d="m0 0h11l2 1h93v1l-21 1-72 1-1 3h-2l-1 5-3 6-3-1-1-4h-2l-2-5 3-4 6-2-7-1z" fill="#8A8B8C"/>
<path transform="translate(897,741)" d="m0 0 2 2v9h3v-5h3v4l2-1v-5l-5 1v-5h9v11h2l-1-6 1-5h10v14h-18l-7-2-1-3z" fill="#333334"/>
<path transform="translate(1243,415)" d="m0 0 15 1 27 4 3 1v12l-19-2-10-2 4-2 3-1 6 3h11l1-3v-3l-5-1h-15l-5-2-9-1-1 8h-6l-1-1v-9z" fill="#082496"/>
<path transform="translate(851,872)" d="m0 0h11v15l3 5-8 3h-12l-1-4 3-2h6l-2-4z" fill="#0F0E0F"/>
<path transform="translate(624,783)" d="m0 0h10l91 15 7 1v1l-12 1-90-15-6-2z" fill="#757576"/>
<path transform="translate(1647,600)" d="m0 0 3 4 3 13 1 13v10l-2 16-5 10-8 7-6 3-6 1v-3l14-7 5-6 3-9v-30l-2-17z" fill="#FCFCFC"/>
<path transform="translate(1390,728)" d="m0 0 2 1v3l5 1 24 1h16l2-2v5l-42 1 1 2v6l-1 2h8v1h-14l-3-2h2l-2-12v-5z" fill="#727273"/>
<path transform="translate(422,750)" d="m0 0h10l86 14 12 2 1 2h-10l-98-16z" fill="#818283"/>
<path transform="translate(841,818)" d="m0 0 13 1 46 8 11 2v1h-32l-22-2v-1l8-1-2-2-26-4z" fill="#656D74"/>
<path transform="translate(498,647)" d="m0 0 3 1v4h107v1l-41 1h-119l1-2 47-1z" fill="#DFDFE0"/>
<path transform="translate(1733,961)" d="m0 0 4 1-1 2h-2v12l2 1v-11l2-1 1 14 4-1 2-9h3v10l2-2-1-2v-9l-4-1-2-3 5-1 4 4 1 3v11l-2 3-7 1-9-1-5-5v-12z" fill="#898A8B"/>
<path transform="translate(895,712)" d="m0 0 29 1v9h-17l-12-1z" fill="#080708"/>
<path transform="translate(1928,967)" d="m0 0h5l-1 4h-3l-11 4-5 2-3 4v-3l-25 7-14 6-3 6-1-3 1-2-7 2-5-1 4-2 43-16z" fill="#797A7B"/>
<path transform="translate(916,608)" d="m0 0 4 1v51l-1 2h-2l-1-13-1-3-7-1 4-2 2-3 1-31z" fill="#383839"/>
<path transform="translate(99,718)" d="m0 0 9 1 4 1-1 6h-3v2l-5 2v69l-3-1z" fill="#737475"/>
<path transform="translate(695,735)" d="m0 0 2 1-1 2-27 7-59 16h-6v-2l63-17 20-6z" fill="#5F6061"/>
<path transform="translate(1436,708)" d="m0 0 147 1v2h-145l-3-2z" fill="#313132"/>
<path transform="translate(415,833)" d="m0 0h8l1 1 2 11 4 4v3h-22l3-5 3-4z" fill="#191819"/>
<path transform="translate(1036,776)" d="m0 0 3 2-25 10-19 7 7 1v1h-12l-7-1 2-3 16-4 4-4 21-8 4 1z" fill="#8D8E8F"/>
<path transform="translate(1053,691)" d="m0 0h66v1l-50 1 1 12-11-2-5-3-2-5z" fill="#474748"/>
<path transform="translate(611,850)" d="m0 0h9v14l3 1 1 4-5 2h-11l-2-3 3-5z" fill="#131213"/>
<path transform="translate(445,655)" d="m0 0h84v1l-7 2h-63l-16-1z" fill="#080708"/>
<path transform="translate(715,866)" d="m0 0h13l3 3-1 12-13-1-3-2v-11z" fill="#080708"/>
<path transform="translate(1242,428)" d="m0 0h12l7 1 2 3h-2l-1 2v-2l-12-2v32l2 1-4 1-1-1-1-8-2-5-1-8v-7l-1-3z" fill="#797A7A"/>
<path transform="translate(1439,703)" d="m0 0 1 3 77 2v1h-71l-51-1-14-1v-1h58z" fill="#AAABAC"/>
<path transform="translate(1729,585)" d="m0 0 2 1v79l-1 13h-1l-1-41v-51z" fill="#FDFDFD"/>
<path transform="translate(549,774)" d="m0 0 2 1v2l-62 17-17 4 2 2h-8l-4-2 51-14z" fill="#848586"/>
<path transform="translate(914,645)" d="m0 0 2 1 1 3v13l4-1 1 1 12 1 2 2-3 6h-2v2l-5 3h-3l-2-13-4 1h-16v-1h12v-16z" fill="#919293"/>
<path transform="translate(523,658)" d="m0 0h127v1l-30 1-74 1-52-1v-1z" fill="#747575"/>
<path transform="translate(466,719)" d="m0 0h40l9 1v1l-15 1-7 7-13 7-9 2h-41l-10-2-4-3 10 2 27 1 19-1 12-4 11-8 2-3h-31z" fill="#8B8C8D"/>
<path transform="translate(1817,818)" d="m0 0 5 1-5 4-14 9-8 5-1 3-44-2v-1h38l4-3h2l2-4 14-9z" fill="#3E3E3F"/>
<path transform="translate(126,807)" d="m0 0 1 2 7-1 5 3 1 13 2 2v10l-2-3-2-9-9-1-3-2-1-5z" fill="#414142"/>
<path transform="translate(567,653)" d="m0 0h46l2 4-35 1-16-1-1-3z" fill="#111112"/>
<path transform="translate(793,659)" d="m0 0h35l-1 2h-44v4l-29-1h-17l2-2 4-1 34-1z" fill="#909192"/>
<path transform="translate(1212,589)" d="m0 0 84 3 46 3v1h-16l-26-1h-33v-2l-35-1-18-1z" fill="#303031"/>
<path transform="translate(990,619)" d="m0 0h29v1h-28v2l5 1 2 1 80-1h21v1l-15 1-44 1-1 1h-23l-20-1-6-3z" fill="#717172"/>
<path transform="translate(588,815)" d="m0 0h10l8 1 51 4h11l1 1 9 1-2 2-24-1-19-2-46-3z" fill="#0C2C8E"/>
<path transform="translate(1317,681)" d="m0 0 5 1-2 1 1 4-8 8-6 10-1 27-1 1 8 1v1h-14v-3l4-1v-23l3-7 7-13 2-6z" fill="#909192"/>
<path transform="translate(529,654)" d="m0 0h34l1 2 26 2v1h-29l-38-1 1-2h5z" fill="#313132"/>
<path transform="translate(293,798)" d="m0 0 10 1v4h2l1-4h18v6l-4 2h-3v-2h-8l-1 1h-9v-2l-6 1-1-3z" fill="#828383"/>
<path transform="translate(659,707)" d="m0 0 26 1v7h-26z" fill="#080708"/>
<path transform="translate(1735,960)" d="m0 0 11 1-2 2 5 3 1 9 1 3-3 1v-10h-3l-1 9-5 1-2-13-1 11-3-1v-7l1-5h2z" fill="#BCBDBE"/>
<path transform="translate(868,683)" d="m0 0h6l-1 2 16 2v1l-22 3-5 2-22 1v-2l-2-1 3-2 13-1h16v-3h-2z" fill="#9B9C9C"/>
<path transform="translate(894,727)" d="m0 0 31 1v5l-32-1v-2h-25l-1-2z" fill="#434344"/>
<path transform="translate(265,794)" d="m0 0 19 1 5 2 1 6-7 3-3-4h-4l-4 1-2-1v-2l-5 1-1-6z" fill="#7B7C7D"/>
<path transform="translate(1257,435)" d="m0 0 3 3v22h-7l-2-7 2-15h2v-2z" fill="#0630A4"/>
<path transform="translate(929,330)" d="m0 0 3 1v5h-2v7l-1 4h10l1 2-7 3h-15l-1 1v34l2 1-3 1-1 4v-42l4-2 6-1 2-16z" fill="#AEAEAF"/>
<path transform="translate(1080,658)" d="m0 0 24 1 5 2-1 2h-46l2-3z" fill="#FDFDFD"/>
<path transform="translate(1485,778)" d="m0 0h61l11 1v2l-2 1h-29l-18-2-23-1z" fill="#B8B9B9"/>
<path transform="translate(249,654)" d="m0 0h12l-3 2-6 2-2 5 1 3h2l2 4h2l2-2-1 5-1 1h-7l-4-2-2-9v-2l-3 8h-1v-6l7-8z" fill="#797A7A"/>
<path transform="translate(1884,814)" d="m0 0h3l-2 4-8 7-16 11-19 13-6 4h-2v-6l1 2 16-10 6-4h2l1-3 12-7 6-5 5-5z" fill="#4B4B4C"/>
<path transform="translate(1034,735)" d="m0 0h1v38l29-9 10-2-2 3-17 7-10 3h-8l-3-1z" fill="#8E8F8F"/>
<path transform="translate(1923,717)" d="m0 0 4 1-9 6-23 13-24 14-14 8-3 2-3-1 11-7 6-3h2v-2l10-5 15-9 22-13z" fill="#4A4A4B"/>
<path transform="translate(476,844)" d="m0 0h12l1 1v11l-1 1-12-1-1-8z" fill="#080708"/>
<path transform="translate(1583,709)" d="m0 0h1v5l-2 1-50-2-17-1v5h-1l-1-6h70z" fill="#737374"/>
<path transform="translate(1095,762)" d="m0 0h16l65 2-4 1v2h-13l-43-2-21-2z" fill="#7D7E7F"/>
<path transform="translate(1713,785)" d="m0 0h15l118 5v1h-30l-3 1v-2h-16l-56-2-28-2z" fill="#838485"/>
<path transform="translate(1129,692)" d="m0 0h37v1l-9 1v14l-5 12h-1v-26l-22-1z" fill="#727373"/>
<path transform="translate(1789,890)" d="m0 0 3 1 1 51h-5z" fill="#080708"/>
<path transform="translate(847,677)" d="m0 0h34l-2 4-2 1h-9l-12-1-5 2h-5v-5z" fill="#747575"/>
<path transform="translate(740,777)" d="m0 0 3 1 8 14 7 10v6l-13-3-18-3-1-2h12l16 2-10-16-4-7z" fill="#5A5B5B"/>
<path transform="translate(1796,877)" d="m0 0 2 4 10-2 3-1h9l6 2v1h-6v2l-12 3-11 1z" fill="#0630A4"/>
<path transform="translate(1094,936)" d="m0 0 26 2 27 3v1h-39l-12 3-3 1v-2l3-3v-3z" fill="#4C4C4D"/>
<path transform="translate(358,793)" d="m0 0h30l9 2v1l-15 1-10 2h-8l-5-2z" fill="#112A94"/>
<path transform="translate(1303,693)" d="m0 0 3 1-3 10-3 9-1 8h-3l-1-2 2-8h-2l-2 9h-1v-11l1-8h1l1 5 2-5z" fill="#313132"/>
<path transform="translate(827,685)" d="m0 0 1 3 3-2h11l3 3-4 1h-14l-34-1-3-2 7-1h20l6 1z" fill="#0D2D8B"/>
<path transform="translate(362,701)" d="m0 0h20l-1 6 3 1h-23l-1-3z" fill="#0A090A"/>
<path transform="translate(636,721)" d="m0 0h30l40 1v1l-23 1v1l-24 1-13-1-3-1v-2h-7z" fill="#5B5B5C"/>
<path transform="translate(254,819)" d="m0 0 7 1v10l5 2v3h-14l-3-2 4-3z" fill="#151516"/>
<path transform="translate(1292,437)" d="m0 0 13 1 6 1v11l-2-3-16-2-1-1z" fill="#080708"/>
<path transform="translate(829,662)" d="m0 0h7l4 4 1-3h6l2 2v5l-10 1h-9l-1-1z" fill="#838485"/>
<path transform="translate(1319,449)" d="m0 0 13 1v11h-8l-5-2z" fill="#717172"/>
<path transform="translate(98,712)" d="m0 0 19 1 2 2v3h2v5l-4-3-19-2-1-5z" fill="#2547A6"/>
<path transform="translate(1172,765)" d="m0 0h33l28 1 14 1v1h-66l-9-1z" fill="#858687"/>
<path transform="translate(291,712)" d="m0 0h33l43 1 3 1v2h-13l-7-1-52-1-7-1z" fill="#797A7A"/>
<path transform="translate(842,827)" d="m0 0h15l19 2v3l3 2-3 1-2-1-1 2h-11l-1-5-18-2z" fill="#082296"/>
<path transform="translate(1272,431)" d="m0 0 12 1 6 2 1 1v10l15 2 3 3-3 1-14-2-1 8h-1v-11l-1-9-1 14h-1v-16l-19-2z" fill="#727373"/>
<path transform="translate(284,825)" d="m0 0h10l1 2v10h-12z" fill="#0B0A0B"/>
<path transform="translate(1146,726)" d="m0 0 2 2v10l-3 1-16-1 1-3 15-8z" fill="#2C2C2D"/>
<path transform="translate(354,615)" d="m0 0h1v17l-2 1h-24l-20-1v-2l44-1z" fill="#D2D2D2"/>
<path transform="translate(181,665)" d="m0 0 3 4 1 15h1l2 24h-4l-2-21-1-3z" fill="#132D7D"/>
<path transform="translate(241,676)" d="m0 0 4 1 4 6 12 6 5 1-1 2-3 1h-8l-8-5-4-5z" fill="#0E0D0E"/>
<path transform="translate(943,734)" d="m0 0h51l1 2-12 1h-25l-15-1z" fill="#909192"/>
<path transform="translate(1189,836)" d="m0 0h26l20 3v1l-8 1-2-1h-24l-6 1-8-1z" fill="#102994"/>
<path transform="translate(1288,432)" d="m0 0 26 3 18 3h3v2l-16-1-3 1v-2h-5v1l-13-1-6-1 1 8h-2l-1-10z" fill="#313132"/>
<path transform="translate(828,724)" d="m0 0 13 2 15 1-4 2h-24l-32-1v-2l29-1z" fill="#373738"/>
<path transform="translate(651,658)" d="m0 0 9 1h26v1h-25l-1 13h-1l-1-12h-38l1-2z" fill="#898A8B"/>
<path transform="translate(1026,944)" d="m0 0h2l1 4-7 4-1 6-14-2-6-2v-1l10-1z" fill="#1A1A1B"/>
<path transform="translate(1468,734)" d="m0 0h21l25 1v2l-4 1h-14l-27-1z" fill="#747475"/>
<path transform="translate(940,386)" d="m0 0 4 2 2 5-1 5-2 3h-6l-2-3v-7z" fill="#22439E"/>
<path transform="translate(1650,711)" d="m0 0 10 1 6 3h3v-2l8-1 4 1-1 3-29 2v5h-1z" fill="#717172"/>
<path transform="translate(1154,857)" d="m0 0m-1 1m-3 1h3v2l-29 15-6 2h-22l-13-1-3-2h11l12 1h13l11-4 16-9z" fill="#0D2D8E"/>
<path transform="translate(503,704)" d="m0 0h9l7 1v6l-1 1h-15l-1-3z" fill="#090809"/>
<path transform="translate(865,539)" d="m0 0h19l1 2h-2l-2 4-9 2-8-3v-4z" fill="#919293"/>
<path transform="translate(1674,955)" d="m0 0 14 1 4 5-1 6-3 2h-4l-2-4v-7h-3l-2 2v-3z" fill="#757676"/>
<path transform="translate(1611,713)" d="m0 0 7 1 3 3-1 5-5 3-5-1-2-2v-6z" fill="#8D8E8F"/>
<path transform="translate(1746,961)" d="m0 0 4 2 3 5v11l-2 3-7 1-9-1v-1l8-1 1-2h3v-9h1v10l2-2-1-2v-9l-4-1-2-3z" fill="#888989"/>
<path transform="translate(1615,751)" d="m0 0h6l4 4 8 1v1h-30l-37-1v-1l48-1z" fill="#313132"/>
<path transform="translate(897,741)" d="m0 0 2 2v9h3v-5h3v4l2-1v-5l-5 1v-5h9v12l-1 1-12-1-1-3z" fill="#39393A"/>
<path transform="translate(677,725)" d="m0 0h47l3 2 1-1h10v1l-9 1-4 3-4-1-7 2v-3h-2l-1-2-34-1z" fill="#838485"/>
<path transform="translate(1066,934)" d="m0 0h18l8 1v1h-8v5l-15-1-2-1z" fill="#39393A"/>
<path transform="translate(1794,876)" d="m0 0h2l1 11-1 1-1 55h9v1h-24v-1h14l-1-64z" fill="#828384"/>
<path transform="translate(171,639)" d="m0 0h7l4 4 3 11 2 14 3 40-3-1-1-11-1-27-2-13-3-12-1-3-8-1z" fill="#818686"/>
<path transform="translate(962,384)" d="m0 0h8l-1 9h-5l-1-7-1 8h-7l1-9z" fill="#717273"/>
<path transform="translate(531,767)" d="m0 0 11 1 16 2h4v3l3 1h-4l-1 3-6-1-4-1 2-2-25-4z" fill="#828283"/>
<path transform="translate(917,609)" d="m0 0 2 1v35l-1-2-4-1 1-7 1-25z" fill="#080708"/>
<path transform="translate(906,757)" d="m0 0h17l1 1v5l-4 1-14-1z" fill="#434344"/>
<path transform="translate(842,694)" d="m0 0h9l1 4-2 4 4 1-1 8-2-2-2-4-7-1z" fill="#080708"/>
<path transform="translate(1392,716)" d="m0 0h10l13 1-3 2-16 7-2-1-1-7z" fill="#313132"/>
<path transform="translate(918,351)" d="m0 0h9l-8 16-3 2v-16z" fill="#2C2C2D"/>
<path transform="translate(179,644)" d="m0 0h2l3 12 2 13v15l-2 1-1-16-2-4-3-20z" fill="#0C2A8F"/>
<path transform="translate(502,787)" d="m0 0h6v2l-36 9 2 2h-8l-4-2z" fill="#707071"/>
<path transform="translate(1436,708)" d="m0 0 77 1v1l-75 1-3-2z" fill="#313132"/>
<path transform="translate(928,850)" d="m0 0 5 1v23l-5-1z" fill="#8C8D8E"/>
<path transform="translate(902,645)" d="m0 0h9l1 5h-3l1 5-4 2-1 2-2-2-1-7-2-4z" fill="#0F0E0F"/>
<path transform="translate(1701,971)" d="m0 0 1 2 6-1 1 3 3 1 11 1 1 2-1 2-10-1-11-1-2-3z" fill="#9D9E9E"/>
<path transform="translate(1799,830)" d="m0 0 4 2-8 5-1 3-44-2v-1h38l9-6z" fill="#666767"/>
<path transform="translate(868,824)" d="m0 0 11 1 13 3-4 2h-9l-22-2v-1l8-1z" fill="#8B8D8E"/>
<path transform="translate(1682,743)" d="m0 0 2 1-2 2-1 9-1 1 12 1v1h-17l-7-1 5-5h2v-2l5-5z" fill="#727273"/>
<path transform="translate(1097,706)" d="m0 0h1v20l-1 10-1 1h-24v-1h23v-22l1-7z" fill="#313132"/>
<path transform="translate(1650,738)" d="m0 0 10 1-1 2-12 5 2 9-2 1-2-1-1-5v-7l4-4z" fill="#717172"/>
<path transform="translate(874,831)" d="m0 0 9 1-2 2 4 2 9 2-2 2-20-1-4-1v-2l9-2z" fill="#0C2B8E"/>
<path transform="translate(127,812)" d="m0 0h7l1 3v8h-6l-3-2-1-5z" fill="#111011"/>
<path transform="translate(196,701)" d="m0 0h22l4 2v1l-26 2-1-4z" fill="#313132"/>
<path transform="translate(1158,842)" d="m0 0h2v2l-11 6h-2v2l-19 9-8 4h-2v-2l16-8z" fill="#323132"/>
<path transform="translate(1644,952)" d="m0 0h4l1 3v19l-4-1-1-1z" fill="#878889"/>
<path transform="translate(422,750)" d="m0 0h10l30 5-3 2-11-1-25-4z" fill="#868687"/>
<path transform="translate(263,672)" d="m0 0 26 3h11l7 1v2l-26-1-17-1z" fill="#757576"/>
<path transform="translate(969,647)" d="m0 0h2l-2 4-10 10h-3l-2 4-10 9-3 3-2-1 12-13 11-9z" fill="#818182"/>
<path transform="translate(841,726)" d="m0 0h20l32 1v1l-25 1v1h-16l1-2-12-1z" fill="#7B7C7C"/>
<path transform="translate(1317,681)" d="m0 0 5 1-2 1 1 4-8 8-3 5-4 3 2-6 6-10 1-5z" fill="#919293"/>
<path transform="translate(971,856)" d="m0 0 4 1v15l-1 3-4 1v-19z" fill="#8E8F90"/>
<path transform="translate(601,760)" d="m0 0 6 1-4 2-27 7h-8l3-2z" fill="#707172"/>
<path transform="translate(1713,732)" d="m0 0 14 2 26 2v2h-19l-13-2-8-3z" fill="#767677"/>
<path transform="translate(886,564)" d="m0 0h3l-2 4-10 4-4 1h-9l-3 1-1-3 17-3z" fill="#797A7A"/>
<path transform="translate(960,329)" d="m0 0h5l1 1v15l-3 1-4-2 1-2h2l-2-10z" fill="#828384"/>
<path transform="translate(309,799)" d="m0 0h15v6l-4 2h-3v-2h-7l3-1z" fill="#777878"/>
<path transform="translate(1698,723)" d="m0 0h23l-4 3-7 4h-2v-2l-6-1z" fill="#313132"/>
<path transform="translate(391,715)" d="m0 0h37l2 1v2l-38-1z" fill="#727273"/>
<path transform="translate(725,679)" d="m0 0 4 1 45 1v1h-78v-1l28-1z" fill="#757676"/>
<path transform="translate(914,645)" d="m0 0 2 1 1 3v13l2 1-2 1h-16v-1h12v-16z" fill="#808182"/>
<path transform="translate(724,748)" d="m0 0 3 3 14 24-1 3-4-5-13-22z" fill="#686869"/>
<path transform="translate(812,813)" d="m0 0 16 2 12 2 1 2h-11l-24-4v-1z" fill="#515B72"/>
<path transform="translate(260,663)" d="m0 0h2l2 9-2-1v-2h-2l-1 6-1 1h-10l-5-3v-7l2-1 1 7 4 1h7z" fill="#717172"/>
<path transform="translate(1309,428)" d="m0 0h12l1 1v6l-6-1-9-2v-3z" fill="#313132"/>
<path transform="translate(919,366)" d="m0 0h1v24l-4-2v-19z" fill="#777878"/>
<path transform="translate(697,795)" d="m0 0h9l26 4v1l-12 1-21-4z" fill="#68696A"/>
<path transform="translate(881,740)" d="m0 0 3 1v10h-4v4h2v2l2 1h-3l-1 3h-2v-14z" fill="#353536"/>
<path transform="translate(1637,725)" d="m0 0h1v10l-2 4v-2h-30l-1-2 32-1z" fill="#8E8F8F"/>
<path transform="translate(1395,711)" d="m0 0 21 1 1 3h-24z" fill="#FDFDFD"/>
<path transform="translate(1644,683)" d="m0 0 9 3 6 7 2 8h-2l-5-6v-2l-3-1-7-8z" fill="#535354"/>
<path transform="translate(1253,416)" d="m0 0 11 1 21 3-3 2h-18l-5-2-5-1z" fill="#072598"/>
<path transform="translate(1674,972)" d="m0 0 8 1h9l1 4-3 2-1 5h-3l2-6 1-2-8 1-8-1-1-2h3z" fill="#7E7F80"/>
<path transform="translate(1704,958)" d="m0 0h14l1 4-9-1v4h-2v-2l-7 3 1-5z" fill="#727374"/>
<path transform="translate(1918,972)" d="m0 0h5l-3 2-7 3-3 4v-3l-17 5h-5l3-2 12-4z" fill="#646465"/>
<path transform="translate(1651,953)" d="m0 0h10l3 1v3l-10-1 1 2v6h-5v-10z" fill="#868788"/>
<path transform="translate(1393,736)" d="m0 0h28v1l-24 1 1 2v6l-1 2h-3l-1-6z" fill="#797A7A"/>
<path transform="translate(1739,965)" d="m0 0 4 2 2-1v9l-2 4h-4l-1-6z" fill="#FDFDFD"/>
<path transform="translate(876,823)" d="m0 0 24 4 11 2v1h-23l1-2-12-3z" fill="#767A7A"/>
<path transform="translate(711,729)" d="m0 0 2 4 1 3-18 1-1-1h-6v-1l19-4z" fill="#828384"/>
<path transform="translate(1314,709)" d="m0 0h6l3 3-1 4-4 2-5-1v-7z" fill="#49494A"/>
<path transform="translate(827,683)" d="m0 0 14 1 10 1v4h-6l-3-2h-11l-3 1z" fill="#2E3038"/>
<path transform="translate(1244,428)" d="m0 0h10l7 1 2 3h-2l-1 2v-2l-13-2v30h-1l-1-28z" fill="#8F9091"/>
<path transform="translate(879,739)" d="m0 0h8l1 23-3-1 1-8-3-1v-11h-2l-2 2z" fill="#747475"/>
<path transform="translate(276,797)" d="m0 0h7v3h2l1-3h3l1 6-7 3-3-4-4-2z" fill="#88898A"/>
<path transform="translate(796,688)" d="m0 0 10 2 21 1v1h-44v-2h13z" fill="#C3C4C4"/>
<path transform="translate(249,654)" d="m0 0h12l-3 2-9 4-5 5v-4l-3 8h-1v-6l7-8z" fill="#777878"/>
<path transform="translate(617,722)" d="m0 0 26 1v1l-22 1-5 5-6 5h-3v-2l10-7 1-2h-8v-1z" fill="#7C7D7E"/>
<path transform="translate(1842,997)" d="m0 0 2 1v8l-8 2v-2l4-2-6 1-4-3z" fill="#8B8C8D"/>
<path transform="translate(1928,967)" d="m0 0h5l-1 4h-3l-2 1-13 2-9 3h-5l3-2z" fill="#8E8E8F"/>
<path transform="translate(895,648)" d="m0 0h5v12l-6 1z" fill="#161617"/>
<path transform="translate(1167,622)" d="m0 0h1l1 10h-50v-1l48-1z" fill="#727373"/>
<path transform="translate(1393,710)" d="m0 0h20v1l-18 1-1 4-12-1v-3z" fill="#7F8081"/>
<path transform="translate(970,878)" d="m0 0h8l20 2 13 1v3l-19-2-21-2z" fill="#939495"/>
<path transform="translate(758,803)" d="m0 0 15 3v1l-11 1h-2l7 11-1 2-2-1-4-6-3-4z" fill="#5F6162"/>
<path transform="translate(996,790)" d="m0 0h4v3l-5 2 7 1v1h-12l-7-1 2-3z" fill="#898A8B"/>
<path transform="translate(499,763)" d="m0 0h13l18 3 1 2h-10l-19-3z" fill="#7F7F80"/>
<path transform="translate(626,753)" d="m0 0 6 1-3 2-19 5h-6v-2z" fill="#6E6F6F"/>
<path transform="translate(1344,698)" d="m0 0 4 2 5-1 7 1 1 4h-14l-2 4z" fill="#727373"/>
<path transform="translate(764,828)" d="m0 0 18 2 16 1v1l-12 1-32-3v-1z" fill="#0C2B8E"/>
<path transform="translate(564,705)" d="m0 0 23 1v2l-7 1h-15l-3-1v-2z" fill="#080708"/>
<path transform="translate(1884,814)" d="m0 0h3l-2 4-8 7-9 6-3-1 12-9 4-5z" fill="#49494A"/>
<path transform="translate(695,735)" d="m0 0 2 1-1 2-20 5h-5l3-3 13-4z" fill="#595A5A"/>
<path transform="translate(1342,595)" d="m0 0h19v3h-15l-16-1v-1z" fill="#6A6A6B"/>
<path transform="translate(913,741)" d="m0 0h10v12l-2-1v-10h-7l1 11 5 1v1h-15v-1l8-2-1-6z" fill="#808081"/>
<path transform="translate(272,689)" d="m0 0h24v1l-15 1-15 4h-9v-1l10-2z" fill="#747475"/>
<path transform="translate(827,685)" d="m0 0 1 3 3-2h11l3 3-4 1h-14l-4-2z" fill="#0D2D8E"/>
<path transform="translate(1290,445)" d="m0 0 16 2 3 3-3 1-14-2-1 8h-1z" fill="#717172"/>
<path transform="translate(624,783)" d="m0 0h10l18 3v2h-10l-15-3z" fill="#606061"/>
<path transform="translate(971,330)" d="m0 0 4 1v13l-4 1-1-14z" fill="#848485"/>
<path transform="translate(893,735)" d="m0 0v3l-15 1h-16v-2l4-1z" fill="#909192"/>
<path transform="translate(899,740)" d="m0 0h11v1h-8v5l5-1 1 5-3 1v-4h-3v5h-3z" fill="#8A8B8B"/>
<path transform="translate(1264,437)" d="m0 0h1v5l14 1 4 2v2l-12-1-7-1z" fill="#717172"/>
<path transform="translate(1762,1007)" d="m0 0h11l22 2h9l-4 4-2-1-28-3h-6z" fill="#58595A"/>
<path transform="translate(244,735)" d="m0 0 10 2v1h-6l-1 3-2-2-19-1-2-2z" fill="#919293"/>
<path transform="translate(963,385)" d="m0 0h1v8h7l-1 2-7 1h-11l1-5 2-1v4h7v-8z" fill="#FDFDFD"/>
<path transform="translate(1933,972)" d="m0 0h1v25l-2 3v-21l-3 2h-4v-2h4v-2h3z" fill="#B6B6B7"/>
<path transform="translate(1674,955)" d="m0 0 14 1-1 2 2 6-4 2-1-4-2 1v-5h-3l-2 2v-3z" fill="#B2B3B3"/>
<path transform="translate(734,899)" d="m0 0v3l-2 4 7 2v1h-10l-3-2v-5l2-2z" fill="#2B2B2C"/>
<path transform="translate(1871,860)" d="m0 0h5l-4 2-6 4-7 1-3-2v-2z" fill="#263B92"/>
<path transform="translate(975,855)" d="m0 0 19 1v1l-12 2-4 1-2-1 1 11-2 1z" fill="#304988"/>
<path transform="translate(897,730)" d="m0 0h24l4 1v2l-32-1z" fill="#575859"/>
<path transform="translate(499,717)" d="m0 0 40 2v1h-40z" fill="#313132"/>
<path transform="translate(828,711)" d="m0 0h12l-1 4-8 2-3 1z" fill="#080708"/>
<path transform="translate(581,687)" d="m0 0 5 1 1 1v14h-1l-1-10h-2v3l-4-1h2l-2-3v-4z" fill="#8C8D8D"/>
<path transform="translate(1268,629)" d="m0 0 4 1v5l-1 5-1 9-2 2z" fill="#717172"/>
<path transform="translate(1355,494)" d="m0 0h4v14l-4 1z" fill="#1E1E1F"/>
<path transform="translate(891,741)" d="m0 0h4v12h-5v-10z" fill="#313132"/>
<path transform="translate(195,703)" d="m0 0 1 3 2-1h11v1l-7 1 10 2v1h-17l-5-1v-1h5z" fill="#787979"/>
<path transform="translate(1366,699)" d="m0 0h7l6 1 1 4-8-1h-7v11l-2 1 1-13z" fill="#787879"/>
<path transform="translate(882,688)" d="m0 0h7l-2 3-6 1h-15l1-2z" fill="#7D7D7E"/>
<path transform="translate(1613,714)" d="m0 0h5l3 3-1 5-5 3h-3l2-5 2-2z" fill="#444445"/>
<path transform="translate(1650,711)" d="m0 0 10 1 5 4h-14v7h-1z" fill="#787979"/>
<path transform="translate(186,677)" d="m0 0h1l1 5 2 26-3-1-1-11z" fill="#7D8181"/>
<path transform="translate(842,827)" d="m0 0h15l13 1 2 2h-16l-13-1z" fill="#082394"/>
<path transform="translate(713,726)" d="m0 0h12 3 10v1l-9 1-4 3-4-1-5-1z" fill="#9B9C9C"/>
<path transform="translate(736,692)" d="m0 0h8l3 3-3 1h-17l3-3h5z" fill="#080708"/>
<path transform="translate(384,686)" d="m0 0h10l1 2-3 5-6-2-2-1z" fill="#080708"/>
<path transform="translate(853,663)" d="m0 0 7 1 1 6h-9v-6z" fill="#7D8080"/>
<path transform="translate(1645,663)" d="m0 0m-1 1m-1 1m-1 1m-1 1m-1 1 2 1-1 3-8 4-6 1v-3z" fill="#E5E5E5"/>
<path transform="translate(972,632)" d="m0 0h13l1 3-12 11-3 2v-3l10-10h2v-2h-11z" fill="#7A7B7C"/>
<path transform="translate(730,715)" d="m0 0h5v2h32l4 2-42-1z" fill="#313132"/>
<path transform="translate(1026,944)" d="m0 0h2l1 4-7 4-1 6-14-2v-1h10l3 1 1-7z" fill="#5D5D5E"/>
<path transform="translate(293,798)" d="m0 0 10 1 1 6-4-1-1-4h-2l-1 5-4-1z" fill="#919293"/>
<path transform="translate(868,683)" d="m0 0h6l-1 2 16 2v1l-7 1h-9l-5-4z" fill="#FDFDFD"/>
<path transform="translate(661,660)" d="m0 0h23v2l-11 1h-9z" fill="#919293"/>
<path transform="translate(645,748)" d="m0 0h7l-1 2-15 4h-6v-2z" fill="#5E5F5F"/>
<path transform="translate(856,680)" d="m0 0 21 1 3 1-4 2-8-1v2l-13-2-2-2z" fill="#8A8B8C"/>
<path transform="translate(1380,659)" d="m0 0h1v45h-1l-1-7-1-2 1-3z" fill="#BFC0C0"/>
<path transform="translate(181,665)" d="m0 0 3 4v15h-3z" fill="#171617"/>
<path transform="translate(832,825)" d="m0 0h11l11 1v1h-12v3h-3v-3l-5 2z" fill="#3B4C8E"/>
<path transform="translate(880,751)" d="m0 0 4 1 2 1v9h-5l-1-5h2v-2h-2z" fill="#BABABB"/>
<path transform="translate(864,663)" d="m0 0h5l2 2v5h-8v-6z" fill="#7E8181"/>
<path transform="translate(1275,395)" d="m0 0 5 2v2l3 1-1 1h-10l-2-1 2-4z" fill="#797A7A"/>
<path transform="translate(606,780)" d="m0 0h9l12 2v3l-16-2-5-2z" fill="#7B7C7D"/>
<path transform="translate(212,708)" d="m0 0h10l4 1-1 3h-11l-2-1z" fill="#8B8C8C"/>
<path transform="translate(793,810)" d="m0 0 11 1 8 2v1h-11l-13-2v-1z" fill="#595E60"/>
<path transform="translate(652,787)" d="m0 0 12 1 6 1v2h-10l-12-2z" fill="#6F6F70"/>
<path transform="translate(520,782)" d="m0 0h7l-1 2-15 4-5-1 3-2z" fill="#7E7F80"/>
<path transform="translate(906,757)" d="m0 0h8v6h-8z" fill="#5A5B5B"/>
<path transform="translate(1823,843)" d="m0 0 11 1 3 5h-2l-2 3v-5h-10z" fill="#858686"/>
<path transform="translate(1071,762)" d="m0 0 3 1-5 3-9 4h-3l1-4z" fill="#8A8B8C"/>
<path transform="translate(1063,692)" d="m0 0h15v1l-5 1-1 11h-2l-1-5v-7h-6z" fill="#080708"/>
<path transform="translate(1318,680)" d="m0 0 13 1 3 1h6l-4 3v2l-4-1-7-3-7-2z" fill="#797A7A"/>
<path transform="translate(1060,933)" d="m0 0h13v1l-6 1v4h-6l-1-1z" fill="#9F9FA0"/>
<path transform="translate(492,862)" d="m0 0h1l1 12-3 3v2l6 2v1h-7l-3-3 2-4 2-2z" fill="#5D5E5F"/>
<path transform="translate(1799,830)" d="m0 0 4 2-8 5-1 3h-6v-1h5v-2l-4-1z" fill="#7B7C7D"/>
<path transform="translate(1436,708)" d="m0 0h10l9 1v2h-17l-3-2z" fill="#2A2A2B"/>
<path transform="translate(565,770)" d="m0 0h7v1h-5v2l10 1-4 2-12-1 1-4z" fill="#838485"/>
<path transform="translate(1870,748)" d="m0 0h5l-4 3-14 8-3 2-3-1 11-7 6-3h2z" fill="#6A6B6B"/>
<path transform="translate(1288,432)" d="m0 0 12 2v2l-2 1h-6l1 8h-2l-1-10z" fill="#3A3A3B"/>
<path transform="translate(1745,969)" d="m0 0h2v9h-3zm-9 9 7 1 1 2h-10v-2z" fill="#7A7A7B"/>
<path transform="translate(1172,765)" d="m0 0h14l5 1v2h-10l-9-1z" fill="#8A8B8C"/>
<path transform="translate(281,675)" d="m0 0h19l7 1v2l-26-1z" fill="#7A7A7B"/>
<path transform="translate(831,663)" d="m0 0h6l1 1v6h-5l-2-1z" fill="#353536"/>
<path transform="translate(1645,952)" d="m0 0h3l1 3v10h-4z" fill="#777878"/>
<path transform="translate(1812,789)" d="m0 0 34 1v1h-30l-3 1z" fill="#808081"/>
<path transform="translate(559,769)" d="m0 0 3 1v3l3 1h-4l-1 3-6-1-4-1 6-3h3z" fill="#484949"/>
<path transform="translate(1064,658)" d="m0 0h7l-3 2-8 3-7 7 1-6 7-5z" fill="#757576"/>
<path transform="translate(1747,969)" d="m0 0h1v10l3-1v2l-2 2-5 1-9-1v-1l8-1 1-2h3z" fill="#919293"/>
<path transform="translate(1737,965)" d="m0 0h1l1 14-7 1v-3l2-1 2 1v-11z" fill="#828383"/>
<path transform="translate(1174,834)" d="m0 0 26 1v1l-11 1h-11z" fill="#4B5A8F"/>
<path transform="translate(960,827)" d="m0 0h3v14h-3z" fill="#919293"/>
<path transform="translate(740,777)" d="m0 0 3 1 8 14-2 2-8-13z" fill="#5D5E5E"/>
<path transform="translate(408,747)" d="m0 0 12 1 6 1-4 2-11-1-6-1z" fill="#8F9091"/>
<path transform="translate(1321,699)" d="m0 0 7 1 6 4-2 3-1 2-4-5-6-4z" fill="#535354"/>
<path transform="translate(872,684)" d="m0 0 24 1v2l-7 1-16-2z" fill="#898A8B"/>
<path transform="translate(875,663)" d="m0 0h5l1 1v6h-6z" fill="#808181"/>
<path transform="translate(953,662)" d="m0 0 3 1-13 12-4 2 6-8z" fill="#6B6B6C"/>
<path transform="translate(1298,455)" d="m0 0 14 1v5l-14-3z" fill="#767677"/>
<path transform="translate(1718,959)" d="m0 0 4 3-1 5-3 1-3-2 1-2-3-1 1-2h4z" fill="#9FA0A1"/>
<path transform="translate(1836,841)" d="m0 0 3 1v2h-2v2h2v2h-3l-2-3-8-1-1-2z" fill="#909192"/>
<path transform="translate(1680,748)" d="m0 0h1v7l-1 1 12 1v1h-17l1-4 3-2z" fill="#777778"/>
<path transform="translate(774,689)" d="m0 0h22v1h-13v2h-8l-2-2z" fill="#868788"/>
<path transform="translate(876,678)" d="m0 0h4l-1 3-2 1h-9l-11-1v-1l18-1z" fill="#777878"/>
<path transform="translate(951,385)" d="m0 0 3 1-1 13-3-1v-12z" fill="#5F5F60"/>
<path transform="translate(972,384)" d="m0 0h5v7l-6 1z" fill="#5E5E5F"/>
<path transform="translate(962,330)" d="m0 0h4v15l-3-1v-10z" fill="#4B4B4C"/>
<path transform="translate(1039,931)" d="m0 0 1 4-3 2h-7v5h-1v-7l9-3z" fill="#565657"/>
<path transform="translate(356,713)" d="m0 0h11l3 1v2h-13l-2-2z" fill="#717172"/>
<path transform="translate(841,663)" d="m0 0h6l1 1v5h-6z" fill="#39393A"/>
<path transform="translate(657,655)" d="m0 0 28 1v1l-26 1z" fill="#080708"/>
<path transform="translate(848,538)" d="m0 0 3 1-2 4-2 16-2-3 1-9 1-8z" fill="#0D2D8E"/>
<path transform="translate(894,729)" d="m0 0h31v2l-3 1-1-1h-26z" fill="#0B0A0B"/>
<path transform="translate(919,366)" d="m0 0 1 4-2 10h-2v-11z" fill="#717172"/>
<path transform="translate(1702,978)" d="m0 0h22l-1 3-10-1-11-1z" fill="#828384"/>
<path transform="translate(1721,964)" d="m0 0h2v5h-2l-1 3h-7l2-1 2-4h4z" fill="#848585"/>
<path transform="translate(1651,953)" d="m0 0h10l3 1v3h-6l-5-1-2-1z" fill="#808182"/>
<path transform="translate(1638,740)" d="m0 0 1 2 3 1 1 11-3-1-2-6z" fill="#080708"/>
<path transform="translate(857,685)" d="m0 0h8l4 2 1-2v3h-15v-2z" fill="#15338C"/>
<path transform="translate(725,679)" d="m0 0 4 2-3 1h-30v-1l28-1z" fill="#7D7E7E"/>
<path transform="translate(918,351)" d="m0 0h9l-2 4-2 1-5-1-2 1 1-4z" fill="#444546"/>
<path transform="translate(1866,989)" d="m0 0h4l-1 7-2 1 1-5-7 2-5-1 4-2z" fill="#545455"/>
<path transform="translate(1651,967)" d="m0 0h5v6l-5 1-1-3z" fill="#848485"/>
<path transform="translate(1673,956)" d="m0 0h5v8h-2l-1-3-4 1 1-5z" fill="#6A6A6B"/>
<path transform="translate(685,792)" d="m0 0 15 2-1 3-15-2z" fill="#818283"/>
<path transform="translate(1888,738)" d="m0 0 4 1-16 9-3-1z" fill="#4E4E4F"/>
<path transform="translate(378,686)" d="m0 0 4 1v13l-2-1 1-6-4-1z" fill="#C5C5C6"/>
<path transform="translate(266,656)" d="m0 0 10 2v1h-10v2h-2l-1 6-2-4v-3z" fill="#797A7A"/>
<path transform="translate(1009,859)" d="m0 0h23v1l-11 1-4 1-8-2z" fill="#253C90"/>
<path transform="translate(841,818)" d="m0 0 13 1v3l-11-1-6-1z" fill="#6F7981"/>
<path transform="translate(286,797)" d="m0 0h3l1 6-7 3-1-2h2l1-4z" fill="#838485"/>
<path transform="translate(573,775)" d="m0 0h10l7 1 1 2h-10l-8-2z" fill="#7C7C7D"/>
<path transform="translate(601,760)" d="m0 0 6 1-4 2-11 2-2-2z" fill="#777778"/>
<path transform="translate(1590,740)" d="m0 0 2 1v4l-28-1v-1h26z" fill="#353536"/>
<path transform="translate(902,741)" d="m0 0h8v5l-3-1-5 1z" fill="#272728"/>
<path transform="translate(303,797)" d="m0 0 13 1-2 2-8-1-1 4h-2v-4h-7v-1z" fill="#747475"/>
<path transform="translate(951,666)" d="m0 0m-1 1m-1 1m-1 1m-5 1 2 1-5 5v3h-4l2-4z" fill="#89898A"/>
<path transform="translate(1174,656)" d="m0 0h15v5l-2-2-13-1z" fill="#7E7F80"/>
<path transform="translate(1786,1025)" d="m0 0 3 1-1 7 5 2-2 2-5-2z" fill="#313132"/>
<path transform="translate(1704,958)" d="m0 0h14l1 4-15-3z" fill="#848485"/>
<path transform="translate(1884,814)" d="m0 0h3l-2 4-5 5h-2l2-6z" fill="#5B5B5C"/>
<path transform="translate(812,813)" d="m0 0 10 1 1 3-11-1-6-1v-1z" fill="#606D75"/>
<path transform="translate(900,757)" d="m0 0h4l1 5-1 1h-6z" fill="#535354"/>
<path transform="translate(840,685)" d="m0 0h11v4h-6z" fill="#3F3F40"/>
<path transform="translate(1314,681)" d="m0 0 3 1h-2v5l-6 9 1-6 2-3-1-3z" fill="#787979"/>
<path transform="translate(1249,428)" d="m0 0 12 1 2 3h-2l-1 2v-2l-11-2z" fill="#888989"/>
<path transform="translate(1440,985)" d="m0 0 4 1 1 5-1 1-1 2-3-1z" fill="#313132"/>
<path transform="translate(1863,830)" d="m0 0 4 2-10 7-2-1 2-3h2l1-3z" fill="#646465"/>
<path transform="translate(126,807)" d="m0 0 1 2 7-1 3 2v5l-2-4h-9z" fill="#787879"/>
<path transform="translate(750,793)" d="m0 0h2l6 9v6l-2-2-5-9z" fill="#39393A"/>
<path transform="translate(1054,767)" d="m0 0 4 1-1 3-12 4-3-1 8-3h3z" fill="#C9C9C9"/>
<path transform="translate(611,757)" d="m0 0h7l-1 2-7 2h-6v-2z" fill="#616162"/>
<path transform="translate(694,734)" d="m0 0h13l-2 2-9 1-1-1h-6v-1z" fill="#767677"/>
<path transform="translate(928,346)" d="m0 0 11 1 1 2-11 2z" fill="#707171"/>
<path transform="translate(1777,1025)" d="m0 0 2 1v10l-2-1-1-3v5l-2-4 1-4h2z" fill="#4A4A4B"/>
<path transform="translate(1449,979)" d="m0 0 5 3 4 8-2 2-3-5-4-6z" fill="#313132"/>
<path transform="translate(1688,974)" d="m0 0h4l-1 4-2 1-1 5h-3l2-6 1-2-2-1z" fill="#6A6B6B"/>
<path transform="translate(758,808)" d="m0 0h2l7 11-1 2-2-1-6-9z" fill="#676869"/>
<path transform="translate(315,801)" d="m0 0h8l-1 4-5 1-2-2z" fill="#919293"/>
<path transform="translate(447,798)" d="m0 0h12l7 1-3 2-12-1z" fill="#3B508B"/>
<path transform="translate(472,795)" d="m0 0h4v2l-4 1 2 2h-8l-4-2z" fill="#868888"/>
<path transform="translate(891,757)" d="m0 0h6v5l-4 1-2-3z" fill="#5B5C5D"/>
<path transform="translate(878,747)" d="m0 0 2 4v4h2v2l2 1h-3l-1 3h-2z" fill="#656566"/>
<path transform="translate(1832,734)" d="m0 0 3 1-2 2h-18v-1z" fill="#737374"/>
<path transform="translate(1786,1009)" d="m0 0h18l-4 4-2-1-12-2z" fill="#5E5E5F"/>
<path transform="translate(1918,974)" d="m0 0 2 1-1 6-4-1-3-2v-2z" fill="#3D3D3E"/>
<path transform="translate(1033,878)" d="m0 0 4 1-2 5 3 3-7-1v-2h2z" fill="#090809"/>
<path transform="translate(939,864)" d="m0 0h4v10l-5-1 3-3z" fill="#707071"/>
<path transform="translate(1350,699)" d="m0 0 10 1v3l-14-1 1-2z" fill="#797A7A"/>
<path transform="translate(1654,690)" d="m0 0 4 2 3 9h-2l-4-5z" fill="#1D1D1E"/>
<path transform="translate(1094,693)" d="m0 0h5l-1 11-2 2z" fill="#080708"/>
<path transform="translate(315,693)" d="m0 0h12l-1 3h-7l-4-2z" fill="#FDFDFD"/>
<path transform="translate(724,748)" d="m0 0 3 3 3 5-2 4-5-9z" fill="#6F6F70"/>
<path transform="translate(1342,738)" d="m0 0 3 1 4 8h-7l2-3-2-3z" fill="#7A7B7C"/>
<path transform="translate(99,686)" d="m0 0h1l2 17-3 1-1-6z" fill="#FDFDFD"/>
<path transform="translate(1337,612)" d="m0 0h7l-4 2-6 5-1-3z" fill="#6E6E6F"/>
<path transform="translate(977,390)" d="m0 0 1 4-1 1h-7l-1-3z" fill="#B3B4B4"/>
<path transform="translate(1053,916)" d="m0 0 2 1 1 14-3-1z" fill="#7F8080"/>
<path transform="translate(728,900)" d="m0 0h2l-3 6 12 2v1h-10l-3-2v-5z" fill="#676868"/>
<path transform="translate(531,779)" d="m0 0h7l-1 2-10 2-3-2z" fill="#828383"/>
<path transform="translate(677,739)" d="m0 0h7l-1 2-7 2h-5l3-3z" fill="#585859"/>
<path transform="translate(1294,445)" d="m0 0h10l6 2v4l-2-1-2-2-12-2z" fill="#313132"/>
<path transform="translate(1419,853)" d="m0 0 13 1 2 2h-9l-6-1z" fill="#0D2D8E"/>
<path transform="translate(624,783)" d="m0 0h10l5 1-4 2-8-1z" fill="#676768"/>
<path transform="translate(1672,712)" d="m0 0 9 1v2h-12v-2z" fill="#797A7A"/>
<path transform="translate(840,690)" d="m0 0h10l-4 3-6 1v-2l-2-1z" fill="#C3C3C4"/>
<path transform="translate(733,662)" d="m0 0 2 1v3l-6 5-2 2 1-5z" fill="#878889"/>
<path transform="translate(989,619)" d="m0 0 1 4 5 1 2 3-5-1-4 1v-4z" fill="#797A7A"/>
<path transform="translate(1354,595)" d="m0 0h7v3h-15v-1l8-1z" fill="#757576"/>
<path transform="translate(1265,426)" d="m0 0 7 3-3 2-10-2 4-2z" fill="#072599"/>
<path transform="translate(965,385)" d="m0 0h4v6l-4 1z" fill="#313132"/>
<path transform="translate(656,745)" d="m0 0 6 1-4 2-6 1-4-2z" fill="#6B6B6C"/>
<path transform="translate(1923,717)" d="m0 0 4 1-8 5-3-1 5-4z" fill="#424243"/>
<path transform="translate(1163,398)" d="m0 0h5v3l-3 1-8-1 2-2z" fill="#717172"/>
<path transform="translate(929,332)" d="m0 0 2 1-1 10-2 2v-12z" fill="#434546"/>
<path transform="translate(1803,1014)" d="m0 0 1 2-2-1z" fill="#B5B5B6"/>
<path transform="translate(106,701)" d="m0 0" fill="#FDFDFD"/>
</svg>
