<?xml version="1.0" encoding="UTF-8"?>
<svg version="1.1" viewBox="0 0 1296 1296" width="1280" height="1280" xmlns="http://www.w3.org/2000/svg">
<path transform="translate(675,166)" d="m0 0h40l30 2 29 3 36 6 33 7 33 9 36 12 52 19 21 8 17 7 20 11 17 12 10 9 5 10-1 13-1 7v16l5 19 9 19 8 16 10 28 8 28 8 33 8 43 5 37 2 24v54l-4 28-7 30-7 23-12 36-1 10v16l-4 17-5 12-10 13-6 7-5 15-6 26-5 30-5 10-6 4-19 4-38 5-24 7-47 17-49 19-37 15-40 16-30 13-34 15-30 13-25 11-36 15-26 11-43 16-34 11-27 7-23 5-30 4-41 4h-33l-43-4-31-6-55-14-25-8-24-9-33-16-14-9-10-8-8-9-5-11-1-4v-17l5-17 8-16 9-15 10-13 11-14 6-8 5-14 9-45 12-65 11-54 14-74 6-28 7-28 12-43 14-43 14-36 19-43 9-19 8-16 13-25 10-17 14-23 17-25 14-19 6-8 9-11 17-14 17-13 21-13 21-12 24-12 26-11 30-10 25-6 38-6 24-3z" fill="#3F3938"/>
<path transform="translate(391,267)" d="m0 0 2 1-4 4v2l2 1v2h2v2l3 1-1 7-10 17-6 11-14 25-9 15-6 11-11 19-6 11-5 8-6 12-5 9-16 28-12 24-6 11-15 28-6 9-3 8h4l2-6h2l1-5 4-3 4-7 8-6h2l-1 6-8 13-1 3h-2l-1 4-7 14-8 14-1 4 13 3h2l1-5 16-31 12-22 8-14 3-1 2-8 11-20 3-1 1-6 3-5h2l1-6 3-5h2l1-6 5-9 3-3 13-24h2l1-5 10-18 3-7 3-3 14-26 6-11 3-8 4-4 7-9 4-2h21l33 5 28 6 9 3 9 2-1 10-6 10-1 8 6-3 3-6 2-7 7-6 10 1 3 3v2l11 2h7l7 4 4 3v5l-7 1-15-2-6-3-5-1-5 2-1 3h-2l2 7 10 3 14 7 8 2v2h7l16 4 49 11 7 2 31 4-1 5 3-1 5-15 1-6-8-6-5-3v-13l-1-5 1-3 5 2 7 4 7 3 11 6 11 7 1 3-3 5-3 7-3 4h-2l-2 6-3 3-5 13-8 16-10 19-11 23-9 19-5 13-3 8-4 12-4 9-8 17-10 26-15 32-7 14-7 18-3 13-3 6-7-1-5 2h-8l1-9 6-21-2 4-7 23-5 13-5 11-3 6h-7l-7 3h-11l-13-5-26-6-16-4-7-3-10-1-11 3-8-1-3-4-1-4-2-5 8-20 3-6 2-10-5-2-6-2-13-5-36-12-7-3-15-3-9-3-13-3-9-2h-4v-2l-7 1h-6l-2 4h-2l3 3v3l-2 6-4 1 1-4h-2l-5 4-3 3 1-1 4 2 1 6 5 2 7 4 3 4 4 2 7 2 17 8 10 6 2 3-1 1h-9l-23-5h-11l-11 9-3 4v3h-2l-1 2h-2l-4 4-2 4-6 4-2 3v3l-4 4-3 1-1 6-3 2-3 10-5 21-1 13v5 3l-2 1v7h-2l2 5-1 4-1 3 1 3-2 1v10l1 1 1 10-1 5-2-2v4h-2l1 3-2 1-1 4-5 4-5 10-1 14v8l1 5-1-2h-2l1 12-2 4-2 1 1 2-3 5-1 4-2 1-3 6-2 3-1 5 1 3-4 1-1 12-1 6-3-1v3l2 1-4 4v3l-1 2-1 4v6l-4 4 1 3-5 10-6 24-2 11-2 12h-3l-1 2-2 2v10l1 9-3 11-2 2v4h-2l-1 6-3 1-1 8-1 9-1 2-6-2-15-8-13-9-10-9-6-9-4-11v-17l5-17 8-16 9-15 10-13 11-14 6-8 5-14 9-45 12-65 11-54 14-74 6-28 7-28 12-43 14-43 14-36 19-43 9-19 8-16 13-25 10-17 14-23 17-25 14-19 6-8 9-11z" fill="#6D6766"/>
<path transform="translate(675,166)" d="m0 0h40l30 2 29 3 36 6 33 7 33 9 36 12 52 19 21 8 17 7 20 11 17 12 10 9 5 10-1 13-1 7v16l5 19 9 19 8 16 10 28 8 28 8 33 8 43 5 37 2 24v54l-4 28-7 30-7 23-12 36-1 10v16l-4 17-5 12-10 13-6 7-4 12-1-2-13 2-3-3-2-7-2-4h-2l-5-5-1-5 3-12 5-9 3-5h2l1-3 4 8v19l2 4 4 3h11v-2l6-5 7-10 4-9 2-7v-9l-2-8-2-4-5-3h-14v-4h2l1-7 1-9-3-1-1-5 3-1v-5l-6-4-10-4-16-8-8-3-6-1-17-1-5-2-1-2v-13l4-24 2-21 3-19 2-21 2-9v-6l2-3 4-13 1 3-2 7-2 12v2l3-10 1-9 4-7v-7l5-5 4-7 4-6 6-6v-5l-3-1 2-2 6-2 2-5 4-2v-15l4-12 1-10 1-2v-10l-1-4v-9l-1-2-1-13-4-12-1-9-2-7-3-1-1-3-1-10-3-6-5-3-3-2h-7l-4-1v2l8 1 5 2 4 6 5 10 2 7-1 4-3-4-2-7-2-6-5-6v-3l-14-3v-2l-3-1-1 2-8 1-22 4-6-1-1 2h-12l-2-1-1 2h-8l-12 1h-17l-26-1-11-1-16-1-4-2-42-5-20-3-16-1-6-2-10-1-13 1-2 5-3 9-4 3h-2l-1 4-8 5-6 10-4 5h-2l-2 6-5 6-4 6-5 5-4 5h-2l-1 3-7 6-5 2-2-1-2 7-7 13h-2l-2 6-16 31-14 41-10 21-11 30-8 17-12 22-7 15h-2l1-8 4-10 1-4 2-1 1-3h2l3-9 2-4h2l1-6 5-11 3-5 2-6 8-20 1-6 6-18 3-1 2-5 4-9 5-17 7-15 8-16 4-2 2-10 3-5h2l2-8h2l1-7h2l3-10h2l1-6 4-7 4-11 5-11 6-12 4-11 6-12 2-9-3-3-7-4-16-11-15-10-14-9-7-5-3-9-4-2-13-5-16-6-9-6-12-6-12-5-17-6-8-3-22-7-16-4-26-4-29-2h-16l-20 2-21 4-13 4-5 1 5-5 14-11 14-10 27-16 27-14 24-11 28-10 26-7 26-5 45-6z" fill="#514A47"/>
<path transform="translate(831,726)" d="m0 0h11l18 2 2 4 3 1 5-3h7l11-3 6 2 1-2 1 1h8l12 2v2l5-1 7 1 10 4 6 6v9l2 7 3 12 6 4 10 3 6 4 8 11 6 7 2 1v2h2l2 5v4l4 1 6 3 10 2 11 4 4 2 1 4-6 11-3 6h-2l-1 7-2 5-8 9-12 7h-2v2l-9 5-2 4-10 7-7 5h-2v2l-19 9-11 2-13 2-7 3-15 1h-11l-10 1-13 2-21 2-5 1-20 2-14 3-38 7-4 2-7 1-7 3-20 6-8 3-4 1h-17l-7 2h-8l-5 5-8 3-3 2h-8l-3-3-2 1-5-2-4-5-3-3 2-3-4-5-2-6 1-2 7-2-1-3-2-2 5-5h2l2-13 2-4 1-8-5-5-1-7 5-5 2 9 3 4 3 5-1 11 1 3-3 7-1 18 3 10 6 1v-2l4-1 2 4 8-1 2-2 5-2 1-1h5l4 1 4-2h3l-2-5-4 3-2 1 1 2-4-2h-7l-6 2-1-5 3-1v-2h2l-1-6-10 4-4-1-3 3-4-2 2-6 5-8-1-5 2-4-5-5-2-5 1-5 1-2v-6l-1-4 3-5-6-3 5-10 1-4-4-2-4-4v-3l-2-1 1-2-5-2 2-6 8-6-1-2h-6l-2 2 2 1v-2h4v2l-3 2h-3v2l-4 1h3l-1 5-1 2h2v3h-2l-3-3v9l-5 5-1 3-4 1v-2h-5l-3 2v-2h-3v-11l-7 4-4-1-3-3 1-4-3-7-6-1v2l3-1-1 3-3 1h6l-4 4-1 3-4-1-1 7-1 3-3 3v4l-7-1-3-1v-2l-4-1v2h-2v5h-5l1-17h2l1-4 6-1-2-1v-2h-5v-12l1-3 2-35 2-19 1-1 26-3-2 6-5 9h2l1-2h3l6 1 2-5 8-11 3-2h3l-1 5-6 9-7 11-6 9v6l11 18 1 3h4l-3-8-8-13v-7l8-16 4-6 6-7 3-5 11-3 25-5 46-10 25-6h5l1 25h3v5h-2l-1 3-1-3v11l1-3h2l1 3 4-2 1-2-2-1h2l1-7 3-7 4 1 2 2h2v-2l-4-1v-6l-2 2-5-1 2-3 4-2v-4l-5 2v-4l7-1 3 5 8-1 3 1 9-1v-2l18-2 3-8-1-3 9 2h3l1-3 7-2 8 1 2 1 1-2 17 1 5 6v5l-4 8h-2l1 4 3 1 2-1 7 1v-3-7l-5 1-1-5 1-2-3-6-4-4-5-1h-10l-8 1 2-2h-6l-5 2-12 2-13 1-1 3-10-1-7-1-6 2-5-2 1-3h25l7-2 14-1 10-1v-2z" fill="#504946"/>
<path transform="translate(675,166)" d="m0 0h40l30 2 29 3 36 6 33 7 33 9 36 12 52 19 21 8 17 7 20 11 17 12 10 9 5 10v7h-1l-2-7-3-1v-2l-16-3-59-7-2-1-28-3-4-1-26-2-25-1h-17l-23 3-21 6-11 4-16 8-13 8-12 9-10 8-8 7-5 5-8 7-7 2-18-2-14-3-9 1-7-3-11-1 2 4 8 7 5 4 6 2v2l7 2v2l5 2 5 3 5 2h2l2 3 1 8 7 1 4 4-2 7-6 11-2 1-1 4-4 3-3 6-4 3-1 5-9 3-1 6-6 11h-2l-3 9-16 32-7 16-14 27-14 41-10 21-11 30-8 17-12 22-7 15h-2l1-8 4-10 1-4 2-1 1-3h2l3-9 2-4h2l1-6 5-11 3-5 2-6 8-20 1-6 6-18 3-1 2-5 4-9 5-17 7-15 8-16 4-2 2-10 3-5h2l2-8h2l1-7h2l3-10h2l1-6 4-7 4-11 5-11 6-12 4-11 6-12 2-9-3-3-7-4-16-11-15-10-14-9-7-5-3-9-4-2-13-5-16-6-9-6-12-6-12-5-17-6-8-3-22-7-16-4-26-4-29-2h-16l-20 2-21 4-13 4-5 1 5-5 14-11 14-10 27-16 27-14 24-11 28-10 26-7 26-5 45-6z" fill="#6D6766"/>
<path transform="translate(425,310)" d="m0 0 14 1 13 2 11 3 11 2 5 1 2 4-1 4-5 2h-4l2 5 11 6 8 5 1 7-7 10-3 5h-2l-2 5-11 15-2 5-3 5 2 10 5-1 6 3 3 2 12 1 52 16 2 1-1 5-6 11-2 7-1 1h-10l-1-1v-6l2-2-9-3h-4l-2 7-1 1-9-1-1-5 3-3h2v-2l-9-3-7-1-1 5-3 3-6-2-1-4 3-6-5-1-2-4h-2l-3 3-5 1-2 5-9-2v-2l-2 2v2l-5 1-6 1 9 4 3 2v10l3-3 6-3h7l20 7 9 2 19 2 12 3 7 3 3 3 13 4 16 3v2h2l4 8 6 5 9 1 3 3 4 8 1 23-5 18-3 10-5 13-12 22-5 7h-2l-1 3-4 4h-2l-2 4-5 4-6 3-4 3-8 1-6-3-2-5-14-1-11-5-9-2-16-7-5-4-9-2-9-5h-8l-7-3-4-3-14-4-8-1-2 1-6 15-4 7h-2l-1 3-5 1-10-4v-7l7-12 4-9-1-5-6 1-4 4-6 15-4 8-2 1h-9l-26-7-19-5-29-6-9-2-2-1 1-7 14-27 12-22 10-18 5-12 10-17h2l1-6 3-5h2l1-6 3-5h2l1-6 5-9 4-2 6-10 6-9 9-18h2l2-6 5-9 10-16v-2h2l1-4 6-12 10-17 3-4h2v-3z" fill="#BEB8B5"/>
<path transform="translate(1062,352)" d="m0 0 3 1 8 16 9 24 8 26 9 36 8 42 5 34 3 33v54l-4 28-7 30-7 23-12 36-1 10v16l-4 17-5 12-10 13-6 7-4 12-1-2-13 2-3-3-2-7-2-4h-2l-5-5-1-5 3-12 5-9 3-5h2l1-3 4 8v19l2 4 4 3h11v-2l6-5 7-10 4-9 2-7v-9l-2-8-2-4-5-3h-14v-4h2l1-7 1-9-3-1-1-5 3-1v-5l-6-4-10-4-16-8-8-3-6-1-17-1-5-2-1-2v-13l4-24 2-21 3-19 2-21 2-9v-6l2-3 4-13 1 3-2 7-2 12v2l3-10 1-9 4-7v-7l5-5 4-7 4-6 6-6v-5l-3-1 2-2 6-2 2-5 4-2v-15l4-12 1-10 1-2v-10l-1-4v-9l-1-2-1-13-4-12-1-9-2-7-3-1-1-3-1-10-3-6-5-3-3-2h-7l-4-1v2l8 1 5 2 4 6 5 10 2 7-1 4-3-4-2-7-2-6-5-6v-3l-14-3v-2l-3-1-1 2-8 1-22 4-6-1-1 2h-12l-2-1-1 2h-8l-12 1h-17l-26-1-11-1-16-1-1-2 28 1 33 1 28-1 21-2 24-4 26-6 6-2 16-5 10-3 5-3z" fill="#514A47"/>
<path transform="translate(441,438)" d="m0 0 8 2 3 2v10l3-3 6-3h7l20 7 9 2 19 2 12 3 7 3 3 3 13 4 16 3v2h2l4 8 6 5 9 1 3 3 4 8 1 23-5 18-3 10-5 13-12 22-5 7h-2l-1 3-4 4h-2l-2 4-5 4-6 3-4 3-8 1-6-3-2-5-14-1-11-5-9-2-16-7-5-4-9-2-9-5h-8l-7-3-4-3-14-4-8-1-2 1-6 15-4 7h-2l-1 3-5 1-10-4v-7l7-12 4-9-1-5-6 1-4 4-6 15-4 8-2 1h-9l-26-7-19-5-29-6-9-2-2-1 1-7 14-27 12-22 10-18 5-12 10-17h2l1-6 3-5h2l-1 5-9 17h-3l-2 5-2 4-2 7-6 12-6 10-7 14-10 19-8 15v5l26 5 39 10 7 2h10l3-3 5-13 5-10 6-1v-2l-3-1 4-2 7-8 11-23 12-22h2l2-6 8-17 8-15 6-11 3-6z" fill="#9A8CEB"/>
<path transform="translate(455,252)" d="m0 0h16l29 2 30 5 18 5 23 7 25 10 7 3 6 3 12 7 12 5 16 6 6 4 4 7 1 3 11 7 14 9 12 8 4 4-5-2-28-17-17-10-14-8-16-8-18-6-13-6-11-4-10-4-18-6-19-5-10-3-7-3-12-2-17-1-7-1h-10l-31 3-17 2-11 3h-6l-3 2h-6l-1 5 4 4-1 5 4-2 7-4 21-5 7-1 25-1 19 1 24 4 33 8 17 6 11 4 13 6 8 3 17 9 21 7 8 3 12 5 16 8 19 11 6 4-4 1-12-7 1 15v6l8 5 5 4-2 10-5 11-4 3 1-6-20-3-10-1-13-3-38-9-18-4-10-2v-2l-8-1-14-7-10-4-2-3v-4h2l1-4 6-2 8 3 6 2 18 1-1-5-7-5-9-1-7-1-5-2-3-4-10-2-1 2-4 4h-2l-2 10-4 5-5 1-1-5 5-10 2-3 2-10-9-1-17-5-26-5-27-4h-21l-5 3-8 11h-2l-3 10-16 30-5 8-3 3-4 10-8 14-1 3h-2l-2 6-10 18-5 6-4 8-1 4-3 3-3 8-3 3-3 8-3 3-11 20-2 6-4 4-9 17-12 22-14 27-1 3-3 1-12-3-1-4 7-11 6-11 5-11h2l1-4 8-14 1-4-6 4-4 2-5 10h-2l-2 5h-2l-1 4-3 3-3-1 4-9 9-16 12-21 14-28 9-16 12-22 8-14 3-6 8-13 7-14 10-16 6-12 9-15 9-16 6-11 10-17 1-7-2-1v-2h-2v-2l-3-1 2-4 5-6 11-4 18-4 17-3z" fill="#3F3938"/>
<path transform="translate(309,581)" d="m0 0h13v2l4-1 9 2 13 3 9 3 15 3 15 6 26 8 11 5 9 2 6 4v6l-3 8-4 9-5 14 3 5 1 5 5 2 8-1 9-2 12 2 3 3-2 1-9-2-5 1h-8l-5 2h-7l-6-4-3-5-2-2h-14l-11-1-4-2-3-5-4-1-14-1-14-3-4-1v-2l-5 1-11-3-5-1-5 3-3 5h-2l-2 4-6 10-6 9-4 11-6 14-5 6-4 12-3 6-1 7-4 15-2 10-1 11-2 9v8l1 8v5l1 5v7l-4 14v16l-2 8-5 4-4 6h-5l-6 10-6 17-3 9-3 15-1 19v9l1 5-3 5h-3v6l-7 8-1 7-3 7-2 18-3 9v7l-3 17v6l5 13 5 4 2 7 3 3 1 4 2 3-1 5 1 4 4 4 13 3 1 3h3v2l-17-4-25-8-24-9-17-8 1-12 2-8 2-1 3-7 1-8h2l2-8-1-9v-10l2-5 5 1 1-15 2-8 7-27 4-8-1-3h2l1-2 1-5v-6l3-2-2-1 3-6 1-1v-3l3-1v-10l2-6 4-1-2-4 3-8 4-6h2v-5l3-5-1-2 4-2v-7l-1-4 1-3 2-1-1-2v-15l2-9 4-8 6-6 2-6h2l-1-5 2 1 1-4-1-9-1-4v-7l3-1-3-3 1-4h2l-1-8h2l-1-7 2-2-1-5 1-2 1-13 6-26 4-8 1-3 3-4h3l3-5v-3l7-6 2-1 2-5 5-3 2-1 2-4 5-6 8-6h11l23 5h9l-5-5-17-8-7-4-7-2-5-3-1-3-5-2-7-4-1-6h-2l-1 2-1-4v2l-2-1 4-4 7-5 1 3-2 3 4-1 1-6v-2l-2-1v-3h2l1-4z" fill="#514A47"/>
<path transform="translate(675,166)" d="m0 0h40l30 2 29 3 36 6 33 7 33 9 36 12 52 19 21 8 17 7 20 11 17 12 10 9-1 2-10-1-21-5-10-3-11-1-9-3-17-5-16-6-2-2-14-3-12-5-21-7-17-4-5-2-9-2-4-2-9-2-20-7-20-5-18-5-12-2-11-2-39-2h-27l-40 1-32 1-26 3-17 4-21 7-11 4-17 4-20 7-10 3-27 9-7 3-11 3-25 3-14 3-16 3-16 5-3-1 14-11 14-10 27-16 27-14 24-11 28-10 26-7 26-5 45-6z" fill="#8E8886"/>
<path transform="translate(339,985)" d="m0 0 12 1 10 4v2l4 2 4 5 12 20 11 14 3 2v2l4 1 10 6 9 3 17 3 35 3h35l17-1 24-4 24-6 9-2 5-2 11-2 7-3 12-2 2-2 18-4 1-1 12-1 1-2 5 1v2l-12 6-9 4-35 15-25 10-17 7-27 9-13 4-23 6-18 4-16 3-24 3-14 1h-67l-26-3-9-3v-3l-3-1-4-11-7-10-1-4h-2l-4-6-7-7-7-11-4-13v-7l4-9 7-8 14-6 19-3z" fill="#6D6766"/>
<path transform="translate(871,259)" d="m0 0h17l38 2 13 1 21 3 11 1 2 1 59 7 16 4v2l4 1 1 1v12l-2 12-10 1h-10l-10 2-9 1v2l-34 9-9 2-15 1-17 3-15 1h-52l-20 2-12 1-17 2-10 3-9 1-12 4-17 4-16 5-6 2-4-1 5-3 12-3 17-6 17-4 6-3 14-3 19-5 9-1 10-1h48l25-2 7-1 21-1 17-2 22-6 11-2 7-2 9-2 16-1 4-1-10-2 2-2-3 2-4 2-6 2h-13l-4 3-15 3-36 6h-12l-23 2-18 2-16-1-7-1-9 1-4-1h-11l-12 1-6 2h-6l-9 3-17 5-16 4-18 6-12 6-11 3-1 1-13 2-2-1v-5h2v-2h2l2-4 4-7 3-1 8-10 5-6 5-5 3-1 1-2h2v-2h2l1-3 6-1 2-5 4-2 3-3 5-3 7-5 4-2 5-1v-2l5-2 3-1 1-3 24-8 14-3z" fill="#3F3938"/>
<path transform="translate(810,492)" d="m0 0 9 3 2 2-1 5 4 2v3l15 2 7 6 5 3 1 2 15 2 8 5-1 4-6 1 2 2 6 1 3 2 1 8 10 2 8 9 1 7-4-1h-9-4l-4 1-5 7-4 8-5 13-3 10v17l4 12 5 8 5 3-1 4-11 4h-17l-8-4-9-10-8-16v-3-3l-4-2 1 10-3-2-2-10-3-1 1-16-1 8v11l3 16 1 5h2l6 11 4 4 3 5h-7l-10-7-6-7-4-6-5-5-7-8-7-7-6-3-2-5 3-9h-2v-2l-8-1h-16l-20 5h-6l-4-3-13-3h-6l-2 1-2 3-2 2h-5l-5-5-4 2-3-1 1-2 5-1 1-2 3-3v2h5l-1-3-2-2 2-7 10 2 7 1v-6l9-4h5v-6l12-6 1-5h4v2l4 1 2-8 9-2 4-1 1-6 1-4-5-1v-3l6-2 6-1-2-6 3-3 2-3 5 1h7l5 3v-2l5-2 3 3v-5l4-5 2-6 4-3 1-5z" fill="#24201F"/>
<path transform="translate(1092,514)" d="m0 0 3 1 11 22 4 18 1 2v16l1 5-1 10v19l-1 9-1 13-3 13-6 22-3 8-3 9-2 12-8 28-1 5v8l2 1-1 10v16l-4 17-5 12-10 13-6 7-4 12-1-2-13 2-3-3-2-7-2-4h-2l-5-5-1-5 3-12 5-9 3-5h2l1-3 4 8v19l2 4 4 3h11v-2l6-5 7-10 4-9 2-7v-9l-2-8-2-4-5-3h-14v-4h2l1-7 1-9-3-1-1-5 3-1v-5l-10-7-8-4-6-4v-2h-3v-2l-5-2-7-4-5-3-9-5-4-6v-17l7-22 7-10 4-9 4-8 9-5 8-7 3-5 7-4h2v-2l3-2 3-11 2-3-1-9 3-7 4-7h2v-11l3-11 3-6 6-3 9-1z" fill="#6D6766"/>
<path transform="translate(881,537)" d="m0 0 9 4 8 7 4 7 2 1 2 4 10 4 3 5v5l5 10v-2l-2-6h2l3-3 3 1 2 7 2 1 2-6 5-4h5l1-4 3-1v2h2l1 2 6 1 3 7 3 3 2 17v23l-5 26-10 23-6 12-4 5-5 4h-2l-2 4-2 2-10 3-4 3-6 2-16-1-14-4h-8l-16-3-16-1-8-2-10-3v-3l10-5 4-6 5-3 4-4h2l-2 5h-2v2l-3 2-3 7-2 2-1 3 5-2 2-5 5-5 5-3 2-7 2-8-5-2-5-1v-2l-9-1-4-2v-2h-3l-5-5-1-3-3-1-5-9v-2h-2l-4-13-1-8v-11l2-10h1l-1 18 3 1 2 10 1 1v-9l5 2-1 5 7 12 3 6 7 8 8 4h17l11-3v-4l-6-4-6-12-2-7v-17l4-13 5-12 7-12 3-3 6 1 1-1h9l3 1-2-7-6-7-6-4-3-3z" fill="#504946"/>
<path transform="translate(419,308)" d="m0 0h21l33 5 28 6 9 3 9 2-1 10-6 10-1 8 6-3 3-6 2-7 7-6 10 1 3 3v2l11 2h7l7 4 4 3v5l-7 1-15-2-6-3-5-1-5 2-1 3h-2l2 7 10 3 14 7 8 2v2h7l16 4 49 11 7 2 31 4-3 8h-2l-1 5-5 10-3 9-1 2h-2l-2 5-8 16-4 6-21-7-32-8v-2l-7-1-17-5-11-2-17-5-9-1 8 3-4 1-32-10-10-3-12-1-6-4-5-1-4 1-2-11 5-9 6-9 7-10 1-2h2l2-5 7-10-1-7-11-6-8-5-1-5 9-3-1-5-8-3-10-1-9-3-13-2-14-1-8 5h-3v3l-4 4-10 17-6 12-6 11-7 11-6 10-2 5h-2l-1 5-6 10-6 11-6 9-3 3 2-6 11-20h2l1-5 10-18 3-7 3-3 14-26 6-11 3-8 4-4 7-9z" fill="#92775F"/>
<path transform="translate(744,742)" d="m0 0h5v14l-1 15-1 31-1 8-2 2-31 6-12 2-5 2-18 4-22 3v2l-2 2 2 1v-2h4v2l-3 2h-3v2l-4 1h3l-1 5-1 2h2v3h-2l-3-3v9l-5 5-1 3-4 1v-2h-5l-3 2v-2h-3v-11l-7 4-4-1-3-3 1-4-3-7-6-1v2l3-1-1 3-3 1h6l-4 4-1 3-4-1-1 7-1 3-3 3v4l-7-1-3-1v-2l-4-1v2h-2v5h-5l1-17h2l1-4 6-1-2-1v-2h-5v-12l1-3 2-35 2-19 1-1 26-3-2 6-5 9h2l1-2h3l6 1 2-5 8-11 3-2h3l-1 5-6 9-7 11-6 9v6l11 18 1 3h4l-3-8-8-13v-7l8-16 4-6 6-7 3-5 11-3 25-5 46-10z" fill="#F8F8F8"/>
<path transform="translate(1041,324)" d="m0 0 7 1 5 5h2l7 17 2 5-3 9-8 4-19 6-9 2-6 2-21 5-24 4-21 2-29 1-32-1-31-2-42-5-30-5-23-4-27-6-2-2 5-3 22-2 16-2 19-1 20-2 29-2h26l21-1h17l14 1h16l12-2 28-4 12-2 7-1 16-8 8-5 9-3z" fill="#6D6766"/>
<path transform="translate(358,940)" d="m0 0 10 2 9 5 3 3 5 10 7 31 2 14 10 18 8 8 9 5 4 2 17 3 18 4v1l-15-1-15-3 14 3 16 2 4-2 22 2 5 3 1-2h29l3-1h6l2 1 1-2 10-1 5-2 9-1 6-3h7l3-2 6-2 4-1 5-2h5l5-2 1-1 18-6 10-3 2-1h6v-2l5 1 1-3 7-1 4-1 3 1 9-4 10 2-2 4-14 7-5 1-2-2-4 1-12 2-7 2-12 3-2 2-16 3-3 2-11 2-5 2-16 4-27 6-14 2-20 1h-33l-34-3-20-4-12-5-5-4-3-1v-2l-4-2-8-10-5-6-5-10-7-11-5-4v-2l-10-3-12-1-16 6-19 3-15 7-5 6-4 9v8l3 8v4l2 1 7 11 8 8 1 4h2l3 5 8 13 2 7 4 2v2l7 2 10 1v1h-9v3l10 2v1l-15-1-22-4 2-1v-2l2-1-1-2h-7l-2-2-12-2-1-3-3 1-10-4-6-4-1-3-4-2-5-5 3-5-1-8 1-4-1-14v-20l3-17 5-7h2v-2h2l2-4 10-6 14-3 9-3 12-5 5-5 5-3 7-5 5-1 2-4 8-4z" fill="#504946"/>
<path transform="translate(441,438)" d="m0 0 8 2 3 2v10l3-3 6-3h7l6 2-1 8-1 1-1 9-2 3-4 14-3 6h-2l-1 5h-2l-1 4-1 9 1 10 2 3-3 5-2 5-1 1 7 3 4 4-1 6-2 4v2l5 2 2 2 10 4 1-2 1 4 11 1h19l4 3 10 3 5 1 7-3 4 1 1-3h3v-2l7-1v-2l4-1 1-4 3-1-2 11-2 3h-2l1 3-5 8h-2l-2 7-3 5-4 8-1 7-2 2-11-1-13-2-8-4-10-3-10-4-20-10-13-5-13-4-7-3-16-4-10-1-8-5-4-6-5 2h-7l-3-3 5-2 6-7 11-23 12-22h2l2-6 8-17 8-15 6-11 3-6z" fill="#A194E4"/>
<path transform="translate(431,442)" d="m0 0h6l1 2-2 8-5 9-9 17-10 21h-2l-2 6-8 14-10 21-6 9-4 4-3 2-10-1-27-9-19-6-13-4-1-5 4-10 6-10 6-11 2-1 4-8h2l1-4 6-8 4-3h2l2-5 7-9h2l1-3h2v-2l8-5 6-2 5-2 21-1 19-1z" fill="#CDC7E7"/>
<path transform="translate(675,166)" d="m0 0h40l30 2 29 3 36 6 33 7 33 9 36 12 52 19 21 8 17 7 20 11 6 4 2 6-7 1-5-2-7-3v-2l-9-3-7-3v-2l-6-1-22-11-15-5-12-5-10-3-4-2-9-2-25-8-6-3-6-1-13-4-9-3-14-3-12-3-5-1-12-2-1-1-18-2-12-2-18-1-21-2-59-1-15 1-33 1-34 4-19 4-8 3-14 5-9 4-10 2-12 5-10 4-11 5-25 10-16 8-11 6-10 5-15 4h-6v2l-18 5-9 2 5-5 17-13 21-13 21-12 24-12 26-11 30-10 25-6 38-6 24-3z" fill="#9C9491"/>
<path transform="translate(408,299)" d="m0 0 15 1 37 6 16 3 9 2 16 3 23 5 5 2h4v2l12 1v2l6 1 3-1 2 1v2l5 1v2l9 1 6 2v2l18 4 3 1v2l8 2 31 12 13 6 16 6 12 5 1 3-3 1-18-6-9-2-5-1v2l5 1 2 1v2h5l11 5-2 1v2l-4 1-1 3-2 1h-14l-13-3-38-9-18-4-10-2v-2l-8-1-14-7-10-4-2-3v-4h2l1-4 6-2 8 3 6 2 18 1-1-5-7-5-9-1-7-1-5-2-3-4-10-2-1 2-4 4h-2l-2 10-4 5-5 1-1-5 5-10 2-3 2-10-9-1-17-5-26-5-27-4h-21l-5 3-8 11h-2l-3 10-16 30-5 8-3 3-4 10-8 14-1 3h-2l-2 6-10 18-5 6-4 8-1 4-3 3-3 8-5 4-7 12-6 10-7 12-4 7-10 19-8 15-10 19-7 13-8-1-1-3 8-16 13-23 8-14 6-10 8-16 16-30 12-22 15-28 13-23 9-15 13-22 14-27 8-14z" fill="#24201F"/>
<path transform="translate(309,581)" d="m0 0h13v2l4-1 9 2 13 3 9 3 15 3 15 6 26 8 11 5 9 2 6 4v6l-3 8-4 9-5 14 3 5 1 5 5 2 8-1 9-2 12 2 3 3-2 1-9-2-5 1h-8l-5 2h-7l-6-4-3-5-2-2h-14l-11-1-4-2-3-5-4-1-14-1-14-3-4-1v-2l-5 1-8-2v-3h13l-5-5-17-8-7-4-7-2-5-3-1-3-5-2-7-4-1-6h-2l-1 2-1-4v2l-2-1 4-4 7-5 1 3-2 3 4-1 1-6v-2l-2-1v-3h2l1-4z" fill="#504946"/>
<path transform="translate(422,320)" d="m0 0 12 1 7 3 16 7 10 4 6 3 5 5-1 7-11 9-13 15-9 7-7 5v8l6 4 2 9 5 2 1 4h-3v2l-5 1-10 1-5 3-5 5-6 1-15-3h-8l-16-4h-12l-2 2-3-1 2-4 3-1 2-10 4-6 6-14 12-17 6-12 5-8 6-12 7-11 3-3z" fill="#CBC7C5"/>
<path transform="translate(228,605)" d="m0 0 1 3h3v2l7-1 10-4h7v13l-2 11-3 12-5 13-4 5-3 1-5-5-3-5-5-1-2 2v3l-3 15v5 3l-2 9v8l-2 13-1 9v12l1 11-1 15-3 10-2 2-6 21-1 17v9l-3 17-5 22-2 9-5 11-5 12-4 10-8 32-5 13-8 16h-2l-2 6-3 1-1 4h-2l-1 3-2 2-8 6-2 2-6 1-4-1 1-7 4-9 2-7 2-6 1-5 12-17 13-16 6-9 5-17 8-40 12-65 11-54 14-74 6-28z" fill="#8F8886"/>
<path transform="translate(332,454)" d="m0 0h2l-1 5-9 17h-3l-2 5-2 4-2 7-6 12-6 10-7 14-10 19-8 15v5l26 5 39 10 7 2h10l3-3 5-13 5-10 6-2 10-2 3-1 5 8 6 3 14 2 18 5 6 3 14 4 20 9 5 3 6 3 11 4 9 3 7 3 15 2h6l1-1 2-10 5-9 4-8h2l2-6 2-3v-2h2l2-9 5-12 5-8 4-9v-6l-4-6-1-7-4-1-2-5-1-17 1-12 1-2 7 1v2h2l4 8 6 5 9 1 3 3 4 8 1 23-5 18-3 10-5 13-12 22-5 7h-2l-1 3-4 4h-2l-2 4-5 4-6 3-4 3-8 1-6-3-2-5-14-1-11-5-9-2-16-7-5-4-9-2-9-5h-8l-7-3-4-3-14-4-8-1-2 1-6 15-4 7h-2l-1 3-5 1-10-4v-7l7-12 4-9-1-5-6 1-4 4-6 15-4 8-2 1h-9l-26-7-19-5-29-6-9-2-2-1 1-7 14-27 12-22 10-18 5-12 10-17h2l1-6z" fill="#8B80AA"/>
<path transform="translate(469,260)" d="m0 0h14l8 1 20 2 10 3 9 3 5 2 8 2 18 5 17 6 8 4 11 4 10 4 19 7 22 12 22 13 26 16 10 5 8 6 5 3 2 3-3 10-6 12-5 13-6 11-3 3h-2l-3 3 2-10 3-4 5-11 3-5 6-13v-3l-7-4-6-2-14-8v-2l-5-2-13-8-10-6-17-8-15-5-10-4-16-6-17-9-13-5-8-3-17-7-23-6-17-4-24-4-22-1-22 1-17 3-13 4-6 4-4 1 1-6-4-4 2-5h6l1-2 6-1 9-2 10-2 33-3z" fill="#231F1E"/>
<path transform="translate(484,316)" d="m0 0 9 1 17 5 9 2-1 10-6 10-1 8 6-3 3-6 2-7 7-6 10 1 3 3v2l11 2h7l7 4 4 3v5l-7 1-15-2-6-3-5-1-5 2-1 3h-2l2 7 10 3 14 7 8 2v2h7l16 4 22 5v1l-10-1-10-2h-15l-8 4-5 5-8 4h-3l-1 3-7 3-6 1h-6l-12 5-13 6-3-2v-8l-8-1-5 3-5 5-3 2-5-1-1-1 1-7 16-28 9-14 2-5-1-6-2-5 2-5 3-1 3-4-2-6-1-2-10-3-7-1z" fill="#75675D"/>
<path transform="translate(628,767)" d="m0 0h3l-1 5-6 9-7 11-6 9v6l11 18 1 3h4l1-2 4 6h8l11-2h5l-2 3 2 1v-2h4v2l-3 2h-3v2l-4 1h3l-1 5-1 2h2v3h-2l-3-3v9l-5 5-1 3-4 1v-2h-5l-3 2v-2h-3v-11l-7 4-4-1-3-3 1-4-3-7-6-1v2l3-1-1 3-3 1h6l-4 4-1 3-4-1-1 7-1 3-3 3v4l-7-1-3-1v-2l-4-1v2h-2v5h-5l1-17h2l1-4 6-1-2-1v-2h-5v-12l1-3 2-35 2-19 1-1 26-3-2 6-5 9h2l1-2h3l6 1 2-5 8-11z" fill="#504946"/>
<path transform="translate(1012,701)" d="m0 0h10l13 3 13 7 2 3h-2l-1 2-10-4-5 2-5 9-5 2-7 1-5 2v2l-5 5-6 10-2 8v2l5-1 1-2 7-3 8 4 8 7 5 7-2 4-2 1-14-4-6-3h-5l-5 9 1 5 3 1 1-2 4 4v2l5 1 3 4v12l3 4v2l9 2 4 1v2h3l1 6-3 2-10-1-7-3-3-1-1-5-2 1-1 2-5-2-6-2-2-2v-5h-2l-1-4-4-2-3-2-1-7-1-3-1-5-2-4-9-5-2-9 2-17 7-11 3-7 4-6 9-10 14-8z" fill="#231F1E"/>
<path transform="translate(306,516)" d="m0 0 1 3-1 6-1 4 3 5 16 5 35 11 8 3 12 2v2l-6 2-4 9-6 15-3 2h-10l-34-9-26-6v-2l-7-1-3-4 2-5 3-3 3-7h2l1-6 9-16z" fill="#CAC6C4"/>
<path transform="translate(213,674)" d="m0 0h1l1 11-1 11-2 6 2 1-3 11v16l1 1v20l-6 15-3 4-1 6-3 9v25l-1 17-3 9-3 16-6 17-3 5-5 13-5 18-4 15-2 9-4 10-5 11-4 1-1 5h-3l-2 5-3 1v2h-3l-2 4-4 2-3-1-2-4 2-9 2-6 1-5 12-17 13-16 6-9 5-17 8-40 12-65 11-54z" fill="#9C9491"/>
<path transform="translate(366,418)" d="m0 0h12l17 4 4 1 14 7 11 3 5 2 13 2-2 7-3 4v-5l-9 1-11 2-34 2h-6l-8 3-8 4-3 1v2l-5 4-8 11-5 5h-2l-2 5-4 4-1 3h-2l-2 5-2 4h-2l-2 6-10 17-3 10-1 2-3-5 1-4 2-12 3-5 6-12 3-4 6-11 2-4h2v-2h2l2-7h2l1-7 4-8 3-1 1-6h2l2-5 7-11 3-6h2v-3l5-2z" fill="#C3BCD7"/>
<path transform="translate(1033,734)" d="m0 0 9 2 7 4 1 5h21l6 4 3 6 1 6v9l-4 12-7 11-7 8h-2v2l-9 1-4-2-4-4-1-2v-20l-3-6-1 2h-2l-2 5-6 11-2 10 1 2h-2l5 5 1 3h2v2l-6-2v-2h-5l-5-5-1-3v-10l1-2h2v-2l8-4 2-3h2l3-9-1-4-4-2-8-10 2-5 5-9z" fill="#403A39"/>
<path transform="translate(455,252)" d="m0 0h16l29 2 30 5 18 5 23 7 25 10 7 3 6 3 12 7 12 5 16 6 6 4 4 7 1 3 11 7 14 9 12 8 4 4-5-2-28-17-17-10-14-8-16-8-18-6-13-6-11-4-10-4-18-6-19-5-10-3-7-3-12-2-17-1-7-1h-10l-31 3-17 2-11 3h-6l-3 2h-6l-1 5 4 4-1 5-2 1v-6l-2-1v-2h-2v-2l-3-1 2-4 5-6 11-4 18-4 17-3z" fill="#403A39"/>
<path transform="translate(419,308)" d="m0 0h21l33 5 10 2 5 3 14 3 4 2 3 6-2 4-5 5-1 5 3 5-1 7-6 10-8 13-7 12-6 11v5l1 1h7l2-1h8l3 2v2l10 3 7-1h11l2 1v2l5 2 4 3 5 2-3 1-9-1 8 3-4 1-32-10-10-3-12-1-6-4-5-1-4 1-2-11 5-9 6-9 7-10 1-2h2l2-5 7-10-1-7-11-6-8-5-1-5 9-3-1-5-8-3-10-1-9-3-13-2-14-1-8 5h-3v3l-4 4-10 17-6 12-6 11-7 11-6 10-2 5h-2l-1 5-6 10-6 11-6 9-3 3 2-6 11-20h2l1-5 10-18 3-7 3-3 14-26 6-11 3-8 4-4 7-9z" fill="#A79F9C"/>
<path transform="translate(914,587)" d="m0 0 5 3 4 9v10l-6 16-4 7h-2l-4 8h-2v2l-9 2-13 1-16 9-11 2h-8l-9-4-2-4-8-7-7-11-3-6v-6l3 1 9 17 7 8 8 4h17l13-5 1-2-5-4-6-9-1-4 2-4 4-1v-2h2l1-5 4-2h2 4l2-6 11-7 8-4 5-5v3z" fill="#6D6766"/>
<path transform="translate(364,596)" d="m0 0h11l5 2 14 3 16 5 4 4 5 2v7l-5 11-3 10-7 8h-14l-7-6-5-5-8-5-11-8-5-6-5-3-3-3-3-2 1-4 15-4 2-5z" fill="#3F3938"/>
<path transform="translate(675,166)" d="m0 0h40l30 2 29 3 36 6 33 7 33 9 15 5-4 2-17-6-32-8-12-2-6-3-13-1-14-3h-10l-5-1-16-2-17-1-19-1-4-1h-50l-20 2h-11l-19 2-6 2-15 1-9 2-1 1-18 3-9 3-9 2-8 3-12 3-12 4-9 5-7 2-7 3-8 4-7 3h-4v2h-2v2l-8 2-1 2-8 4-7 3-8 5-8 4h-4l-2 4-5 2-1 4-11 4-10 2 5-5 15-11 28-17 29-15 24-11 28-10 26-7 26-5 45-6z" fill="#ABA3A0"/>
<path transform="translate(703,730)" d="m0 0 2 1-5 3-1 2h-5l-1 2-1 1 6-1 9-5 8-1 2-1 12 2h5l1 3 5 1-2 3v2l2 2-52 12-50 10-1-5-14-2-3-2-5-2-3-1v-2h-2l-1-4 5-2h8l1-3-2-1 1-1h6l3-3 16 3 23 1 21-7z" fill="#454240"/>
<path transform="translate(369,356)" d="m0 0 3 2-1 4-9 16-8 13-10 19-12 22-9 16-7 14-12 22-9 17-10 18-14 24-8 15-1 5 8 1 15-30 6-10 5-10 8-15 5-9 12-20 8-13 1 2-2 6-3 3-11 20-2 6-4 4-9 17-12 22-14 27-1 3-3 1-12-3-1-4 7-11 6-11 5-11h2l1-4 8-14 1-4-6 4-4 2-5 10h-2l-2 5h-2l-1 4-3 3-3-1 4-9 9-16 12-21 14-28 9-16 4-7 1 2-7 14-5 8-6 13 7-2 1-4 8-12h2l2-6 3-1v-3h2l1-4 3-5h2l2-7 5-6h2l1-6 5-10 3-7h2l1-6 3-1 7-14 4-9 6-10 2-3z" fill="#504947"/>
<path transform="translate(1021,291)" d="m0 0h5l-1 2-6 2-16 2-14 4-16 4-17 1-30 1-10 2-33 1-17-3h-17l-17 3-17 6-15 6-19 5-14 7-10 3 4-4 3-2 4-4 16-9 6-3 10-2 3-2 11-3 15-6 17-2 30-1 5-1 7 1h23l20-1 30-1 16-1 12-3h7v1l13-1z" fill="#44413F"/>
<path transform="translate(580,689)" d="m0 0h24l11 2 11 4 8 7 5 3 3 1v2l3 1 5 5 1 4-5 4-6 2h-3l-2-1v2l-9 1-5 1-14 1-7-3-2-3-6-3-4-5-5-3-3 3-1-4 2-14 3-3 6-1 16 3 11 5 6 2 11 7 8 6 2 2 1 3 1-5-5-4v-2l-6-2-10-6-12-6-6-2-10-2h-11l-6 1v9h-1v-10z" fill="#504946"/>
<path transform="translate(722,359)" d="m0 0 6 1 6 2 3 3-2 7-6 11-2 1-1 4-4 3-3 6-4 3-1 5-9 3-1 6-6 11h-2l-3 9-16 32-7 16-14 27-14 41-10 21-11 30-8 17-12 22-7 15h-2l1-8 4-10 1-4 2-1 1-3h2l3-9 2-4h2l1-6 5-11 3-5 2-6 8-20 1-6 6-18 3-1 2-5 4-9 5-17 7-15 8-16 4-2 2-10 3-5h2l2-8h2l1-7h2l3-10h2l1-6 4-7 4-11 5-11 6-12 4-11 6-12 2-8h2z" fill="#6D6766"/>
<path transform="translate(540,1064)" d="m0 0 6 1 1 2-9 1v2l-12 3-10 4-22 6-31 6-24 3h-19l-4-2-1-10 9-4 12-2 26-2 5-1 20-1 29-2h6l12-3z" fill="#8E8887"/>
<path transform="translate(418,666)" d="m0 0h5l1 4h-2l1 7 5 5h5l3 2h5l1-7-1-3 2-2h12v-2h-12l2-2h11 4l16 2 24 6-1 6 2 4-6 7-2-4-5-1-7-3-1-2-10-3-2-3-7 1-3-1-3 2v6l1 7v5l1 4-5 1-4-3 1-5-2-1h2v-7l-3 2-1 5h-6l-4 4h-2l-3-5-1-5-4 1-1 5h-2v3l-5-2-5 2-5-5-2-5-3-1 1-8 4-4h2l1-6h7z" fill="#44413F"/>
<path transform="translate(423,280)" d="m0 0h14l14 1 10 2 2 4v-2l4-1 3 2 6 3 3-1 9 6v4 3h1v-4l4 2 1 4-7 2h-8l-5-1h-9l-15-3-14-1-15-2h-17l-2-1v2l-3 1v-6l2-4h2v-2h2l2-4 6-3z" fill="#504946"/>
<path transform="translate(332,454)" d="m0 0h2l-1 5-9 17h-3l-2 5-2 4-2 7-6 12-6 10-7 14-10 19-8 15v5l26 5 39 10 7 2h10l3-3 5-13 5-10 6-2 10-2 3-1 5 8 12 5 9 3v1h-8l-2 1-6 15-4 7h-2l-1 3-5 1-10-4v-7l7-12 4-9-1-5-6 1-4 4-6 15-4 8-2 1h-9l-26-7-19-5-29-6-9-2-2-1 1-7 14-27 12-22 10-18 5-12 10-17h2l1-6z" fill="#948A84"/>
<path transform="translate(519,326)" d="m0 0 2 1 1 4 3-4 10 1 13 4 18 5 25 10 11 5 10 3 7 2 5 4-1 4-11-1-1-4-6-2-8-5 2 3v3l-10 1-4-1v-2l-6 1-2-1h-6v5l-3-1 1-5-4-1-1 4-4 3h-2v4l14 3 16 5 9 2v1l-10-1-16-4-7-1v-2l-8-1-14-7-10-4-2-3v-4h2l1-4 6-2 8 3 6 2 18 1-1-5-7-5-9-1-7-1-5-2-3-4-10-2-1 2-4 4h-2l-2 10-4 5-5 1-1-5 5-10 2-3z" fill="#3E3837"/>
<path transform="translate(1047,301)" d="m0 0 4 1v4l-10 1h-10l-10 2-9 1v2l-34 9-9 2-15 1-17 3-15 1h-52l-20 2-12 1-17 2-10 3-9 1-12 4-17 4-16 5-6 2-4-1 5-3 12-3 17-6 17-4 6-3 14-3 19-5 9-1 10-1h48l25-2 7-1 21-1 17-2 22-6 11-2 7-2 9-2 16-1 4-1z" fill="#3F3938"/>
<path transform="translate(228,605)" d="m0 0 1 3h3v2l7-1 10-4h7v13l-2 11-3 12-5 13-4 5-3 1-5-5-3-5-5-1-6 3-2 3v-7l6-27z" fill="#8E8887"/>
<path transform="translate(471,424)" d="m0 0 3 1 3 4 4 1-1 4-1 5 6 2h2l2-7h7l9 4v2l-4 3v4l9 1 3-8 7 1 6 2v3h-2l1 6 2 2h-3l3 3 10 4 7 5 8 3 6 1v1h-7l-13-4-4-4-9-3-17-3-18-2-18-7-4-1h-7l-3 2h-3l-1 3h-2l-1-10-9-4-4-3 13-1-1-3 3-1v2l9 1 2-5 7-1z" fill="#8A7FAA"/>
<path transform="translate(514,323)" d="m0 0 5 1-1 10-6 10-1 8 6-3 3-6 2-7 7-6 10 1 3 3v2l11 2h7l7 4 4 3v5l-7 1-15-2-6-3-5-1-5 2-1 3h-2l2 7 10 3 14 7 8 2-3 2-11-4-8-4-9-4-4-2v-2l-3-1v-2h-7l-6 2-1 5-7 14-5 9-2 1-1 4-8 12-8 7h-3l1-5 9-16 15-23 4-8v-12l1-3 4-4 4-6v-4z" fill="#514A47"/>
<path transform="translate(410,607)" d="m0 0 5 1 13 5 6 2 5 3v6l-3 8-4 9-5 14 3 5 1 5 5 2 8-1 9-2 12 2 3 3-2 1-9-2-5 1h-8l-5 2h-7l-6-4-3-5-2-2h-14l-9-1-4-4v-2l10-4 7-6 3-7 4-15v-9l-7-3z" fill="#504946"/>
<path transform="translate(982,639)" d="m0 0h2l1 3v16l-2 19-1 5-1 18-2 8v6l5-2h3v-2l4-1-10 10-5 9-3 5-6 3-2 2h-2l-4-8-4-6 1-5 6-7 5-20 3-7 4-16 2-12 5-16z" fill="#231F1E"/>
<path transform="translate(655,393)" d="m0 0h18l-1 4-1 3h-2l-1 5-5 10-3 9-1 2h-2l-2 5-8 16-4 6-24-8-3-2v-2h2v-2l8-6 12-3 1-4 4-9h2l2-9 2-1 2-6z" fill="#978B82"/>
<path transform="translate(1008,300)" d="m0 0h10l-3 3-6 1-4 3-15 3-36 6h-12l-23 2-18 2-16-1-7-1-9 1-4-1h-11l-12 1-6 2h-6l-9 3-17 5-8 2h-5v-2l5-2h6l4-2 10-4 4-3 14-4 11-3 14-1 15 2 10 1h14l14-1 10-2h26l4-1h10l23-4 12-2 11-2z" fill="#44413F"/>
<path transform="translate(703,362)" d="m0 0 5 2 5 3-1 6-7 14-3 5-5 10-3 9 2-2 5-2-3 8-5 13-4 7-1 4h-2l-2 8-1 2h-2l-1 7h-2l-1 6-4 5-3 6-2 1-2 3-2-3-4 1-2 7-3 1 1 3-3 6-2 5-3-1 5-10 2-10 7-14 9-19 10-19 9-19 5-11 5-8h2l6-12 2-6-7-5z" fill="#403A39"/>
<path transform="translate(490,319)" d="m0 0 9 1 7 3 3 6-2 4-5 5-1 5 3 5-1 7-6 10-8 13-7 12-6 11v5l1 1h7l2-1h8l3 2v2l10 3 7-1h11l2 1v2l5 2 4 3 5 2-3 1-9-1 8 3-4 1-32-10-10-3-12-1-6-4-1-2-3-1-1-7 6-10 11-16 4-7 4-5 5-9-2-5-5-4-2-5 7-5 3-1v-8l-5-1z" fill="#988D85"/>
<path transform="translate(482,416)" d="m0 0h12l30 8 20 6-1 6-3 6-3 2h-6l-6-3-16-4-15-5h-5l-2 5-5 1-1-4 2-5-6-4v-5z" fill="#FCFCFC"/>
<path transform="translate(204,721)" d="m0 0h1l4 17-1 11-2 7-3 7-6 13h-2v41l-3 20-5 18-6 18-2 1-1 4-3 6h-2l5-28 9-47 7-38 9-44z" fill="#A9A19E"/>
<path transform="translate(468,406)" d="m0 0 7 2 4 3 12 1 52 16 2 1-1 3v-2l-17-4-25-7-8-2h-12l-4 3v5l6 4-2 7v2l5-1 1-5 1-1 7 1 15 5 14 3 6 3h6l2-1-3 10-1 1h-10l-1-1v-6l2-2-9-3h-4l-2 7-1 1-9-1-1-5 3-3h2v-2l-9-3-7-1-1 5-3 3-6-2-1-4 3-6-5-1-2-4h-2l-3 3-5 1-2 5-6-1v-8l6-9 2-4 3-5z" fill="#C8C4C2"/>
<path transform="translate(653,337)" d="m0 0h4v5l1-3 6 1 7 4-2 1 1 15v6l8 5 5 4-1 2-7-4-10-4-1-2-5-1-3-3-6-1-5-3-10-3-10-4v-2l-4-1-1-3 5-2 11-1 15-3z" fill="#514A47"/>
<path transform="translate(1066,748)" d="m0 0h6l4 5 3 5v9h-2v8l-5 11h-2l-1 4-3 4-5 6-9 2-3-1-4-6-1-7 3-7 6 4 9-1 4-7 1-9-2-4-5-2-5-1-1 3-2-3 3-3 3-5h2v-2z" fill="#231F1E"/>
<path transform="translate(461,446)" d="m0 0 2 1-8 11-4 6-7 15-6 9-8 14-2 3h-2l-2 5-6 10-15 20h-3l1-6 11-20 4-6 6-11 9-15 6-12 6-9 6-12h2l1-2v5l3-3z" fill="#9A8CEC"/>
<path transform="translate(673,472)" d="m0 0 1 2-18 35-14 41-10 21-11 30-8 17-12 22-7 15h-2l1-8 4-10 1-4 2-1 1-3h2l3-9 2-4h2l1-6 5-11 3-5 2-6 8-20 1-6 6-18 3-1 2-5 4-9 5-17 7-15 8-16 4-2 1-4h2z" fill="#6D6766"/>
<path transform="translate(670,472)" d="m0 0 1 2-2 5-4 3-9 19-5 11-5 17-4 9-3 5-3 3-4 15-2 5-3 9-4 9-3 10-3 5-6 13-1 4h-2l-1 4-3 7-1 2h-2l-1 4-5 12-3 8-2-4 1-5 2-2 2-5-1-3 5-14 2-4 6-2-1-6h2l1-4 1-5h2l1-5h2v-3h2v-2h2v-5l4-10 5-15 7-16 4-10 7-14v-3h2l-1-4h2l1-4 2-6h-2l2-7 1-5 2-5v-2l3-3 2-5h3l1-2 2 3z" fill="#504946"/>
<path transform="translate(637,686)" d="m0 0 6 2v7l8 6h3l5 5 6 3v3l1 2-1 2h2l-1 3-11 3h-5-4l4-4-1-4-7-6v-2l-5-1-10-8-8-4-9-2-6-1 3-2h26z" fill="#3F3938"/>
<path transform="translate(169,897)" d="m0 0h1v9l-2 5-1 6-1 7-4 9h-2l1 3-3 6h-2v2h-2l-2 6-5 5h-2v3l-5 2-3-3v-5l4-8 3-5v-6l13-16 8-10z" fill="#A8A09D"/>
<path transform="translate(415,307)" d="m0 0h15v1l-11 1-5 3-8 11h-2l-3 10-16 30-5 8-3 3-4 10-8 14-1 3h-2l-2 6-10 18-5 6-4 8-1 4-3 3-3 8-3 1 2-6 7-14 8-15 10-18 9-16 4-7 3-5 5-15 2-2 3-7 12-20h2l2-4 8-13z" fill="#4B4544"/>
<path transform="translate(1033,734)" d="m0 0 9 2 7 4 1 5h6l-2 1-2 4-3 5-3 3-1 3h-2l-2 4h-2l-1-2-7-2-8-7-1-4 7-12z" fill="#6C6665"/>
<path transform="translate(332,454)" d="m0 0h2l-1 5-9 17h-3l-2 5-2 4-2 7-6 12-6 10-7 14-10 19-8 15v5l26 5 39 10 7 2h10l3-3 5-13 5-10 9-2-1 3-5 5-5 14-5 8-2 1h-12l-34-9-23-5-19-4-2-1 1-7 14-27 12-22 10-18 5-12 10-17h2l1-6z" fill="#A09895"/>
<path transform="translate(1069,366)" d="m0 0 1 2 3 1 9 24 8 26 9 36 5 25v8l-2-1-1-5h-3l1-9-3-3-5-15v-8l-2-6-1-4h2l-5-9v-5l-2-7v-5l-1-3h-2l1-4-3-7-3-5 1-6-4-1v-6l-1-2 1-2-3-1-2-5h2z" fill="#453F3E"/>
<path transform="translate(600,839)" d="m0 0h5v2l3-1-1 3-3 1h6l-4 4-1 3-4-1-1 7-1 3-3 3v4l-7-1-3-1v-2l-4-1v2h-2v5h-5l1-17h2l1-4 6-1-2-1v-2h-5l1-2h7z" fill="#45403E"/>
<path transform="translate(329,457)" d="m0 0 1 2-2 6-3 3-11 20-2 6-4 4-9 17-12 22-14 27-1 3-3 1-12-3-1-4 7-11 6-11 5-11h2l1-4 6-10 4-4 2-5h2l1-4 6-12 9-15v-2h2l2-6 4-8h2l-2 5-14 27-6 11-10 18-14 24-8 15-1 5 8 1 15-30 6-10 5-10 8-15 5-9 12-20z" fill="#433D3B"/>
<path transform="translate(581,815)" d="m0 0h12l8 13 5 8v3l-20 4h-7l-1-1v-10l1-3 1-13z" fill="#EFEEEE"/>
<path transform="translate(607,771)" d="m0 0h3l-2 6-8 14-7 10-1 1-10 1v-16l1-12 1-1z" fill="#F5F4F4"/>
<path transform="translate(1056,745)" d="m0 0h15l3 3h-10l-5 3h-2l-2 4-6 8-3 9-2 7-1-3-3-6-1 2h-2l-2 5-6 11-2 10 1 2h-2l5 5 1 3h2v2l-6-2v-2h-5l-5-5-1-3v-10l1-2h2v-2l8-4 2-3h2l3-9-1-4-4-2-1-2 9 2 1 3 4-4h2l1-5 3-1 2-5z" fill="#514A47"/>
<path transform="translate(334,1020)" d="m0 0 6 1v2l4 2 5 5 1 5v5l-3 3h-2v2l-5 1-9-3-6-4-3-4-1-5 3-7 3-2z" fill="#8E8887"/>
<path transform="translate(519,351)" d="m0 0 7 1 3 3v2l20 8 8 4 17 3v1h-9l-12 7-5 5-3 2-7-1-1-7 1-5-5-2-3-11-8-6-6-1-4 1 3-3z" fill="#6D6766"/>
<path transform="translate(898,558)" d="m0 0 3 3v7l-6 4-4 4-7 1-3 1-1 6-4 3-5 3-2-1-1-4-2 6h-2l1-5 4-10 7-12 3-3 6 1 1-1h9l3 1z" fill="#413B3A"/>
<path transform="translate(628,767)" d="m0 0h3l-1 5-6 9-7 11-6 9v6l11 18 5 8v2h-7l-3-4-4-7-4-5-7-12 1-4 9-15 9-14 5-6z" fill="#EFEEED"/>
<path transform="translate(627,826)" d="m0 0 3 3 2 3h8l11-2h5l-2 3 2 1v-2h4v2l-3 2h-3v2l-4 1h3l-1 5-1 2h2v3h-2l-3-3v9l-5 1-2-3-7-2-2-4-1-7 1-2-4-1v-3l-4-4v-2h3z" fill="#575150"/>
<path transform="translate(748,756)" d="m0 0h1l1 11h3v5h-2l-1 3-1-3-1 35-2 8 1 6-2 7-5 1v2l-2 1h-6v6h-4v-19l-1-1h-7l-15 3h-5l1-2 28-5 15-3 1-1 1-8 1-31z" fill="#716B6A"/>
<path transform="translate(869,761)" d="m0 0 4 1 2-1 3 3v5l-3 4-2 4-5-2-4 1v-2h3v-2l-4 2v2l-7 1v2l5 1-1 2h-2l1 4-6-1-5-4v-5l-9-2-1-3 1-2h2v-2l8 1v-5l5-1 5 1 1 3 3-2 4-1z" fill="#3F3938"/>
<path transform="translate(419,308)" d="m0 0h21l33 5 10 2v1l-12-1-32-5h-12l-9 5-4 1v3l-4 4-10 17-6 12-6 11-7 11-6 10-2 5h-2l-1 5-6 10-6 11-6 9-3 3 2-6 11-20h2l1-5 10-18 3-7 3-3 14-26 6-11 3-8 4-4 7-9z" fill="#A29B98"/>
<path transform="translate(716,731)" d="m0 0 13 2h5l1 3 5 1-2 3v2l2 2-39 9-4-1-4-2v-3l7-4 3 2h-3l1 2h6l10-8 6-2v-2l-8 1-13 3-9 5h-3l1-3 16-8 8-1z" fill="#504946"/>
<path transform="translate(605,784)" d="m0 0 3 1 4-1 2 1-2 4-8 14-2 4-3 1-4 10-2-1v-2l-13 1v-10l1-12h1v9l10-2 7-10 3-5h3z" fill="#524B48"/>
<path transform="translate(471,424)" d="m0 0 3 1 3 4 4 1-1 4-1 5 6 2h2l2-7h7l9 4v2l-4 3v4l9 1 3-8 7 1 6 2v3l-2-2h-5v4l-1-2-6 1-1 3-11 1-3-3-28-6-2-5v-3h2l2-4-7-1v-1l7-1z" fill="#948A84"/>
<path transform="translate(515,331)" d="m0 0 1 3-6 11v12l3-2-3 9-7 12-3 6-2 1-1 4-8 12-8 7h-3l1-5 9-16 15-23 4-8v-12l1-3 4-4z" fill="#6D6766"/>
<path transform="translate(248,609)" d="m0 0 4 1 1 2-1 9-5 10-6 1-4-4v-2l-6 1-5 1v2l-3-1 1-8 2-4h6l1-2 9-3 2-2z" fill="#9C9491"/>
<path transform="translate(646,369)" d="m0 0 17 5 12 4 2-1v-2l-4-1 2-2 7 4-1 9-5 11-4 3 1-6-20-3 4-2h2l1-4 2-1 2 1-2-4-7-3-7-2-2-1v-2h-3v-2z" fill="#3E3837"/>
<path transform="translate(677,678)" d="m0 0h5l-4 4h-2l1 2h25l4-1 7 2 6-2h6l4 3 5 1-4 2-4-1h-14l-9-1-14 1-5 1-18 1-9-1-6 2-4 2v3l-4-2 1-4 1-5 12-2v-2l4 1h2l12-3z" fill="#44413F"/>
<path transform="translate(617,445)" d="m0 0 8 1 10 4 2 3-1 4-2 6-4-1-1 4-5 1-1 3-3 1-3-2v-2l2-1-5-2v-7l-2-1 1-5h2z" fill="#76675D"/>
<path transform="translate(746,776)" d="m0 0h1v26l-1 8-2 2-31 6-12 2-5 2-18 4-20 3-13 3-5 1h-8l-2-4 2 1h8l10-3 15-2 3-2 16-1v-2l11-3 3-3 14 1 9-2 4-1 16-3 2-1 1-5z" fill="#C2BEBB"/>
<path transform="translate(712,773)" d="m0 0 3 1v17l-3 4-9 3h-6l-1-3v-16l4-3z" fill="#2F2B2A"/>
<path transform="translate(718,734)" d="m0 0h5l2 3-7 3-6 4-5 4h-6l-2-4-4 3h-2v3l5 1-1 3-14 3h-8l2-2-6-1-2-1 1-2 6-2h4l5-2 20-10z" fill="#413B3A"/>
<path transform="translate(394,562)" d="m0 0 9 2 6 2v2h-2l-2 4-3 7h-2l-1 5-5 9-1 1h-7l-3-2 1-5 1-4h2v-3h2v-3l2-2 2-5z" fill="#9C9491"/>
<path transform="translate(234,919)" d="m0 0 2 1v8l-2 9-4 8-4 4-4 13-2 9-2 19-4 16-2 4v1 5l-2 4h-2l1 5 1 3 1 9 2 3 2-2 3 8-1 2-5-5-6-3 2-6-2-4v-11l2-11 5-11 2-11 2-14 2-8 2-12 10-19z" fill="#3F3938"/>
<path transform="translate(367,922)" d="m0 0h9l5 4 2 5 4 2-1 3-6-4v-2l-9-1-1-1h-5l-1 1-8 1-3 4-14 6-12 3-12 5-2-1 6-4 9-5 3-3h7v-2h2v-2h4l2-4 4-1 3 1 10-4z" fill="#454240"/>
<path transform="translate(547,429)" d="m0 0 5 1 7 2 4 4-2 1v-2h-5l1 4-3 5-1 4-4-1 1 7-1 2h-10l-6-1 3-5 2-6 5-10 5-1z" fill="#75675D"/>
<path transform="translate(486,406)" d="m0 0h8l3 2v2l10 3 7-1h11l2 1v2l5 2 4 3 5 2-3 1-9-1 8 3-4 1-32-10-10-3-12-1-4-4 9-1z" fill="#998E86"/>
<path transform="translate(423,615)" d="m0 0 9 2v4l-5 1-2 10-4 9-1 10-1 6 1 2-10-2-6 1-5-3 3-3 10-4 4-8 4-17z" fill="#3F3938"/>
<path transform="translate(204,721)" d="m0 0h1l4 17-1 11-2 7-3 7-6 13h-2l-1 8-2 1 1-8 10-50z" fill="#AAA29F"/>
<path transform="translate(722,359)" d="m0 0 2 1-3 10-9 20-7 17-7 15-9 20-12 24-5 9-2-1 3-9 3-1 2-8h2l1-7h2l3-10h2l1-6 4-7 4-11 5-11 6-12 4-11 6-12 2-8h2z" fill="#B3ADAA"/>
<path transform="translate(593,418)" d="m0 0h3l-1 10-2 9-10-2-24-7 4-4h6l7 1 8-2 4-3z" fill="#988C83"/>
<path transform="translate(464,429)" d="m0 0h8l-3 5h-2l2 5v2l28 6 5 6-13-1-16-5-6-2-10-1-5-4v-2l5-3h7z" fill="#6C6665"/>
<path transform="translate(370,554)" d="m0 0 9 1v2l-6 2-4 9-6 15-3 2h-10l-7-2v-1l11-1 2-6 5-10 3-7 2-3z" fill="#BFB9B6"/>
<path transform="translate(1044,826)" d="m0 0 1 4-4 10 1 2 3-1v-4h3l1-2 1 3h-2l-2 5-7 14h-2l-2 5-6 2-2-3 1-7 4-10 4-5 4-8 2-1v-2h2z" fill="#24201F"/>
<path transform="translate(416,286)" d="m0 0h13l6 1 4 3 4 2 2 4-1 1h-15l-13-1-9-2-1-2h2l1-4z" fill="#6D6766"/>
<path transform="translate(620,836)" d="m0 0h10v2h2l1 9 1 4 7 1 2 3 3 2-3 3-1 3-4 1v-2h-5l-3 2v-2h-3v-11l1-4h-2l-1 2-7-3v-1l7-2v-2h-2l-2-3z" fill="#44403F"/>
<path transform="translate(885,771)" d="m0 0 4 4 1 5 5 1 1 2-5 3v3l-5 1h-13v-2h-2v-2l-7-1 3-2h8v-2l2-1-2-5 2-3 4 1z" fill="#3F3938"/>
<path transform="translate(637,686)" d="m0 0 6 2v7l8 6h3l5 5 6 3v3l1 2-1 2h2l-1 3-11 3h-5l4-2 5-2 2-2v-3l-8-4-8-8v-2l-4-1-4-4-13-3h-5l-4 1-11-2 3-2h26z" fill="#44413F"/>
<path transform="translate(251,621)" d="m0 0h1l-1 7-2 6-2 4h-3v2l-4 1-2-1v-2l-3 1-4-2-5 2-4 4h-2l1-10 1-4 4 1v-2l9-3 4 4v2h8l2-7z" fill="#988C84"/>
<path transform="translate(647,556)" d="m0 0 4 1 2 4-2 13-2 5-4 2-2 8h-2l-2 7h-2v2l-4 1 3-10 5-16 4-9 1-7z" fill="#231F1E"/>
<path transform="translate(605,895)" d="m0 0h2l3 9 3 4 1 4v7l-2 5 1 3-1 3h-2l-2 9-5 5-5 8-3-1h2l1-9 3-6h2l1-8h2l3-10 1-2-2-1-1-5 2-3-5-1-2-5 2-5z" fill="#454240"/>
<path transform="translate(315,458)" d="m0 0h2l-2 5-14 27-6 11-10 18-14 24-7 13-6 4 2-5 11-20 3-7h2l1-4 6-10 4-4 2-5h2l1-4 6-12 9-15v-2h2l2-6z" fill="#443E3C"/>
<path transform="translate(599,807)" d="m0 0 5 1 5 9-1 5 4 6v2h2l1 5-2 2-3-4-1-2-1 2h-2l-1 2-7-10-3-5 1-7z" fill="#484443"/>
<path transform="translate(819,618)" d="m0 0 3 1 9 17 7 8 8 4h17l10-1v2l-8 4-6 1h-10l-10-4-11-10-8-14-1-2z" fill="#C3BEBC"/>
<path transform="translate(1043,432)" d="m0 0 2 3 2 10 2 13-1 8-1 13-2 3-4 14-2 11-6 8-5 10-1-2 2-13 6-3 2-8 2-7v-7l2-7 1-6 3-1v-19l-1-2z" fill="#504946"/>
<path transform="translate(224,648)" d="m0 0 1 4-2 4-1 8-1 5v5 3l-1 3h-3v15l-1 3-1 8-1 4-1 6-1 5-2 1v-10l3-9-1-5 2-7v-23l3-15z" fill="#998D85"/>
<path transform="translate(628,774)" d="m0 0 2 3-4 5-9 18v7l10 17v4h-4l-10-16-3-5v-6l14-21z" fill="#443E3D"/>
<path transform="translate(653,785)" d="m0 0 4 1-1 3-7 7 1 4 6 6v2h-6l-8-8-2-1-1 11-5 1v-10l2-10 2-2h4l-1 4-1 2 5-2z" fill="#403B39"/>
<path transform="translate(580,689)" d="m0 0h24l11 2 11 4 8 7 5 3 3 1v2l3 1 5 5 1 4-5 4-3-1 3-2v-4l-5-4v-2l-6-2-10-6-12-6-6-2-10-2h-11l-6 1v9h-1v-10z" fill="#514A47"/>
<path transform="translate(824,190)" d="m0 0h7l8 3 16 3 11 3 8 3 10 3 7 2 8 3 18 6 9 2 2 3-6-1-10-2-7-2-9-4-10-3-11-4-10-2-3-1v-2l-11-1-14-3-13-4z" fill="#988C83"/>
<path transform="translate(670,472)" d="m0 0 1 2-2 5-4 3-9 19-5 11-3 9-2-4 2-1-1-4h2l1-4 2-6h-2l2-7 1-5 2-5v-2l3-3 2-5h3l1-2 2 3z" fill="#4E4845"/>
<path transform="translate(898,443)" d="m0 0 2 1v2l4 1-1 5-4 3-1-4-1 5 2 1-3 1-2 5-5 5-7 3-2 3v3l-5 4-5 2-2 1v-2h-2l-1 2 1-4 5-2 3-7 3-1 4-4h4l1-2 4-2 2-5 3-4 2-9z" fill="#231F1E"/>
<path transform="translate(394,307)" d="m0 0h2l-1 8-2 3h-3v2l2 2h-4l3 2-2 2-2-1v2l2 1-4 10-9 16-5 1-2-2 7-12 3-7 3-4 1-3 2-2 1-5z" fill="#504946"/>
<path transform="translate(733,768)" d="m0 0h6l1 1v10l-5 3-10 3-1 3 13-4h3l-1 4-9 3-9 1-1-5 4-6 7-3 4-1 1-5-12 4v2h-2l1-6z" fill="#3A3534"/>
<path transform="translate(468,406)" d="m0 0 7 2v4l-7 5 2 5v5l-6 2-2 5-6-1v-8l6-9 2-4 3-5z" fill="#CAC6C4"/>
<path transform="translate(1072,748)" d="m0 0 5 1 3 6 1 6v9l-4 12-7 11-7 8h-2v2l-9 1-4-2-4-4-1-2v-16l3 2-1 10 3 6 4 3 9-2 4-5 1-2 3-3 7-14 1-8h2l-1-9z" fill="#443D3C"/>
<path transform="translate(578,714)" d="m0 0 1 2 5 1 15 8 3 3 1 2 8 2 7 3 5 1v2h2v2h-7l-6-2h-2l-3-3-5-1-1-2h-6l-7-5-7-3v-3l-2-2z" fill="#504946"/>
<path transform="translate(685,779)" d="m0 0h6l1 8-7 6-8 4-1 3 13-5h2l-2 5-12 4-5-1-1-5 5-5 6-4 6-3 1-3-9 2-6 4v-5l4-3z" fill="#3B3634"/>
<path transform="translate(419,308)" d="m0 0h21l33 5 10 2v1l-12-1-32-5h-12l-9 5-4 1v3l-4 4-8 14-7 7 2-6 4-7 3-8 4-4 7-9z" fill="#918A88"/>
<path transform="translate(508,1074)" d="m0 0 4 2-7 4-11 3h-13l-10 3h-9l-1-2 11-5 10-1 7-1 11-1z" fill="#9A928F"/>
<path transform="translate(593,848)" d="m0 0h4l-2 4-6 4h-2l5 5 4 2v4l-7-1-3-1v-2l-4-1v2h-2v5h-5l1-17 5 1v2h5l2-4z" fill="#F7F6F6"/>
<path transform="translate(355,958)" d="m0 0 6 2 5 2 5 8 4 3-1 2-11-8-5-3-15 4-9 2h-7l3-3 17-8z" fill="#403A38"/>
<path transform="translate(646,519)" d="m0 0 2 4-5 14-4 6-3 3-4 15-2 5-3 9-4 9-1 5-3-1 1-5 8-24 7-16 4-10 4-8z" fill="#514A47"/>
<path transform="translate(738,818)" d="m0 0h5l2 2-1 7h-2v2h-2v2l-2 1h-6v6h-4v-16l2-2z" fill="#C0BAB8"/>
<path transform="translate(418,619)" d="m0 0 1 2-5 19-7 8-5 3-8 2 4 6-6-2-3-5-16-2v-1l10-1-1-5-8-8h3l6 5v2l4 2 3 3h14l6-7 4-12z" fill="#454240"/>
<path transform="translate(596,865)" d="m0 0 5 2 3 8 2 1-1 10 2 3-1 4h-4l-3-2-2-6 3 1v-2h-2l-2-4-3 7-2 1 1-9 3-5h2z" fill="#454240"/>
<path transform="translate(273,786)" d="m0 0h1v6 3l-1 13-4 18-1 4 1 1v6l-3 5-5 6-5 4-3 6-2 1 3-9 1-2h2v-2l4-1v-3l-2 3h-2l2-5 4-2 3-7v-7l3-15v-3-3z" fill="#3F3938"/>
<path transform="translate(370,385)" d="m0 0 1 2-7 14h-2l-2 6-10 18-5 6-4 8-1 4-3 3-3 8-3 1 2-6 7-14 8-15 10-18 8-14z" fill="#5B5554"/>
<path transform="translate(463,429)" d="m0 0h1v6l-7 1-2 2h-3l5 5 13 2 12 5-3 1-11-4h-7l-3 2h-3l-1 3h-2l-1-10-9-4-4-3 13-1-1-3 3-1v2l9 1z" fill="#8B80AA"/>
<path transform="translate(1059,763)" d="m0 0 5 1 2 4-1 5-4 1h-2l2 9-2 1h-6l-2-2v-5l3-3-1-1v-7z" fill="#514A47"/>
<path transform="translate(716,486)" d="m0 0 4 1 1 4-3 1-5 7-15 1v-2h-2l1-5 14-5 4-1z" fill="#231F1E"/>
<path transform="translate(663,630)" d="m0 0 4 1-10 5-7 5-8 1-1 2-5 2-1 9-8 5 2-5 2-3v-10l6-4h9l1-3 14-4z" fill="#231F1E"/>
<path transform="translate(1033,737)" d="m0 0h6l6 4-3 7-4 4-6 1-2-4h-3l2-7z" fill="#98918E"/>
<path transform="translate(358,940)" d="m0 0 10 2 6 4 5 6-1 2-15-7-4-1-11 3-6 3h-6l5-5z" fill="#454240"/>
<path transform="translate(379,556)" d="m0 0h3l-1 3-5 5-5 14-5 8-2 1h-12v-2l10-2 6-15 5-10z" fill="#A79F9C"/>
<path transform="translate(622,296)" d="m0 0 6 1 21 8 6 4 4 7v3l-6-2-3-2v-2l-4-1-5-3-2-2-6-3v-2l-5-1-6-4z" fill="#514A47"/>
<path transform="translate(471,424)" d="m0 0 3 1 3 4 4 1-1 4-1 5 6 2h2v2h-15l-4-2-1-7h2l2-4-7-1v-1l7-1z" fill="#9A928F"/>
<path transform="translate(369,356)" d="m0 0 3 2-1 4-9 16-8 13-8 15-1-3 8-16h2l1-6 2-4-1-4 4-7 3-4 2-5z" fill="#4C4543"/>
<path transform="translate(637,840)" d="m0 0h11l-1 14-1 2-4-1-1-2-7-2-2-4 1-5z" fill="#BEB9B7"/>
<path transform="translate(693,823)" d="m0 0 3 1v2h-2v2h-3v2l-5 3-6 3-5-2-6-2-4-3 9-2 10-1v-2z" fill="#443E3D"/>
<path transform="translate(457,667)" d="m0 0 10 2 14 2 11 4 2 2-5 2-15-2-6-3-4-3-21-1 2-2h11z" fill="#433D3C"/>
<path transform="translate(529,330)" d="m0 0 8 1 2 2v7l-3 3-10 1-4-5 4-7z" fill="#6D6766"/>
<path transform="translate(665,538)" d="m0 0h3v9l-6 14-5 2-3-6v-3l5-2 1-1v-12z" fill="#231F1E"/>
<path transform="translate(729,737)" d="m0 0h11l-2 3v2l2 2-17 4h-8l-3 1v-3h2l2-4 10-2z" fill="#484442"/>
<path transform="translate(1052,709)" d="m0 0 6 2 3 3-1 5-2 1 1 5 2 1 1 6-3 10-3 3-4 1-3-3-1-3-3-3 4 1h3l5-6-2-6-1-4 2-4 2-1-1-4-5-3z" fill="#514A47"/>
<path transform="translate(691,829)" d="m0 0h6v16l-2 2h-7v-2l5-2 1-9-5 1-1 4h-2l-1 8-3-1v-7l3-6 3-3z" fill="#CAC6C4"/>
<path transform="translate(188,803)" d="m0 0h1l1 12-2 10-1 10-6 24-3 3 1-10z" fill="#C0BAB7"/>
<path transform="translate(697,415)" d="m0 0 1 4-1 6-16 33-7 14-2 3-2-1 3-9 3-1 2-8h2l1-7h2l3-10h2l1-6 4-7z" fill="#9B9391"/>
<path transform="translate(581,794)" d="m0 0h1v9l2-1h7l1 2-1 5 3 1-3 1 3 1v5l-1-2-13 1v-10z" fill="#696361"/>
<path transform="translate(574,442)" d="m0 0 4 1 1 1h1v6l-1 6-5 2-1 2-4-1-3-5v-4l5-5z" fill="#75675D"/>
<path transform="translate(524,374)" d="m0 0h5l-2 6-6 10h-2l-2 4-4 1-1-4 5-12 3-3z" fill="#6D6766"/>
<path transform="translate(484,316)" d="m0 0 9 1 21 6 3 2-1 6-2-3-5 9-4 4-1 5h-2l-2-5 2-5 3-1 3-4-2-6-1-2-10-3-7-1z" fill="#6E6867"/>
<path transform="translate(599,612)" d="m0 0 1 4-1 7-4 11 1 4-5 5-3 7h-1v-12l3-9 3-3 5-13z" fill="#393332"/>
<path transform="translate(490,319)" d="m0 0 9 1 5 3 1 4-2 6-3 1-2 4-1 6 3 4-1 5-2 1 1-5-5-6-3-3-1-3 7-5 3-1v-8l-5-1z" fill="#9B9390"/>
<path transform="translate(812,274)" d="m0 0 3 1-5 3h-3v2l-6 3-5 2-4 4-4 2-4 1-1 3-4 2-2 4h-2l-1 2h-3l-1 2h-2v2h-2l-1 3-4 2-5 6h-2l2-5 12-11 18-13 9-6z" fill="#504946"/>
<path transform="translate(506,361)" d="m0 0 1 4-8 14-6 11-7 10-4 2 2-7 15-24z" fill="#514A47"/>
<path transform="translate(706,778)" d="m0 0h5l1 1v10l-5 3-6 1-1-1v-11l2-2z" fill="#EFEEED"/>
<path transform="translate(840,540)" d="m0 0 3 1-16 17-9 12-5 13-2 1 3-12 7-13 6-8 7-7z" fill="#EFEEED"/>
<path transform="translate(519,326)" d="m0 0 2 1 1 5 2-1-1 5-4 12-5 4h-3l-1-5 5-10 2-3z" fill="#3E3837"/>
<path transform="translate(570,619)" d="m0 0h1l-1 8-7 27 8-1 7-2 2 2-7 2-2 3-9 1-3-1 1 3-3 5h-2l3-10 6-18z" fill="#504946"/>
<path transform="translate(881,537)" d="m0 0 9 4 8 7 4 7 2 5v4l-3-1-7-11-6-5-7-6z" fill="#BAB4B1"/>
<path transform="translate(653,337)" d="m0 0h4l-1 6-5 1-12 2-8 2-1 5-5-1v-2l-4-1-1-3 5-2 11-1 15-3z" fill="#514A47"/>
<path transform="translate(825,181)" d="m0 0 10 1 34 9 22 7-4 2-17-6-32-8-12-2z" fill="#ABA3A0"/>
<path transform="translate(620,836)" d="m0 0h10v2h2l1 9 1 4h2l-1 2-4 2h-3v-8h-2l-1 2-7-3v-1l7-2v-2h-2l-2-3z" fill="#45413F"/>
<path transform="translate(249,605)" d="m0 0m-21 0 1 3h3v2l7-1 7-3 5 1 3 3v8h-1l-1-8-8 1-5 3-10 4h-3l1-10z" fill="#938B86"/>
<path transform="translate(381,558)" d="m0 0 3 1v2l-4 4-6 15-4 8-2 1h-9l-4-2 9-1 3-2 4-8 4-12 4-5z" fill="#9B9390"/>
<path transform="translate(503,346)" d="m0 0 3 3-1 7-13 22-11 17-4 8-1 4-1-1 1-7 16-28 9-14 2-5z" fill="#93785F"/>
<path transform="translate(674,396)" d="m0 0 1 2-8 16-10 19-3 6-7 12-1-4 8-16 3-5h2l3-11 7-15h2l1-3z" fill="#524B48"/>
<path transform="translate(340,617)" d="m0 0 5 2 11 7 9 6 7 4v2l4 2 3 4-1 3-2 1h-8l1-2 5-1-3-5-2-4-4-1-7-3-8-7-10-5z" fill="#3F3938"/>
<path transform="translate(651,830)" d="m0 0h5l-2 3 2 1v-2h4v2l-3 2h-3v2l-4 1h3l-1 5-1 2h2v3h-2l-3-3v9l-2 1 1-13 1-3h-9v-1h10l-2-2h-2v-3l1-1h-6v-1z" fill="#5B5553"/>
<path transform="translate(358,376)" d="m0 0 1 3-3 4-1 4h-2l-2 7-3 4-4 12-4 7-2-4-2 2 1-5 3-4 2-6h2l1-6 3-1 7-14z" fill="#4B4543"/>
<path transform="translate(523,440)" d="m0 0 6 2 2 1h6l2-1-3 10-1 1h-10l-1-1v-6l2-2-6-2z" fill="#C7C2C0"/>
<path transform="translate(519,443)" d="m0 0h5l1 3v6l2 2-9 1-14-4v-1l7-1 1-2h2l1-2 4 2 1-2-2-1z" fill="#908987"/>
<path transform="translate(717,739)" d="m0 0m-1 1m-2 1h2l-2 5h-2v3l3-2h5l-1 2-18 4-4-1-4-2v-3l7-4 3 2h-3l1 2h6z" fill="#4C4745"/>
<path transform="translate(867,647)" d="m0 0h6v2l-8 4-6 1h-10l-7-3v-2l21-1z" fill="#BDB8B6"/>
<path transform="translate(266,991)" d="m0 0 2 1v2h-2l-2 5-3 6-1 7v22l3 14-1 3-4-8-1-13v-17l2-12 6-9z" fill="#3F3938"/>
<path transform="translate(1064,747)" d="m0 0h8v1l-12 3v2l-2 2-3 5-2 2-1 11-2 3-1 4v-3h-2v-6h2l-2-5 3-6 7-9z" fill="#3C3635"/>
<path transform="translate(427,309)" d="m0 0h12l38 6v1l-10 2-13-3-2-1-13-2-12-1z" fill="#A29A98"/>
<path transform="translate(597,846)" d="m0 0h3l1 8-2 6-4 3-5-2-3-3v-2l9-6z" fill="#484241"/>
<path transform="translate(694,827)" d="m0 0h4v19l-2 2h-15l1-4 3 3 1-8h2l1-4 5-1-1 9-5 2v2l7-1 1-1 1-16h-6z" fill="#6C6564"/>
<path transform="translate(829,630)" d="m0 0 9 3 7 3 9 3-1 3h-11l-10-6-1-4h-2z" fill="#423C3A"/>
<path transform="translate(342,1100)" d="m0 0h29l39 1v1l-11 1h-33l-24-2z" fill="#645E5B"/>
<path transform="translate(1009,735)" d="m0 0 7 1 3-1-2 5-3 2h-7l-5 2v2l8-1-5 5-6-1 3-9 5-2v-2z" fill="#231F1E"/>
<path transform="translate(160,918)" d="m0 0v3l-1 5-5 9-1 4-6 3-1-4 9-16z" fill="#BFB9B6"/>
<path transform="translate(279,569)" d="m0 0h11l38 9 24 7-3 1-35-9-29-6-6-1z" fill="#9D9693"/>
<path transform="translate(185,869)" d="m0 0h1v5l-6 13-4 13-2 9-2 7-3 11h-1v-7l6-21 3-12 5-13z" fill="#988C83"/>
<path transform="translate(746,776)" d="m0 0h1v26l-1 8-2 2-19 4h-5l10-5 11-2 2-1 1-5z" fill="#BAB5B2"/>
<path transform="translate(634,335)" d="m0 0h11l-3 3-8 2-10 1-11 1-3 3-2-6 4-1h10l10-2z" fill="#454240"/>
<path transform="translate(315,458)" d="m0 0h2l-2 5-14 27-12 22-3 1 2-5 1-3h2l1-4 6-12 9-15v-2h2l2-6z" fill="#3F3938"/>
<path transform="translate(601,666)" d="m0 0 4 2 6 8-2 4h-6l-3-2-1-9z" fill="#231F1E"/>
<path transform="translate(409,567)" d="m0 0 9 2v1h-8l-2 1-6 15-4 7h-2l-1 3-4-1h2l2-6 3-5 2-5h2l1-4 4-7z" fill="#908886"/>
<path transform="translate(670,834)" d="m0 0 7 2 4 2v7l-4 2-6 1v-7l-2-3z" fill="#403A39"/>
<path transform="translate(730,693)" d="m0 0 12 2 1 4-3 2h-10l-4-2-1-4z" fill="#231F1E"/>
<path transform="translate(1040,491)" d="m0 0h1l-1 12-3 7-6 8-3 7-1-2 2-13 6-3 2-8 2-7z" fill="#514A47"/>
<path transform="translate(513,440)" d="m0 0 7 1 6 2v3l-2-2h-5v4l-1-2-6 1-1 3-11 1-2-2-2-8h6l-1 6 9 1z" fill="#A09895"/>
<path transform="translate(605,784)" d="m0 0 3 1 4-1 2 1-2 4-8 14-2-1 2-6 1-2-2-4-3 1 2-5h3z" fill="#696362"/>
<path transform="translate(682,783)" d="m0 0h7l-1 4-11 6-4 2-1 3-1-2 1-7 1-5 2 4z" fill="#EFEDED"/>
<path transform="translate(950,574)" d="m0 0 5 2 4 6v6l-1-2h-2v-2h-7l-5-5 4-1z" fill="#3F3938"/>
<path transform="translate(280,544)" d="m0 0 2 2-10 21-3 1-12-3-1-4 7-5-1 7 8 1z" fill="#423C3B"/>
<path transform="translate(865,534)" d="m0 0h2v7l-9 3-4 3h-5l-2-8 4 2 4-1 2-1h6l1-4z" fill="#DBD8D7"/>
<path transform="translate(871,533)" d="m0 0 11 2 8 4 5 3 4 4 2 7-3-2-3-5-8-6-5-2 1 4 5 5h-6l-3-2-1-8-7-3z" fill="#6A6361"/>
<path transform="translate(181,884)" d="m0 0 2 1-2 6-4 14-4 17-3 3 1-11 2-5 4-16z" fill="#8E8887"/>
<path transform="translate(1043,780)" d="m0 0 3 2-1 10 3 6 4 3 9-2 3-4 4 1-5 5h-2v2l-9 1-4-2-4-4-1-2z" fill="#443E3C"/>
<path transform="translate(819,586)" d="m0 0h5l-1 7-2 3v11l-4 1-1-1 2-20z" fill="#BFBAB8"/>
<path transform="translate(723,782)" d="m0 0 6 1-4 2-1 3 13-4h3l-1 4-9 3-9 1-1-5z" fill="#46403F"/>
<path transform="translate(607,819)" d="m0 0h3l7 9 3 6 7 1 1-2v3l-14 1v-7h-2l-5-8zm3 17 4 1-2 1z" fill="#5F5856"/>
<path transform="translate(638,789)" d="m0 0h4l-1 4-2 3-1 5h2l-1 9-5 1v-10l2-10z" fill="#746F6D"/>
<path transform="translate(302,676)" d="m0 0 1 3-4 8-4 5-6 13-3 7h-1v-6l2-6 1-4 6-7z" fill="#3F3938"/>
<path transform="translate(862,545)" d="m0 0 5 1 7 1 6 4 6 6v2l-5-1-4-4-11-4-6-3z" fill="#403A39"/>
<path transform="translate(573,273)" d="m0 0 6 1 17 7 7 3 6 3 12 7 1 2-5-1-5-4-8-3v-2l-7-1v-2l-7-2-11-4-6-3z" fill="#514A47"/>
<path transform="translate(738,818)" d="m0 0h5l2 2-1 7h-2v2l-10-2 2-4v-3z" fill="#B9B4B2"/>
<path transform="translate(377,628)" d="m0 0 7 4 6 5v2l6-1 4 2h3l-2 4-4 2-5-3-8-7-6-4z" fill="#44413F"/>
<path transform="translate(526,421)" d="m0 0 12 1 14 4-2 4-3-1 1 4-4 1 1-5-8-2v-2l-6-1-5-2z" fill="#746D6B"/>
<path transform="translate(605,818)" d="m0 0h4l-1 4 4 6v2h2l1 5-2 2-3-4-1-2-1 2h-2l-1 2-1-3v-6-2-5z" fill="#423D3C"/>
<path transform="translate(370,387)" d="m0 0h1l-1 7-6 10-6 11-6 9-3 3 2-6 11-20h2l1-5z" fill="#A19999"/>
<path transform="translate(1069,366)" d="m0 0 1 2 3 1 7 18-2 1-1-2-5-1v-6l-1-2 1-2-3-1-2-5h2z" fill="#46413F"/>
<path transform="translate(811,590)" d="m0 0h1l-1 18 3 1 2 10 1 2-4 3-2-5h-1l-1-8v-11z" fill="#3F3A38"/>
<path transform="translate(817,611)" d="m0 0 5 2-1 4-2 7h-2l2 8h-5l-3-8v-6l3 4 4-1z" fill="#66615F"/>
<path transform="translate(341,589)" d="m0 0 9 1 1 2-4 2-1 4-1 1-9 1-4 1 3-3 4-2v-6z" fill="#3F3938"/>
<path transform="translate(1077,385)" d="m0 0 1 3h2l4 11v8l-4 1 1-4-3-7-3-5 1-6z" fill="#443E3D"/>
<path transform="translate(636,865)" d="m0 0h14v3l-4 4-1 3-3-1v-2h-3l-1-4h-2z" fill="#514A47"/>
<path transform="translate(386,715)" d="m0 0 6 5-1 9-5 6-1 4-2-6 2-4h2l-2-7v-6z" fill="#454240"/>
<path transform="translate(451,664)" d="m0 0 11 1 6 3-2 2-9-2-5 1h-8l-5 1-2-2z" fill="#514A47"/>
<path transform="translate(489,431)" d="m0 0 7 1 7 3-1 2-6-2-7-1-1 5-3 3-6-2-1-4 2-3 2 1v4l5-1 1-5z" fill="#C7C3C0"/>
<path transform="translate(568,354)" d="m0 0 8 1v1h-7l1 4-4 2v6l-6-1-2-1v-4l6-4 1-3z" fill="#231F1E"/>
<path transform="translate(224,648)" d="m0 0 1 4-2 4-1 8-1 3h-2v5l-2-2v-17z" fill="#988D84"/>
<path transform="translate(332,454)" d="m0 0h2l-1 5-9 17h-3l-2 5-5 9-1-2 12-22 3-1 1-6z" fill="#7F787E"/>
<path transform="translate(858,532)" d="m0 0h2l-1 3 2 1v2l2 1-12 3-4-3v2h-2v2l-3 1v-3l3-4 7-1v2h3l-1-4z" fill="#4B4544"/>
<path transform="translate(703,362)" d="m0 0 5 2 5 3-1 6-7 14-5 4-1 2-2-1 3-6h2l6-12 2-6-7-5z" fill="#453F3D"/>
<path transform="translate(463,429)" d="m0 0h1v6l-7 1-2 2h-13l-4-3 13-1-1-3 3-1v2l9 1z" fill="#A69E9B"/>
<path transform="translate(722,359)" d="m0 0 2 1-3 10-9 20h-3l3-9 6-12 2-8h2z" fill="#A8A19E"/>
<path transform="translate(415,307)" d="m0 0h15v1l-11 1-5 3-8 11h-2l-2 4 1-6 6-9z" fill="#4F4948"/>
<path transform="translate(608,770)" d="m0 0h3l1 9 4 4-1 2h-6l-4 1h-2l2-6 4-7 1-2z" fill="#514B48"/>
<path transform="translate(1043,432)" d="m0 0 2 3 2 10 2 13-1 8-2 4-1-5v-13l-1-2z" fill="#514A47"/>
<path transform="translate(471,424)" d="m0 0 3 1 3 4 4 1-1 4-1 5 6 2h2v2l-7-1-5-3-1-3h-4v-3h3v2h4v-4l-3-1v-2h-5l2-1z" fill="#A79F9C"/>
<path transform="translate(628,774)" d="m0 0 2 3-4 5-8 16-2 2-1-3-2 1 2-5 6-9z" fill="#4C4645"/>
<path transform="translate(1047,768)" d="m0 0 2 1-2 8 4-2 1-7h1v5l2 1-3 3v5l3 2v2l-6-2-5-3 2-12z" fill="#3D3837"/>
<path transform="translate(891,199)" d="m0 0 6 1 21 7 5 2-2 2-9-2-7-3-12-4-2-1z" fill="#ADA5A3"/>
<path transform="translate(731,772)" d="m0 0h5v5l-7 3-6 2v-2l-3-1 2-4v3h2v-2z" fill="#DEDCDB"/>
<path transform="translate(505,417)" d="m0 0 9 2 29 9 2 1-1 3v-2l-17-4-21-6z" fill="#C7C2C0"/>
<path transform="translate(500,321)" d="m0 0 6 2 3 6-2 4-5 5-1 4h-2l-1 2-1-6 5-5 2-6v-4l-4-1z" fill="#928985"/>
<path transform="translate(402,650)" d="m0 0m-4 1h4v2l-2 2 6 2 5-1 7 2 1 2h-12l-9-1-4-4v-2z" fill="#514A47"/>
<path transform="translate(1046,855)" d="m0 0 1 2-4 24h-2l-1-13 3-6 2-6z" fill="#736D6C"/>
<path transform="translate(691,829)" d="m0 0h6v16l-2 2h-7v-2l5-2 1-9-2-1 3-2z" fill="#BDB7B5"/>
<path transform="translate(652,337)" d="m0 0v3l-3 2-10 1-3 1-11 1-5 1 1-3 19-3 5-2z" fill="#454240"/>
<path transform="translate(703,775)" d="m0 0 5 1 2 2-9 3-1 8-2-3-1 9h-1v-16l4-3z" fill="#3C3736"/>
<path transform="translate(720,741)" d="m0 0h6l3 4-5 1-1 2h-8l-3 1v-3h2l2-4z" fill="#44403E"/>
<path transform="translate(450,690)" d="m0 0 4 1 2-1v7l1 4-5 1-4-3 1-5-2-1h2z" fill="#454240"/>
<path transform="translate(812,274)" d="m0 0 3 1-5 3h-3v2l-6 3-5 2-4 4-4 2-4 1-1 3-3-1 10-8 16-9z" fill="#514A47"/>
<path transform="translate(329,457)" d="m0 0 1 2-2 6-3 3-11 20-2 6-2-4 8-16 7-10z" fill="#46403F"/>
<path transform="translate(475,409)" d="m0 0 7 3-4 2-5 4 1 7h-2l-2 2-3-10 6-5h2z" fill="#BDB7B4"/>
<path transform="translate(648,343)" d="m0 0h8v2l-12 3-10 1-3 4-2-1 2-5z" fill="#3F3938"/>
<path transform="translate(143,935)" d="m0 0 2 4-5 9-4 8-3 2 2-9 1-4z" fill="#978F8C"/>
<path transform="translate(942,780)" d="m0 0 8 4 1 5-9-1 3-3-9 2-3-3h5v-2z" fill="#3F3938"/>
<path transform="translate(613,719)" d="m0 0h4l1 3-2 4-8 1-2-2 1-5z" fill="#6D6766"/>
<path transform="translate(349,419)" d="m0 0 1 3-9 17-1 4-3 3-3 8-3 1 2-6 7-14 8-15z" fill="#47413F"/>
<path transform="translate(646,832)" d="m0 0 1 2h-2v3h2l1-2 1 4-13 1-3-1v-3l7-3z" fill="#423C3B"/>
<path transform="translate(381,560)" d="m0 0 3 1-4 4-6 15-4 8-2 1h-9v-1l7-1 5-7 5-13z" fill="#928985"/>
<path transform="translate(689,795)" d="m0 0h2l-2 5-12 4-5-1-1-5 2 2 6-1z" fill="#413C3B"/>
<path transform="translate(215,690)" d="m0 0 2 1-1 11-2 6v5l-2 6v3h-2v-10l3-9-1-5z" fill="#988C83"/>
<path transform="translate(241,881)" d="m0 0 1 3-4 16-1 11-2 3-2-6 3-13 4-13z" fill="#3F3938"/>
<path transform="translate(944,768)" d="m0 0 2 4 4 4-8 2-4-2-7-1 2-2 9-1z" fill="#3F3938"/>
<path transform="translate(315,487)" d="m0 0 1 4-11 20-4 7-3 1 2-5 12-22z" fill="#9990A0"/>
<path transform="translate(856,188)" d="m0 0 16 4 19 6-4 2-17-6-13-3z" fill="#ADA6A3"/>
<path transform="translate(791,174)" d="m0 0 13 2 21 4v2l-18-2-14-3v-2z" fill="#ADA5A2"/>
<path transform="translate(1039,868)" d="m0 0 2 3 1 13-3 4-2-2-1-4v-7z" fill="#534C49"/>
<path transform="translate(576,852)" d="m0 0 5 1-1 2h-2l-1 6 6-1 1 2h-2v2h-2v5h-5z" fill="#AAA5A3"/>
<path transform="translate(733,768)" d="m0 0h6l-2 3-1 4v-3l-12 4v2h-2l1-6z" fill="#403B39"/>
<path transform="translate(514,323)" d="m0 0 5 1-1 10-6 10-1 8h2l-2 5-2 1v-13l6-11 1-9z" fill="#4F4845"/>
<path transform="translate(549,341)" d="m0 0h9l2 5-1 2h-6l-6-3z" fill="#6D6766"/>
<path transform="translate(400,337)" d="m0 0v3l-6 12-5 9-4 2 2-6 7-13 3-3z" fill="#A29B98"/>
<path transform="translate(669,326)" d="m0 0 5 2 11 7 12 8 4 4-5-2-26-16z" fill="#443E3C"/>
<path transform="translate(961,718)" d="m0 0 4 1 2 6-1 3h-5l-3-2v-5z" fill="#3F3938"/>
<path transform="translate(596,654)" d="m0 0 4 1 1 3-1 5-7 2-3-3 1-3h4z" fill="#231F1E"/>
<path transform="translate(391,553)" d="m0 0 3 4 5 6-6-1-3-2h-6l-2-4z" fill="#8B80AA"/>
<path transform="translate(681,449)" d="m0 0 2 3-2 6-7 14-2 3-2-1 3-9 3-1 2-8h2z" fill="#938C8A"/>
<path transform="translate(1035,297)" d="m0 0 4 2-1 1 9 1-1 2h-6l-2 1h-13l1-4 4-1z" fill="#504946"/>
<path transform="translate(661,471)" d="m0 0 1 4h-2l-2 7-3 1 1 3-3 6-2 5-3-1 5-10 3-9 3-5z" fill="#231F1E"/>
<path transform="translate(699,743)" d="m0 0 4 2h-3l1 5h6l-1 2-9 1-4-3v-3z" fill="#46403F"/>
<path transform="translate(274,1062)" d="m0 0 3 3 2 3 1-4 3 3 1 3v8l-2-3-1-2-2 2-1-4h-2z" fill="#3F3938"/>
<path transform="translate(401,604)" d="m0 0 9 2v3l4 3v2l-10-3-5-2-1-2h4z" fill="#454240"/>
<path transform="translate(646,797)" d="m0 0 7 6 3 3v2h-6l-5-5v-5z" fill="#383332"/>
<path transform="translate(1034,739)" d="m0 0 8 2-1 6-4 2-4-4z" fill="#A79F9C"/>
<path transform="translate(387 1e3)" d="m0 0 2 3 5 10 3 5 4 4-2 2-7-8-4-9-2-5z" fill="#423B3A"/>
<path transform="translate(543,434)" d="m0 0 3 3v2l3 1-1 3-8 2-3 2 2-5z" fill="#78716F"/>
<path transform="translate(394,307)" d="m0 0h2l-1 8-2 3h-3v2l2 2h-5l-1-2z" fill="#4F4845"/>
<path transform="translate(699,475)" d="m0 0 3 1-4 5-9 5-4 2v-3l10-7z" fill="#252120"/>
<path transform="translate(744,815)" d="m0 0h2l1 6-2 7-3 1v-2h2v-7l-4-1-10 2-2 1 1-4 14-2z" fill="#6D6766"/>
<path transform="translate(358,379)" d="m0 0h2l-2 5-12 22-1-3 8-16h2l1-6z" fill="#453F3D"/>
<path transform="translate(609,830)" d="m0 0 2 1 1 6 3 3v3l-3-1-1-2-5-1-1-4 2-4z" fill="#4A4644"/>
<path transform="translate(748,791)" d="m0 0 4 1 1 5-1 6h-4z" fill="#443E3C"/>
<path transform="translate(645,707)" d="m0 0 5 2 3 4-1 3h2v3l-4 2-1 2-3-1 4-4-1-4-5-5z" fill="#44413F"/>
<path transform="translate(293,521)" d="m0 0 1 3-11 21h-2l1-5z" fill="#443E3C"/>
<path transform="translate(464,429)" d="m0 0h8l-3 5h-2l2 5-2 2-2-5h-6v-1h5z" fill="#7F7977"/>
<path transform="translate(1046,281)" d="m0 0 4 1 1 7-2 2-10-1-9 1 4-3 6-1 7 1 1-4z" fill="#454240"/>
<path transform="translate(840,264)" d="m0 0h6l-4 2-9 3-13 4-5 1 3-3z" fill="#514A47"/>
<path transform="translate(325,973)" d="m0 0 2 1-7 5-5 2h-10l-1-2h5v-1l10-3z" fill="#3F3938"/>
<path transform="translate(718,683)" d="m0 0h7l4 3 5 1-4 2-4-1-13-1 3-3z" fill="#454240"/>
<path transform="translate(1021,291)" d="m0 0h5l-1 2-6 2-7 1h-9l1-2z" fill="#454240"/>
<path transform="translate(597,967)" d="m0 0h1v8l3 6v2h2l1 3h-4l-2-3v-3h-3l1-10z" fill="#454240"/>
<path transform="translate(675,439)" d="m0 0h3v4l-2 1-2 7-3 1-1-6 3-6z" fill="#2E2928"/>
<path transform="translate(674,396)" d="m0 0 1 2-6 11-3 3-3 5-1-2 7-15h2l1-3z" fill="#615751"/>
<path transform="translate(358,376)" d="m0 0 1 3-3 4-1 4h-2l-2 7-5 5 3-9 7-12z" fill="#6D6766"/>
<path transform="translate(401,1026)" d="m0 0 5 3v2l14 7 5 2v1l-7-1-10-5-7-6z" fill="#3F3938"/>
<path transform="translate(1082,761)" d="m0 0h1l-1 10-5 15-3 4v-4l4-9 2-7 1-8z" fill="#797271"/>
<path transform="translate(627,694)" d="m0 0 8 4v2l4 2 2 2-3 2-11-9z" fill="#44413F"/>
<path transform="translate(820,561)" d="m0 0 4 1-6 8-5 13-2 1 3-12z" fill="#A9A2A0"/>
<path transform="translate(346,428)" d="m0 0 1 2-5 13-4 7h-2v2h-2l2-6 2-3h2l1-6z" fill="#817A84"/>
<path transform="translate(489,434)" d="m0 0h7l9 4v2l-3 1v-3l-5-1-5 1-1 2-1-2-3 3z" fill="#A19996"/>
<path transform="translate(525,327)" d="m0 0 10 1 2 1v2l-8-1-1 2-5 4v-6z" fill="#48413F"/>
<path transform="translate(593,848)" d="m0 0h4l-2 4-6 4h-2l-1 2v-2h-5v-1h5l2-4z" fill="#D3CFCD"/>
<path transform="translate(731,824)" d="m0 0 1 3h6l2 1v3l-2 1h-6v6h-1z" fill="#BCB7B5"/>
<path transform="translate(558,437)" d="m0 0h2l-1 8-1 3h-5l1-5 3-5z" fill="#DAD7D6"/>
<path transform="translate(571,369)" d="m0 0 17 5 9 2v1l-10-1-16-4-7-1v-1z" fill="#48413F"/>
<path transform="translate(820,632)" d="m0 0h2l5 7 5 5-1 2h-3l-1-4-3-1v-3l-3-1z" fill="#6B6564"/>
<path transform="translate(834,557)" d="m0 0 2 1-6 8-8 13-4 2 2-4h2l1-5 9-13z" fill="#645E5C"/>
<path transform="translate(391,561)" d="m0 0 3 1v6l-10 15-1-2 8-16z" fill="#8E8887"/>
<path transform="translate(513,440)" d="m0 0 7 1 6 2v3l-2-2h-5v4l-1-2-3 1v-2h-2z" fill="#9A9088"/>
<path transform="translate(424,252)" d="m0 0 4 1-18 5-9 2 4-4 11-3z" fill="#958E8B"/>
<path transform="translate(735,781)" d="m0 0 2 1v3l-9 3h-4l1-4z" fill="#DAD7D5"/>
<path transform="translate(202,732)" d="m0 0h1v14l-2 7h-2l-1 3 1-9z" fill="#C1BBB8"/>
<path transform="translate(1101,472)" d="m0 0 2 3 1 5v8l-2-1-1-5h-3l1-7h2z" fill="#443E3D"/>
<path transform="translate(315,654)" d="m0 0 1 3-11 16-1-3 3-7 5-5z" fill="#3F3938"/>
<path transform="translate(364,648)" d="m0 0 6 1 1 2 4 1-4 2h-9l3-2-8-2v-1z" fill="#44403E"/>
<path transform="translate(413,618)" d="m0 0h1l-1 7-5 11-4 3 8-20z" fill="#454240"/>
<path transform="translate(868,568)" d="m0 0 4 1-6 7-3 1-7-3-1-2 6 1 3 1z" fill="#3F3938"/>
<path transform="translate(665,498)" d="m0 0 3 1-1 4-4 6h-3l1-8z" fill="#24201F"/>
<path transform="translate(656,428)" d="m0 0 1 2-3 9-7 12-1-4 8-16z" fill="#625954"/>
<path transform="translate(265,1064)" d="m0 0h1l2 6 5 5 1 3-5-2-6-7 1-4z" fill="#3F3938"/>
<path transform="translate(840,650)" d="m0 0 9 3h14l-4 3h-11l-9-4z" fill="#6C6665"/>
<path transform="translate(819,597)" d="m0 0 2 2v8l-4 1-1-1 1-9z" fill="#C7C3C1"/>
<path transform="translate(685,448)" d="m0 0 1 3-4 9-6 12h-2l2-6z" fill="#5F5957"/>
<path transform="translate(740,813)" d="m0 0 4 2-1 2-6 1h-8l-1-2z" fill="#4F4845"/>
<path transform="translate(1102,489)" d="m0 0h3l2 8v9l-2-2-1-4-3-8z" fill="#474140"/>
<path transform="translate(645,451)" d="m0 0 1 4-10 18-1-2 4-10z" fill="#514A47"/>
<path transform="translate(475,408)" d="m0 0 3 1 16 1 3 4-18-2z" fill="#A29A97"/>
<path transform="translate(392,316)" d="m0 0 2 3-2 6-5 9-1-2 2-4-1-3 1-1 1-7z" fill="#403A39"/>
<path transform="translate(513,257)" d="m0 0 13 1 7 2v1h-12l-9-2z" fill="#4B4643"/>
<path transform="translate(629,833)" d="m0 0 10 1-2 2h-4v3l4 1-1 2h-3l-1 2-1-4 1-2-4-1z" fill="#4F4A48"/>
<path transform="translate(696,821)" d="m0 0h6v5l-4-1v2l-4-1h2l-1-2h-6l2-2z" fill="#56504E"/>
<path transform="translate(677,792)" d="m0 0 5 1v2l-5 2-1 4-4-1 1-5z" fill="#34302F"/>
<path transform="translate(753,740)" d="m0 0h2l-1 5h-2l1 3h-3v6h-1v-12l-4-1h7z" fill="#5E5755"/>
<path transform="translate(848,637)" d="m0 0 6 2-1 3h-11l-1-3h7z" fill="#3F3938"/>
<path transform="translate(279,557)" d="m0 0v3l-1 7 7 1v1h-9l-2-1 1-7z" fill="#A19996"/>
<path transform="translate(517,339)" d="m0 0 2 1-1 6-4 4-2-2 1-5h2v-3z" fill="#231F1E"/>
<path transform="translate(1047,848)" d="m0 0 1 3-2 5-5 12-2-2 5-13z" fill="#554E4B"/>
<path transform="translate(581,847)" d="m0 0 3 1 2 7h-5l-3-3 1-4z" fill="#5D5754"/>
<path transform="translate(388,667)" d="m0 0h8l-1 10h-2l-1-4-2-1v-2h-2z" fill="#454240"/>
<path transform="translate(359,550)" d="m0 0 7 1h15l-1 2-3 2-10-1-8-3z" fill="#C4BDD8"/>
<path transform="translate(287,512)" d="m0 0 1 2-4 6-8 8 1-4 6-10z" fill="#47413F"/>
<path transform="translate(770,370)" d="m0 0 8 1 15 3-1 2-9-1-6-2-7-1z" fill="#4F4845"/>
<path transform="translate(627,851)" d="m0 0 1 4h3l2 7-3 2v-2h-3z" fill="#514A47"/>
<path transform="translate(1064,795)" d="m0 0 4 1-5 5h-2v2l-8 1 4-4 5-2z" fill="#47403E"/>
<path transform="translate(345,394)" d="m0 0h2v7l-3 6h-2l-1-5 1-2h2z" fill="#554F4C"/>
<path transform="translate(514,340)" d="m0 0 1 3h-2v5l2 1 5-5-2 5-4 3h-3l-1-5 3-6z" fill="#3F3938"/>
<path transform="translate(398,695)" d="m0 0 5 1v3l-3 2-5 1-1-2z" fill="#454240"/>
<path transform="translate(457,667)" d="m0 0 9 2v1l-11 1-12-1 2-2h11z" fill="#413D3B"/>
<path transform="translate(396,563)" d="m0 0 7 1 6 2-3 2-3 1-4-1v-2h-2z" fill="#A79F9E"/>
<path transform="translate(1019,534)" d="m0 0 1 3-6 12-2 8h-1v-7z" fill="#514A47"/>
<path transform="translate(131,963)" d="m0 0 2 4v2l4 1v3l-5-1-4-3z" fill="#958B83"/>
<path transform="translate(639,852)" d="m0 0 3 1 1 2 3 2-3 3-1 3-4 1 2-7z" fill="#59524F"/>
<path transform="translate(600,839)" d="m0 0 4 1h-3v2l-12 2h-11l1-2h7z" fill="#645E5C"/>
<path transform="translate(866,632)" d="m0 0 5 2 4 5 3 3-4 2v-3l-6-4z" fill="#47413F"/>
<path transform="translate(856,565)" d="m0 0h6l2 2-1 1-9 1-1 1h-6l2-2z" fill="#3F3938"/>
<path transform="translate(669,448)" d="m0 0 2 1 1 4-4 7-2-3 1-6z" fill="#393432"/>
<path transform="translate(519,443)" d="m0 0h5l1 3-4 6-3-4 2-3-2-1z" fill="#6D6766"/>
<path transform="translate(338,412)" d="m0 0h1v7l-4 4h-2l1-6 1-2h2z" fill="#58514F"/>
<path transform="translate(785,317)" d="m0 0m-1 1m-2 1h2l-1 3-14 7-5 2 4-4z" fill="#454240"/>
<path transform="translate(1052,289)" d="m0 0h1l-1 12-4 1-2-5h2l1-3 2-1z" fill="#514C4A"/>
<path transform="translate(508,1074)" d="m0 0 4 2-5 3h-8l-2-2z" fill="#9C9491"/>
<path transform="translate(1050,766)" d="m0 0 2 1v6l-2 3-1 4v-3h-2v-6h2l-1-3h2z" fill="#231F1E"/>
<path transform="translate(865,534)" d="m0 0h2v7l-6 2-3-1 3-3h2l1-4z" fill="#C4BFBD"/>
<path transform="translate(562,439)" d="m0 0h3v5l-2 3h-4l1-7z" fill="#413C3B"/>
<path transform="translate(387,361)" d="m0 0v3l-4 7-5 2v3h-2l2-5 3-3 3-5z" fill="#98908E"/>
<path transform="translate(384,334)" d="m0 0h2l-1 4-8 14-1-2 3-6z" fill="#3F3A39"/>
<path transform="translate(808,187)" d="m0 0h6l4 1 5 1-1 3-12-2-2-1z" fill="#988C83"/>
<path transform="translate(286,979)" d="m0 0 3 1h-2v2l-11 5-3-2 7-4z" fill="#3F3938"/>
<path transform="translate(1055,777)" d="m0 0 4 1 2 2v3l-3 1-3-1v-2h-2z" fill="#6D6766"/>
<path transform="translate(748,756)" d="m0 0h1l1 11h3v5h-2l-1 3-2-3z" fill="#5B5452"/>
<path transform="translate(970,697)" d="m0 0h1v8l-2 7-2-1v-7z" fill="#3F3938"/>
<path transform="translate(382,666)" d="m0 0 5 5-1 14h-1l-2-12z" fill="#454240"/>
<path transform="translate(840,540)" d="m0 0 3 1-10 7-7 7-2-1 10-10z" fill="#CECAC9"/>
<path transform="translate(697,415)" d="m0 0 1 4-1 6-4 7-1-4z" fill="#A69F9C"/>
<path transform="translate(370,385)" d="m0 0 1 2-7 14h-2l2-9 3-5z" fill="#615B5A"/>
<path transform="translate(698,825)" d="m0 0 3 1 1 6-2 5h-2z" fill="#46403E"/>
<path transform="translate(633,766)" d="m0 0h3l-1 5-4 5h-2l1-5z" fill="#332E2D"/>
<path transform="translate(1055,761)" d="m0 0h7l5 5v3l-2-1-1-3-5-1-6 2v-3z" fill="#3F3938"/>
<path transform="translate(377,651)" d="m0 0 9 2 3 3-1 2-4-3-3 1-9-2 4-2z" fill="#44413F"/>
<path transform="translate(818,624)" d="m0 0h2l6 11 2 5-5-5-5-7z" fill="#4E4846"/>
<path transform="translate(282,520)" d="m0 0 1 2-7 12h-2l2-6z" fill="#3F3938"/>
<path transform="translate(706,381)" d="m0 0 1 2-3 5-5 5-2-1 3-6h2l2-4z" fill="#48413F"/>
<path transform="translate(389,284)" d="m0 0 3 1-1 6-3 4h-2v-6h2z" fill="#8E8887"/>
<path transform="translate(603,844)" d="m0 0h7l-4 4-1 3-5-1 1-4h2z" fill="#44413F"/>
<path transform="translate(675,833)" d="m0 0 6 2 3-1-2 10h-1l-1-5-6-3z" fill="#564F4D"/>
<path transform="translate(671,798)" d="m0 0 2 2 8-1 3 3-7 2-5-1z" fill="#554F4E"/>
<path transform="translate(608,770)" d="m0 0h3l1 9v3h-3l-2-5 3-6z" fill="#575351"/>
<path transform="translate(207,762)" d="m0 0 2 1-4 8-2 8-3-1 3-9z" fill="#988C83"/>
<path transform="translate(218,656)" d="m0 0 2 1v5l1 5h-2v5l-2-2v-13z" fill="#8F8886"/>
<path transform="translate(817,624)" d="m0 0 4 8 1 6-3 1-3-5v-2l2-1z" fill="#595350"/>
<path transform="translate(819,618)" d="m0 0 3 1 3 6-1 4-1-2-3-1-1-2z" fill="#D6D3D2"/>
<path transform="translate(858,532)" d="m0 0h2l-1 3 2 1v2l2 1-8 1-1-6z" fill="#544E4D"/>
<path transform="translate(565,441)" d="m0 0 3 1-1 7-4 1-1-3z" fill="#D9D6D5"/>
<path transform="translate(722,359)" d="m0 0 2 1-3 10-2 2-1-3 2-8h2z" fill="#989190"/>
<path transform="translate(154,921)" d="m0 0 1 3-3 5-5 5h-2l2-5z" fill="#8F8885"/>
<path transform="translate(683,793)" d="m0 0 2 1-1 1 3 2-8 3h-3l1-4z" fill="#DCD9D9"/>
<path transform="translate(598,795)" d="m0 0 2 2-1 4-2 3-3-1 1-6z" fill="#45413F"/>
<path transform="translate(1064,747)" d="m0 0h8v1l-12 3v2l-4 1 1-3z" fill="#3F3938"/>
<path transform="translate(485,694)" d="m0 0 4 4-2 4-6 2h-5l1-2h8z" fill="#454240"/>
<path transform="translate(393,568)" d="m0 0 1 2-2 5-1 2h-2v3h-2v3l-3-1 5-8z" fill="#988C83"/>
<path transform="translate(879,538)" d="m0 0 1 3 4 2 4 4h-6l-3-2z" fill="#524C4A"/>
<path transform="translate(357,410)" d="m0 0 2 1-1 4-6 9-3 3 2-6z" fill="#9E95A0"/>
<path transform="translate(518,358)" d="m0 0 5 2-2 5-5-1 1-4z" fill="#93785F"/>
<path transform="translate(671,343)" d="m0 0 8 4 6 4-4 1-10-6z" fill="#463F3D"/>
<path transform="translate(503,332)" d="m0 0 2 1-4 6v3h-2l-1 2-1-6 5-5z" fill="#8D8785"/>
<path transform="translate(649,827)" d="m0 0h14v1l-7 2h-11z" fill="#C3BEBC"/>
<path transform="translate(1035,811)" d="m0 0 3 2 1 8h7l-2 2-6 1-2-1v-9z" fill="#514A47"/>
<path transform="translate(729,811)" d="m0 0m-7 1h7l-2 2-8 3h-6v-2z" fill="#C1BCBA"/>
<path transform="translate(730,811)" d="m0 0 9 1v1l-14 3h-5l4-2z" fill="#AFA9A7"/>
<path transform="translate(1060,764)" d="m0 0 4 2-2 3h-2v2h-3l-1-4z" fill="#6C6665"/>
<path transform="translate(276,741)" d="m0 0 2 3-3 13v2h-2v-7l2-10z" fill="#3F3938"/>
<path transform="translate(408,551)" d="m0 0h3l1 3-2 4-4 1v-6h2z" fill="#CEC8E8"/>
<path transform="translate(310,490)" d="m0 0 1 4-5 8-2-1 2-6z" fill="#423B3A"/>
<path transform="translate(489,297)" d="m0 0 4 2 1 4-7 2-2-2 4-2z" fill="#514A47"/>
<path transform="translate(590,861)" d="m0 0 6 2v4l-7-1-3-2 4-2z" fill="#B9B4B2"/>
<path transform="translate(649,839)" d="m0 0h4l-1 5-1 2h2v3h-2l-3-3z" fill="#514A47"/>
<path transform="translate(903,777)" d="m0 0 5 2-1 5-4 1-2-2 2-4z" fill="#3F3938"/>
<path transform="translate(285,545)" d="m0 0 1 2-5 10-4 2 2-5 4-8z" fill="#9F9895"/>
<path transform="translate(1e3 389)" d="m0 0 5 2 8 6 1 4-8-6-6-5z" fill="#454240"/>
<path transform="translate(323,1096)" d="m0 0 8 1 7 2v1l-15-1z" fill="#605957"/>
<path transform="translate(291,1090)" d="m0 0h9l1 3-4 1-8-2z" fill="#5B5452"/>
<path transform="translate(218,1048)" d="m0 0h2l5 7v7l-3-1-2-9z" fill="#3F3938"/>
<path transform="translate(148,959)" d="m0 0 1 3-3 1-1 4-7 4v-3l4-4h3v-2z" fill="#978B83"/>
<path transform="translate(638,841)" d="m0 0h9v5l-10-3z" fill="#CDC9C7"/>
<path transform="translate(1072,748)" d="m0 0 5 1 3 6v3h-2z" fill="#46403E"/>
<path transform="translate(595,639)" d="m0 0 1 4-4 10-2-4 1-5 2-2z" fill="#514A47"/>
<path transform="translate(599,612)" d="m0 0 1 4-3 7-3 5-1-2 5-13z" fill="#231F1E"/>
<path transform="translate(683,524)" d="m0 0 3 2v2h-2v2l-4 1v-2l-3-1z" fill="#231F1E"/>
<path transform="translate(349,419)" d="m0 0 1 3-7 13-1-4 6-11z" fill="#423C3B"/>
<path transform="translate(637,844)" d="m0 0h6v4l-4 1-2-1z" fill="#534C4A"/>
<path transform="translate(637,840)" d="m0 0h11l-1 3v-2l-9 1 4 2h-5l-1 4-1-5z" fill="#B3ADAA"/>
<path transform="translate(692,834)" d="m0 0 1 3-3 6-3-1 1-5 1-2z" fill="#302B2A"/>
<path transform="translate(734,823)" d="m0 0 5 1 2 3-3 1-6-1z" fill="#605958"/>
<path transform="translate(638,802)" d="m0 0h1v8h-4v-6z" fill="#443F3D"/>
<path transform="translate(663,793)" d="m0 0h4l-1 4-1 1h-5l-1-3z" fill="#433E3D"/>
<path transform="translate(274,528)" d="m0 0 2 1-2 9-4 3-2-1z" fill="#4A4341"/>
<path transform="translate(643,445)" d="m0 0 3 1-1 4-3 3-2-1 1-5h2z" fill="#A09893"/>
<path transform="translate(1080,398)" d="m0 0 4 2v7l-4 1 1-4z" fill="#3F3938"/>
<path transform="translate(693,823)" d="m0 0 3 1v2h-2v2h-3v2h-3v-2h2v-4z" fill="#4B4644"/>
<path transform="translate(1043,780)" d="m0 0 3 2-1 13-2 1z" fill="#453F3D"/>
<path transform="translate(653,785)" d="m0 0 4 1-1 3-5 2h-3z" fill="#4C4746"/>
<path transform="translate(619,773)" d="m0 0 2 2-4 7-1-3-3-1 4-4z" fill="#484342"/>
<path transform="translate(1e3 768)" d="m0 0h2v5l-6 4 2-7z" fill="#514A47"/>
<path transform="translate(1028,743)" d="m0 0 6 8 4 1-6 1-2-4h-3z" fill="#8F8886"/>
<path transform="translate(699,743)" d="m0 0 4 2h-3l1 3h-4l-1 2h-3v-3z" fill="#514A47"/>
<path transform="translate(701,736)" d="m0 0m-1 1m-4 1h4v2l-9 5v-4z" fill="#514A47"/>
<path transform="translate(400,337)" d="m0 0v3l-5 9-3 1 2-6 3-3z" fill="#A59D9A"/>
<path transform="translate(316,1091)" d="m0 0 11 2-1 2h-3l-2 2-5-5z" fill="#423D3C"/>
<path transform="translate(143,935)" d="m0 0 2 4-5 4-1 3-3-1z" fill="#807876"/>
<path transform="translate(634,852)" d="m0 0 1 4 3 1-2 3h-2l-3-3 1-4z" fill="#3F3938"/>
<path transform="translate(685,843)" d="m0 0 5 1-2 1v2h5v1h-12l1-4 3 3z" fill="#726C6B"/>
<path transform="translate(729,823)" d="m0 0h2l1 8-1 6-2-1z" fill="#FDFDFD"/>
<path transform="translate(410,607)" d="m0 0 5 1 6 3-1 6h-1l-1-5-7-3z" fill="#4D4744"/>
<path transform="translate(401,604)" d="m0 0 9 2-3 3h-4z" fill="#494341"/>
<path transform="translate(370,581)" d="m0 0 2 4-4 4h-9v-1l7-1z" fill="#958B83"/>
<path transform="translate(881,539)" d="m0 0 7 2v3 2l-4-2-3-3z" fill="#B1AAA7"/>
<path transform="translate(704,410)" d="m0 0 1 2-7 13-1-3 5-11z" fill="#736D6C"/>
<path transform="translate(364,392)" d="m0 0 1 3-5 9h-2l2-6z" fill="#413B3A"/>
<path transform="translate(796,327)" d="m0 0h5v3l-10 1v-2z" fill="#454240"/>
<path transform="translate(414,309)" d="m0 0 2 1-8 10-3 3 2-6z" fill="#6D6766"/>
<path transform="translate(779,294)" d="m0 0v3l-2 4h-2l-1 2-3-1 5-6z" fill="#4E4744"/>
<path transform="translate(854,261)" d="m0 0h8l-3 2-8 1-3 1-2-2z" fill="#514A47"/>
<path transform="translate(791,174)" d="m0 0 13 2-3 3-8-2v-2z" fill="#AEA7A4"/>
<path transform="translate(325,973)" d="m0 0 2 1-7 5h-5l5-5z" fill="#423C3A"/>
<path transform="translate(673,784)" d="m0 0h1l2 10-3 1-1 3-1-2 1-7z" fill="#B5AFAD"/>
<path transform="translate(628,774)" d="m0 0 2 3-4 5-3 4-1-4 4-5z" fill="#5A5554"/>
<path transform="translate(878,731)" d="m0 0 3 1-9 4-5 2-1-2 8-4z" fill="#3F3938"/>
<path transform="translate(624,662)" d="m0 0 1 2-5 12h-1l1-9z" fill="#231F1E"/>
<path transform="translate(299,518)" d="m0 0 1 2-5 9h-2l2-6 2-4z" fill="#A0989A"/>
<path transform="translate(673,472)" d="m0 0 1 2-3 6-4 3-1-3 3-1 1-4h2z" fill="#7C7675"/>
<path transform="translate(463,429)" d="m0 0h1v6l-7 1-2 2h-3v-3l10-2z" fill="#9B9491"/>
<path transform="translate(1046,277)" d="m0 0h6l2 4v7h-1l-2-7-3-1v-2z" fill="#585250"/>
</svg>
