<?xml version="1.0" encoding="UTF-8"?>
<svg version="1.1" viewBox="0 0 2048 1362" width="1280" height="1280" xmlns="http://www.w3.org/2000/svg">
<path transform="translate(1450,322)" d="m0 0h13l8 2 4 2 8 12 7 2h13l26-3 64-4h32l12 2 10 5 5 6 5 12 1 2 20-1h29l6 4 5 10 6 29 1 9v13l-3 12-6 14 2 9 5 12 6 8 6 5 6 10 5 16 4 43 3 15 9 34 4 20v11l-3 12-2 5-2 19v8l3 7 1 2v11l-5 11-2 18v11l4 34v33l-3 25-5 15-5 9-5 6-9 4-20 4-55 8-66 11-28 7-2 5-7 5-11 3-12 1v6l-3 6-9 2-24 3-7-1-4-5-6-10-9-10-12-6-11-1-28 2-61 7-58 8-40 5h-6l-12-21-8-21-10-24-5-8-3-4h2l-2-3-2 1-6-4-17-3-31-2h-42l-47 2-58 4-88 7-85 8-68 7-56 7-52 8-43 8-100 18-45 7-41 5-44 3h-40l-22-3-22-7-16-6-16-8-12-9-9-8-11-14-14-19-14-21-9-17-6-15-11-42-5-19v-16l3-15 8-22 10-19 12-17 9-11 17-17 17-12 19-12 17-9 20-8 24-8 27-6 22-3 60-5 18-1 33-1 109-2 44-2 36-3 36-4 68-9 176-25 66-9 37-6 43-9 22-6 17-8 8-7 4-11 8-44 4-5 29-6 19-2 38-3 36-5 16-4 35-13 24-8 9-6 12-4 10-2 30-1 1-6 4-4zm-19 221-29 3-23 6-23 8-20 10-19 11-16 12-6 8-6 10-1 5 4 8 12 11 15 10 18 11 23 11 18 5 35 8 23 3 25 1 21-3 25-8 35-11 19-8 16-8 13-8 11-8 6-5 3-6-1-6-7-12-6-7-12-9-19-12-21-11-18-7-22-6-24-4-16-2z" fill="#C0B8B0"/>
<path transform="translate(1450,322)" d="m0 0h13l8 2 4 2 8 12 7 2h13l26-3 64-4h32l12 2 10 5 5 6 5 12 1 2 20-1h29l6 4 5 10 6 29 1 9v13l-3 12-6 14 2 9 5 12 6 8 6 5 6 10 2 5v6h-36l-7 3-5-1-13-9-4-1h-11l-1 4 4 11 6 7 2 5-1 16-7 18-4 8-2 7-3 6-2 6-4 4-13 6-5 1-1-6 2-2 5-15 2-11v-32l-4-13-3-12-6-19-5-9-11-21 1-3-4-10-4-9v-3l-1-3 4 2 6 10 2 2v3h2l1 4 1-3-6-10-11-14-9-9-9-6-32-16-15-7-6-4-9-2-15-5-16-5-12-5-13-4-9-2-4-2-6-1h-15l-14 2-2 6-1 12-1 32-3-1-1-32-2-13-5-5-10 2-9 5-3 5-1 19 4 9-1 5-8 5-11 6-24 12-20 12-13 10-13 12-6 8h-2l-2 4-6 11-9 17-4 9-5 15-2 13v18l2 18 5 17 8 15 5 4 5 3v6l6 10 9 8v3l4 2 20 13 10 6 12 7 7 2 6 2v2h6l1 4 18 4 13 4 10 4h41l28-3 1-1 14-1 2 2 1 4 1 18 3 15 8 60 1 6v15l-5-2-3-8-5-35-2-16-2-25-4-14-4-2-30-1-26 1h-31l-26-2-24-4-32-6-19-5-12-6-11-6-6-6-14 1-4-1h-7l-21 6-16-3h-12v-3l-3-8-1-3v-14l5-12 2-7 4-1 2 4-3 3v6l3 5 11 6 10 5h5l4-2 1-3v-19l-3-9-2-8-1-3-5-1h-13l-10 3h-5l-9-9-4 1-12 12-9 8-19 12-11 5-23 6-44 7-26 3-8 2-14 1-4-2-4 1-5 3-8 2-47 4-46 6-38 3-22 3-11 3v41l-5 1-2-6-2-34-47 4-41 4-14 1-23 3-43 3-16 1h-11l-9 3-8 1h-20l-22-2-9-2-22-3-23-9-11-7-11-9-8-9-4-10-4-6h-6l-14 7-4 1h-10l-2 5-4 12-5 7-7 6-12 16-8 11-5 16-1 9-5 3-15 8-6 4-11 3-7 4-21 6-11 2-9 2-10 3-12 2-2 2v5l5 2 2 4-3 5-12 5-24 7-10-2-7-3-7-5v-2l-4-2-7-7v-2l-4-2-12-12-6-8-9-14-3-4-4-16v-16l3-15 8-22 10-19 12-17 9-11 17-17 17-12 19-12 17-9 20-8 24-8 27-6 22-3 60-5 18-1 33-1 109-2 44-2 36-3 36-4 68-9 176-25 66-9 37-6 43-9 22-6 17-8 8-7 4-11 8-44 4-5 29-6 19-2 38-3 36-5 16-4 35-13 24-8 9-6 12-4 10-2 30-1 1-6 4-4z" fill="#C1B9B0"/>
<path transform="translate(1699,511)" d="m0 0 6 2 40-2 2 7 3 35 3 15 9 34 4 20v11l-3 12-2 5-2 19v8l3 7 1 2v11l-5 11-2 18v11l4 34v33l-3 25-5 15-5 9-5 6-9 4-20 4-55 8-66 11-28 7-2 5-7 5-11 3-12 1v6l-3 6-9 2-24 3-7-1-4-5-6-10-9-10-12-6-11-1-28 2-61 7-58 8-40 5h-6l-12-21-8-21-10-24-5-8-3-4h2l-2-3-2 1-6-4-17-3-31-2h-42l-47 2-58 4-88 7-85 8-68 7-56 7-52 8-43 8-100 18h-5l1-4 4-3 17-5 35-7 23-5 23-3 13-1 40-7 29-7 28-5 23-5 40-1 24-1 36-3 19-2 9-2 10-2 16-4 7-1h33l11 2h21l35-2 10-1 34-1 15-2 56-3 16-1 43 3 14-1 4-3 1-6-7-14-6-8-10-7-22-7-8-4v-2l5-2 20-2 10-3 2-2v-8l-1-4v-9l3-14v-9l-6-9-5-4-8-4-1-4h34l43 3 41 4 37 6 24 5 20 3 23 2h73l8 4 4 5 3 9 1 6 4 52 3 16 2 3 3 1 13-1 20-3 7-3-2-4-2-1 1-3 9-2 5 3 4 6h9l4-1 2-7-1-14-3-25-2-14-3-15-1-10v-21l3-3 16-4 17-8 13-7h3l3-3 5-2 12-8 8-8 5-4 3-4h2l2-4 5-5 3-1 2-4 5-5 2-3h2l2-5 7-14 12-33 5-18 3-15v-14l1-9 2-5z" fill="#A0A2A0"/>
<path transform="translate(1330,371)" d="m0 0h8l5 3 4 6 3 1 2 7v7h2l3 11 1-5v-12l1-6h1l2 12v11l-2 3h-2l-1 3-27 16-18 13-13 12-3 3h-2l-2 4-9 11-11 18-7 15-3 8-1 8-1 3-1 7v19l1 5-1 5h2l1 10 2 6 6 16 6 12 9 10 2 8 6 10 12 11 11 8 5 4v2h4l4 3 4 2 4 3 9 2 5 1 11 4 6 3v2l4 1 6 3 12 2 12 6 13 2h33l16-3h8l2-1h5v-1l11 1 4 4 3 17 1 9 2 7 2 12v9h2l6 42v15l-5-2-3-8-5-35-2-16-2-25-4-14-4-2-30-1-26 1h-31l-26-2-24-4-32-6-19-5-12-6-11-6-6-6-14 1-4-1h-7l-21 6-16-3h-12v-3l-3-8-1-3v-14l5-12 2-7 4-1 2 4-3 3v6l3 5 11 6 10 5h5l4-2 1-3v-19l-3-9-2-8-1-3-5-1h-13l-10 3h-5l-9-9-4 1-12 12-9 8-19 12-11 5-23 6-44 7-26 3-8 2-14 1-4-2-4 1-5 3-8 2-47 4-46 6-38 3-22 3-11 3v41l-5 1-2-6-2-34-47 4-41 4-14 1-23 3-43 3-16 1h-11l-9 3-8 1h-20l-22-2-9-2-22-3-23-9-11-7-11-9-8-9-4-10-4-6h-6l-14 7-4 1h-10l-2 5-4 12-5 7-7 6-12 16-8 11-5 16-1 9-5 3-15 8-6 4-11 3-7 4-21 6-11 2-9 2-10 3-12 2-2 2v5l5 2 2 4-3 5-12 5-24 7-10-2-7-3-7-5v-2l-4-2-7-7v-2l-4-2-12-12-6-8-9-14-3-4-4-16v-16l3-15 8-22 10-19 12-17 9-11 17-17 17-12 19-12 17-9 20-8 24-8 27-6 22-3h13l2 2-3 15 1 9 5 4 9 4 10 2 6 4 1 5-1 6 2 8 7 11 3 8 5-5 7-2 10-1 5 2 3 5h2l1-3 4-2 3-5 9-4h11v-1l9 1 6 4 4 6v2l3 1 7 12 11 12 5 4v2h3v2l5 2 4 4-5-2-5-3 4 4 2 1v2l6 2 10 4 14 3 12 2h11l3-2 7 1 5 2 6-1 1-1 17-1 6-4h6l6 9 8-1 2 1 14-1 21 1 23-3 3-1 21-1 11-1 8-1 20-2 16-3 6-2 3 2 4-1 4-6 11-5 2-8 7 2 1-3h3l2-8 2-3h4l2 9 5 5 3 2-2-14-1-10 3-2h3l1 8 5 1 1-4 3-6 4-1 3 14 2 3-1 9 3 3 9 1 19-3 19-2 16-4 12-2 28-2 7 3 3 2h14l10-2 10-8 2-1 13-2 21-4 11-5h3l1-5 12-7 13-13 4-6-3 1 2-4 6-10 4-9 2-6v-7l-5-15 1-6 4-2h5l-3 2 9-1 19 1 5-3 5-4 1-5v-11l-6-8-6-9-3-9v-8l3-6 1-1h10l9 3h16l4-3-1-8-3-6v-9l-3-7-1-3 4-5 12-8 11-6 26-13 15-8 7-1 6 3 1-3 12-5 10-5 5-1v-2l11-4 13 1 4 3 1-4v-3z" fill="#A19180"/>
<path transform="translate(1405,358)" d="m0 0 6 1 3 7 1 8 1 41 1 17v12h2v-13l1-18 1-39 2-4h2l1-1h13l38 4 19 3 27 9 11 7 4 4v4l-6 1 3 1v2l9-1 4 1h2l1-3 7 8 1 6 9 10 8 6 16 14 8 9 8 13 6 17 9 27 4 10 4 17 7 22v17l-2 9-6 11-8 11-7-1-22-18-20-14-18-11-14-7-21-8-14-4-22-4-18-2-28-1-20 1-8 4-8 1v3l-23 6-23 8-20 10-19 11-16 12-10 15-1-4-1-1-9-2-6-9-5-12-3-15v-15l2-12 5-25 5-15 7-17 3-5 7-11 11-12 11-10 11-7 7-4 10-5 11-6 10-5 22-9 12-4 4-5v-9l-6-7-1-10 1-9 4-5z" fill="#FCFCFC"/>
<path transform="translate(1080,513)" d="m0 0h25l10 2 5 2 5 1-3 3h-7l-19 4-9 4 3 3 18 6 6 4 7 8 2 4v7l-5 12-9 13h-2v2h-2v2l-8 6-8 5-3-1 6-4-3-1-13 6-18 5-15 2h-24l-14 1h-32l-10 3h-10l-12-3h-22l-20-2h-7l-10 4-4 2-22 2-34 5-7 2-37 4-26 2h-12l-30 5-35 3-20 4-11-1-5-3h-11l-6 3h-6l-12-7-6-2-17-3-14-2-10-4 1 5 16 4 13 2v1h-10l-16-3-9-4-4-1-5-10 2-11 2-5 4-1-4-5 8 1 4 3 3-1 5 1 6-1 3-3-9-5 2-4 8-3 5-1 47-1 22-2 22-1 31-2 44-6 24-3 22-5 15-2 9-4 8-5 7-2 59-7 21-2 24-2 43-7 15-2 21-4 33-4 16-3h4l1-2h10z" fill="#FCFCFC"/>
<path transform="translate(1437,353)" d="m0 0h15l9 2 5 2 15 4 13 5 10 4 15 4 11 4 8 2 5 4 16 7 21 10 14 8 12 11 8 9 6 8 5 10v2h-2l-1-4h-2l-3-5-7-11-2-1 3 6 1 5 5 11 1 5v3l10 19 6 12 5 16 4 15 3 10v32l-3 14-2 8h-2v5l-2 2 1 4 13-5 5-3h2l3-10 3-5 2-9 6-12 4-11 1-16-4-8-5-6-3-9 1-4 1-1h11l7 3 12 8 5-1 5-2 36 1 1-3 2 10-41 2-6-2-2 5-1 17-1 11-4 18-6 19-6 15-5 13-6 12-7 8-6 7-5 4h-2l-2 4-7 8-12 11-15 10-6 3-6 1-1 2-15 7h-2l-1 2-10 4-13 3-1 2h-2l1 23 1 8 3 18 4 26 2 18-1 10-4 4-2 1h-9l-4-5-2-3-6-1-9 1-4 2-2 6-16 4-5 2h-8l-3-2-3-13-3-31-1-20-2-14-4-10-5-6-11-2-48-1-31-1-29-2-43-8-36-4-66-5-63-4-31 1-17 1h-8l-5 2-8-1-1-7 2-3 9-1 4 1 9-2 1-1 21-1 6-2h11l7 2 7-1 11-3h12l9 2h17l8-1h20l14-3 17-1 2-1h6l11 8 15 6 18 5 22 5 36 6 35 2h10l33-2h33l6 2 2 5h2l2 11 4 38 5 35 3 8 4 2-2-21-5-36-4-30-2-9-1-18-2-5-14 1-1 1-28 3h-41l-10-4-13-4-16-4-2-1v-2l-7-2-8-4-9-3-17-10-10-7-15-10 1-2 15 10 18 11 23 11 18 5 35 8 23 3 25 1 21-3 25-8 35-11 19-8 16-8 13-8 11-8 5-4 3-6-1-6-7-12-5-6-12-9-19-12-21-11-18-7-22-6-24-4-16-2h-33l-22 2h-7v-2l13-4 3-2 25-1 23 1 24 3 24 5 22 8 16 7 16 10 15 10 15 11 14 12 5 3h5l10-15 4-9 1-6v-17l-7-22-4-17-6-16-8-25-5-13-11-17-10-10-8-6-8-7-6-5-7-9-1-7-3-1-2-3-3 3-10-1h-3v-2l-3 1v-2l6-1-2-5-9-7-15-6-21-6-40-5-12-1h-13l-4 4-1 39-2 31h-2l-2-29-1-41-2-12-1-3-9 1-3 4-1 14 2 6 5 6v9l-5 6-22 8-21 9-6 4-22 11-10 7-10 8-10 10-9 13-3 6-6 13-6 16-4 18-3 14-1 9v15l3 15 5 12 5 8 9 2 2 4-2 8h-2v-6l-8-5-4-5-7-15-4-14-2-21v-15l3-17 4-11 8-17 10-17 4-7h2l2-5 12-12 11-9 15-10 22-12 21-11 11-6 1-5-4-9 1-19 5-7 11-5 7-1 5 4 2 5 1 10v32h2l1-31 2-17 2-2z" fill="#C1B9B0"/>
<path transform="translate(1450,322)" d="m0 0h13l8 2 4 2 8 12 7 2h13l26-3 64-4h32l12 2 10 5 5 6 5 12 1 2 20-1h29l6 4 5 10 6 29 1 9v13l-3 12-6 14 2 9 5 12 6 8 6 5 6 10 2 5v6h-36l-7 3-5-1-13-9-4-1h-11l-1 4 4 11 6 7 2 5-1 16-7 18-4 8-2 7-3 6-2 6-4 4-13 6-5 1-1-6 2-2 5-15 2-11v-32l-4-13-3-12-6-19-5-9-11-21 1-3-4-10-4-9v-3l-1-3 4 2 6 10 2 2v3h2l1 4 1-3-6-10-11-14-9-9-9-6-32-16-15-7-6-4-9-2-15-5-16-5-12-5-13-4-9-2-4-2-6-1h-15l-14 2-2 6-1 12-1 32-2-1-1-33-1-14-1-8-3-1h-12l-15 1-1-3 2-4 7-5 14-3 30-1 1-6 4-4z" fill="#A19180"/>
<path transform="translate(1699,511)" d="m0 0 6 2 40-2 2 7 3 35 3 15 9 34 4 20v11l-3 12-2 5-2 19v8l3 7 1 2v11l-2 4-3 3-2 4-2 22-5 1-5-8-7-14-3-5-4-1-4 1h-12l-7 1-13-1-12-5-7-2-7 1-15 6-10 3h-3l-1 2-11 4-2-1v2l-15 5-17 4-12 2-10 6-2 3 1 12-1 3 8 45 4 9 5 4 7 1 28-1 24-4 23-3 19-4 36-4 21-2 7 2 2 3-1 9-5 6-7 3-11 2-19 2-26 1-16 2-30 2-23 1-16 3-5 2-18 2-5-3-5-8-1-8 3-10v-8l-7-40-4-25-1-11-1-17v-4l18-5 17-8 13-7h3l3-3 5-2 12-8 8-8 5-4 3-4h2l2-4 5-5 3-1 2-4 5-5 2-3h2l2-5 7-14 12-33 5-18 3-15v-14l1-9 2-5z" fill="#838381"/>
<path transform="translate(336,573)" d="m0 0h11l3 1 2 5-1 1-11 2v5l3 1 7 13 5 6v2h2l4 5v2h2l2 4 2 1v2l4 2 11 11 10 7 3 1v2l4 1 11 8v2h2l5 12-1 7-5 10-2 5-10 9-11 8-5 5-14 8-20 9-19 6-20 4h-13l-16-2-14-6-9-8-2-5 1-8 2-11 4-8 11-26 6-16 3-6v-17l-1-6h-7l-16 9-5 4-8 11-7 7-6 3-4 5h-2l-1-4 4-12 5-8 5-9 4-2 2-4 8-8 11-9 10-8 8-5 11-6 18-9 21-2z" fill="#C0B8AF"/>
<path transform="translate(1259,430)" d="m0 0h5l3 3 1 5v7l3 10 5 2 2 6-2 2-1-1-3 5-1 10-3 5-5 14-7 21v18l3 27 5 19 5 13 12 22 2 5-1 5h-5l-12-8v-2l-4-1h-7l-3 2 1 4 15 9 7 5 2 4h-2l5 5 12 10-1 4h-12l8 4-2 2-4-1-11-7-10 2h-20l-3-5-1-5v-7l2-2v-9l-1-1v-6l1-4-3-7-2-7-4-4v-2h-2v-2l-11 1-13-1v-2l-4-2-4-6-7-1-4 4-3 4-4 5-10 8-14 9-5 5-12 6h-7v2h-8v2l-6 1h-9l-2-4 3-8 3-4h2v-2l8-6 10-9 6-8 10-17 3-9 3-12v-13l4-4h18l5-3 4-13 2-1v-12l-4-8v-3l-6 1-7-8-3-6-1-6 2-5h10l5 2 12 1h14l12-3 5-4v-3h2v-2l3-1 6-9 5-5h2v-2l6-4 1-3 3-3 5-7z" fill="#838381"/>
<path transform="translate(1203,706)" d="m0 0 18 1 31 6 20 5 36 11 20 6 16 4 33 6 26 2 25 1 15 2 11 4 4 5 3 10 1 5v15l-3 7-9 3-7 1-22 1-29 2-22 2-21 3-26 3-10 3-20 3-23 2-14 1-8-6-3-6-3-14-3-10-5-14-11-24-8-12-4-5-3-5-6-8-1-2v-6z" fill="#FCFCFC"/>
<path transform="translate(1088,507)" d="m0 0h43l19 6v2l4 2 2 2-1 5-7 2-27 1-7 3 2 5 2 4 4 2 7 11v9l-4 10-4 8-4 5-7 8-9 8-9 6-17 8-21 3h-8l-10 3h-7l-3-2-7 1-6 3-6 1-7-2-21 1-7 1-13 3-10-2-17-1-2-2-7-3-2-1v-2l-14 1-4 3-3-1-2-3-10 1-8 2-15 2-10 1-8 2-1 8-5-2-2-5h-5l1 19-2-1-1-3h-3v6l1 2v6h-2v2l-6 1-1-1 1-12 2-8 1-11-5 2-1 14-2 14-4 1-2-6v-9l-7-1-5-8-2 2-1 16 3 1-2 5-5 4h-7l-3-2v-16l6-3v-8l-4 1-3 6v9l-1 11-2 2-17 3-10 1-7-1v-2h-6l-2-4-3-1-1 8-3 2h-6l-3 3-4 1-7-5 1-4 1-6v-2l-10-1-4 5-4-1-2-6-5-2-5-3-7 8-3-1-1-2-4 1h-3l-3-4-4 2-4 4-9 1-4 1-6-1-4 2h-17l-9-1-9-6-12-3-17-4-14-7-8-6-6-9-3-11-2-9-5-6 2-9 6-4 13-5 8-2 13-4 11-2 34-1 14 1 24-2 36-1 20-2 31-5 41-4 9-2h10l7 2 8-1 4-4 4-8 4-5 2-1h48l40-2 43-5 24-3 13-2 13-3 21-4 43-6zm-8 6v1h-11v2l-11 1-16 3-26 3-26 5-23 3-38 6-29 2-57 7-15 2-9 5-4 3-6 2-20 3-17 4-47 6-21 3-33 2-24 1-20 2-45 1-11 3-4 4 3 3 6 3-3 3-9 1-3-1h-3l-7-3-4 1 4 4-5 2-3 12 1 5 4 8 9 3 7 3 13 2h10v-1l-19-3-10-3-1-5 14 5 15 2 15 3 14 7 1 1h6l6-3h11l5 3 11 1 20-4 35-3 30-5h17l28-3 30-3 13-3 37-5 13-1 10-5 4-1 16 1 19 1h14l12 3h10l10-3h39l14-1h17l20-3 18-6 8-4 3 1-6 4 3 1 11-7 5-4v-2h2v-2h2l7-10 6-12 1-3v-7l-4-6-6-7-10-5-13-4-3-3 9-4 19-4h7l3-3-9-2-7-2-4-1z" fill="#D8D1C8"/>
<path transform="translate(1641,339)" d="m0 0 6 1 5 6 5 12 1 2 20-1h29l6 4 5 10 6 29 1 9v13l-3 12-6 14-10-5 6 11 5 10 4 5 1 2v10l-1 2-9-1-16-3-6-5v-2h-2l-14-21-12-14-14-15-9-9-2-1v-2l-5-2-15-10-9-4-10-5-11-7-15-9-10-5v-2l-5-1-24-10-10-4-5-4v-2l4-1 23 1 14 8 16 5 12 5 19 9 8 4v2l5 1 5 2v2l5 1 9 5 9 6h5l1-5h-2l-1-4 1-3-1-7 1-5-2-1-3-12-5-14z" fill="#8E8C86"/>
<path transform="translate(1640,716)" d="m0 0h16l21 7 10 2 14 1h21l12 2 4 2 4 8 1 3v11l-3 6-7 6-12 5-31 6-15 3-18 4-39 5-23 2h-7l-6-3-3-5-4-17v-3h-2l-3-15 1-10 3-3 32-8 20-6z" fill="#D8D1C8"/>
<path transform="translate(1330,371)" d="m0 0h8l5 3 4 6 3 1 2 7v7h2l3 11 1-5v-12l1-6h1l2 12v11l-2 3h-2l-1 3-27 16-18 13-13 12-3 3h-2l-2 4-9 11-11 18-7 15-3 8-1 8-1 3-1 7v19l1 5-1 5h2l1 10 2 6 6 16 6 12 9 10 2 8 6 10 12 11 11 8 5 4v2h4l4 3 4 2 4 3 9 2 5 1 11 4 6 3v2l4 1 6 3 12 2 12 6 13 2h33l16-3h8l2-1h5v-1l11 1 4 4 3 17 1 9 2 7 2 12v9h2l6 42v15l-5-2-3-8-5-35-2-16-2-25-4-14-4-2-30-1-26 1h-31l-26-2-24-4-32-6-19-5-12-6-11-6-6-6-14 1-4-1h-7l-21 6-16-3h-12v-3l-3-8-1-3v-14l5-12 2-7 4-1 2 4-3 3v6l3 5 11 6 10 5h5l4-2 1-3 4 15 1 1h20l10-2 12 8 4-1-8-4 2-1 11 1-1-5-15-12v-4l-5-5-14-8-5-4v-5l4-1h7l4 2v2l5 2 7 5h5l-1-6-16-32-6-20-3-21v-11l2-19 4-16 8-19 7-13 2-3h2l1-4h2v-2h2v-2h2l2-4 17-17 6-9 6-18 4-10 1-5v-13l-3-3-5-1v-2l13 1 4 3 1-4v-3z" fill="#9FA19F"/>
<path transform="translate(1048,686)" d="m0 0 11 2 1 4-2 2-5 2-6 3-29 5-26 4-14 1-24 3-58 7-34 4-34 5-64 12-46 5-19 2-24 1h-46l-38 1h-30l-69-1h-17l-2 1-14 1-6 1-21-2h-12l-4 2-16 3-3-2v-2l12-5 9-4 12-5 4-1h19l19-4 14-2h11l16 4 19 3 17 1 62 1h33l32-2h11l18-1 19-3 17-3 19-3 23-1 23-4h19l6-1 2-4 10-4 8-3 15-8 7-5 15-4 14-1 7 2 4 2h13l14 1 24-1 30-4 17 1 13-2 16-3z" fill="#D8D1C8"/>
<path transform="translate(1313,378)" d="m0 0 8 1 4 4v13l-3 11-4 9-5 15-8 10-16 16-1 2h-2v2h-2l-1 4h-2v2h-2l-2 5-9 17-7 19-3 16-1 13h-2v-18l8-24 6-15 1-3 2-10 5-5-2-5-4-2-4-11v-8l-3-5h-8l-2 4-4 6-7 7h-2v2l-6 5-6 8 1 2-3 1-2-1-2 6-7 5-10 2h-14l-12-1-5-2h-10l-1 6 3 8 6 8h2l5 1 5 11v12l-2 3-3 9-4 5-9 1h-12l-3 1v15l-4 17-9 16-6 9-9 10-11 9h-2v2h-2v2l-5 3-13 10-6 3v2l3 2-10 2h-8l-2-1-2-5 5-2 9-2 8-4 11-6 3-1v-2h3l-1-2-4 1 4-4 13-10 4-2v-2l5-5 7-10 8-16 3-9 1-6v-14l5-5h16l6-3 3-7 1-5v-11l-6-8-6-9-3-9v-8l3-6 1-1h10l9 3h16l4-3-1-8-3-6v-9l-3-7-1-3 4-5 12-8 11-6 26-13 15-8 7-1 6 3 1-3 12-5 10-5 5-1v-2z" fill="#A09080"/>
<path transform="translate(1203,706)" d="m0 0 18 1 31 6 20 5 36 11 20 6 16 4 33 6 26 2 25 1 15 2 11 4 4 5 3 10 1 5v15l-3 7-9 3-7 1-22 1-29 2-22 2-21 3-26 3-10 3-20 3-23 2-14 1-8-6-3-6-3-14-3-10-5-14-11-24-8-12-4-5-3-5-6-8-1-2v-6zm5 4-2 4 3 6 6 4h2l2 4 12 9 11 4 20 4 16 4 15 4 48 16 8 5v5l-6 2-33 3-28 4-26 2-9 2-1 1v8l4 6 2 2 4 1h9l24-3 27-3 21-3 81-10 26-3 10-3 5-4v-9l-3-10-5-5-28-4-37-3-28-4-27-6-20-6-35-12-23-6-22-4-10-2z" fill="#D8D1C8"/>
<path transform="translate(1742,511)" d="m0 0 4 1 2 18 3 30 11 42 4 20v11l-3 12-2 5-1 11h-1l-2-8-4-1-3 1h-11l-5-5-4-2-2-6v-5h-2l-1 2-1-2h-3l-1-6 1-4-5 5-9 13-9 10-10 9-5 5h-3l-1 2-8 6-21 13-15 8-13 5-9 4-20 8-8 3h-8l-5-3-1-7 5-4 12-4 14-4 26-10 1-2 4-1 3-5 2-4 3-1 1-2 6-1 2-4 3-1 1-2h3v-2l6-3 3-3h2l2-4 10-9h2l1-3 5-5 5-3 1-3 8-6 2-5 4-4 7-11 7-15 4-13 1-8 1-1 1-8v-32l4-4h2v-2l4-3h3v3h2l-1-3-3-2z" fill="#A09180"/>
<path transform="translate(1263,670)" d="m0 0h6l11 8 15 6 18 5 22 5 36 6 35 2h10l33-2h33l6 2 2 5h2l2 11 4 38 6 42 2 9-3 3h-9l-3-4v-3h-2l-3-26-2-31-2-14-4-10-5-6-11-2-48-1-31-1-29-2-43-8-36-4-66-5-63-4-31 1-17 1h-8l-5 2-8-1-1-7 2-3 9-1 4 1 9-2 1-1 21-1 6-2h11l7 2 7-1 11-3h12l9 2h17l8-1h20l14-3 17-1z" fill="#D7D0C7"/>
<path transform="translate(1719,625)" d="m0 0h2v7l2 3h3 2l2 8 2 4h3l2 4 2 1h11l4-1 4 2 1 3v21l3 7 1 2v11l-2 4-3 3-2 4-2 22-5 1-5-8-7-14-3-5-4-1-4 1h-12l-7 1-13-1-12-5-7-2-7 1-15 6-10 3h-3l-1 2-11 4-2-1v2l-15 5-17 4-12 2-10 6-2 3 1 12h-2l-2-9v-7l2-3h2l1-3 3-2-6-5-3-5v-8l5-5 11-5 16-5 20-7h2l1-2h4l1-2 8-3 2-3 3 1-5 9-4 2-20 8-17 6-15 4-6 4 1 7 4 2h8l40-16 12-5 15-8 20-13 8-6h3l1-2 5-5 15-14 12-17z" fill="#9C8F81"/>
<path transform="translate(789,551)" d="m0 0h10l7 2h6v2l-13 2-4 1-7 1-4 2h-6v1l-26 4-38 4-12 2-28 2-27 1-64 2-19 3-8 2-7-1-9 4h-2v7l1 2 8 4-3 14 1 5 4 7 3 3 10 5 9 2 16 2 12 5 7 4 9 3 8-1 5-2 3-1 8 2 12 1 3-1 1-2h2l1-3 18 2 4-3h-3l1-2 23-2 33-5 6-2h11l2 2 4-1 1-1 26-3h7l3 1 5-1 2-1 17-1-1 3 2-1v14l-2 14-4 1-2-6v-9l-7-1-5-8-2 2-1 16 3 1-2 5-5 4h-7l-3-2v-16l6-3v-8l-4 1-3 6v9l-1 11-2 2-17 3-10 1-7-1v-2h-6l-2-4-3-1-1 8-3 2h-6l-3 3-4 1-7-5 1-4 1-6v-2l-10-1-4 5-4-1-2-6-5-2-5-3-7 8-3-1-1-2-4 1h-3l-3-4-4 2-4 4-9 1-4 1-6-1-4 2h-17l-9-1-9-6-12-3-17-4-14-7-8-6-6-9-3-11-2-9-5-6 2-9 6-4 13-5 8-2 13-4 11-2 34-1 14 1 24-2 36-1 20-2 31-5 41-4z" fill="#D8D1C8"/>
<path transform="translate(1303,634)" d="m0 0 7 4 20 13 23 12 13 5 42 10 28 4 25 1 21-3 25-8 5-1-2 4-3-1 2 12 3 4v2l4 2 6 4 8 2 11 1 6 3 3 4 3 14 3 31 3 21 1 16-2 7-4 3h-5l-8-7-3-7-5-23-6-34-3-3 6 44 4 21-2 4-13 5h-6l-2-3-6-38-5-39-3-15-1-18-2-5-14 1-1 1-28 3h-41l-10-4-13-4-16-4-2-1v-2l-7-2-8-4-9-3-17-10-10-7-15-10z" fill="#FCFCFC"/>
<path transform="translate(338,661)" d="m0 0 8 1 17 7 21 6 10 4 6 3 2 4-1 7-4 8-9 7-5 5-9 4-17 7-15 5-16 2-13 2h-13l-13-3-5-3v-6l16-14 5-5 6-8 5-5 8-11 7-11 4-4z" fill="#E7E1DA"/>
<path transform="translate(1170,478)" d="m0 0h8l12 2 15 1 1 6-3 7v25l4 22 9 31 6 12 5 7v5l-5 1h-11l-9-3-9-10-4-1-6 5-9 14-8 7-20 13-11 4-8 1-3-3 2-6 4-5 9-9h2l2-5 8-10 11-19 2-18 3-5 13-4 4-2 2-4 1-8 1-15-2-11-6-9-6-4-5-7z" fill="#504B43"/>
<path transform="translate(975,712)" d="m0 0h4v2l-23 8-14 5-16 6-28 8-24 1-11-1h-30l-17 4-14 6-1 2h-2v2l-8 6-4 2v2h-2l-1 3-6 4-9 7-3 1h-8l-8-2-5-6v-2l-4-2-11-2-12-1-4-1-24-1-14 1-5 1h-17l-24-1-51-5-3-1 1-3 12-1 36-1 1 2-3 1 1 1 18 2 24 1 31-3h16l11 2v-1l20-2 4 5 6 9 4 2 5-1 6-4 3-1 1-3 3-3 1-6-6 7-5 2-2 4-1 1h-6l-4-3-4-9-1-4 3-2 12-3 8-5 1-2 5-1 49-9 58-8 12-2 59-6z" fill="#A0A2A0"/>
<path transform="translate(1641,339)" d="m0 0 6 1 5 6 5 12 1 2 20-1h29l6 4 5 10 6 29 1 9v13l-3 12-6 14-4-2-15-14-10-10-14-11-11-9-5-5-3-8-2-19-10-23-1-3z" fill="#504B43"/>
<path transform="translate(1406,354)" d="m0 0 5 2 3 4 2 13v32h2l1-31 4-10 4-1 29 3 35 6 23 6 18 6 16 8 10 8 8 7 8 8v2h2v2l3 1 7 8 3 3v2l4 2 5 5 9 12 9 16 5 12 6 18 3 12 4 11 5 21 3 19v8l-4 16-5 9-1-2 4-9 1-6v-17l-7-22-4-17-6-16-8-25-5-13-11-17-10-10-8-6-8-7-6-5-7-9-1-7-3-1-2-3-3 3-10-1h-3v-2l-3 1v-2l6-1-2-5-9-7-15-6-21-6-40-5-12-1h-13l-4 4-1 39-2 31h-2l-2-29-1-41-2-12-1-3-9 1-3 4-1 14 2 6 5 6v9l-5 6-22 8-21 9-6 4-22 11-10 7-10 8-10 10-9 13-3 6-6 13-6 16-4 18-3 14-1 9v15l3 15 5 12 5 8 9 2 2 4-2 8h-2v-6l-8-5-4-5-7-15-4-14-2-21v-15l3-17 4-11 8-17 10-17 4-7h2l2-5 12-12 11-9 15-10 22-12 21-11 11-6 1-5-4-9 1-19 5-7 11-5z" fill="#D8D1C8"/>
<path transform="translate(1560,703)" d="m0 0h2l4 13 2 3v6l-2 5 1 11 5 29 4 23 2 1 4 9 5 4 7 1 28-1 24-4 23-3 19-4 36-4 21-2 7 2 2 3-1 9-5 6-7 3-11 2-19 2-26 1-16 2-30 2-23 1-16 3-5 2-18 2-5-3-5-8-1-8 4-10v-12l-6-32-2-18-3-21v-13z" fill="#838381"/>
<path transform="translate(1670,696)" d="m0 0 7 1 13 4 4 2 14 1 10-1h8l6-1 5 5 8 16 4 7h4l2-22 4-7 1 2-2 5-3 27-1 2-6-1 3 19-2 7-5 6-9 5-11 3-31 5-18 3-13 3-33 4-7 2-31 3-8-2-4-6-5-23 1-4 5 20 3 5 5 2 19-1 42-5 23-4 11-3 18-3 20-4 12-5 7-6 2-5v-11l-4-9v-2l-7-2-10-1h-20l-14-1-16-4-15-5h-16l-14 3-20 6-32 8-2 2-1 9h-1l-1-11 4-5 12-6 14-2 14-4 10-3h3v-2l9-1 1-2 13-5 16-6z" fill="#C0B8B0"/>
<path transform="translate(1575,735)" d="m0 0h7l-3 1v2h13l12 1 14 2 2 1 16 1 21 8 3 2 2 4h2l2 2 8-1 5 2 15-6h4l4-2v-3l-7-3v-1h18l11 2 6-1 1 5-9 8-10 3-24 5-16 5-23 6-31 3-32 1-5-4-3-7-5-21-1-10z" fill="#FCFCFC"/>
<path transform="translate(1543,802)" d="m0 0 3 3 4 8v25l-2 38v17l1 1 7-1 5-4 7-11 6-5 13-4 50-8 16-2 2-1v-2l7 1-2-2 11-2h6v1h7l2-2v2l34-4h14l6 3 2 2v4l-9 4-20 4-55 8-66 11-28 7-2 5-7 5-11 3-7-2 1-14v-68z" fill="#838381"/>
<path transform="translate(1437,353)" d="m0 0h15l9 2 5 2 15 4 13 5 10 4 15 4 11 4 8 2 5 4 16 7 21 10 14 8 12 11 8 9 6 8 5 10v2h-2l-1-4h-2l-3-5-7-11-2-1 3 6 1 5 5 11 1 5v3l10 19 6 12 5 16 4 15 3 10v32l-3 14-1 3h-2l1-18-3-19-6-24-4-11-4-15-7-20-7-13-6-10-6-8-22-22v-2h-2l-5-5-9-10-11-8-10-6-15-6-28-8-16-3-31-5-26-2-2 9h-1v-11l2-6 6-2z" fill="#C0B8AF"/>
<path transform="translate(1089,594)" d="m0 0 4 2-3 3 5-3 2 1-10 7-12 5-18 4-14 1-4 1h-10l-8-2-3 2-4 1h-19l-5 1h-16l-10 3h-9l-16-2-16-3-4-2h-19l-7-1-12 4h-6v1l-25 3-7 2h-8v-1l6-1-16 2-5 4-3 2-4-1 3-2-13 1-4 1-6 1-2-1-13 1-20 2-2 2-4-1-1-1h-11l-6 2-33 5-22 2h20l-3 2h-16l-4 3-18-2-1 2h-2l-1 3-4 1-15-2-6-1-2 2-8 2-7-1-10-4-12-6-9-2-16-2-9-4-5-3 2-2 8 4 16 3-16-4-4-2v-2l-2-1 2-3 14 5 15 2 15 3 14 7 1 1h6l6-3h11l5 3 11 1 20-4 35-3 30-5h17l28-3 30-3 13-3 37-5 13-1 10-5 4-1 16 1 19 1h14l12 3h10l10-3h39l14-1h17l20-3 18-6z" fill="#E6E0D9"/>
<path transform="translate(1307,390)" d="m0 0h6 3v2l4 2 3 8-1 5-4 9-5 15-8 10-16 16-1 2h-2v2h-2l-1 4h-2v2h-2l-2 5-9 17-7 19-3 16-1 13h-2v-18l8-24 6-15 1-3 2-10 5-5-2-5-4-2-4-11v-8l-3-5h-8l-2 4-4 6-7 7h-2v2l-6 5-6 8 1 2-3 1v-2l-2-1 1-2h2l2-4 8-10h2l2-5 12-17 6-8 2-7 6-1 4-3-1-5 7 4 8-2h7 4 2l1-2h3l1 1-1-7-3-3z" fill="#908D86"/>
<path transform="translate(1438,537)" d="m0 0 28 1 24 3 24 5 22 8 16 7 16 10 15 10 15 11 14 12 5 3 5 1-4 2h-3l-5 13-8 11-3 9-3 6-8 4-27 8-15 6-14 7-14 2-5 2-1 5 5 8 3 3 25 4 5 4 3 7 4 31 3 18 3 27v9l-2 6-3 3h-9l-5-5-6-1-9 1-4 2-2 6-16 4-5 2h-8l-3-2-1-7 4 6h9l2-2-2-9v-6h1l2 7 4 2v-9h1l2 7 9-1 10-4 1-4-5-26-4-30v-8l3 1 3 12 4 24 6 26 3 5 6 5 7-1 2-3 1-5-1-16-4-30-3-28-3-10-4-3-3-1-16-2-8-4-5-4-4-6-1-7-1-3 1-2 4-1 3-3 36-12 22-10 18-11 11-8 5-4 3-6-1-6-7-12-5-6-12-9-19-12-21-11-18-7-22-6-24-4-16-2h-33l-22 2h-7v-2l13-4 3-2z" fill="#D9D2C9"/>
<path transform="translate(1203,706)" d="m0 0 18 1 31 6 20 5 36 11 20 6 16 4 33 6 26 2 25 1 15 2 11 4 4 5 3 10 1 5v15l-3 7-9 3-7 1-22 1-29 2-22 2-21 3-26 3-10 3-20 3-23 2-14 1-8-6-3-6-3-14-3-10-5-14-11-24-8-12-4-5-3-5-6-8-1-2v-6zm5 4-2 4 3 8 11 13 7 9 13 24 6 9-1 7v18l4 8 3 3 9 1 18-1 15-3 50-7 72-8 28-2 9-2 5-3 2-5v-11h-2l-1-8-4-6-7-2-34-4-26-2-28-4-27-6-20-6-35-12-23-6-22-4-10-2z" fill="#C1B9B0"/>
<path transform="translate(1728,515)" d="m0 0 3 1-1 2-5 2 1 35-5 21-6 15-14 24-10 11-5 4-7 8-7 6h-2v2l-8 7-9 7-10 6-14 9-3-2 9-8 11-8 12-11 2-3h2l2-4 9-11 6-10 7-10 7-15 3-9 6-21 2-11 1-23 3-10 4-2z" fill="#504B43"/>
<path transform="translate(495,619)" d="m0 0 5 2 6 8 2 1 3 5 8 10 2 4 8 8 5 3 5 6 5 4v2l5 2 10 6 16 4h20l5 3 1 2-4 4h-24l-9-1-1-1-24-4-21-9-10-6-3-1v-2l-5-1-10-8-10-19-1-3v-7l4-5 1-3h2v-3z" fill="#8F8C86"/>
<path transform="translate(1048,686)" d="m0 0 11 2 1 4-2 2-5 2-6 3-29 5-26 4-14 1-24 3-58 7-34 4-14 1 2-2 20-3 46-5 59-9 24-1 40-7 5-2 5-1v-2l-15-1 2 2-3 3-18 3-3-3v-1h-9l1 1h6l-2 4-4 1h-12l-2-2 6-2-36 4-13 1v1h-10l-5 1-10 1-4 1-9 1-4 1-6 2-17 3-9 1-12 1-19 3-3 1 3 2h-5l-1-3-4 1 1-3 10-4 8-3 15-8 7-5 15-4 14-1 7 2 4 2h13l14 1 24-1 30-4 17 1 13-2 16-3z" fill="#D8D1C8"/>
<path transform="translate(1725,600)" d="m0 0h3l-1 9-10 20-10 14-9 10-10 9-5 5h-3l-1 2-8 6-21 13-15 8-13 5-9 4-20 8-8 3h-8l-5-3-1-7 5-4 12-4 14-4 26-10 1-2 4-1 5-4 10-6 21-12 13-9 5-5 11-9h2v-2l5-5 4-5 7-11 6-8z" fill="#C0B8AF"/>
<path transform="translate(1595,378)" d="m0 0 9 2 9 4 13 4 11 6 17 10 11 7 7 5 4 5v2l4 2 11 11 6 9 7 10 4 10 4 6 1 6-3 2h-9l-6-2-7-8-10-14-7-10-8-7-3-4v-2l-4-2-7-8-10-10-14-10-10-7-10-6-11-7-1-3z" fill="#504B43"/>
<path transform="translate(1620,726)" d="m0 0h19l9 3 11 1 23 5 7 1 34 2 5 2 3 4-1 4h-3l-7-1-14-1h-8l5 3-1 4-8 3h-3l-8 4-6 1-3-2-9 1-5-2-1-5-20-8-3-1-16-1-6-2-12-1-23-2v-4l20-4z" fill="#E7E1DA"/>
<path transform="translate(334,643)" d="m0 0 7 1 15 9 15 6 17 7 15 9 4 4v9l-6 10-3 2 1-5 2-6-1-7-6-2-17-6-20-6-11-5-8-1-6 3-4 5-10 15-7 9h-2l-2 4-6 7h-2l-2 4-9 8h-2l-1 3-2 1v6l11 4 6 1h13l13-2h7v1l-15 3-6 1h-18l-12-3-6-4-3-3v-7l2-3h2l2-5 4-5 8-6 6-10 10-7 9-16 4-13 4-6 4-3z" fill="#D7D0C7"/>
<path transform="translate(1406,354)" d="m0 0 5 2 3 4 2 13v32h2l1-31 2-1v40l-2 31h-2l-2-29-1-41-2-12-1-3-9 1-3 4-1 14 2 6 5 6v9l-5 6-22 8-21 9-6 4-22 11-10 7-10 8-10 10-9 13-3 6-6 13-6 16-4 18-3 14-1 9v15l3 15 5 12 5 8 9 2 2 4-2 8h-2v-6l-8-5-4-5-7-15-4-14-2-21v-15l3-17 4-11 8-17 10-17 4-7h2l2-5 12-12 11-9 15-10 22-12 21-11 11-6 1-5-4-9 1-19 5-7 11-5z" fill="#D8D1C8"/>
<path transform="translate(1255,537)" d="m0 0h1l3 27 5 19 5 13 12 22 2 5-1 5h-5l-12-8v-2l-4-1h-7l-3 2 1 4 15 9 7 5 2 4h-2l5 5 12 10-1 4h-12l8 4-2 2-4-1-11-7-10 2h-20l-3-5-1-5v-7l2-2v-9l-1-1v-6l1-4-3-7-2-7-4-5 2-1 5 5 4 3 2-4 2-2h6l10 5 8 6h4l1-3-8-19-6-17-4-21-1-1 1-15z" fill="#908D87"/>
<path transform="translate(1330,371)" d="m0 0h8l5 3 4 6 3 1 2 7v7h2l3 11 1-5v-12l1-6h1l2 12v11l-2 3h-2l-1 3-27 16-18 13-13 12-3 3h-2l-2 4-9 11-11 18-7 15-3 8-1 8-1 3-1 7v19l1 5-1 5h2l1 10 1 3-2 2-2-5-3-21v-11l2-19 4-16 8-19 7-13 2-3h2l1-4h2v-2h2v-2h2l2-4 17-17 6-9 6-18 4-10 1-5v-13l-3-3-5-1v-2l13 1 4 3 1-4v-3z" fill="#A0A2A0"/>
<path transform="translate(1165,474)" d="m0 0h10l5 2 27 3 2 3-2 5-2-4v-2h-15l-20-3 1 7 3 3v2l5 2 5 6 4 8 1 11-1 16-2 5-5 5-6 3-9 3-2 12-1 9-9 16-9 12-4 6-5 4-4 5h-2l-2 4-3 5 2 4 12-2 12-6-2 4-14 7h-7v2h-8v2l-6 1h-9l-2-4 3-8 3-4h2v-2l8-6 10-9 6-8 10-17 3-9 3-12v-13l4-4h18l5-3 4-13 2-1v-12l-4-8v-3l-6 1-7-8-3-6-1-6z" fill="#838381"/>
<path transform="translate(1061,514)" d="m0 0h8v2l-27 5-26 3-26 5-23 3-38 6-29 2-57 7-15 2-9 5-4 3-6 2-20 3-17 4-47 6-21 3-33 2-24 1-20 2-45 1-11 3-3 3 2 2 8 4-5 4-9 1-3-1-3 1-3-3-6-1 2 4-4 1-9-5-1-5 1-4 8-4 8-1 2 1 15-3 12-2 64-2 27-1 28-2 21-3 38-4 14-3 4-1 7-1 4-1 7-1v-1l15-2 6-3 5-5 3-1 32-3 34-4 21-2 4-1 6 1v-2h9v-1h6l1-1 9 1v-2h6l1-1h5l5-1 9-2h8v-1h8l5-2 9-1 10-2 4 1 1-2 5 1v-2h6v-1l8 1v-2l6-1h9v-1z" fill="#E7E1DA"/>
<path transform="translate(347,690)" d="m0 0h16l8 2h19l3 2-1 5-7 9-8 5-12 4-6 3-10 3-14 4-9 1h-15l-5-2v-4l9-6 10-7 4-7 8-7 7-4z" fill="#FDFDFD"/>
<path transform="translate(1747,565)" d="m0 0h5l8 29 6 28v11l-3 12-2 5-1 11h-1l-2-8-4-1-3 1h-11l-5-5-4-2-2-6v-5h-2l-1 2-1-2h-3l-1-6 2-5 2-6 2-4 2-1 1-6 4-4 1-5 3 1-3 12-1 7v15l2 3 4-4 8-23 4-10 1-4v-13l-8 2-2 6-4 8-3-3 2-4h2l2-9 2-8 3-6z" fill="#918D87"/>
<path transform="translate(1715,855)" d="m0 0h14l6 3-2 5-20 4-55 8-66 11-20 5h-4l2-6 4-6 9-4 10-3 31-4 30-5 17-2 28-4z" fill="#524D46"/>
<path transform="translate(1264,674)" d="m0 0 5 1 9 6 19 7 15 4 7 3-1 3h-12l-12-1-26-1-74-6-9-1 2-2-18-2-3-1-1-3 2-2h21l20 1h11l15-1 6-2 21-2z" fill="#FCFCFC"/>
<path transform="translate(1699,511)" d="m0 0 6 2 20-1h15l4 2v3l-4 1 2-4-32 3-3 1-3 9-1 26-5 20-4 12-3 7-4 11-1 2h-2l-1 4-1 2h-2v3h-2l-1 4-7 11-3 1-1 4-11 12h-3l-2 4-4 5-5 2-4 2 1 2h-2v2l-3 1-1 2-4 1-1 2-3 3v1l-3 2h-2l-7 3-31 15-20 6-2 2-1 7-2-1v-11l18-5 17-8 13-7h3l3-3 5-2 12-8 8-8 5-4 3-4h2l2-4 5-5 3-1 2-4 5-5 2-3h2l2-5 7-14 12-33 5-18 3-15v-14l1-9 2-5z" fill="#A09080"/>
<path transform="translate(527,841)" d="m0 0h48l7 3 1 6-10 8-10 5-7 2-9 1h-34l-9-3-6-3-2-5 5-6 12-5z" fill="#D8D1C8"/>
<path transform="translate(1752,654)" d="m0 0 5 2v4l-3 2-12 2-5 3-1 2v10l1 9-5 1-17 2-17-5h-14l-15 4-21 9h-3l1-3 11-6 12-9 19-14 13-12h3l4 7 10 3 5 3 6-1 3-2 2-9 1-1z" fill="#504B43"/>
<path transform="translate(1438,883)" d="m0 0h20l9 2 5 4 3 8v4l-4-2-10-6-11-2-31 2-61 7-58 8-32 4h-13l-1-3 10-4 46-6 16-3 45-6 26-4z" fill="#534F47"/>
<path transform="translate(1757,661)" d="m0 0h2v16l3 7 1 2v11l-2 4-3 3-2 4-2 22-5 1-5-8-7-14-1-6v-3l-6-2h-11l-10 1-3-2 23-2-21 1-13-5-9-2v-1h8l10 4 15 2-1-1-12-1v-2l-17-3 2-2h7l17 5 21-2-1-12 2-7 5-4 14-3z" fill="#918D86"/>
<path transform="translate(1472,731)" d="m0 0h5l3 6 2 22 1 15 1 30 2 18-3 11-6 9-4-2-3-16-1-27-3-32-3-21 3-8h2v-2z" fill="#838381"/>
<path transform="translate(663,775)" d="m0 0 14 1 6 1 20 2 10 3 3 4-3 9-6 5-8 3-5 1h-25l-10-4-7-6-3-6v-5l5-5z" fill="#A1A2A0"/>
<path transform="translate(1459,702)" d="m0 0h11l13 2 5 2 4 9 5 33 5 36 3 17 1 6-3 3h-9l-3-4-2-10-2-25-2-30-3-15-6-12-9-3-18-2-3-2v-3z" fill="#FDFDFD"/>
<path transform="translate(1164,674)" d="m0 0h12l9 2 15 1 2 1 11 1v1l-10 1-15-1h-21l-1 4 24 2 2 2h-6l31 3 51 4 6 1v1h-15l-50-4-63-4-31 1-17 1h-8l-5 2-8-1-1-7 2-3 9-1 4 1 9-2 1-1 21-1 6-2h11l7 2 7-1z" fill="#D8D1C8"/>
<path transform="translate(1034,690)" d="m0 0 15 1v4l-9 2-6 2-25 4-10 2-24 1-67 10-46 5-20 3h-5l-4-5 3-1 2 2 1-2 16-3 13-2h11l13-3 9-2 4-1 9-1 7-1 4-1 11-1 4-1h5v-1l34-3 14-2h9v1l-11 2 1 1h16l1-3h-6v-2l17-1v1l-7 2 6 1 5-2 11-1v-2l-5-1z" fill="#E7E1DA"/>
<path transform="translate(556,620)" d="m0 0 15 5 15 2 15 3 14 7 1 1h6l6-3h11l5 3 11 1 20-4 35-3 30-5h17l21-2h7l-1 2-26 3-2 2-4-1-1-1h-11l-6 2-33 5-22 2h20l-3 2h-16l-4 3-18-2-1 2h-2l-1 3-4 1-15-2-6-1-2 2-8 2-7-1-10-4-12-6-9-2-16-2-9-4-5-3 2-2 8 4 16 3-16-4-4-2v-2l-2-1z" fill="#E7E1DA"/>
<path transform="translate(1678,668)" d="m0 0v3l-12 9-17 12-19 9-5 5-4 2 27-6v-2l8-1-1 2-9 2v3l-6 1-1 2-11 4-2-1v2l-15 5-17 4-12 2-10 6-2 3 1 12h-2l-2-9v-7l2-3h2l1-3 3-2-6-5-3-5v-8l5-5 11-5 16-5 20-7h2l1-2h4l1-2 8-3 2-3 3 1-5 9-4 2-20 8-17 6-15 4-6 4 1 7 4 2h8l40-16 12-5 15-8 20-13z" fill="#918E88"/>
<path transform="translate(1627,350)" d="m0 0 9 2 6 5 5 12 3 17v6l-4 1-6-3-11-8-19-10-15-9v-2l-4-2-1-4 1-2 7-2h16z" fill="#C1B9B0"/>
<path transform="translate(1214,742)" d="m0 0 4 2 3 3 1 4 8 16 1 6 3 6v15l-1 9 1 13-2 18-1 4-4-2-5-8-2-8-1-22-6-8-2-3v-8l1-4 1-32z" fill="#838381"/>
<path transform="translate(1303,634)" d="m0 0 7 4 20 13 23 12 13 5 42 10 28 4 25 1 21-3 25-8 5-1-2 4-3-1 2 12 3 4v2l4 2 6 4 8 2 11 1 6 3 3 4-1 2-4-4v3l-14-1-6 1-5-4v-2h-2v-2l-4-2-5-3-5 1-5 2-1 6h-1l-1-18-2-5-14 1-1 1-28 3h-41l-10-4-13-4-16-4-2-1v-2l-7-2-8-4-9-3-17-10-10-7-15-10z" fill="#E9E3DD"/>
<path transform="translate(1608,428)" d="m0 0 4 2 6 10 2 2v3h2l1 4h3l8 19 6 13 8 19 4 15 1 17v11l-4 23-5 15-4 8-2-2 4-11 3-14v-32l-4-13-3-12-6-19-5-9-11-21 1-3-4-10-4-9v-3z" fill="#A0A2A0"/>
<path transform="translate(407,605)" d="m0 0h8l7 2 10 8 3 8 2 19v10l-5 12-15 20-9 10-2 1 2-4 9-14 6-15v-12l-5-12-8-15-4-7v-3l-2-1 1-5z" fill="#504B43"/>
<path transform="translate(1208,719)" d="m0 0 6 3 5 5 12 9 11 4 20 4 16 4 15 4 48 16 9 6v5l-7 3-33 3-28 4-26 2-9 1v-2l4-1 3 1 1-2 27-2 27-4 14-3 3-3-4-4-6-3-16-6-14-6-15-5-20-4-11-4-12-6-4-1-7-7-5-6-4-3z" fill="#E7E1DA"/>
<path transform="translate(1479,685)" d="m0 0 11 1 4 4 3 17 1 9 2 7 2 12v9h2l6 42v15l-5-2-3-8-5-35-2-16-2-25-4-14-4-2-17-1v-1l-14-1-1-4 8-3h7l1-2 10-1z" fill="#A1A2A0"/>
<path transform="translate(1209,486)" d="m0 0 3 1-1 2 3 3 2 5-1 5 1 13 1 4h-2l1 2h2v5h-2l2 5v20l1 3v4h3l1 6 2 1v3l2 1 1 2-1 9-3 1-4-3v-2h-3l-4-11-7-24-4-22v-25l3-7h3z" fill="#9F9080"/>
<path transform="translate(1285,617)" d="m0 0 5 2 6 8 7 6v3l4 2 20 13 10 6 12 7 7 2 6 2v2h6l1 4 18 4 13 4 10 4h41l28-3 1-1 14-1 2 2 1 4 1 18 3 15 2 14v10h-1l-3-21-3-14-2-16-2-6-9-1v1h-10l-4 1-9 1-12 2h-33l-13-2-12-6-15-3-8-5-1-2-4-1-11-4-8-1v-2l-4 1-8-4v-2l-4-1-1-2h-3l-2-1v-2l-4-2-10-8-11-9-7-8-4-8z" fill="#C0B9B0"/>
<path transform="translate(1227,542)" d="m0 0 8 3 4 5 5 8 8 6 1 9v13l-2 9-4 3-10-1-1-16-3-6-3-3-3-7-5-8-3 1-2-9v-5h3v3l4-4z" fill="#908C86"/>
<path transform="translate(402,597)" d="m0 0h12l10 5 5 5 6 9 2 6 1 13v15h-1l-3-27-3-8-10-8-6-1h-8l-2 4 2 6 4 7 8 15 5 12v12l-6 15-7 11-1-2 3-5 3-8-1-9 1-1 1-4 1 3v-5l-4-8v-2h2l3 6-2-6-8-10v-2h-2l-8-11-5-6-6-10-1-4 4-5z" fill="#8E8C86"/>
<path transform="translate(1223,708)" d="m0 0 13 2 25 5 38 11 25 8 20 5 33 6 26 2 25 1 15 2 11 4 4 5 2 5-1 8h-1l-3-10-4-4-28-4-37-3-28-4-27-6-20-6-35-12-23-6-22-4-10-2h-13l-1 3 1 5-2-1-2-7 1-2z" fill="#C1B9B0"/>
<path transform="translate(1720,850)" d="m0 0h14l6 3 2 2v4l-6 3-3-1 1-3-5-2h-14l-44 6-31 4-16 3-31 4-18 6-5 8-2 5-12 3 6-8 7-10 5-4 13-4 50-8 16-2 2-1v-2l7 1-2-2 11-2h6v1h7l2-2v2z" fill="#838381"/>
<path transform="translate(1181,517)" d="m0 0h1v8l-3 10-3 3-9 1h-12l-3 1v15l-4 17-9 16-6 9-9 10-11 9h-2v2h-2v2l-5 3-13 10-6 3v2l3 2-10 2h-8l-2-1-2-5 5-2 9-2 8-4 11-6 3-1v-2h3l-1-2-4 1 4-4 13-10 4-2v-2l5-5 7-10 8-16 3-9 1-6v-14l5-5h16l6-3 6-5z" fill="#908D87"/>
<path transform="translate(1173,526)" d="m0 0 2 1-2 5-4 3-3 1h-16l-4 4v17l-3 10-8 16-7 11-5 6h-2v2l-13 10-10 5-4-2 13-8 13-13 4-6-3 1 2-4 6-10 4-9 2-6v-7l-5-15 1-6 4-2h5l-3 2 9-1 19 1 5-3z" fill="#A0A2A0"/>
<path transform="translate(1424,880)" d="m0 0h39l10 3 4 5 2 9 1 8h-3l-3-4-1-8-4-6-5-2-6-1h-20l-41 3-55 8-29 4-10 2-39 5-10 3 1 2 5 1v1h-6l-2-3v-6l10-3 38-4 14-3 39-5 37-5 9-1 4-1h8l4-1z" fill="#838381"/>
<path transform="translate(972,525)" d="m0 0h10l1 3h-9l-7 1-2 1-4-1-1 2h-5l-3 1-4-1v2l-9-1-1 2h-5l-4 1-6-1v2h-9l-1 1-39 4-24 3-27 2-2 4-6 4-3-1 5-3 5-10 4-5 2-1h48l40-2 43-5z" fill="#D8D1C8"/>
<path transform="translate(1248,628)" d="m0 0 7 1 8 3 9 6 5 7 8 6 6 5-1 4h-11l-2-1v-2l-4-2-3-2-9 1-8 1-9-2-3-4-1-8 1-9 2-3z" fill="#838381"/>
<path transform="translate(1728,514)" d="m0 0h11l-2 3h-2v2l-5 4v32l-1 8-1 1-2 11-5 15-8 15-7 10h-2l-1 5-7 6h-2l-1 4-4 2-4 5-11 9-6 7-4 1-1 3-6 2v2h-3v4h-4l1 2-5 3h-2v-3l2-1-2-2 12-7 8-7h2l2-4h2v-2l10-8 6-7h2l1-3 7-6 6-8 10-17 5-11 5-15 3-16-1-33 2-2 4-2z" fill="#8C8A85"/>
<path transform="translate(1438,537)" d="m0 0 28 1 24 3 24 5 22 8 16 7 4 4 4 3v2l-6-2-15-7-17-6-18-5-24-4-16-2h-33l-22 2h-7v-2l13-4 3-2z" fill="#C4BCB4"/>
<path transform="translate(853,660)" d="m0 0h8l3 1 2 5-1 3-20 3-14 1-4-2h-7l-29 6-28 5-32 4h-17v-1l27-5 21-3 33-6 12-2 25-6z" fill="#8E8B86"/>
<path transform="translate(487,627)" d="m0 0 3 1 8 13 8 9 5 5 6 7 4 3v2h2l3 6-2 4-8-3-21-12-6-7-7-14-1-7 4-6z" fill="#504B43"/>
<path transform="translate(1198,619)" d="m0 0 4 1v4l-2 2v6l3 5 9 5 4 8 1 10-2 2-17 3-4-1-3-8-1-3v-14l5-12 2-7z" fill="#918D86"/>
<path transform="translate(495,619)" d="m0 0 5 2 6 8 2 1 3 5 8 10 2 4 8 8 5 3 5 6 5 4v2l5 2 10 6 16 4h20l5 3 1 2-4 4h-24l-9-1v-1h7l-1-3-12-4-10-5-8-6-31-31-8-11-3-5-12-4v-2z" fill="#8F8C86"/>
<path transform="translate(1425,363)" d="m0 0 31 3 35 6 23 6 10 3 3 3 7 3 10 6 11 9 3 4-1 3-1-3-3-1-2-3-3 3-10-1h-3v-2l-3 1v-2l6-1-2-5-9-7-15-6-21-6-40-5-12-1h-13l-5 4 1-8z" fill="#D8D1C8"/>
<path transform="translate(1684,688)" d="m0 0 13 3 11 4 22-1-1 2-9 1h11l5 2 2 4h-2l-1 2-5-2-4 1h-12l-7 1-13-1-12-5-7-2-7 1-15 6-7 1v-2l9-3 2-3 4 1v-2h2l1-2 1 1 2-1v-2l4-1z" fill="#A09080"/>
<path transform="translate(1728,817)" d="m0 0h12v2l-14 2-6 1h8l7 1v1l-17 2-12 2-17-1-23 3-7 1h-30l3-2 3-1 7 1 7-1 8-1h-25v-1l19-2 5-1 15-1 12-2h8l6-1h11l5-1z" fill="#908E88"/>
<path transform="translate(1748,582)" d="m0 0h4l1 3v10l-4 12-7 19-4 9-4 2-2-4v-15l3-14 5-12 4-8z" fill="#504B43"/>
<path transform="translate(1524,726)" d="m0 0 3 1 3 12 4 24 4 17 1 10 3 5 2 2-15 1-4 2-2 6-16 4-5 2h-8l-3-2-1-7 4 6h9l2-2-2-9v-6h1l2 7 4 2v-9h1l2 7 9-1 10-4 1-4-5-26-4-30z" fill="#C3BBB2"/>
<path transform="translate(1298,713)" d="m0 0 17 1 24 6 21 7 6 3v3l-9 1-15-2-38-11-6-4z" fill="#838381"/>
<path transform="translate(1635,467)" d="m0 0 3 2 7 18 7 17 2 15 3-1-1 20-1 7h2l2-4 5-5 1-2-3-10 1-6 3-1 3 6v9l-2 11-3 5-6 8-2 4h-2l-1-2-4 15 2 3v8h-4l-3-4 3-10 4-19 1-8v-15l-1-13-5-18-7-16-4-9z" fill="#8F8C86"/>
<path transform="translate(1560,703)" d="m0 0h2l4 13 2 3v6l-2 5 1 11 5 29 6 34v9l-4 1-2-2-2-23-6-32-2-18-3-21v-13z" fill="#504B43"/>
<path transform="translate(501,611)" d="m0 0h6l8 8 6 8 10 12 4 6 5 6-4-2-5-5-7-6-2 1 8 10 8 7 10 8 1 3-4-2-11-8-12-11-10-11-7-9-6-7-12-2 4-2 1-1 8 1h3l-4-3z" fill="#928D85"/>
<path transform="translate(1717,515)" d="m0 0h11v1l-16 2-4 1-2 10-1 23-4 19-5 16-3 9-8 15-7 10-6 9-7 9-3 4h-2l-2 4-8 8-13 10-5 4-5-2v-1h5v-4l4 1 1-5 10-5 5-7 5-3 9-10 1-3 5-5 4-7 2-4h2v-3h2l2-6h2l3-9 3-10 3-8 4-13 3-12 1-26 3-9 4-2z" fill="#8C8A85"/>
<path transform="translate(1203,706)" d="m0 0 18 1 2 2h-18l1 6 4 7 11 13 7 9 13 24 6 9-2 22-2-1-2-7-5-16-11-25-7-12-7-9-3-5-6-8-1-2v-6z" fill="#C0B8AF"/>
<path transform="translate(1092,692)" d="m0 0h27l7 1-1 3-10 4-12 2-12 1h-16l-22-1v-2l15-4 3-1 14-1z" fill="#A0A2A0"/>
<path transform="translate(1678,668)" d="m0 0v3l-12 9-17 12-19 9-19 8-23 9-5 1h-9l-6-7v-6l5-5 13-5 32-10 11-4 1 2-20 8-17 6-15 4-6 4 1 7 4 2h8l40-16 12-5 15-8 20-13z" fill="#A0A19F"/>
<path transform="translate(194,670)" d="m0 0h1v6l4 2 1 4v10l-2 10-1 10-1 2h-2v2l-7-1v9h-2l-1-4v-16l3-15z" fill="#C1B9B0"/>
<path transform="translate(1609,407)" d="m0 0 7 2 6 3 7 3 9 6v2h2l4 5v2h2l5 7-1 4-8-1-16-12-5-6-11-7-2-3z" fill="#C1B9B0"/>
<path transform="translate(1208,499)" d="m0 0 3 3 2 11 1 15 4 22 2 10 1 9-4-2-5-12-6-21-1-9v-18l2-7z" fill="#C1B9B0"/>
<path transform="translate(486,622)" d="m0 0 7 1 6 3 7 10 4 6v2l4 2 8 8v2l5 2 8 9 5 5 5 4 9 5 9 4 8 3v3h-8l-18-3 4-1-5-5-6-5v-2h-2l-8-10-8-7v-2l-4-2-3-3v-2l-4-2-8-9-6-8-6-5h-4z" fill="#838381"/>
<path transform="translate(1626,360)" d="m0 0h7l5 3 4 4 3 11v9l-3 1-10-8-13-8-5-5 2-3 7-1 3-1z" fill="#D8D1C8"/>
<path transform="translate(1544,812)" d="m0 0h2l1 3v34l-2 37v9l3 2 7-1 5-3h3l-1 5-7 5-11 3-3-2 1-72z" fill="#514C44"/>
<path transform="translate(1285,617)" d="m0 0 5 2 6 8 7 6v3l4 2 20 13 10 6 12 7 7 2 6 2v2h6l-1 2-18-4-6-1v-2l-4 1-8-4v-2l-4-1-1-2h-3l-2-1v-2l-4-2-10-8-11-9-7-8-4-8z" fill="#C1BAB2"/>
<path transform="translate(1730,647)" d="m0 0h5l2 4 2 1h11l4-1 4 2 1 8-6 3-11 2-5 4-1 6h-1v-7l5-5 7-2 7-1 3-1-1-4-4-1-17 1-2 9-6 4-6-1-6-3-7-2-4-6v-2h-2l1-4 5-3 3 7 2 3 8 3 1-2h4l3-7z" fill="#838381"/>
<path transform="translate(1303,634)" d="m0 0 7 4 20 13 23 12 13 5 42 10 28 4 15 1 4 2h-44l-16-6-26-6-4-2-11-5-9-3-17-10-10-7-15-10z" fill="#FCFCFB"/>
<path transform="translate(755,523)" d="m0 0h6l-1 2-34 5-21 4h-17l-20 2-7 2-7-1-7 3-22 1-7-2-15-1v-1l6-1 44-2 36-3 36-4z" fill="#D9D2C9"/>
<path transform="translate(1165,677)" d="m0 0h17l13 1 18 1v1l-10 1-15-1h-21l-1 4 24 2 2 2h-6l-1 1-18-1-11-2-29 1-4-2 1-4 6-2h12l3 1h8l10-2z" fill="#E8E3DC"/>
<path transform="translate(504,607)" d="m0 0 9 1 6 4 4 6v2l3 1 7 12 11 12 5 4v2h3v2l5 2 4 4-5-2-5-3h-4l-10-8-4-5-5-5-11-12-6-8-6-5-2-2z" fill="#A0A2A0"/>
<path transform="translate(402,597)" d="m0 0h12l8 4-2 1-5-2-8-1-9 2-4 2 1 7 4 7 9 14 3 3 9 14 2 6v6l1 5-7 16-5 7-1-2 3-5 3-8-1-9 1-1 1-4 1 3v-5l-4-8v-2h2l3 6-2-6-8-10v-2h-2l-8-11-5-6-6-10-1-4 4-5z" fill="#8F8C86"/>
<path transform="translate(1165,474)" d="m0 0h10l5 2 27 3 2 3-2 5-2-4v-2h-15l-20-3 1 7 3 3v2l5 2 5 6 4 8 1 11-3 12-1-4 1-14-4-6-2-4v-3l-6 1-7-8-3-6-1-6z" fill="#888683"/>
<path transform="translate(1714,637)" d="m0 0 3 1v3l4-3 5 1 3 6-1 10-2 5-5 1-4-1-5-2-3-4-2-5-3-1 7-5-1-2h2z" fill="#908D87"/>
<path transform="translate(1668,680)" d="m0 0 2 1-10 8-14 8-1 2 30-12 9-2h7v1l13 3 2 1v2h13v2h-11l-10-3-4-2h-10l-11 2-1 2-5-1-1 4h-5v2l-5 1-6 2-2-1v2l-21 6-8 1 3-3 12-6 17-8z" fill="#898884"/>
<path transform="translate(773,632)" d="m0 0 2 2v17l-2 5-4-2h-5l-5 1-2-3v-16l2-3h5l2 2h6z" fill="#C1B9B0"/>
<path transform="translate(1514,912)" d="m0 0h11l4 2v5l-9 2-24 3-7-1-4-5v-4h17z" fill="#848482"/>
<path transform="translate(1761,602)" d="m0 0h1l4 20v11l-3 12-2 5-1-4 2-5v-14l-9 1-6-1v-9l2-4 3-3 1-2 7-1z" fill="#C4BDB5"/>
<path transform="translate(896,565)" d="m0 0h7l4 4 2 5-1 5-21 3-5-2-1-6 4-5z" fill="#D8D1C8"/>
<path transform="translate(1276,722)" d="m0 0 7 1 36 12 24 6 28 5 12 2 48 4 18 3 6 3 3 5-1 4-4-8-7-2-34-4-26-2-28-4-27-6-20-6-35-12z" fill="#D8D1C8"/>
<path transform="translate(1494,374)" d="m0 0 10 3 10 1 10 3 3 3 7 3 10 6 11 9 3 4-1 3-1-3-3-1-2-3-3 3-10-1h-3v-2l-3 1v-2l6-1-2-5-9-7-15-6-21-6z" fill="#E7E1DA"/>
<path transform="translate(1758,664)" d="m0 0h1v13l3 7 1 2v11h-1l-1-11h-14l-4-3v-2h-2v-7l2-4 3-2 10-2z" fill="#C1B9B0"/>
<path transform="translate(841,619)" d="m0 0 4 1-6 2v1l-5 1 1 19-2-1-1-3h-3v6l1 2v6h-2v2l-6 1-1-1 1-12 2-8 1-11-2-1-1-2z" fill="#D8D1C8"/>
<path transform="translate(472,738)" d="m0 0h9l2 1-1 3-8 2-19 2-24 1-1-6 7-2h21z" fill="#E8E2DB"/>
<path transform="translate(1636,672)" d="m0 0 3 1-5 9-9 2-13 5-30 9-12 6-1 2v6l5 6 2 1v2l-5-2-5-7v-8l5-5 11-5 16-5 20-7h2l1-2h4l1-2 8-3z" fill="#928E87"/>
<path transform="translate(1624,668)" d="m0 0 2 1v2l-4 2 2 1-3 1h-2l-7 3-31 15-20 6-2 2-1 7-2-1v-11l18-5 17-8 13-7h3l3-3h5l8-4z" fill="#95928D"/>
<path transform="translate(1747,565)" d="m0 0h5l4 14v13l-5 14-2 1 3-12v-13l-8 2-2 6-4 8-3-3 2-4h2l2-9 2-8 3-6z" fill="#848481"/>
<path transform="translate(726,736)" d="m0 0h10l1 3-13 3-18 2h-11l-7-1h-8l-5 1h-14l4-4h30l9-2z" fill="#E8E2DB"/>
<path transform="translate(743,633)" d="m0 0h7l2 3 1 18-8 4h-2l-2-4-1-11-1-3h-2l1-4z" fill="#C1B9B0"/>
<path transform="translate(1554,735)" d="m0 0h2l4 23 3 27v9l-2 6-3 3h-9l-5-5v-2l-4-2-2-4 1-4 4 8 6 5 7-1 2-3 1-5-1-16-4-30z" fill="#D7D0C7"/>
<path transform="translate(1497,731)" d="m0 0 2 3 3 17 3 23 3 14v10h-2l-3-6-1-1-3-19-2-27z" fill="#8A8987"/>
<path transform="translate(1532,780)" d="m0 0 2 3 1 4v8l-10 5-2 6-16 4-5 2h-8l-3-2-1-7 4 6h9l2-2-2-9v-6h1l2 7 4 2v-9h1l2 7 9-1 10-4 1-4z" fill="#D8D1C8"/>
<path transform="translate(1760,698)" d="m0 0 2 1-4 5-2 4-2 22-5 1-5-8-7-14h3l5 5 5-1 2-9z" fill="#A0A2A0"/>
<path transform="translate(1521,346)" d="m0 0 24 1 14 8 16 5 12 5 3 3-11-3-24-8-13-6h-12l2 5-5-1-9-5v-3z" fill="#908D87"/>
<path transform="translate(243,667)" d="m0 0h4l2 9-2 17-3 6-4-1-1-1v-17l3-12z" fill="#908D87"/>
<path transform="translate(1204,527)" d="m0 0 2 3 4 15 7 21 4 3-2-10 3-1 1 6 2 1v3l2 1 1 2-1 9-3 1-4-3v-2h-3l-4-11-7-24-2-9z" fill="#928D85"/>
<path transform="translate(1701,653)" d="m0 0v3l-8 8-13 10-8 6-7 3-11 8-17 9-5 2-3-1 17-9 7-4 20-14 6-5 1-2h3l1-2 6-4 8-6z" fill="#908D86"/>
<path transform="translate(1176,633)" d="m0 0 5 1 2 2v7l-3 6-2 1h-8l-5-5 2-5 3-3h2v-2z" fill="#D8D1C8"/>
<path transform="translate(1223,708)" d="m0 0 13 2 25 5 31 9 1 2-10-2-18-4-22-5-16-3-6-1h-13l-1 3 1 5-2-1-2-7 1-2z" fill="#C1B9B0"/>
<path transform="translate(407,598)" d="m0 0 10 2 5 2-3 1-5-2-10 1-5 2-1 4 4 8v3h2l7 11 9 14 3 7 1 11h-2l-1-3-1-9-8-13-2-5-3-1-9-14-4-7-1-7 8-4z" fill="#838381"/>
<path transform="translate(1664,517)" d="m0 0h2l3 6v9l-2 11-3 5-7 9h-2l1-12 5-5 4-6-3-10 1-6z" fill="#838381"/>
<path transform="translate(1737,687)" d="m0 0 7 2 9 3 1 3-4 1-2 11-5-1-6-9-3-3-4-1h-10v-1l6-1h10l2 3-2-6z" fill="#838381"/>
<path transform="translate(1532,350)" d="m0 0h10l18 8 25 8-3 1-20-4-12-5-6-4h-6v2l5 3 10 3 9 5-3 1-14-6-13-6-2-2v-3z" fill="#838381"/>
<path transform="translate(1489,681)" d="m0 0h5l2 2 1 4 1 18 3 15 2 14v10h-1l-3-21-3-14-2-16-2-6-9-1v1h-11l-2-2 1-1 8-1 1-1z" fill="#C1B9B0"/>
<path transform="translate(1757,661)" d="m0 0h2l-1 4-5 3-7 1-3 2-2 10h2l4 4h11l3 1 1 6-4-4h-11l-6-2-2-5h-2l-1-3v-8l6-5 14-3z" fill="#928D86"/>
<path transform="translate(1420,373)" d="m0 0h1v40l-2 31h-2l-1-12v-27h2l1-31z" fill="#C7C0B7"/>
<path transform="translate(1373,551)" d="m0 0h8l-2 2-23 8-20 10-9 5-4-1 4-4 19-10 23-9z" fill="#DBD4CC"/>
<path transform="translate(1691,430)" d="m0 0 5 2 14 14-4-1 2 7 10 19 1 6-1 5h-13v-1h11l-2-12-8-16-10-13-5-6z" fill="#848381"/>
<path transform="translate(1369,673)" d="m0 0 13 2 17 4 12 5h55l-4 2-11 1h-41l-10-4-13-4-16-4z" fill="#D8D1C8"/>
<path transform="translate(1252,633)" d="m0 0h7l5 2 3 3-1 4-5 4-7 1-4-2-1-7z" fill="#504B43"/>
<path transform="translate(1624,728)" d="m0 0h10l10 4 16 2 17 7 4 2-9-1-15-4-13-2-10-4-9-1-14 1-12 1v-1l17-3z" fill="#D8D1C8"/>
<path transform="translate(1734,598)" d="m0 0 3 1-3 12-2 15h-1v-13l-3 7 1 7 4 11v2l4-1 1 3-2 2-4-1-4-10-5-4-1-7 4-8 2-1 1-6 4-4z" fill="#898883"/>
<path transform="translate(812,516)" d="m0 0 3 3 1 10v14l-3 4h-2l-2-4v-25z" fill="#A19180"/>
<path transform="translate(1195,636)" d="m0 0 5 5 2 4 1 14-1 1h-5l-4-5-1-3v-9l2-6z" fill="#838381"/>
<path transform="translate(634,535)" d="m0 0h20l-1 3-6 2-22 1-7-2-15-1v-1l6-1z" fill="#D8D1C8"/>
<path transform="translate(1624,712)" d="m0 0h2v2l-15 5-17 4-12 2-10 6-2 3 1 12h-2l-2-9v-7l13-8 7-2 14-2z" fill="#A0A2A0"/>
<path transform="translate(1668,680)" d="m0 0 2 1-10 8-14 8-1 2 5-1v3l-2-1v2l-21 6-8 1 3-3 12-6 17-8z" fill="#838381"/>
<path transform="translate(842,662)" d="m0 0h11l-1 5-7 2h-30l2-2 15-4z" fill="#838381"/>
<path transform="translate(1224,425)" d="m0 0 4 2-2 5-4 8-8 10-3-1 1-7 7-14z" fill="#838381"/>
<path transform="translate(1107,512)" d="m0 0 27 2 7 2 2 1-1 4h-18v-2l-11-3-8-2z" fill="#E8E2DB"/>
<path transform="translate(949,652)" d="m0 0 4 1-25 8-16-1h-19l-9-2v-2l20 2h3l3-1 24-2z" fill="#908D87"/>
<path transform="translate(1198,619)" d="m0 0 4 1v4l-2 2v6l3 5 5 3-3 2-4-1-4-6-3 1-1 7v9l1 6-2 1-2-6v-14l5-12 2-7z" fill="#A09181"/>
<path transform="translate(1424,366)" d="m0 0h15l4 1 12 1h3v2l4-1 5 1 10 1 3 1 10 1 1 2-14-1-38-4h-13l-5 4v-5h2z" fill="#E7E0D9"/>
<path transform="translate(1189,582)" d="m0 0 5 2 8 9 9 3 11 1v1l-20 1v-2l-4-2-4-6-7-1-4 4-3 4-5 5 2-5 6-9z" fill="#8A8984"/>
<path transform="translate(1524,726)" d="m0 0 3 1 3 12 4 24 4 17v6h-1l-6-25-2-11-1 7h-1l-3-23z" fill="#D8D1C8"/>
<path transform="translate(1218,427)" d="m0 0 2 1-4 9-4 7v5l4-2 6-8v3l-8 15-3 1-2-2-1-9 3-12 4-6z" fill="#908D87"/>
<path transform="translate(1512,916)" d="m0 0h16l1 3-9 2-9 1h-21l-1-2 12-2z" fill="#545048"/>
<path transform="translate(1643,665)" d="m0 0 4 1-3 1v2l-2 1 1 2-6 1-5 4-9 4-8-1 4-5 3-2 1-2 4-3h3l-2 4v2l8-4z" fill="#868582"/>
<path transform="translate(989,494)" d="m0 0 4 1 2 9-1 9-3 3h-3l-1-2v-16z" fill="#A19180"/>
<path transform="translate(482,627)" d="m0 0 2 4-2 3 1 7 7 14 6 7 20 11 1 3-4-1-8-4v-2l-5-1-10-8-10-19-1-3v-7z" fill="#8D8B85"/>
<path transform="translate(1414,351)" d="m0 0 2 2 2 7h2l1-2-1 16-1 32-2-1-1-33-1-14z" fill="#A0A2A0"/>
<path transform="translate(1594,634)" d="m0 0v3l-11 8-9 3v2l-24 11-21 7-6 1v-2l27-9 22-10 18-11z" fill="#F2EEEB"/>
<path transform="translate(1218,599)" d="m0 0h8v2h2l6 8 3 11 1 4-1 7 1 2v9l-3 1-1-19-3-9-2-8-1-3-5-1v-2h-5z" fill="#9E9183"/>
<path transform="translate(1624,668)" d="m0 0 2 1v2l-4 2 2 1-3 1h-2l-7 3-20 10h-4v-2l11-6 3-3 5-1 3-3h5l8-4z" fill="#959089"/>
<path transform="translate(1662,438)" d="m0 0 4 2 7 6 7 10 12 17 5 5v2l-4-1-3-3v-2h-2l-14-21-12-14z" fill="#8C8A85"/>
<path transform="translate(1691,685)" d="m0 0h7l17 5 20-2 4 4-1 3-2-4-18 2-12-1v-2l-17-3z" fill="#8E8C86"/>
<path transform="translate(1663,513)" d="m0 0 3 2v2l-3 3 1 9 2 6-5 6-5 4 1-10 2-4 1-12 2-5z" fill="#908D87"/>
<path transform="translate(1635,467)" d="m0 0 3 2 7 18 7 17 2 14-2 1-6-22-7-16-4-9z" fill="#908D87"/>
<path transform="translate(1213,608)" d="m0 0h8l1 7-5 3h-6l-4-4 1-4z" fill="#D8D1C8"/>
<path transform="translate(1675,640)" d="m0 0m-1 1v3l-7 7 1 2-4 1-1 3-6 2v2h-3v4h-4l1 2-5 3h-2v-3l2-1-2-2 12-7 8-7h2l2-4h2v-2z" fill="#8C8A85"/>
<path transform="translate(1217,623)" d="m0 0 7 2 1 5-3 3-4 1-7-3-1-4 3-3z" fill="#D8D1C8"/>
<path transform="translate(1061,514)" d="m0 0h8v2l-27 5h-12v-3l8 1v-2l6-1h9v-1z" fill="#E7E1DA"/>
<path transform="translate(1130,679)" d="m0 0h10v2h2l-1 3-7 3h-7l-4-2 1-4z" fill="#E8E2DB"/>
<path transform="translate(1242,582)" d="m0 0 5 1 2 8-1 4-1 1h-6l-3-3 1-7h2z" fill="#838381"/>
<path transform="translate(1706,445)" d="m0 0 6 2 3 3 6 17 1 3-4-2-4-5-7-14z" fill="#A29383"/>
<path transform="translate(1646,360)" d="m0 0 3 3 4 9 2 19 2 9-1 3-6-2 4-1-1-8h-2l-1-4 1-3-1-7 1-5-2-1z" fill="#8D8A85"/>
<path transform="translate(1714,637)" d="m0 0 3 1-2 5-2 8 1 4 6 2 1 4-4-1-5-2-3-4-2-5-3-1 7-5-1-2h2z" fill="#8F8C86"/>
<path transform="translate(1205,709)" d="m0 0h18l41 8 12 4-4 1-19-5-22-4-10-2h-13l-1 3 1 5-2-1-2-7z" fill="#D8D1C8"/>
<path transform="translate(1303,634)" d="m0 0 7 4 20 13 23 12 2 2-3 1-12-6-13-8-24-16z" fill="#F7F6F5"/>
<path transform="translate(340,671)" d="m0 0h7l24 6 12 4 10 2v1l-11-1-15-4-13-4-11-1-8 3-4 2 3-5z" fill="#D8D1C8"/>
<path transform="translate(242,672)" d="m0 0 3 1 1 10-2 8-4 2-1-1v-12z" fill="#838381"/>
<path transform="translate(1706,448)" d="m0 0 4 4 7 14 4 5 1 2v10l-1 2-9-1v-2l6-1v-8l-8-16-4-7z" fill="#908D87"/>
<path transform="translate(1233,437)" d="m0 0 4 1 1 3-4 6-5 4h-3l-1-6 6-7z" fill="#C1B9B0"/>
<path transform="translate(785,624)" d="m0 0m-7 1h7l-1 2-26 3-2 2-4-1-1-1-11-1 1-2h16z" fill="#E8E2DB"/>
<path transform="translate(1731,612)" d="m0 0 1 3v11l2 9h3l2-3h2l1 3-2 4h-2l-1 2-4-1-6-16 1-7z" fill="#8F8C86"/>
<path transform="translate(1503,744)" d="m0 0h1l6 42v15l-5-2-1-6 2 3v2h2l-2-18-1-13-2-15z" fill="#C0BBB4"/>
<path transform="translate(755,732)" d="m0 0h9l-1 5-5 1h-20l3-2z" fill="#E8E2DB"/>
<path transform="translate(865,626)" d="m0 0 4 2 2 6 1 12-5-2-2-3-1-14z" fill="#FCFCFC"/>
<path transform="translate(1209,486)" d="m0 0 3 1-1 2 3 3 2 5-3 4-3-8-3-1-2 4-1 3-1 20h-1v-25l3-7h3z" fill="#8F8B86"/>
<path transform="translate(1758,591)" d="m0 0 2 3 1 4v8l-1 2-7 2-2 4-3 1 2-6 3-3h2l1-9z" fill="#A2A3A1"/>
<path transform="translate(1717,515)" d="m0 0h11v1l-16 2-4 1-2 10-1 23h-1l-1-6v-19l3-9 4-2z" fill="#8E8B86"/>
<path transform="translate(1727,617)" d="m0 0 1 3 1 7 4 11v2l4-1 1 3-2 2-4-1-4-10-5-4 1-6z" fill="#838381"/>
<path transform="translate(1126,612)" d="m0 0v3l-5 5v5l2 2 5 1v3l-11-1-3-4 2-5 5-5z" fill="#8F8C86"/>
<path transform="translate(1722,625)" d="m0 0 2 4 6 5 3 9h3v4l-4 1-3-5-1-6v-2h-2l-1 2-1-2h-3l-1-6z" fill="#8E8B86"/>
<path transform="translate(1467,337)" d="m0 0h10l6 3v3l-2 1h-7l-6-3-2-3z" fill="#908D87"/>
<path transform="translate(255,780)" d="m0 0 13 3v3l-10 2-5-2-2-3 1-2z" fill="#908D87"/>
<path transform="translate(914,535)" d="m0 0m-1 1m-8 1h8v2l-29 3-15 1 1-2 14-2z" fill="#E8E2DB"/>
<path transform="translate(1701,653)" d="m0 0v3l-8 8-6 5-7 3h-3l3-5h3l1-2 6-4 8-6z" fill="#968F85"/>
<path transform="translate(895,569)" d="m0 0 5 1 2 2-1 4-10 2-2-2 1-4z" fill="#C1B9B0"/>
<path transform="translate(1184,477)" d="m0 0 17 1 7 2 1 2-2 5-2-4v-2h-15l-9-2z" fill="#8B8984"/>
<path transform="translate(1355,671)" d="m0 0 7 2 5 3 1 4-2 1-1-2-5 1-4-2h-2v-2l-3-1v-3z" fill="#868582"/>
<path transform="translate(1418,538)" d="m0 0h19v1l-12 1-8 3 1 2-16 1v-2l13-4z" fill="#D8D2C9"/>
<path transform="translate(385,709)" d="m0 0 2 1-7 5-13 5-4 2-3-1 5-5z" fill="#E0DAD2"/>
<path transform="translate(1214,515)" d="m0 0h2l1 4h-2l1 2h2v5h-2l2 5v13l-2-1-3-15z" fill="#988F83"/>
<path transform="translate(1706,452)" d="m0 0 3 1 8 16 2 5v7l-1 1h-13v-1h11l-2-12-8-16z" fill="#838381"/>
<path transform="translate(1749,578)" d="m0 0h5l2 3v11l-5 14-2 1 3-12v-13l-6 1z" fill="#848381"/>
<path transform="translate(1204,527)" d="m0 0 2 3 4 15 6 18v2h-3l-7-24-2-9z" fill="#968D82"/>
<path transform="translate(1223,468)" d="m0 0v3l-7 5-10 2-4-1 5-3h2l2-4 4-1 6 1z" fill="#908D87"/>
<path transform="translate(1455,368)" d="m0 0h3v2l4-1 5 1 10 1 3 1 10 1 1 2-14-1-26-3v-2z" fill="#E8E2DB"/>
<path transform="translate(1107,621)" d="m0 0 3 1v2h-2l2 8h10v1l-6 1h-9l-2-4 3-8z" fill="#8F8C86"/>
<path transform="translate(1684,685)" d="m0 0h7v1l13 3 2 1v2h13v2h-11l-10-3-4-2h-12z" fill="#838381"/>
<path transform="translate(1746,618)" d="m0 0 2 4-1 5h7l3 1 1-2 5 1v14h-1l-1-11h-13l-3-2v-7z" fill="#A0A2A0"/>
<path transform="translate(1189,582)" d="m0 0 4 1 2 6-8-1-4 4-3 4-5 5 2-5 6-9z" fill="#8A8884"/>
<path transform="translate(1416,415)" d="m0 0h1v10h2v-10h1v16l-1 13h-2l-1-12z" fill="#D8D1C8"/>
<path transform="translate(1416,345)" d="m0 0h5l1 7-2 8h-2l-3-7z" fill="#908E88"/>
<path transform="translate(416,659)" d="m0 0 2 3v2l2 1v8l-6 11-4 4 2-6 3-7 1-6-1-5 1-1z" fill="#979086"/>
<path transform="translate(1180,499)" d="m0 0 6 2 2 5 1 11-3 12-1-4 1-14-4-6z" fill="#8D8B86"/>
<path transform="translate(396,898)" d="m0 0 5 1 4 2v4l-8 2h-4l1-6-2-1 6 1z" fill="#A0A2A0"/>
<path transform="translate(1705,611)" d="m0 0 1 2-4 8-6 5h-2l-1 4-5 3-2-1 5-5h2l1-4 3-2 3-5z" fill="#898884"/>
<path transform="translate(1751,573)" d="m0 0 4 2 1 6-1 9h-1l-1-11-5 1-2 3h-3l1-4z" fill="#8F8D87"/>
<path transform="translate(1598,679)" d="m0 0 1 2-9 5h-2l1 3-8 4-7-1 4-3 16-8z" fill="#9A9994"/>
<path transform="translate(1643,665)" d="m0 0 4 1-3 1v2l-2 1 1 2-6 1-5 4-5 1v-3l12-7z" fill="#878683"/>
<path transform="translate(1228,421)" d="m0 0h5l-1 5-6 10-3 3 2-7 2-5-3-1-4 1 3-3z" fill="#908D87"/>
<path transform="translate(1494,374)" d="m0 0 10 3 10 1 3 1 1 4-10-2-17-5z" fill="#E4DED7"/>
<path transform="translate(1724,634)" d="m0 0 4 1 3 12-2 9-2 1 1-12-3-6-5 1-5 3 2-5 4-2z" fill="#A09080"/>
<path transform="translate(365,580)" d="m0 0 9 1 4 2-1 3h-7l-6-2-1-3z" fill="#C1B9B0"/>
<path transform="translate(1461,689)" d="m0 0 4 1h-2l3 6h-12l-1-4z" fill="#C0B8AF"/>
<path transform="translate(359,719)" d="m0 0h2l-1 4-14 5h-4l1-2h2l4-4z" fill="#E3DDD5"/>
<path transform="translate(414,647)" d="m0 0h2l3 6v2h2l2 10-2 5-2-1-1-12-4-8z" fill="#928D85"/>
<path transform="translate(1318,646)" d="m0 0 5 2 10 7 16 9-3 1-11-6-8-5-9-7z" fill="#D8D1C8"/>
<path transform="translate(1703,546)" d="m0 0h1v12l-4 16-3 2 2-11 3-12z" fill="#8B8984"/>
<path transform="translate(1633,369)" d="m0 0 4 1 3 4v6l-5-2-4-6z" fill="#E8E2DB"/>
<path transform="translate(1638,337)" d="m0 0 6 1-3 1 2 10 3 7-1 3-8-16-1-4z" fill="#8B8984"/>
<path transform="translate(1704,652)" d="m0 0h2l4 8 9 3 1 2-10-1-5-5-2-6z" fill="#8B8984"/>
<path transform="translate(1497,708)" d="m0 0h2l4 26v10h-1l-3-21-3-13z" fill="#C9C2B9"/>
<path transform="translate(1683,669)" d="m0 0 2 1-13 10-7 2 2-4 8-6 5-1z" fill="#8B8984"/>
<path transform="translate(1428,682)" d="m0 0 23 1 4 2h-26z" fill="#FDFDFD"/>
<path transform="translate(1489,679)" d="m0 0h6l3 4 1 13-1 9h-1l-1-18-2-5h-10l4-2z" fill="#D8D1C8"/>
<path transform="translate(1727,606)" d="m0 0 3 3-2 1 1 4h-3l-2 6-2 7-1-2h-2l2-6z" fill="#9F9081"/>
<path transform="translate(1669,525)" d="m0 0h1v14l-4 11-6 3 2-4 3-3 2-9z" fill="#908D87"/>
<path transform="translate(629,640)" d="m0 0 9 1 2 1v2h12l2 2h-14l-4-3h-6l-5 2-3-1z" fill="#D8D1C8"/>
<path transform="translate(1094,511)" d="m0 0 11 1v1l-24 1v1h-11l-1-2z" fill="#E8E2DB"/>
<path transform="translate(1758,661)" d="m0 0 1 3-3 3-10 2-3 2-1 6h-2v-7l3-3 13-3z" fill="#A1A3A0"/>
<path transform="translate(1714,643)" d="m0 0 1 3v6h2v2l5 2 1 2 4-1-2 4-12-6-1-5z" fill="#9F9080"/>
<path transform="translate(1150,618)" d="m0 0v3l-6 4-9 4-6-1v-2l12-3 8-4z" fill="#8A8884"/>
<path transform="translate(1713,601)" d="m0 0 1 2-8 12-1-3-2 3-2-1 5-8 2-1v3z" fill="#8F8C86"/>
<path transform="translate(1741,681)" d="m0 0h2l4 4h11l3 1 1 6-4-4h-11l-5-3z" fill="#A0A2A0"/>
<path transform="translate(1667,630)" d="m0 0 3 1-2 5-6 7-5 3-3 2 2-4 10-11z" fill="#8A8884"/>
<path transform="translate(868,622)" d="m0 0 2 4 3 11v10l-2-1-2-17-4-2-1-3z" fill="#D1C9C1"/>
<path transform="translate(1192,636)" d="m0 0h1v16l1 6-2 1-2-6v-14z" fill="#9C8F82"/>
<path transform="translate(1209,486)" d="m0 0 3 1-1 2 3 3 2 5-3 4-3-8-4-1 2-5z" fill="#968E84"/>
<path transform="translate(1662,692)" d="m0 0h2l-1 4h-2v2l-10 2-1-3z" fill="#878682"/>
<path transform="translate(631,642)" d="m0 0 7 1 4 2h7l5 1-4 2-15-2-5-2z" fill="#E8E2DB"/>
<path transform="translate(1221,563)" d="m0 0 3 4-1 6-4 1-3-3-1-5 6 3-1-5z" fill="#9F9386"/>
<path transform="translate(1739,670)" d="m0 0h1l1 7 1 2 1 8-4-4v-2h-2l-1-6 2-4z" fill="#A09181"/>
<path transform="translate(1223,805)" d="m0 0h2l2 5v7l-1 2h-2l-1-2z" fill="#504B43"/>
<path transform="translate(1747,565)" d="m0 0h5l1 5-3-1-2 4h-2l-2 4-2 2 1-5 3-6z" fill="#8E8C86"/>
<path transform="translate(1651,660)" d="m0 0 2 1 1 4h-4l1 2-5 3h-2v-3l2-1-2-2z" fill="#918C85"/>
<path transform="translate(1753,616)" d="m0 0 4 3v5l-3 1-3-1-1-5z" fill="#D8D1C8"/>
<path transform="translate(561,674)" d="m0 0 8 2 11 1 2 3-13-1-9-3z" fill="#908D87"/>
<path transform="translate(1701,650)" d="m0 0 2 2-8 7-5 3-4 2 6-7z" fill="#A29A91"/>
<path transform="translate(907,635)" d="m0 0 4 2 2 3-5 2-5-1 1-4z" fill="#D8D1C8"/>
<path transform="translate(482,627)" d="m0 0 2 4-2 3 1 7 1 6-3-4-2-5v-7z" fill="#8B8984"/>
<path transform="translate(1671,853)" d="m0 0h6l-1 3-6 1h-8l-2-2z" fill="#94928D"/>
<path transform="translate(1571,744)" d="m0 0h2l3 16-1 3v-2h-2l-3-15z" fill="#CDC6BD"/>
<path transform="translate(679,639)" d="m0 0h20l-3 2h-16l-4 3-9-1v-1l10-2z" fill="#E8E2DB"/>
<path transform="translate(1743,583)" d="m0 0 3 1h-2l-2 6-4 8-3-3 2-4h2v-3h2z" fill="#898783"/>
<path transform="translate(1635,467)" d="m0 0 3 2 4 11-1 4-2-3-4-9z" fill="#968E84"/>
<path transform="translate(1268,787)" d="m0 0m-14 1h14v2l-16 2h-5v-2l4-1 3 1z" fill="#E7E1DA"/>
<path transform="translate(832,663)" d="m0 0 8 1-3 3-5 1-7-1v-2z" fill="#8E8B86"/>
<path transform="translate(663,778)" d="m0 0h9l10 1v1l-18 1-7 1 3-3z" fill="#C1B9B0"/>
<path transform="translate(1739,632)" d="m0 0h2l1 3-2 4h-2l-1 2-4-1-1-4 5-1z" fill="#8B8985"/>
<path transform="translate(1532,780)" d="m0 0 2 3 1 4v8l-8 4-2-1 5-3 2-1 1-4z" fill="#D8D1C8"/>
<path transform="translate(414,687)" d="m0 0v3l-8 8-5 2 1-4 4-3h2z" fill="#8E8A83"/>
<path transform="translate(1283,639)" d="m0 0 6 1 2 2-1 4-6-2z" fill="#C0B8AF"/>
<path transform="translate(917,621)" d="m0 0 2 1 2 12h-3l-2-4v-8z" fill="#979691"/>
<path transform="translate(1167,607)" d="m0 0 2 1-4 4-4 2-2 2-7 3v-2z" fill="#8A8883"/>
<path transform="translate(1702,439)" d="m0 0 8 6-2 1-2-1v3h-2l-4-7z" fill="#8F8C86"/>
<path transform="translate(1709,640)" d="m0 0 1 2 3 1-2 2h-2l-4 4-1 2-3-1 6-8z" fill="#9F9080"/>
<path transform="translate(1659,643)" d="m0 0v3l-9 9-2-1 2-2v-3l2-3h4z" fill="#8F8C86"/>
<path transform="translate(1728,514)" d="m0 0h11l-2 3h-2v2h-6l1-3z" fill="#898884"/>
<path transform="translate(1503,792)" d="m0 0h1l2 7 4 2v-9h1l1 11h-5l-3-2z" fill="#C7BFB6"/>
<path transform="translate(385,709)" d="m0 0 2 1-7 5-7 1v-3z" fill="#D4CDC5"/>
<path transform="translate(1654,699)" d="m0 0 2 1-7 3h-3v3l-6 1 1-4 7-1v-2z" fill="#968E84"/>
<path transform="translate(503,668)" d="m0 0 6 1 8 5v2l-4-1-8-4v-2z" fill="#8B8984"/>
<path transform="translate(1355,664)" d="m0 0 15 5 1 3-6-1-10-5z" fill="#FAF9F9"/>
<path transform="translate(1373,551)" d="m0 0h8l-2 2-11 3v-3z" fill="#DCD6CE"/>
<path transform="translate(1653,390)" d="m0 0 3 3 1 9-2 1-5-2 4-1-2-9z" fill="#848481"/>
<path transform="translate(1615,727)" d="m0 0m-2 0 2 2-6 2-10 1 1-2z" fill="#E8E2DB"/>
<path transform="translate(1643,665)" d="m0 0 4 1-3 1v2l-2 1 1 2-3 1-4-3z" fill="#8B8984"/>
<path transform="translate(1701,653)" d="m0 0v3l-8 8-3 1 2-4 7-7z" fill="#8F8C86"/>
<path transform="translate(1746,559)" d="m0 0 5 1-1 4-7 2z" fill="#928F89"/>
<path transform="translate(1134,680)" d="m0 0h6l2 1-1 3-5 1-3-4z" fill="#D8D1C8"/>
<path transform="translate(1596,682)" d="m0 0 4 2-8 4h-4v-2z" fill="#968E84"/>
<path transform="translate(1714,637)" d="m0 0 3 1-2 5-2 7h-1v-7l-2-2h2z" fill="#848380"/>
<path transform="translate(1508,792)" d="m0 0h2v9l-5-2-1-6 2 3v2h2z" fill="#A0A2A0"/>
<path transform="translate(1681,686)" d="m0 0h7v1l-6 2-7 1-2-2z" fill="#8B8985"/>
<path transform="translate(1688,599)" d="m0 0 2 1-2 6-5 5v-3l1-3h2z" fill="#8B8984"/>
<path transform="translate(1416,345)" d="m0 0h5v6l-4 1z" fill="#838381"/>
<path transform="translate(961,701)" d="m0 0 2 2-6 3-3-1 1-1-5-1v-1z" fill="#D8D1C8"/>
<path transform="translate(1292,665)" d="m0 0 6 3 4 1 3 4-4-1-10-4z" fill="#908D87"/>
<path transform="translate(1594,634)" d="m0 0v3l-11 8h-2l1-3 11-7z" fill="#EEE9E4"/>
<path transform="translate(550,666)" d="m0 0 4 2v2h2l1 2 3 1v2l-6-2-5-6z" fill="#908D87"/>
<path transform="translate(1207,596)" d="m0 0 15 1v1l-20 1v-1h5z" fill="#8F8C86"/>
<path transform="translate(1212,507)" d="m0 0 3 2-1 14h-1z" fill="#A19180"/>
<path transform="translate(351,721)" d="m0 0m-2 1h2v4l-5 2h-4l1-2h2z" fill="#E0DAD2"/>
</svg>
