<?xml version="1.0" encoding="UTF-8"?>
<svg version="1.1" viewBox="0 0 2048 1203" width="1280" height="1280" xmlns="http://www.w3.org/2000/svg">
<path transform="translate(0)" d="m0 0h2048v1203h-2048z" fill="#FDFDFD"/>
<path transform="translate(779,261)" d="m0 0h62l27 3 25 4 43 10 29 8 25 9 16 7 26 12 21 11 9 7 4 8 1 5-2 12-3 4-9 1-41 1-238 1-21 2-12 6-8 8-2 15-1 29-1 57v139l2 21 4 10 11 7 9 2 12 1 121 1 48 1 2-1 1-152 1-1h67l12 1 4 2 1 23v121l3 7 3 1h12l31-1 1 1 1 7v78l-1 17-1 1-48 1-1 2v109l6 3 25 2 10 3 2 3v7l-5 11-5 4-16 3-13 1-4 1-2 14-1 11-2 1-9 1-44 1h-13l-10-2-2-2-1-4-1-18-1-3-3-1-268-1-3-1v-30h274l1-61v-47l-2-6-219-1-20-4-16-7-19-12-14-10-13-11-12-11-10-12-8-13-4-11-3-14-2-30v-265l3-15 8-16 6-9 9-10 11-9 11-8 16-9 14-7 28-10 23-6 28-5z" fill="#BC4832"/>
<path transform="translate(940,509)" d="m0 0h67l12 1 4 2 1 23v121l3 7 3 1h12l31-1 1 1 1 7v78l-1 17-1 1-48 1-1 2v109l6 3 25 2 10 3 2 3v7l-5 11-5 4-16 3-13 1-4 1-2 14-1 11-2 1-9 1-44 1h-13l-10-2-2-2-1-4-1-18-1-3-3-1-268-1-3-1v-30h274l1-61v-47l-1-7-1-28v-76l1-2 1-152z" fill="#170F0F"/>
<path transform="translate(1280,383)" d="m0 0h40l7 2 8 19 5 15 4 18 4 12 2 4 5-16 5-22 7-18 4-11 2-2 5-1h41l4 4 1 3 1 17v52l-1 18-2 19-2 4-7 3h-8l-10-2-4-4-1-11v-57l-4-3-6 18-3 12-4 20-6 18-6 5-4 2h-6l-6 2-7-2-7-8-7-14-6-25-6-23-4-9-2-7-1 28v52l-3 7-3 2-15 1-5-2-3-3-2-13v-80l1-22z" fill="#B53B36"/>
<path transform="translate(1125,383)" d="m0 0h23l5 10 9 28 4 17 5 15 7-18 6-21 8-18 5-10 2-2 5-1h37l5 3 1 3v91l-1 15-3 8-8 2h-8l-8-4-2-4-2-18-2-69-9 30-5 24-5 16-6 16-3 5-7 2-12 1-8-2-5-10-10-30-7-25-7-20-2-6v10l3 43v18l-1 21-9 1h-10l-9-1-4-26-1-55v-37l5-1z" fill="#B53B36"/>
<path transform="translate(1303,660)" d="m0 0h109l12 2 8 4 6 8 4 13v41l-4 15-6 10-9 6-14 3-15 1h-82l-4-1-1-100z" fill="#18100F"/>
<path transform="translate(1508,382)" d="m0 0h10l11 2 6 7 10 18 19 45 10 26 5 15 1 8-3 3-14-1-17-3-6-3-4-3v-2l-3-1-5-10h-14l-28 2-3 8-4 6-6 4h-23l-8-2-1-4 8-26 11-28 12-27 10-19 7-10 6-3z" fill="#B53B36"/>
<path transform="translate(1e3 382)" d="m0 0h18l8 2 7 8 10 18 11 25 11 28 5 14 7 23v3l-11 1-20-1-8-3-6-10-6-5-7-2h-23l-10 2-5 5-4 5-8 3-10 1h-17l-3-1 1-9 4-11 12-28 13-29 12-26 6-8 4-3z" fill="#B53B36"/>
<path transform="translate(1175,659)" d="m0 0h122l3 2-2 4-1 16-2 7-1 1-37-1-1 5-1 42v27l-1 1h-32l-1-60-2-13-6-2h-36l-1-3z" fill="#1B1110"/>
<path transform="translate(1119,659)" d="m0 0 4 1v74h40l27-1 2 1 1 13v17h-86l-19-1v-102l6-1z" fill="#1B1110"/>
<path transform="translate(1065,663)" d="m0 0h8l1 1 1 7v78l-1 17-1 1h-47l-2-5v-32l1-61 2-5h15z" fill="#BC4832"/>
<path transform="translate(721,270)" d="m0 0h6v2l-15 4-10 3-10 4-11 4-8 3-17 8-6 4-3 1v2l-6 4-8 7h-2v2l-6 3-4 7-1 2-2 3-3 1-7 8-4 10-3 14 3 29v21l1 6-1 1 1 5-1 8v29l-1 7v186l2 16 4 13 6 10 1 3h2l3 5 7 8 2 1v2l3 1v2l3 1v2l4 2 16 12 14 9 15 9 15 6 11 3 9 1h46l22 1h60l86-1v-13l-1-8 1-5 1-28v-36l-2-6h-35l-5-1h-89l-28-1-11-1-8-2v-1h131l50 1v82l1 25-2-1-219-1-20-4-16-7-19-12-14-10-13-11-12-11-10-12-8-13-4-11-3-14-2-30v-265l3-15 8-16 6-9 9-10 11-9 11-8 16-9 14-7 28-10z" fill="#B63C36"/>
<path transform="translate(1353,686)" d="m0 0h39l12 1 6 3 1 2v33l-2 5-6 3-10 2-16 1h-31l-8-2-1-3v-13l1-22 1-9z" fill="#FDFDFD"/>
<path transform="translate(779,261)" d="m0 0h62l27 3 25 4 43 10 29 8 25 9 16 7 26 12 21 11 9 7 4 8 1 5-2 12-3 4-9 1-41 1-238 1-21 2-12 6-2-1 5-4 9-4 7-2 67-1 12 1 1-2h8v1h11l3-1h10v2l23-1h107l14-1 1-3h2l1-3 5-1 9-3-4-4 4-2 3-1 2 2 6-2 2-2 5-1-3-3h-3l-1-2-5-1-4-4-6-1-3-4-7-1-1-3-4-1-6-2-3-2-1-4h-2l-1-4h3l8 2v2l5-1-11-5-8-2v-2l-9-3-16-6-7-1-1-3h-6l-9-3-14-4h-5v-2l-7-1-11-2-17-4-15-3-24-3-11-1h-29l-1-1-1 2h8l1-1h5l-1 5h-3l-11-1-15 1-3 1h-10l-6-1h-7l-5-2-5 1-4-1h-16l1-2 15-3z" fill="#B53B36"/>
<path transform="translate(1065,663)" d="m0 0h8l1 1 1 7v78l-1 17-1 1h-47l-2-5v-32l1-61 2-5h15zm-31 6-3 8 1 12-1 10-1 14v3 26 3l-1 13v5l12 2h8l10-2 4 1h6l1-3 1-10v-10l1-8-1-6 1-2 1-12v-20l-2-6 1-8h-2v-2h-2v-6l-5-1 2 7h-2l-3-2-7-1-4-4z" fill="#B43B36"/>
<path transform="translate(1395,398)" d="m0 0 2 1v11l-2 17-2 32 4 5 1 10-1 3-4 1v5l6 3 3 3 2 3-1 4-2 3 2 1 13 1-3 2h-8l-10-2-4-4-1-11v-57l-4-3-6 18-3 12-2-1 6-22 9-24 4-10z" fill="#BC4832"/>
<path transform="translate(1507,416)" d="m0 0 4 2 4 20 1 6v12l-4 1h-11l-5-2-1-5 5-13 3-15z" fill="#FDFDFD"/>
<path transform="translate(1045,461)" d="m0 0 1 2-2 8 3 2v6l2-3-1-4 4 1 2 4v5h4v-2h-2l1-4h-2l-2-8-4-2 1-2 7 4v2h6l3 5v2l1 6h2l-1 3-3 1-4 1-1 3-5 3-5-1v-4l-3-1-4-4v-2l-6-2-4-3v-9l5-5z" fill="#BC4832"/>
<path transform="translate(1010,423)" d="m0 0 4 2 6 18 1 2v8l-5 3-6 1h-9l-4-3 1-6 8-16z" fill="#FDFDFD"/>
<path transform="translate(725,485)" d="m0 0h2l1 131 1 4 2 21 4 10 11 7v2l-4-1-9-6-5-6-3-12z" fill="#B53C36"/>
<path transform="translate(1009,418)" d="m0 0 4 2 5 5 5 12 1 7 2 1-1 8-4 3-14 3h-9l-4-2v-5l10-19 2-12zm1 5-4 9-8 16-1 6 4 3h9l8-2 3-2v-8l-5-14-3-7z" fill="#BD4932"/>
<path transform="translate(1076,488)" d="m0 0 2 3 3 9v3l-11 1-20-1 3-2h2l1-5-2-1 13-2 2-3 7 1z" fill="#BC4832"/>
<path transform="translate(826,360)" d="m0 0m-66 1h66l68 1v1l-120 1-21 2-12 6-2-1 5-4 9-4z" fill="#B84134"/>
<path transform="translate(1049,326)" d="m0 0 4 1v2l4 2 6 5 2 1 2 8-2 12-5 1-2-2 2-5h-3v-12l-4-6-4-4z" fill="#BC4832"/>
<path transform="translate(1124,401)" d="m0 0 3 1 10 32-1 3-7-20-2-6v10l2 31v12h-1l-2-28-2-17z" fill="#BD4932"/>
<path transform="translate(1212,397)" d="m0 0 3 1 1 6v75h-1l-2-69-1-4z" fill="#BD4932"/>
<path transform="translate(1343,437)" d="m0 0 2 2 3 10 2 4 4-12 1 4-2 9-1 18h-2l-3-12-2-11-1-4z" fill="#BD4932"/>
<path transform="translate(1178,435)" d="m0 0 1 4-5 16v13h-3l-3-13-1-7-2-6 2-1 4 12z" fill="#BD4932"/>
<path transform="translate(945,485)" d="m0 0 1 4 3 1-2 6h18l9-1 8-3-1 3-8 3-10 1h-17l-3-1 1-9z" fill="#BC4832"/>
<path transform="translate(983,293)" d="m0 0 9 3 19 8v2l-12-3v-2l-9-3-7-3z" fill="#B63D36"/>
<path transform="translate(1304,410)" d="m0 0 3 1 1 6-2-2-1 25-2-4v-25z" fill="#BD4932"/>
<path transform="translate(605,342)" d="m0 0h2l-3 10-2 7-3 1 2-9z" fill="#B73E35"/>
<path transform="translate(1051,325)" d="m0 0 5 2 6 5 2 5-5-3-6-5v-2h-2z" fill="#B63D36"/>
</svg>
