<svg width="20" height="20" viewBox="0 0 20 20" fill="none" xmlns="http://www.w3.org/2000/svg">
<g clip-path="url(#clip0_701_2050)">
<path fill-rule="evenodd" clip-rule="evenodd" d="M5.63531 2.5C6.87624 2.5 8.10258 2.76465 9.24722 3.28271L9.3537 3.33333H10.6412L10.7412 3.28666C11.7822 2.81193 12.9064 2.54652 14.0498 2.50559L14.3621 2.5H18.332C18.7923 2.5 19.1654 2.8731 19.1654 3.33333V16.6667C19.1654 17.1269 18.7923 17.5 18.332 17.5H14.3621C13.3582 17.5 12.366 17.7141 11.4665 18.1209L11.1902 18.2524C11.0783 18.3057 10.9559 18.3333 10.832 18.3333H9.16536C9.03599 18.3333 8.9084 18.3032 8.79269 18.2454C7.81235 17.7552 6.73136 17.5 5.63531 17.5H1.66536C1.20513 17.5 0.832031 17.1269 0.832031 16.6667V3.33333C0.832031 2.8731 1.20513 2.5 1.66536 2.5H5.63531ZM5.63531 4.16667H2.4987V15.8333H5.63531C6.85286 15.8333 8.05539 16.0881 9.16608 16.5795L9.16536 5C9.04145 5 8.91909 4.97236 8.8072 4.91911L8.54555 4.79439C7.63138 4.38078 6.63924 4.16667 5.63531 4.16667ZM17.4987 4.16667H14.9987V8.33333H13.332L13.3319 4.24223C12.692 4.33661 12.0669 4.51867 11.4745 4.78418L11.2047 4.91202C11.089 4.96988 10.9614 5 10.832 5V16.5792C11.8403 16.1332 12.9235 15.8825 14.0241 15.8399L14.3621 15.8333H17.4987V4.16667Z" fill="#E31235"/>
</g>
<defs>
<clipPath id="clip0_701_2050">
<rect width="20" height="20" fill="white"/>
</clipPath>
</defs>
</svg>
