<svg width="20" height="20" viewBox="0 0 20 20" fill="none" xmlns="http://www.w3.org/2000/svg">
<g clip-path="url(#clip0_701_2076)">
<path fill-rule="evenodd" clip-rule="evenodd" d="M11.7031 0.833252C12.9174 0.833252 14.0675 1.36276 14.8566 2.27661L14.992 2.44183L19.4734 8.20358C19.7768 8.59365 19.9569 9.06372 19.9932 9.55382L20 9.73843V14.9999C20 16.3313 18.9592 17.4196 17.6469 17.4957L17.5 17.4999L16.3198 17.5004C15.6767 18.9717 14.2084 19.9999 12.5 19.9999C10.7916 19.9999 9.3233 18.9717 8.68023 17.5004L5.83333 17.4999V15.8333H8.33333C8.33333 13.5321 10.1988 11.6666 12.5 11.6666C14.7406 11.6666 16.5682 13.4352 16.6628 15.6525L16.6667 15.8333H17.5C17.9274 15.8333 18.2796 15.5115 18.3277 15.0971L18.3333 14.9999V9.73843C18.3333 9.59018 18.2938 9.44531 18.2197 9.3184L18.1578 9.22681L13.6764 3.46507C13.2366 2.8996 12.5773 2.55209 11.8676 2.50533L11.7031 2.49992H2.5V0.833252H11.7031ZM12.5 13.3333C11.1193 13.3333 10 14.4525 10 15.8333C10 17.214 11.1193 18.3333 12.5 18.3333C13.8807 18.3333 15 17.214 15 15.8333C15 14.4525 13.8807 13.3333 12.5 13.3333ZM7.5 10.8333V12.4999H2.5V10.8333H7.5ZM5 5.83325V7.49992H0V5.83325H5Z" fill="#E31235"/>
</g>
<defs>
<clipPath id="clip0_701_2076">
<rect width="20" height="20" fill="white"/>
</clipPath>
</defs>
</svg>
