<svg width="20" height="20" viewBox="0 0 20 20" fill="none" xmlns="http://www.w3.org/2000/svg">
<g clip-path="url(#clip0_701_2064)">
<path fill-rule="evenodd" clip-rule="evenodd" d="M16.6654 1.66675C18.0461 1.66675 19.1654 2.78604 19.1654 4.16675V14.1667C19.1654 15.5475 18.0461 16.6667 16.6654 16.6667H9.39536L4.16536 19.8052V16.6667H3.33203C2.00063 16.6667 0.912314 15.626 0.836275 14.3136L0.832031 14.1667V4.16675C0.832031 2.78604 1.95132 1.66675 3.33203 1.66675H16.6654ZM16.6654 3.33341H3.33203C2.87179 3.33341 2.4987 3.70651 2.4987 4.16675V14.1667C2.4987 14.627 2.87179 15.0001 3.33203 15.0001H5.83203V16.8609L8.93454 15.0001H16.6654C17.1256 15.0001 17.4987 14.627 17.4987 14.1667V4.16675C17.4987 3.70651 17.1256 3.33341 16.6654 3.33341ZM9.9987 10.0001V11.6667H5.83203V10.0001H9.9987ZM14.1654 6.66675V8.33342H5.83203V6.66675H14.1654Z" fill="#E31235"/>
</g>
<defs>
<clipPath id="clip0_701_2064">
<rect width="20" height="20" fill="white"/>
</clipPath>
</defs>
</svg>
