<svg width="20" height="20" viewBox="0 0 20 20" fill="none" xmlns="http://www.w3.org/2000/svg">
<g clip-path="url(#clip0_701_2037)">
<path fill-rule="evenodd" clip-rule="evenodd" d="M8.84114 1.4816C9.09905 0.841223 9.82724 0.531173 10.4676 0.789078C10.783 0.916113 11.0331 1.16617 11.1601 1.4816L13.169 6.47075L18.5363 6.84068C19.1845 6.88529 19.6832 7.41652 19.7001 8.05306L19.6975 8.17355C19.6742 8.51279 19.5136 8.82789 19.2529 9.04618L15.1281 12.4982L16.4355 17.7174C16.5933 18.3476 16.2422 18.986 15.642 19.1988L15.5267 19.2336C15.1968 19.3163 14.8475 19.2609 14.5593 19.0804L10.0006 16.2241L5.44193 19.0804C4.89129 19.4254 4.17561 19.2887 3.78779 18.7837L3.71903 18.6847C3.53851 18.3965 3.48319 18.0472 3.56582 17.7174L4.8723 12.4982L0.748384 9.04618C0.252135 8.6307 0.159727 7.91184 0.515274 7.38744L0.592369 7.28531C0.810658 7.02457 1.12575 6.86403 1.46499 6.84068L6.83147 6.47075L8.84114 1.4816ZM10.0006 3.06325L7.98752 8.06243L2.61147 8.43241L6.74334 11.8916L5.43397 17.1182L10.0006 14.2582L14.5665 17.1182L13.2579 11.8916L17.389 8.43241L12.0138 8.06243L10.0006 3.06325Z" fill="#E31235"/>
</g>
<defs>
<clipPath id="clip0_701_2037">
<rect width="20" height="20" fill="white"/>
</clipPath>
</defs>
</svg>
