<?xml version="1.0" encoding="UTF-8"?>
<svg version="1.1" viewBox="0 0 1000 804" width="1280" height="1280" xmlns="http://www.w3.org/2000/svg">
<path transform="translate(648,279)" d="m0 0 5 1 4 9 2 8-1 6-7 6-16 6-24 8-27 7-34 10-21 6-10 3-1 7-3 7-1 1-16 2-1 1 1 13 4 23 9-1 4-2 7-1 67 1 10 2 3-2h7l4 2h5l2-2h6l3 2h6l2-2 8 1 2 1h41l4-2 2 2 10 1 2-2 18 2v-2l5 1 8 1h5l1-2 7 2h53l9-1h35l33 1 6 2 6 8 4 10 3 12 1 18v14l-3 12-4 10-5 6-5 2-27 2-236 1h-214l-80-1-16 1-4 2-7 1h-22l-14-3h-45l-8 2-18 1h-16l-9-3h-25l-21-1-5-3-4-4-2-9v-17l1-2 18-1 10-2-1-7-12-2-13-4-2-4v-19l2-4 15-4 36-5 6-3 7-3 12-2h17l9 1 40-5 7-2 7-3 9-2 9-1h13l6 2 32-1 7 6 3 5 4-2 11-12 7-8 21-21 14-11 16-12 22-12 15-7 25-8 46-10 69-13 44-8zm-201 93-7 10-8 16-2 6 2 1h19l1-4-1-28z" fill="#2C292A"/>
<path transform="translate(287,392)" d="m0 0h13l6 2 32-1 7 6 3 5 2 2-5 1h-4v41l-1 2-7 1-4 2 8 2 5-1 1 1v28l1 14 1 2h-26l-9 1-4 2-7 1h-22l-14-3h-45l-8 2-18 1h-16l-9-3h-25l-21-1-5-3-4-4-2-9v-17l1-2 18-1 10-2-1-7-12-2-13-4-2-4v-19l2-4 15-4 36-5 6-3 7-3 12-2h17l9 1 40-5 7-2 7-3 9-2z" fill="#C16653"/>
<path transform="translate(648,279)" d="m0 0 5 1 4 9 2 8-1 6-7 6-16 6-24 8-27 7-34 10-21 6-10 3-1 7h-11l-24 4-33 5-6 1-2 6-9 12-10 18-2 2-71 1 18-21 23-23 14-11 16-12 22-12 15-7 25-8 46-10 69-13 44-8z" fill="#C16653"/>
<path transform="translate(341,402)" d="m0 0 6 1 3 3-5 1h-4v41l-1 2-7 1-4 2 8 2 5-1 1 1v28l1 14 1 2h-26l-9 1-4 2-7 1h-22l-14-3h-45l-8 2-18 1h-16l-9-3h-25l-21-1-5-3-4-4-2-9v-17l1-2 18-1 10-2-1-7-9-3 1-3 12-3 22-2 31-4 17-2h10l11 8 5 4v2l-47 4-12 3-15 2v3l16 1v-2l6-1 1 3 16-1 3-1 8 2h43l8-2v-3l-10-1-6-3 4-1 4 1h16l19-1 11-2 11-1 7-3 3-2 8-2 6 2h2l-1-26 1-16z" fill="#A93B20"/>
<path transform="translate(212,437)" d="m0 0h10l11 8 5 4v2l-47 4-12 3-13 2-6 1-2-1h-10l-5 1-3-2-2-5-9-3 1-3 12-3 22-2 31-4z" fill="#47180E"/>
<path transform="translate(602,315)" d="m0 0h6l1 5-7 1-9 4-9 2-11 4-8 3-1 2-24 7-11 3-9 1-2-4 1-5 9-3 14-4h9l4-2v-2l13-3 21-6 10-2z" fill="#AB3D22"/>
<path transform="translate(463,362)" d="m0 0h7l-4 2-17 2-2 6-8 14-9 19-11 1h-25l-21 1-5 1-16 1v-2h-2l-2 6-2 1-1 3-2 1v37l-7 1-9-2 2-2 4-2h7l1-43 8-1 4-2 68-1 6-10 5-9 9-12 3-6 6-2z" fill="#47180E"/>
<path transform="translate(341,402)" d="m0 0 6 1 3 3-5 1h-4v41l-1 2-7 1-4 2 3 2-7 1-21 1-16 3-16 1-17-3-6-3 4-1 4 1h16l19-1 11-2 11-1 7-3 3-2 8-2 6 2h2l-1-26 1-16z" fill="#A93A1F"/>
<path transform="translate(202,436)" d="m0 0h20v1l-53 6-25 3-12 2-3 3 7 1v1h-7l-6-3 1-4 4-3 16-2 14-2 18-1z" fill="#AA3C21"/>
<path transform="translate(463,362)" d="m0 0h7l-4 2-17 2-2 6-8 14-9 19h-10l8-14 5-8 8-11 3-6 6-2z" fill="#4F1C11"/>
<path transform="translate(542,331)" d="m0 0h8l1 3-6 3-2 4h-4l-6 2-1 2-12 2-2-4 1-5 9-3z" fill="#48180E"/>
<path transform="translate(507,355)" d="m0 0h10l-1 7-2 2-16 2-3 1v-7l-16 2h-8v-1l24-4z" fill="#541F13"/>
<path transform="translate(339,454)" d="m0 0 4 1v5h-12l-30 2-5-2 3-3 5-1 32-1z" fill="#C16754"/>
<path transform="translate(218,495)" d="m0 0h40l6 2-1 2-14 1h-31l-8 1 2-1v-2l-2-1 7-1z" fill="#C26754"/>
<path transform="translate(142,495)" d="m0 0 20 1 2 2-1 1-21 1-21-1-4-2v-1z" fill="#C26754"/>
<path transform="translate(299,455)" d="m0 0h11v1l-22 4-16 1-12-2-2-2z" fill="#47180E"/>
<path transform="translate(139,455)" d="m0 0 1 4 4 2 1 2-11 2-11 1h-11l1 4h-2v13h-1v-17l1-2 18-1 10-2z" fill="#C26754"/>
<path transform="translate(441,369)" d="m0 0 1 3-9 12-10 18-2 2-3-1 4-5 10-17 8-11z" fill="#AA3B20"/>
<path transform="translate(341,402)" d="m0 0 6 1 3 3-5 1h-4v38h-1l-1-25 1-16z" fill="#AA3B20"/>
<path transform="translate(225,444)" d="m0 0 7 3 2 1v2l-6 1h-12l3-3 3-1z" fill="#2B292A"/>
<path transform="translate(249,454)" d="m0 0 8 1h35v1l-8 1-29 1-6-3z" fill="#AA3B20"/>
<path transform="translate(148,459)" d="m0 0h10l5 4-2 1h-9l-6-1z" fill="#C16552"/>
<path transform="translate(316,496)" d="m0 0 25 1v1l-22 1h-9l2-2z" fill="#C26754"/>
<path transform="translate(341,402)" d="m0 0 6 1 3 3-5 1h-5z" fill="#AC4025"/>
<path transform="translate(555,328)" d="m0 0 7 2v1l-11 2 2-4z" fill="#4A190E"/>
</svg>
