<?xml version="1.0" encoding="UTF-8"?>
<svg version="1.1" viewBox="0 0 2048 1070" width="1280" height="1280" xmlns="http://www.w3.org/2000/svg">
<path transform="translate(495,317)" d="m0 0h44l25 4 19 5 22 9 16 8 16 10 16 12 15 14 10 10 12 16 11 17 8 16 7 16 8 26 4 22 1 10v37l-3 22-6 24-9 24-11 22-8 12-12 16-12 13-10 10-14 11-17 11-18 10-23 9-21 6-21 4-25 2-24-1-31-5-25-9-20-9-19-11-14-10-13-12-17-17-11-14-10-15-12-23-8-21-5-17-4-23-2-18v-20l4-29 6-25 7-19 10-21 12-19 10-13 11-13 10-10 14-11 12-9 20-12 22-10 20-6 25-5zm18 107-15 2-15 5-15 8-14 11-12 14-9 15-5 11-5 17-2 13v23l4 20 8 20 9 14 11 13 15 12 17 9 15 4 5 1h26l15-4 14-6 17-12 12-12 12-18 7-17 5-21v-30l-4-18-6-16-8-14-8-10-14-14-14-9-14-6-21-5z"/>
<path transform="translate(749,329)" d="m0 0h109l3 1v110l-1 33h115v-141l1-3h111l1 1v408l-1 1h-111l-1-2v-150h-114v151l-1 1h-111l-1-409z"/>
<path transform="translate(110,328)" d="m0 0 2 1 1 120 6-5 9-11 13-15 9-10 9-11 11-12 9-11 11-12 9-11 12-13 8-9h145l-4 6-8 9-9 11-11 13-16 20-22 26-11 14-13 15-11 14-12 14-11 13-9 11-22 26-2 4 11 12 9 11 12 13 8 10 24 28 11 12 9 11 12 14 11 12 9 11 13 15 9 11 13 14 9 11 12 14 9 10 2 5h-147l-11-12-9-11-13-15-10-11-7-8-11-13-9-11-13-15-10-11-9-11-9-10-9-11-4-5-2-1-1 144-2 1h-110v-403l13-6 7 1 2 4 12 2h11l8-3 5-3 41-2z"/>
<path transform="translate(1634,329)" d="m0 0h156l21 3 18 6 16 8 14 9 11 9 9 8 11 14 9 14 9 21 4 17 2 17-1 16-4 20-6 16-6 12-10 15-11 13-13 13-13 10-7 5 4 7 8 11 13 18 13 19 14 19 12 17 13 18 12 17 13 18 10 14 3 5-1 1h-121l-8-11-28-38-26-36-12-16-12-17-5-6-1 123-1 1h-108l-1-1zm114 93-4 1v80h39l12-4 8-6 7-8 4-8 2-8v-13l-4-11-6-9-7-6-10-5-8-2-9-1z"/>
<path transform="translate(1380,329)" d="m0 0h225l2 1v60l-1 32h-112v66h103l2 2v89l-1 1h-104v63l113 1 1 1v93l-1 1h-227l-1-5-1-218v-71l1-115z"/>
<path transform="translate(1117,329)" d="m0 0h109l3 2v304h124l2 1v102l-1 1h-237l-1-1-1-100 1-308z"/>
<path transform="translate(2e3 680)" d="m0 0h12l10 3 6 4 7 7 8 12v21l-7 10-6 7-12 7-12 2-13-1-10-5-8-9-5-10-1-4v-14l4-11 6-9 7-6 7-3zm-2 7-9 4-5 4-6 12-1 4v13l5 10 5 6 10 5 11 1 10-3 8-6 9-14v-12l-4-9-4-6-7-6-7-3z" fill="#070707"/>
<path transform="translate(2008,696)" d="m0 0h10l7 3 3 6v8l-5 7 1 7 2 3-3 3h-5l-6-12-8-1v11l-2 2-5-1-2-4v-26l3-4zm0 5-4 4v6l2 2 4 1h10l1-6-6-7z" fill="#080808"/>
</svg>
