<?xml version="1.0" encoding="UTF-8"?>
<svg version="1.1" viewBox="0 0 2048 1255" width="1280" height="1280" xmlns="http://www.w3.org/2000/svg">
<path transform="translate(230,57)" d="m0 0 65 5 153 12 130 11 178 14 403 32 108 9 55 5 16 1 8 2 3 2v2l3-1-3-3 2-4h11l2-3 10-2 10-1-9-1 1-7 9-2-4-11h11l5 1 12-1 9 3 2-2h3v2l-3 3 2 6 5-1v3l3-2h7l1 1 7 1 1-5 4-1 4 4 12-4 3-2h11l8 3 5-5 7 1 6 2-1 3-4 1h-3l-4 3 2 5 9 6 1-4-1-2 3-9 4 2 3 3 1 9-3 5-6 3-3 4 9 6 8 2 347 28 19 2 3 2-2 20-2 3h-10l-65-4 6 17 9 2 34 3v8l-3 19 3 1h15l3-1h8l6 3 9 11 1 6-2 5-7 6-3 8-1 7v61l25 3h11l12-17 16-24 6-1 8 4 3 3 1 4-4 8-9 10-13 18-5 10-3 12-4 5-10 5-5 2-6 4-10 14-7 10-9 16-5 4h-6l-11-7-6-4h-6l-4 1-2 65-3 2h-14l-7-3-1-5v-56l-13-2-26-6-44-6-123-15-13-2-43 13-57 19-2 1-2 114-1 80v263l11-4h10l37 8 6 4 6 11-1 7-9 13-14 19-9 12-11 15-8 11-10 13-10 14-13 17-14 19-8 12-14 19-10 14-10 13-8 12-13 18-11 16-4 3-28-7-22-4-10-4-1-1v-7l6-25 4-11 5-9 14-19 13-16 11-14 11-13 10-13 9-11 6-9 1-8 1-165v-360l-31 9-49 16-50 16-35 12-35 11-36 12-41 13-11 2-20-1-38-5-65-10-83-13-14-2-1-3 1-2 1-12 12 1 121 19 54 8 15 2 14 1 2-185 1-4-25-3-99-11-157-19-87-10-69-8h-5l-1 73-1 81v21l12 3 83 12 94 13 30 6-1 4-4 1-1-1h-12l-7-1-1 5-1 4-23-3-46-7-99-14-27-5-13-5-18-11-27-18-20-14-39-26-37-24-13-8-5-3-1 17-1 57-1 192v103l17-8 14-8 24-13 16-9 26 5 12 4 9 6 3 6-1 4-8 5-17 9-15 9-27 15-23 13-27 15-28 16-23 13-14 8-27 15-46 26-25 15-21 10-6 1-5-3-7-2h-7l-14-3-1-5 8-16 7-16 8-6 26-14 28-15 22-12 24-13 19-10 5-3 1-51 2-246 1-164-5-2-15-9-10-7-33-22-16-11-18-11-9-7-13-5-18-4-15-2-39-1-1 42-4 5-3 1h-11l-2-2v-53l-17-1-16-2-4-6-3-8-3 1-1-3-3-2-1-19-3-4v-4l-4 1-3 5-2 1-5-3-3-5-8 1-25 7-41 12-27 11h-5l-4-9v-6l2-2 23-5 65-19 12-5 10-6 11-3-2-8-4-10 1-10 3-8 8-6 3-3-2-7-1-10 2-8 5-5 3-1h16l3 2h3l7-12 4-4 3-1 30-2 5-3 1-4-6-3-10-1-23-1-2-3 6-11zm-24 75-3 2v7l4 6 6 4 4 7 4 1 4-14 3-4-2-6-2-2-13-1zm657 4 2 5 5 2h12v9l-1 5 1 3 7 2 2-1 6-1 10-13 1-3 6 1 1 4h8l6-4 1-3-2-1-21-1-5-2-20-2zm-680 12-3 4-1 7h3l1-2 3-1-1-8zm2 9-2 2h3zm54 107v8h1v-8zm-1 8-1 14h1l1-5v-9zm0 14v2l2-1zm1610 1-2 1 1 17 3 7 5 2 14-1 5-5 1-3v-14l-15-3zm74 107m-1 2m-1 2m-1 2 1 2zm-89 53v26l2 9v3l4 1 1-13v-21l1-4z" fill="#056DA4"/>
<path transform="translate(771,101)" d="m0 0h12l314 25 159 13 66 6 16 1 8 2 3 2v2l3-1-3-3 2-4h11l2-3 10-2 10-1-9-1 1-7 9-2-4-11h11l5 1 12-1 9 3 2-2h3v2l-3 3 2 6 5-1v3l3-2h7l1 1 7 1 1-5 4-1 4 4 12-4 3-2h11l8 3 5-5 7 1 6 2-1 3-4 1h-3l-4 3 2 5 9 6 1-4-1-2 3-9 4 2 3 3 1 9-3 5-6 3-3 4 9 6-3 1-5-2-3 1h-12l-5-2-1 29-1 117 1 16-3 7-3 3-16 8-15 8-23 11-5 3-2-1 7-12 1-3v-19l-5-12-6-6v-2h-9l-1 1-7 1-2 4-3 12-2 3 7 1v11l-2 4-4 4-2 3-3 1h-13l-5-4-5-13-1-4 2-5h2l2-4 2-2 2-7-7 3h-5v3l-2 3h-3l-2 7h-1v-10l2-12 12-12 8-4 8 1 2 2 14 2 10 8h3l-6-8 1-5 7-7 7-10 4 2 5 9 15 15 8 3h17l6-5 2-1v-14l-7-14v-3h-5l-1-1h-11l-4 1v-2l12-6 1-1-7-5h-5l1 5-4 6-4-1-11-15-11-18-8-11-6-9-1-4-5-5-6-9-6-10v-5h3l9 11 9 13 7 10 8 11 4 6v2h4l2-6h-2v-3l-4-1-5-12-12-22-7-10-8-16-3-5-8-3h-7l-12 4h-5l-1 4v15l4 11 9 16 12 18 6 10-1 6-6 1-10 2-3-3 1-7 1-5-9 2-5 5-4 5-4 12-1 6v8l5 15 6 8v2h2l-1 2-13-3-2-7v-8l-22-1-44-4-32-3-41-4-18-2-53-4-31-4-41-4-23-3-48-4-24-3-49-4-23-3-40-4-34-4-39-4-55-7-8-2-4-2-8-1v-2h-5l3-4-1-2 1-4-1-2v-6l4 2h1l1-5-1-2-6-3-1-7 2-3 3-1v-7l-4-5 2-9 5-5 6-3 8-13 6-5 15-1 9-2 5-5 9-1-3-1zm92 35 2 5 5 2h12v9l-1 5 1 3 7 2 2-1 6-1 10-13 1-3 6 1 1 4h8l6-4 1-3-2-1-21-1-5-2-20-2z" fill="#056DA4"/>
<path transform="translate(1485,157)" d="m0 0 5 1h12l5-1 3 2 11 2 347 28 19 2 3 2-2 20-2 3h-10l-65-4 6 17 9 2 34 3v8l-3 19 3 1h15l3-1h8l6 3 9 11 1 6-2 5-7 6-3 8-1 7v61l25 3h11l12-17 16-24 6-1 8 4 3 3 1 4-4 8-9 10-13 18-5 10-3 12-4 5-10 5-5 2-6 4-10 14-7 10-9 16-5 4h-6l-11-7-6-4h-6l-4 1-2 65-3 2h-14l-7-3-1-5v-56l-13-2-26-6-44-6-123-15-13-2h-5l2-6 5-4 8-3 12-2h22l20 2h1l16 2 2 1h5l2 1h8l1 1 17 1 19 3-4-1-16-3-19-2-4-2 22 1h5l6 2 11 1 8 2v2l7-1 1 1 12 1 8 2 7 2-1 3 10 3 13 5 3 4h12l5-3 3-7v-24l-2 16-2 5-1-3 1-3 1-16 1-4h-2l-1-2 1-25 3-21 7-4 6 1 10 6 6 8 3 8 3 13h5l2-3v-32l-3-6-7-3v-9l2-9 2-6 10-2 3-6 1-14-23-3h-6l2 20-8 4-14 3 1 2h-7l-1-4-1-18-1-6-8 3-6 8-2 3h-2l1 10 3 4v2h2v2l5-1 1-2h6l1 1 1 8 4 2 6 1v5l-2 2-6 2h-6l-1 3-4 1h-19l-2-1 2-13-1-5-5-1-26-2-39-6-26-3-26-2-32-1-26-2-25-4-38-3-14-3v-2l-3-1v-1h-7l-6 4-8 6-5 6-6 12-5 2v2h-2l-2 4-10 6-25 13-14 9-10 4-12 4-9 4h-11l-2-2 1-4-2-5h-13l-10-2-8-6-7-8-3-7-1-13 2-4h3l1-4v-3l1 2 9-2 4-2-3 9-4 5h-2l-1 6 3 9 4 8 3 2h13l3-1 4-6h2l2-15h-8l2-6 3-10 3-5 7-1 1-1 9 1 8 10 4 10v19l-6 12-1 3 19-10 16-8 21-10 5-2 3-9-1-18 1-115 1-27zm437 237m-1 2m-1 2m-1 2 1 2zm-89 53v26l2 9v3l4 1 1-13v-21l1-4z" fill="#056DA3"/>
<path transform="translate(230,57)" d="m0 0 65 5 153 12 130 11 191 15 2 2v2l2 2-10 1-5 5-9 2-15 1-6 5-7 12-4 3-5 3-3 4-1 7 4 5v7l-4 2-1 7 3 3 4 2 1 3-1 4-1 2-5-4 2 9-1 4 2 2-3 2 3 2-19-1-52-5-35-4-61-5-33-4-31-4-61-6-73-8-82-8-26-2-11-2h-3l-1-2 4-7-2-6-1-1-13-1-7 1-5 3-7-4-3-7 6-7 1-3h-2l1-5h4l-1-4h7l3 2h3l7-12 4-4 3-1 30-2 5-3 1-4-6-3-10-1-23-1-2-3 6-11z" fill="#0281B4"/>
<path transform="translate(1381,117)" d="m0 0h11l5 1 12-1 9 3 2-2h3v2l-3 3 2 6 5-1v3l3-2h7l1 1 7 1 1-5 4-1 4 4 12-4 3-2h11l8 3 5-5 7 1 6 2-1 3-4 1h-3l-4 3 2 5 9 6 1-4-1-2 3-9 4 2 3 3 1 9-3 5-6 3-3 4 9 6-3 1-5-2-3 1h-12l-5-2-1 29-1 117 1 16-3 7-3 3-16 8-15 8-23 11-5 3-2-1 7-12 1-3v-19l-5-12-6-6v-2h-9l-1 1-7 1-2 4-3 12-2 3 7 1v11l-2 4-4 4-2 3-3 1h-13l-5-4-5-13-1-4 2-5h2l2-4 2-2 2-7-7 3h-5v3l-2 3h-3l-2 7h-1v-10l2-12 12-12 8-4 8 1 2 2 14 2 10 8h3l-6-8 1-5 7-7 7-10 4 2 5 9 15 15 8 3h17l6-5 2-1v-14l-7-14v-3h-5l-1-1h-11l-4 1v-2l12-6 1-1-7-5h-5l1 5-4 6-4-1-11-15-11-18-8-11-6-9-1-4-5-5-6-9-6-10v-5h3l9 11 9 13 7 10 8 11 4 6v2h4l2-6h-2v-3l-4-1-5-12-12-22-7-10-8-16-3-5-8-3h-7l-12 4h-5l-1 4v15l4 11 9 16 12 18 6 10-1 6-6 1-10 2-3-3 1-7 1-5-9 2-5 5-4 5-4 12-1 6v8l5 15 6 8v2h2l-1 2-13-3-2-7v-8l-22-1-44-4-32-3-41-4-18-2-53-4-31-4-41-4-23-3-48-4-24-3-49-4-23-3-40-4-34-4-39-4-55-7-8-2v-1l19 1 145 15 101 9 37 3 35 4 42 4 39 4 81 7 105 8 22 1-2-3-1-7v-45l1-39 1-11 4-2-3-3 2-4h11l2-3 10-2 10-1-9-1 1-7 9-2z" fill="#9EB7C6"/>
<path transform="translate(1508,906)" d="m0 0h10l37 8 6 4 6 11-1 7-9 13-14 19-9 12-11 15-8 11-10 13-10 14-13 17-14 19-8 12-14 19-10 14-10 13-8 12-13 18-11 16-4 3-28-7-22-4-10-4-1-1v-7l6-25 4-11 5-9 14-19 13-16 11-14 11-13 10-13 9-11 3-4 5-1v6l-2 3-3 1-3 6h-2v2h-2l1 4-5 9 2 1-2 4-2 3 2 2-10 8-6 8-2 11v2l11-3 10-3-1 4 5-1v-3l-3-1 4-1 5 1 7-1 1-3h3l2-4h2l2-5 6-5h2v-2l4-3 2-5 4-4 7-11 4-1 6-13h2l1-2-2-1 2-5h3l1-8 2-15 4-14 5-17 9-25 2-6 2-5 1-7 4-1v-2h2v-7z" fill="#095685"/>
<path transform="translate(1485,157)" d="m0 0 5 1h12l5-1 3 2 11 2 38 3 8 2-1 7v25l-5 12-9 14-5 6h-2l-2 5-4 8-7 20-2 6 1 7 5 1-1-1v-9l3-10 1 4-2 11v2l12 3h3l-6-4 1-16 2-5 1 3-1 9 1 8 11 3 15 4 17 2 32 2 18 3 7 1-6 3-14-1-50-4-43-5h-12l1 2 10 2 101 11 26 3 1 1 57 7 50 4 19 2 3 1v-2h3v3h3l3 9 4 6 5 3 3 4v6l-4 1h-19l-2-1 2-13-1-5-5-1-26-2-39-6-26-3-26-2-32-1-26-2-25-4-38-3-14-3v-2l-3-1v-1h-7l-6 4-8 6-5 6-6 12-5 2v2h-2l-2 4-10 6-25 13-14 9-10 4-12 4-9 4h-11l-2-2 1-4-2-5h-13l-10-2-8-6-7-8-3-7-1-13 2-4h3l1-4v-3l1 2 9-2 4-2-3 9-4 5h-2l-1 6 3 9 4 8 3 2h13l3-1 4-6h2l2-15h-8l2-6 3-10 3-5 7-1 1-1 9 1 8 10 4 10v19l-6 12-1 3 19-10 16-8 21-10 5-2 3-9-1-18 1-115 1-27z" fill="#05496F"/>
<path transform="translate(225,147)" d="m0 0 2 2 11 2 48 4 47 5 30 3 133 14 39 5 43 4 36 3 44 5 34 3 34 4 1 2 20 3 56 7 41 4 32 4 31 3 36 4 37 3 25 3 47 4 23 3 49 5 25 3 52 4 38 4 35 3 39 4 35 3 2 15-48-6-73-7-48-6-28-5-36-1-22-2-13-2-21-2-29-4-10-3-18-2-36-2-18-2-25-3-38-3-30-3-46-4-33-4-56-5-33-3-38-3-82-7-166-16-70-7-92-10-16-3-7-3-5-6-1-8 3 3 2 5 4 1 1-8z" fill="#536B7C"/>
<path transform="translate(1861,313)" d="m0 0h8l1 1 2 12 3 9 4 25 4 5 7 12 3 1 8-1 7-3 4-2 13-1 12-17 16-24 6-1 8 4 3 3 1 4-4 8-9 10-13 18-5 10-3 12-4 5-10 5-5 2-6 4-10 14-7 10-9 16-5 4h-6l-11-7-6-4h-6l-4 1-2 65-3 2h-14l-7-3-1-5v-56l-13-2-26-6-44-6-123-15-13-2h-5l2-6 5-4 8-3 12-2h22l20 2h1l16 2 2 1h5l2 1h8l1 1 17 1 19 3-4-1-16-3-19-2-4-2 22 1h5l6 2 11 1 8 2v2l7-1 1 1 12 1 8 2 7 2-1 3 10 3 13 5 3 4h12l5-3 3-7v-24l-2 16-2 5-1-3 1-3 1-16 1-4h-2l-1-2 1-25 3-21 7-4 6 1 10 6 6 8 3 8 3 13h5l2-3v-32l-3-6-7-3v-9l2-9zm61 81m-1 2m-1 2m-1 2 1 2zm-89 53v26l2 9v3l4 1 1-13v-21l1-4z" fill="#085785"/>
<path transform="translate(581,728)" d="m0 0 26 5 12 4 9 6 3 6-1 4-8 5-17 9-15 9-27 15-23 13-27 15-28 16-23 13-14 8-27 15-46 26-25 15-21 10-6 1-5-3-7-2h-7l-14-3-1-5 8-16 7-16 8-6 18-10h4l3 3 2 1h12l10-3 5-4h11v-2l18-6 6-4 16-8 9-6 5-3h2l2-4 3-4 1-3 8-4 13-7 7-5 3-4h2l2-4 3-4h2l2-6 7-14 5-14h3l1 5-2 2v3l5-4 3-4h3v5l7 1 19-10 23-13 19-10z" fill="#085685"/>
<path transform="translate(704,297)" d="m0 0 10 2 7-1v2l10-1 2 2 5 1v-2l5 1v2h4v-2l5 1 4 1 3-1 2 1v2l4-2 5 1v2l6-2 5 2 4-1 4 2 2-1 7 3 1-2 7 3 1-2 7 2 2-1 2 1v2h5l1-2 6 3 1-2 7 3v-2l5 1v2h3v-2l7 2 3-1 6 1h5l4 1 8 1 1 1 3-1 10 2 14 1 14 2 13 1 1 1 17 1 24 3 20 2 18 2h2v2l7-1 8 1 11 1 4 1 8 1 13 2 17 2 18 2 10 1 6 1 9 1 1 5v12l-6 1-131-15-140-17-87-10-69-8h-5l-1 50h-1v-17l-2-1v-14l-4-20 2-9 3-4 3-1h13z" fill="#095886"/>
<path transform="translate(1369,144)" d="m0 0h16l10 4 14 15 10 15 10 16 8 12 11 15 8 10 10 18 2 3v1l4 1 7 2 3 1v4l1 12v30l1 16-3 7-3 3-16 8-15 8-23 11-5 3-2-1 7-12 1-3v-19l-5-12-6-6v-2h-9l-1 1-7 1-2 4-3 12-2 3 7 1v11l-2 4-4 4-2 3-3 1h-13l-5-4-5-13-1-4 2-5h2l2-4 2-2 2-7-7 3h-5v3l-2 3h-3l-2 7h-1v-10l2-12 12-12 8-4 8 1 2 2 14 2 10 8h3l-6-8 1-5 7-7 7-10 4 2 5 9 15 15 8 3h17l6-5 2-1v-14l-7-14v-3h-5l-1-1h-11l-4 1v-2l12-6 1-1-7-5h-5l1 5-4 6-4-1-11-15-11-18-8-11-6-9-1-4-5-5-6-9-6-10v-5h3l9 11 9 13 7 10 8 11 4 6v2h4l2-6h-2v-3l-4-1-5-12-12-22-7-10-8-16-3-5-8-3h-7l-12 4h-5l-2 14-2-4-3-10 1-5 10-1z" fill="#B8A16F"/>
<path transform="translate(1379,147)" d="m0 0h7l9 4 10 19 7 11 5 8 8 15 4 10v2l4 1v3h2l-1 6-2 2-5-5-7-11-8-10-7-11-13-17-2-1 1 7 8 13 5 7 3 2 2 5 12 18 11 17 11 16 4 1 3-6-1-4 5-1 5 3 4 4-7 4-7 2v2l4-2h11l6 2 4 10 4 7v14l-5 3-4 4h-17l-9-4-16-16-4-8h-4l-7 10-6 7 1 5 5 6-1 2-6-3-7-6-14-2v-4l2-1-1-13 4-10 3-7-1-11-2-7 1-5 4-5-1-5h-3l-10-16-7-10-9-16-4-11v-15l2-4 15-4z" fill="#0F1214"/>
<path transform="translate(1133,366)" d="m0 0h10l30 3 51 8 4 4 4 6v27l-3 7-5 4-6 1h-9l-10-2-5 1v9l-4 1 1 4v14l-1 3-4-1-1-2 1-19-13-3h-7v-2l8-1-1-5h-2v-2l-26-2-3-3-4-2v-2h-2l-1 5h-2l-1 69-1 53h-1v-64l1-106z" fill="#3D6A8B"/>
<path transform="translate(225,147)" d="m0 0 2 2 11 2 48 4 47 5 30 3 133 14 29 4v1l-19 1-14 4 2 2 30 4 7 3 29 4v1h-12l-145-14-70-7-92-10-16-3-7-3-5-6-1-8 3 3 2 5 4 1 1-8z" fill="#3D6B8C"/>
<path transform="translate(1381,117)" d="m0 0h11l5 1 12-1 9 3 2-2h3v2l-3 3 2 6 5-1v3l3-2h7l1 1 7 1 1-5 4-1 4 4 12-4 3-2h11l8 3 5-5 7 1 6 2-1 3-4 1h-3l-4 3 2 5 9 6 1-4-1-2 3-9 4 2 3 3 1 9-3 5-6 3-3 4 9 6-3 1-5-2-3 1h-12l-5-2-1 3-1 22-1 53-2 1-4-17-3-7 1-6-7-9-6-10-3-6-11-2-3 2-7-1-2-2v-16l4-1 1-4-1-3-16-4-9-2-20-2-10-4-15-1v-1l15-2-9-1 1-7 9-2z" fill="#BAD1DD"/>
<path transform="translate(763,106)" d="m0 0h5l11 9 10 5 2 3v10l-2 5 3 8-3 7-10 7-6 11-6 5-5 2-17 2-3 3-4 1h-8l-5-5-2-5-10 1-6-3-1-7 2-3 3-1v-7l-4-5 2-9 5-5 6-3 8-13 6-5 15-1 9-2z" fill="#F0F4F6"/>
<path transform="translate(1484,270)" d="m0 0 1 4 12 2 17 2 4 5 5 2 8 2-1 3-7 3-6 4-8 6-5 6-6 12-5 2v2h-2l-2 4-10 6-25 13-14 9-10 4-12 4-9 4h-11l-2-2 1-4-2-5h-13l-10-2-8-6-7-8-3-7-1-13 2-4h3l1-4v-3l1 2 9-2 4-2-3 9-4 5h-2l-1 6 3 9 4 8 3 2h13l3-1 4-6h2l2-15h-8l2-6 3-10 3-5 7-1 1-1 9 1 8 10 4 10v19l-6 12-1 3 19-10 16-8 21-10 5-2 3-9-1-18 1-29z" fill="#1C282F"/>
<path transform="translate(1351,1099)" d="m0 0 2 1-2 4h-2l1 5 16 4 12 2 24 8 7 4h14l1 3-9 13-13 18-8 12-4 3-28-7-22-4-10-4-1-1v-7l6-25 4-11 5-9z" fill="#084366"/>
<path transform="translate(1739,206)" d="m0 0 4 2 6 7 8 16 14 30 8 19v3l-68-4-36-4 1-2h4l2-5 20-20 7-8 9-10 10-11 7-8z" fill="#BAA26F"/>
<path transform="translate(913,523)" d="m0 0 12 1 121 19 8 2v5l9 3 17 4 2 1v2l9 2h15l13-1 2-2h12l8-5h6l-2-4 2-2 14-1 6 3-2 4h-2v4l4 1-1 3-27 8-14 1-30-3-119-18-64-10-1-3 1-2z" fill="#0A5A89"/>
<path transform="translate(1522,278)" d="m0 0h5v2h-2l1 2 10 2 101 11 26 3 1 1 57 7 50 4 19 2 3 1v-2h3v3h3l3 9 4 6 5 3 3 4v6l-4 1h-19l-2-1 2-13-1-5-5-1-26-2-39-6-26-3-26-2-32-1-26-2-25-4-38-3-14-3v-2l-3-1v-1l-5-1 1-2 4-1 1-2-8-1-1-2-5-3v-2z" fill="#4C5D69"/>
<path transform="translate(1364,141)" d="m0 0h20l10 4 25 3 17 4 4 2 1 6-3 3-2 1v14l3 2h5l5-2 9 2 3 5 6 11 7 8 1 5-1 4 4 9 3 13 1-53 1-22h1v26l-1 87h-1l-1-12v-4l-9-2-4-1-3-1 2-2-4-5-9-17-9-10-13-19-12-19-8-12-7-9-10-11-10-4h-16l-3 2h-10l1 8 3 11v5l-5-4-4-11 1-5-3-3 2-4h11z" fill="#9FB8C7"/>
<path transform="translate(1485,157)" d="m0 0 5 1h12l5-1 3 2 11 2 38 3 8 2-1 7v25l-5 12-9 14-5 6h-2l-2 5-4 8-7 20-2 6 1 7 5 1-1-1v-9l3-10 1 4-2 11v2l12 3h3l-6-4 1-16 2-5 1 3-1 9 1 8 11 3 15 4 17 2 32 2 18 3 7 1-6 3-14-1-50-4-53-6h-10l2 3 4 2-3 1-5-4 1-9 2-22 4-14 10-14 7-10 5-5 5-10-1-9-2-9-4-2-4-4-5-2-16 2-10-3-14 2-5-3v-2h-3v35l-1 56h-1v-72l1-27z" fill="#0B5784"/>
<path transform="translate(501,398)" d="m0 0h9l1 1v43h-2v28l-1 162-1 42h-3l-2-3-2-20h-1l-1-35v-90l-2-30-2-13-1-15-4-17-2-18v-9l3-14 2-7 4-4z" fill="#085684"/>
<path transform="translate(1955,329)" d="m0 0 6 1 6 3 3 3 1 4-4 8-9 10-13 18-5 10-3 12-4 5-10 5-5 2-6 4-10 14-6 8h-8l-5-8v-2l-6 1-9 5 2-13v-4h-2l-2-11 2-3 6 1 2 1h7l14-7 8-5 9-3 11-2h13v-8l1-2-3 1v-2l-8-1-3-3 12-17 16-24zm-33 65m-1 2m-1 2m-1 2 1 2z" fill="#4C5D6A"/>
<path transform="translate(197,236)" d="m0 0h8l28 5 22 3 23 3 6 1-2 2 16 4 5 3 3 5v2l-2 1-16-1-39-1-1 42-4 5-3 1h-11l-2-2v-53l-17-1-16-2-4-6v-8l2-2zm42 28v8h1v-8zm-1 8-1 14h1l1-5v-9zm0 14v2l2-1z" fill="#095786"/>
<path transform="translate(1134,371)" d="m0 0 1 2 4-1 13 1h12l16 2 8 3v1h-17l-9-1-1 14h25l1 4-1 6h2l1 17h2v-9h2v-5h16l11 1 4 2v9l-2 5-3 1h-12l-2-2 2-4 2 3 3 1v-6l3-2h4v-4l-2-1-23-2 1 15h5l-1 3-5 1v9l-4 1 1 4v14l-1 3-4-1-1-2 1-19-13-3h-7v-2l8-1-1-5h-2v-2l-26-2-3-3-4-2v-2h-2l-1 5h-1z" fill="#0C5683"/>
<path transform="translate(694,492)" d="m0 0 12 1 171 24 30 6-1 4-4 1-1-1h-12l-7-1-1 5-1 4-23-3-46-7-42-6v-2l-18-2-3-3-1-2-15-3-5-3-7-1-11-4v-2l-10-1-5-3z" fill="#095988"/>
<path transform="translate(980,147)" d="m0 0h15l33 2 7 1-3 10-8 19-4 10-1 1h-10l-36-4-5-3-6-10 1-5 7-12z" fill="#F7F9FA"/>
<path transform="translate(723,202)" d="m0 0 19 1 145 15 101 9 37 3 35 4 42 4 39 4 35 3v1h-11l-14-1 7 2 28 3 63 5 69 6 17 1 7 2v1h-10l-103-9-20-1-18-2-53-4-31-4-41-4-23-3-48-4-24-3-49-4-23-3-40-4-34-4-39-4-55-7-8-2z" fill="#B0AB91"/>
<path transform="translate(1369,144)" d="m0 0h16l10 4 14 15 10 15 10 16 8 12 11 15 8 10 10 18 2 3-5 3-8-6h-5l1 5-4 6-4-1-11-15-11-18-8-11-6-9-1-4-5-5-6-9-6-10v-5h3l9 11 9 13 7 10 8 11 4 6v2h4l2-6h-2v-3l-4-1-5-12-12-22-7-10-8-16-3-5-8-3h-7l-12 4h-5l-2 14-2-4-3-10 1-5 10-1z" fill="#4A5B68"/>
<path transform="translate(1041,150)" d="m0 0 29 2 28 3-2 6-7 18-6 16-1 1h-10l-12-1-3-1 1-4 9-23 3-11-2 1h-6l-3 9-7 18-3 8-1 1-16-1-7-1-1-3 10-25 6-12z" fill="#F7F9F9"/>
<path transform="translate(1368,220)" d="m0 0h6l-1 12 2 2 10-2 4-1 2 1v-8h2l2 6-5 6 1 7 2 9-1 7-3 7-3 8v7l1 6-5 3-8-1-6 3-2-1 2-3-1-1-12-2-5-2 4-1 9 2-1-1-7-10-5-15v-8l3-12 4-9 6-7z" fill="#4B5C6A"/>
<path transform="translate(766,219)" d="m0 0h27l19 1 22 3 38 4 32 3 38 3 18 2 31 2 41 4 42 3 16 2 20 1 10 2 47 5 5 2 25 5 16 2 24 2 12 3 41 4 20 3v1l-18-1-63-6-48-6-28-5-36-1-22-2-13-2-21-2-29-4-10-3-18-2-36-2-18-2-25-3-38-3-30-3-46-4-33-4-12-1z" fill="#3D6B8B"/>
<path transform="translate(762,118)" d="m0 0 8 1 8 7 4 6v4h-2l-1 4-4-1-7-2-17-1-8 3-7 4-9 2-1 5 2 2 4 2 3-5 5 1 2 5h14l1-1v-6l-2-3-1 4-4-1-3 3h-2v2h-2l2-4 1-3h-5l2-3 3-1 17 1 9 2h5l1 9-6 7-11 8-7 3-14 2h-4l-12-7-4-7v-8l2-4 1-10 5-6 8-7 6-4 8-2z" fill="#0281B5"/>
<path transform="translate(1096,244)" d="m0 0h11l42 5 52 4 38 4 35 3 39 4 35 3 2 15-39-5-1-1-30-4-31-3-12-3-26-2-26-4-17-4-1-1-49-5-7-2v-2l-15-1z" fill="#546B7C"/>
<path transform="translate(930,142)" d="m0 0h17l20 2 3 1-2 4-1 1h-7l-1 14-6 6-1 6 5 4-1 3-3 1-20-1-30-3-2-1 1-8 10-25 2-2 1 5 10-2z" fill="#F9FAFA"/>
<path transform="translate(1374,288)" d="m0 0 8 1 2 2 14 2 10 8 5 2-3 1h-5l-1 1-7 1-2 4-3 12-2 3 7 1v11l-2 4-4 4-2 3-3 1h-13l-5-4-5-13-1-4 2-5h2l2-4 2-2 2-7-7 3h-5v3l-2 3h-3l-2 7h-1v-10l2-12 12-12z" fill="#4B5D6A"/>
<path transform="translate(1484,270)" d="m0 0 1 4 12 2 17 2 4 5 5 2 8 2-1 3-7 3-6 4-8 6-5 6-6 12-5 2v2h-2l-2 4-10 6-25 13-14 9-10 4-12 4-9 4h-11l-2-2 1-2h11l12-6 7-4 3-3 23-11 17-9 8-4h2l3-9-1-18 1-29z" fill="#064164"/>
<path transform="translate(1344,1110)" d="m0 0 3 3 15 5 27 5 9 2 1 1v11l-3 6-7 4-12 3-15-1h-19l-9-5-1-6 4-17 5-10z" fill="#1D2930"/>
<path transform="translate(316,870)" d="m0 0h4l2 6 16 6 8 4 1 3-4 2-1 7-2 3h-2l-1 4-4 6-6 5-2 3h-4v-2h-7l3-1v-2l-4-1-9 4-11-1-4-2 1-7 8-15 5-12 4-5z" fill="#054064"/>
<path transform="translate(862,136)" d="m0 0 5 5 6 1h9l1 1v9l-1 5v3l7 1 2-1 6-1 9-12 2-4 2 1-8 20-7 13-3 2-18-1-3-1-17-1-10-5-2-2v-15l6-8 8-7z" fill="#F4F7F8"/>
<path transform="translate(780,214)" d="m0 0h34l38 4 24 3 31 3 36 4 37 3 25 3 47 4 23 3 21 2v2h10l5 1-1 2-20-1-27-3-31-2-41-4-31-2-40-4-40-3-34-4-28-3-37-6z" fill="#4C5E6B"/>
<path transform="translate(165,185)" d="m0 0 3 1-2 5-2 1-1 13-1 1-10 2-25 7-41 12-27 11h-5l-4-9v-6l2-2 23-5 65-19 12-5 10-6z" fill="#15191C"/>
<path transform="translate(1379,147)" d="m0 0h7l9 4 10 19 7 11 5 8 8 15 4 10v2l4 1v3h2l-1 6-2 2-5-5-7-11-8-10-7-11-13-17-2-1-1 5-2-4 1-4 4 1h3l-3-19-7-1h-2l-2 6h-12l5 13 7 11 10 17 10 15 4 7-2 4-3-1-9-11-7-9-5-9-8-12h-1l1 5-3-3h-3l-4-9-1-4v-15l2-4 15-4z" fill="#1C282F"/>
<path transform="translate(1527,279)" d="m0 0h10l43 5 40 4 52 6 25 2 44 5 31 3 13 4 7 2v3l-30-3-41-3-42-5-15-2-1-1-62-7-65-7-10-2-1-3z" fill="#A1B9C7"/>
<path transform="translate(1485,184)" d="m0 0h1l6 28 3 16 1 3 8-1 1 3 2 15 3 12 3 10 2 7 1 2-26-3-5-2-2-2 1-70z" fill="#054064"/>
<path transform="translate(1477,461)" d="m0 0h7v14l-4 4-21 9-14 5-16 8-4 4-3 12h-1v-38l5-3 28-9z" fill="#085685"/>
<path transform="translate(617,299)" d="m0 0h17l20 1 8 2v21l-1 9h-12l-7-1-22-2-3-1z" fill="#9FB8C7"/>
<path transform="translate(1841,188)" d="m0 0h17l29 3 3 2-2 20-2 3h-10l-49-3-5-1 1-7 4-4 10-5h18l5-4-9-1-10-2z" fill="#095A89"/>
<path transform="translate(736,231)" d="m0 0 12 1h20l3 2h16l26 3 28 2 12 2 2 3h-26l-2 4-7-1-1 6h-12l-5 2-1 2-7 1-1 2-2-2-7-2-2-4 2-8h11l3 1 2-1 9 1 2-3-12 1-3-2v-1h-6l-6 3-8-1 1 3-5 3-7-2-6-1-3 1v2l-6 2-4-3-2 1-3-2v-6l-1-5-5-2z" fill="#0280B4"/>
<path transform="translate(1641,298)" d="m0 0 23 1 57 7 50 4 19 2 3 1v-2h3v3h3l3 9 4 6 5 3 3 4v6l-4 1h-19l-2-1 2-13-2-9h-8l-48-6-34-5-13-3-32-3-12-3z" fill="#1D2A31"/>
<path transform="translate(1104,156)" d="m0 0 18 1 6 2-2 10-6 16-1 7 20 2 1 1v8l-45-5-4-1 1-6 6-15 4-13z" fill="#F6F8F9"/>
<path transform="translate(1821,452)" d="m0 0h11l-2 1 1 26 2 9 1 3 2 1v-34l3-4 5 1v50h2v8l-3 2h-14l-7-3-1-5z" fill="#4B5D6A"/>
<path transform="translate(816,131)" d="m0 0 32 3 3 2-3 5-17 1 5 13 1 4v8l-3 5-2 1h-12l-20-3-4-3 1-4h20l-3-6-3-5-1-10v-6l4-4z" fill="#F4F7F8"/>
<path transform="translate(1875,296)" d="m0 0 5 4 10-1-1 8v61l25 3-2 2-5 3-6 2-9 1-5-5-5-9-4-4-5-30-3-8-1-11 4-4z" fill="#0B70A5"/>
<path transform="translate(189,107)" d="m0 0h9l1 4-4 1-1 4h2l-1 4-5 6v3l2 1v3l4 2 3 1 4-1 2 8 5 5 4 6v5l2 3-10 5-5 5-6 3-9-1-3-12 2-1 1-19-1-9-1-1-1-12-2-1 1-4h2l2-4z" fill="#0C5784"/>
<path transform="translate(1833,349)" d="m0 0 5 3 3 4v2l3 1 7 10 2 6 2 8v10l-4 9-7 3-7-1-6-8-2-13v-30z" fill="#054064"/>
<path transform="translate(1069,311)" d="m0 0h13l21 4h16v7h-2l-2 4-3 1-2-2-1-2-5 8-4-1-13-3h-8l-15 2-42-1-30-4v-1h20l7 1h27l9-3 2-5 1-1h6v-3z" fill="#0281B5"/>
<path transform="translate(1420,118)" d="m0 0h3v2l-3 3 2 6 5-1v3l3-2h7l1 1 7 1 1-5 4-1 4 4 12-4 3-2h11l8 3 5-5 7 1 6 2-1 3-4 1h-3l-4 3 2 5 7 5v1h-7l-5-4-4-3v-2h-4l-6-3 5 6-3 2h-15l13 1 10 4v3l-37-5-24-1v-2l7-2h-10l-3-6-4-4v-2l-3-1-1-4 6 1z" fill="#A0B6C1"/>
<path transform="translate(1523,292)" d="m0 0h8v2l2 1v2l-6 4-7 5-1 2h-2l-1 4-3 7-4 3h-2l-2 4-4 4-10 2-1 2-6 2-1 2-7 1-3 3-11 6-5 3-4 3-5 2-11 8-3 3-10 3-14 2h-11l-6-3-1-5 2-5h-5v-1h6l3 6v4h11l17-7 12-4 12-7 10-6 25-13 5-4 1-2h2v-2l5-2 2-5 4-8 8-9 6-4z" fill="#075685"/>
<path transform="translate(963,257)" d="m0 0 12 1 12 4 3 2 5 1 3 2h18l5 2 20 2 12 2-1 2h-3l-1 2 6 2 3-3 2-1h8l-2 1-1 6-5 1h-9l-6 1-3-1v-3l-3 1-1 3-4-2 2-4-3-4-5-1-3 1-4 7h-13l-1-3h-2l-1-2-5 1-5-2-7 1-4-3v-4l-5 1v-2l-5 2-1-3h-2v2h-2v-2h-3l-2-2-7-1v-3l4-3z" fill="#0280B4"/>
<path transform="translate(1133,366)" d="m0 0h10l30 3 51 8 2 1v5l-2 2-7 2h-9v-2l-17-1-1 2v-6h-2v-2l-15-3-9-1h-17l-12-1-1 44-1 13-2 109h-1v-64l1-106z" fill="#688CA5"/>
<path transform="translate(1420,912)" d="m0 0h1l1 17 3 16 2 11 7 11 4 8 1 1 2 11 1 7-3 4-7 3-5 4-2 8-3 4-3-3z" fill="#0A5785"/>
<path transform="translate(229,260)" d="m0 0 12 1 31 1v1h-23l-1 42-4 5-3 1h-11l-2-2v-23zm10 4v8h1v-8zm-1 8-1 14h1l1-5v-9zm0 14v2l2-1z" fill="#4E606E"/>
<path transform="translate(1395,229)" d="m0 0 12 15 6 10 1 5-6 10-6 5-4 12-9 4 1 2h-6v-4l2-1-1-13 4-10 3-7-1-11-2-7 1-5z" fill="#1C282F"/>
<path transform="translate(809,279)" d="m0 0h12l5 2 13 4v3l-2 1 10 4 3 3h5l2 4-1 2 5 2-1 2 10 2 6 1v1l-21-1-3-1v-2l-13-2-10-3-5-3h-16l-5-3h-7v-7l8-3 1-2h3z" fill="#0281B5"/>
<path transform="translate(1137,393)" d="m0 0 2 1v2l13 1 24 1 3 3 1 10-2 9h-20l-13-1-3-3-4-2v-2h-2v-18z" fill="#3D6B8C"/>
<path transform="translate(1955,329)" d="m0 0 6 1 6 3 3 3 1 4-4 8-9 10-5 7-3-1-5 4-5 1v2h-9l-4-1 2-5 13-18 9-14z" fill="#687D8B"/>
<path transform="translate(439,341)" d="m0 0 3 2v93l-1 151-1 63 1 6v70l-1 11-1 41-1 20h2l-1 4h-2v-48l2-246 1-164-4-2z" fill="#1186B6"/>
<path transform="translate(717,134)" d="m0 0 5 1 1 13-2 4v8l4 7 11 6h4l19-3-3 3-8 4 4 2-7 1-3 3-4 1h-8l-5-5-2-5-10 1-6-3-1-7 2-3 3-1v-7l-4-5 2-9 5-5z" fill="#F2F5F7"/>
<path transform="translate(862,136)" d="m0 0 5 5 6 2-8 19-1 9 1 4-1 1h-10l-10-5-2-2v-15l6-8 8-7z" fill="#F9FAFA"/>
<path transform="translate(1484,270)" d="m0 0 1 4 12 2 17 2 4 5 5 2 8 2-1 3-13 2-18 6-13 4-2 3-2-4 1-29z" fill="#1C282F"/>
<path transform="translate(1347,1123)" d="m0 0 14 1 5-1 12 1 9 2 5 3 5 2v6l-6 3h-27l-15-1-7-2-2-2v-4l6-3z" fill="#0F1113"/>
<path transform="translate(316,875)" d="m0 0 26 10 2 4-3 5-9 4-3-1v-3l-12 2v2l-10 3-5 3h-2l2-9-4-1 3-10 2-4 4-3z" fill="#1C282F"/>
<path transform="translate(1167,430)" d="m0 0 12 1 7 3v20l4 2v-17l-1-4 5-1 3 4 1 19-3 3h-21l-8-4-1-2 1-23z" fill="#E7EDF0"/>
<path transform="translate(1186,402)" d="m0 0h2l1 17h2v-9h2v-5h16l11 1 4 2v9l-2 5-3 1h-12l-2-2 2-4 2 3 3 1v-6l3-2h4v-4l-2-1-23-2 1 15h5l-1 3-5 1v9l-4 1 1 4v14l-1 3-4-1-1-2 1-19-13-3h-7v-2l8-1-1-5h-2v-2l-2-1h9l1-15 2 3 2 2 2-7z" fill="#3D6A8B"/>
<path transform="translate(1369,144)" d="m0 0h16l10 4 14 15 10 15 10 16 8 12 11 15 8 10 10 18 2 3-4 2-8-11-7-11-7-9-3-5-4-4-8-13-6-11-2-3v-3h-2l-9-15-10-14-4-4-8-3h-7l-12 4h-5l-2 14-2-4-3-10 1-5 10-1z" fill="#556C7C"/>
<path transform="translate(1145,244)" d="m0 0 42 2 124 10 2 1 24 2v3h-19l-143-12-21-3-9-2z" fill="#EDF2F4"/>
<path transform="translate(1879,425)" d="m0 0 4 1 5 9h7l-1 5-8 14-5 4h-6l-11-7-3-4 3-12 9-7z" fill="#121417"/>
<path transform="translate(791,142)" d="m0 0 4 2 4 5v2h2l1 2 3-1v2l4 1 1 2-4 2h-4v2h-2l-1-1v1l7 1v1l-9 1 1 4 2 2 2 7h-3l-1 2-10 1-12-3h-3l-1-6 7-12 9-6 3-7z" fill="#0280B4"/>
<path transform="translate(1527,279)" d="m0 0h10l43 5 40 4 8 1 6 2 45 6 7 2v1h-10l-32-3-80-9-34-4-5-2v-2z" fill="#F3F6F8"/>
<path transform="translate(1497,456)" d="m0 0h1l-1 191-1 211h-1l-1-261v-34l-2-3 1-57h1l1-44z" fill="#2B5C7B"/>
<path transform="translate(762,118)" d="m0 0 8 1 8 7 4 6v4h-2l-1 4-4-1-7-2-19-2-1-2-2 1h-9l-4-3 1-4 8-6 8-2z" fill="#046DA4"/>
<path transform="translate(230,57)" d="m0 0 1 2h11l11 2 3 3v4h5l1 7-2 4h-15l-23-1-2-3 6-11z" fill="#0A6FA4"/>
<path transform="translate(1813,289)" d="m0 0h4l2 6 1 22h7l4 3 1 8-3 2-9-1-2-2-1-8-6-1-1 3h-5v-2h-2l-4-6-1-6 1-4h2l2-4 6-8z" fill="#FAFBFB"/>
<path transform="translate(1531,292)" d="m0 0 20 1 63 8 12 2 32 3 19 3v1l-41-1-26-2-25-4-38-3-14-3v-2l-3-1z" fill="#3D6B8B"/>
<path transform="translate(230,139)" d="m0 0h10v3l-2 4 10 3 17 1h5v1h14l3 1h6l2 1h7l1 1 6 1h8l1 1 15 1 3 1 22 2 36 5 65 7 21 2v1h-11l-97-10-26-3-82-8-26-2-11-2-1-4 4-5h3z" fill="#056CA3"/>
<path transform="translate(1508,127)" d="m0 0 4 2 3 3 1 9-3 5-6 3-3 4 9 6-3 1-5-2-3 1h-12l-5-2-1 2 1-5 2-6v-4l-10-4-18-2v-1h19l3-2-6-5 3-1 4 3h3l6 5 3 2v2l11 1 1-4-1-2z" fill="#A1B9C7"/>
<path transform="translate(1390,172)" d="m0 0 5 4 14 19 7 11 3 3 3 7 7 11 7 10 9 10 3 4-1 7-4 1-11-15-11-18-8-11-6-9-1-4-5-5-6-9-6-10v-5z" fill="#536A79"/>
<path transform="translate(1363,226)" d="m0 0 3 1-2 2-1 4 5-2 2 6-7 10v10l1 5 5 2 1 6-3 8h-5l-7-5-5-15v-8l3-12 2-6z" fill="#1C2930"/>
<path transform="translate(1549,252)" d="m0 0 1 3-1 9 1 8 11 3 15 4 17 2 32 2 18 3 7 1-6 3-14-1-50-4-53-6v-1l9-1-1-1v-9l3-10 1 4-2 11v2l12 3h3l-6-4 1-16z" fill="#075A8A"/>
<path transform="translate(1825,290)" d="m0 0h12l9 2 1 2 1 14-8 4-14 3 1 2h-7l-1-26z" fill="#0A5684"/>
<path transform="translate(863,132)" d="m0 0h9l4 2h7l23 3 1 1 16-1 25 4 9 1v1l-29-1-21-1-5-2-20-2h-20l-9 5-7 7-3 5-1 15-5 2-1-4v-8l-4-13-1-4 2-1h15l2-5-2-2 5-1h10z" fill="#046FA6"/>
<path transform="translate(1349,152)" d="m0 0 3 1 2 9 2 5 3 2v2h2v6l-3 1 1 22 1 10-3 5h-4l-5-12v-50z" fill="#BAD1DD"/>
<path transform="translate(1105,242)" d="m0 0 14 1h35l22 2v1h-11l-14-1 7 2 28 3 63 5 69 6 17 1 7 2v1h-10l-103-9-20-1-18-2-53-4-31-4-2-1z" fill="#AFAE99"/>
<path transform="translate(751,135)" d="m0 0 17 1 11 4 1-2-1 7-2 4-1-3-7-1-16-2h-7l-4 2 4 1-1 4-2 3h2v-2l5-4 4 1 1-4 3 4v6l-2 2h-14l-2-3v-3h-5l-3 5-6-3-1-5 2-3 12-3 8-5z" fill="#F3F6F8"/>
<path transform="translate(1450,248)" d="m0 0 7 1 6 5-4 3-8 4h-2v2l4-2h11l6 2 4 10 3 5-1 2-10-1-4 1-10-2-3-6-2-6-4-4-2-5 3 2 4-1 2-5-1-4z" fill="#1D2930"/>
<path transform="translate(1216,290)" d="m0 0h14l23 2 21 3 8 2 36 3 10 1 8 3v1h-20l-33-3-42-5-15-2-9-2-2-2z" fill="#0281B5"/>
<path transform="translate(1674,274)" d="m0 0 19 2 32 3 39 2 15 2 1-3 1 5-1 1-11 1-24-1-29-1-28-4-11-3-3-2z" fill="#12537A"/>
<path transform="translate(1415,310)" d="m0 0 6 2 5 12v19l-6 12-4 4-4-1-3-2v-10l5-10 1-4h2l2-4 2-5h-7l-3-2-1-8 4-2z" fill="#101215"/>
<path transform="translate(509,442)" d="m0 0h2l-1 221-1 48h-1v-244z" fill="#5E7C90"/>
<path transform="translate(1859,398)" d="m0 0 12 2-4 4 1 11h2l1 7-3 11-5 5-3 2-3-2-3-8 1-17 2-10z" fill="#056CA3"/>
<path transform="translate(1368,220)" d="m0 0h6l-1 12 2 2 10-2 4-1 2 1v-8h2l2 6-3 3-5 1-3 5v3l1 9v9h-2l-1 5-4-1-8-8-1-4 1-3v-8l2-1-3-11 2-5h-6l-4 2 2-4z" fill="#546B7B"/>
<path transform="translate(1950,363)" d="m0 0 2 1-2 5-7 10-3 7-3 12-4 5-10 5-7-1 2-6 2-4 2-7 2-4h14v-8l1-2-3 1v-2l-8-1-3-3 1-1 14 1v-2l8-4z" fill="#546774"/>
<path transform="translate(587,270)" d="m0 0h5l3 3v1h3l1-3h2l-1 5 3 5-3 5-12 5-5 3-3 3h-5l1-7-2-2v-2l-1-4 3-3v-3h3l1-4 6-1z" fill="#0280B4"/>
<path transform="translate(1458,472)" d="m0 0 9 1v4l-12 7-8 3-12 5-12 3-1-1v-9l1-2 17-6 17-4z" fill="#05496F"/>
<path transform="translate(1404,117)" d="m0 0 8 1 2 5 8 8 2 4h15v1l-13 3h-10l-18-4-8-3 3-2 4-1v-2h5v-2l-9-1 2-5z" fill="#91A7B4"/>
<path transform="translate(486,628)" d="m0 0h1l1 32v20l1 12 1 3h-2l1 12-3 23 1 1-1 11-2 9-3 6-3 4-7 13-1-2 3-7 5-21 3-12 1-14 2-12 1-19v-22z" fill="#075685"/>
<path transform="translate(1116,128)" d="m0 0 18 1 13 1 2 3h-2v2l-5 1-6-1-4 1h7l10 3v3h-7l-5-1h-10l-13-3-12-2-10-3 1-2 20-1z" fill="#0280B4"/>
<path transform="translate(1374,288)" d="m0 0 8 1 2 2 14 2 8 7v2l-6-1-1 3-3-2v3l-5 2h-13v-2l-5-1 3-3 1-6h2v-2l-9 3-7 4-2-3 8-7z" fill="#FAFBFA"/>
<path transform="translate(345,890)" d="m0 0h1l3 9 3 3 1 5-1 4-23 11-6 1-5-3-7-2h-7l1-3 9-3v2h3v2l4 1v2l4-1 2-3h2l2-4 4-4 3-6h2l3-10z" fill="#074B71"/>
<path transform="translate(1039,233)" d="m0 0 34 2 68 7v2h-22l-12-1-2-1v2h-9l-36-4-8-1-1-3h-10l-3-2z" fill="#B4AB8A"/>
<path transform="translate(1421,664)" d="m0 0h1l1 10 1 46 3 43h-1l-1 27-2 11h-2z" fill="#075685"/>
<path transform="translate(1654,309)" d="m0 0h14l36 3 28 4 27 4 26 2 6 2 1 7-2 9h-1v-7l1-5-8 1-8-3-10-1-1-2-13-1-20-3-19-3-29-1-28-5z" fill="#085685"/>
<path transform="translate(260,89)" d="m0 0 2 1-1 4-5 3h-2l-1 4-11 5v-2l-10-1-6 1-2-4-3 1 1-8 3-1 13-1h20z" fill="#1172A5"/>
<path transform="translate(1162,377)" d="m0 0 26 2 2 1v8l-2 6-4-1h-14l-9-1v-14z" fill="#506D82"/>
<path transform="translate(864,516)" d="m0 0 13 1 30 6-1 4-4 1-1-1h-12l-7-1-3 6-7-1v-2l-5-2-7-4-9-3 3-3 12 1 1-1z" fill="#086EA3"/>
<path transform="translate(677,177)" d="m0 0 4 1v2l8 1 6 2-4 4-7 2-1 2-3 1 9 2v2l-5 1-35-3-44-5v-1h15l15 1 7 2 8 1h15l5-1-3-2v-2l5-1-1-4 3-1-1-3z" fill="#046DA4"/>
<path transform="translate(795,107)" d="m0 0h8l5 4 3 3-2 5v3l8 2-1 2-8-1-7-1h-3l-5 2-3-6-4-1-4-3 2-1-1-3-2-1 4-3z" fill="#0280B4"/>
<path transform="translate(1464,342)" d="m0 0m-2 1h2l1 3-8 5-4 3-5 2-11 8-3 3-10 3-14 2h-11l-6-3-1-5 2-5h-5v-1h6l3 6v4h11l17-7 12-4 12-7 10-6z" fill="#075685"/>
<path transform="translate(766,219)" d="m0 0h27l19 1 22 3 38 4 32 3v1l-5 1h-12l-30-3-46-4-33-4-12-1z" fill="#3F6B8A"/>
<path transform="translate(1168,398)" d="m0 0h8l3 3 1 10-2 9h-12l-5-2v-14l-1-2 3-3z" fill="#587081"/>
<path transform="translate(1833,349)" d="m0 0 3 2-4 1-1 3v22l2 10 3 6 1 1h11l3-5v-7l-3-12-6-9-3-4 1-2 1 3 3 1 7 10 2 6 2 8v10l-4 9-7 3-7-1-6-8-2-13v-30z" fill="#05496F"/>
<path transform="translate(1374,323)" d="m0 0 5 2 9 1 7 1v11l-3 3h-2l-1 5-4 2h-12l-3-3-2-10h7l6 8 2-4h8l1-5h-9l-3-1v2l-4-1 1-3-4-4z" fill="#556C7C"/>
<path transform="translate(1890,400)" d="m0 0 1 2-3 7-8 10-5 6-6 4 1-14h-2l-2-11 2-3 6 1 2 1h7z" fill="#506B7F"/>
<path transform="translate(970,145)" d="m0 0h36l9 2v1h-35l-10 9-8 15-3-1-4 2-2-4 5-5 1-11 1-3 7-1z" fill="#027EB2"/>
<path transform="translate(1484,278)" d="m0 0 28 1-2 9-7 3-16 3-3 1z" fill="#0F1113"/>
<path transform="translate(1684,298)" d="m0 0 16 1 45 5 14 3v1l-14 1-43-4-23-3-15-2v-1h20z" fill="#A69C7D"/>
<path transform="translate(1186,402)" d="m0 0h2l1 17h2v-9h2v-5h16l11 1 4 2v9l-2 5-3 1h-12l-2-2 2-4 2 3 3 1v-6l3-2h4v-4l-2-1-23-2 1 15h5v1l-18-1v-4l1-2h-2v-5h2l2-7z" fill="#556C7C"/>
<path transform="translate(1797,307)" d="m0 0 2 2 3 7 1 3h2v2l5-1 1-2h6l1 1 1 8 4 2 6 1v5l-2 2-6 2h-7l-4-7-5-3-5-7-1-8h-3z" fill="#526B7C"/>
<path transform="translate(873,142)" d="m0 0h9l1 5-8 19-4 5-7 1-1-1 1-9 7-17z" fill="#0871A6"/>
<path transform="translate(198,107)" d="m0 0h6l1 6 1 7 1 1v7 3h-2l-2 4-5 2-6-4-3-7 6-7 1-3h-2l1-5h4z" fill="#056BA1"/>
<path transform="translate(1341,246)" d="m0 0 4 1v9l-1 1h-16l-16-1-11-2h-27v-2h-11l-9-1v-2h17l42 3h18l9-5z" fill="#075786"/>
<path transform="translate(205,149)" d="m0 0 7 1 2 4v6l-2 2-7 3-9 6-4 1-3-1-1-7 4-3h2l2-6z" fill="#073E60"/>
<path transform="translate(1420,118)" d="m0 0h3v2l-3 3 2 6 5-1v3l3-2h7l1 1 7 1 1-5 4-1 4 4 12-4 3-2 4 1-11 6-4 4-3 2h-32l-3-6-4-4v-2l-3-1-1-4 6 1z" fill="#FBFCFC"/>
<path transform="translate(241,265)" d="m0 0h6l1 1v39l-1 2h-3v-2l-4-1-3-5v-6l3-4v-10h2z" fill="#1C2830"/>
<path transform="translate(996,154)" d="m0 0h7l4 2-4 10-7 13-2 2-7-1-2-2 1-5 5-11 3-6z" fill="#066EA4"/>
<path transform="translate(1351,1099)" d="m0 0 2 1-2 4h-2l1 5 16 4 12 2 24 8 7 4h14l1 3-5 8-1-2-8 1-5-2-3-4-1-7-18-4-31-7-5-3-1-5z" fill="#064A70"/>
<path transform="translate(1194,406)" d="m0 0h12l11 1 3 3-1 3-7 2v6l-4-1-1-1-2 3-10-1-1-7z" fill="#9FB8C7"/>
<path transform="translate(579,729)" d="m0 0 2 1-7 7-11 7-2 2-7 2h-4l-1 4-7 4h-2v2l-7 3-7 1v2l-9 2v-3l15-8 23-13 19-10z" fill="#0E486B"/>
<path transform="translate(291,247)" d="m0 0 18 4 6 4 3 4-1 7-9 1-5-1 2-5-2-4-5-2-16-4-5-1v-1l8-1 6 1z" fill="#085685"/>
<path transform="translate(1879,425)" d="m0 0 4 1 5 9h7l-1 5-8 14-1-4 1-1v-8l-12-5h-7l-1 2-2 12-3-3 3-12 9-7z" fill="#202D35"/>
<path transform="translate(1096,244)" d="m0 0h11l42 5 42 3 6 2v1h-30l-49-5-7-2v-2l-15-1z" fill="#556C7C"/>
<path transform="translate(1381,117)" d="m0 0h11l3 2-2 5 9 1v2h-5v2l-4 3 5 2 10 2v1l-31-1-1-1v-5l9-2z" fill="#A4BCCA"/>
<path transform="translate(1432,923)" d="m0 0 6 4 4 5 1 5h18l-1 3v5l-7 3-4 2v3l2 1-4-1-6-7v-3l-3-2-1-6-5-10z" fill="#075685"/>
<path transform="translate(1177,433)" d="m0 0h7l2 1v19l-8 2-7-7-1-2v-6l2-3 3-1z" fill="#F1F3F4"/>
<path transform="translate(906,200)" d="m0 0h18l9 2 6 4 5-1 4-2 3 1h-2l-2 4-12 1-5 1-7-2-8-2-8 1-9-1h-11l-1-2z" fill="#0281B5"/>
<path transform="translate(1875,200)" d="m0 0h6l-3 2-11 4-5 3-6 1h-15l-7 2-9-1 2-6 3-2h7l2 1h14z" fill="#056DA4"/>
<path transform="translate(863,132)" d="m0 0h9l4 2h7l23 3 1 1 16-1 25 4 9 1v1l-29-1-21-1-5-2-20-2h-20l-10 5-3-4 1-2-2-2 5-1h10z" fill="#1488B7"/>
<path transform="translate(723,202)" d="m0 0 19 1 69 7-2 2 16 2v1h-11l-44-5-39-5-8-2z" fill="#9FB8C7"/>
<path transform="translate(1189,251)" d="m0 0h11l118 10 17 1 7 2v1h-10l-103-9-20-1-18-2z" fill="#BBA36F"/>
<path transform="translate(1475,129)" d="m0 0 4 1 3 2h3l6 5 3 2v2l9 1 1 3-4 4 3 1-3 3-5-1v-2l-6-2-2-4-10-4-18-2v-1h19l3-2-6-5z" fill="#4F6371"/>
<path transform="translate(1138,375)" d="m0 0 17 1 1 2v14l-11-1v-2l-4-1v-2l-5-2v-8z" fill="#5F7786"/>
<path transform="translate(165,185)" d="m0 0 3 1-2 5-2 1-1 13-1 1-10 2-6 1 2-1 1-7 2-5-10 3-4-1 14-5 11-7z" fill="#273741"/>
<path transform="translate(778,152)" d="m0 0h1l1 7-7 12-6 5-5 2h-15l4-4 7-3 3-3 8-6 7-6z" fill="#F2F6F7"/>
<path transform="translate(1374,293)" d="m0 0h5v2l-8 2v2l-2 2h3l-1 5-7 2-3-1-1 2h2v3l3 1h-5v3l-2 3h-3l-2 7h-1v-10l2-12 5-5h4l7-4z" fill="#4A5C69"/>
<path transform="translate(689,303)" d="m0 0h11l14 8v3l-11 1-14-2-1 6-2-3-1-8z" fill="#094C72"/>
<path transform="translate(1218,255)" d="m0 0h11l58 5 45 4h6l-3-2h2v-3h13l1 6-4 2-21-1-44-4-64-6z" fill="#9FB8C7"/>
<path transform="translate(1527,188)" d="m0 0 6 1 4 4 1 6-5 7-3 2h-5l-4-5 1-9 3-5z" fill="#054064"/>
<path transform="translate(1735,207)" d="m0 0 3 1-7 8-9 11-10 10-7 8-9 10-4 3 2-4 3-4 3-7h2l2-4 7-8 1-2h2v-2h2l2-4 8-8 6-5z" fill="#10547E"/>
<path transform="translate(186,108)" d="m0 0 2 1-4 6-2 1-1 3 3 1 1 12 1 1 1 15-2 3v-3l-4 4-2 7h3l1-3 3 1-1 5-6-1-1-3h-2l2-13v-3l4-4-2-7-1-10 2-8z" fill="#22719C"/>
<path transform="translate(1493,121)" d="m0 0 7 1 6 2-1 3-4 1h-3l-4 3 2 5 7 5v1h-7l-5-4-4-3v-2l-3-1-5-6-3-3 7 1 5 2z" fill="#F5F7F8"/>
<path transform="translate(1138,372)" d="m0 0 14 1h12l16 2 8 3v1h-17l-9-1-1 12-4 2v-15l-14-1-6-1z" fill="#054065"/>
<path transform="translate(1800,314)" d="m0 0 11 2h6l3-1v2h7l4 3 1 8-3 2-9-1-2-2-1-8-6-1-1 3h-5v-2h-2z" fill="#A0B9C8"/>
<path transform="translate(1369,144)" d="m0 0h16l10 4 1 4-10-4h-7l-12 4h-5l-2 14-2-4-3-10 1-5 10-1z" fill="#546A7A"/>
<path transform="translate(751,135)" d="m0 0 17 1 11 4 1-2-1 7-2 4-1-3-7-1-22-3v-1h11l-9-3-4-1z" fill="#B5CDD9"/>
<path transform="translate(1522,278)" d="m0 0h5v2h-2l1 2 10 2 92 10v1h-20v-2h-10l-58-6-17-1-1-2-5-3v-2z" fill="#B3A885"/>
<path transform="translate(329,172)" d="m0 0h15l8 2h8l6-2 6 2h5l2 2h8v3h-27l-3-1-16-2-12-2z" fill="#556C7C"/>
<path transform="translate(1188,378)" d="m0 0h14l19 2 5 2-2 3-7 2h-9v-2l-17-1-1 2v-6h-2z" fill="#425A6B"/>
<path transform="translate(718,129)" d="m0 0h2l-1 5-6 3-4 5-1 7 4 5v7l-4 1-1-7-2 3-3-10 1-8 5-8 1-1z" fill="#086DA2"/>
<path transform="translate(1045,149)" d="m0 0h24l20 1 11 2h3l1 2 4-1 1 3h-5v2h-3v2h-2l-1-4-39-4-15-1z" fill="#0280B4"/>
<path transform="translate(780,137)" d="m0 0 4 1 6 2 2 6-3 7-8 5h-2l-1-13z" fill="#F7F9FA"/>
<path transform="translate(1516,295)" d="m0 0 2 1-9 7-5 6-6 12-5 2v2h-2l-2 4h-3l8-17 4-6 8-6z" fill="#05496F"/>
<path transform="translate(1132,430)" d="m0 0h1v107l-2 17h-2v-9l1-6z" fill="#0281B5"/>
<path transform="translate(439,341)" d="m0 0 3 2v91l-2 1v-91l-4-2z" fill="#0381B5"/>
<path transform="translate(1950,363)" d="m0 0 2 1-2 5-7 10-3 7-3 12h-1l1-12 2-10-3 1v-2l-8-1-3-3 1-1 14 1v-2l8-4z" fill="#48728F"/>
<path transform="translate(1820,358)" d="m0 0 2 1-3 33-3 3-2-1-1-7 3-25h3z" fill="#075685"/>
<path transform="translate(1871,382)" d="m0 0 5 1 4 5v9l-2 2h-8l-2-2v-11z" fill="#05496F"/>
<path transform="translate(1962,333)" d="m0 0 3 1v2h5l1 4-4 8-8 7-8 2 6-9 3-1 2-10h-2z" fill="#24313A"/>
<path transform="translate(1815,338)" d="m0 0h1v6l-4 1v2h3v2l-4 1h-12l-6-2-4-1v-2l-3-1v-4h3v2h25z" fill="#07527F"/>
<path transform="translate(1390,172)" d="m0 0 5 4 12 16-2 7-1 2-8-11-7-12v-5z" fill="#546978"/>
<path transform="translate(285,167)" d="m0 0h14l9 1h8l5 3v3h-14l-2-1h-9l-8-2-4-2z" fill="#556C7C"/>
<path transform="translate(1158,547)" d="m0 0 6 1 3 3-2 3h-2v4l4 1v2h-6l-6-4v-4l-5 1h-3l-2-4 2-2z" fill="#075685"/>
<path transform="translate(1845,452)" d="m0 0h2v31l-1 22h-2l-1-4v-29l1-19z" fill="#233037"/>
<path transform="translate(1346,1106)" d="m0 0 2 4 8 3 35 8 5 2v1l-14-1-23-5-12-4-3-3v-3z" fill="#064063"/>
<path transform="translate(1374,323)" d="m0 0 5 2 9 1 7 1v7h-3-9l-3-1v2l-4-1 1-3-4-4z" fill="#546B7B"/>
<path transform="translate(1368,355)" d="m0 0 6 1 20 3-1 5-4 2-9-1-8-4-4-5z" fill="#B8CEDA"/>
<path transform="translate(741,143)" d="m0 0 2 1-1 1 4 1-1 4-2 3h2v-2l5-4 4 1 1-4 3 4v6l-2 2h-14l-2-3v-3l-3-1z" fill="#C3D6E0"/>
<path transform="translate(1088,238)" d="m0 0h14l39 4v2h-22l-27-3-4-2z" fill="#E5ECEF"/>
<path transform="translate(1462,587)" d="m0 0 5 1 2 3v11l-2 3-5-1-3-5v-8l1-3z" fill="#085685"/>
<path transform="translate(599,184)" d="m0 0h45v2l12 2-3 2-22-2-7-1h-22l-1 1h-9l3-2z" fill="#056DA4"/>
<path transform="translate(803,516)" d="m0 0h5l8 3v3 3l-13-1-34-5v-1h11l20 3v-3z" fill="#0972A7"/>
<path transform="translate(1190,434)" d="m0 0 5 1 2 3 1 19-3 1-1-2-3 1-1-18-1-4z" fill="#ECF1F3"/>
<path transform="translate(1195,385)" d="m0 0 13 1 7 1 1 6-4 1-6-2-6 2-6-2z" fill="#9FB8C7"/>
<path transform="translate(1164,400)" d="m0 0h9l-5 4 2 12 3 1v-5l4 2v5h-12l-2-1-1-16z" fill="#9FB8C7"/>
<path transform="translate(1175,380)" d="m0 0 5 3h3 3l1-2h2v12h-3-10l-1-1z" fill="#9FB8C7"/>
<path transform="translate(1418,151)" d="m0 0 9 2 2 2 1 6 4-1v-6l5 1 2 2-1 4-4 3-2 5h-3l-7-11z" fill="#425360"/>
<path transform="translate(1150,553)" d="m0 0h5v4l5 2 6 2-4 2-15 5h-2l1-6h2l-1-8z" fill="#056EA5"/>
<path transform="translate(1763,321)" d="m0 0 22 1 6 2 1 7-2 9h-1v-7l1-5-8 1-8-3-10-1z" fill="#075583"/>
<path transform="translate(1838,454)" d="m0 0 5 2-1 17-2 7h-2l-1 9h-1v-31z" fill="#5B7282"/>
<path transform="translate(1504,196)" d="m0 0 3 1 3 6-3 12-2 4-3-2-2-8 2-11z" fill="#054064"/>
<path transform="translate(1415,310)" d="m0 0 6 2 4 10v2l-3 1-1-2h-7l-3-2-1-8 4-2z" fill="#13171B"/>
<path transform="translate(910,143)" d="m0 0 3 1-3 9-8 21-1 5-4-1v-6l7-15 5-13z" fill="#027FB3"/>
<path transform="translate(1351,1099)" d="m0 0 2 1-2 4h-2l1 5 16 4 12 2 15 5 8 3-2 1-50-12-2-2-1-5z" fill="#07486C"/>
<path transform="translate(863,132)" d="m0 0h9l4 2h7l10 2v1h-31l-10 5-3-4 1-2-2-2 5-1h10z" fill="#0682B5"/>
<path transform="translate(231,262)" d="m0 0h41v1h-23v10h-1l-1-7-6-1 1 5v9l-3 7h-1v-21h-4v-2zm8 2v8h1v-8z" fill="#647886"/>
<path transform="translate(1351,144)" d="m0 0 9 1v2h-4l1 8 3 11v5l-5-4-4-11 1-5-3-3z" fill="#A0B9C8"/>
<path transform="translate(1254,249)" d="m0 0h17l25 2 5 1v1l-10 1h-17v-2h-11l-9-1z" fill="#075888"/>
<path transform="translate(1460,201)" d="m0 0h7l4 4-1 6-3 2h-5l-2-4-3-2 1-4z" fill="#182127"/>
<path transform="translate(1538,257)" d="m0 0 1 4-2 11v2l24 6 1 2-16-1-19-2v-1l9-1-1-1v-9z" fill="#066091"/>
<path transform="translate(1957,329)" d="m0 0 9 3 3 4h-4l-1-2-3 1-1 3h-2v4l-4 1-1 4-2-1 1-5h-3l2-5z" fill="#334046"/>
<path transform="translate(1035,150)" d="m0 0 4 4-11 26-4-2 3-9z" fill="#047DB1"/>
<path transform="translate(1375,134)" d="m0 0 2 1 18 1 7 2 4 1-1 4-4 1h-7l-7-3v-2l-12-2z" fill="#FDFDFD"/>
<path transform="translate(1821,470)" d="m0 0h1l1 38 11 3 6 1h6l-3 3h-14l-7-3-1-5z" fill="#6C90A8"/>
<path transform="translate(721,156)" d="m0 0 8 1 2 2-1 6 4 2 2 2v3l-5-1-7-4-3-4z" fill="#046FA5"/>
<path transform="translate(579,729)" d="m0 0 2 1-7 7-11 7-2 2-10 1-1-2 24-13z" fill="#144867"/>
<path transform="translate(1068,156)" d="m0 0h2l-2 11-3 8h-2l1-4h-2l-2-3-2 1 1-6 3-6z" fill="#08679B"/>
<path transform="translate(1478,328)" d="m0 0h2v2l-11 6-3 3-7 2-5 4-9 2-14 7-3-1 25-12 17-9z" fill="#222F37"/>
<path transform="translate(802,211)" d="m0 0h18l26 3-1 3h5v1l-14-1-11-1v-2h-9l-14-2z" fill="#AAAFA2"/>
<path transform="translate(970,145)" d="m0 0h36l9 2v1h-35l-3 2h-6v-2l-2-1z" fill="#0280B4"/>
<path transform="translate(1875,296)" d="m0 0 5 4 10-1-1 8-4 1-4-1h-4l-1 2-3-1z" fill="#0D85B6"/>
<path transform="translate(1186,402)" d="m0 0h2l1 17 3-1-1 3h-9v-4l1-2h-2v-5h2l2-7z" fill="#4C6A7E"/>
<path transform="translate(1835,365)" d="m0 0h3l3 7 1 7-2 4-4-2-2-3-1-9z" fill="#1C282F"/>
<path transform="translate(692,304)" d="m0 0 4 1 2 5h2l1 3h-12l-1 6-2-3 1-9z" fill="#054064"/>
<path transform="translate(1152,373)" d="m0 0h12l16 2 8 3v1h-17l-9-2v-2l-10-1z" fill="#085685"/>
<path transform="translate(1374,293)" d="m0 0h5v2l-8 2v2l-2 2h3l-1 5-7 2-4-3 1-5 6-3z" fill="#232F37"/>
<path transform="translate(1350,268)" d="m0 0 1 2 2 1 5 5 4 5v2h2l-1 2-13-3z" fill="#BBA36F"/>
<path transform="translate(1728,232)" d="m0 0 5 1 2 4v8l-7-1-3-2 1-7z" fill="#13191C"/>
<path transform="translate(1487,138)" d="m0 0h6l1 3 9 1 1 3-4 4 3 1-3 3-5-1v-2h2l-4-5-6-5z" fill="#596B76"/>
<path transform="translate(438,733)" d="m0 0h2l-1 45-1 20h2l-1 4h-2v-48z" fill="#248DB8"/>
<path transform="translate(1374,288)" d="m0 0 8 1 2 3-5 2-8 1-7 5-3-3 8-7z" fill="#AAB6B5"/>
<path transform="translate(1153,251)" d="m0 0 38 1 6 2v1h-30l-14-3z" fill="#4C5D6B"/>
<path transform="translate(1075,549)" d="m0 0h10l19 3 4 3h-11l-11-1-11-3z" fill="#0A5C8B"/>
<path transform="translate(1829,452)" d="m0 0 3 1h-2l1 26 1 7-2 1-1 3-1-17-2-7v-11z" fill="#546B7C"/>
<path transform="translate(371,840)" d="m0 0 1 3-9 9-7 2-5-1v-2z" fill="#0F5782"/>
<path transform="translate(1154,377)" d="m0 0 2 1v14l-5-1-2-4-4-3h2l-1-4 2 1v-3z" fill="#9FB8C7"/>
<path transform="translate(1628,406)" d="m0 0h13v1l-19 3-10 4-5 5-4 1 1-5 6-5z" fill="#046DA4"/>
<path transform="translate(816,129)" d="m0 0h16l13 3 3 2h-9l-23-2-4 1z" fill="#0281B5"/>
<path transform="translate(1421,744)" d="m0 0h1l2 25v10l-1 9-1 7h-1z" fill="#056DA4"/>
<path transform="translate(882,531)" d="m0 0 8 2v-2l14 2 6 4v1l-13-1-7-2-3 1-5-2z" fill="#337AA0"/>
<path transform="translate(1374,295)" d="m0 0h3v6l-3 3 4 2-9 2-1 3-6 1v-3h-2l1-3 4 1 6-2 1-4-4 1 1-3h2v-2z" fill="#7F929D"/>
<path transform="translate(1187,435)" d="m0 0 4 4v14l-1 3-4-1-1-2 1-17z" fill="#1E303B"/>
<path transform="translate(728,272)" d="m0 0 7 1 4 1v2l7 2v3h-2l-1 3-4-2v-2l2-1-4-1-4 2-5-1-1-3z" fill="#0281B5"/>
<path transform="translate(1617,406)" d="m0 0h5v2l-12 3-6 5-2 4h-5l2-6 5-4 8-3z" fill="#075686"/>
<path transform="translate(1297,260)" d="m0 0h11l27 2 7 2v1h-10l-35-3z" fill="#BBA36F"/>
<path transform="translate(176,143)" d="m0 0 3 1-1 10-2 4 2 1-4 3-4-2 3-13z" fill="#196C98"/>
<path transform="translate(1374,145)" d="m0 0h8l4 2-9 2-10 3h-5l-2 14-2-4v-9l2-3 10-2h4z" fill="#4C5D6B"/>
<path transform="translate(1886,403)" d="m0 0h2l-2 4-9 12-4 4 2-13 2-2 7-3z" fill="#0281B5"/>
<path transform="translate(988,169)" d="m0 0 6 3 2 7-2 2-7-1-2-2 1-5z" fill="#0281B5"/>
<path transform="translate(727,112)" d="m0 0h12v1h-6l-2 4-4 5-5 5h-1l1-9z" fill="#056DA4"/>
<path transform="translate(277,249)" d="m0 0 13 1 13 4 5 4 1 7 3 2-9-1 2-5-2-4-5-2-16-4-5-1z" fill="#086FA5"/>
<path transform="translate(968,148)" d="m0 0h3v2l6-1v2l-7 6-1 2-3-1-1-6-6 2 1-4 7-1z" fill="#046DA4"/>
<path transform="translate(1508,127)" d="m0 0 4 2 3 3 1 9-3 5-5 1 1-6h2l1 2-1-6-2-6-2-1z" fill="#E9EFF2"/>
<path transform="translate(504,734)" d="m0 0 1 3-1 7-1 5-3-1-3 6h-1l-1-7 4-11 1 4z" fill="#085685"/>
<path transform="translate(1413,123)" d="m0 0 3 1 6 7v6l-8-4-3-3-3-1 1-3 4-1z" fill="#42535D"/>
<path transform="translate(1170,432)" d="m0 0 3 1-2 7v6l7 8v3l-6-2-2-1-2-5v-9z" fill="#4F626E"/>
<path transform="translate(737,286)" d="m0 0 4 1 3 2 8 1 3 3h-20l-1-3z" fill="#0281B5"/>
<path transform="translate(684,262)" d="m0 0h11l4 2v1l-11 2-4 2v2h-5l2-4z" fill="#0281B5"/>
<path transform="translate(1184,453)" d="m0 0 6 3 1-3 1 3 3-1 1 4-1 1h-14l-3-4 2-2z" fill="#B6CDD8"/>
<path transform="translate(886,520)" d="m0 0 11 1 10 2-1 4-4 1-5-2v-2h-7l-5-1z" fill="#0F5E8B"/>
<path transform="translate(1382,313)" d="m0 0h6l3 2-1 4-7 1-7-2 1-4z" fill="#A0B9C8"/>
<path transform="translate(770,137)" d="m0 0 9 3 1-2-1 7-2 4-1-3-7-1-1-2z" fill="#A2BBCA"/>
<path transform="translate(1196,375)" d="m0 0h15l13 2 2 1v2l-23-2-7-2z" fill="#546B7C"/>
<path transform="translate(1337,259)" d="m0 0h13l1 6h-9l-7-2 2-1z" fill="#BBD2DE"/>
<path transform="translate(1478,136)" d="m0 0h5l-3 1v2h5l1 3 4 2 5 6-6-2-2-4-10-4-18-2v-1h19z" fill="#556C7C"/>
<path transform="translate(985,204)" d="m0 0 6 1 1 2-10 3-11 1-5-1 3-2 10-2z" fill="#0281B5"/>
<path transform="translate(1039,233)" d="m0 0 34 2 1 2h-20l-13-1-3-2z" fill="#E9EEF2"/>
<path transform="translate(1453,261)" d="m0 0h11l6 2 4 10v3l-5-5-2-1-2-4-12-4z" fill="#4B5C69"/>
<path transform="translate(1870,385)" d="m0 0h4l1 3v10h-6v-11z" fill="#054064"/>
<path transform="translate(1189,251)" d="m0 0h11l29 3v1h-20l-18-2z" fill="#B0AA8F"/>
<path transform="translate(186,108)" d="m0 0 2 1-4 6-2 1-1 3 3 1v8l-2 5-2-2-1-10 2-8z" fill="#3589AE"/>
<path transform="translate(313,912)" d="m0 0 1 2h3v2l4 1v2l8 2-3 2-6-1-3-3-13-1 1-3z" fill="#115A85"/>
<path transform="translate(778,152)" d="m0 0h1l1 7-5 9-6-1v-5l7-6z" fill="#C3D7E1"/>
<path transform="translate(1954,350)" d="m0 0 2 1-4 5 5-1-4 4-6 1-4-4v-2l3-2z" fill="#4B5D6A"/>
<path transform="translate(1580,289)" d="m0 0 39 4 9 1v1h-20v-2h-10l-18-2z" fill="#A39D82"/>
<path transform="translate(291,249)" d="m0 0 9 1 10 3 5 6-1 5-4 1-1-8-4-3-14-4z" fill="#056DA4"/>
<path transform="translate(762,118)" d="m0 0 8 1 2 2h-20l-11 4-6 4-2-1 7-6 10-3z" fill="#0281B5"/>
<path transform="translate(841,155)" d="m0 0h1v14l-5 2-1-4v-11l5 2z" fill="#0281B5"/>
<path transform="translate(780,130)" d="m0 0 2 2v4h-2l-1 4-4-1-7-2-10-1v-1h13l4-2 4-1z" fill="#0281B5"/>
<path transform="translate(1166,429)" d="m0 0h17l11 3v2l-7 2-1-2-13-3h-7z" fill="#427088"/>
<path transform="translate(1167,430)" d="m0 0 12 1 3 2-5 1-2 3-4 1 1-5-2-1-1 8h-1v-7l-1 10h-1v-12z" fill="#9AB1BE"/>
<path transform="translate(245,241)" d="m0 0h12l16 2 12 3v1l-12-1-28-4z" fill="#085685"/>
<path transform="translate(548,746)" d="m0 0h6v2h-4l-1 4-3 2h-8l-1 2-1-2 3-3z" fill="#11486A"/>
<path transform="translate(684,446)" d="m0 0h1v33l-2 1-1-9 1-19z" fill="#085685"/>
<path transform="translate(1868,401)" d="m0 0 6 1 9 2-1 2h-10l-2 3v6h-2l-2-11z" fill="#3D6B8C"/>
<path transform="translate(1405,194)" d="m0 0h2l5 9 4 5v3l-3 1-9-13z" fill="#9DB6C5"/>
<path transform="translate(1417,322)" d="m0 0 5 1-2 5-3 3-5 1-2-7h4z" fill="#5E7382"/>
<path transform="translate(1400,295)" d="m0 0 6 5v2l-6-1-1 3-3-2v3l-5 2h-13l2-2 11-1 3-1 1-2 5-2z" fill="#A9B7B7"/>
<path transform="translate(1038,547)" d="m0 0 6 2 11 5 3 1 1 3-10-2-10-5z" fill="#056DA4"/>
<path transform="translate(882,518)" d="m0 0 5 1v3l10 2v2l-2 1-13-1-1-5z" fill="#2179A6"/>
<path transform="translate(1e3 349)" d="m0 0 32 2 12 3-4 1-35-4-5-1z" fill="#1076A9"/>
<path transform="translate(1745,295)" d="m0 0h11v4h-18l-1-3z" fill="#085685"/>
<path transform="translate(1522,278)" d="m0 0h5v2h-2l1 2 8 3v1h-11l-1-2-5-3v-2z" fill="#A6A590"/>
<path transform="translate(1814,186)" d="m0 0h6l4 3-1 5-3 3h-2l-1 3-1-2 2-5z" fill="#085685"/>
<path transform="translate(556,420)" d="m0 0 5 2 9 6 2 6-9-5-5-5z" fill="#0D82B3"/>
<path transform="translate(1162,379)" d="m0 0 5 1 1 10h3l1-2v4l-6-1h-4z" fill="#9FB8C7"/>
<path transform="translate(189,107)" d="m0 0h9l1 4-7 2-5 1h-2l2-5z" fill="#23323C"/>
<path transform="translate(1888,403)" d="m0 0 2 3-9 12-6 6-2-1 10-13z" fill="#9FB8C7"/>
<path transform="translate(1324,306)" d="m0 0h9l11 1v2h2l1 3-4 1-9-4-10-2z" fill="#075686"/>
<path transform="translate(757,170)" d="m0 0 2 1-12 6-9-1 2-3z" fill="#B4CCD8"/>
<path transform="translate(952,170)" d="m0 0 3 1v2l5-3 2 2-1 4-4 2-5-1-1-4z" fill="#085887"/>
<path transform="translate(217,115)" d="m0 0h5v3l-1 2 3 3-4 2-4-1-1-7z" fill="#056DA4"/>
<path transform="translate(509,442)" d="m0 0h2v29l-3-2z" fill="#6C90A8"/>
<path transform="translate(1138,375)" d="m0 0 12 1v1h-9l1 9-4-1-2-1v-8z" fill="#3E6989"/>
<path transform="translate(1395,326)" d="m0 0h2v11l-2 4-4 4-2 3-3 1h-13v-1l12-1 4-1 1-5 4-1z" fill="#4B5C69"/>
<path transform="translate(180,145)" d="m0 0 3 3-4 11h3l1-3 3 1-1 5-6-1-1-3h-2l1-4z" fill="#76A2B9"/>
<path transform="translate(397,826)" d="m0 0 1 3-6 4-5 1-3 4-7 1 2-1 1-3z" fill="#125680"/>
<path transform="translate(1168,382)" d="m0 0h2l1 3 3-3 2 11h-6l2-1-1-2h-3l-1-6z" fill="#496B84"/>
<path transform="translate(1137,368)" d="m0 0h14l9 2v1l-22 1v-2l-2-1z" fill="#556C7C"/>
<path transform="translate(1351,261)" d="m0 0 2 3 3 11-2-1v-2l-2-1-1-1-1 10h-1l-2-13-3-2h7z" fill="#A2B5BA"/>
<path transform="translate(1291,253)" d="m0 0h10l20 3v1h-10l-27-2v-1z" fill="#0376AB"/>
<path transform="translate(243,92)" d="m0 0 3 1-4 2h-5l-3 1h-12v-3z" fill="#0C5987"/>
<path transform="translate(316,870)" d="m0 0h4l-1 6-12 2-3 2 2-4z" fill="#164662"/>
<path transform="translate(1176,379)" d="m0 0h12l2 1v8h-1v-7h-2l-1 6-1-3h-4l-5-3z" fill="#4F6B7F"/>
<path transform="translate(1355,232)" d="m0 0 2 2-1 4-2 6-2 17-2-3v-8l3-12z" fill="#4F6371"/>
<path transform="translate(727,144)" d="m0 0h4l-1 8h3v-4l3 1-4 6-6-3-1-5z" fill="#A4C1D1"/>
<path transform="translate(242,262)" d="m0 0h30v1h-23v10h-1l-1-7-6-1z" fill="#527187"/>
<path transform="translate(1401,292)" d="m0 0 5 1 6 8-1 2-6-3-7-6z" fill="#212D35"/>
<path transform="translate(1117,568)" d="m0 0h21l-3 2-3 1-20-1v-1z" fill="#275F80"/>
<path transform="translate(839,526)" d="m0 0h4v2l6-1v2l3-1 6 2 10 2-4 1-26-4z" fill="#1679AA"/>
<path transform="translate(1810,327)" d="m0 0h4l2 5-1 7-6-8-4-2v-1z" fill="#4B5C69"/>
<path transform="translate(1371,283)" d="m0 0 7 1v2h2l1 3h-10l-3-3v-2z" fill="#556C7C"/>
<path transform="translate(741,143)" d="m0 0 2 1-1 1 4 1-1 4-2 3 2 1-4 1-1-5-3-1z" fill="#AAC2D0"/>
<path transform="translate(1358,285)" d="m0 0 9 1 2 3-5 6-2-3-4-5z" fill="#0B4E76"/>
<path transform="translate(735,142)" d="m0 0 4 1-2 3h2l-1 3-5-1v4h-3l1-8z" fill="#CDDDE5"/>
<path transform="translate(1420,118)" d="m0 0h3v2l-3 3v6l-4-3v-2l-3-1-1-4 6 1z" fill="#F3F6F8"/>
<path transform="translate(1236,398)" d="m0 0h1v12l-2 7h-2l1-16z" fill="#085685"/>
<path transform="translate(1418,151)" d="m0 0 9 2 2 2v6h-3l-7-8z" fill="#4B5F6D"/>
<path transform="translate(466,779)" d="m0 0v3l-5 8v3l-4 1-4 3-2-1 8-8 6-8z" fill="#075685"/>
<path transform="translate(1820,423)" d="m0 0 1 2-3 3-3 1h-9l-10-2v-1h20z" fill="#085685"/>
<path transform="translate(1829,456)" d="m0 0h1l1 23 1 7-2 1-1 3z" fill="#9FB8C7"/>
<path transform="translate(1133,366)" d="m0 0h10l8 1v1l-14 1 1 4-5-1z" fill="#386C8F"/>
<path transform="translate(704,159)" d="m0 0 2 3 2 1-1 7 5 5v2l-4-2-3-2-1-5-2-2 1-5z" fill="#0A6DA1"/>
<path transform="translate(910,143)" d="m0 0 3 1-3 9-2 4-3-1 3-10z" fill="#15628D"/>
<path transform="translate(1193,409)" d="m0 0h1l1 5v7h5v1h-7l-2-2v-10z" fill="#566D7D"/>
<path transform="translate(1821,320)" d="m0 0 4 2 3 5-3 2-5-2-1-4z" fill="#FDFDFD"/>
<path transform="translate(1537,164)" d="m0 0h15l1 2-10 2-6-1z" fill="#05496F"/>
<path transform="translate(814,158)" d="m0 0h2l1 5h-11l-3-2 5-2z" fill="#075989"/>
<path transform="translate(180,139)" d="m0 0h5v5h-2l-1 4-1-2-3 4v-5-3z" fill="#258AB7"/>
<path transform="translate(1443,352)" d="m0 0 3 1-8 5-8 3-4-1 15-7z" fill="#05496F"/>
<path transform="translate(1780,305)" d="m0 0h7l6 3v5l-1-3-12-2-2-2z" fill="#546B7B"/>
<path transform="translate(229,260)" d="m0 0 12 1v1l-7 1v2h4l-1 2-8 1z" fill="#374650"/>
<path transform="translate(936,150)" d="m0 0 1 3-9 17-2 3-2-1z" fill="#B8CFDB"/>
<path transform="translate(1575,420)" d="m0 0h7l8 2-1 2-9 1z" fill="#0A5B8A"/>
<path transform="translate(1800,314)" d="m0 0 11 2-1 5h-5v-2h-2z" fill="#A0B8C6"/>
<path transform="translate(1460,201)" d="m0 0h7l4 4-1 6h-3l1-1v-6l-6-1-2 5-3-1 1-4z" fill="#4E6778"/>
<path transform="translate(228,72)" d="m0 0h4v5l-2 1h-8l-1-2z" fill="#10405D"/>
<path transform="translate(1727,280)" d="m0 0h19l-3 1v2h-10l-6-2z" fill="#24506A"/>
<path transform="translate(902,533)" d="m0 0 5 2 3 3-13-1-1-3z" fill="#126895"/>
<path transform="translate(970,259)" d="m0 0 4 2h8v3l-5 2v-3l-4 1-5-2z" fill="#056DA4"/>
<path transform="translate(1345,253)" d="m0 0 1 2 3 1v2h-22l-6-1v-1h12l3 1 1-2v2l7-1z" fill="#0C72A4"/>
<path transform="translate(1252,139)" d="m0 0 26 2v1h-19l-4-1-1 3-2-3z" fill="#55A2C3"/>
<path transform="translate(724,126)" d="m0 0 1 3-1 5 2 1-2 3-1 5h-1v-8l-3-1z" fill="#AFC7D4"/>
<path transform="translate(1493,121)" d="m0 0 7 1 6 2v2h-13z" fill="#A3B0B7"/>
<path transform="translate(1434,154)" d="m0 0 5 1 2 2-1 4-3 1-2-1z" fill="#394A55"/>
<path transform="translate(1374,139)" d="m0 0h13l3 3-3 1-3-1-15-1v-1z" fill="#BCD3DE"/>
<path transform="translate(802,211)" d="m0 0h18l5 2v1h-9l-14-2z" fill="#B6A67C"/>
<path transform="translate(1507,131)" d="m0 0h2l4 9-1 4-1-3h-2l-1 3-1-2 1-3z" fill="#485B69"/>
<path transform="translate(291,906)" d="m0 0 2 4v3l9 2v2l-12-2-1-5z" fill="#347DA5"/>
<path transform="translate(314,909)" d="m0 0h3l2 3v3l2 2h-7l3-1v-2l-7-1 1-3z" fill="#054970"/>
<path transform="translate(319,873)" d="m0 0 5 4 12 4 7 3-4 1-12-5-8-3-1-3z" fill="#054367"/>
<path transform="translate(1840,512)" d="m0 0h6l-3 3h-14l-3-2z" fill="#568BA6"/>
<path transform="translate(1809,289)" d="m0 0 4 1-4 2-6 8h-1l1-7z" fill="#255975"/>
<path transform="translate(173,145)" d="m0 0 1 2-2 9-4 4 1-9z" fill="#5E91AB"/>
<path transform="translate(1375,315)" d="m0 0 1 3 14 1-4 2-5 2v-2h-5l-3-3z" fill="#556C7C"/>
<path transform="translate(1422,157)" d="m0 0 4 2 5 8v3l-3 1-2-5-3-6z" fill="#B3CBD7"/>
<path transform="translate(185,116)" d="m0 0h6v3l-5 3-1 5h-1l-1-10z" fill="#0374AA"/>
<path transform="translate(1968,336)" d="m0 0h2l1 4-4 8-4 1 3-5v-7z" fill="#22282C"/>
<path transform="translate(1475,336)" d="m0 0m-1 1m-2 1h2l1 3-7 4h-4l2-4z" fill="#07598A"/>
<path transform="translate(672,231)" d="m0 0 3 3-3 6-4-1v-5z" fill="#0280B4"/>
<path transform="translate(641,480)" d="m0 0 10 2 2 4-3 1-9-6z" fill="#125B86"/>
<path transform="translate(1096,244)" d="m0 0h11l10 2-1 3-5-1v-2l-15-1z" fill="#546A7A"/>
<path transform="translate(845,215)" d="m0 0h11l6 2v1h-12l-5-1z" fill="#B4A885"/>
<path transform="translate(835,214)" d="m0 0h11l-1 3h5v1l-14-1z" fill="#A9AFA4"/>
<path transform="translate(721,179)" d="m0 0 2 1v3l3 1v3l-6-1-3-3 1-3z" fill="#0281B5"/>
<path transform="translate(1068,160)" d="m0 0 1 3-4 12h-2l1-4h-2l1-3z" fill="#095C8B"/>
<path transform="translate(1361,306)" d="m0 0 8 1-1 4-6 1v-3h-2z" fill="#758A96"/>
<path transform="translate(1464,591)" d="m0 0 2 1 1 8-3 2-1-1v-9z" fill="#056DA4"/>
<path transform="translate(1608,331)" d="m0 0h16l-3 1v2l-15-1z" fill="#0281B5"/>
<path transform="translate(1356,275)" d="m0 0 5 5 1 3h2l-1 2-13-3 1-2 8 1-3-4z" fill="#9FB8C7"/>
<path transform="translate(213,160)" d="m0 0 3 1-3 2-7 4-3 3h-2l2-4 5-4z" fill="#075786"/>
<path transform="translate(1389,119)" d="m0 0 5 1-1 4 8 1v1h-8l-4-2 1-2-2-2z" fill="#FBFBFC"/>
<path transform="translate(437,777)" d="m0 0 2 1-1 20h2l-1 4h-2z" fill="#1588B7"/>
<path transform="translate(1131,539)" d="m0 0h1v10l-1 5h-2v-9z" fill="#3297C0"/>
<path transform="translate(1220,387)" d="m0 0 2 1v8l-2 2-2-4v-6z" fill="#556C7C"/>
<path transform="translate(1950,363)" d="m0 0 2 1-2 5-10 2v-2l8-4z" fill="#516370"/>
<path transform="translate(961,177)" d="m0 0h2l1 4-2 3h-5v-3z" fill="#0281B5"/>
<path transform="translate(1374,145)" d="m0 0h8l4 2-9 2-6 1 1-2h2z" fill="#4B5C69"/>
<path transform="translate(192,112)" d="m0 0v3h-2v2h-7v2h-2l1-4h2l1-2h6z" fill="#0E4668"/>
<path transform="translate(1560,918)" d="m0 0 3 4 4 7v5l-2-1-3-7-2-4z" fill="#1A77A6"/>
<path transform="translate(1865,436)" d="m0 0 1 2-2 12-3-3 3-10z" fill="#1D2A31"/>
<path transform="translate(189,163)" d="m0 0 2 4 7 2-4 3-5-1-1-7z" fill="#05496F"/>
<path transform="translate(1410,118)" d="m0 0h2l2 8-3 1-3-1-1-3h2v-2h2z" fill="#899FAC"/>
<path transform="translate(759,116)" d="m0 0 5 1-2 2-16 1 3-2z" fill="#B0C8D5"/>
<path transform="translate(1888,264)" d="m0 0 5 1 2 5-4 1-3-5z" fill="#075A8A"/>
<path transform="translate(1841,188)" d="m0 0h11l9 2-3 2-7-1-10-2z" fill="#075888"/>
<path transform="translate(1389,358)" d="m0 0h6l3 6-1 3-4-2 1-6h-5z" fill="#4C5F6D"/>
<path transform="translate(1353,307)" d="m0 0h1v7h2l-3 12h-1v-10z" fill="#4B677B"/>
<path transform="translate(1400,295)" d="m0 0 6 5v2l-6-1-1 3-2-3 3-2z" fill="#A7B1AC"/>
<path transform="translate(1096,241)" d="m0 0 9 1v2h-9l-10-1v-1z" fill="#A9B0A6"/>
<path transform="translate(176,143)" d="m0 0 3 1-1 6-3 2v-3h-2l2-5z" fill="#1A577D"/>
<path transform="translate(1484,138)" d="m0 0 4 2 9 8v2l-4-2-7-6z" fill="#1C282F"/>
<path transform="translate(1424,135)" d="m0 0h15v1l-10 2h-5z" fill="#BBD2DE"/>
<path transform="translate(724,117)" d="m0 0 2 4-1 4-4 2v-6z" fill="#056DA4"/>
<path transform="translate(1357,1164)" d="m0 0 4 1v2l5 1-4 1-13-2v-1h8z" fill="#27658B"/>
<path transform="translate(318,917)" d="m0 0h3v2l8 2-3 2-6-1-3-4z" fill="#2385B2"/>
<path transform="translate(1450,681)" d="m0 0 4 1 2 6-3 1-4-6z" fill="#085685"/>
<path transform="translate(1189,404)" d="m0 0h1l1 15h-2l-1-2v-11z" fill="#085685"/>
<path transform="translate(1143,385)" d="m0 0 6 1 2 2v3h-6v-3z" fill="#41647C"/>
<path transform="translate(1820,319)" d="m0 0 6 1 3 4v4l-2-1-3-5-3-1-2 2z" fill="#BBD2DE"/>
<path transform="translate(273,246)" d="m0 0h15l3 1v2l-13-1-5-1z" fill="#05659A"/>
<path transform="translate(833,141)" d="m0 0 4 1-2 1 2 5-4 1-2-7z" fill="#0281B5"/>
<path transform="translate(1392,125)" d="m0 0h10v2h-5v2l-7 1-3-2 4-1z" fill="#C3D3DC"/>
<path transform="translate(1960,353)" d="m0 0 2 1-7 8-3-1 2-4z" fill="#A5B3B4"/>
<path transform="translate(1444,239)" d="m0 0h4l2 5-2 3v-2l-4-2z" fill="#1C282F"/>
<path transform="translate(1571,166)" d="m0 0 6 1-4 7-2 4-1-3 3-8z" fill="#075888"/>
<path transform="translate(1498,146)" d="m0 0h2v3l3 1-3 3-5-1v-2l2-1z" fill="#506573"/>
<path transform="translate(901,522)" d="m0 0 6 1-1 4-4 1-2-3z" fill="#1A6793"/>
<path transform="translate(1180,403)" d="m0 0h4v7l-2 3-2-5z" fill="#064870"/>
<path transform="translate(968,148)" d="m0 0h2l-2 5-3-1-6 2 1-4 7-1z" fill="#22648A"/>
<path transform="translate(1404,117)" d="m0 0h5l2 4-4 1-4-2-1-2z" fill="#F3F4F4"/>
<path transform="translate(1381,117)" d="m0 0h6l-1 7h-2z" fill="#FDFDFD"/>
<path transform="translate(936,115)" d="m0 0h12l3 2-6 1-9-2z" fill="#085685"/>
<path transform="translate(1423,568)" d="m0 0h1v13l-1-2h-2l1-10z" fill="#085685"/>
<path transform="translate(1953,338)" d="m0 0 1 3 4-1v2l-4 1-1 4-2-1 1-5-2-1z" fill="#4B5C69"/>
<path transform="translate(1960,330)" d="m0 0 7 3 2 3h-4l-1-2-5 1z" fill="#909B9C"/>
<path transform="translate(1360,298)" d="m0 0 3 1-2 1 1 4h-4l-2-1 1-3z" fill="#556C7C"/>
<path transform="translate(1374,293)" d="m0 0h5v2l-8 2v2l-3 1 3-6z" fill="#39474F"/>
<path transform="translate(231,262)" d="m0 0h9l-1 10h-1v-7h-4v-2z" fill="#5A707F"/>
<path transform="translate(744,167)" d="m0 0 9 1v2h-11z" fill="#056DA4"/>
<path transform="translate(1434,160)" d="m0 0 4 2-2 2-2 4-4-6z" fill="#536A79"/>
<path transform="translate(996,152)" d="m0 0h11v3l-11-1z" fill="#ABC4D1"/>
<path transform="translate(1484,139)" d="m0 0 2 1v2l4 2 5 6-6-2-2-4-3-3z" fill="#506472"/>
<path transform="translate(730,114)" d="m0 0h2l-2 4-4 4-2-3 4-4z" fill="#027CB1"/>
<path transform="translate(186,108)" d="m0 0 2 1-4 6-2 1-2 4 1-7z" fill="#DDE2E3"/>
<path transform="translate(883,528)" d="m0 0 2 1z" fill="#2B7698"/>
<path transform="translate(921,145)" d="m0 0 2 1z" fill="#FDFDFD"/>
<path transform="translate(900,531)" d="m0 0" fill="#9FB8C7"/>
<path transform="translate(182,152)" d="m0 0" fill="#BBD2DE"/>
<path transform="translate(183,151)" d="m0 0" fill="#9FB8C7"/>
<path transform="translate(1426,123)" d="m0 0" fill="#FDFDFD"/>
</svg>
