<?xml version="1.0" encoding="UTF-8"?>
<svg version="1.1" viewBox="0 0 1481 2048" width="1280" height="1280" xmlns="http://www.w3.org/2000/svg">
<path transform="translate(441,154)" d="m0 0h20l17 2 10 4 20 10 14 8 28 15 22 12 16 9 16 8 18 10 29 14 16 8 21 14 19 14 16 12 13 11 8 8 3 5 2 6v15l-4 15-3 15v4h12l3-1h7l3 3 7 3 2 4-2 4-5 2 3 3 20 10 9 7 10 3 6 5 5 8 10 9 8 7 6 4 5 1 6 1 8-3 6-2h8l6 4 8 10 5 1 3 6-1 3 3 6v2l4 2 6 7v18l5 4 12 6 14 12 17 10 15 10 11 8 10 8 16 10 10 9 6 6v11l-12 39-4 12 1 7 7 8 12 11 11 9 11 11 8 7 17 14 9 7 13 11 17 14 17 13 14 12 8 7 14 12 13 12 8 7 7 7 8 7 7 7 8 7 19 19 7 8 12 14 11 13 11 14 10 15 12 25 4 16v11l-4 8-6 5-5 1h-13l-12-3-16-7-17-11-18-13-14-9-9-4-4-1h-7l-6 3-7 8-5 11-6 25-4 33-1 15-1 29v13l3 8 4 58v43h12l8 3-1 4-18 1-7 3-3 20v14l-1 2-3-1-2-4-2-8-3-4-7 2-2 2-2 17v14l2 4 15 8 12 11 10 13 13 24 7 19 3 14 2 28v11l-2 23-5 23-6 17-8 17-12 19-8 10-17 13-10 7-18 8-36 12-12 3h-5l-1 1-11-1-10-2 2 2-9-1-10-4-3-3 8 1-12-7-4-5 2-1-11-11-8-5h-6l-6 4-8 8-7 8-14 17-7 7-13 8-20 8 4 2 12 3 68 2 5 2 5-1 3-3h11l6 5 3 2 8 1 5 1h4l2 1-2-5 10-3 5 1 4 9 2 7 5 6 2 8-1 10-2 2-10 2v13l-2 13v9h2l-1 4 4-1 4-2 1-2 6 1v13l-5 16-5 8-2 2-8-1-4-2-3 6 1 7-2 5-36 6-34 5-25 5-37 5-35 3-53 2-13 1-12 3-53 4-36 3-21-2-36-5-15-1-12-3-18-1-62-5-29-3-3-2 1-13 4-5 33-1 20 1 5 1v-134l9-1 4-2-2-4-14-7-10-4-7-8-8-5-11-7-3-4v-13l7-16 6-9 1-9-7-21-12-28-8-20-11-22-8-11-16-8-7-6-7-8-8-11-8-14-7-19-2-14 1-14 6-26 7-17 8-16 12-23 8-20 16-47 21-56 13-33 12-33 7-22 2-12 7-19 4-16 8-20 11-36 11-34 13-44 10-41 4-20 4-29 7-28 5-10 1-8v-11l-3-26-8-35-2-4-5-2-3-7-4-16-5-8-11-12-9-10-8-11-6-12-3-9v-12l1-14 8-24 4-10v-12l-10-20-4-6-4-4-5-10-4-10-10-15-9-11-7-6-13-8-29-14-30-12-20-6-14-4-9-3-3 9-6 2-8 2-1-4-6 2v-2h-2l-1 3h-2v2l-6 3h-3v-2l-4 2-5 1-1-3-3 1-3 3-5 3-7 6-7 8-24 24-7 8-9 8-5 3-5 1-2-1-9-1h-11l-5 1-1 5-4 6-6 7-4 5-8 6-11 8-10 8-6 2-8-2v4h-4v4l2-3 6 2 2 3-1 4-10 10-9 5-12 2-2-1-2 6-6 10-13 30-12 32-12 29-10 22-6 9-2 2h-7l-3-3 1-7 7-20 18-46 11-26 17-35 12-21 1-8 4-6 12-11 20-28 1-6-1-4 7-11 7-9 5-4 11-7 7-9 7-7 14-7 12-4 13-6h10l4 3h3l-5-2-2-11-3-12-3-5-1-5-2-20-4-10-2-3v-5l-4-1 1-7 4-5 10-16 4-11 2-8 6-8 9-9 10-5 8-2h10l27 6 17 4h6l5-5 4-5 13-8 10-5zm-26 153-1 2h2zm-4 2m-26 5m-177 99-3 2v2h2v-2h3l2 4-1-5zm-1 4m1 1v2l2-1zm4 1m791 256-6 14-6 9-8 14-6 5-7 1-4 5 2 6-3 5-5 5-10 28v2l-15-7-13-4-13-2-15-1-11 2-3 3-5 16-4 2-8 1-1-3-3 1v3l-5 2-3 3h-6l-2 2-6-1-3 2-4-1-10 18-8 9-9 11-10 10-10 7 5-7 8-7 11-12 6-9 1-6-5-1-14 13-7 11-6 10-2 9-10 6-20 8-21 5-6 3-3 10-19 68-13 47-13 48-14 47-3 10-2 16-5 9-2 19-6 23-2 31v6l-3 1v8l2 9 5 2 3 2 7 1-2-4h2l1 3 5 2 22 1 19 1h13l6-1 4 1v14l5 5 10 4 1 1v15l2 12 9 8 2 2 5 1 2 6h2l1-5 2-1h7l4 5 5 13 10 34 6 33 6 27 5 15 3 3 53 2h18l1-7h4v8l8 1h36l2-5v-11l-3-15-1-8v-24l4-20 6-21 9-25 11-27 7-12 7-9 12-12 13-9 14-6 15-5 6-1h19l2-1 2-19 1-3 11-1 54-2 9-1 1-1 5-54 3-51 2-13v-13l4-49 3-27 4-16 6-14 7-10 6-5 10-3h8l12 3 14 7 16 11 20 13 12 7 15 7 10 1 5-2 4-5 1-10-3-14-5-13-7-13-12-17-13-16-12-14-13-14-7-8-15-15-7-8-12-11-15-14-11-9-10-9-11-9-13-11-11-9-11-10-17-13-14-11-17-13-15-10-17-9-15-9-13-6zm-125 86m-241 436 1 3zm126 96 1 2zm-5 6-11 3-4 4-2 7 2 2-1 7-2 2-9 2v-2h-2l-2 4-4 4-9 11-5 4h-11l-23 3-5 5-2 5v9l-5 16-1 6 6 9 7 4h7l5-5 3-7 2-6 45 1 17 3 4-2h4l2 5 8 11 6 7 8 4h8v-8l-7-37-6-34-4-15-8-16-4-5z" fill="#2744A7"/>
<path transform="translate(441,154)" d="m0 0h20l17 2 10 4 20 10 14 8 28 15 22 12 16 9 16 8 18 10 29 14 16 8 21 14 19 14 16 12 13 11 8 8 3 5 2 6v15l-4 15-3 15v4h12l3-1h7l3 3 7 3 2 4-2 4-5 2 3 3 20 10 9 7 10 3 6 5 5 8 10 9 8 7 6 4 5 1 6 1 8-3 6-2h8l6 4 8 10 5 1 3 6-1 3 3 6v2l4 2 6 7v18l5 4 12 6 14 12 17 10 15 10 11 8 10 8 16 10 10 9 6 6v11l-12 39-4 12 1 7 7 8 12 11 11 9 11 11 8 7 17 14 9 7 13 11 17 14 17 13 14 12 8 7 14 12 13 12 8 7 7 7 8 7 7 7 8 7 19 19 7 8 12 14 11 13 11 14 10 15 12 25 4 16v11l-4 8-6 5-5 1h-13l-12-3-16-7-17-11-18-13-14-9-9-4-4-1h-7l-6 3-7 8-5 11-6 25-4 33-1 15-1 29v13l3 8 4 58v43h12l8 3-1 4-18 1-7 3-3 20v14l-1 2-3-1-2-4-2-8-3-4-7 2-2 2-2 17v14l2 4 15 8 12 11 10 13 13 24 7 19 3 14 2 28v11l-2 23-5 23-6 17-8 17-12 19-8 10-17 13-10 7-18 8-36 12-12 3h-5l-1 1-11-1-10-2 2 2-9-1-10-4-3-3 8 1-12-7-4-5 2-1-11-11-8-5h-7v-3l8-1 17 5 24 3 9 1h9l-9-10-10-15-7-10-6-10-7-17-6-20-3-15-1-8v-30l3-21 5-25 2-12 1-13-1-9 3-9 7-11 4-5 1-7-10 3-14 3-14 4-5 2-6 4-7 9-4 10-2 4h-2v3h-2l-2 5-4 5-8 16h-2l-2 11-5 27-1 7-1 4v12l1 16 1 5v11h-1l-2-13-3-19v-24l4-20 6-21 9-25 11-27 7-12 7-9 13-13 13-9 14-6 15-5 6-1h21l1-19 2-4 11-1 54-2 9-1 5-54 3-51 2-13v-13l4-49 3-27 4-16 6-14 7-10 7-6 10-3h8l12 3 14 7 16 11 20 13 12 7 15 7 10 1 5-2 3-4 1-10-3-14-5-13-7-13-12-17-13-16-12-14-13-14-7-8-15-15-7-8-10-9-16-15-11-9-10-9-11-9-13-11-11-9-11-10-17-13-14-11-17-13-15-10-17-9-15-9-13-6-7 14-10 17-4 6-1-3-2-5-12-6-9-6-14-10-10-7-11-7-14-9-10-8-1-3-5-2-7-4-3-3-3-1v-2h-3l-4-4-11-7-3-1v-2l-4-2-2-2v-7l5-11 7-20 9-24 2-6 2-8-16-8-7-3-13-5-1-3 4-9 4-6 9-11 4-8 4-9 3-13v-7l-2 5-2-1-1-10h-2l-2 5-5 15-4 7h-8l-21-11v-2l-6-3v-2l-4-2-9-7v-2l-5-2-8-8-8-7-4-6v-9l2-7v-9l-4-3-11 1-5 5-5 6-6 5-3 6h-2l-2-5-7 2 1-4-7-5v-2h-14l-9-5-5-6-9-4-7-8-8-26-6-11-5-5-10-9-3-3-12-4-36-15-28-11-20-8-25-8-11-4-15-4-20-7-22-6-6-3-8-6-8-10-7-10-5-9-5-8-2-7-1-1v-13l5-9v-5h-8l-9 5-4 1v11l-3 4-2 5-7 11-4 9-2 2-1 5 3 7 8 13 6 4v2h7l5 5-1 4-3 6-5 3-2 7h6l4-4 5 1 3 3 3 9 2 3-7-1-3 9-6 2-8 2-1-4-6 2v-2h-2l-1 3h-2v2l-6 3h-3v-2l-4 2-5 1-1-3-3 1-3 3-5 3-7 6-7 8-24 24-7 8-9 8-5 3-5 1-2-1-9-1h-11l-5 1-1 5-4 6-6 7-4 5-8 6-11 8-10 8-6 2-8-2v4h-4v4l2-3 6 2 2 3-1 4-10 10-9 5-12 2-2-1-2 6-6 10-13 30-12 32-12 29-10 22-6 9-2 2h-7l-3-3 1-7 7-20 18-46 11-26 17-35 12-21 1-8 4-6 12-11 20-28 1-6-1-4 7-11 7-9 5-4 11-7 7-9 7-7 14-7 12-4 13-6h10l4 3h3l-5-2-2-11-3-12-3-5-1-5-2-20-4-10-2-3v-5l-4-1 1-7 4-5 10-16 4-11 2-8 6-8 9-9 10-5 8-2h10l27 6 17 4h6l5-5 4-5 13-8 10-5zm-26 153-1 2h2zm-4 2m-26 5m-177 99-3 2v2h2v-2h3l2 4-1-5zm-1 4m1 1v2l2-1z" fill="#908F89"/>
<path transform="translate(420,185)" d="m0 0h8l1 1-1 7-4 8v12l2 3 2 6 7 13 8 12 6 7 5 6 9 5 16 5 14 4 20 7 11 3 36 12 18 7 28 11 16 7 10 4 16 6 9 4 4 5 11 9 5 10 3 5 4 14 4 12 8 7 7 3 5 6 8 4h12l2 1v2l4 2 4 3-2 4 7-3 2 2v4h2l2-6 5-5h2l2-4 5-4 3-4 11-1 5 5v8l-2 7v9l5 7 8 7 9 8 8 7 7 5v2l6 3v2l5 2 16 8 8 1 2-5 3-9 4-10 4-4h1l1 11 3-5h1v8l-4 16-4 8-6 10-9 11-4 8-1 6 11 3 5 3 10 4 11 6-2 8-2 6-14 37-4 12-3 6v7l5 4v2l5 1 10 7 3 2v2h3v2l5 1 5 5 8 4 4 5 13 9 11 7 14 9 15 11 9 6 8 5 7 3 3 4-2 7-6 4h-5l-3 4 2 6-3 5-5 5-11 30-5-1-10-5-13-4-13-2-15-1-11 2-3 5-4 13-5 3h-8l-1-2h-2l-1 3-6 4-2 2h-6l-2 2-6-1-3 2-4-1-4 8-5-2-4-2-5 3-5 2-10 7-8 1-5-1-5-5-17 1-3 3 1 3 11 7 5 2v3l-7 2-4 2-4-1v-2h-2l-1-8-2-2-1-4-3 2-10 2h-7l-2-1v-2l-4-2-8-8-1-2-4-1-8 2-4 7-1 8 6 11 3 6v5h-6l-5-6-4-8-4-6-2-12-3-9 3-24 1-6-1-7v-10l-4-16-1-3-4-2-1-9-1-13-3-3h-6l-1-2-2 1-1-2-2 9 1 22 4 15 3 8 1 6v22l-1 14 3 35 7 14 2 3-10-1-2 8-4 8-4 7-3 4h-2v2l-5 2v2l-5 5-5 4-6 1-7-6-4-5-2-5-1-6-1-23 4-14 2-13 3-15v-16l1-10-1-3-2-1-1-10 4-13 1-13 1-12 3-5 6-3h6l4 1 1-4 1-13 4-12 4-4h3l3-2 1-9-5-4h-6l-4 2-7-1-4-2-2-10-3-26-8-35-2-4-5-2-3-7-4-16-5-8-11-12-9-10-8-11-6-12-3-9v-12l1-14 8-24 4-10v-12l-10-20-4-6-4-4-5-10-4-10-10-15-9-11-7-6-13-8-29-14-30-12-20-6-14-4-5-5-3-11-7-1-4 4-6-1 1-7 6-4 3-6-1-4-3-3-7-1v-2l-5-2-6-8-5-8-2-7 2-5 3-4 4-9 6-9 3-7 1-1v-11l3-2 5-2z" fill="#2744A7"/>
<path transform="translate(645,659)" d="m0 0h1l1 5 6 2 6-1 2-1h6l6 5-1 9-6 4-2-1-4 8-2 7-1 13-2 4-3 1-1-1-9 1-4 3-1 6-2 17-1 9-3 9 1 8-1 2 3 1 1 6-1 8v15l-4 18-1 10-4 15 1 22 2 7 2 5 7 8 6 1 6-4 4-5h2v-2l5-2v-2h2l2-4 4-7 3-7 2-1 2-8h9l-5-7-4-9-3-35 1-14v-22l-3-12-3-8-2-9-1-22 3-14 3 4 2 3 7 1 2 3 1 13 1 9 5 5 4 16v15l1 4-4 26 2 8 2 6 1 9 6 9 4 8 2 2 6 1-2-8-7-11-1-5 2-8 4-6 9-2 6 1-2 1v2l3 1 2 5 4 2 3 2v2h9l12-3 2-1 2 6 1 1v8h2l1 2 4-1 4-2h6v-3l-9-3-8-6-1-3 4-4 17-1 7 6h7l7-3 8-6 8-3h4l5 4-2 5-4 6-11 13-7 8-8 8-8 6h-2l2-4 14-14 9-11 4-6 1-6-5 1-12 11-7 11-6 10-2 9-9 6-19 8-24 6-6 2-4 18-19 67-15 55-13 47-13 43-2 16-5 9-2 19-6 23-2 31-1 6-2 1v8l1 9 4 1h-67l32 1v1l-51 1-2 4-10 8-10 6-6 7-1 2-8 1-5 1-7-1-8 7-1 4-2 2v5l-4-1-3-9-1-8v-11l4-13 3-8 1-5-5 3-4 5-4 1-2 4-10 14-1 2h-3l1 10 1 5-1 16v30l-3 5-7-1-4-3-1-6-5 1v7l-2-2-2-14 1-14 6-26 7-17 8-16 12-23 8-20 16-47 21-56 13-33 12-33 7-22 2-12 7-19 4-16 8-20 11-36 11-34 13-44 10-41 4-20 4-29 7-28 5-10zm-8 538 1 3z" fill="#4D6CCB"/>
<path transform="translate(775,401)" d="m0 0 5 2 2 4v7l-2 7v9l5 7 8 7 9 8 8 7 7 5v2l6 3v2l5 2 16 8 8 1 2-5 3-9 4-10 4-4h1l1 11 3-5h1v8l-4 16-4 8-6 10-9 11-4 8-1 6 11 3 5 3 10 4 11 6-2 8-2 6-14 37-4 12-3 6v7l5 4v2l5 1 10 7 3 2v2h3v2l5 1 5 5 8 4 4 5 13 9 11 7 14 9 15 11 9 6 8 5 7 3 3 4-2 7-6 4h-5l-3 4 2 6-3 5-5 5-11 30-5-1-10-5-13-4-13-2-15-1-11 2-3 5-4 13-5 3h-8l-1-2h-2l-1 3-6 4-2 2h-6l-2 2-6-1-3 2-4-1-4 8-5-2-4-2-5 3-5 2-10 7-8 1-5-1-5-5-17 1-3 3 1 3 11 7 5 2v3l-7 2-4 2-4-1v-2h-2l-1-8-2-2-1-9v-7l-8-16-9-12-7-10-5-10-3-11v-19l2-9-2-2v-9h2l2-5 11-16 2-5 2-14v-6l-4-4-9-4-5-5-7-10-2-6v-27l2-11 4-5h2v-2l7-2 11-2 5-5 1-7-4-9-3-9-2-5-4-2-3-4-1-7 4-13-1-4-5-9 1-7 6-15 1-5v-20l-1-7 6-17 2-3h2v2h2l2-6 5-5h2l2-4 5-4 3-4z" fill="#2F2F32"/>
<path transform="translate(902,1556)" d="m0 0 9 1 12 3 68 2 5 2 5-1 3-3h11l6 5 3 2 8 1 5 1h4l2 1-2-5 10-3 5 1 4 9 2 7 5 6 2 8-1 10-2 2-10 2v13l-2 13v9h2l-1 4 4-1 4-2 1-2 6 1v13l-5 16-5 8-2 2-8-1-4-2-3 6 1 7-2 5-36 6-34 5-25 5-37 5-35 3-53 2-13 1-12 3-53 4-36 3-21-2-6-1 4-2-1-3-18-6-14-7-2-3v-6h2v-8l3-4 3-10-1-2 2-5-3-1 4-7 1-2h2l2-13 3-7 6-7 5-6h2l2-4 4-5 7-6 11-4 9-2 18-2h11l20 2 8 3 20 2 2 1 4-2 7-1h10l5 6 4 18 7 7 5-1 3-11 1-21v-10l2-5 2-10 4-7h6l6 10 1 9 1 26h2v2l3-1 10-13 3-3h2l1-5 3-5 1-11-1-6-5-1-5-3 1-11-1-3 5-2-12 1-23 5-8 1 1-4 15-3 39-4z" fill="#2C52C2"/>
<path transform="translate(441,154)" d="m0 0h20l17 2 10 4 20 10 14 8 28 15 22 12 16 9 16 8 18 10 29 14 16 8 21 14 19 14 16 12 13 11 8 8 3 5 2 6v15l-4 15-3 15v4l4 2 1 12 12 1v3 4l3 1-2 5-5 5-7 8-4 2-6-1-4-3v-3l-4-2h-6l-6 2-12-6-4-7-8-6-2-3-2-7-4-10-7-16-4-7v-2l-5-2-5-3-7-8-8-4-16-6-7-4-9-2-12-5-9-4-12-5-8-5-15-4-14-6-9-3-17-6-11-4-9-3-12-5h-18l-11-4-9-8-8-10-5-9-5-8-6-16-2-7 6-12 1-11-4-2 1-10-4-1-8 4h-3v2l-3 3-9 11v5l1 4-2 5-6 5-4 7-5 3-3 2-6 1h-13l-9-7v-2l-4-2-3-3-12-3 1 4 7 7-2 4-12 1-25-7-1 3-1-2 4-9 3-12 6-8 9-9 10-5 8-2h10l27 6 17 4h6l5-5 4-5 13-8 10-5z" fill="#658FFB"/>
<path transform="translate(426,167)" d="m0 0 4 1 1 2-1 9 4 2-1 11-6 12 2 7 7 18 7 11 4 6 9 11 7 5 10 3h17l13 6 11 3 8 3 17 6 9 3 14 6 17 5 7 5 11 4 11 5 13 5 7 2 14 6 15 6 5 6 3 2v2l5 2 5 3 11 22 3 9 3 5 2 7 10 10 3 5 11 5 8-2 5 1 3 2 2 4 4 2 6-1 7-6 4-6 4-4 1-2-4-1 1-6-10-1-3-3-1-10 3-2 16-1 3 3 7 3 2 4-2 4-5 2 3 3 20 10 9 7 10 3 6 5 5 8 10 9 8 7 6 4 5 1 6 1 8-3 6-2h8l6 4 8 10 5 1 3 6-1 3 3 6v2l4 2 6 7v18l1 2h-4l-3 10-6 9-6 8-5 10-2 1-5 10-4 9-10 25-8 27-1 4v7l5 2 11 7 42 27 12 7 12 8 23 16 14 9 8 7-2 5-3 3v-5l-5-5-7-3-10-6-16-12-28-18-14-10-3-3v-2l-5-2-7-4-3-3-3-1v-2h-3l-4-4-11-7-3-1v-2l-4-2-2-2v-7l5-11 7-20 9-24 2-6 2-8-16-8-7-3-13-5-1-3 4-9 4-6 9-11 4-8 4-9 3-13v-7l-2 5-2-1-1-10h-2l-2 5-5 15-4 7h-8l-21-11v-2l-6-3v-2l-4-2-9-7v-2l-5-2-8-8-8-7-4-6v-9l2-7v-9l-4-3-11 1-5 5-5 6-6 5-3 6h-2l-2-5-7 2 1-4-7-5v-2h-14l-9-5-5-6-9-4-7-8-8-26-6-11-5-5-10-9-3-3-12-4-36-15-28-11-20-8-25-8-11-4-15-4-20-7-22-6-6-3-8-6-8-10-7-10-5-9-5-8-2-7-1-1v-13l5-9v-5h-8l-9 5-4 1v11l-3 4-2 5-7 11-4 9-2 2-1 5 3 7 8 13 6 4v2h7l5 5-1 4-3 6-5 3-2 7h6l4-4 5 1 3 3 3 9 2 3-7-1-3 9-6 2-8 2-1-4-6 2v-2h-2l-1 3h-2v2l-6 3h-3v-2l-4 2-5 1-1-3-3 1-3 3-5 3-7 6-7 8-24 24-7 8-9 8-5 3-5 1-2-1-9-1h-11l-5 1-1 5-4 6-6 7-4 5-8 6-11 8-10 8-6 2-8-2v4h-4v4l2-3 6 2 2 3-1 4-10 10-9 5-12 2-2-1-2 6-6 10-13 30-12 32-12 29-10 22-6 9-2 2h-7l-3-3 1-7 7-20 18-46 11-26 17-35 12-21 1-8 4-6 12-11 20-28 1-6-1-4 7-11 7-9 5-4 11-7 7-9 7-7 14-7 12-4 13-6h10l4 3h3l-5-2-2-11-3-12-3-5-1-5-2-20-4-10-2-3v-5l-4-1 1-7 4-5 8-12 3-3 8 1 17 5h12l1-6-5-2-4-7 4-1 10 3 7 6v2l4 2 5 4h14l6-2 6-3 6-9 3-3h2l1-8-1-1v-5l7-9h2l2-5h2v-2zm-11 140-1 2h2zm-4 2m-26 5m-177 99-3 2v2h2v-2h3l2 4-1-5zm-1 4m1 1v2l2-1z" fill="#2744A7"/>
<path transform="translate(1020,1253)" d="m0 0h4l1 4-3 6-6 8-5 9-1 11 1 4-2 17-4 21-3 16-2 16v30l3 19 6 21 6 16 9 16 11 15 9 13 5 6h-10l-28-3-19-5-8-1h-3l-1 4-8 7-13 14-11 14-8 8-13 8-25 10-10 2-39 4-12 2h-8l-14-5-10-6-4-10-2-13-1-51 2-9 9-9 8-2 33-2 13-2 16-2 10-2 7-2 5-3 3-1v-4l5-4h2v-2h2v-5l3-1 2-4 6-3h2v-2l2-1 2-6v-11l-1-5-1-16v-12l1-9 2-8 5-25 2-7h2l3-9 6-10 4-5 1-2h2v-3h2l1-4 5-12 4-5h2l1-3 7-5 15-4 10-3 9-2z" fill="#2E2E32"/>
<path transform="translate(568,1217)" d="m0 0h19l58 1 3 2 6 1-2-4 3 1 3 3 3 1 22 1 19 1h13l6-1 5 2v14l4 4 10 4 2 2v15l2 12 10 9 5 1 2 2v5h2v-5l3-2h7l5 6 5 13 10 34 6 33 6 27 2 13 2 7 4 3 28 3h16l15 1 25 1-3 3-9 2h-24l-8 2-9 1h-41l-30-4-31-7-24-7-19-7-13-7 5-17 1-1 45 1 17 3 4-2 4 1 7 11 9 11 8 4 8 1-4-25-12-63-5-13-7-12-3-2-10 1-9 3-2 9 2 2-1 7-3 3-9 1v-2h-2l-2 5h-2l-2 5-13 14h-12l-23 3-3 2-37-3-7 1-25 1-12-6-14-11-14-15-6-9-2-16v-27l3-31 4-9 4-5 15-1 24-1h24l-52-2-9-1zm195 76 1 2z" fill="#2F2F32"/>
<path transform="translate(647,928)" d="m0 0 6 2v2h2v2l3-1v2h2v2h2v20l-3 18-2 7-1 13-1 8-4 11-3 7-3 13-1 5-6 26-3 15-4 8-3 7-1 10 1 7-2 6-2 20 5 12 2 3h7l1-3 6-2 1-2 2 1-4 15-2 31-1 6-2 1v8l1 9 4 1h-87l-5 3-4 1-3-4-1-7-15-2-1-5 2-9 4-4h2v-2l7-3-1-4-7-1-6 2h-7l-5 3-5 5h-2l-2 4-4 1-1-1v-6l5-10h2l1-5 4-8 3-7 7-17 2-4h2l1-9 6-17 7-20 4-11 3-10 7-8h2v-2l6-1h4 5l6-5 5-7h2l3-9 6-10 9-19 2-7h2l1-5 6-13 2-6 4-11 8-15 4-9 4-8 5-7zm-10 269 1 3z" fill="#597DEB"/>
<path transform="translate(910,502)" d="m0 0h5l15 8 14 12 17 10 15 10 11 8 10 8 16 10 10 9 6 6v11l-12 39-4 12 1 7 2 4-4 2-5 11v6l2 2-5-1-7 14-9 15-4-2-11-8-18-12-16-11-14-9-17-10-10-7-11-7-13-8-14-9-1-7 3-11 8-26 8-19 4-9 6-11h2l1-4 6-11 7-8z" fill="#D29098"/>
<path transform="translate(645,659)" d="m0 0h1l1 5 6 2 6-1 2-1h6l6 5-1 9-6 4-2-1-4 8-2 7-1 13-2 4-3 1-1-1-9 1-4 3-1 6-2 17-1 9-3 9 1 8-1 2 3 1 1 6-1 8v15l-4 18-1 10-4 15 1 22 2 7 2 5 7 8 6 1 6-4 4-5h2v-2l5-2v-2h2l2-4 4-7 3-7 2-1 2-8h9l-5-7-4-9-3-35 1-14v-22l-3-12-3-8-2-9-1-22 3-14 3 4 2 3 7 1 2 3 1 13 1 9 5 5 4 16v15l1 4-4 26 2 8 2 6 1 9 6 9 4 8 2 2 6 1-2-8-7-11-1-5 2-8 4-6 9-2 6 1-2 1v2l3 1 2 5 4 2 3 2v2h9l12-3 2-1 2 6 1 1v8h2l1 2 4-1 4-2h6v-3l-9-3-8-6-1-3 4-4 17-1 7 6h7l7-3 8-6 8-3h4l5 4-2 5-4 6-11 13-7 8-8 8-8 6h-2l2-4 14-14 9-11 4-6 1-6-5 1-12 11-7 11-6 10-2 9-9 6-19 8-24 6-6 2-2 7-2 1-4 16-2 2-3 15-2 9-4 8-3 15-3 1-1 5-2 4-1 18-4 8-3 9-2 16-4 11-3 1-1 6-4 3v-6l1-2-5-1-1-4v-11l2-19 5-13 1-17v-14l2-11v-14l1-12v-20l-4 2-8 7-11 6-3 1-2 4-10 12-9 7-2 4-10 4-4 2-2 3h-2l-1 4-5 6-4 2-5-3h-26l1-7 6-15 11-36 11-34 13-44 10-41 4-20 4-29 7-28 5-10z" fill="#3E59B0"/>
<path transform="translate(645,507)" d="m0 0 4 3 6 17 4 23 2 13 5 15v6l2 1-3 7-4-4 3 11v5l-3-4-4-8v-2l-3 1 4 6 4 12 3 12 3 16 1 12 1 3-1-13-2-8v-11l2 1 3 8 1 16 5-1 4 9 3 17 2 8 4 14 4 16 3 1 1-5 5-5 8-7 1-2h2v-2l5-4h2l2-4 6-9 2-4v-6l-2-4 1-10 4-4 6 3 2 3-1 12-2 10-3 6-12 18h-2l1 9 2 2-2 9v19l4 13 5 10 13 17 5 8 4 10 1 1v7l-2 6-12 3h-7l-2-1v-2l-4-2-8-8-1-2-4-1-8 2-4 7-1 8 6 11 3 6v5h-6l-5-6-4-8-4-6-2-12-3-9 3-24 1-6-1-7v-10l-4-16-1-3-4-2-1-9-1-13-3-3h-6l-1-2-2 1-1-2-2 9 1 22 4 15 3 8 1 6v22l-1 14 3 35 7 14 2 3-10-1-2 8-4 8-4 7-3 4h-2v2l-5 2v2l-5 5-5 4-6 1-7-6-4-5-2-5-1-6-1-23 4-14 2-13 3-15v-16l1-10-1-3-2-1-1-10 4-13 1-13 1-12 3-5 6-3h6l4 1 1-4 1-13 4-12 4-4h3l3-2 1-9-5-4h-6l-4 2-7-1-4-2-2-10-3-26-8-35-2-4-5-2-3-7-2-13 4 3 15 2 12-4 3 2 2 7-2-17-4-16-5-16-1-5z" fill="#455898"/>
<path transform="translate(775,401)" d="m0 0 5 2 2 4v7l-2 7v9l5 7 8 7 9 8 8 7 7 5v2l6 3v2l5 2 16 8 8 1 2-5 3-9 4-10 4-4h1l1 11 3-5h1v8l-4 16-4 8-6 10-9 11-4 8-1 6 11 3 5 3 10 4 11 6-3 7-13 1-9-2-10 1-11 7-23 5-15 6-11 7-7 11-1 7 2 4-1 2 3 9-2 4-5 4 2 11-1 2h-2v-2l-4-1-2-10-6-3-3-6v-8l3-8-1-11-4-7-2-5-4-9-1-7-2 5-2-2-4-13-3-4v-2l-4-2-3-4-1-7 4-13-1-4-5-9 1-7 6-15 1-5v-20l-1-7 6-17 2-3h2v2h2l2-6 5-5h2l2-4 5-4 3-4z" fill="#1C367D"/>
<path transform="translate(1014,656)" d="m0 0 4 1 15 14 11 9 11 11 8 7 17 14 9 7 13 11 17 14 17 13 14 12 8 7 14 12 13 12 8 7 7 7 8 7 7 7 8 7 19 19 7 8 12 14 11 13 11 14 10 15 12 25 4 16v11l-4 8-6 5-5 1h-13l-12-3-16-7-17-11-18-13-14-9-9-4-4-1h-7l-6 3-7 8-5 11-6 25-4 33-1 15-1 29v13l3 8 4 58v43h12l8 3-1 4-18 1-7 3-2 14-3 5-5 1-9-7-4-9-2-5h-1l-1 12h-1l-1-8-2 2-2 9v13l1 3v12l2 5-1 1h-60l-5-1-1-7 1-7-2-17v-21l1-1 11-1 54-2 9-1 5-54 3-51 2-13v-13l4-49 3-27 4-16 6-14 7-10 7-6 10-3h8l12 3 14 7 16 11 20 13 12 7 15 7 10 1 5-2 3-4 1-10-3-14-5-13-7-13-12-17-13-16-12-14-13-14-7-8-15-15-7-8-10-9-16-15-11-9-10-9-11-9-13-11-11-9-11-10-17-13-14-11-17-13-15-10-17-9-15-9-8-4v-2l-3-1 1-9 5-9z" fill="#565555"/>
<path transform="translate(306,212)" d="m0 0 8 1 17 5h8l5 5 2 4v5l9 2 1 2h-8v2l-9 2-8 6-5 7 1 6h2v2l5 2 4 4 1 9-1 2-7 3-15 2-2 1 1 6 7 6 4 10 7 10 1 2v6l-4 10-4 9-5 4-5-1-5-6-3-6v-2l-7-2-1-3-13 1-10 4-11 6-5 3-1 2v6l5 7v2h2l3 4v2h2l1 4 4 2 9 5 7 2 4 2-4 1-5-1h-11l-5 1-1 5-4 6-6 7-4 5-8 6-11 8-10 8-6 2-8-2v4h-4v4l2-3 6 2 2 3-1 4-10 10-9 5-12 2-2-1-2 6-6 10-13 30-12 32-12 29-10 22-6 9-2 2h-7l-3-3 1-7 7-20 18-46 11-26 17-35 12-21 1-8 4-6 12-11 20-28 1-6-1-4 7-11 7-9 5-4 11-7 7-9 7-7 14-7 12-4 13-6h10l4 3h3l-5-2-2-11-3-12-3-5-1-5-2-20-4-10-2-3v-5l-4-1 1-7 4-5 8-12zm-98 201-3 2v2h2v-2h3l2 4-1-5zm-1 4m1 1v2l2-1z" fill="#565555"/>
<path transform="translate(644,1366)" d="m0 0 20 1 5-1-2 11-4 10 1 6 5 7 6 3h7l5-4 1 4 14 7 22 8 10 3v2l10 2 24 7 10 2 29 3h22l2 2-1 3-6 2-10 2 1 5 3 1v4l-14 8-5 1h-3-2v9l-12 21-4 6-2 1-3 7-9 8-4 5-8 2-5 2-10 1-7-6-5-4v5l-4-4-1-3 1-3-3 1-1-3h-2l-1-4-7-8v-5-3-2h-2l-4-5-3-2v-2l-5-2-9-5v-4l-4-5-1-8h2v-7l4-7v-10l-7-8-5-4-8-5-9-5-4-1-11-5-7-5-5-8-7-6v-5l7-9 9-3z" fill="#2C52C2"/>
<path transform="translate(568,1217)" d="m0 0h19l58 1 3 2 6 1-2-4 3 1 3 3 3 1 22 1 19 1h13l6-1 5 2v14l4 4 10 4 2 2v15l2 12 10 9 5 1 2 2v5h2v-5l3-2h7l5 6 5 13 10 34 6 33 6 27 2 13 2 7 4 3 28 3h16l15 1 25 1-3 3-9 2h-24l-8 2-9 1h-41l-30-4-31-7-24-7-19-7-13-7 5-17 1-1 45 1 17 3 4-2 4 1 7 11 9 11 8 4 8 1-4-25-12-63-5-13-7-12-3-2-10 1-9 3-2 9 2 2-1 7-3 3-9 1v-2h-2l-2 5h-2l-2 5-3 2 1-6 3-5-8-1-1-4-10-2-3-4v-2h-2l-5-15v-14l-2-8 1-7 2-4v-6l-7-8-7-6-5-5-5-4-13-7-8-2-17-1-11-2 3-2-17-1-32-1-9-1zm195 76 1 2z" fill="#565555"/>
<path transform="translate(994,1573)" d="m0 0 7 1 1 3 20 3h4v-3l7-1 5 1 4 4 6 3v27l-2 9v58l-3 6 1 7-2 5-36 6-34 5-25 5-37 5-35 3-23 1h-24l2-2h3l2-4-8-1v-2l-5 2-20 2-27 2-12 2-13 2-23 1-18-3-2-1 1-4 23-5 11-1 6-2 13-2 40-3 13-2 37-3 13-2 10 1h13l12-2h11l6 1h15l16-2 40-2 3-1 2-6 2-28 1-36v-15l1-22h2l1-4z" fill="#2861E3"/>
<path transform="translate(894,1451)" d="m0 0h6l-5 5-7 3-10 2v2l3 1-4 9 1 8 7 18 9 8 5 1 4-4 2-3 3 1 4 8 4 7 2 2 12 2 4 1-2 8v2l4-2 2-4 14-8 5-6h2v-2l9-6 2 1-11 12-11 14-8 8-13 8-25 10-10 2-39 4-12 2h-8l-14-5-10-6-4-10-2-13-1-51 2-9 9-9 8-2 33-2 13-2 16-2 10-2z" fill="#3F3F45"/>
<path transform="translate(458,190)" d="m0 0h15l16 5 7 4 10 4 19 10 17 8h5l7 5 12 5 16 6 10 6 23 10 12 6 17 8 9 4 16 8 8 6 6 8 4 7 11 14 4 5 4 2 8 2 4 5 6 10 1 1v7l-2 5-4 3h-5l-3-2v-2l-4-2-6-5-6-10-7-6-5-3-5-9-12-4-5-3-13-3-9-4-9-3-16-8-5-3-13-4-16-7-17-7-11-5-14-5-4-1v-2l-10-3-11-4-15-4-11-3-5-3-23-8-4-3-5-2-4-5-3-6 1-9-3-1 1-4 5-2 5-5z" fill="#79A0FC"/>
<path transform="translate(544,308)" d="m0 0 16 2 15 4 19 6 26 13 6 4v2h3l7 9 11 22 3 5 4 10 6 14 3 21-1 12-4 10-3 2-14 2-5 3h-7l-11-8-8-13-7-16-4-8-6-13v-2h-2l-6-7-8-4h-5l1 1 1 2-2 2-5-3-5-4-6-9-1-5-7-10-7-6v-2l-4-2-3-7 2-18 4-6z" fill="#0E2867"/>
<path transform="translate(921,558)" d="m0 0 10 1 10 5v2l6 2 12 8 14 8 19 9 14 13 2 5v12l4 1 1-3 1-9h2l1-4 4 1-2 12-5 17-1 12 3 6-4 2-5 11v6l2 2-5-1-5 5-3 1-1 4-4 2-6-1-3-7 1-5 3-2 1-3-4-3-11-3-11-7-3-3v-2l-5-2-3-2v-2l-4 1-3 7-5 3-7-1-4-4 1-6 2-5v-4l-9-5-9-7-2-1v-2l-4-2-7-7-3-7v-9l9-19 4-10 3-5 6-4z" fill="#A09894"/>
<path transform="translate(667,690)" d="m0 0 3 4 2 3 7 1 2 3 1 13 1 9 5 5 4 16v15l1 4-4 26 2 8 2 6 1 9 6 9 4 8 2 2 6 1-2-8-7-11-1-5 2-8 4-6 9-2 6 1-2 1v2l3 1 2 5 4 2 3 2v2h9l12-3 2-1 2 6 1 1v8h2l1 2 4-1 4-2h6v-3l-9-3-8-6-1-3 4-4 17-1 7 6h7l7-3 8-6 8-3h4l5 4-2 5-4 6-11 13-7 8-8 8-8 6h-2l2-4 14-14 9-11 4-6 1-6-5 1-12 11-7 11-6 10-2 9-9 6-19 8-24 6-6 2-1 4-9 2h-5l-1 2-6-2-3-3v-2l-8-1-2-6-3-5h-9l-7 5-1-2 3-6 2-1 2-8h9l-5-7-4-9-3-35 1-14v-22l-3-12-3-8-2-9-1-22z" fill="#445798"/>
<path transform="translate(952,1573)" d="m0 0h21l14 2 3 3v21l-1 6 1 14-3 28-4 17-3 4h-2v2l-8 7-5 3-9 4h-9l-2-1v-3l-8 2-10 4-7-3-6-5-1-2-7-4-3-5-2-9v-15l1-16 3-9 3-5 1-10 2-5 5-5 4-6 1-4 4-1 1-3 5-2z" fill="#2744A7"/>
<path transform="translate(843,644)" d="m0 0 6 2 13 10 11 7 10 8 5 5 4 5v15l7 11 4 3v2l4 2 13 8 12 4 8-1 4-1 14 5h6l1-5 4 3-2 6-6 6-11 30-5-1-10-5-13-4-13-2-15-1-11 2-3 5-4 13-5 3h-8l-1-2h-2l-1 3-6 4-2 2h-6l-2 2-5-1-2-6-2-10v-6l4-4 6-3 3-9 3-10-3-16-3-9v-10l3-15v-12l-1-4-5-1-5-9-5-5 1-5 5-4h2v-2z" fill="#565555"/>
<path transform="translate(441,154)" d="m0 0h10l2 3h10l3 1 8 2 10 7 1 3-5 2-10-2-2 6-5-3-9-1-7 3-2 9-4 2-4 5-6 11v6l9 19 4 4v2l4 2 5 8v2h2v2h2l4 5 5 2 11-2 4 2v2l10 3 16 4 11 1 19 9 6 4 17 3 9 3 15 6 7 5 7 2v2l4 2 1 1h13l8 4 5 6 5 2h11l11 5 8 7 11 4 8 9 6 8 2 5v7l4 12 1 9 3 7 8 6 2 4 2 5 4 2h5l6-6v-6l-1-1v-7l4-3 5 5-5 10 2 3 4 10 5 5 4 3-6-1-4-3v-3l-4-2h-6l-6 2-12-6-4-7-8-6-2-3-2-7-4-10-7-16-4-7v-2l-5-2-5-3-7-8-8-4-16-6-7-4-9-2-12-5-9-4-12-5-8-5-15-4-14-6-9-3-17-6-11-4-9-3-12-5h-18l-11-4-9-8-8-10-5-9-5-8-6-16-2-7 6-12 1-11-4-2 1-10-4-1-8 4h-3v2l-3 3-9 11v5l1 4-2 5-6 5-4 7-5 3-3 2-6 1h-13l-9-7v-2l-4-2-3-3-12-3 1 4 7 7-2 4-12 1-25-7-1 3-1-2 4-9 3-12 6-8 9-9 10-5 8-2h10l27 6 17 4h6l5-5 4-5 13-8 10-5z" fill="#597DEB"/>
<path transform="translate(351,235)" d="m0 0 7 1 7 6 11 9 7 10 6 12 6 11 1 2-3 6-5 5h-2v2l-9 5-3 1-4 8h-2l-2 5-4 6-6 5-7 8-24 24-7 8-9 8-5 3-5 1-7-4-9-2-10-7-1-4h-2l-3-4v-2h-2l-6-9v-6l5-5 10-5 9-5 13-2 4 1 2 3 6 2 6 11 3 3 6-1 3-3 4-10 3-8v-6l-7-11-4-9-8-8-1-6 3-2 15-2 4-2h3v-7l-2-5-5-4-2-1v-2h-2l-2-6 7-9 7-5 9-1v-2z" fill="#404045"/>
<path transform="translate(420,185)" d="m0 0h8l1 1-1 7-4 8v12l2 3 2 6 7 13 8 12 6 7 5 6 9 5 16 5 14 4 20 7 11 3 36 12 18 7 28 11 16 7 10 4 16 6 9 4 4 5 11 9 5 10 3 5 4 14 4 12 8 7 7 3 5 6 8 4h12l2 1v2l4 2 4 3-2 4-3 1-8-4v-2l-9-3-9-5-10-8-8-5-4-2-4-7-2-13-3-9-9-15-7-7-9-7-10-3-8-4-18-7-9-5-13-4-13-5-11-5-15-5-26-9-18-5-12-3-10-4-1 2 4 2 7 5 5 8 1 9-5 7-16 1-9-2-15-3-4-1v3l3 3-18-4-11-4-4-6-2-9-7-1-4 4-6-1 1-7 6-4 3-6-1-4-3-3-7-1v-2l-5-2-6-8-5-8-2-7 2-5 3-4 4-9 6-9 3-7 1-1v-11l3-2 5-2z" fill="#2C52C3"/>
<path transform="translate(1020,1253)" d="m0 0h4l1 4-3 6-6 8-5 9-1 11 1 4-2 17-4 21-3 16-2 16v30l3 19 6 21 6 16 9 16 11 15 9 13 5 6h-10l-28-3-19-5-8-1-2-1 1-1 12-2h11l7 3h11l5 1 3-1-1-5-11-18-8-13-4-10-8-27-4-18-6-18-4-16-2-2-1-7-3-1-2-7-4-2-1-2h-5l-4 4-2 1-16 2-5 2-4 10-1 5v20l1 14v12l-3 6-2-1 2-6v-11l-1-5-1-16v-12l1-9 2-8 5-25 2-7h2l3-9 6-10 4-5 1-2h2v-3h2l1-4 5-12 4-5h2l1-3 7-5 15-4 10-3 9-2z" fill="#5E5E62"/>
<path transform="translate(426,167)" d="m0 0 4 1 1 2-1 9 4 2-1 11-6 12 2 7 7 18 7 11 4 6 9 11 7 5 10 3h17l13 6 11 3 8 3 17 6 9 3 14 6 17 5 7 5 11 4 11 5 13 5 7 2 14 6 15 6 5 6 3 2v2l5 2 5 3 11 22 3 9 3 5 2 7 10 10 3 5 11 5 8-2 5 1 3 2 2 4 4 2 6-1 7-6 4-6 4-4 1-2-4-1 1-6-10-1-3-3-1-10 3-2 16-1 3 3 7 3 2 4-2 4-5 2 3 3 11 6v2h-13l-5 2-2 4-5 3-2 6-6 5-3 6h-2l-2-5-7 2 1-4-7-5v-2h-14l-9-5-5-6-9-4-7-8-8-26-6-11-5-5-10-9-3-3-12-4-36-15-28-11-20-8-25-8-11-4-15-4-20-7-22-6-6-3-8-6-8-10-7-10-5-9-5-8-2-7-1-1v-13l5-9v-5h-8l-9 5-4 1v11l-3 4-2 5-7 11-4 9-2 2-1 5 3 7 8 13 6 4v2h7l5 5-1 4-3 6-5 3-2 7h6l4-4 5 1 3 3 3 9 2 3-7-1-3 9-6 2-8 2-1-4-6 2v-2h-2l-1 3h-2v2l-6 3h-3v-2l-4 2-5 1-1-3-3 1-3 3-4 1 2-5 2-3h2l2-5 5-5 7-4h2v-2l7-6 2-6-4-7-7-13-6-10-4-5-9-7-10-8-11-2 1-6-2-4-4-5h4l1-6-5-2-4-7 4-1 10 3 7 6v2l4 2 5 4h14l6-2 6-3 6-9 3-3h2l1-8-1-1v-5l7-9h2l2-5h2v-2zm-11 140-1 2h2z" fill="#4C6BCA"/>
<path transform="translate(664,685)" d="m0 0 5 1-3 11-1 7 1 22 4 15 3 8 1 6v22l-1 14 3 35 7 14 2 3-10-1-2 8-4 8-4 7-3 4h-2v2l-5 2v2l-5 5-5 4-6 1-7-6-4-5-2-5-1-6-1-23 4-14 2-13h2l3-10 1-4h2v-5l3-5 4-11 2-9 1-9 1-19 4-10 1-6h1v10h2v-23l4-22z" fill="#2744A6"/>
<path transform="translate(1128,1238)" d="m0 0h1l2 12 16 9 12 11 10 13 13 24 7 19 3 14 2 28v11l-2 23-5 23-6 17-8 17-12 19-8 10-17 13-10 7-18 8-36 12-12 3h-5l-1 1-11-1-10-2 2 2-9-1-10-4-3-3 8 1-12-7-4-5 2-1-11-11-6-4 3-1 2 1v2l11 2 22 3 16 1h34l32-4 13-6 11-7 8-6h2l2-4 5-5 7-8 6-9 8-18 7-16 3-10 3-7 2-17v-20l-2-14-6-15-5-15-5-12-5-5-4-6-6-7-6-8-3-3-4-9-10-17-3-1-3-5 2-5z" fill="#A19995"/>
<path transform="translate(766,1286)" d="m0 0h7l5 6 5 13 10 34 6 33 6 27 2 13 2 7 4 3 28 3h16l15 1 25 1-3 3-9 2h-24l-8 2-9 1h-41l-30-4-31-7-24-7-19-7-13-7 5-17 1-1 45 1 17 3 4-2 4 1 7 11 9 11 8 4 8 1-4-25-12-63-5-13-2-4v-13h-3l-3-6z" fill="#323235"/>
<path transform="translate(775,401)" d="m0 0 5 2 2 4v7l-2 7v9l5 7 8 7 9 8 8 7 7 5v2l6 3v2l5 2 16 8 8 1 2-5 3-9 4-10 4-4h1l1 17-3 11-6 9-12 12-10 7-13 4h-11l-8-6-11-9-8-8-10-8-12-16-5-6-7-6-6-9-1-9 2-12 5-8 3-3h2l2-4 5-4 3-4z" fill="#2F2F32"/>
<path transform="translate(966,1344)" d="m0 0h7l1 3 5 2 2 7 2 1 2 6 2 3 4 16 8 25 3 15 9 29 12 21 10 15-1 5-3 1-8-1h-8l-7-3h-11l-12 2-3 5h-2l2-5-1-5-2-6v-10l5-5 4-2 2-5v-8l-6-17-8-13v-2l-4-2-8-7-3-5v-10l3-8v-9l-8-4-8-3h-6l-1 3-1 24 1 18-3 5-2-1 2-4v-12l-1-14v-20l3-10 3-6 9-3 12-1 4-4z" fill="#3F3F45"/>
<path transform="translate(990,1690)" d="m0 0 1 2 7 1 5 3 7 2h15v1l-53 8-25 5-37 5-35 3-23 1h-24l2-2h3l2-4-8-1v-2l-5 2-20 2-27 2-12 2-13 2-23 1-18-3-2-1 1-4 23-5 11-1 6-2 13-2 40-3 13-2 37-3 13-2 10 1h13l12-2h11l6 1h15l16-2 40-2z" fill="#4D6CCC"/>
<path transform="translate(638,955)" d="m0 0h2l1 7-2 10-1 12-3 14-6 17-2 3-3 22-4 12 2 4h2l3 12v11l-4 16-2 13-2 8-2 11-3 8v9l5 6 1 7-3 5-5 1-10-4-3-3-2-3v-10l2-7v-10l-2-4-1-6v-9l-3-14-6-11-2-1-1-9 4-8 2-5h2l1-6 8-16 4-4 5-10 6-16 1-7 4-10 4-14 5-9 3-7z" fill="#658FFC"/>
<path transform="translate(921,558)" d="m0 0 10 1 10 5v2l6 2 12 8 14 8 19 9 14 13 2 5v12l4 1 1-3 1-9h2l1-4 4 1-2 12-5 17-1 12 3 6-4 2-5 11v6l2 2-5-1-5 5-3 1-1 4-4 2-6-1-3-7 1-5 3-2 1-3-4-3-11-3-11-7-3-3v-2l-5-2-3-2v-2l-4 1-3 7-5 3-7-1-4-4 1-6 2-5v-4l-9-5-9-7-2-1v-2l-4-2-7-7-3-7v-9l9-19 4-10 3-5 6-4zm0 10-8 6-8 16-1 6v8l4 9 8 7 10 7 15 8 9 4 4 4 14 7 5 1h7l5-4 3-6 2-9v-7l-3-10-5-10-6-7-7-5-4-4-13-9-21-12z" fill="#B39191"/>
<path transform="translate(1134,1182)" d="m0 0 15 1 6 2v2h2l-1 5-1 1-2 14-3 5-5 1-9-7-4-9-2-5h-1l-1 12h-1l-1-8-2 2-2 9v13l1 3v12l2 5-1 1h-60l-5-1-1-7 1-7-2-17v-21l1-1 11-1 54-2 9-1z" fill="#565555"/>
<path transform="translate(902,1556)" d="m0 0 9 1 12 3 68 2 5 2 5-1 3-3h11l6 5 3 2 8 1 5 1h4l2 1-2-5 10-3 5 1 4 9 2 7 5 6 2 8-1 10-2 2-10 2v13l-2 13v9h2l-1 4 4-1 4-2 1-2 6 1v13l-5 16-5 8-2 2-8-1-5-5v-55l2-9v-26l-9-6v-2h-12v3l-6 1-19-3v-4l-16-1h-40l-12 2-8 6-17 2-18-1-6-3 1-4 6-2 9-1 5-2 1-2-7-1v-2h-4l1-5z" fill="#4E6DCD"/>
<path transform="translate(749,551)" d="m0 0 2 3 1 7 3 7 6 12 1 11-3 8v8l2 6 6 2 2 5 1 6 3 1v2h2v-2l3 1 2 9 1 4-9 5-9 3-7 4-8 10-4 13-5 8-2 5-6 7-5 9-3-1v-9h2l2-5 11-16 2-5 2-14v-6l-4-4-9-4-5-5-7-10-2-6v-27l2-11 4-5h2v-2l7-2 11-2 5-5 1-7v-6z" fill="#3E3E45"/>
<path transform="translate(645,659)" d="m0 0h1l1 5 6 2 6-1 2-1h6l6 5-1 9-6 4-2-1-4 8-2 7-1 13-2 4-3 1-1-1-9 1-4 3-1 6-2 17-1 9-5 16-1 9-6 25-4 13-5 16-3 13-1 2-1 13-1 5v13l3 14 1 12-4 18-3 8h-2l-1 5-3 1h-13l-14 2 2-6 5-13 11-36 11-34 13-44 10-41 4-20 4-29 7-28 5-10z" fill="#4F6ECB"/>
<path transform="translate(206,398)" d="m0 0 1 4 1 6 5 3v2h4l2 5 7 6v2l-4 1-8-2v4h-4v4l2-3 6 2 2 3-1 4-10 10-9 5-12 2-2-1-2 6-6 10-13 30-12 32-12 29-10 22-6 9-2 2h-7l-3-3 1-7 7-20 18-46 11-26 17-35 12-21 1-8 4-6 12-11zm2 15-3 2v2h2v-2h3l2 4-1-5zm-1 4m1 1v2l2-1z" fill="#A79F9B"/>
<path transform="translate(496,1212)" d="m0 0h2l-1 9-5 12-1 5v11l2 13 2 4h2v-5l3-1 1-5 8-7 9 1 8-2 3 1 2-5 9-8 9-5 4-4h2l-2 7-11 11h-2l-2 5-5 11-3 12 1 12 7 21-1 6-6 4-7 3-11 1-2-1h-7l-8-3-5-4v-3l-4-2-5-9-2-8v-16l1-17 3-13 3-7v-4l-4 5h-2l-2 7h-2l-1 5-2 3-3 23-1 14h-1v-17l1-16-2-13 1-2h3l2-5 8-11 10-10z" fill="#3D58B0"/>
<path transform="translate(470,196)" d="m0 0 8 1 17 6 9 4 10 7 11 6 4 3 8 2 20 8 2 4 12 3 16 9 3 2 10 1 12 6 24 10 15 8 2 2 10 3 4 8-1 6-5 2-4-3-2-6-8-6-9-3h-7l-4 5-5-1-4-10-5-1-1 5-5 2-5-1-15-8-4-4-13-2-13-7-4-3-7-3-12-5-6-3-4-5h-10l-8-7h-7l-5-5v-5l1-1v-6l-6-3-3-4-12-4 2 10 9 3 4 4v4l-8-1-9-4-7-6-1-5 4-10z" fill="#FEFEFE"/>
<path transform="translate(914,502)" d="m0 0 16 8 14 12 17 10 15 10 11 8 10 8 16 10 10 9 6 6v11l-12 39-3 8-1-3 6-20 1-9-1-16-2-4-6-5-7-4-10-2-13-7-6-5-5-5-8-6-15-5-6-4-7-2h-17l-9 5-10 8-4 6h-2v2h-5l-1-8 4-11 4-7h2l3-9 9-11 4-15z" fill="#DF9FA2"/>
<path transform="translate(1055,1203)" d="m0 0h1l1 12v24l-2 2-15 2-9 3-8 4-14 4-22 5-7 3-9 7-11 16-10 18-8 21-5 23-2 12-1 7-1 4v12l1 16 1 5v11h-1l-2-13-3-19v-24l4-20 6-21 9-25 11-27 7-12 7-9 13-13 13-9 14-6 15-5 6-1h21z" fill="#A19A98"/>
<path transform="translate(565,383)" d="m0 0h2l3 6 2 1v2l3 1 7 8 4 5 4 6 9 16 5 16 5 9 6 5 8 4 4 5-1 6-1 7 2 5 1 4 1 5v2l1 7-3 8-6 3h-9l-10 1-8-1-5 2v8 3l-6-9-6-16v-12l1-14 8-24 4-10v-12l-10-20-4-6-4-4-5-10z" fill="#455999"/>
<path transform="translate(605,1221)" d="m0 0h18v2l28 2 10 3 14 8 7 6 5 6 8 7 2 3-1 9-1 1-1 8 2 7v14l4 12v3h2l3 5 10 3 1 4 8 1-1 4-4 9-9 10h-12l-23 3-3 2-37-3v-2l26-2 6-2v-2h16l15-5 7-2 3-5-6-2-8-9-6-11-4-11-1-23v-11l-3-9-7-9h-4l-6 10-4 2-8-4-3-3-5-2h-12l-15-2v-4l1-1 12-2v-3l-12-8-13-1-21 1-5 2-7 3-9 2-3 17-1 14-1 33-2-4v-27l3-31 4-9 4-5 15-1z" fill="#3F3F45"/>
<path transform="translate(783,397)" d="m0 0 8 3 10 8 10 3 6 5 5 8 10 9 8 7 6 4 5 1 6 1 8-3 2-1h9l-4 2-5 3h-2l1 7-3 1-2 5-5 15-4 7h-8l-21-11v-2l-6-3v-2l-4-2-9-7v-2l-5-2-8-8-8-7-4-6v-9l2-7v-9l-4-3-11 1-5 5-5 4 2-5 5-2 2-5 5-2h11l2 1z" fill="#5D5D61"/>
<path transform="translate(722,697)" d="m0 0 2 2v5l2 2-2 9v19l4 13 5 10 13 17 5 8 4 10 1 1v7l-2 6-12 3h-7l-2-1v-2l-4-2-8-8-1-2-4-1-8 2-4 7-1 8 6 11 3 6v5h-6l-5-6-4-8-4-6-2-12-3-9 3-24 3-10 3-3 4 2 2 3v3h15l3 1-2-14-5-10v-2h-2l-2-4h-4l-2-4 1-7 4-4h2l2-5 6-12z" fill="#1C367D"/>
<path transform="translate(645,507)" d="m0 0 4 3 6 17 4 23 2 13 5 15v6l2 1-3 7-4-4 3 11v5l-3-4-4-8v-2l-3 1 4 6 4 12 3 12 3 16 1 12 1 3-1-13-2-8v-11l2 1 3 8 1 16 5-1 4 9 1 6v8l-2 3h-2l-1 2-4-1-7-6h-6l-4 2-7-1-4-2-2-10-3-26-8-35-2-4-5-2-3-7-2-13 4 3 15 2 12-4 3 2 2 7-2-17-4-16-5-16-1-5z" fill="#465998"/>
<path transform="translate(544,308)" d="m0 0 16 2 15 4 19 6 26 13 6 4v2h3l7 9 11 22 3 5 4 10 6 14 3 21-1 12-4 10-3 2-14 2-5 3h-7l-11-8-8-13-7-16-4-8-6-13v-2h-2l-6-7-8-4h-5l1 1 1 2-2 2-5-3-5-4-6-9-1-5-7-10-7-6v-2l-4-2-3-7 2-18 4-6zm15 14-4 2v2l-3 1-1 4 4 10 4 6h2l2 5 7 7 10 7h2v2l6 4 9 12 7 12 4 9 6 11h2l1 5 2 3h2l2 5 6 5 16 4 6-1 6-5 3-6v-17l-3-11-4-8-7-18-6-10-6-11-9-10-10-7-16-7-9-2-13-1-7-2z" fill="#1C367D"/>
<path transform="translate(816,1463)" d="m0 0h7l9 4 6 4v3h2l-2 9-7 9-1 5 3 4 3 13 9 20 4 8 7 4 12 2h15l8 2 9-3 3-9 5 1v2l4 2 7 6-2 2-15 6-10 2-10 1h-11l-6-1h-10l-3-1v-2l-6 1-1-1-9-1-6-2-4-1v-2l-3-1-6-15-2-1-4-4-3-9-3-11 2-14 2-1 2-5 4-2v-11l-2-8 1-4z" fill="#565555"/>
<path transform="translate(1056,1191)" d="m0 0h1l2 27 1 9-1 13h65l-2-5v-12l-1-3v-13l2-9 6-7 2 1 5 11 1 3 8 6 5-1 2-2v18l-1 2-3-1-2-4-2-8-3-4-7 2-2 2-3 22-1 4-21 1h-51l-6 3-7 5-9 15-3 10-8 15-7 17-5 15-6 23-3 16-1 10v15l3 23 5 19 5 15 5 10 10 16 10 13 8 12 10 7v2h-29l-22-3-11-3v-2l-14-1v-3l8-1 17 5 24 3 9 1h9l-9-10-10-15-7-10-6-10-7-17-6-20-3-15-1-8v-30l3-21 5-25 2-12 1-13-1-9 3-9 7-11 4-5 1-7-10 3-14 3-14 4-5 2-6 4-7 9-4 10-2 4h-2v3h-2l-2 5-4 5-8 16-1-3 8-19 11-19 10-13 11-8 16-4 15-3 16-6 7-3 9-2 9-1 1-1z" fill="#73747A"/>
<path transform="translate(845,638)" d="m0 0 5 1 5 5 9 6 5 3v2l4 2 13 12 9 9 15 11 18 11 16 12 9 4 7 3 9 1-3 4-1 5-1 1h-6l-14-5-7 2-9-1-9-4-13-8-3-2v-2l-4-2-7-10-1-2v-15l-5-6-3-2v-2l-4-2-12-9-13-9-6-5-5-1-4 2v2l-5 4h-2v5l7 8 3 6 4 1 2 4v12l-3 15v10l4 12 2 13-5 18-5 4-2-1 3-7 3-10v-7l-3-11-2-3-1-5v-26l-8-6-1-1v-16h-5l-8 8-3-1 1-5 7-11 5-6 8-6 3-3h2l2-4z" fill="#3F3F45"/>
<path transform="translate(642,1163)" d="m0 0h1l-1 30-1 6-2 1v8l1 9 4 1h-57l-23-1-4-3 1-4 5-3 12-2 7 2h8v-7l-16-6-9-2-6-7-2-5 3-3 4-1 14 7 7 1 6-10 5-3 5 1 4 4 6-2 7 4v2h9l8-9zm-5 34 1 3z" fill="#658FFC"/>
<path transform="translate(851,548)" d="m0 0 9 1 8 3v9l-3 6-3 1-1 8-9 16-1 11 1 5-4 8-6 3-9 3-8 5-5 6-6 1-2-1-1 4-3 1-5-5-5-7-2-6h-2l-3-10h5l5 4 2 4 8-10 7-8 8-8 5-10 2-7-2 1 2-16 1-4 11-7z" fill="#171827"/>
<path transform="translate(1014,656)" d="m0 0 4 1 15 14 11 9 11 11 8 7 17 14 9 7 13 11 17 14 17 13 14 12 8 7 14 12 13 12 7 8 7 7 8 7 23 23 7 8 16 16 6 8-4-2-22-22-2 2-19-19-7-8-10-9-16-15-11-9-10-9-11-9-13-11-11-9-11-10-17-13-14-11-17-13-15-10-17-9-15-9-8-4v-2l-3-1 1-9 5-9z" fill="#454548"/>
<path transform="translate(1074,1357)" d="m0 0h3l2 8 2 19 3 8 3 5v2h2l4 5 10 8 3 2-1 6-10 8-10 7-3 2h-15l-9-6-6-11-2-11v-7l6-10 5-13 4-10z" fill="#74757B"/>
<path transform="translate(342,242)" d="m0 0 5 1 5 2 8 2 8 4v2l6 2 5 6 10 19 2 5-1 4-1 2h-3v2l-6 4-7 3-6 2-1 7-3 5-1 4h-2l-2 4-6 2-3 6-5 7h-4l-2-6v-15l-4-12 5-3 6 1 8 5 4-1 5-4h3v-14l-4-7-7-2h-5l-3-8-2-5-2-7-10-4-1-4 2-4 6-4z" fill="#2F2F32"/>
<path transform="translate(846,1469)" d="m0 0 2 2 2 6 2 9 4 8 5 15 7 11 6 8 10 11 4 4 6 2 5-2 2-10 2-9h4l4 8 5 9 6 4 5 1-3 2-7 1-7-7-2-1v-2l-5-1-2 9-5 3-6 1-7-2h-15l-12-2-8-5-9-19-5-12-2-11-3-3 2-6 7-10 2-8h2v-2z" fill="#4A4948"/>
<path transform="translate(548,1109)" d="m0 0 5 1 5 10 8 6 1 9 2 6v12l-2 4-6 5-3 6-5 4-8 2h-14l-14 3-1-1 1-9 11-25 7-19 6-9 4-4z" fill="#658FFC"/>
<path transform="translate(828,557)" d="m0 0h5l1 7-1 9-1 1 2 2-4 10-5 8-12 12-8 11-3 2-2-5-4-3-7-1-9-11-4-6 1-7 7-11 10-7 14-6z" fill="#3F3F45"/>
<path transform="translate(1020,1253)" d="m0 0h4l1 4-3 6-6 8-5 9-1 11 1 4-2 17-4 21-3 16-2 16v38h-1l-2-16v-23l1-18-3-8-2-13v-25l8-17 6-8 2-5 3-5 1-4-15 5-11 9-3 5v11l-4 8-2 2-16 3-6 4-10 14-3 6h-2l1-7h2l3-9 6-10 4-5 1-2h2v-3h2l1-4 5-12 4-5h2l1-3 7-5 15-4 10-3 9-2z" fill="#676668"/>
<path transform="translate(747,571)" d="m0 0 5 1 6 11-1 9-3 5v11l3 5v2l3 1-1 7-11 8-7 6-11-6-9-5v-2h-2l-1-6 1-11-1-7v-8l3-9 4-4 9-2 11-4z" fill="#2F2F32"/>
<path transform="translate(957,1314)" d="m0 0 9 2 6-1 2-1h7l6 8 3 21 1 11 4 10 1 20 2 19-2-3-6-18-4-16-2-2-1-7-3-1-2-7-4-2-1-2h-5l-4 4-2 1-16 2-5 2-4 10-1 5v20l1 14v12l-3 6-2-1 2-6v-11l-1-5-1-16v-12l1-9 1-2h2l2-11 4-16 6-8 3-6z" fill="#565555"/>
<path transform="translate(1160,1476)" d="m0 0v3l-7 9-17 13-10 7-18 8-36 12-12 3h-5l-1 1-11-1-10-2 2 2-9-1-10-4-3-3 8 1-12-7-4-5 6 1 2-1v2l3-1 5-6h43l26 2h9l14-2 12-4 12-6 9-7 10-9z" fill="#FEFEFE"/>
<path transform="translate(1051,1562)" d="m0 0 5 1 4 9 2 7 5 6 2 8-1 10-2 2-10 2v13l-2 13v9h2l-1 4 4-1 4-2 1-2 6 1v13l-5 16-5 8-2 2-8-1-5-5v-55l2-9v-26l-5-7-1-6-2-1 4-1-2-5z" fill="#91908C"/>
<path transform="translate(775,401)" d="m0 0 5 2 2 4v7l-2 7v9l5 7 8 7 9 8 8 7 7 5v2l6 3v2l5 2 16 8 8 1 2-5 3-9 4-10 4-4h1l1 17-3 11-6 9-5 4-1-3-10-2-9-7-5-5-9-7-11-7-5-4v-2l-5-2-7-6-3-2v-2l-4-1-8-7-4-7-4-1-4 4h-3l-1 2-5 1-4 7h-2l-2 4-2-2-1-9 2-12 5-8 3-3h2l2-4 5-4 3-4z" fill="#3F3F45"/>
<path transform="translate(744,443)" d="m0 0 2 3 8 11 7 6 10 13 5 7 11 9 9 9 10 8 6 4h11l13-4 11-8 9-9 1 3-4 8-3 1v2l-4 4h-2l-2 4h-2v2l-8 4-16 5-14 3-12 1-4-1h-9l1-3h2l2-4 3-3-2-6-4-11-7-8-2-1v-2l-9-3-4-2-4-12-6-12-4-13z" fill="#0E2866"/>
<path transform="translate(1185,801)" d="m0 0 4 2 11 11 8 7 7 7 8 7 19 19 7 8 12 14 11 13 11 14 10 15 12 25 4 16v11l-4 8-6 5-5 1h-13l-9-2 4-1 20 1v-2l-4-1h2v-2l-3 1h-8l-19-5-14-8-12-9-13-9-14-9-10-5-13-3h-9l-7 2 1-2 10-3h8l12 3 14 7 16 11 20 13 12 7 15 7 10 1 5-2 3-4 1-10-3-14-5-13-7-13-12-17-13-16-12-14-13-14-2-3 1-4 24 24-4-5-7-8-16-16-7-8-22-22-8-7-8-8z" fill="#54545D"/>
<path transform="translate(667,690)" d="m0 0 3 4 2 3 7 1 2 3 1 13 1 9 5 5 4 16v15l1 4-4 26h-3l-2 1-1 6h-3l-3-7-1-12-2-5-1-17-3-12-3-8-2-9-1-22z" fill="#5D5D61"/>
<path transform="translate(703,521)" d="m0 0h6l12 9 9 6 3-1h3l4 4 3 6 3 10 2 4-1 7-4 5-5 2-11 2-4 1h-7l-3-2-4-10-4-11-2-25z" fill="#455898"/>
<path transform="translate(485,159)" d="m0 0 5 2 23 12 22 12 52 28 19 10 16 9 29 14 16 8 21 14 19 14 16 12 13 11h-3l-12-6-9-6-7-4v-2l-4-2-5-4-14-8-6-4-13-8-10-5-4-3-7-3-10-5-11-4-4-3-10-5-6-4-9-4-6-4-5-2-9-6-5-2-10-6-13-8-6-3-4-4-11-6-5-4-11-6v-2l-5-1-17-10z" fill="#7DA3FD"/>
<path transform="translate(155,501)" d="m0 0 6 1v10l-14 36-13 30-8 14-3 3h-7l-3-3 1-7 7-20 18-46 3-7h2l2-5 6-5z" fill="#B39393"/>
<path transform="translate(407,218)" d="m0 0 7 3 6 2 4 4 7 14 4 6 4 4 7 12-1 2-10 1-6 4-1 1h-6l-6-4v-2l-9-3-8-6-3-6v-8l2-9 1-2h2l1-6z" fill="#2744A7"/>
<path transform="translate(679,924)" d="m0 0 7 1 4 5 4 8v28l-4 8-3 9-2 16-4 11-3 1-1 6-4 3v-6l1-2-5-1-1-4v-11l2-19 5-13 1-17v-14z" fill="#2C52C2"/>
<path transform="translate(871,441)" d="m0 0h8l6 4 8 10 5 1 3 6-1 3 3 6v2l4 2 6 7v18l1 2h-4l-1-6-7 1-1 4-4 4-8 4-4-1-6-4-3-8 1-9 3-9 1-6 1-21-2-7-9-2z" fill="#658FFC"/>
<path transform="translate(817,795)" d="m0 0 3 1-4 5-1 4 5-3 2 1-11 14-12 13-11 10-5 2 2-4 14-14 9-11 4-6 1-6-5 1-12 11-7 11-6 10-2 9-9 6-13 5v-2l-3-1 1-5 6-5 1-2-3-1-5-7-3 12-5 6-7 1-2-2 1-8 2-5 1-12 9-9 4-2 2 3 2 10 6 2h6l7-6h2l1-4 3-4h4v-2l5-3 6-2 4-4h2v-2l9-4z" fill="#9E999A"/>
<path transform="translate(664,685)" d="m0 0 5 1-3 11-1 7 1 22 4 15 3 8 1 6v22l-1 14 2 27v6h-2v-3h-2l-5-9-2-8-2-9-1-19-5-16-1-8v-16l1-1 1-13v-10l4-22z" fill="#1C367D"/>
<path transform="translate(664,680)" d="m0 0 2 3-4 7-4 22v15l-1 8h-2l-1-4-4 10-1 19-1 9-1 7h-2l1 3-5 12-2 3-1 5h-2v6h-2l-1 6-2 2 1-10 1-5v-16l1-10-1-3-2-1-1-10 4-13 1-13 1-12 3-5 6-3h6l4 1 1-4 1-13 4-12z" fill="#455897"/>
<path transform="translate(570,935)" d="m0 0 1 2 27-1 1 1v7l-3 11-3 8-5 13-2 3h-2v2l-26 1v-8l4-12 4-11z" fill="#D89D9F"/>
<path transform="translate(950,1695)" d="m0 0h29l2 1v2l-10 2-26 2-26 4-76 1-14 2-7 2-10 2-18 1h-13l-2-2 3-3 37-6 10-2 24-2 41-1 14-1h17z" fill="#648EFB"/>
<path transform="translate(220,375)" d="m0 0 5 1 8 7 16 15 4 5-1 4-14 10-10 8-5-2-6-6v-4h-4v-2l-4-1-3-4 1-10 7-9 2-3 1-5h2z" fill="#4C4C4B"/>
<path transform="translate(724,1424)" d="m0 0h6v2l16 4 17 6 9 3 10 3 13 2-4 2-16 6-6 6h-2l-1 3-6 3-5 1h-7l-6-9v-2l-5-2-6-3-1-6h-2v-11l1-2-3-1z" fill="#2861E4"/>
<path transform="translate(748,446)" d="m0 0 5 2 6 4 5 4v2l5 2 5 3 1 3 10 10 16 12 10 7 9 6 4 1v-2h9l11-3 9-3-2 4-10 9-10 5-8 2h-11l-8-6-11-9-8-8-10-8-12-16-5-6-7-6-4-6z" fill="#171827"/>
<path transform="translate(775,399)" d="m0 0 6 1 5 9v10l-3 5 1 6 4 4 11 6 16 12 12 7 4 1 9-3h10l9-3 7-1-1 2h-2l-2 5-5 15-4 7h-8l-21-11v-2l-6-3v-2l-4-2-9-7v-2l-5-2-8-8-8-7-4-6v-9l2-7v-9l-4-3h-11v-1z" fill="#565555"/>
<path transform="translate(306,212)" d="m0 0 8 1 12 4 2 2-2 5-6 4-1 2 8 2 3 1-6 4-6 8h-2l-3 13-2 9-2 5-5 6h-2l-2-20-4-10-2-3v-5l-4-1 1-7 4-5 8-12z" fill="#9F9B9D"/>
<path transform="translate(944,594)" d="m0 0 13 1 4 3 5 1 6 4 4 5 2 4 4 2 1 5h2l2 3v11l-1 2h-2l-1 4-2 4-3 2h-9l-4-2-4-6-1-3-2-2-1-4-2-3-2-6-3-3 1-6v-8l-6-4-2-3z" fill="#908F89"/>
<path transform="translate(806,1406)" d="m0 0 2 3 3 6 1 1 53 2 18 1-1-5 2-3 4 1 1 6-1 2 42 1v2l-9 5-4 4-7 2h-15l-3 1-3 3-5 2-2-3-10-1h-16v-3l5-2h24l9-2 2-1-27-1-13-1h-16l-27-3-5-4-2-7z" fill="#455898"/>
<path transform="translate(641,594)" d="m0 0h7l5 5 5 7 4 16 1 12 3 10-3 9-4 5-7-1-3-1-3-4-1-4-1-13-3-7-3-13-1-17z" fill="#3F3F46"/>
<path transform="translate(1032,1576)" d="m0 0 6 1 4 4 6 3v27l-2 9v58l-4 4-1 3h-2l-4-13 1-40-2-23-3-23v-4h-3v-4z" fill="#2B51C0"/>
<path transform="translate(817,791)" d="m0 0 4 2 4 3-2 5-6 4h-2l1-5 3-4-5 2-8 2v2l-4 2-4 4-9 3v2l-5 2-3 6-8 6-1 1-9-1-4-2-3-12-6 4-6 6-1 12-3 8v5l1 1h7l1-3h2l2-5 2-10 2-1 5 8 2 1-2 4-5 5v3l2 1-1 3-10 3-1-3-9-1v-3l-2-3 2-9 2-7-3-9 13-12 7-2 2 2v8h2l1 2 4-1 4-2h6v-3l-9-3-8-6-1-3 4-4 17-1 7 6h7l7-3 8-6 8-3z" fill="#737479"/>
<path transform="translate(1028,1211)" d="m0 0h4l1 3 3 3-1 4-5 2-2 6-5 4-12 3-5 2-13 4-9 5-14 11-10 13-9 19-1-3 10-24 10-16 16-16 13-9 14-6z" fill="#FEFEFE"/>
<path transform="translate(751,549)" d="m0 0 5 1 8 8 2 3 2 12 3 5v2l8 2-2 6 1 7v3l3 10-2 4-5 4 2 11-1 2h-2v-2l-4-1-2-10-6-3-3-6v-8l3-8-1-11-4-7-2-5-4-9v-8z" fill="#445798"/>
<path transform="translate(539,1122)" d="m0 0 6 1 7 7 3 5 2 10-5 14-10 7-4 2h-15l-1-1 1-9 12-29z" fill="#7AA1FD"/>
<path transform="translate(559,1229)" d="m0 0 2 2-2 6-3 31v27l2 16 4 6 9 10 7 8 13 10 12 6 25-1 7-1 24 2 12 2-1 3-20-1h-11l-27 3-11-1-12-6-10-8-7-6-18-22-4-7v-37l3-27 4-13z" fill="#1C367D"/>
<path transform="translate(1134,1182)" d="m0 0 15 1 6 2v2h2l-1 5-1 1-2 14-3 5-5 1-9-7-4-9-2-5h-1l-1 12h-1l-1-8-2 2-2 9v13l1 3v12l2 5-1 1h-33v-1h28l-2-5v-10l-3-13-1-7 4-8 5-6 4-2 1-3h-34v-1l30-1 9-1z" fill="#606063"/>
<path transform="translate(1179,929)" d="m0 0h9l13 3 14 7 10 7 28 20 14 7 16 4h11v2l2 1v2h-20l-10-2-16-8-14-9-18-13-14-9-12-6-5-1h-7l-10 9-5 8-5 13-3-2-1 3-3 1 3-14 8-14 6-6z" fill="#3D3C43"/>
<path transform="translate(590,878)" d="m0 0 1 3-1 5 5 8 3 3 8 2 1 2v6l-2 2 1 3-4 17-3 3h-14l-14 2 2-6 5-13 11-36z" fill="#A49C9A"/>
<path transform="translate(885,543)" d="m0 0v3l-5 10-8 20-8 24-4 14v8l5 2 11 7 42 27 12 7 12 8 23 16 14 9 8 7-2 5-3 3v-5l-5-5-7-3-10-6-16-12-28-18-14-10-3-3v-2l-5-2-7-4-3-3-3-1v-2h-3l-4-4-11-7-3-1v-2l-4-2-2-2v-7l5-11 7-20 9-24 3-7 5-5z" fill="#555454"/>
<path transform="translate(664,1395)" d="m0 0 7 6 4 2h7l5-4 1 4 14 7 22 8 10 3v2l10 2 24 7 10 2 29 3h22l2 2-1 3-6 2-7 1h-22l-18-3-9-4-13-4-15-5-10-3v-2l-4 1-10-2-6-3v-2l-9-1-6-3-7-2-7-3-9-3-8-7-1-2z" fill="#4D6BC9"/>
<path transform="translate(1180,933)" d="m0 0h7l7 2-3 1h-7l-6 3-7 8-5 11-6 25-4 33-1 15-2 13-1 21h-6l1-44 1-26 2-24 4-14 1 4-1 4h2l1-6 2 4 6-14 6-8z" fill="#4D4C51"/>
<path transform="translate(1156,1081)" d="m0 0h1l4 58v43h12l8 3-1 4-18 1-5 1v-4h-2v-2l-14-2h-8v-9l4-45h1l1 31 2 9 1 4 7-2 5-10 2-7-1-17z" fill="#777576"/>
<path transform="translate(245,344)" d="m0 0 1 3 4 10 8 11 10 12v5l-6 9-4 2-5-1-7-7-12-16-1-1v-7l1-7-7 2 2-4 6-5z" fill="#FCFCFC"/>
<path transform="translate(281,341)" d="m0 0 9 3 10 5 8 6 2 3v8l-4 7h-2v2l-7-1-10-4-6-2-3-2v-2h-2l-7-8-3-3-1-6 4-4 2-1z" fill="#2F2F32"/>
<path transform="translate(271,321)" d="m0 0 2 1-10 7-6 4-4 6v8l5 10 13 16 6 5v1l-5 1-1 5-4 6-6 7-4 5-4 2-8-10-16-15-5-4h-4l-2 3-2-5 7-11 5-5 7-2v6l-1 2v7l4 4 3 5 9 11 4 4 6-1 3-3 4-6v-5l-11-13-7-10-4-10 3-7 9-10 8-6z" fill="#A39B98"/>
<path transform="translate(872,443)" d="m0 0h6l4 4 1 9-1 16-3 12-2 6 1 10 2 4 6 4 5-1 8-5 3-5 7-2 1 1v8l-5 12-9 11-5 9-2-4-2-1-5-15-5-3-5-6-1-3v-13l5-12 3-8v-16l-1-3-9-4-2-2z" fill="#4D6CCB"/>
<path transform="translate(936,1704)" d="m0 0h8l9 2 7-1-1 3-24 3-12 2v2l-13 2-38 1-10-4-7-1-5 1h-11l-1-3-2-1 6-2 15-1h52z" fill="#2861E4"/>
<path transform="translate(1124,751)" d="m0 0 4 2 10 8 26 22 8 7 6 3 7 7 7 8 7 7 8 7 23 23 7 8 16 16 6 8-4-2-22-22-2 2-19-19-7-8-10-9-16-15-11-9-10-9-11-9-13-11-8-7 3-1 6 5-5-5z" fill="#33333E"/>
<path transform="translate(503,280)" d="m0 0 10 1 11 3 36 12 18 7 28 11 16 7 10 4 16 6 9 4 4 5 11 9 5 10 3 5 4 14 4 12 8 7 7 3 5 6 8 4h12l2 1v2l4 2 4 3-2 4-3 1-8-4v-2l-9-3-9-5-10-8-8-5-4-2-4-7-2-13-3-9-9-15-7-7-9-7-10-3-8-4-18-7-9-5-13-4-13-5-11-5-15-5-26-9-18-5-7-3z" fill="#3C58B1"/>
<path transform="translate(1073,1365)" d="m0 0 3 1 3 24 6 11 2 1v2l4 2 7 8-2 4-10 4h-9l-5-5-4-5-2-5v-22l2-12z" fill="#666567"/>
<path transform="translate(740,684)" d="m0 0h2l-2 6-4 8 4-3 4 2 3 6v7l-5 8-8 6h-6l5 25 4 8 12 16 6 9 2 6v6l-4-4-5-12-10-13-7-10-5-10-3-11v-19l3-12 7-11z" fill="#171827"/>
<path transform="translate(394,289)" d="m0 0 2 2 4-1 2 1v2l9 1 5-1 3 6-2 5h3v5l-2 2-8 1-2 2h-3l-1-4-6 2v-2h-2l-1 3h-2v2l-6 3h-3v-2l-4 2-5 1-1-3-3 1-3 3-4 1 2-5 2-3h2l2-5 5-5 7-4h2v-2l7-6zm21 18-1 2h2z" fill="#777A85"/>
<path transform="translate(946,737)" d="m0 0 6 1 8 2-3 10-7 19-5-1-10-5-13-4-13-2-11-1-3-2 10-5 1-1h7l8 1h12l6-8z" fill="#696869"/>
<path transform="translate(915,1432)" d="m0 0h2v4h-2v2l-5 4h-2v4l-5 4-9 2-1 1-18 3-21 3-10-1-2-1v-2l16-6 6-4 15-2 7-5 5-1 1-3 3-1h15z" fill="#1B357C"/>
<path transform="translate(1068,1594)" d="m0 0h1l-1 9-2 2-10 2v13l-2 13v9h2l-1 4 4-1 4-2 1-2 6 1v13l-5 16-5 8-2 2-8-1-2-2 3-1 2-5h2v-5l1-1v-6l-2-4h-2l-4-24v-9l2-10 3-6 2-7 4-4 9 1z" fill="#918F89"/>
<path transform="translate(783,397)" d="m0 0 8 3 10 8 10 3 6 5 5 8 10 9 8 7 6 4 5 1 6 1 8-3 2-1h9l-4 2-5 3h-2l-1 2-9 2-5 1-11-2-8-6v-2l-5-2v-2l-4-2-13-11-5-5-10-4-3-5v-2h-2l-4-7v-3h-2z" fill="#696769"/>
<path transform="translate(853,1433)" d="m0 0 3 1 1 1h19l7 2v4l-4 3-15 2-9 5-14 5-7 1h-9l-4-2 1-3 2-7 12-3 5-1h4l-1-4h-10v-1z" fill="#2744A5"/>
<path transform="translate(847,1579)" d="m0 0h6l6 10 1 9v13l-6 15h-2l-1 4-2-1v-2h-3v-2h-2l-3-5-2-2v-17l2-5 2-10z" fill="#3E59B0"/>
<path transform="translate(206,398)" d="m0 0 1 4 1 6 5 3v2h4l2 5 7 6v2l-4 1-8-2v4h-4v4l2-3 6 2 2 3-1 4-10 10-1-2-1-4-2-1v-2l-3-1-6-7v-2l-3-1-5-8 1-3 7-6zm2 15-3 2v2h2v-2h3l2 4-1-5zm-1 4m1 1v2l2-1z" fill="#A79F9B"/>
<path transform="translate(287,334)" d="m0 0 8 1 10 5 7 8 5 4 6 3-4 8-8 10-2 4-5 3-5 1-4-3v-2l-10-3-6-3-3-3v-2h-2l-3-5-2-1v-2l-3-1-4-6v-6l4-3 16-6zm-6 7-10 1-5 3-1 5 3 5 7 7 1 2h2l1 3 3 2 11 3 8 3h3v-2l3-1 3-6v-8l-5-6-7-4-10-5z" fill="#3F3F45"/>
<path transform="translate(652,1227)" d="m0 0h7l16 9 7 6 5 6 8 7 2 3-1 9-1 1-1 8 2 7v14l4 12v3h2l3 5 10 3 1 4 8 1-1 4-4 9-5 6-1-4 2-5-1-6-5-4-3-1v-2l-4-2-5-5-3-4-5-11-1-4v-25l2-7-1-5-4-6-7-9v-2l-18-9-5-4z" fill="#4A4948"/>
<path transform="translate(710,574)" d="m0 0 6 1 7 1-5 6-2 14v24l4 9 4 6 5 5 5 4-3 7-2 4-5-5-8-7-6-7-3-11-1-15 1-5 2-25z" fill="#1C367D"/>
<path transform="translate(990,1690)" d="m0 0 1 2 7 1 5 3 7 2h15v1l-53 8-25 5-24 3v-2l12-3 18-2h6l-1-2-8 1-6-2-8-1 2-2 16-2 27-2v-2h-43l1-2 26-2 22-1z" fill="#4E6ECE"/>
<path transform="translate(1183,927)" d="m0 0h8l12 3 14 7 16 11 20 13 12 7 15 7 10 1 5-2 3-4 1-10-2-14 3 4 3 9v-6l1-4-5-14-1-5 3 4 6 15 2 10v11l-4 8-6 5-5 1h-13l-9-2 4-1 20 1v-2l-4-1h2v-2l-3 1h-8l-19-5-14-8-12-9-13-9-14-9-10-5-13-3h-9l-7 2 1-2z" fill="#F6F6F5"/>
<path transform="translate(734,1422)" d="m0 0 8 1 31 7 30 4h28l8 1v1l5 1 1 4-6 1-11 3-4 1-1 6 1 2-2 1 3 1h9l8-1v2l7 1v1l-6 1-22 1-8 2-3 1-2 5-4 4-2 13h-1v-16l-7 2-1-4 1-3 5-2v2l5-2 12-7h2l-1-4-3-3-1-4 15-3 2-2-1-2h-22l-35-4-14-4-24-7z" fill="#3E56A3"/>
<path transform="translate(806,1412)" d="m0 0h1l2 7 4 3 28 3h16l15 1 25 1-3 3-9 2h-24l-8 2-9 1h-41v-1l9-1 1-1-4-3-4-10-1-4z" fill="#3E3E45"/>
<path transform="translate(741,365)" d="m0 0 1 4v4l4 2 1 12 12 1v3 4l3 1-2 5-5 5-7 8-5 1-8-9-1-3v-14l3-7z" fill="#7AA1FD"/>
<path transform="translate(833,560)" d="m0 0 1 4-1 9-1 1 2 2-4 10-5 8-12 12-8 11-3 2-2-5-4-3-5-1-2-7 14-6 10-6h2v-2l5-5 6-14 3-3z" fill="#2E2E31"/>
<path transform="translate(1014,656)" d="m0 0 4 1 16 15 2 4 2 1 2 7 2 8-6 1-21-12-6-3v-2l-3-1 1-9 5-9z" fill="#585757"/>
<path transform="translate(1055,1203)" d="m0 0h1l1 12v24l-2 2-15 2-9 3-8 4-14 4-22 5-7 3-9 7-11 16-10 18-8 21-5 23-2 12-2 2 1-10 6-29 9-24 11-20 10-13 8-7 12-7 13-4 18-2 13-4 20-3v-27z" fill="#908F89"/>
<path transform="translate(333,324)" d="m0 0h1v7l-3 12-6 8-2 4-6-2-7-6-5-5v-2l-4-1-9-4-10 1-16 6-3 2v6l4 6 2 1v2l3 1 2 5h2l4 5 12 4 3 2v2l-12-3-10-7-1-4h-2l-3-4v-2h-2l-6-9v-6l5-5 10-5 9-5 13-2 4 1 2 3 6 2 6 11 3 3 6-1 3-3 4-10z" fill="#4A4948"/>
<path transform="translate(800,1478)" d="m0 0h1l2 10 1 43 2 13 4 10 16 8 12 3 1 3-3 3h-9l-9-5-10-4-5-3-4-11-2-10v-15l2-39z" fill="#1F387F"/>
<path transform="translate(676,955)" d="m0 0h1l1 11v13l2 3 2-2 2 1 1-3 3-2-3 20-2 9-3 6h-2l-1 6-4 3v-6l1-2-5-1-1-4v-11l2-19 5-13z" fill="#2861E4"/>
<path transform="translate(704,1386)" d="m0 0h33l17 3 4-2 4 1 7 11 9 11 8 4 8 1-1 2h-21l-4-5-3-6-10-5-15-1-4-7v-2l-3-1-4-1-7-1-18-1z" fill="#444449"/>
<path transform="translate(1129,1191)" d="m0 0 2 1 5 11 1 3 8 6 5-1 2-2v18l-1 2-3-1-2-4-2-8-3-4-7 2-2 2-3 22-1 4-21 1v-2l17-1-2-5v-12l-1-3v-13l2-9z" fill="#68676A"/>
<path transform="translate(915,732)" d="m0 0 10 3 6 2 8-3 6-1 15 6v1h-6l-5-2-5 1-6 4-5 7h-15l-5-1h-7l-8 5-4 2h-4v-2l11-9 6-7z" fill="#5E5E62"/>
<path transform="translate(699,721)" d="m0 0 2 3 4 5 2 4 4-1 1 5h2l4 8 3 8 1 8-1 2h-16l-2-1-3-6-3-5 1-8 1-1-1-18z" fill="#2744A7"/>
<path transform="translate(778,597)" d="m0 0 5 4 6 7v2h2l3 7v3h2l5 9 2 4-7 5-6 1-5-3-2-4-5-2-3-5-2-10 5-2 2-6-3-9z" fill="#0E2867"/>
<path transform="translate(638,1208)" d="m0 0h1l1 9 4 1h-57l-23-1 1-5 2-2 70-1z" fill="#7AA1FD"/>
<path transform="translate(830,651)" d="m0 0m-1 1 1 3-1 5 5 5 2 7 2 8 6 2 2 3-2 13-2 11 1 7 2 7 2 3 1 5v13l-5 16-4 1 6-18v-7l-3-11-2-3-1-5v-26l-8-6-1-1v-16h-5l-8 8-3-1 1-5 7-11 5-6z" fill="#3F3F45"/>
<path transform="translate(793,538)" d="m0 0h5l4 4v8l-7 8-7 4-10 2h-5l-2-2-3-9 5-4 2-3h2v-2l10-5z" fill="#2744A7"/>
<path transform="translate(759,1699)" d="m0 0h55v2l-17 2-36 3-16 3-3 1-11 1-23 5-1 3 2 1-5-1-2-1 1-5 19-7 13-4 15-2z" fill="#2861E4"/>
<path transform="translate(579,1545)" d="m0 0 35 6 5 3 1 1v8l-2 4-15-1-20-3-7-1-1-2 9-1 4-2-2-4-9-5z" fill="#9E9897"/>
<path transform="translate(1050,1583)" d="m0 0h3v2h2l-1 7-1 2-1 16-2 5-1 16 3 19v6h2l3 4v6l-2 6h-2l-1 5-5 1-2-3v-55l2-9v-26z" fill="#75767B"/>
<path transform="translate(328,218)" d="m0 0h11l5 5 2 4v5l-13 4-8 6-2 4h-2v2l-2 1-1 10-6 15-4 3h-2l1 11-4-5 1-7 5-5 2-9 2-6 1-8 2-3h2l2-5 8-7-11-2 2-1 1-3 4-3h2l1-5z" fill="#74757B"/>
<path transform="translate(325,222)" d="m0 0 1 2-6 4-1 2 8 2 3 1-6 4-6 8h-2l-3 13-2 9-2 5-5 6h-1v-7l2-10-2-11v-10l3-7h2l2-6 13-4z" fill="#908F89"/>
<path transform="translate(372,180)" d="m0 0 6 2 8 5 4 8-1 5 1 6-2 2-9-2-7-3-12-6-2-3h2l2-4 4-6h2v-2z" fill="#4D6CCB"/>
<path transform="translate(853,1699)" d="m0 0h39v1l-8 1-4 1-16-1-28 2-16 3v2l22-3 24-1 17-1 5 1h30l1 2-76 1-14 2-7 2-10 2-18 1h-13l-2-2 3-3 37-6 10-2z" fill="#597DEB"/>
<path transform="translate(220,375)" d="m0 0 5 1 8 7 16 15 4 5-1 4-7 4v-6l-5-5-4-2-2-5-4-2v-2l-8 1-4 2-2 5-4 3h-2l1 7 3 2v2l3 1-4 1v-2l-4-1-3-4 1-10 7-9 2-3 1-5h2z" fill="#595858"/>
<path transform="translate(894,1557)" d="m0 0h6l-2 3h-2l-1 5h4v2l7 1-1 3-5 2-9 1-6 1v4l5 2v1h-8l-7-4 1-11-1-3 5-2-12 1-23 5-8 1 1-4 15-3 39-4z" fill="#3D58B0"/>
<path transform="translate(899,695)" d="m0 0 10 3 10 5 7 5v2l5 2 10 7-1 4-3 2-9-1-11-6-10-7-8-8-2-4v-3z" fill="#2F2F32"/>
<path transform="translate(338,233)" d="m0 0h14l4 2-4 1h-9l-10 4-5 4-5 7v20l-7 8-6 2-1 4v7l4 2 6 7 1 2v6l-4 3-5-1-2-11-4-21 3-3 3-2 6-15 1-10 3-1v-2l2-1 3-5 9-6z" fill="#656466"/>
<path transform="translate(828,786)" d="m0 0h9l-3 3-4-1-4 8-5-2-4-2-5 3-5 2-10 7-8 1-5-1-5-5-17 1-3 3 1 3 11 7 5 2v3l-7 2-4 2-4-1v-2h-2l-1-8-2-2-1-9 1-6h5l2 1 5-1 10 2 4 2 4 4h8l4-3 1-7 7-2 12-1 3 1 1-3z" fill="#404045"/>
<path transform="translate(884,445)" d="m0 0 5 5 4 5 5 1 3 6-1 3 3 6v2l4 2 6 7v18l1 2-4-1v-11l-1-4-4-2-6-2-4-1-5-5-4-9-1-4z" fill="#7CA2FD"/>
<path transform="translate(645,507)" d="m0 0 4 3 6 17 4 23 2 13 5 15v6l2 1-3 7-4-5-3-6-2-13-2-10-4-18-4-12-1-5z" fill="#3D58AF"/>
<path transform="translate(845,539)" d="m0 0h9l9 2v2l4 2 2 5-5 1-9-2-10 1-11 7-16 3-3-2 2-5 6-4 12-5 6-4z" fill="#0E2867"/>
<path transform="translate(724,705)" d="m0 0 2 1-2 9v19l4 13 5 10 13 17 5 8 4 10 1 4-4 4-5-1-3-8-2-14-3-4v-2h-2l-12-18-7-19v-12l4-13z" fill="#0E2867"/>
<path transform="translate(1040,1580)" d="m0 0 8 4v27l-2 9v58l-4 4h-1v-17h1v-10h-1l-1-51z" fill="#455898"/>
<path transform="translate(757,372)" d="m0 0h7l3 3 7 3 2 4-2 4-5 2 5 5-9 2-6 1-1-5 1-2-10-1-3-3-1-10 3-2z" fill="#658FFA"/>
<path transform="translate(575,1660)" d="m0 0h1l1 28 7 1 3 4-2 4-7 3v4h-3l-1-2-40-3 3-2-6-2h-13l-3 5-2 8-1-4 2-8 3-3 33-1 20 1 5 1z" fill="#4462BC"/>
<path transform="translate(712,548)" d="m0 0h8l9 2 5 2 6 6 1 6-3 2-11 2h-9l-5-4-2-6v-9z" fill="#4D6CCB"/>
<path transform="translate(1010,1439)" d="m0 0h2l6 13 13 21 8 10 8 12 10 7v2h-29l-22-3-11-3v-2l-14-1v-3l8-1 17 5 24 3 9 1h9l-9-10-10-15-7-10-6-10-6-14z" fill="#797A81"/>
<path transform="translate(1135,1152)" d="m0 0h1v22l8 2 9-3 5-2h3v11h12l8 3-1 4-18 1-5 1v-4h-2v-2l-14-2h-8v-9z" fill="#91908A"/>
<path transform="translate(718,808)" d="m0 0 7 1 4 3 11 2 10-3-6 7-6 5 3 11-4 11 1 6-4-1-2-4-5 1-2-4 7-2 2-3h2l-2-8-4-4-10-5-3-4v-8z" fill="#4D6CCB"/>
<path transform="translate(884,1411)" d="m0 0 4 1 1 6-1 2 42 1v1l-9 1h-78l-17-1-13-3-2-1 1-2 53 2 18 1-1-5z" fill="#78787E"/>
<path transform="translate(503,280)" d="m0 0 10 1 11 3 36 12 18 7 28 11 16 7 10 4 16 6 8 5 4 6-4-2-5-4-10-3-8-4-18-7-9-5-13-4-13-5-11-5-15-5-26-9-18-5-7-3z" fill="#3D58B0"/>
<path transform="translate(932,1423)" d="m0 0 1 4-3 10-1 6h-2l-1 5-9 8-6 2-16-1 2-4 3-1v-2l5-3 10-7 6-5h3l1-3 5-5z" fill="#171827"/>
<path transform="translate(603,530)" d="m0 0 7 1 8 6 2 4 8 11 2 6-2 5-1 1h-5l-4-4-2-4-5-8-4-3v-2h-2l-3-4-1-5z" fill="#1C367D"/>
<path transform="translate(136,554)" d="m0 0 4 2 1 2h-4l1 6-1 7-8 16-4 6-2 2h-3l-3-5 2-9 2-6h2l2-9h2v-3l3-3 4-5z" fill="#A29894"/>
<path transform="translate(325,179)" d="m0 0h2v5l5-1 4 1 2 5-3 3h-2l-3 12-10 2-5-3-2-10 2-5 8-8z" fill="#4D6CCB"/>
<path transform="translate(719,872)" d="m0 0h2l-2 11-19 67-15 55-2 4-2-3 3-7 2-16 3-9 4-8 1-18 4-9 2-1 3-15 5-11 3-16 4-12 3-11z" fill="#5171D0"/>
<path transform="translate(716,792)" d="m0 0 7 1-2 1v2l3 1 2 5 4 2 3 2v2l4 2-2 1-7-3-10-5-6 1-2 3 1 9 5 8 3 3 3 1 1 4-3 3-4-2-2-5-4-4-7-11-1-5 2-8 4-6z" fill="#2744A7"/>
<path transform="translate(1272,891)" d="m0 0 5 4 11 15 8 14 2 4 2 7 5 14v5l-1 3-1 4-3-7-2-8h-2l-5-13-7-13-12-17-1-2 2-1-4-5 1-2 7 8 12 18 5 8-2-5-3-6v-2h-2l-2-3v-3h-2l-6-9-5-6z" fill="#585759"/>
<path transform="translate(299,310)" d="m0 0h10l2 3h-8l-7 4-6 2-10 5-11 6-9 6-3 5v9l8 11 7 9 3 4 10 3v1h-10l-8-8-12-16-3-7v-8l7-9 10-6 5-4 12-4z" fill="#6B6B6F"/>
<path transform="translate(879,463)" d="m0 0h1v8l-7 18-1 2v13l4 7 3 3 4 2 1 5h-3l-2-1 1 3-2 3-7-2-2-4h-2l-4-7 3-17 9-23 2-6z" fill="#2B52C2"/>
<path transform="translate(882,447)" d="m0 0 2 3v10l2 13v6l-4 10 1 5 5 5h8l5-7 6-1 4 3v7h-1l-1-5-7 1-1 4-4 4-8 4-4-1-6-4-3-8 1-9 3-9 1-6z" fill="#597DEB"/>
<path transform="translate(1e3 1560)" d="m0 0h11l6 5 3 2 8 1 5 1h4l1 2-3 1-42-1-12-1-3-2 2-4-11-1v-1h18l5 2 5-1z" fill="#79A0FC"/>
<path transform="translate(187,420)" d="m0 0 5 5 2 4 5 5 4 5 2 1v2l4 2-1 5-5 4-4 1-5-6v-2h-2l-4-7-4-3-2-4v-5l3-4z" fill="#AE9291"/>
<path transform="translate(344,168)" d="m0 0h10l27 6 17 4h6l6-5-2 5-7 7-6-1-5-3-5 1-9-4-12-3-6 3-14-4-6 1-3-1-5 1v-2l10-4z" fill="#6892FC"/>
<path transform="translate(663,669)" d="m0 0 5 1 1 5-3 5-4 4-4 12-1 12-6 1-3-4-1-12 2-5 3-6 4-5 5-7z" fill="#74757B"/>
<path transform="translate(583,1150)" d="m0 0h6l4 4 4 8-2 5-8 16-4-1-3-4 1-13-2-8z" fill="#4D6CCB"/>
<path transform="translate(225,395)" d="m0 0 6 1 10 9 1 5-1 3h-2l-1 4h-11l-9-6-1-5 6-10z" fill="#2F2F32"/>
<path transform="translate(556,1302)" d="m0 0 3 3 3 9 12 12 5 6 11 8 8 3 10 2 15 1h14v2l-9 3-25 1-12-6-14-11-14-15-6-9z" fill="#171827"/>
<path transform="translate(817,791)" d="m0 0 4 2 4 3-2 5-6 4h-2l1-5 3-4-5 2-8 2v2l-10 5-11 2-3-2-3-5h-6l-2 2-3-2h-6v3l9 6 9-1 1 2-2 7-13 4-5 1-1-5 2 2 4-1 4-2h6v-3l-9-3-8-6-1-3 4-4 17-1 7 6h7l7-3 8-6 8-3z" fill="#575656"/>
<path transform="translate(464,1257)" d="m0 0 4 1-1 7-1 37-8-1-2-8v-14l4-16 3-5z" fill="#7AA1FD"/>
<path transform="translate(1030,1481)" d="m0 0h2l7 11 1 4-2 1v3l-16-1-16-2-17-5h-7l1-2 12-2h11l7 3h11l5 1 3-1-1-5z" fill="#5B5C63"/>
<path transform="translate(1298,930)" d="m0 0 3 4 6 15 2 10v11l-4 8-6 5-5 1h-13l-9-2 4-1 20 1v-2l-4-1h2v-2l-7 1 3-2 5-2 3-4 1-10-2-14 3 4 3 9v-6l1-4-5-14z" fill="#59585A"/>
<path transform="translate(889,621)" d="m0 0 5 3v2l3-1 6 3 2 5 4 3-1 7-2 3-4-1-10-5-10-10-7-1-5-3 2-2h6l3 3 5 2 3-3z" fill="#E09EA1"/>
<path transform="translate(762,801)" d="m0 0h6l3 2 2-2h6l3 3 1 3 4 1 12-3 2 1-10 5h-2v2l-5 2-3 6-8 6-1 1-9-1-4-2 1-4 1 2 5-1 13-4 1-7-9 1-6-4-4-3z" fill="#797A7D"/>
<path transform="translate(806,1406)" d="m0 0 2 3 3 6v3l15 3 17 1h55l3 1 1 3-5 2-28-1-13-1h-16l-27-3-5-4-2-7z" fill="#585859"/>
<path transform="translate(830,653)" d="m0 0h2v5l7 8 3 6 4 1 2 4v12l-3 15v10l4 12 2 13-5 18-3 2 3-12 1-3v-13l-2-7-2-3-2-9 1-10 3-14-1-5-6-3-3-8-2-7-5-5 1-5z" fill="#4A4948"/>
<path transform="translate(1034,672)" d="m0 0 8 6 12 12 3 6 9 10 9 7-2 1-1 2-18-13-16-9 3-3-3-9v-5l-3-1z" fill="#6B6A6B"/>
<path transform="translate(1124,751)" d="m0 0 4 2 10 8 13 11 11 9 1 5 4 2 14 14-2 2-11-9-10-9-11-9-13-11-8-7 3-1 6 5-5-5z" fill="#3D3D3F"/>
<path transform="translate(990,1495)" d="m0 0 5 1v2l11 2 22 3 45 3v1l-52 1-4 5-2 2-8-4-11-11-6-4z" fill="#80A5FB"/>
<path transform="translate(844,641)" d="m0 0 5 2 8 7 13 8 11 10 8 7 11 10 9 7-1 3-12-2-1 4 7 11 7 6h-3l-3-2v-2l-4-2-7-10-1-2v-15l-5-6-3-2v-2l-4-2-12-9-13-9-6-5-5-1-4 2 3-5z" fill="#4A4948"/>
<path transform="translate(207,415)" d="m0 0h3l4 6 6 4-4 1-2-1v4h-4v4l2-3 6 2 2 3-1 4-3 2-5-1-7-2-4-5-1-8 1-5 5-3h2zm0 2m1 1v2l2-1z" fill="#FCFCFC"/>
<path transform="translate(675,697)" d="m0 0 5 2 2 8v7l-1 6v16l-2 4-3-1-1-9-3-8-1-19 2-4h2z" fill="#74757B"/>
<path transform="translate(1058,1187)" d="m0 0 2 1-1 1v12l3 6 7 8 3 13-3 6-9 2 3 4h-4l-1-7 1-7-2-17v-21z" fill="#666568"/>
<path transform="translate(925,707)" d="m0 0h2v2l5 2 10 6 7 2v-2l-4-2v-2l7 2 8 4 9 1-3 4-1 5-1 1h-6l-14-5-7 2-9-1-8-5 1-2 7 4 9 1 3-2-1-4-13-8z" fill="#3F3F45"/>
<path transform="translate(355,230)" d="m0 0h2l1 2 7 4 5 3 6 2 3 3 3 11 4 8v2h2l6 10 3 7 2 2-1 5-3 4v-8l-4-7-7-13-6-10-4-5-9-7-10-8-11-2v-1z" fill="#455897"/>
<path transform="translate(546,1464)" d="m0 0h2l2 6-2 29-3 1-1-1-5 14-1 3-1 6-4-4v-13l7-16 6-9 1-9z" fill="#425DB3"/>
<path transform="translate(222,365)" d="m0 0h4l5 10h2l5 5 12 14 3 3h5l3-1-2 5-6 4-8-10-16-15-5-4h-4l-2 3-2-5z" fill="#AE9291"/>
<path transform="translate(311,192)" d="m0 0h1l1 13 11 2 5 1 6 3 3 4v3l-7 1-25-7-1 3-1-2 4-9z" fill="#779EFC"/>
<path transform="translate(762,655)" d="m0 0 10 1 1 5-6 5-8 5-7 14-5 3-1-1v-7l6-8h2v-9l5-6z" fill="#171827"/>
<path transform="translate(1180,933)" d="m0 0h7l7 2-3 1h-7l-6 3-7 8-5 11-6 25-4 33-1 15h-1v-22l3-32 3-16 5-12 6-8z" fill="#FBFBFB"/>
<path transform="translate(1129,1191)" d="m0 0 2 1 5 11 1 3 8 6 5-1 2-2v18l-1 2-3-1-2-4-2-8-3-4-7 2-2 2-2 17h-1l-1-28v-13z" fill="#A39C98"/>
<path transform="translate(950,1695)" d="m0 0h29l2 1v2l-10 2-39 3v-1l5-1-1-2h-42v-1l14-1h17z" fill="#597DEB"/>
<path transform="translate(599,1177)" d="m0 0 10 2 7 5 5 3-1 4h-16l-10-2-1-1v-6l3-4z" fill="#7AA1FD"/>
<path transform="translate(820,1454)" d="m0 0 5 2h9l8-1v2l7 1v1l-6 1-22 1-8 2-3 1-2 5-4 4-2 13h-1v-16l-7 2-1-4 1-3 5-2v2l5-2 12-7z" fill="#455898"/>
<path transform="translate(555,1295)" d="m0 0h1l2 16 4 6 9 10 7 8 13 10 12 6 25-1 7-1 2 2-13 3h-23l-13-7-10-8-7-6-9-11-8-11v-12z" fill="#0E2866"/>
<path transform="translate(894,644)" d="m0 0 6 2 13 9 17 10 12 8 23 16 14 9 8 7-2 4-4-5-10-7-15-10-18-13-18-11-14-9-9-7z" fill="#707175"/>
<path transform="translate(999,1572)" d="m0 0h42l4 9v3l-7-5v-2h-12v3l-6 1-19-3v-4h-2z" fill="#4D6CCB"/>
<path transform="translate(923,1567)" d="m0 0h13l7 2-1 2h-6l-6 2v2l-4 1v2l-5 1h-13l-4-2-1-3 5-3 9-3z" fill="#79A0FC"/>
<path transform="translate(1193,814)" d="m0 0 4 2 15 15 5 1 13 13 7 8 16 16 6 8-4-2-22-22-2 2-19-19-7-8-9-10z" fill="#33343B"/>
<path transform="translate(1149,976)" d="m0 0h1v9l-1 10-3 77-5 4 1-11v-13l4-49z" fill="#9D9B9B"/>
<path transform="translate(778,630)" d="m0 0 5 1 4 6 11 3 1 2 4 1 1 2h2v3l-14 1-4-2-1 1-10 1 3-5 1-1-3-8z" fill="#171827"/>
<path transform="translate(1134,1186)" d="m0 0h17l4 3-3 4h-2l-2 6-4 4h-5l-6-10v-6z" fill="#565555"/>
<path transform="translate(817,795)" d="m0 0 3 1-4 5-1 4 5-3 2 1-11 14-12 13-11 10-5 2 2-4 14-14 9-11 4-6 1-6-5 1-3 3-4-1 5-2v-2l9-4z" fill="#7C7C7F"/>
<path transform="translate(767,393)" d="m0 0h8l8 4v2h-13l-5 2-2 4-5 3-2 6-6 5-3 6h-2l-2-5-7 2 1-4 11-1 1-2-5 1 5-4 5-6 4-5 7-7z" fill="#44599E"/>
<path transform="translate(1071,1382)" d="m0 0h3l3 9 2 8 4 5v2l4 1 4 4-1 4-1 1h-5l-7-6-5-10-1-3z" fill="#5E5E62"/>
<path transform="translate(885,543)" d="m0 0v3l-5 10-8 20-8 24-4 14v8l-3-2v-2l-2-1 7-22 3-12 10-26 3-7 5-5z" fill="#646467"/>
<path transform="translate(708,853)" d="m0 0 39 1 1 4-16 4h-8l-14-5z" fill="#414147"/>
<path transform="translate(568,1217)" d="m0 0h19l58 1 3 2 6 1-2-4 3 1 3 3 3 2-13 1h-21l-4-2 6-1-52-2-9-1z" fill="#707076"/>
<path transform="translate(234,356)" d="m0 0h1v6l-1 2v7l4 4 3 5 9 11 4 4 8-1-1 3-8 1-8-8-7-9-5-4v-2h-2l-4-5-1-5h-3l2-5 4-3z" fill="#A29A96"/>
<path transform="translate(884,1411)" d="m0 0 4 1 1 6-1 2-19 1h-31l-17-1-10-2 1-2 53 2 18 1-1-5z" fill="#92908D"/>
<path transform="translate(327,250)" d="m0 0h1l1 8 6 2 5 4 2 10-1 4h-2v2l-9 3-12 1h-2l2 6 8 7 2 9 6 8-1 4-7-11-4-9-8-8-1-6 3-2 15-2 4-2h3v-7l-2-5-5-4-2-1v-2h-2l-2-6z" fill="#4A4948"/>
<path transform="translate(828,786)" d="m0 0h9l-3 3-4-1-4 8-5-2-4-2-5 3-5 2-10 7-9 1-1-2 9-2 2-4 1-5 7-2 12-1 3 1 1-3z" fill="#3F3F45"/>
<path transform="translate(596,902)" d="m0 0h8v7l-3 5-4 2h-8l-3-2-1-8 7-3z" fill="#FEFEFE"/>
<path transform="translate(538,1138)" d="m0 0 4 1 2 2 1 10-5 6h-2v2h-5l-3-4 1-6 6-10z" fill="#FEFEFE"/>
<path transform="translate(1054,691)" d="m0 0 5 3 11 10 17 13 15 13 1 2-4-2-7-5v-2l-5-2v-2l-6-1-3 3-5-4-1-5-12-11-6-8z" fill="#A7A5A8"/>
<path transform="translate(729,656)" d="m0 0 3 3 1 2v6l-7 12-4 5-5 4h-2v2h-2l-2 4-8 6 2-4 8-11 5-5 6-9z" fill="#1C367D"/>
<path transform="translate(864,1700)" d="m0 0 13 1 3 2-3 1-11 1-24 1-14 2h-8v-2l5-2 20-3z" fill="#658FFC"/>
<path transform="translate(904,1523)" d="m0 0 4 2 5 11 3 5 6 4 5 1-3 2-7 1-7-7-2-1v-2l-5-1v2h-2l1-13z" fill="#4B4A49"/>
<path transform="translate(1185,801)" d="m0 0 4 2 11 11 8 7 7 7 8 7 19 19 7 8 12 14v3l-8-8-7-8-16-16-7-8-22-22-8-7-8-8z" fill="#EFEEED"/>
<path transform="translate(778,597)" d="m0 0 5 4 5 7 1 14h-4l-4-3h-3v7l-2 1-3-12 5-2 2-6-3-9z" fill="#1C367D"/>
<path transform="translate(553,1226)" d="m0 0h2l-2 7-11 11h-2l-2 5-3 6-2-3 1-4-3 1-2-1 2-5 9-8 9-5z" fill="#2C52C1"/>
<path transform="translate(394,289)" d="m0 0h1v6l-9 10-5 1-2 6-3 3-5 2-3 3-4 1 2-5 2-3h2l2-5 5-5 7-4h2v-2l7-6z" fill="#676668"/>
<path transform="translate(690,752)" d="m0 0 2 2 1 9-4 26h-3l-3 1v-21l3-5 2-3 1-8z" fill="#3F3F45"/>
<path transform="translate(648,595)" d="m0 0 3 1 7 10 4 16 1 12 3 10-3 9-4 5h-2v-2h2l1-7v-13l-2-14-1-5-4-12z" fill="#1C367D"/>
<path transform="translate(560,1220)" d="m0 0h69l9 1v1h-33l-27 1-12 1-5 6-1-4-5 4-2-1 5-8z" fill="#44589C"/>
<path transform="translate(748,1421)" d="m0 0h8l5 2 5 3h11l6 3 13 3 4 2-13-1-24-4-25-6v-1z" fill="#3F3F45"/>
<path transform="translate(1214,946)" d="m0 0 5 2h3l9 6 7 4 10 7 11 7v4l-6-2-17-11-18-13z" fill="#68686E"/>
<path transform="translate(766,594)" d="m0 0 4 1 5 6v8l-2 2-5 1-6-4-1-2v-8z" fill="#526DC0"/>
<path transform="translate(1051,1562)" d="m0 0 5 1 1 1v8h-3v3h-3l-6-1 2 6 3 4h-4l-4-6-1-6-2-1 4-1-2-5z" fill="#757780"/>
<path transform="translate(1158,1171)" d="m0 0h3v11h12l8 3-1 4h-8v-1l-14-3-5-4-3-2v-2l3-1 3-3h2z" fill="#B1ABA7"/>
<path transform="translate(672,697)" d="m0 0h3v2h-2l-1 9 1 14 3 10 1 7 2 1 1-4v-19l2 1 1 5v21l-5 1-4-5-3-13-2-17v-8l1-4z" fill="#676668"/>
<path transform="translate(373,185)" d="m0 0 6 2 5 3 1 3-1 3h-2v7l-9-3-5-2 1-4 3-8z" fill="#2B52C4"/>
<path transform="translate(862,592)" d="m0 0 1 3-7 22 3 4 9 5 13 8 13 9 4 4 8 6 1 2-5-1-3-3v-2l-5-2-7-4-3-3-3-1v-2h-3l-4-4-11-7-3-1v-2l-4-2-2-2v-7l5-11z" fill="#646367"/>
<path transform="translate(741,345)" d="m0 0 4 1v8l-3 5-2 7-5 4-1 2h-2l-1-2 1-10 4-7z" fill="#597DEB"/>
<path transform="translate(676,644)" d="m0 0 3 1 3 8 1 6v8l-2 3h-2l-1 2-4-1-1-5z" fill="#3E59B0"/>
<path transform="translate(1068,1594)" d="m0 0h1l-1 9-2 2-10 2v13l-3 22h-1v-23l2-17 5-6 9 1z" fill="#ABA5A3"/>
<path transform="translate(730,1244)" d="m0 0 6 1 5 3 1 1v15l2 12 9 8v2l-5-2-6-4-3-8-1-12-4-9z" fill="#5F5F62"/>
<path transform="translate(915,656)" d="m0 0 6 2 14 8 10 7 15 10 21 13 6 4v2l2 1-1 2-4-2-11-8-18-12-16-11-14-9-10-6z" fill="#B39191"/>
<path transform="translate(740,1387)" d="m0 0 14 2 4-2 4 1 7 11 9 11h-3l-7-7v-2l-4-2-5-3-13-3-6-4z" fill="#5A5959"/>
<path transform="translate(1137,1129)" d="m0 0h1l1 31 2 9 1 4 7-2 5-10 2-1-2 13-7 3-4 1-7-3v-34z" fill="#6D6D71"/>
<path transform="translate(773,798)" d="m0 0h6l3 2-1 4-2-2h-6l-2 2-3-2h-6v3l9 6 9-1 1 2-2 7-13 4-5 1-1-5 2 2 4-1 4-2h6v-3l-9-3-8-6-1-3 4-4z" fill="#5F5E60"/>
<path transform="translate(700,399)" d="m0 0 3 1 5 6 8 4h12l2 1v2l4 2 4 3-2 4-3 1-8-4v-2l-9-3-9-5-5-5v-3h-2z" fill="#2B53C4"/>
<path transform="translate(299,310)" d="m0 0h10l2 3h-8l-7 4-12 4-6 1-6 3-3 1v2l-10 6-5 6v10l-2-3v-8l7-9 10-6 5-4 12-4z" fill="#77777C"/>
<path transform="translate(1154,957)" d="m0 0 1 4-1 4h2l1-6 2 4 1 3-3 19-1 10h-1l-1-6-2-1-1-8h-1v-9z" fill="#3F3F42"/>
<path transform="translate(836,763)" d="m0 0h1l2 7 5 2 4 5-4 10-5 1-2-2-3-15v-6z" fill="#414147"/>
<path transform="translate(808,1450)" d="m0 0 9 1 1 5-14 8-5 1-1-3 2-7 5-4z" fill="#4E6DCD"/>
<path transform="translate(739,391)" d="m0 0 9 3 4 3-1 5-2 4-6 1-5-3-1-2v-9z" fill="#FEFEFE"/>
<path transform="translate(1134,1182)" d="m0 0 15 1 6 2v2h2l-1 5-4 3-4 8-4 4-5-1-3-5-4-7-1-9zm0 4-1 1v6l4 6 2 4h5l5-5 1-5 3-1 2-4-4-2z" fill="#67676B"/>
<path transform="translate(1265,973)" d="m0 0 18 4h11v2l2 1v2h-20l-10-2-7-3 1-3z" fill="#5B595C"/>
<path transform="translate(755,818)" d="m0 0h1l-1 11-3 12-4 5h-6l3-9 2-9z" fill="#FEFEFE"/>
<path transform="translate(902,1556)" d="m0 0 9 1 12 3v2l-9 2-5 2h-10l-4-1 1-5z" fill="#799FFC"/>
<path transform="translate(756,830)" d="m0 0 4 5 4 4-2 4-5 5v3l2 1-1 3-4 1-3-3v-2h-2l-1-4 3-1 2-5 2-10z" fill="#888785"/>
<path transform="translate(935,1330)" d="m0 0 2 1-5 23v11l2-1-1 6v12l1 16 1 5v11h-1l-2-13-3-19v-24l4-20z" fill="#C7C8CF"/>
<path transform="translate(1080,717)" d="m0 0 5 1 2 1v2l5 2v2l4 2 5 4 5 2 8 7-4 3-13-10-11-8-4-1-3-4z" fill="#5B5A5B"/>
<path transform="translate(1153,1036)" d="m0 0h1v37l1 3h-5v2l-7 1-1 1-1 9h-1v-11l5-6 1-7h6v-21z" fill="#818183"/>
<path transform="translate(1150,1076)" d="m0 0h5l1 1v63l1 15-1 5-2-2-1-39 1-12-1-10v-17z" fill="#5E5E62"/>
<path transform="translate(1040,1580)" d="m0 0 3 2v67l-1 6h-1l-1-51z" fill="#3E59B0"/>
<path transform="translate(966,1349)" d="m0 0h5l2 4-2 1 1 3-7-1-8 1-4-1h-7l-5 2-2 2 1-6 10-4 11 1z" fill="#494847"/>
<path transform="translate(664,673)" d="m0 0 2 1-1 6-4 6-3 10-1 7-2 1-2-1-1-12 3-7 7-10z" fill="#7BA0F7"/>
<path transform="translate(1232,852)" d="m0 0 7 6 19 19 2 6 1 5-5-5-13-14-7-8-4-5z" fill="#4A4A4E"/>
<path transform="translate(865,447)" d="m0 0 5 1 9 4 1 3v8l-1 5-2-1-1-3v-9l-5 1-1 5-2 5-2-1z" fill="#455898"/>
<path transform="translate(1045,682)" d="m0 0 7 6 3 5 7 9 11 10 2 2h-2l-1 2-18-13-3-3h3v-3l-1-2-4-2-4-9z" fill="#7D7D7F"/>
<path transform="translate(806,1406)" d="m0 0 2 3 3 6v3l15 3 17 1h55l-3 2h-56l-26-1-5-4-2-7z" fill="#636365"/>
<path transform="translate(363,202)" d="m0 0 8 2 1 3 9 1 3 3v4l-11-1-9-4-3-3v-4z" fill="#658FFC"/>
<path transform="translate(585,931)" d="m0 0h16l-1 7-3-1h-26l1-4z" fill="#616163"/>
<path transform="translate(220,375)" d="m0 0 5 1 8 7 16 15 4 5-1 4-4-5-4-6-11-9-3-4-10 1-7 8-2-1 5-7 1-5h2z" fill="#74757B"/>
<path transform="translate(1045,1613)" d="m0 0h1v65l-4 4h-1v-17h1l2-49z" fill="#465CA4"/>
<path transform="translate(1064,1641)" d="m0 0 6 1v13l-3 11-2-2 2-8-2-7-5 2h-7v-9h3l-1 4 4-1 4-2z" fill="#B0A9A6"/>
<path transform="translate(1298,930)" d="m0 0 3 4 6 15 2 10v11l-4 8-6 5-5 1h-13l-9-2 4-1h20l5-3 4-6 1-3v-12l-5-17-3-6z" fill="#F2F1F1"/>
<path transform="translate(322,316)" d="m0 0 5 1 2 3-1 7-4 7-5-1-2-7 2-7z" fill="#9395A0"/>
<path transform="translate(799,805)" d="m0 0 2 1-10 5h-2v2l-5 2-3 6-8 6-1 1-9-1-4-2 1-4 1 2 5-1 13-4 5-8 4-1z" fill="#8B8A86"/>
<path transform="translate(812,1436)" d="m0 0h18l6 3v4l-12 3-1 6 1 2-6 2-1-4-3-3-1-4 15-3 2-2-1-2-17-1z" fill="#3E58AE"/>
<path transform="translate(879,520)" d="m0 0 5 1 3 7v3l3 1v7l-2 1-1 3-5 5-5 3 2-7 5-3 3-5-5-2-2-8-2-1z" fill="#3E59B0"/>
<path transform="translate(1058,1201)" d="m0 0 2 3 8 10 3 9 1 5-3 6h-7l3-4v-8l-2-6-5-10z" fill="#5E5E62"/>
<path transform="translate(449,1293)" d="m0 0h1v5l5-1 3 7 5 2h4l3-4-1 7-4 4-5-2-1-3-6 1-2 3-2-7z" fill="#475A9C"/>
<path transform="translate(1069,1186)" d="m0 0h18l-2 4-9 4-4 2-5-3-3-3 1-3z" fill="#4E4D4C"/>
<path transform="translate(1292,930)" d="m0 0 3 3 3 5-1-6 4 5 4 12v5l-1 3-1 4-3-7-2-8h-2l-4-11z" fill="#5E5E62"/>
<path transform="translate(930,1421)" d="m0 0h2l-1 6-4 5-3 3-5 3-8 6-3 1v-3l5-4h2v-2h2v-5l3-1 2-4 6-3h2z" fill="#3E3E44"/>
<path transform="translate(1148,1037)" d="m0 0h2l2 11v17h-6v-13l1-14z" fill="#565555"/>
<path transform="translate(672,742)" d="m0 0h2l4 10 1 11-1 17-2-3-2-5-1-17-2-11z" fill="#3F3F45"/>
<path transform="translate(664,685)" d="m0 0 5 1-3 11-2 11-2 3h-2l-1-2v-8l2-11z" fill="#0F2967"/>
<path transform="translate(590,878)" d="m0 0 1 3-1 5 5 8 3 3 8 2-1 2-10-1h-7l-3-2v-7l4-12z" fill="#747884"/>
<path transform="translate(1215,941)" d="m0 0 6 2 22 16 14 9 8 5v1h-5l-1 2-1-4-16-10-8-6-6-3-5-5-8-6z" fill="#272833"/>
<path transform="translate(271,321)" d="m0 0 2 1-10 7-6 4-4 6v8l5 10 13 16 4 5-4-2-9-10-10-13-2-6v-7l2-5 8-8z" fill="#908F89"/>
<path transform="translate(905,655)" d="m0 0 5 2 17 11 18 12 18 13 12 8-2 1-13-8-16-12-28-18-11-8z" fill="#414145"/>
<path transform="translate(892,1558)" d="m0 0h2l-1 3h-10l-26 4-15 4h-5l1-4 15-3z" fill="#445899"/>
<path transform="translate(222,370)" d="m0 0h3l4 6 19 19 5 4h5l2-1-2 4-5 3-8-10-16-15-5-4h-4l-2 3 1-6z" fill="#908F89"/>
<path transform="translate(1016,1455)" d="m0 0 4 5 9 14 16 22 4 5h-10l-2-4 2-2-5-10-8-11-10-16z" fill="#656569"/>
<path transform="translate(759,808)" d="m0 0 7 2 10 5v3l-7 2-4 2-4-1-1-2z" fill="#2B2B31"/>
<path transform="translate(941,1312)" d="m0 0 2 1-2 9-7 34-1 9-2 1v-12l5-24 1-7z" fill="#969BB1"/>
<path transform="translate(693,770)" d="m0 0 4 2 3 7v7l-4 2-6-4v-7h2v-6z" fill="#0E2867"/>
<path transform="translate(902,1686)" d="m0 0 7 1 6 5 1 3h-17l-3 1h-7l9-6 3-1z" fill="#2861E4"/>
<path transform="translate(760,374)" d="m0 0h6l8 4 1 3-1 2h-6l-3-2h-9v-2l-4-2 1-2z" fill="#597EEB"/>
<path transform="translate(581,923)" d="m0 0h5l-1 3 5 2h9l-2 3-22 2-4 1 2-6 8-4z" fill="#D59A9D"/>
<path transform="translate(1e3 1432)" d="m0 0 2 1 6 16v2l3 1 2 7 9 15 4 5-1 3-4-4-12-20-5-10-4-13z" fill="#5A5A5C"/>
<path transform="translate(924,702)" d="m0 0 5 1 6 4v2l4 2 10 6 1 3-5-1-12-6-6-4v-2h-2z" fill="#4A4948"/>
<path transform="translate(1124,751)" d="m0 0 4 2 10 8 7 6-2 2-2-1 8 7v2l-5-2-10-9-8-7 3-1 6 5-5-5z" fill="#2C2C36"/>
<path transform="translate(355,285)" d="m0 0 5 1 1 7-2 4-6 1-3-1-2-5 5-6z" fill="#565555"/>
<path transform="translate(250,337)" d="m0 0 1 3v7l4 9 10 12 3 6 3 4-4-2-11-13-7-10-2-5v-7z" fill="#AC9492"/>
<path transform="translate(754,1285)" d="m0 0 5 1 2 2v5h2v-5l2-1 3 10h3v11l-8-8-2-1-4-10zm9 8 1 2z" fill="#9C9692"/>
<path transform="translate(945,1572)" d="m0 0h40l6 2-1 2-17-2h-21l-12 2-9 2-2-1 4-3z" fill="#3E59B0"/>
<path transform="translate(825,1712)" d="m0 0h2v2h9l-3 5-5 2-6 1h-11l4-2h6v-4l-7-1v-1z" fill="#2E66E6"/>
<path transform="translate(1146 1e3)" d="m0 0h1v16l-2 41-2 5h-1v-13z" fill="#FEFEFE"/>
<path transform="translate(767,393)" d="m0 0h8l8 4v2h-13l-5 2-2 4-7 2 2-4 4-4 1-4z" fill="#4D67B8"/>
<path transform="translate(813,1434)" d="m0 0h18l8 1v1l5 1 1 4-6 1-6-4-3-1-18-1v2l-15-1v-1z" fill="#41569C"/>
<path transform="translate(719,872)" d="m0 0h2l-2 11-10 35-2-3 3-15 2-9 2-2 4-16z" fill="#5171D0"/>
<path transform="translate(1074,1235)" d="m0 0 11 1 6 2-1 2h-27l-2-1v-3z" fill="#424246"/>
<path transform="translate(922,723)" d="m0 0 10 3 8-1 4-1 14 5h6l1-5 4 3-2 6h-8l-7-3-6-3-14 2-10-5z" fill="#4F4E4D"/>
<path transform="translate(1e3 676)" d="m0 0 2 2-6 12-6 9-3-4-1-2v-6l4 1 1-2h3l1-4 4-4z" fill="#DDA1A3"/>
<path transform="translate(1123,1184)" d="m0 0h9l1 10 6 11v2l-3-1-4-9-2-5h-1l-1 12h-1v-18h-34v-1z" fill="#717174"/>
<path transform="translate(1134,1186)" d="m0 0 14 1-1 6-4 1-1 2-5-1-4-5z" fill="#3F3F45"/>
<path transform="translate(669,1222)" d="m0 0 33 2h13l6-1 5 2-1 2-52-1-4-1z" fill="#68696F"/>
<path transform="translate(796,810)" d="m0 0 2 1-7 10-7 11-3 7-4-1 2-6 5-5 1-9 6-3z" fill="#FEFEFE"/>
<path transform="translate(783,397)" d="m0 0 8 3 10 8 10 3 6 5 5 8 5 6-4-2-9-10-4-4-15-6-8-7-4-2z" fill="#7B7C81"/>
<path transform="translate(417,271)" d="m0 0 1 3-1 9-1 4-4 4-6-1 1-7 6-4z" fill="#3F58AB"/>
<path transform="translate(560,1543)" d="m0 0 4 2 4 3v9l-6-1-4-3v-7z" fill="#5264A4"/>
<path transform="translate(285,318)" d="m0 0m-1 1m-3 1 4 1-3 2-12 6-10 7-3 5-1 6-3-1v-6l7-8 7-4h2v-2l7-4z" fill="#656567"/>
<path transform="translate(183,428)" d="m0 0 1 4h6l4 8 6 11 2 2-3 1-5-6v-2h-2l-4-7-4-3-2-4z" fill="#B29292"/>
<path transform="translate(323,248)" d="m0 0v3 20l-7 8-6 2-2 2v-4l7-2 1-8 3-4 1-13z" fill="#5E5E62"/>
<path transform="translate(1124,749)" d="m0 0 4 2 13 10 15 13 10 9 8 7h-3l-11-10-11-9-13-11-11-9z" fill="#EDECEB"/>
<path transform="translate(868,582)" d="m0 0 1 2-8 27-1 4v7l-3-2v-2l-2-1 11-33z" fill="#717277"/>
<path transform="translate(468,1258)" d="m0 0h1l-1 42-2 4h-6l-2-3 3-1 5 2v-37z" fill="#74757B"/>
<path transform="translate(917,1568)" d="m0 0 4 1-10 4-1 1 2 1h10l8-1-4 2v2l-5 1h-13l-4-2-1-3 5-3z" fill="#628BF8"/>
<path transform="translate(803,819)" d="m0 0 2 2 2 1-14 14-8 6h-2l2-4 14-14z" fill="#999694"/>
<path transform="translate(790,1332)" d="m0 0 2 3 6 32-1 4-5-15-2-7z" fill="#555457"/>
<path transform="translate(1151,979)" d="m0 0h1v13l-1 17-2 13h-1v-27l2-15z" fill="#2F2F32"/>
<path transform="translate(1074,710)" d="m0 0 6 2 9 7 13 11 1 2-4-2-7-5v-2l-5-2v-2l-6-1-3 3-5-4v-3h3z" fill="#6F6F70"/>
<path transform="translate(832,1429)" d="m0 0h20v4l-2 1h-16l-3-3z" fill="#2F2F32"/>
<path transform="translate(541,1496)" d="m0 0 2 3-1 6-4 10-1 7-3-3v-9l2-3 2-7 1-2h2z" fill="#45599B"/>
<path transform="translate(1074,1394)" d="m0 0h3l6 12h2l3 5-1 2-5-1-6-8-3-6z" fill="#565555"/>
<path transform="translate(933,1366)" d="m0 0h1l1 24 2 13v12l-3 6-2-1 2-6v-11l-1-5-1-16v-12z" fill="#75757B"/>
<path transform="translate(1151,1209)" d="m0 0 1 4v14l-1 2-3-1-2-4-2-8-2-5 5 1 3-1z" fill="#94918C"/>
<path transform="translate(353,283)" d="m0 0h5l5 4 1 5-6 8h-7l-5-3v-6zm2 2-5 4-2 5 2 3 6 1 4-2 1-8-1-2z" fill="#4A4948"/>
<path transform="translate(691,864)" d="m0 0 5 1 4 3 1 3h2l-1 3-3-3-3 1-2 4-5-1v-10z" fill="#2744A7"/>
<path transform="translate(817,791)" d="m0 0 4 2 4 3-2 5-6 4h-2l1-5 3-4-13 2 2-3 8-3z" fill="#656566"/>
<path transform="translate(1164,948)" d="m0 0 1 3-5 13-3-2-1 3-3 1 3-14 3-3 2 2z" fill="#38373A"/>
<path transform="translate(1129,1191)" d="m0 0 2 1 5 11 1 3 4 4-5-1-5-10-1 2v32h-1l-1-28v-13z" fill="#908F89"/>
<path transform="translate(394,289)" d="m0 0h1v6h-2l-2 3h-2v2l-7 4-5 3-1 3-6 5h-2v-2h2l2-5 5-5 7-4h2v-2l7-6z" fill="#595859"/>
<path transform="translate(535,233)" d="m0 0h5l8 7-1 5-5-1-7-5-1-5z" fill="#7AA1FD"/>
<path transform="translate(1046,1644)" d="m0 0 2 4 2 6v7l-4 14h-1v-22z" fill="#636365"/>
<path transform="translate(938,639)" d="m0 0 4 1-1 7-2 5h-6l-1-6 4-6z" fill="#74757B"/>
<path transform="translate(393,247)" d="m0 0 5 5 4 6 14 7 1 5-5-4-7-1v-2l-5-2-6-8-2-5z" fill="#3D58B1"/>
<path transform="translate(738,843)" d="m0 0h1l2 6 8-1v3h2l1 4 2 1-6 2-1-3-9-1v-3l-2-3 1-4z" fill="#6F7074"/>
<path transform="translate(799,774)" d="m0 0h5l1 1v8l-2 2h-5l-3-4 1-5z" fill="#656568"/>
<path transform="translate(1034,672)" d="m0 0 7 6 2 6v4h2l1 4h2l-1 3-6 1-3-3 3-2-3-9v-5l-3-1z" fill="#636266"/>
<path transform="translate(559,1537)" d="m0 0h3v2l9 2 15 4 10 2v1l-11-1-6-1-5 1-12-5z" fill="#5974C4"/>
<path transform="translate(1272,893)" d="m0 0 5 5 6 8v2h2l2 6h2l6 11-1 4-11-18-8-11-3-4z" fill="#2C2C35"/>
<path transform="translate(740,1387)" d="m0 0 14 2 4-2 4 1 6 10-5-2-6-3-17-4z" fill="#69686A"/>
<path transform="translate(863,1423)" d="m0 0h38l1 3-5 2-14-2-22-1z" fill="#5D5D61"/>
<path transform="translate(299,310)" d="m0 0h10l2 3h-8l-7 4-12 4 2-5z" fill="#757374"/>
<path transform="translate(194,432)" d="m0 0 5 5 3 5 1 8-4-2-4-5-2-5v-5z" fill="#908F89"/>
<path transform="translate(894,1557)" d="m0 0h6l-2 3h-2l-1 5 4 1-11 1-4-3v-4h9z" fill="#4D6CCC"/>
<path transform="translate(828,474)" d="m0 0 5 1 11 6 8 1v-2l2 1-1 5h-8l-8-4-9-7z" fill="#494847"/>
<path transform="translate(325,355)" d="m0 0h5l-6 8-11 11-3 1 2-4 11-15z" fill="#565553"/>
<path transform="translate(518,1694)" d="m0 0h13l6 2 2 2-5 1h-9v-2l-6 2-4-2z" fill="#2C52C2"/>
<path transform="translate(1043,1679)" d="m0 0 1 3-1 5 1 4-2 5-13 2 1-2 5-1 2-5z" fill="#5575D4"/>
<path transform="translate(567,945)" d="m0 0h1v8l-3 16-4 4-1 7h-2l1-10 7-19z" fill="#FEFEFE"/>
<path transform="translate(800,772)" d="m0 0h7v11l-2 3h-10l-4-4 2-5 3-1v5l2 3h5l1-1v-8l-5-1z" fill="#4A4A4C"/>
<path transform="translate(666,712)" d="m0 0h1l2 16 4 14-1 3-4-6-3-13v-12z" fill="#455898"/>
<path transform="translate(1e3 1560)" d="m0 0h11l3 3v2l-10 1-8-1z" fill="#3B4D82"/>
<path transform="translate(746,522)" d="m0 0 4 1 2 2-1 7-1 2-4 1-2-4v-8z" fill="#0E2867"/>
<path transform="translate(1055,1565)" d="m0 0 2 1v6h-3v3h-3-2l-4-5 1-3z" fill="#6F6F74"/>
<path transform="translate(775,1432)" d="m0 0h12l20 3v1h-19l-16-2z" fill="#344EA3"/>
<path transform="translate(1e3 1409)" d="m0 0h1l5 20 6 17 1 5-3-4-5-14-2-1-3-10z" fill="#626163"/>
<path transform="translate(468,1289)" d="m0 0h2v13l-3 5-7-1-4-3-1-5 1-5h1l2 9 3 1h4l1-3z" fill="#506CC4"/>
<path transform="translate(588,425)" d="m0 0h2l3 8v10l-8 19-2 5-2-1 9-24v-12z" fill="#5A77CD"/>
<path transform="translate(310,292)" d="m0 0 7 6 3 5v6l-4 3-5-1 2-5h3l-1-6-5-6z" fill="#606064"/>
<path transform="translate(1054,1606)" d="m0 0h1l1 14-3 22h-1v-23l1-12z" fill="#A9A29E"/>
<path transform="translate(1056,1191)" d="m0 0h1l2 27 1 9-1 6-1 5h-1l-1-23z" fill="#76767C"/>
<path transform="translate(1231,848)" d="m0 0 7 6 15 15 6 8-4-2-23-23z" fill="#20212D"/>
<path transform="translate(828,786)" d="m0 0h9l-3 3-4-1-4 8-5-2-2-4h2l1-3z" fill="#46454A"/>
<path transform="translate(383,190)" d="m0 0 2 3-1 3h-2v7l-9-3-5-2 1-4 1-3h2l2 6 9-2z" fill="#2861E4"/>
<path transform="translate(950,1708)" d="m0 0m-10 1h10l4 2-28 4h-3v-2l12-3z" fill="#5374D5"/>
<path transform="translate(604,1566)" d="m0 0h8l7 1v5l-1 1h-8l-4-4v-2z" fill="#142B68"/>
<path transform="translate(706,1289)" d="m0 0 10 6-1 4h-8l-3-5v-4z" fill="#4A4948"/>
<path transform="translate(1e3 656)" d="m0 0h6l-4 10v10l-3-3-3-8 1-3 2-3-2-2z" fill="#D3929A"/>
<path transform="translate(907,1442)" d="m0 0 1 4-5 4-9 2-5 1 2-1 1-3 10-5z" fill="#0F2866"/>
<path transform="translate(753,1286)" d="m0 0 4 1 4 8v4l-7 1z" fill="#6B6A6D"/>
<path transform="translate(307,288)" d="m0 0h2l3 8 5 6-1 4-5 2-4-17z" fill="#707073"/>
<path transform="translate(1243,963)" d="m0 0 5 2 11 7v4l-6-2-9-6z" fill="#3E3E46"/>
<path transform="translate(807,1461)" d="m0 0 2 1-5 6-6 3-4 1-1-4 1-3 5-2v2l5-2z" fill="#3E59B0"/>
<path transform="translate(1145,1040)" d="m0 0h1v32l-5 4 1-9 2-7z" fill="#9C9691"/>
<path transform="translate(1150,971)" d="m0 0 2 3h2l1-3-1 12h2v-5h1l-1 17h-1l-1-6-2-1-1-8h-1z" fill="#5A5A5B"/>
<path transform="translate(999,1270)" d="m0 0 4 1-3 6-3 8-4 1-1-3 6-12z" fill="#565555"/>
<path transform="translate(1205,938)" d="m0 0 3 3 8-1v2l11 8h-3l-3-2-2 1-12-6-3-3z" fill="#535258"/>
<path transform="translate(875,549)" d="m0 0 3 2-2 6-4 10-1-3 2-9-5-1-1-3 1-1z" fill="#3F3F45"/>
<path transform="translate(225,391)" d="m0 0 7 3 2 4-5-2-6 1-6 12-2-1 2-7 5-8z" fill="#3F3F45"/>
<path transform="translate(221,377)" d="m0 0 6 2 1 3-9 3-6 7-2-1 5-7 1-5z" fill="#6E6C6E"/>
<path transform="translate(811,1475)" d="m0 0 5 1v11h-4l-3-5z" fill="#494847"/>
<path transform="translate(1272,891)" d="m0 0 5 4 11 15 8 14-1 2-3-4-3-6v-2h-2l-2-3v-3h-2l-6-9-5-6z" fill="#EDECEB"/>
<path transform="translate(187,425)" d="m0 0 4 1 2 4 2 2-1 1v7l-2-1-2-6-6-1 1-5z" fill="#9E9793"/>
<path transform="translate(1263,886)" d="m0 0 5 3 4 4-1 2 3 6-4-1-9-11 2-1z" fill="#434348"/>
<path transform="translate(869,581)" d="m0 0 1 4-6 21-2 8v8h-2l-1-7 3-11z" fill="#B39191"/>
<path transform="translate(322,318)" d="m0 0h3l2 7-4 6h-2l-2-4 1-6z" fill="#FEFEFE"/>
<path transform="translate(1013,1523)" d="m0 0 11 1 8 3 3 4-9-1-10-4z" fill="#FEFEFE"/>
<path transform="translate(1154,1190)" d="m0 0 1 3-3 2-4 8-4 4-5-1-2-2v-5l2 3h5l4-4 2-5z" fill="#5E5E62"/>
<path transform="translate(812,807)" d="m0 0 5 1-3 5-7 8-4 1 2-5 6-8z" fill="#808189"/>
<path transform="translate(1096,731)" d="m0 0 5 2h2 3l8 7-4 3-13-10z" fill="#787779"/>
<path transform="translate(1014,656)" d="m0 0 4 1-3 2-3 3-3 7-1 4 5 2v4l-4-1v-2l-3-1 1-9 5-9z" fill="#727176"/>
<path transform="translate(892,455)" d="m0 0h5l4 6-1 7h-2l-5-6z" fill="#FEFEFE"/>
<path transform="translate(775,801)" d="m0 0 5 1 2 4-2 3-6-1-1 3-4-2v-2h5v-5z" fill="#92908A"/>
<path transform="translate(228,382)" d="m0 0 4 2 5 5 10 9 3 5 1 5h-2l-2-5-5-7-6-4-8-9z" fill="#676668"/>
<path transform="translate(1297,946)" d="m0 0 3 4 2 8v11l-6 7-2-1 4-5 1-10z" fill="#F9F9F8"/>
<path transform="translate(742,837)" d="m0 0m11 0 1 4-3 5-5 4h-5l-2-2v-5l2 1v3l8-3zm-12 1h1v5h-2z" fill="#98979F"/>
<path transform="translate(1146,1052)" d="m0 0 2 3 2-2 2 5v7h-6z" fill="#616164"/>
<path transform="translate(898,703)" d="m0 0 4 2 7 7 11 7 2 4-5-2-8-5-5-6-5-5z" fill="#424145"/>
<path transform="translate(884,1411)" d="m0 0 4 1 1 6-1 2h-16v-1h11l-1-5z" fill="#ABAAB2"/>
<path transform="translate(469,1302)" d="m0 0 1 3-2 5-3 3-5-2-4-6 1-2 6 3h4z" fill="#3E59B0"/>
<path transform="translate(1232,852)" d="m0 0 4 4 6 7 6 6 1 5-6-5-7-8-4-5z" fill="#464750"/>
<path transform="translate(840,761)" d="m0 0 5 1 1 1v5l-2 2-5-1-1-1v-5z" fill="#6A6A6D"/>
<path transform="translate(755,835)" d="m0 0h3l4 6-8 5h-3l3-10z" fill="#5D5D61"/>
<path transform="translate(253,357)" d="m0 0 8 6 5 7 3 5 2 3-4-2-11-13-3-4z" fill="#AD9392"/>
<path transform="translate(940,1328)" d="m0 0h1l-1 15-2 12-3 4 1-12z" fill="#6A6A6E"/>
<path transform="translate(950,1262)" d="m0 0 1 2-9 17-8 19-1-3 9-21 7-13z" fill="#FEFEFE"/>
<path transform="translate(1244,961)" d="m0 0 5 2 13 8 3 3h-5l-1 2-1-4-15-9z" fill="#303038"/>
<path transform="translate(1176,932)" d="m0 0 2 1-3 5-6 5-2-1-3 5-1-2 4-6 6-5z" fill="#545354"/>
<path transform="translate(1193,814)" d="m0 0 4 2 17 17 2 4h-3l-9-10-7-8z" fill="#2F2F34"/>
<path transform="translate(234,398)" d="m0 0 11 6 1 5-1 3-6 3v-2h2v-7l-7-6z" fill="#464548"/>
<path transform="translate(741,1264)" d="m0 0h1l2 12 9 8v2l-5-2-6-4-1-3z" fill="#6E6D6F"/>
<path transform="translate(1291,977)" d="m0 0h3v2l2 1v2h-16v-2l3-2z" fill="#605F61"/>
<path transform="translate(1302,959)" d="m0 0h1v13l-2 4-6 4-3-1h2v-2l-7 1 3-2 7-2 4-5z" fill="#9C9290"/>
<path transform="translate(1290,923)" d="m0 0 4 4 3-1 1 6 1 9-3-4-3-6-2 2-1-4 1-2z" fill="#807E7F"/>
<path transform="translate(771,813)" d="m0 0h7v6l-12 4-5 1-1-5 2 2 4-1 4-2h6v-3l-5-1z" fill="#5E5E60"/>
<path transform="translate(664,680)" d="m0 0 2 3-4 7-2 11-3 1v-6l4-12z" fill="#697191"/>
<path transform="translate(1048,1584)" d="m0 0 3 1-1 6v16l-2 3-1-12v-13z" fill="#676668"/>
<path transform="translate(651,333)" d="m0 0 5 1 5 6 11 9 4 8-1 2-8-11-11-10-3-3z" fill="#2C52C2"/>
<path transform="translate(911,1561)" d="m0 0h12v1l-9 2-5 2h-10l-4-2 13-1z" fill="#5F86F3"/>
<path transform="translate(1265,973)" d="m0 0 9 2 1 2-6 1h-2l5 2-3 1-10-4 1-3z" fill="#7B797A"/>
<path transform="translate(595,899)" d="m0 0 10 1 2 1v6l-3 1v-6l-11 1-6-1v-1l7-1z" fill="#9E9391"/>
<path transform="translate(886,640)" d="m0 0 7 2 5 5 8 6 1 2-5-1-3-3v-2l-5-2-7-4z" fill="#515052"/>
<path transform="translate(875,451)" d="m0 0 4 1 1 3v8l-1 5-2-1-1-3z" fill="#3E59B0"/>
<path transform="translate(1020,1565)" d="m0 0 4 2 8 1 5 1h4l1 2-3 1h-10l-1-2-7-2z" fill="#BDCBEF"/>
<path transform="translate(639,286)" d="m0 0 7 1 1 5-1 1-7-1-1-5z" fill="#FEFEFE"/>
<path transform="translate(1051,1562)" d="m0 0 5 1v3l-12 1-1 3-2-5z" fill="#ACA6A2"/>
<path transform="translate(667,690)" d="m0 0h1v10l-1 12-2 2-1-1v-9z" fill="#3F3F45"/>
<path transform="translate(1045,1574)" d="m0 0h6l3 6-6 2-3-3z" fill="#9C9691"/>
<path transform="translate(941,1312)" d="m0 0 2 1-4 18-3-1 1-7z" fill="#AEA9A9"/>
<path transform="translate(767,812)" d="m0 0 9 3v3l-7 2-4 2-4-1 4-2 3-1z" fill="#3F3F45"/>
<path transform="translate(887,536)" d="m0 0h3v3l-2 1-1 3-5 5-5 3 2-7 5-3z" fill="#475A99"/>
<path transform="translate(271,321)" d="m0 0 2 1-10 7-6 4-5 5v-3l8-8z" fill="#96918C"/>
<path transform="translate(1160,1476)" d="m0 0v3l-7 9-14 11-2-1 10-9 8-7z" fill="#FEFEFE"/>
<path transform="translate(1063,1237)" d="m0 0h20l2 2-5 1h-9l-7-1z" fill="#2F2F32"/>
<path transform="translate(839,771)" d="m0 0 5 1 4 5-4 10-2-3 1-8z" fill="#4C4B4A"/>
<path transform="translate(1124,751)" d="m0 0 4 2 10 8 7 6-2 2-4-3v-2l-4-2-11-10z" fill="#252631"/>
<path transform="translate(668,747)" d="m0 0 4 2v10l-4-1-1-2v-7z" fill="#0E2867"/>
<path transform="translate(1010,668)" d="m0 0 8 4 3 2v2l4 2 1 2-4-1-8-4v-2l-4-2z" fill="#4A4948"/>
<path transform="translate(884,606)" d="m0 0h2l4 9-1 6-3-3-3-7z" fill="#E09EA1"/>
<path transform="translate(888,576)" d="m0 0h2v2h2v5h-2v2l-4 2-1-5 2-5z" fill="#E09EA1"/>
<path transform="translate(885,543)" d="m0 0v3l-5 10-5 13-3 1 2-7 4-9 3-6z" fill="#727379"/>
<path transform="translate(267,365)" d="m0 0 5 5 3 4 10 3v1h-10l-8-8z" fill="#69696C"/>
<path transform="translate(1e3 1432)" d="m0 0 2 1 6 16v2l3 1v3l-3-1v-2l-3-1-5-16z" fill="#5B5B5D"/>
<path transform="translate(669,1222)" d="m0 0 33 2v1l-29 1-4-1z" fill="#7E7C7B"/>
<path transform="translate(1084,724)" d="m0 0 5 2 17 13-2 2-18-14z" fill="#424144"/>
<path transform="translate(1079,712)" d="m0 0 7 4 10 9 7 6h-3l-8-6v-2l-5-2v-2l-4-2-4-3z" fill="#F4F3F3"/>
<path transform="translate(1015,658)" d="m0 0 5 1-2 1v5l-7 1-2-1 4-6z" fill="#616164"/>
<path transform="translate(783,397)" d="m0 0 8 3 10 8 4 2-7-1-5-3-6-5-4-2z" fill="#7D7D85"/>
<path transform="translate(222,367)" d="m0 0 4 1 3 6 3 3-1 2-6-7v-2l-5 3-2 5-2-4 3-5z" fill="#A49A96"/>
<path transform="translate(1137,1148)" d="m0 0h1l2 19 2 4v3h-4l-1-7z" fill="#626164"/>
<path transform="translate(1201,934)" d="m0 0h5l9 5-4 3-4-1-1-2h-3v-3z" fill="#2B2C35"/>
<path transform="translate(1084,720)" d="m0 0 5 1 3 2v2l4 2 8 6-2 2-18-14z" fill="#444446"/>
<path transform="translate(802,633)" d="m0 0h2l1 4-3 3-4 1-5-2 5-4z" fill="#3F3F45"/>
<path transform="translate(213,413)" d="m0 0h4l2 5 7 6-3 1-10-7-1-4z" fill="#A5918F"/>
<path transform="translate(1151,979)" d="m0 0h1v13l-2 6-2 1 1-14z" fill="#323236"/>
<path transform="translate(862,592)" d="m0 0 1 3-7 22-1 3-1-1v-7l5-11z" fill="#565555"/>
<path transform="translate(208,411)" d="m0 0 5 2v5l4 2 9 6-4 1-9-6-3-7-2-1z" fill="#ACA29F"/>
<path transform="translate(206,398)" d="m0 0 1 4 1 6 5 3-1 2-6-1-4-7 2-4z" fill="#9B908D"/>
<path transform="translate(399,215)" d="m0 0 1 3-10 20h-2l1-5 3-4 4-9z" fill="#2861E4"/>
<path transform="translate(425,194)" d="m0 0 1 2-2 5v12l2 3-1 4-3-5-1-6v-9z" fill="#2861E4"/>
<path transform="translate(609,1552)" d="m0 0h6l1 4-5 2h-9l4-2z" fill="#7AA1FD"/>
<path transform="translate(539,1523)" d="m0 0 4 1 12 6 4 4-1 3-7-6-11-6z" fill="#4B68C2"/>
<path transform="translate(1154,957)" d="m0 0 1 4-1 4h2l1-6 2 4 1 3-1 5-2-4-6 3 1-7z" fill="#757475"/>
<path transform="translate(719,872)" d="m0 0h2l-2 11-2 7-2-1 1-9z" fill="#5573CC"/>
<path transform="translate(910,502)" d="m0 0 1 3-5 14-2 3-5 3-2 1 2-4 6-8z" fill="#837D81"/>
<path transform="translate(595,264)" d="m0 0h6l5 5-1 1h-6l-4-4z" fill="#7AA1FD"/>
<path transform="translate(923,1567)" d="m0 0h13l7 2-1 2h-6l-5 2v-5l-3 1-5-1z" fill="#5E85F2"/>
<path transform="translate(1124,749)" d="m0 0 4 2 13 10 4 4-1 2-14-12-6-5z" fill="#EAE9E8"/>
<path transform="translate(768,618)" d="m0 0 2 8 3 1-2 6-2 2-2-6v-10z" fill="#5A5A5C"/>
<path transform="translate(328,318)" d="m0 0 4 1v8l-7 6 2-6 1-7z" fill="#67676A"/>
<path transform="translate(806,1406)" d="m0 0 2 3 3 6v3l9 2v1h-7l-5-2-2-7z" fill="#69696C"/>
<path transform="translate(800,775)" d="m0 0 4 2v5l-4 1-3-2v-4z" fill="#93908B"/>
<path transform="translate(922,723)" d="m0 0 10 3 8-1 4-1 4 2-2 1-14 2-10-5z" fill="#4A4948"/>
<path transform="translate(761,398)" d="m0 0 2 1-5 5-5 8-6 4-3-1 6-4 8-10z" fill="#74757B"/>
<path transform="translate(557,1698)" d="m0 0h16l3 1 1 4-20-4z" fill="#4D6CCB"/>
<path transform="translate(1199,932)" d="m0 0 4 2 1 6-9-3-1-2 1-2 4 1z" fill="#48484D"/>
<path transform="translate(905,1572)" d="m0 0 3 1-2 2 2 1h18v2l-5 1h-13l-4-2-1-3z" fill="#597DEB"/>
<path transform="translate(997,1397)" d="m0 0h2v6h2l1 15h-2z" fill="#5C5C5F"/>
<path transform="translate(1154,1140)" d="m0 0h2l1 15-1 5-2-2z" fill="#5E5E62"/>
<path transform="translate(687,1398)" d="m0 0 1 2h4v2h2l4 6-6-2-6-3z" fill="#414147"/>
<path transform="translate(1151,1202)" d="m0 0h2l-1 7-2 3-5 1-3-3 5-2 3-1z" fill="#78787D"/>
<path transform="translate(1150,1076)" d="m0 0h5l1 1v15h-2l-1-12z" fill="#626265"/>
<path transform="translate(1283,915)" d="m0 0h2l7 12-1 2h-2l-6-10z" fill="#45454C"/>
<path transform="translate(201,440)" d="m0 0 5 5-1 3 1 3-4 2-5-5 1-2 5 4z" fill="#A19894"/>
<path transform="translate(916,1581)" d="m0 0h9l-2 2h-4l-1 3-6 2-2-2h2v-2l4-1z" fill="#3E59B0"/>
<path transform="translate(1015,1561)" d="m0 0h2l1 4-10 1-8-1 3-3 9 1h3z" fill="#606FA0"/>
<path transform="translate(1016,1519)" d="m0 0 10 3 8 4-3 1-12-4-3-3z" fill="#8AACFD"/>
<path transform="translate(1303,966)" d="m0 0 1 4h2l-2 5-5 5h-4l4-4h2z" fill="#6C6C71"/>
<path transform="translate(781,806)" d="m0 0 6 2 5-1-5 4-4 2-3 3v-5-3z" fill="#74757B"/>
<path transform="translate(808,797)" d="m0 0h6l-3 2-5 1v2l-5 3h-2l1-4 4-3z" fill="#636265"/>
<path transform="translate(1041,678)" d="m0 0 4 3 4 10-1 2-3-3v-2h-2v-4l-2-1z" fill="#6A696A"/>
<path transform="translate(394,289)" d="m0 0h1v6h-2l-2 3h-2v2l-4 3-2-1 3-5 7-6z" fill="#5B5B61"/>
<path transform="translate(835,1437)" d="m0 0h9l1 4-6 1-4-3z" fill="#455898"/>
<path transform="translate(732,1244)" d="m0 0 7 2 3 3v9h-1l-1-7-4-2z" fill="#727172"/>
<path transform="translate(580,919)" d="m0 0h8v3l-1 1h-9v-3z" fill="#B59191"/>
<path transform="translate(664,685)" d="m0 0 5 1-3 11-1-4-1-3-3 2 2-5z" fill="#1C367D"/>
<path transform="translate(344,168)" d="m0 0h10l9 2v1l-13 1-2-2z" fill="#7AA1FD"/>
<path transform="translate(559,1537)" d="m0 0h3v2l9 2 1 3-8-1-5-5z" fill="#4663BC"/>
<path transform="translate(757,1387)" d="m0 0 5 1 6 10-3-1-3-3v-2l-8-2z" fill="#7E7D7E"/>
<path transform="translate(937,1331)" d="m0 0 1 4-3 14-2 1 1-10z" fill="#989AAB"/>
<path transform="translate(1167,941)" d="m0 0 2 1-2 6-5 3-2 1-2-4 2-2 2 1 3-2z" fill="#3E3E42"/>
<path transform="translate(817,791)" d="m0 0 4 2 1 2-5-2v3l-9 2-2-1 2-2 8-3z" fill="#59595A"/>
<path transform="translate(249,396)" d="m0 0 4 3h5l2-1-2 4-5 3-4-5z" fill="#9A9490"/>
<path transform="translate(768,1297)" d="m0 0h3v11l-3-3-3-4v-2l3-1z" fill="#898784"/>
<path transform="translate(652,693)" d="m0 0h1v10h4l-1 4-4-1-1-1v-9z" fill="#A19995"/>
<path transform="translate(776,599)" d="m0 0h2l3 9-2 4-5 2 3-6z" fill="#2744A6"/>
<path transform="translate(1246,965)" d="m0 0 5 2 8 5v4l-6-2-1-4-6-4z" fill="#656567"/>
<path transform="translate(1279,907)" d="m0 0h2l9 14-1 2-4-6v-2h-2l-1 2-2-4 2-1z" fill="#666569"/>
<path transform="translate(756,830)" d="m0 0 4 5 4 4-2 4-2-1v-3l-2-4-4 1 1-5z" fill="#8C8B86"/>
<path transform="translate(878,550)" d="m0 0h2l-3 10-5 10-1-3z" fill="#5A595A"/>
<path transform="translate(867,442)" d="m0 0h9l-4 2-5 3-8-1v-1l6-2z" fill="#777A84"/>
<path transform="translate(201,439)" d="m0 0 4 1v2l4 2-1 5-3 1-1-3h2z" fill="#B39191"/>
<path transform="translate(321,318)" d="m0 0v3l-1 6 1 5 4-1-1 3-5-1-2-7 2-7z" fill="#95918D"/>
<path transform="translate(895,1568)" d="m0 0h7l1 2-1 2h-8v-3z" fill="#2845A7"/>
<path transform="translate(536,1501)" d="m0 0h1v6l-2 3-1 8h-1v-13z" fill="#4C66B6"/>
<path transform="translate(1299,947)" d="m0 0h2l1 5h3l-1 5-1 4-3-7z" fill="#404044"/>
<path transform="translate(194,432)" d="m0 0 2 1 3 11-5-3-1-8z" fill="#838382"/>
<path transform="translate(815,1558)" d="m0 0 18 6v1h-7l-10-5z" fill="#455898"/>
<path transform="translate(751,1286)" d="m0 0h2l2 13-2 1-2-5z" fill="#5E5E62"/>
<path transform="translate(1144,1187)" d="m0 0h4l-1 6h-8l1-2h3z" fill="#494847"/>
<path transform="translate(564,1548)" d="m0 0h1v8l-5-1v-4z" fill="#213B83"/>
<path transform="translate(449,1293)" d="m0 0h1v5l5-1 1 6h-3l-4-2z" fill="#3E59B0"/>
<path transform="translate(1288,914)" d="m0 0 4 5 3 6-1 4-7-12z" fill="#35343C"/>
<path transform="translate(1069,706)" d="m0 0 6 2 4 4h-3l-1 2-5-5z" fill="#A09E99"/>
<path transform="translate(726,1325)" d="m0 0 2 1-1 3h-2l-2 5-3 2 1-6z" fill="#717070"/>
<path transform="translate(812,807)" d="m0 0 5 1-3 5-3 3-2-4z" fill="#8D8E95"/>
<path transform="translate(777,810)" d="m0 0 4 1-1 7-2 1v-6h-7l3-2z" fill="#676669"/>
<path transform="translate(1045,682)" d="m0 0 4 3 3 5v4l-3-1-4-9z" fill="#76777C"/>
<path transform="translate(871,441)" d="m0 0h8l5 3-1 4-3-2v-2l-9-2z" fill="#6D94F9"/>
<path transform="translate(1048,1661)" d="m0 0h1l-1 8-2 6h-1v-9z" fill="#68686A"/>
<path transform="translate(775,1432)" d="m0 0h12v2l-9 1-6-1z" fill="#344FA9"/>
<path transform="translate(817,799)" d="m0 0h5v3l-5 3h-2l1-5z" fill="#434349"/>
<path transform="translate(800,772)" d="m0 0h7v11h-1l-2-8-5-1z" fill="#3F3F45"/>
<path transform="translate(860,762)" d="m0 0 5 2 1 4h-5l-2-2z" fill="#4A4948"/>
<path transform="translate(936,1403)" d="m0 0h1v12l-3 6-2-1 3-7z" fill="#666976"/>
<path transform="translate(1149,1028)" d="m0 0 2 4v9l-1-4-3 1v-6h2z" fill="#4A4948"/>
<path transform="translate(1156,978)" d="m0 0h1l-1 17h-1l-1-6-2-1 2-5h2z" fill="#6B6868"/>
<path transform="translate(1173,934)" d="m0 0 2 1-5 5-3 2-3 5-1-2 4-6z" fill="#7F7A7A"/>
<path transform="translate(1297,932)" d="m0 0 4 5 2 6v5l-2-3-4-10z" fill="#3C3B42"/>
<path transform="translate(1167,937)" d="m0 0 2 1-4 5-3 5-2-1 2-6z" fill="#2F2F36"/>
<path transform="translate(1275,904)" d="m0 0 5 1 1 5 2 3h-4l-4-8z" fill="#47474D"/>
<path transform="translate(711,902)" d="m0 0h1l-1 9-2 7-2-3 3-12z" fill="#5374D3"/>
<path transform="translate(250,337)" d="m0 0 1 3v7l1 6-2-1-3-11z" fill="#A49C98"/>
<path transform="translate(1023,1497)" d="m0 0h9l6 2v1l-16-1z" fill="#455898"/>
<path transform="translate(937,1342)" d="m0 0h1v13l-3 4 1-12z" fill="#6D6D71"/>
<path transform="translate(496,1212)" d="m0 0h2l-1 7h-2v-2h-3l2-4z" fill="#2C52C1"/>
<path transform="translate(1144,1066)" d="m0 0h1v7l-4 3v-6z" fill="#B2ADAA"/>
<path transform="translate(577,921)" d="m0 0 1 2 4 1-4 3-4 1 2-6z" fill="#A7A09C"/>
<path transform="translate(782,804)" d="m0 0 3 2 14-1-3 2-11 2-3-2z" fill="#666568"/>
<path transform="translate(546,1464)" d="m0 0h2l2 6-1 8h-1z" fill="#4360B8"/>
<path transform="translate(1305,952)" d="m0 0h1l1 11-3 1-1-11z" fill="#6E6C6E"/>
<path transform="translate(951,762)" d="m0 0 1 2-2 5-5-1-5-3 2-1 6 2z" fill="#858384"/>
<path transform="translate(840,763)" d="m0 0 4 1v4h-4l-1-4z" fill="#95928C"/>
<path transform="translate(257,337)" d="m0 0 1 3-2 7-3-1v-5z" fill="#646466"/>
<path transform="translate(368,239)" d="m0 0 7 1 4 4 1 3h-2l-2-3-7-3z" fill="#3E59B0"/>
<path transform="translate(644,1204)" d="m0 0 3 3-1 2z" fill="#7AA1FD"/>
<path transform="translate(932,1300)" d="m0 0 1 3-2 2z" fill="#FEFEFE"/>
<path transform="translate(958,1251)" d="m0 0v3l-2 1z" fill="#FEFEFE"/>
<path transform="translate(649,1213)" d="m0 0 3 2-1 2z" fill="#949BB7"/>
<path transform="translate(952,1259)" d="m0 0v3z" fill="#FEFEFE"/>
<path transform="translate(954,1256)" d="m0 0v3z" fill="#FEFEFE"/>
<path transform="translate(641,1208)" d="m0 0 1 4z" fill="#7AA1FD"/>
<path transform="translate(930,1305)" d="m0 0" fill="#FEFEFE"/>
<path transform="translate(928,1311)" d="m0 0" fill="#FEFEFE"/>
<path transform="translate(929,1308)" d="m0 0" fill="#FEFEFE"/>
<path transform="translate(646,1213)" d="m0 0" fill="#7AA1FD"/>
<path transform="translate(648,1211)" d="m0 0" fill="#7AA1FD"/>
<path transform="translate(647,1209)" d="m0 0" fill="#7AA1FD"/>
<path transform="translate(643,1202)" d="m0 0" fill="#7AA1FD"/>
<path transform="translate(397,313)" d="m0 0" fill="#8D9DC9"/>
<path transform="translate(1038,1531)" d="m0 0" fill="#FEFEFE"/>
<path transform="translate(927,1314)" d="m0 0" fill="#FEFEFE"/>
<path transform="translate(955,1255)" d="m0 0" fill="#FEFEFE"/>
<path transform="translate(959,1250)" d="m0 0" fill="#FEFEFE"/>
<path transform="translate(960,1249)" d="m0 0" fill="#FEFEFE"/>
<path transform="translate(961,1248)" d="m0 0" fill="#FEFEFE"/>
<path transform="translate(642,1201)" d="m0 0" fill="#7AA1FD"/>
<path transform="translate(782,842)" d="m0 0" fill="#A19995"/>
<path transform="translate(783,835)" d="m0 0" fill="#FEFEFE"/>
<path transform="translate(784,834)" d="m0 0" fill="#FEFEFE"/>
<path transform="translate(785,833)" d="m0 0" fill="#FEFEFE"/>
</svg>
