<?xml version="1.0" encoding="UTF-8"?>
<svg version="1.1" viewBox="0 0 928 868" width="1280" height="1280" xmlns="http://www.w3.org/2000/svg">
<path transform="translate(631,59)" d="m0 0h10l8 3h3l2-3 10 1 12 3 12 2 20 8 12 6 15 10 13 10 10 9 7 8 11 15 11 19 6 14 5 16 3 17 1 10v12l-2 26-4 17-6 16-8 15-12 17-11 13-9 10-16 16-7 8-19 19-1 2h-2l-2 4-134 134-7 8-54 54-11 14-11 12-14 19-12 16-8 11-10 13-11 14-8 10-15 16-7 7-14 11-15 10-17 9-15 6-20 6-23 5-9 1h-19l-20-4-19-6-16-6-20-11-14-10-14-11-12-11-8-8-12-16-9-16-7-16-5-15-5-25v-37l3-18 6-20 7-16 11-20 11-15 11-12 58-58 8-7 16-15 12-11 19-19 8-7 13-13 8-7 12-11 10-9 10-10h2l1-3 8-7 25-25 8-7 10-9 8-7 10-9 37-37h2v-2l8-7 17-16 15-14 5-5h2l1-3 8-7 13-13 8-7 14-13 8-7 13-11 15-10 19-9 18-6z" fill="#08090A"/>
<path transform="translate(261,424)" d="m0 0h37l25 6 22 8 12 6 11 7 5 3 5 5 8 6 4 4v2l4 2 2 4 4 2 13 19 7 12 9 20 7 27 2 12v22l-1 15-7 27-5 14h-2l-2 8h-2l-1 7-6 10-7 11-4 5-7 6-5 6-10 7-4 2-4 4-6 4-11 7-27 9-10 3-21 3-11 1h-29l-10-1-8-2-10-2-16-6-9-3-12-7v-2l-5-1-8-7-6-4-7-7-8-10-5-5-9-13-6-11-5-10-5-12-6-24-2-17v-30l5-26 4-13 8-16 6-11 5-7 4-7 5-7 5-5h2v-2l8-7 3-3h2v-2l8-6h2v-2l4-1v-2l11-6 19-9 19-6z" fill="#08090A"/>
<path transform="translate(631,59)" d="m0 0h10l11 4-6 7-4 2v2l-8 7-15 15h-2v2l-8 7-13 13-7 6-62 62h-2v2l-8 7-11 11-8 7-23 23h-2v2l-8 7-30 30-8 7-46 46-8 7-24 24-8 7-26 26h-2l-2 4h-2v2l-8 7-4 4-1 3 13 2 24 7 16 6 16 8 9 6 16 12 7 6v2l4 2 4 4v2h2l7 8 8 11 9 16 9 21 4 15 5 25 1 15 5-1 7-7 7-8 12-12 7-8 10-10 7-8 10-10 7-8 36-36 2-3h2l2-4 14-14 1-2h2l2-4 13-13 7-8 10-10 7-8 45-45 7-8 15-16 7-7 7-8 13-13 7-8 36-36 7-8 15-16 15-15 6-7h1v11l-2 21-6 20-8 17-7 11-9 12-9 11-11 12-15 15-7 8-19 19-1 2h-2l-2 4-134 134-7 8-54 54-11 14-11 12-14 19-12 16-8 11-10 13-11 14-8 10-15 16-7 7-14 11-15 10-17 9-15 6-20 6-23 5-9 1h-19l-20-4-19-6-16-6-20-11-14-10-14-11-12-11-8-8-12-16-9-16-7-16-5-15-5-25v-37l3-18 6-20 7-16 11-20 11-15 11-12 58-58 8-7 16-15 12-11 19-19 8-7 13-13 8-7 12-11 10-9 10-10h2l1-3 8-7 25-25 8-7 10-9 8-7 10-9 37-37h2v-2l8-7 17-16 15-14 5-5h2l1-3 8-7 13-13 8-7 14-13 8-7 13-11 15-10 19-9 18-6zm-370 365-22 4-24 8-14 7-11 6v2l-4 1v2l-4 2-6 4v2l-4 2-7 7-2 1v2l-4 2-8 10-10 16-9 16-5 13-4 13-4 23v29l3 22 6 22 4 9 4 8 6 11 6 9 7 10 5 5 5 6 3 3 2 1 2 3 16 12h3v2l12 7 16 6 12 4 13 2 7 1 11 1h25l22-3 12-2 14-4 8-3 13-5 5-4 5-3 8-5 3-3 6-4 9-7 7-8 5-5 6-9 6-10 3-6v-4h2l2-5v-3h2l7-21 5-20 1-15v-22l-5-25-5-16-8-18-10-17-12-16h-2l-2-4-4-2v-2l-5-5-11-8-2-3-11-6-11-7-30-11-22-5z" fill="#3D4141"/>
<path transform="translate(631,59)" d="m0 0h10v3l-28 28h-2l-2 4-8 7-8 8-8 7-11 11-8 7-20 20-8 7-25 25-8 7-15 15-8 7-12 12h-2v2l-8 7-19 19-8 7-23 23-8 7-10 10-8 7-10 10-8 7-31 31-8 7-18 18-8 7-14 14-5 3h-2l-1 3-16 2-22 5-8 1-10 3-10 5-11 4-3-1 1 3-5 2-5 3h-2l2-4 25-25 8-7 16-15 12-11 19-19 8-7 13-13 8-7 12-11 10-9 10-10h2l1-3 8-7 25-25 8-7 10-9 8-7 10-9 37-37h2v-2l8-7 17-16 15-14 5-5h2l1-3 8-7 13-13 8-7 14-13 8-7 13-11 15-10 19-9 18-6z" fill="#090A0B"/>
<path transform="translate(798,234)" d="m0 0h2v11l-4 17-6 16-8 15-12 17-11 13-9 10-16 16-7 8-19 19-1 2h-2l-2 4-134 134-7 8-54 54-11 14-11 12-14 19-12 16-8 11-10 13-11 14-8 10-15 16-7 7-4 1 1-3h3l1-5 6-7 3-5 5-5 7-12 4-7 9-17 7-21 3-13 1-11 2-5 5-4 3-5 14-14 7-8 19-19 7-8 11-11 7-8 13-13 7-8 34-34 1-2h2l2-4 17-17 7-8 4-5h2l2-4 28-28 1-2h2l2-4 38-38 1-2h2l2-4 18-18 7-8 15-16 14-14 7-8 18-18 1-2h2l2-4 15-16 7-8z" fill="#090B0B"/>
<path transform="translate(631,59)" d="m0 0h10v3l-28 28h-2l-2 4-8 7-8 8-8 7-11 11-8 7-20 20-8 7-25 25-8 7-15 15-8 7-12 12h-2v2l-8 7-19 19-8 7-23 23-8 7-10 10-8 7h-3v-2h2v-2h-2l2-4 4-4h2v-2l5-4h3l1-4 6-4 1-2 2 1-1-4h2l2-4h2l2-4h2l2-5h2l3-6 6-5 4-9 4-4h2l2-4h2l2-5 7-7 1-2h2l1-5v-3l3-10v-2l-10 5-8 1v-2l3-2 2-4 11-3 7-5h2v-2h2l-1-4 4-2 2-2-2-1v2l-9 4-2 1-1-4 3-5 3-3h3l1-3h3v-2l6-1v-3h2v-2h2v-2l5-4 1-2 1-1-1-2 1-2h3l1-4 2 1-1 2 6-5h3v-3l4-1v-3l-7 5 2-4 5-6 4-4-4 1 4-5 8-7 14-13 8-7 13-11 15-10 19-9 18-6z" fill="#0A0B0B"/>
<path transform="translate(800,219)" d="m0 0h1v11l-1 4h-2l-2 4-15 16-7 8-3 4h-2l-2 4-22 22-7 8-17 17-7 8-15 16-11 11-1 2h-2l-2 4-38 38-1 2h-2l-2 4-28 28-1 2h-2l-2 4-7 7-7 8-13 13-1 2h-2l-2 4-38 38-7 8-13 13-7 8-11 11-7 8-19 19-7 8-13 13h-3v-10l6-8 16-17 9-9 7-8 10-10 7-8 10-10 7-8 36-36 2-3h2l2-4 14-14 1-2h2l2-4 13-13 7-8 10-10 7-8 45-45 7-8 15-16 7-7 7-8 13-13 7-8 36-36 7-8 15-16 15-15z" fill="#CDD91B"/>
<path transform="translate(642,60)" d="m0 0 10 3-6 7-4 2v2l-8 7-15 15h-2v2l-8 7-13 13-7 6-62 62h-2v2l-8 7-11 11-8 7-23 23h-2v2l-8 7-30 30-8 7-46 46-8 7-24 24-8 7-26 26h-2l-2 4h-2v2l-8 7-7 7h-13v-4l26-26 8-7 18-18 8-7 31-31 8-7 10-10 8-7 10-10 8-7 23-23 8-7 19-19h2v-2l8-7 12-12 8-7 12-12h2l1-3 8-7 25-25 8-7 20-20 8-7 11-11 8-7 5-5h2l1-3 8-7z" fill="#EBF643"/>
<path transform="translate(519,125)" d="m0 0 2 2-9 9-1 2h2v-2l5-1 7-3h3v-2h2v2l2 1v2l4 1-1 5-5 10-7 8h-2v2h-2l-1 4-8 7-1 2h-2l-2 4-6 6h-2v2l-7 6-3 3h-2l-1 4-6 5-2 2h-2l-3 4-4 5-5 5-3 7h-2l-2 4-9 9-1 2h-2l-1 3h-2l-1 2-2 2-1 2h-2v5h-3l-1 5h-2l-1 3-4 1-1 4-3 1v2l-4 1-1 5-1 4-13 12-8 8-8 7h-3v-2h2v-2h-2l2-4 4-4h2v-2l5-4h3l1-4 6-4 1-2 2 1-1-4h2l2-4h2l2-4h2l2-5h2l3-6 6-5 4-9 4-4h2l2-4h2l2-5 7-7 1-2h2l1-5v-3l3-10v-2l-10 5-8 1v-2l3-2 2-4 11-3 7-5h2v-2h2l-1-4 4-2 2-2-2-1v2l-9 4-2 1-1-4 3-5 3-3h3l1-3h3v-2l6-1v-3h2v-2h2v-2l5-4 1-2 1-1-1-2 1-2h3l1-4 2 1-1 2 6-5h3v-3l4-1v-3l-7 5 2-4 5-6 4-4-4 1 4-5h2l1 2z" fill="#131411"/>
<path transform="translate(403,284)" d="m0 0h3l-2 4-5 6-6 7-10 9-2-1v-2h2v-2h-2l2-4 4-4h2v-2l5-4h3l1-4z" fill="#141514"/>
<path transform="translate(432,301)" d="m0 0h5l5 3v2l-7 1-2 2-9 3-3 2h-3l-2 1h-6v-2l5-2v-2l5-3h7v-2z" fill="#121311"/>
<path transform="translate(672,353)" d="m0 0 2 1-11 12-33 33v-3l35-35z" fill="#DFEA33"/>
<path transform="translate(744,290)" d="m0 0 1 2-7 8-17 17-1 2-3-1 3-4h2l2-4z" fill="#E4EF39"/>
<path transform="translate(636,402)" d="m0 0 1 3-24 24h-2l1-3h2l2-4 8-8h2l2-4z" fill="#E4EF39"/>
<path transform="translate(389,303)" d="m0 0v3l-15 15-7 8-4 3-1-3 10-10 8-7z" fill="#DBE72E"/>
<path transform="translate(222,401)" d="m0 0m-1 1m-1 1m-1 1m-1 1 1 2-2-1zm-3 2 2 1-8 8v3l-5 4-4-1z" fill="#26291C"/>
<path transform="translate(771,262)" d="m0 0 1 2-1 2h-2l-2 4-12 12h-2v-2h2l2-4h2l2-4h2l2-4z" fill="#E4F03A"/>
<path transform="translate(197,426)" d="m0 0 3 1v4l-5 2-5 3h-2l2-4z" fill="#0F1011"/>
<path transform="translate(427,216)" d="m0 0 5 1-5 5-5 3h-3v2l-2-1 5-5z" fill="#121311"/>
<path transform="translate(578,463)" d="m0 0 1 3h-2l-2 4-8 8h-2v-2h2l2-4h2l2-4z" fill="#E3EF38"/>
<path transform="translate(283,406)" d="m0 0 2 2v3l2-1h8l-1 2h-13v-4z" fill="#CCD81A"/>
<path transform="translate(370,321)" d="m0 0h2l-1 4-7 7-2-3z" fill="#DAE52C"/>
<path transform="translate(653,384)" d="m0 0h2l-2 4-8 8h-2v-2h2l2-4z" fill="#E4EF39"/>
<path transform="translate(694,330)" d="m0 0 2 1-7 8-5 5h-2l2-4z" fill="#E0EC35"/>
<path transform="translate(205,417)" d="m0 0h4v2l-5 4-4-1z" fill="#171817"/>
</svg>
