<?xml version="1.0" encoding="UTF-8"?>
<svg version="1.1" viewBox="0 0 976 828" width="1280" height="1280" xmlns="http://www.w3.org/2000/svg">
<path transform="translate(537,29)" d="m0 0h33l14 3 17 5 17 8 12 8 10 8 10 9 9 9 9 11 9 12 10 19 7 19 5 21 2 18v20l-2 18-4 14-5 12-5 10-9 13-11 13-33 33-11 9-10 9-18 12-1 33-3 5-10 7-4 3 1 9 3 4 3 1 16 2 12 5 13 7 14 11 12 12 10 13 12 19 5 10 3 9 8-1h12l15 6 40 6 8 3 7 8 3 8 1 7v18l-3 15-4 10-7 9-8 3h-20l-23-2-9-1v2l-6 1h-13l-6-3v-2h-16l-1 7-9 19-11 16-12 14-11 10-9 7-11 8 4 6 7 8 3 42 1 19 1 13 1 9 3 21-2 8-4 6-7 4-13 4-20 3h-16l-22-3-13-4-5-4-3-6-1-6v-13l2-5v-25l-2-50v-7l-14-1-8-3-7 1-2 1h-26l-15-4-16-8-11-8-8-8-9-14-6-12-2-6-1-7v-24l3-17 4-13-4 1-13 1-35 1-8 20-8 11-6 4h-19l-18-3-54-5-7-2-7-8-8-15-5-13-2-9v-31l4-25 3-15 6-16 7-12 9-10 4-3h44l27 2 17 3 11 4 7 8 5 12 5 18v4l31 3 27 2h7l9-13 16-16 17-13 15-10 17-8 23-7 6-3v-6l3-7v-9l-15-2-2-10-2-21-2-3-28-10-16-7-11-7-13-10-13-11-11-13-10-15-14-27-8-24-3-15-3-32v-13l3-19 5-16 5-13 11-20 10-13 15-15 10-8 11-7 14-8 15-7 19-6 25-5z" fill="#4E6C91"/>
<path transform="translate(507,53)" d="m0 0h17l16 3 15 4 19 10 12 8 12 9 14 14 10 13 1 6h-5l3 9 5 8 1 9 2 1-5 4-1 2 9-1 6 19-1 2h-10l-7 3h-5l-6-3h-4l-3 4-4-1-3-3h-6l-1 5h2v-2h6l9 13v3l7-1 2-4 1-7 20-6 5 1 2 8-1 12-5 2h5l3 2v20l-4 2h-7l9 2-1 14-2 7-4 12-4 11-2 1-2 6-8 14-11 14-10 9-10 7-9 5h2l14-7 5-4 13-5 7-1 2-3h2l2-4 4-5h2l2-4 2-5 2-1 3-5 3-7h2l1-2v8l-4 7-7 14-10 13-6 7-7 5h-2l-1 3-4 3h-2v2l-12 7-7 1-5 3v-2l-11 4-5 2-3 3-11 3-17 2h-41l-25-9-16-7-11-7-13-10-13-11-11-13-10-15-11-21v-18l-2 3v-10l-5-16-3-13-3-29v-16l3-10 6-2-1-2-3-2 2-2-1-4 5-10 5-13 2-4 3-3 1-4h2l2-5 13-13 11-7 5-3h5l-2 5-6 7-8 7-6 8-8 13-10 21-6 18-2 17v35l4 21 3 7 3 9 10 19 6 10 5 7 4 7 4 5v2l4 2 9 8 15 10 15 8 28 10 15 4h20l19-5h2v-2l-11 1h-16l-21-3-11-3-16-8-15-9-5-4-4-2-5-5-8-6-2-5 5-5 8-7 5-2v3h6l4 1 5-5 1-2-6 1h-9l3-6 4-3h4l1-7 4 1v6h2v-8l4-6 7-5 1-3 10-8 4-1 1 2-3 6 1 3 4 1v-5h2v-3h3v6h3v-3l4-1 2 4 7 1 2-1 1-14 4-2 3 3 2 12h3v-18l6-15 1-4 4 1 3 5v2l15 5 8-2 5-3 3-1v-3l-9 6-9 1-7-3-5-5v-3l13-1h20l1-3h-10l-11-1-4 1h-6l-3-3 3-2 4 1 5-2 1 1h5l1-3-8 1-11-2 2-5 7-6 5-1 8 2 5 5 2 5-3 5 5-1-1-5-2-6-8-7-3-1v-2l-4-1-2-1 2-8-9-11-3-3v-3l-5-2h-2v-2h-2l2 4 3 3v7l-5 4-3-1v-3l-3-1 1-4 2-3-8 1-2-2v-3l-4 2-1 2v7l2 6 4 5v8l-2 5-4 3h-18l-2 4-3 1-2 4-1 7v8l1 5-3 3h-2v2l-6 5-7 9h-2l-2 4-7 10-9 1-1 8-3 3-3 5-8 9-2 3h-2l-1 3h-2l-1 3-6 5-4-1-11-14-10-17-8-20-5-18-2-13v-31l3-17 3-13 8-16 7-12 1-3h2l2-4 10-13 12-12 10-7 5-3 12-4 2 2-3 3-13 7-5 1-5 5-10 9-11 14-8 14-5 11-2 8-1 3 2-1h7l2 2-2-4-3-2 1-6 2-5 1-6h4l8 5-6-7v-2h2l1-5 3-1 2-7 3-1 3 1 3 4 3 1-3-4-1-4 6-5 1-2h2v-2h2l1-3 4 1 3 5v2h2l5 9 3 2-3-7-4-6v-2h-2l-3-6v-2l6-2 1-3 5-3 2-5h2l2 8h2l2 4 2 1-4-10-1-5 8 2 1-4 8-1 3 2 2 7h2l2-5h10 2l3-2 1 1 1 7 2-4 2-5h4l1 2 4 2 5-1v-3l5 1 1 5v6l2 1v-11-3l5 1 7 3v2l8 4-3 11-3 7-1 6 3-1 4-16 4-5 9 1 10 7 13 11 8 8 7 9 2 1-1-5-5-5-9-10-11-9-14-9-2-1v-2l-5-1-2-1v-2l-6-1-14-6-11-3-4-1-6-1-16-1-3-1v-2l-2-1z" fill="#D7E0E9"/>
<path transform="translate(537,29)" d="m0 0h33l14 3 17 5 17 8 12 8 10 8 10 9 9 9 9 11 9 12 10 19 7 19 5 21 2 18v20l-2 18-4 14-5 12-5 10-9 13-11 13-33 33-11 9-10 9-18 12-1 33-3 5-10 7-4 3-2 4-2-2-2-15v-26l-20 4-9 1h-37l-3-2h33l21-3 8-3 1-2 14-5 4 1 4-3 9-2 8-5h2v-2l6-4 3-3 5-4h2l2-4 7-8 7-10 3-5 3-7 4-7v-6h-2l-1 6-3 3-2 5-4 5-2 3h-2l-2 4-4 5h-2l-2 4-9 2-12 5-11 7-9 4-3-1 10-6 9-6 11-9 9-11 7-10 6-12v-3h3l2-9 3-8 3-7 3-20-9-1-1-2h10l1-1 1-20-9-1 1-2h3l2-9v-5l-2-7-7 1-14 4h-3v7l-3 5-5 1-2-1-4-7-5-8-6-1v2h-2v-5l1-1h6l4 4 4-1 2-3 6 1 4 2 8-1 4-2h10l-5-18v-2l-9 1 2-4 3-2-2-6-2-5-5-9-1-7h5l-3-7-7-9-9-10-8-8-13-9-12-8-16-8-15-4-16-3h-17v4l19 1 9 1 8 3 12 4 8 4 4 1v2l7 2v2l6 2 15 11 12 11 5 5 5 7-1 4-5-5-14-15-13-11-8-5-9-2-2 4-3 8-2 9-4 1 1-10 3-5 2-8-5-3-3-3-6-3-5-1 1 2-1 11-3-1v-10l-5-2v3l-6 2-4-4-2 3v-4l-2 1-3 9-2-1-1-7-5 3v-2l-9 1-2 4h-4l-2-7-5-1-5 1-1 3h-6v4l3 9-4-2v-3h-2l-2-8h-2l-2 6-5 3-6 6 2 6h2l7 11v4l-4-2-4-7v-2h-2l-4-7h-3l-1 2h-2v2h-2l-2 4-4 4 3 5v2l-4-1-5-4h-3l-1 7-4 4-1 2h-2l6 7v2l-5-2-4-3h-2l-2 10-2 3v4l5 4-1 3-2-2h-9v-5l3-9 10-19 9-12 11-12 6-5h2l1-3 9-3 9-5h2l-1-3-4 2-9 3-11 7-10 9-9 10-8 11h-2l-1 5-12 21-3 9-4 20-1 6v31l3 18 8 24 8 16 9 14 8 10 4-1 5-4 4-5 4-4 7-8 6-8 2-8 9-2 6-9 5-5 7-9 4-4h2v-2l4-3-1-5v-8l1-7 5-5 3-4 8-1h10l4-2 1-11-2-5-3-3-1-5v-7l4-4h2l2 4 5 1 1-2 2 1-2 4-1 3 4 1v3l6-3v-9l-4-2v-3h2v2l3-1 4 3 3 5 9 10 1 5-3 5 6 2v2l4 1 4 3v2l4 2 3 7-1 5h-5l1-4 1-2-4-6v-2l-13-2-6 4-4 5-1 2 19 1-1 4h-5-4l-3 1v-2l-5 2 2 2h9l2-1 20 2-1 4h-21l-12 1 5 5v2l5 1 7 1 7-3 6-4 2 1-5 5-5 3-9 2-12-5-4-4-1-4-4 1-3 10-3 7v19l-3 1-2-2-2-12-4-2-1 1-1 14-4 2-7-1-1-5-4 1v3h-3v-6h-3v3h-2v5l-5-1-1-3 3-7-7 3-5 5h-2l-1 4-7 5-3 5-1 8h-2l-1-6-3-1-1 7-7 3-3 5h14l-2 5-4 3-10-2v-3l-6 4-8 7h-2l-1 5 1 3 4 2 9 7 1 2 7 4 9 6 19 10 9 3 12 3 15 2h27v2l-21 6h-20l-15-4-28-10-15-8-16-11-10-9-4-4-6-8-3-6-6-9-9-16-6-12-3-9-3-12-2-12v-35l2-17 7-20 11-23 8-12 11-12 5-4 4-7-6 1-11 7-10 9-7 8-3 4-2 5h-2l-3 9-7 17-1 3 1 3-2 1 3 2v2l-5 2-3 10v16l3 29 5 20 3 9v6l2 1v17l-3-3-7-19-5-22-3-32v-13l3-19 5-16 5-13 11-20 10-13 15-15 10-8 11-7 14-8 15-7 19-6 25-5z" fill="#6E91B2"/>
<path transform="translate(229,428)" d="m0 0h44l27 2 17 3 11 4 7 8 5 12 5 18v4l31 3 27 2 4 1-1 5-4 9-2 2-4-1-63-4-23-3-4 3-2-6-6-3h-5v2h-2l-1 7-3 17 2 6h9l4-4 5 5 8 5 6 2 32 3 32 2 7 1v7h-31l-28-2-26-1 1 7 4 5v6l6 2-2 3-6-1-5-5-4-15-1-2-12-1v26l-5 29h-16l-42-4-7-2-7-8-8-15-5-13-2-9v-31l4-25 3-15 6-16 7-12 9-10z" fill="#6D594E"/>
<path transform="translate(594,665)" d="m0 0 4 1 7 8 3 42 1 19 1 13 1 9 3 21-2 8-4 6-7 4-13 4-20 3h-16l-22-3-13-4-5-4-3-6-1-6v-13l2-5v-25l-1-20v-33h29l16-2 19-7z" fill="#6D594E"/>
<path transform="translate(578,403)" d="m0 0 20 3 12 5 13 7 14 11 12 12 10 13 12 19 5 10 3 9 8-1h12l15 6 40 6 8 3 7 8 3 8 1 7v18l-3 15-4 10-7 9-8 3h-20l-23-2-9-1v2l-6 1h-13l-6-3v-2h-16l-1 7-8 17-1-3 5-16 3-9 3-11-1-13 2-1v2h2l2 4v6h1l2-7h14l47 5 7 1 2 4 1 5v-9l5 2 2 5 6-2-1-4h2l-1-26-2 3-3-1 1-14h-2l-1 15-4 5-8-2h-7l-11-1h-8l-3-3-5 2-4-1-3-1-2-6-3 9-2 10-2 2h-12l-4-2-2-5v-17l-4-1-3-3h-2l-1-2v-6l4 1 5-10h2l1-8-18 4-4-6-3-7-8-13-9-11-12-13-9-8-13-9-3-4 1-2 5 1h7v-4l4 1 1-4h-9l-5-3-3-5-1-4-4-1-2 1-3-7z" fill="#AA9E96"/>
<path transform="translate(662,500)" d="m0 0h4v6l-3 3-5 12-4-4 1 8 3-1 3 4 3 1 1 17 2 5 6 1h9l1-1 2-10 4-10 2 3 1 4h5 4l2-1 3 2v2l9-1 18 1 7 2 3-4 2-15h2v14h2l3-3v27h-2l1 4-4 3-3-1-2-5-3-1v8l-2 3-1-9-3-3-14-1-38-4h-14l-2 7-2-2-1-9-3-1 1 13-4 13-8 28-11 16-12 14-11 10-9 7-11 8 2 5-30 14-17 5-11 1h-27l-2-1-1 3v-7l-14-1-3-2v-2l5-5 12-6 25-1 9-1v-2l12-5 9-5 9-7 3-3h2l2-4 7-10 9-17 7-25v-36l3 3 2 7 1 17v9l-2 20v7l4 6v2l7-3 6-4 2-6 6-15 4-14v-10l-1-9 1-6v-15l3-9 2-11 4-8 1-4 3 1v2l7-4-2-2z" fill="#40536F"/>
<path transform="translate(537,29)" d="m0 0h33l14 3 17 5 17 8 12 8 10 8 10 9 9 9 9 11 9 12 10 19 7 19 5 21 2 18v20l-2 18-4 14-5 12-5 10-9 13-11 13-22 22v-3l6-9 6-8 10-21 6-27 2-13 1-1 1-15v-11l-3-21-5-19-6-16-8-16-10-18-3-4-2-5-8-8-7-8-11-9-8-5v-2l-5-2-23-12-22-7-16-3-7-1-23-1v-1z" fill="#6D92B5"/>
<path transform="translate(229,428)" d="m0 0h44l27 2 11 2 1 4-8 13-8 15-7 17-8 13-8 12-1 1h-10l-19-2-33-2-10-1-2-1 1-11 3-18 6-17 6-11 7-9z" fill="#584137"/>
<path transform="translate(550,556)" d="m0 0 1 2h2l6 10 3 9 2 7 1 5-1 3h4l1-5h3l3-1 5-7h2l1-4 5-4 4-1 1 1v23l-1 4v9l-4 10-7 12-4 6-9 7-2 3-5 2-10 6-8 4-14 3h-10l3-4 5-3 10-9 4-5 4-8 4-7v-3l-3 1v-8l1-3 2-12 1-1 1-9-7 3h-3v3h-2v19l-4 11-3 2 1-7 1-6-1 1-4 11-3 10-7 11-8 9-5 2-1 2-5 3-12 6-3 6-8 3h-26l-15-4-6-3-2-3v-3l4 1 3-1h16l18-8 4-4 3-4 2-6v-5h2v-21l1-6h2l1-9 4-2 4 1 6 10 2 10 2 7 1 14h7l7-6h2l2-7 2-3 1-7 4-9-1-12 2-6-1-7 1-10 1-2 5 2 3 10 2 2 2-6-3-1v-5l10-4 1-8z" fill="#40536F"/>
<path transform="translate(542,143)" d="m0 0h2v2l3-1 4 3 3 5 9 10 1 5-3 5 6 2v2l4 1 4 3v2l4 2 3 7-1 5h-5l1-4 1-2-4-6v-2l-13-2-6 4-4 5-1 2 19 1-1 4h-5-4l-3 1v-2l-5 2 2 2h9l2-1 20 2-1 4h-21l-12 1 5 5v2l5 1 7 1 7-3 6-4 2 1-5 5-5 3-9 2-12-5-4-4-1-4-4 1-3 10-3 7v19l-3 1-2-2-2-12-4-2-1 1-1 14-4 2-7-1-1-5-4 1v3h-3v-6h-3v3h-2v5l-5-1-1-3 3-7-7 3-5 5h-2l-1 4-7 5-3 5-1 8h-2l-1-6-3-1-1 7-7 3-3 5h14l-2 5-4 3-10-2v-3l-6 4-8 7h-2l-1 5 1 3 4 2 9 7 1 2 7 4 9 6 5 6-6-1v-2l-4-1-8-5-9-7-4-2-5-5-11-12-4-4v-3h-2l-1-3-2-1-3-6-8-15-8-20v-4h2l4 10v2h2l6 14 9 15 11 14 4-1 5-4 4-5 4-4 7-8 6-8 2-8 9-2 6-9 5-5 7-9 4-4h2v-2l4-3-1-5v-8l1-7 5-5 3-4 8-1h10l4-2 1-11-2-5-3-3-1-5v-7l4-4h2l2 4 5 1 1-2 2 1-2 4-1 3 4 1v3l6-3v-9l-4-2z" fill="#2E262A"/>
<path transform="translate(578,403)" d="m0 0 20 3 12 5 13 7 14 11 12 12 10 13 12 19 5 10 3 9 13-1v2l-8 1-2 2h-9l-2 2v6l-3 1-1 8 5-5 3-2h11l2 1 1 13-2 15-3 16-2 2h-12l-4-2-2-5v-17l-4-1-3-3h-2l-1-2v-6l4 1 5-10h2l1-8-18 4-4-6-3-7-8-13-9-11-12-13-9-8-13-9-3-4 1-2 5 1h7v-4l4 1 1-4h-9l-5-3-3-5-1-4-4-1-2 1-3-7z" fill="#C2BAB5"/>
<path transform="translate(567,350)" d="m0 0 4 1h-2l1 26 2 15 3 2 2 7 5 11 3-1 3 2 3 8 5 3 9 1-1 4-4-1 1 4-1 1h-7l-6-2-12-6-21-3-8-3-15-3-7-2h-8l-3-2 1-5 2-6v-9l-15-2-2-10-2-21-3-5 9 1h37l21-3z" fill="#6D594E"/>
<path transform="translate(597,666)" d="m0 0 8 8 3 42 1 19 1 13 1 9 3 21-2 8-4 6-7 4-13 4-20 3h-16l-22-3-13-4-5-4-3-6-1-6v-13l2-5 1-12h1l2 14 1 5 9 3 12 2h36l15-2 14-4 6-5 1-2-4 1h-7z" fill="#DBD5D2"/>
<path transform="translate(317,472)" d="m0 0 7 1v3l17 3 35 3 27 2 4 1-1 5-4 9-2 2-4-1-63-4-23-3-4 3-2-6-6-3h-5v2h-2l-1 7-3 17 2 6h9l4-4 5 5 8 5 6 2 32 3 32 2 7 1v7h-31l-28-2-26-1 1 7 4 5v6l6 2-2 3-6-1-5-5-2-7-1-10-2-5h-11l-2 3-1 5-2-4-4-9-4-11-6-1-38-3-28-2-5-1 3-2h21l30 2 8 1h12l3-4 4-8 2-1 4-7 6-10 2-3 17-1z" fill="#5B453B"/>
<path transform="translate(288,536)" d="m0 0h12l3 6 3 12 6 5 5-1-3-2-2-1-2-7-3-4v-7l3-1 35 2 40 2 7 1v10l-2 6-4 1-13 1-35 1-8 20-8 11-6 4h-19l-18-3 4-1 1-12 3-17z" fill="#DBD5D2"/>
<path transform="translate(388,583)" d="m0 0 1 3 4 1 5-1h2v10l5 10 4 5 1 6 1 1 2 12h2l1-7-2-6v-4l7-1 4 1v-4l5 1-3-3-2-6h-2v-2l7-4h12l8 4 8 9 4 7v8l-1 3h-2l-2 6-7 8-8 4h-8v-2h-6l-9-6-3-3 5 7 5 2v2l10 2h8l6-2 4-4 4 1-2 4-5 4-5 3-7 1v2h-9l6 2v2l7-2h8l3-1 1-3 5-4h2l2-5 1-4v-8l5 1 1 6-4 10-3 5h-2l-1 5-8 4-9 1-9-1-5-2-11-5-8-6v-3l-4-1-3-5-2-1v-2l-4-3-1-7h-2l-2-5h-2l-3-6h-1l-1-15 2-4h-4l-1-2v-9z" fill="#5F7187"/>
<path transform="translate(427,89)" d="m0 0 3 1-4 7-10 13h-2l-1 5-12 21-3 9-4 20-1 6v31l3 18 6 18-1 3-4-10v-2h-2l6 17 8 17 5 8v3l3 1v3h2v3l4 2 9 11 7 6 1 2 7 4 7 6 10 5v2h5l-4-4 5 2 17 8 9 3 15 3 9 1h27v2l-21 6h-20l-15-4-28-10-15-8-16-11-10-9-4-4-6-8-3-6-6-9-9-16-6-12-3-9-3-12-2-12v-35l2-17 7-20 10-21 6-4 2-4h2l2-4 5-5 4-5 5-2z" fill="#4F6D92"/>
<path transform="translate(529,38)" d="m0 0 13 1 17 4 11 2 12 5 17 9 5 3 4 4 8 5 13 12 9 10 2 2 3 7 9 15 8 16 7 17 5 17 3 16 1 10v11l-2 2-1-2-1 4-2 7-4 2h-3l-1 2-1-20-1-9 1-3h-2l-3-13-4-15-6-17-11-22-4-5-8-12v-3h-2l-3-9-14-14-15-10v-2l-5-2-14-7-11-5h-3v-2l-9-1-9-2-8-2-2-5z" fill="#147FA9"/>
<path transform="translate(486,600)" d="m0 0 6 1 6 10 2 10 2 7 1 14h7l7-6h2l2-7 2-3 1-7 3-7 5-4 4-1 3 5-2 8-3 6-2 1 1-7 1-6-1 1-4 11-3 10-7 11-8 9-5 2-1 2-5 3-12 6-3 6-8 3h-26l-15-4-6-3-2-3v-3l4 1 3-1h16l18-8 4-4 3-4 2-6v-5h2v-21l1-6h2l1-9z" fill="#40536F"/>
<path transform="translate(506,48)" d="m0 0h15l15 3 11 3 9 3 2 1v2l7 1 24 15 11 9 3 2v2l4 2 8 9 7 8 6 10 7 10 7 14 5 13 7 23 2 12v40l-3 15-3 7h-1l-1-14h-5l-1 3h-1v-11l1-7-9-1-1-2h10l1-1 1-20-9-1 1-2h3l2-9v-5l-2-7-7 1-14 4h-3v7l-3 5-5 1-2-1-4-7-5-8-6-1v2h-2v-5l1-1h6l4 4 4-1 2-3 6 1 4 2 8-1 4-2h10l-5-18v-2l-9 1 2-4 3-2-2-6-2-5-5-9-1-7h5l-3-7-7-9-9-10-8-8-13-9-12-8-16-8-15-4-9-2-4-2-29-2v-2z" fill="#191D25"/>
<path transform="translate(660,191)" d="m0 0h1l2 26 4-2h3l1-10 3-2 1 3v13l-1 1-4 22-4 18-11 22-10 14-5 8-8 8-11 9-10 9-18 12-1 33-3 5-10 7-4 3-2 4-2-2-2-15v-26l-20 4-9 1h-37l-3-2h33l21-3 8-3 1-2 14-5 4 1 4-3 9-2 8-5h2v-2l6-4 3-3 5-4h2l2-4 7-8 7-10 3-5h2l2-5 4-7 5-17 3-9 4-20 1-13z" fill="#3F5370"/>
<path transform="translate(659,550)" d="m0 0 1 2h2l2 4v6h1l2-7h14l47 5 7 1 2 4 1 5v-9l5 2 2 5 6-2-1-4 3-1 1 5 2 1 1 10h-2v-2l-5 1 3 2-2 4-2 1h-14v-2h-3l1 2h-17l-17-2v2l-6 1h-13l-6-3v-2h-16l-1 7-8 17-1-3 5-16 3-9 3-11-1-13z" fill="#A99D95"/>
<path transform="translate(424,79)" d="m0 0h5l-2 5-6 7-8 7-6 8-8 13-10 21-6 18-2 17v35l4 21 3 7 3 9 10 19 6 10 5 7-1 2-6-5-2-2-1 4-5-6-6-2 4 8-1 2-9-16-3-7v-17l-2 3v-10l-5-16-3-13-3-29v-16l3-10 6-2-1-2-3-2 2-2-1-4 5-10 5-13 2-4 3-3 1-4h2l2-5 13-13 11-7z" fill="#7194B6"/>
<path transform="translate(229,428)" d="m0 0h44l27 2 11 2 1 4-8 13-4 7-1-2h-2v-2l-9 3-3 3h-6l-5-1-12-3-4-4-4 2-8-1-4-2h-26-3v-3l7-10 7-7z" fill="#6D594E"/>
<path transform="translate(310,492)" d="m0 0 23 3 63 4 4 1-2 9-3 12-3 1h-10l-45-3-27-4-5-2v-11l3-8z" fill="#DBD5D2"/>
<path transform="translate(578,403)" d="m0 0 20 3 12 5 13 7 14 11 12 12 10 13 2 3v3l-3 1-4-2v-2l-10-3-1 2-4-1-4 3-5 1-11-5-6-2h-3l-15-12-5-3-3-4 1-2 5 1h7v-4l4 1 1-4h-9l-5-3-3-5-1-4-4-1-2 1-3-7z" fill="#AA9E96"/>
<path transform="translate(311,432)" d="m0 0 13 3 6 4 5 6 5 12 5 18v4l2 1-10-1-13-2-2-2 2-1-7-1-6 4-17 1-6 11-4 5-2 4h-2l-2 5-3 6-2 2h-12l-19-2-45-3 1-5 24 2 32 2 8 1h10l8-12 10-17 8-19 10-18 3-4z" fill="#DAD4D0"/>
<path transform="translate(542,143)" d="m0 0h2v2l3-1 4 3 3 5 9 10 1 5-3 5 6 2v2l4 1 4 3v2l4 2 3 7-1 5h-5l1-4 1-2-4-6v-2l-13-2-6 4-4 5-1 2 19 1-1 4h-5-4l-3 1v-2l-5 2 2 2h9l2-1 20 2-1 4h-21l-12 1 5 5v2l5 1 7 1 7-3 6-4 2 1-5 5-5 3-9 2-12-5-4-4-1-4-4 1-3 10-3 7v19l-3 1-2-2-2-12-4-2-1 1-1 14-4 2-7-1-1-5-3 1 2-4 2-9h-3l-1 9h-4l-2-7 1-5 3-2h21l5-10 1-10v-7l20-20 8-7-1-4-7-8-3-2-2 5-4 5-5 4-4 5h-2l-2 5-2 4-4 3-19 1v-2l8-1h10l4-2 1-11-2-5-3-3-1-5v-7l4-4h2l2 4 5 1 1-2 2 1-2 4-1 3 4 1v3l6-3v-9l-4-2z" fill="#6D92B5"/>
<path transform="translate(495,287)" d="m0 0h8l1 1 8 1v9l-2 1 3 1h22l2-8h2l2-4h2l1 3h8l1 5-1 3 7 2 3 2 1 12-2 5-10 4-29-1-7-1-2-2v-3l-3 3-3 1-13-1v-2h-2l-1-6h-2v-12l1-1h7v-2l-3-1v-7z" fill="#5D718A"/>
<path transform="translate(662,500)" d="m0 0h4v6l-3 3-5 12-4-4 1 8 3-1 3 4 3 1 1 17 2 5 6 1h9l1-1 2-10 4-10 2 3 1 4h5 4l2-1 3 2v2l9-1 18 1 7 2 3-4 2-15h2v14h2l3-3v27h-2l1 4-4 3-3-1-2-5-3-1v8l-2 3-1-9-3-3-14-1-38-4h-14l-2 7-2-2-1-9h-2l1-2 2 1-1-2v-10l1-5h-2l-2-4h-4l-3-8-2-15 5-3-2-2z" fill="#6C584D"/>
<path transform="translate(206,476)" d="m0 0 4 3h5l1 1 15 1 15 2 4 2 21 2 3-1 6 1 5-1-2 5-10 15-1 1h-10l-19-2-33-2-10-1-2-1 1-11 2-13 2 2z" fill="#6D594E"/>
<path transform="translate(430,595)" d="m0 0h12l8 4 8 9 4 7v8l-1 3h-2l-2 6-7 8-8 4h-8v-2h-6l-9-6-3-4v-9l-2-6v-4l7-1 4 1v-4l5 1-3-3-2-6h-2v-2z" fill="#C0B8B3"/>
<path transform="translate(309,536)" d="m0 0 36 2 40 2 7 1v10l-2 6-4 1-13 1-60 2 4-4-5-2-2-7-3-4v-7z" fill="#C3BBB6"/>
<path transform="translate(509,684)" d="m0 0 32 1-1 7 3 1 2 5 1 13 1 5v14h-4l-1 4v2h-2l-1 2h-5l-1 2-6-1v-2h-3l-3-7v-3l-4 1v-2h2v-2h2v-2h-3v-4h-4l-3-6-2-2z" fill="#584137"/>
<path transform="translate(569,34)" d="m0 0 5 1h4 3l10-1 15 5 17 9 16 12 12 11 8 8v2l-3 2-1 4-3 2h-11l-12-11-10-9-14-11-5-4-5-2-11-8-14-7z" fill="#137FAA"/>
<path transform="translate(296,486)" d="m0 0 5 1 5 5 1 6-1 4v11l15 3 16 2 45 3h13l-1 8 1 1v13l-2 2v-4h-8v-1h7v-7l-26-1-34-3-11-1-9-4-8-5-2-3h-2l-2 4h-9l-3-7 3-17 2-7h2v-2z" fill="#6D594E"/>
<path transform="translate(604,586)" d="m0 0h1l-1 10-3 11-5 11-1 5h-2v4h-2v6l-2 1-3 15h-2l-1 4-5 4h-3v2h-3v4h-3v2l-8 2-1 2h-5v2l-11 2v2l-6 1-3 1-17 1-13-2-9-2 5-7 7-3 25-1 9-1v-2l12-5 9-5 9-7 3-3h2l2-4 7-10 9-17 4-13h2l2-9z" fill="#31455F"/>
<path transform="translate(499,208)" d="m0 0h1v11h-2l-2 4-1 4h6l1-5 3-2h23l-2 2h-20l-3 2 1 7 1 4h2l1-9 2-1 2 1-1 9-3 4-1 3h-3v-6h-3v3h-2v5l-5-1-1-3 3-7-7 3-5 5h-2l-1 4-7 5-3 5-1 8h-2l-1-6-3-1-1 7-7 3-3 5h14l-2 5-4 3-10-2v-3l-6 4-8 7h-2l-1 5 1 3 4 2 9 7 1 2 7 4 9 6 5 6-6-1v-2l-4-1-8-5-9-7-4-2-5-5-11-12-4-4v-3h-2l-1-3-2-1-3-6-8-15-8-20v-4h2l4 10v2h2l6 14 9 15 11 14 4-1 5-4 4-5 4-4 7-8 6-8 2-8 9-2 6-9 5-5 7-9 4-4h2v-2l4-3z" fill="#252932"/>
<path transform="translate(640,576)" d="m0 0h11l4 2v5l-3 8-4 14-11 16-12 14-11 10-9 7-11 8 2 5-30 14-17 5-11 1h-27l-2-1-1 3v-7h-5v-1l7-1 6 1h25l12-2 10-5 8-3 8-2 2-4 5-1 6-2 2-4 2-3h2v-2l6-1 2-4 4-5h2l1-5h3v-2h2l2-4 7-11 5-15 7-26z" fill="#617289"/>
<path transform="translate(658,234)" d="m0 0h1l-1 10-4 17-5 14-3 9-5 8-1-4 5-7 1-9h-2l-1 6-3 3-2 5-4 5-2 3h-2l-2 4-4 5h-2l-2 4-9 2-12 5-11 7-9 4-3-1 10-6 9-6 11-9 9-11 7-10 6-12v-3h3l2-9 3-8 3-7 1-6 2 3 3-3 4 1 1 13 2-2v6l2-2 2-12z" fill="#7092B3"/>
<path transform="translate(665,489)" d="m0 0h5 3l9 3 10-1v2l-8 1-2 2h-9l-2 2v6l-3 1-1 8 5-5 3-2h11l2 1 1 13-2 15-3 16-2 2h-12l-4-2-2-5v-17l-4-1-3-3h-2l-1-2v-6l4 1 5-10h2l1-8-18 4v-3l5-1 3-1 1-2 4 1 3-1 2-5-3-1h2z" fill="#C2BAB5"/>
<path transform="translate(478,174)" d="m0 0h6l9 6 6 9 2 1-2 2-1 7v8l1 5-3 3-2-1 3-4-10 5-9 1-10-4-6-7-1-2v-17l3-6h2v-2l6-3z" fill="#D6D8DB"/>
<path transform="translate(548,589)" d="m0 0h3v9l-2 6-1 9-1 1-1 8 4-2-1 5-4 8-6 10-9 9-5 4-5 3h9l14-3 3 1-3 2h-3v2l-7 1v2l-25 1-11 5-6 8-6-3 3-7 10-5 4-3h3l1-3 6-3 9-11 5-9 4-15 3-6 2 1-2 12 4-8 1-4 1-19h2v-3z" fill="#5C6E85"/>
<path transform="translate(395,245)" d="m0 0 3 4 4 8v2h2l1 3 5 2 4 7v3l3 1v3h2v3l4 2 9 11 7 6 1 2 7 4 7 6 10 5v2h5l-4-4 5 2 17 8 9 3 15 3 9 1h27v2l-21 6h-20l-15-4-28-10-15-8-9-6 2-1 2 1v-2l-4-2-5-3-2-3-4-2-4-4-3-5-10-13-9-15-7-13z" fill="#6C90B2"/>
<path transform="translate(322,473)" d="m0 0 3 1-1 2 17 3 35 3 27 2 4 1-1 5-4 9-2 2-4-1-63-4-23-3-3 2 2-6 1-2h2v-2l14 2 2 1v2l9 2h17l16 2h16l-1-3h-3l-5-1-16-1-20-1h-4l-5-3v-4l-12-1-4-2 1-3z" fill="#6E5A4F"/>
<path transform="translate(277,512)" d="m0 0 2 1v5h3l1-4 2 1 2 5 7 3 4-1 3-4h2l5 8 5 2 42 4 22 1 15 2v5h-31l-28-2-26-1 1 7 4 5v6l6 2-2 3-6-1-5-5-2-7-1-10-2-5h-11l-2 3-1 5-2-4-4-9-5-12 1-2z" fill="#2E2222"/>
<path transform="translate(405,581)" d="m0 0h7l6 4 2 2 6-4h3l1 2 8 1v2l5 1 8 4 7 8 5 10-1 3-4-4-6-8-3-3-7-3h-12l-5 3h-2v2h2l4 7 2 2h-3l-3-1v4h-11l3 10-1 5-1 2h-2l-2-5-1-7-4-10-6-9-1-3v-7l3-6z" fill="#5A4339"/>
<path transform="translate(424,79)" d="m0 0h5l-2 5-6 7-8 7-6 8-8 13-10 21-6 18-2 9-2 4-1 13h-1l-1-22 1-2h-6l1-7 6-2-1-2-3-2 2-2-1-4 5-10 5-13 2-4 3-3 1-4h2l2-5 13-13 11-7z" fill="#D7E0E9"/>
<path transform="translate(308,496)" d="m0 0 13 1 17 3 20 2 37 3 2 3-2 6-11 1-45-2-32-3-1-1 1-12z" fill="#FCFCFC"/>
<path transform="translate(692,491)" d="m0 0 5 1v4l6 3 3 2 15 1 16 2 17 1 6 3 2 4-4 9-2-1v-3h-9l-1-1-16-3h-9l-14-2-1-1-10-2-2-3-3 5h-2l-3-3h-11l-5 5-3 1 1-8 2-1v-6l4-3h9v-2h9z" fill="#6C584D"/>
<path transform="translate(567,350)" d="m0 0 4 1-3 3v30l-4-4-1-5h-6l-1-1h-6l-12-3-9-2-9-1-9-4-1-4-8 1v-2h-2v-2l-6-2v-1l9 1h37l21-3z" fill="#584137"/>
<path transform="translate(597,666)" d="m0 0 8 8 3 42 1 19 2 26-1 2h-2v-2l-4 1h-7z" fill="#C3BBB5"/>
<path transform="translate(417,80)" d="m0 0 2 1-5 5-9 7-7 8-4 4-3 4-2 5h-2l-3 9-7 17-1 3 1 3-2 1 3 2v2l-5 2-3 10v16l3 29 5 20 3 9v6l2 1v17l-3-3-7-19-5-22-3-32v-13l3-19 5-16 5-13 11-20 10-13 8-8 4-1z" fill="#557396"/>
<path transform="translate(659,550)" d="m0 0 1 2h2l2 4v6h1l2-7h7l6 2 1 5h2l2-3 3 2 5 16 8 1 21 3 1 2-15-1-9-1v2l-6 1h-13l-6-3v-2h-16l-1 7-8 17-1-3 5-16 3-9 3-11-1-13z" fill="#C3BBB6"/>
<path transform="translate(537,29)" d="m0 0h33l14 3 4 2-4 2-5-1-2 2-8-3 4 4 14 7 13 10 3 2 2 4 2 1-1 2-22-12-11-5-19-6-16-3-7-1-23-1v-1z" fill="#D8E1EB"/>
<path transform="translate(327,540)" d="m0 0h58l7 1v10l-2 6-10 1v-1l-12-3-17-3-6-1h-12l-5-3-1-4h-2l1-2z" fill="#DAD4D1"/>
<path transform="translate(624,463)" d="m0 0 6 2 6 5v2l4 2 4 4 2 7 3 1 2-4 7-1 2-6 5-2h6l5 10 3 8-7-1-2 1v-2h-5l1 5-5 5-1-2h-3l-1 3-4 2-6-1-7-14-7-10-7-9z" fill="#D9D3D0"/>
<path transform="translate(586,345)" d="m0 0 3 1 1 27 1 5-7 6-9 6-2 4-2-2-2-15v-25l10-4z" fill="#AA9E96"/>
<path transform="translate(508,188)" d="m0 0h14l5 5 2 5v8l-2 9-3 2-11 1-8-3-3-7-3-9 2-6 5-4z" fill="#6B574C"/>
<path transform="translate(541,200)" d="m0 0 4 1v2l16-1 1 2-12 1 5 5v2l5 1 7 1 7-3 6-4 2 1-5 5-5 3-9 2-12-5-4-4-1-4-4 1-3 10-3 7v19l-3 1-2-2-2-12-4-2-1 1-1 14-4 2-7-1-1-5-3 1 2-4 2-9h-3l-1 9h-4l-2-7 1-5 3-2h21l3-1 3 1v-2h2l2-12z" fill="#6E7886"/>
<path transform="translate(557,301)" d="m0 0 5 2 1 12-2 5-10 4-29-1-7-1-2-2-1-5 2-2 3 6 10 2h14l-2-4 1-7h2v6h5v-6l2-1 2 1v3l3 1 1-7-5 1h-16l3 9 2 3h-10l-9-5-1-7h-5l-1 2-6-3-1 1h-6l-2-4 17-1 18 1h22z" fill="#7192B2"/>
<path transform="translate(288,536)" d="m0 0h12l3 6 3 12 2 3-17-1v9l3 9 5 12v3l4 2 9 2-1 2h-14l-18-3 4-1 1-12 3-17z" fill="#C3BBB6"/>
<path transform="translate(569,649)" d="m0 0h3v3h-2l-1 3-2 1v3l-5 4-8 4-11 5-18 4-9-2-2 1-8-1v-2l-4-1 4-6 2-1 25-1 9-1v-2l12-3 10-6z" fill="#213347"/>
<path transform="translate(619,125)" d="m0 0h2l3 6v3l3 1 6 12 5 19 3 6 3 16 1 8v24l-1 1-1 8h-1v-6l-9-1-1-2h10l1-1 1-20-9-1 1-2h3l2-9v-5l-2-7-7 1-14 4h-3v7l-3 5-5 1-2-1-4-7-5-8-6-1v2h-2v-5l1-1h6l4 4 4-1 2-3 6 1 4 2 8-1 4-2h10l-5-18v-2l-9 1 2-4 3-2-2-6-2-5-5-9z" fill="#858589"/>
<path transform="translate(676,215)" d="m0 0 2 4 1 5v27l1 4 2 2-6 9-11 13-22 22v-3l6-9 6-8 10-21 5-16 3-12z" fill="#D8E1EB"/>
<path transform="translate(507,53)" d="m0 0h17l16 3 15 4 19 10 12 8 12 9 14 14v2h-2l-4-4h-3l-10-9-15-10-4-2v-2l-5-1-2-1v-2l-6-1-14-6-11-3-4-1-6-1-16-1-3-1v-2l-2-1z" fill="#E1E2E4"/>
<path transform="translate(587,587)" d="m0 0 2 1-2 11-7 11-3 9-2 1-2 9-1 3h-2l-1 4h-2l-2 5-4 2v2l-18 10h-3l2-4 5-5 8-11 6-10 8-12 12-17 5-8z" fill="#213347"/>
<path transform="translate(618,632)" d="m0 0 1 3-6 8-3 5-13 10-3 3 2 4-30 14-17 5-11 1h-27l-2-1-1 3v-7h-5v-1l7-1 6 1h25l12-2 10-5 8-3 8-2 2-4 5-1 6-2 2-4 2-3h2v-2l6-1 2-4 4-5h2l1-5h3v-2h2z" fill="#617288"/>
<path transform="translate(764,521)" d="m0 0 4 1 4 8 1 8v9l-3 15-2 5-4 2-4-1-3-5-1-5v-15l4-15z" fill="#352929"/>
<path transform="translate(383,596)" d="m0 0 3 1 2-1 1 3-2 3 1 14 2 2 1 5h2l2 5h2l3 8 3 2-1 2 4 2 1 4 4 1 1 3 8 6 15 6 9 1 1 2-2 1h-8l-2-1-1 2-4-2 2 6-12-6-10-8-7-7-9-14-6-12-2-6-1-7z" fill="#4F6C8F"/>
<path transform="translate(641,298)" d="m0 0 2 1-3 5-8 8-11 9-10 9-18 12-1 33-2 2-1-4-1-27-9 3-7 3-5-1-6 2-21 3h-37l-3-2h33l21-3 8-3 1-2 14-5 4 1 4-3 9-2 8-5h2v-2l6-4 3-3 5-4h2l2-4 7-8 5-5h2z" fill="#242A36"/>
<path transform="translate(474,177)" d="m0 0h9l6 4 6 8 1 2v12l-2 4-2-2-2-6-3-5-2-1-3-7-6-2-4 5v15h11l4-3v9l-2 3h-9l-9-5-3-5-1-11 3-9h2l2-4z" fill="#D8E0E8"/>
<path transform="translate(548,589)" d="m0 0h3v9l-2 6-1 9-6 10-4 8-5 9-7 4-11 13-5 5-3 1 2-4 6-5 4-6 3-7 4-7 4-15 3-6 2 1-2 12 4-8 1-4 1-19h2v-3z" fill="#63768D"/>
<path transform="translate(506,48)" d="m0 0h15l15 3 11 3 9 3 2 1v2l7 1 24 15 11 9 3 2v2l4 2 8 9 7 8 3 7v5l2 1 4 8-1 5h-2l-4-7v-5l-3-1 2-1-3-7-7-9-9-10-8-8-13-9-12-8-16-8-15-4-9-2-4-2-29-2v-2z" fill="#3C4F68"/>
<path transform="translate(317,472)" d="m0 0 5 1-1 2-4 1-1 2 16 2 2 2-1 3 5 2 3-1v2l6-1 29 2h5l2 2h3l1 4h-21l-13-2h-16l-9-3v-2l-11-1-5-2v2h-2l-3 9h-1v-8l2-7 7-8z" fill="#584137"/>
<path transform="translate(295,464)" d="m0 0h1v8l17 3-2 2-17 1-6 11-4 5-2 4h-2l-2 5-3 6-2 2h-12l-19-2-45-3 1-5 24 2 32 2 8 1h10l8-12 10-17z" fill="#B8AEA8"/>
<path transform="translate(499,208)" d="m0 0h1v11h-2l-2 4-1 4h6l1-5 3-2h23l-2 2h-20l-3 2 1 7 1 4h2l1-9 2-1 2 1-1 9-3 4-1 3h-3v-6h-3v3h-2v5l-5-1-1-3 3-7-7 3-6 5-4-3-4 1-2 4-2 1 2-5 6-8 5-5 4-5 4-4h2v-2l4-3z" fill="#30282A"/>
<path transform="translate(711,515)" d="m0 0 9 2v10h2v-6l2-4 10 1 3 2v8l-4 7-3 1-2-2-5 3-3-6-4 3h-5l-4 2-1-2v-12l3-6z" fill="#C2BAB5"/>
<path transform="translate(490,501)" d="m0 0 14 1 25 3 6 3 5 10-1 6 2 1-1 2-6-1-7-6-5-4-23-9-10-2z" fill="#6D92B5"/>
<path transform="translate(659,529)" d="m0 0 2 2v3h2v17l-3-1v-2h-2l1 14-2 4-4-1-7 2-2-3-1-9-1-5 6-11 7-3 2-6z" fill="#31455F"/>
<path transform="translate(502,36)" d="m0 0h29l18 3 14 4-4 1-17-4-13-1 1 4-4 1h-24l-14 2-12 2-7 1-5 2h-5v-3l17-6 20-5z" fill="#516F93"/>
<path transform="translate(468,510)" d="m0 0h9l4 3-1 4 3 3 14 5 4 5v2l-5-1-12-6-9-3-17-3h-14l-13 4-10 7-7 5 2-5 16-11 10-5 9-2z" fill="#6D92B5"/>
<path transform="translate(310,492)" d="m0 0 23 3 63 4 4 1-2 9-2 3v-5l-1-1-37-3-26-3-17-3h-8l2-4z" fill="#C1B8B3"/>
<path transform="translate(590,576)" d="m0 0 2 1-1 15-2 6v9l-3 7-3 9-7 9h-2l-2 5-5 4-2-1 2-4h2l1-4h2l1-8 3-5 3-9 7-11 2-11-4 4-4 7-13 18-5 8-1-3 11-17 4-6 4-11 3-4 3-2 3-5z" fill="#31455F"/>
<path transform="translate(395,229)" d="m0 0h2l4 10v2h2l6 14 9 15 11 14 6 2-1 4 1 3 4 2 9 7 1 2 7 4 9 6 5 6-6-1v-2l-4-1-8-5-9-7-4-2-5-5-11-12-4-4v-3h-2l-1-3-2-1-3-6-8-15-8-20z" fill="#32465D"/>
<path transform="translate(540,64)" d="m0 0h7l9 4 11 4v2l7 2v2l6 2 15 11 12 11 5 5 5 7-1 4-5-5-14-15-13-11-8-5-9-2-2 4-3 8-2 9-4 1 1-10 3-5 2-8-5-3-3-3-12-6v-2z" fill="#4C5D75"/>
<path transform="translate(509,464)" d="m0 0 9 1 13 4 16 9 11 8 10 9v2l3 1 7 10-1 2-11-11-10-8-13-8-11-5-13-5-16-3-2-4z" fill="#6D92B5"/>
<path transform="translate(525,440)" d="m0 0h8l12 3 6 2 1 3h5l7 4 12 8 6 5v3l4 2-1 2-11-4v-2h-4v-2l-7-2-5-4-25-11-14-4 3-2z" fill="#6D92B5"/>
<path transform="translate(515,525)" d="m0 0h5v3l-6 4-1 6 4-3 5-2 2-3 4 1 1 3 5 2v4l-7 6h-4v-5l-7-1 5 5 4 6 8-6 5-3 2 2v3l-9 5-4 1 5 12-4-2-7-11-6-7-7-6-5-6v-2l9-4z" fill="#6D92B5"/>
<path transform="translate(426,583)" d="m0 0h3l1 2 8 1v2l5 1 8 4 7 8 5 10-1 3-4-4-6-8-3-3-4-2v-2l-6-1h-12l-5 4h-2l-2 4-4 5h-3l-1-2-5-3v-6l3 2h5l2-5 6-3-2-2z" fill="#334358"/>
<path transform="translate(689,524)" d="m0 0 2 1 2 6 4-2 3 4 3-4 2-5h1l1 10h3l3-1 4-1 3-2 3 6 6-3 1 3 5-5 2-1 3 8 2-2 2-4v7l-4 5-8-2h-7l-11-1h-8l-3-3-5 2-4-1-3-1-2-6-3 9-1-3z" fill="#AA9E96"/>
<path transform="translate(431,596)" d="m0 0h14l6 4 7 8 4 7v8l-4 1-16 2-11-2-10-5v-3l5 2 10 1h14l6-2-3-6v-2h-3l-4-4-6-3-11-1-3-2z" fill="#DBD7D5"/>
<path transform="translate(561,179)" d="m0 0 9 1 4 2 5 8-3 6 5-1 2-2v7h-9l-11-1-4 1h-6l-3-3 3-2 4 1 5-2 1 1h5l1-3-8 1-11-2 2-5 7-6z" fill="#8B9098"/>
<path transform="translate(308,496)" d="m0 0 13 1 17 3 20 2 37 3 2 3-2 6-11 1-45-2-32-3-1-1v-6h1l1 5 52 2 24 1 7-1-9-3-24-1-6-2-5-1-16-1-12-3-9-1z" fill="#EBEEF1"/>
<path transform="translate(646,270)" d="m0 0 1 3-1 8-5 7-3 7-6 9-7 9-5 2-5 5-8 1-1 2-2-6-2-1v2l-4 2-4-1 4-3 5-2 4-1 2 5h2v-2l3-1 2 1 1-3 3-3h2v-2l-7 6h-2v-2l-3 1-4-3 7-3 7-1 2-3h2l2-4 4-5h2l2-4 2-5 2-1 3-5 3-7h2z" fill="#C3BCB9"/>
<path transform="translate(560,174)" d="m0 0 6 2-3 3-8 5-4 5-1 2 19 1-1 4h-5-4l-3 1v-2l-5 2 2 2h9l2-1 20 2-1 4h-20l-3-1h-15v-2h-2v-4l-3-1 1-3 3-3 3-5 10-9h3z" fill="#5F7187"/>
<path transform="translate(304,507)" d="m0 0h1l1 6 15 3 16 2 45 3h13l-2 5h-21l-48-4-11-3-8-3-1-1z" fill="#AA9E96"/>
<path transform="translate(495,287)" d="m0 0h8l1 1 8 1v9h-3v2l-18 1-1 3 5 1 3 6h9l2 1v4l-2 1h-9v2l12-1v2l-3 1-13-1v-2h-2l-1-6h-2v-12l1-1h7v-2l-3-1v-7z" fill="#A89E99"/>
<path transform="translate(659,550)" d="m0 0 1 2h2l2 4v6h1l1-6 2 2 1 9 2 6 4 1 7 5v3h2v2l-7-1-3-2v-2h-16l-1 7-8 17-1-3 5-16 3-9 3-11-1-13z" fill="#ADA29A"/>
<path transform="translate(447,627)" d="m0 0h4l1 6-2 4-5 3-3 3v1h-8v-2h-6l-9-6-2-4 2-1 4-1v-2l9 1 10-1z" fill="#A99D95"/>
<path transform="translate(695,491)" d="m0 0 7 1 12 5 40 6 8 3 7 8 3 8 1 7v9h-1l-2-10-3-6-3-1v-5l-4 1 1-6-4-4-3-1-29-2-4-1-15-1-4-2-7-4 2-1v-3z" fill="#B1A7A0"/>
<path transform="translate(460,535)" d="m0 0 8 1 12 3 10 7 5 5 1 6-5 1-3-3-12-5-7-4-9-4-6-2 1-4z" fill="#6D92B5"/>
<path transform="translate(761,516)" d="m0 0h3v6l-4 9-3 12v15l3 9 4 1 3-1-1 5-7 9-8 3h-20v-3l2-1 4 2h12l4-4-5-1 3-2h4v2h2l-1-3v-7l-3-1v-25l3-15 3-9z" fill="#C1B9B4"/>
<path transform="translate(488,327)" d="m0 0 8 1 15 3 9 1h27v2l-21 6h-20l-9-2 2-2-13-5 4-1 1-2z" fill="#6C91B4"/>
<path transform="translate(430,595)" d="m0 0h12v1l-11 1-4 2 2 1 11 1 9 5 3 4-1 3-7 1v-2l-7 2h-9l-9 2-1 3 5 6-4 3-3-1-2-14 7-1 4 1v-4l5 1-3-3-2-6h-2v-2z" fill="#A79A92"/>
<path transform="translate(410,630)" d="m0 0 4 2 9 9 3 1v2l10 2h8l6-2 4-4 4 1-2 4-5 4-5 3-7 1v2l-7-1-10-4-8-6-5-8z" fill="#6C90B3"/>
<path transform="translate(414,106)" d="m0 0 1 4-5 10-9 16-3 9-4 20-2 12-1 30-3-1v-36l3-17 5-14 4-11 5-8 2-5 3-3z" fill="#405670"/>
<path transform="translate(291,492)" d="m0 0h12l2 1-1 13-4 9-5 1-6-1-2-5 1-11z" fill="#F9F9F9"/>
<path transform="translate(527,62)" d="m0 0 1 2 5-1v2l4-1v2l8 1-2 3 1 1-1 11-3-1v-10l-5-2v3l-6 2-4-4-2 3v-4l-2 1-3 9-2-1-1-7-5 3v-2l-9 1-3 4-1-9 4-2 7 2 4-2v-2l10-1z" fill="#C1BDBB"/>
<path transform="translate(585,413)" d="m0 0h3l3 8 5 3 9 1-1 4-4-1 1 4-1 1h-7l-6-2-12-6-11-2-1-2 12-2v-2z" fill="#6C584D"/>
<path transform="translate(540,545)" d="m0 0 4 4 1 4v7h-2l-2 4-5 4v5h5l-1 7 2 1-1 7-5-5-3-10-4-7 1-2-1-4-2-7 9-5 4-1z" fill="#7497B8"/>
<path transform="translate(309,536)" d="m0 0 36 2v1h-28l2 5 6 5 5 2 6 5-1 2-6 1h-12v-2l-5-2-2-7-3-4v-7z" fill="#AA9E96"/>
<path transform="translate(487,643)" d="m0 0 1 2 4 2 2 4h-2l-1 6-4 3h-3v2l-6 3-1 2-12 3-3 1-11 1-4-2 4-1v-2l6-2 10-2 1-2 10-5 2-2h3v-2h2l1-8z" fill="#31455F"/>
<path transform="translate(527,145)" d="m0 0h2l2 4 5 1 1-2 2 1-2 4-1 3 4 1v3l6-2-3 4h-4l-1 4-5 5-2 6-2 4-4 3-19 1v-2l8-1h10l4-2 1-11-2-5-3-3-1-5v-7z" fill="#98979A"/>
<path transform="translate(499,148)" d="m0 0 6 1 8 6 2 4v7l-4 3h-2v2h-12l-5-3-3-5-1-5 2-1 4 8 3 2 10 2v-2l5-2-1-4-3 2h-9l-5-5-3-1 1-5z" fill="#C3BCB8"/>
<path transform="translate(417,80)" d="m0 0 2 1-5 5-9 7-7 8-4 4-3 4-2 5h-2l-3 9-7 17-1 3 1 3-2 1 3 2v2l-5 2-2 2 1-9 5-13 1-1v-8l11-20 10-13 8-8 4-1z" fill="#647B95"/>
<path transform="translate(402,119)" d="m0 0h3l-2 5-5 11-5 16-3 13-2 9-1 43-1 3-2-7-1-12v-17l2-19 2-11 8-18 3-9 2-1z" fill="#6C90B2"/>
<path transform="translate(288,536)" d="m0 0h12l3 6 3 12 2 3-15-2-3-1-2 15h-1z" fill="#AA9E96"/>
<path transform="translate(665,489)" d="m0 0h5 3l9 3 10-1v2l-8 1-2 2h-9l-2 2v6l-3 1-1 8 4-2-2 6-1 2h-2l-1-6h-3l-3 12h-4l-1-2v-6l4 1 5-10h2l1-8-18 4v-3l5-1 3-1 1-2 4 1 3-1 2-5-3-1h2z" fill="#ACA098"/>
<path transform="translate(519,461)" d="m0 0h9l14 5 16 9 10 7v2l3 1v2l4 2 9 12-1 2-7-8-14-11-7-5-16-8-11-5-8-3z" fill="#6C91B4"/>
<path transform="translate(664,251)" d="m0 0h2l-1 8-2 8-8 15-10 14-1 2h-3l-1 2-6 4 1-5 4-7h2l2-5 5-6 3-3 7-14 3-7z" fill="#283A4E"/>
<path transform="translate(428,102)" d="m0 0 4 1-3 9-4 4-1 2h-2l6 7v2l-5-2-4-3h-2l-2 10-2 3v4l5 4-1 3-2-2h-9v-5l3-9 10-19 4-6 2-1z" fill="#6F92B3"/>
<path transform="translate(619,125)" d="m0 0h2l3 6v3l3 1 6 12 5 19 3 6 3 16 1 8v24l-1 1-1 8h-1v-6l-9-1-1-2h10l1-1 1-20-9-1 1-2h3l2-9v-5l-2-7h-7v-2h-5v-1h10l-5-18v-2l-9 1 2-4 3-2-2-6-2-5-5-9z" fill="#6F839A"/>
<path transform="translate(551,88)" d="m0 0 5 1 1 1-1 12 4-2 4-1-3-1 6-1 3 4h-3l2 4h-2v4l-3 1h-9v6l-5-5v-3l-4-1-1-4 4-2v-4-2l4-3z" fill="#E8EBEE"/>
<path transform="translate(597,666)" d="m0 0 5 5 2 3v19l-2 22-1 4h-3l-1-14z" fill="#DAD4D1"/>
<path transform="translate(548,589)" d="m0 0h3v9l-2 6-1 9-6 10-4 8-2 3-3-4 5-9 2-8 1-17 3-5z" fill="#C7C0BC"/>
<path transform="translate(449,552)" d="m0 0 8 1 13 5 10 7 4 4-2 4-8-3-15-8-15-5v-4z" fill="#6D92B5"/>
<path transform="translate(468,184)" d="m0 0 3 1 1 19h11l4-3v9l-2 3h-9l-9-5-3-5-1-11 2-6z" fill="#E7EAED"/>
<path transform="translate(608,771)" d="m0 0 5 1 1 6-2 8-4 6-5 1-7-1v-8l3-6 5-3 1-2h3z" fill="#C4BCB7"/>
<path transform="translate(567,350)" d="m0 0 4 1-3 3-1 15-2-3-2-10-12 3-25 1-20-1-8-2-4-3 9 1h37l21-3z" fill="#242329"/>
<path transform="translate(507,53)" d="m0 0h17l16 3 15 4 4 3-8 1-5-2v2l-10-2-4-1-6-1-16-1-3-1v-2l-2-1z" fill="#D6DDE5"/>
<path transform="translate(541,200)" d="m0 0 4 1v2l16-1 1 2-12 1 5 5v2l5 1 7 1 7-3 6-4 2 1-5 5-5 3-9 2-12-5-4-4-1-4-4 1-3 10-3 7v19l-3 1v-20h-11v-1l8-2 3 1v-2h2l2-12z" fill="#979CA3"/>
<path transform="translate(516,307)" d="m0 0 4 1 1 7 8 4h9l-3-4-1-7 21-1v8l-4-2v-3h-3l-1 6h-5v-6h-2v7l1 3 2 2h-16l-11-2-2-4v-8z" fill="#516D8E"/>
<path transform="translate(306,498)" d="m0 0h1v15l18 1 54 4h14l3-2-1 5-3 1h-10l-45-3-27-4-5-2v-11z" fill="#C2BAB5"/>
<path transform="translate(693,507)" d="m0 0h2l1 5 9 2v10l-2 6-4 4-2-5-5 3-1-2v-14z" fill="#DCD6D3"/>
<path transform="translate(505,185)" d="m0 0h20l4 4 4 2-2 8-3-1-3-7-3-2h-14l-6 4-2 6 3 9 1 9h-2l-1 4-3 6-3 1-1-2 4-7h2l-1-6 1-5-3-1v-8l1-7 5-5z" fill="#1F1E22"/>
<path transform="translate(472,114)" d="m0 0 7 1 2 3 1 13-5 4h-6l-3-5v-13z" fill="#2B323E"/>
<path transform="translate(618,120)" d="m0 0 4 1 2 1 2 6 2 3v3l4-3 6 12 1 8 4 9v2h2l-1 6-2-2-3-9h-2l2 10-2-1-6-22-5-9-2-1-3-6v-3h-2z" fill="#273A50"/>
<path transform="translate(649,202)" d="m0 0 2 2v26l-1 7v8h-1l-1-7h-5l-1 3h-1v-11l1-1 1-8 1-1 1-15h1l1 7 1-2v-7z" fill="#20232C"/>
<path transform="translate(202,507)" d="m0 0h21l30 2 8 1v2h11v2h-18l-33-3-17-1-5-1z" fill="#3C2F2D"/>
<path transform="translate(295,464)" d="m0 0h1v8l17 3-2 2-17 1-6 11-4 5-2 4h-2l-2 5-3 6-2 2h-12l4-2-1-2 8-1 8-12 10-17z" fill="#BCB3AD"/>
<path transform="translate(562,203)" d="m0 0 16 1-1 6-6 4-9 1-7-3-5-5v-3z" fill="#D9E1EA"/>
<path transform="translate(427,89)" d="m0 0 3 1-4 7-10 13-2-3-5 8h-2l-1 5-4 1-2 6-3 4-2 2h-3l2-6 5-10 6-4 2-4h2l2-4 5-5 4-5 5-2z" fill="#60768F"/>
<path transform="translate(378,126)" d="m0 0h1v6l-4 8-3 11-2 12v16l1 7v11l-3-3-1 5h-1l-1-14v-13l3-19 5-16 4-10z" fill="#657891"/>
<path transform="translate(665,260)" d="m0 0 3 1 2 8-7-1 4 4v2l2 1-7 8-8 7-11 11v-3l6-9 6-8z" fill="#D7E0EA"/>
<path transform="translate(311,476)" d="m0 0 2 1-5 5-2 10-7-5h-6v2h-2l-1 4h-2l-1 4h-1v-7l6-10 2-3z" fill="#584137"/>
<path transform="translate(478,174)" d="m0 0h6l9 6 6 9 2 1-2 2-1 7v8l1 5-3 3-2-1 3-4-6 3h-3v-14h3l3 7 1-3v-12l-6-9-6-4-11-2v-1z" fill="#ACA4A0"/>
<path transform="translate(487,161)" d="m0 0 5 4v3l5 2v2h5l1 4-2 6-1 1h-6l-5-5-6-4 2-4z" fill="#E7EBEF"/>
<path transform="translate(591,592)" d="m0 0h2l-1 6v9l-4 10-7 12-4 6-9 7-2 3-5 2-10 6-6 3h-7l1-4h3l-2 3 14-7 4-3h3v-2l8-5 3-1 2-5 5-5 5-8 2-6 2-9 1-10z" fill="#40536F"/>
<path transform="translate(588,338)" d="m0 0 2 1v2l-7 1v2l-16 7-6 2-21 3h-37l-3-2h33l21-3 8-3 1-2 14-5 4 1 4-3z" fill="#6B87A4"/>
<path transform="translate(533,140)" d="m0 0 9 2 2 5 3 3v7l-5 4-3-1v-3l-3-1 1-4 2-3-8 1-2-2v-3l-3 1 1-3z" fill="#A7A7A9"/>
<path transform="translate(451,609)" d="m0 0h2l4 8-2 2-7 1h-17l-7-2-3-3 7-2h10l1-1h5v2l4-2h3z" fill="#C2BAB5"/>
<path transform="translate(557,306)" d="m0 0h2l1 9-1 2h-3l-1 3-8 2v1h-25l-7-1-2-2-1-5 2-2 3 6 10 2h14l-2-4 1-7h2v6h5v-6l2-1 2 1 2 5 3 1v-8z" fill="#7A9BBB"/>
<path transform="translate(662,500)" d="m0 0h4v6l-3 3-5 12-4-4 1 9h2l-1 3-2-1-3-12-1-9 5-3-2-2z" fill="#6B5A51"/>
<path transform="translate(505,220)" d="m0 0h23l-2 2h-20l-3 2 1 7 1 4h2l1-9 2-1 2 1-1 9-3 4-1 3h-3v-6h-3v3h-2v5l-5-1-1-3 3-7-3-1 4-2v-2l4-1 1-5z" fill="#494A52"/>
<path transform="translate(637,157)" d="m0 0h2l5 12 3 10 2 16 1 5-1 6v5l-3 4-4-34-4-17z" fill="#171A21"/>
<path transform="translate(545,396)" d="m0 0h27l1 2v8l-4 3-6-1-2-4-5-2-9-4z" fill="#584137"/>
<path transform="translate(463,621)" d="m0 0h1l-1 8-6 9-5 6-3 2-5 1h-8l-10-3v-2l-5-1-6-8 1-2 3 3v2l5 2 4 3 6 1v2l11-2 6-4 5-6 3-6h2l1-4z" fill="#3E516C"/>
<path transform="translate(461,511)" d="m0 0h6v2l-6 2-1 3 8 1v1h-7l-3-1h-14l-13 4-10 7-7 5 2-5 16-11 10-5 9-2z" fill="#6D92B5"/>
<path transform="translate(772,539)" d="m0 0h1v8l-3 15-2 5-4 2-4-1 4-1-2-7-2-3v-7l4-5h3l1 2 3 1z" fill="#746156"/>
<path transform="translate(421,590)" d="m0 0h13l6 2v1l-13 1-5 4h-2l-2 4-4 5h-3l-1-2-5-3v-6l3 2h5l2-5 4-2z" fill="#2F2323"/>
<path transform="translate(665,523)" d="m0 0 2 1 4 13v11h3l1 3h6l2-7h1v7l-2 2h-12l-4-2-2-5v-17l-4-1z" fill="#AA9E96"/>
<path transform="translate(437,181)" d="m0 0h6v3l-5 2 5 3 3 5v5l-3 3h-7l-3-3v-15z" fill="#6D8299"/>
<path transform="translate(519,646)" d="m0 0v3l-6 8-5 4-2 5-9 4-6 8-6-3 3-7 10-5 4-3h3l1-3 6-3z" fill="#566E8C"/>
<path transform="translate(490,299)" d="m0 0 4 1-3 1-1 3 5 1 3 6h9l2 1v4l-2 1h-9v2l12-1v2l-3 1-13-1v-2h-2l-1-6h-2v-12z" fill="#B6ACA5"/>
<path transform="translate(303,519)" d="m0 0 5 2 10 5 3 1 32 3 32 2 7 1v2h-11l-4-1-22-1-43-4-5-3z" fill="#584137"/>
<path transform="translate(563,179)" d="m0 0 9 2 5 5 2 5-5 3h-3l-1-2-10-1-2-1 1-5z" fill="#D9E1EA"/>
<path transform="translate(427,593)" d="m0 0h12l6 2-3 1h-12l-5 3h-2v2h2l4 7 2 2h-3l-3-1v4l-5-1-4-1-1-2-3 2-1-4 4-2 5-7z" fill="#665247"/>
<path transform="translate(553,174)" d="m0 0 2 1-13 13-2 4h-2l2 9-4 16-1 2h-2v2l-5-1 4-9 1-10v-7z" fill="#626F81"/>
<path transform="translate(506,48)" d="m0 0h15l15 3 11 3 9 3 2 2-6-1v2l-12-3-9-2-4-2-29-2v-2z" fill="#526C8D"/>
<path transform="translate(646,270)" d="m0 0 1 3-1 8-5 7-3 7-6 9-4 5h-3l1-3 3-5-1-2 2-5h2l2-4 2-5 2-1 3-5 3-7h2z" fill="#D5DBE3"/>
<path transform="translate(396,282)" d="m0 0 5 2 5 5 8 9 6 7 2 7h-4l-12-13-8-11z" fill="#E9ECF0"/>
<path transform="translate(395,229)" d="m0 0h2l4 10v2h2l6 14 9 15 2 6-4-1-2-1-3-6-8-15-8-20z" fill="#2C3E53"/>
<path transform="translate(531,196)" d="m0 0h1v14l-2 8-2 2-23 1-3 2-1 4-4 1 3-7 3-5 1-4 2 3 7 2 11-1 2-1 3-17z" fill="#2E2324"/>
<path transform="translate(431,596)" d="m0 0h14l6 4 5 5 1 8-4-2v-2h-3l-4-4-6-3-11-1-3-2z" fill="#E5E6E8"/>
<path transform="translate(487,615)" d="m0 0h4l3 10-1 14-4 5v-3h-2l-2-13 1-12z" fill="#31455F"/>
<path transform="translate(641,298)" d="m0 0 2 1-3 5-8 8-11 9-10 9-4 2-3-2 6-4 3-3 5-4h2l2-4 7-8 5-5h2z" fill="#2F3C4D"/>
<path transform="translate(528,222)" d="m0 0h5l1 1v18h-3l-2-12-4-2-1 1-1 14h-3l-1-10-2-4 1-4z" fill="#676468"/>
<path transform="translate(761,516)" d="m0 0h3v6l-4 9-3 12-1 18-3 1v-21l3-15 3-9z" fill="#CFC8C4"/>
<path transform="translate(471,253)" d="m0 0h1v7l-2 7-2 5h-16l3-6 4-3h4l1-7 4 1v6h2v-8z" fill="#BBB6B4"/>
<path transform="translate(551,57)" d="m0 0 14 4 24 15 11 9v3l-4-2-13-9-12-8-19-9z" fill="#2D3644"/>
<path transform="translate(674,508)" d="m0 0h14l1 12-1 11-3 3v-9l2-9-5 1-4-1v2l-6-1 1-7z" fill="#DBD5D1"/>
<path transform="translate(406,619)" d="m0 0 4 1 3 10h2l1-2-1 5-5-3v6l4 6v2h2l1 4-4-2-5-6-3-2-3-16 1-2z" fill="#4E6B8F"/>
<path transform="translate(308,534)" d="m0 0 74 5v1h-21l-28-2-26-1 1 7 4 5v6l6 2-2 2-6-4-4-8-2-10 1-2z" fill="#675247"/>
<path transform="translate(545,617)" d="m0 0h1v5l4-2-1 5-4 8-6 10h-4l-1-7 2-4 4-6z" fill="#60758E"/>
<path transform="translate(465,315)" d="m0 0 5 2 17 8 1 3h3l-1 3 11 5v1h-7l-15-5-2-3h5l-4-3-10-5v-3z" fill="#537196"/>
<path transform="translate(747,545)" d="m0 0 1 2h4l-1 12-5 1-6-2-3-2 2-6 4-4z" fill="#584137"/>
<path transform="translate(469,73)" d="m0 0h2l2 8h2v2l-3 1-1 3-11 5-2 2-3-6v-2l6-2 1-3 5-3z" fill="#C6C2C1"/>
<path transform="translate(509,684)" d="m0 0 19 2 1 2-1 7h-2l-1 3-2-2-5-1-2-4-4 1-3 3z" fill="#2F2324"/>
<path transform="translate(548,69)" d="m0 0 4 1 12 4 10 6v1l-7-1-2 4-3 8-2 9-4 1 1-10 3-5 2-8-5-3-3-3-6-3z" fill="#C1BAB6"/>
<path transform="translate(469,176)" d="m0 0h6l-7 7h-2l-2 10 1 10 2 5 15 6v1h-8l-8-5-4-5-1-2v-17l3-6h2v-2z" fill="#9499A1"/>
<path transform="translate(511,538)" d="m0 0 5 3 6 5 3 5 8-6 5-3 2 2v3l-9 5-4 1 5 12-4-2-7-11-7-8-3-4z" fill="#D7DFE9"/>
<path transform="translate(476,183)" d="m0 0 7 3 3 8h-3l-4-5-4-1v12l5-1 5-3-1 6-2 2h-7l-4-3v-12z" fill="#696A71"/>
<path transform="translate(524,254)" d="m0 0 7 1h7l1 1v6l-3 2h-11l-1-2-3 1-2-1 1-6z" fill="#A2A5AB"/>
<path transform="translate(221,435)" d="m0 0h7l2 1h7l4 1v3h-3v2l-10 1h-10l-1 3h-3l2-5z" fill="#594339"/>
<path transform="translate(593,690)" d="m0 0h1l1 8-1 2h2v25l-4-4v-9h-2l-1-6-2-4 1-2h2l1-8h2z" fill="#584137"/>
<path transform="translate(558,621)" d="m0 0 2 2-5 9-12 19-8 4-1-2 3-5 4-4h2l2-4 6-10 2-4z" fill="#586E8A"/>
<path transform="translate(488,68)" d="m0 0 5 1 3 8 3 2-3 2-3-4-2 4h-2l-2-5h-2l-2 2h-2l-1 3h-2v-4l-3-1-1-5 8 2 1-4z" fill="#B9B8B9"/>
<path transform="translate(569,34)" d="m0 0 5 1h4 3l10-1 6 2-2 1v2l-8 1 2 5 4 4-5-2-7-4-11-6z" fill="#7497B8"/>
<path transform="translate(499,148)" d="m0 0 6 1 5 4 1 4-10-4 1 8 3-1-1 3h-5l-5-5-3-1 1-5z" fill="#545D6C"/>
<path transform="translate(392,159)" d="m0 0h1l-2 48-3-1v-36l2-10z" fill="#31455E"/>
<path transform="translate(511,750)" d="m0 0h1l2 14 1 5 9 3-4 1-8-1-1 5h2l2 9-4 2-2-2-1-6v-13l2-5z" fill="#BEB5B0"/>
<path transform="translate(590,245)" d="m0 0h8l1 3h-7v4h6l2 4v7l-2 1h-11v-4l10 1-1-4-7-1-2-3v-5z" fill="#576373"/>
<path transform="translate(496,302)" d="m0 0h7l3 2-7 1 1 2h6 3l5 3-1 7-4 2h-11v-2l11-1v-4h-11l-2-2-2-5-2-2z" fill="#ADA39D"/>
<path transform="translate(391,177)" d="m0 0h1l1 25 3 18 6 18-1 3-4-10v-2h-3l-4-12-1-10h2z" fill="#4A6585"/>
<path transform="translate(389,109)" d="m0 0h2l-2 5h-2l-3 9-7 17-1 3 1 3-2 1 3 2v2l-5 2-2 2 1-9 5-13 1-1v-8l7-13 2 1z" fill="#6E86A0"/>
<path transform="translate(610,65)" d="m0 0 4 1 15 13 12 12 3 6-1 3-12-13-9-10-11-9z" fill="#D9E2EC"/>
<path transform="translate(291,492)" d="m0 0h12l2 1-1 13-4 9-5 1-6-1-2-5v-3l3 1h11l3-14h-8l-5-1z" fill="#C8C0BB"/>
<path transform="translate(670,249)" d="m0 0h3v12l-1 4 3 1-4 6-4 2-3-3-1-3 5-1h1l-3-7 2-9z" fill="#C3BCB8"/>
<path transform="translate(404,604)" d="m0 0 4 2 3 1 2 3 3-2v3h4v2h-6l3 10-1 5-1 2h-2l-2-5-1-7-4-10z" fill="#6D594E"/>
<path transform="translate(527,145)" d="m0 0h2l2 4 5 1 1-2 2 1-2 4-8 5v4l-4-2-2-4v-7z" fill="#5C6A7C"/>
<path transform="translate(517,63)" d="m0 0 6 1-2 4-1-2h-4v5l-6 3v-2l-9 1-3 4-1-9 4-2 7 2 4-2v-2z" fill="#C6C1BF"/>
<path transform="translate(660,191)" d="m0 0h1l2 26 4-1-1 15-2 6-3-1-1-2z" fill="#4E6C91"/>
<path transform="translate(502,36)" d="m0 0h29l18 3 14 4-4 1-17-4-6-1h-39l-4 1h-6v-1z" fill="#7295B7"/>
<path transform="translate(511,188)" d="m0 0h8l6 4 1 6-11-2-1-1h-7l-2-3z" fill="#AEA29B"/>
<path transform="translate(605,97)" d="m0 0 5 4v2l4 1 8 10 1 6h-5l1 5-2-1-3-5-2-4 4 2-1-5-5-5-5-7z" fill="#BAB1AC"/>
<path transform="translate(594,665)" d="m0 0h2v7l-4 3-4-2v3h-9l-8 1 4-3z" fill="#1A1D25"/>
<path transform="translate(318,436)" d="m0 0h6v5l-4 6-4 7-3-2-1-7 5-8z" fill="#C3BBB6"/>
<path transform="translate(741,519)" d="m0 0 5 1-1 11-4 8-3-2-1-8 2-9z" fill="#BEB5B0"/>
<path transform="translate(649,489)" d="m0 0 2 1v8l5-3 4-6h5l1 5-5 5-1-2h-3l-1 3-4 2-6-1 2-3v-8z" fill="#C2BAB5"/>
<path transform="translate(466,273)" d="m0 0 1 2-2 5-6 3h-8v-2l-10 1 6-7 4-1v3h6l4 1z" fill="#8A9FB3"/>
<path transform="translate(557,110)" d="m0 0h6l1 2h-5l7 7 1 2v7l-3 3-5-1v-2h-2l-1-5 4 1 2 4h1v-7l-7-2z" fill="#424752"/>
<path transform="translate(658,214)" d="m0 0h1v20l-3 11-1 8-4 5 1-13 3-15 1-2z" fill="#C8D5E2"/>
<path transform="translate(644,164)" d="m0 0h2l3 8 2 9v16h-2l-2-8-2-14-2-7z" fill="#2E2323"/>
<path transform="translate(525,701)" d="m0 0 4 4-1 5h2v6l-3 3-3-3-4-2-1-5 4-4z" fill="#2F2323"/>
<path transform="translate(515,227)" d="m0 0 3 1 2 4v10l2 1-3 1-7-1-1-5-3 1 2-4 3-2 1 5v-9z" fill="#AFA6A1"/>
<path transform="translate(563,198)" d="m0 0 21 2-1 4h-20l-6-4 2-1z" fill="#78818D"/>
<path transform="translate(419,273)" d="m0 0 5 5 5 6 6 2-1 4 1 2-4 2-10-12-2-1v-3h-2v-2l2-1z" fill="#374E66"/>
<path transform="translate(589,172)" d="m0 0h6l4 4 5 8 2-2 3 7 3 1v2l-5 1-2-1-4-7-5-8-6-1v2h-2v-5z" fill="#363E4A"/>
<path transform="translate(396,286)" d="m0 0 5 5 8 10 16 17 12 9 2 3-5-2-14-12-8-7-11-14-5-7z" fill="#738091"/>
<path transform="translate(499,254)" d="m0 0h14l1 8-4 1-3-1-2-4-1 3-5 1-1-1z" fill="#737C89"/>
<path transform="translate(618,632)" d="m0 0 1 3-6 8-3 5-13 10-5 2 2-4 2-3h2v-2l6-1 2-4 4-5h2l1-5h3v-2h2z" fill="#536F92"/>
<path transform="translate(657,524)" d="m0 0 4 4 3 1 1 17 2 5 7 2v1l-11 1-1-3h-2l1-2 2 1-1-2v-10l1-5h-2l-2-4-4-1 2-3-2-1z" fill="#5E4B42"/>
<path transform="translate(535,538)" d="m0 0 3 4-10 7-3 3-5-7-4-3v-2h7l1 3-1 3 5-2z" fill="#698DB1"/>
<path transform="translate(550,307)" d="m0 0h5v8l-4-2v-3h-3l-1 6h-5v-6h-2l-1 4-2 2-1-7 1-1z" fill="#4D5E75"/>
<path transform="translate(628,297)" d="m0 0 2 4-3 6-7 2-5 5h-2v-2l-3 1-4-3 7-3 7-1 2-3h2l2-4z" fill="#C4BEBA"/>
<path transform="translate(494,354)" d="m0 0 9 1 31 1v1l8 1v1l-16 1-20-1-8-2z" fill="#2B2A32"/>
<path transform="translate(453,268)" d="m0 0v3h14l-2 5-4 3-10-2v-3l-3 1 2-4z" fill="#556275"/>
<path transform="translate(591,343)" d="m0 0h1v32l-2 2-1-4-1-27-2-2z" fill="#715D53"/>
<path transform="translate(467,512)" d="m0 0h8l1 5v3l-13-1-3-1 1-4z" fill="#D9E2EC"/>
<path transform="translate(678,224)" d="m0 0h1v27l1 4 2 2-2 4-4-1-2-3 1-4-1-3 1-3 1-12 1-8z" fill="#C3BBB7"/>
<path transform="translate(432,104)" d="m0 0 4 1 1 5-2 3v2l-5 1v2l-4 2h-4v-2h2l1-5 3-1 2-7z" fill="#C6C0BD"/>
<path transform="translate(393,132)" d="m0 0 3 1-2 6-6 14-2 8h-2l1-9 3-12 3-7z" fill="#5D7189"/>
<path transform="translate(535,686)" d="m0 0h4l2 6v9h2l-2 4h-5l-1-13z" fill="#2F2323"/>
<path transform="translate(495,210)" d="m0 0h2l-2 4-1 3-6 5-7 9h-2l-1 3-2-1 5-8 4-1 1-5-1-3h2v-2z" fill="#DFE2E6"/>
<path transform="translate(561,179)" d="m0 0h2l-2 4-3 7 12 1v3l-1-1-16-1-3-1 2-5 7-6z" fill="#C1BAB6"/>
<path transform="translate(511,160)" d="m0 0 2 3-4 4h-2v2l-10-1-4-3v-2l6-1 9 1 1-2z" fill="#E6E9EB"/>
<path transform="translate(542,143)" d="m0 0h2v2l3-1 3 4 2 5h-2l-2 5-4 5-5 4-4 5h-2l-1 2v-5l6-4 1-3 5-2 2-3v-9l-4-2z" fill="#667588"/>
<path transform="translate(497,141)" d="m0 0h7l7 4 5 6h-3l-1-3-4-2-3-1h-9l-5 5-5 4 1-7z" fill="#697F98"/>
<path transform="translate(496,288)" d="m0 0h6l3 3v2l3-3h3l-1 5-3 3h-5v-5l-2-1v5l-4-2-1-5z" fill="#58585F"/>
<path transform="translate(542,148)" d="m0 0 5 2v7l-5 4-3-1v-3l-3-1 1-4z" fill="#D8E0EA"/>
<path transform="translate(456,607)" d="m0 0 4 4 2 4v8l-4 1-4-1 1-1-5-1 1-2 5-2-1-5 1-3z" fill="#D3CCC9"/>
<path transform="translate(426,583)" d="m0 0h3l1 2 8 1v2l5 1 8 4 5 6h-3l-7-6-7-3-5-1-14-1 5-4z" fill="#3F516D"/>
<path transform="translate(198,501)" d="m0 0 24 2 2 3h-27z" fill="#C6BEB9"/>
<path transform="translate(317,472)" d="m0 0 5 1-1 2-5 2-8 16-2 3v-8l2-7 7-8z" fill="#312626"/>
<path transform="translate(619,125)" d="m0 0h2l3 6v3l3 1 4 10 2 9-1-2-9 1 2-4 3-2-2-6-2-5-5-9z" fill="#7A91A8"/>
<path transform="translate(450,84)" d="m0 0 4 2 2 2 2 6h2l7 11v4l-4-2-4-7v-2h-2l-7-12z" fill="#546881"/>
<path transform="translate(634,614)" d="m0 0 2 2-5 9 2 1-11 12-1-4 7-12z" fill="#7597B7"/>
<path transform="translate(600,98)" d="m0 0 4 1 6 7 5 5 2 3-1 4-5-5-11-12z" fill="#242B37"/>
<path transform="translate(408,297)" d="m0 0 6 2 6 6 2 7h-4l-10-11z" fill="#F8F9FA"/>
<path transform="translate(607,175)" d="m0 0 4 1 1 4v8l-3 2-4-5-2-1 1-5z" fill="#D6DDE5"/>
<path transform="translate(465,67)" d="m0 0 4 2-3 3-14 7-4-2 2-3 5-3 9-3z" fill="#C3BCB8"/>
<path transform="translate(517,413)" d="m0 0h7l16 4 9 2 4 3-11-1-8-2h-7l-2-1v-2l-8-1z" fill="#3F526E"/>
<path transform="translate(620,308)" d="m0 0h2v2h-2l-1 3-3 3h-5v2h-2l-2-5-6 3-3 1-4 1v2h-2l1-3 7-5 9-1 4 1v2l5-3z" fill="#D5DCE4"/>
<path transform="translate(664,251)" d="m0 0h2l-1 8-2 8-2 2-1-2-6 8-1-2 5-9 3-7z" fill="#31465F"/>
<path transform="translate(471,118)" d="m0 0 6 1 2 6v5l-5 2-2-2-1-5z" fill="#D9E2EC"/>
<path transform="translate(449,64)" d="m0 0 6 1-5 7-3 2-6-1-1-4 5-4z" fill="#D2D6DB"/>
<path transform="translate(772,539)" d="m0 0h1v8l-1 3h-5v-2l-2 1-1 9 3 5-3 3-3-7-1-2v-7l4-5h3l1 2 3 1z" fill="#614B41"/>
<path transform="translate(395,229)" d="m0 0h2l4 10v2h2l5 12-1 2h-3l-5-11-4-11z" fill="#2E435B"/>
<path transform="translate(401,188)" d="m0 0h23v5h-7l-8-2h-7z" fill="#48586B"/>
<path transform="translate(535,607)" d="m0 0 2 1 2 6-4 11-3 2 1-7 1-6-1 1-2 3 1-7h-2v-2z" fill="#496486"/>
<path transform="translate(378,241)" d="m0 0h2l3 3v17l-3-3-4-10 1-6z" fill="#587495"/>
<path transform="translate(542,229)" d="m0 0h5v8l-1 2 2 1-1 3h-7v-6l1-7z" fill="#5C6778"/>
<path transform="translate(505,663)" d="m0 0 2 1-3 3-7 3-6 8-6-3 1-3h2v-2l8-3 6-2z" fill="#637C97"/>
<path transform="translate(434,188)" d="m0 0h8l4 6v5l-3 3h-7l-2-3 1-3 2 2h5l1-4-5-2z" fill="#475668"/>
<path transform="translate(414,106)" d="m0 0 1 4-5 10-6 11-2-4 1-5 3-3 1-4 3-3z" fill="#4B617E"/>
<path transform="translate(517,324)" d="m0 0h12l15 1-2 2-12 1-8 1-6-2z" fill="#EBEEF1"/>
<path transform="translate(431,596)" d="m0 0h14l6 4v3h-2l-4-4-3-1h-8l1 1 9 2 4 2v2l-5-2-3-1-11-1-3-2z" fill="#D1CDCC"/>
<path transform="translate(596,86)" d="m0 0 7 6 9 9v2h-2l-4-4h-3l-8-7-2-5z" fill="#D2CDCA"/>
<path transform="translate(289,531)" d="m0 0h9l4 4 1 7-2-3-1-2-13-1v6h-2l2-9z" fill="#634E43"/>
<path transform="translate(546,109)" d="m0 0h4l1 2v18l-4-1z" fill="#65758A"/>
<path transform="translate(656,575)" d="m0 0 4 1v3h-2l-1 7-8 17-1-3 5-16z" fill="#D7D3D1"/>
<path transform="translate(323,470)" d="m0 0 12 1 10 4-1 4-18-5-3-2z" fill="#EAECEF"/>
<path transform="translate(620,109)" d="m0 0 4 2 1 9 2 1 4 8-1 5h-2l-4-7v-5l-3-1 2-1-3-7z" fill="#3C495C"/>
<path transform="translate(492,217)" d="m0 0 2 1-3 4v7l-3 3-5-1-7 7v-3l5-5 7-9z" fill="#61636C"/>
<path transform="translate(422,295)" d="m0 0 5 2 2 3 5 3v2l5 2 4 3v2l-7-2-11-9z" fill="#405773"/>
<path transform="translate(280,494)" d="m0 0 2 4h-2l-2 5-3 6-2 2h-12l4-2-1-2 8-1z" fill="#B4A9A2"/>
<path transform="translate(596,269)" d="m0 0 7 4 3 3v2h2v2l4 2 2 5-4-1-4-5-8-6-2-3z" fill="#394453"/>
<path transform="translate(499,205)" d="m0 0h3l2 12h-2l-1 4-3 6-3 1-1-2 4-7h2l-1-6z" fill="#16181F"/>
<path transform="translate(646,270)" d="m0 0 1 3-1 8-5 7-6 2 1-5 2-1 3-5 3-7h2z" fill="#CFD1D5"/>
<path transform="translate(542,204)" d="m0 0 4 1v3h-2l-3 10-2 5-2 9h-2v-9l6-15z" fill="#C8C4C2"/>
<path transform="translate(528,634)" d="m0 0h1l-1 7-7 9-8 10-4 3h-2l2-4 6-5 9-13h2z" fill="#7493B1"/>
<path transform="translate(567,424)" d="m0 0h8l8 4 6 1-2 1 3 6-5-2-9-5-7-3z" fill="#607288"/>
<path transform="translate(567,350)" d="m0 0 4 1-3 3-1 15-2-3-2-10h-6l-2-2z" fill="#2F2323"/>
<path transform="translate(537,212)" d="m0 0 2 1-1 6-2 4v19l-3 1v-20h-11v-1l8-2 3 1v-2h2z" fill="#ACA29B"/>
<path transform="translate(551,191)" d="m0 0 18 1-1 4h-5-4l-3 1v-2l-5 2v2h-3l2-4z" fill="#5A687B"/>
<path transform="translate(475,188)" d="m0 0 5 1 2 7-3 5-4-1z" fill="#E0E3E7"/>
<path transform="translate(582,84)" d="m0 0 5 1 9 7 6 5-2 1-1 2-10-9-7-5z" fill="#3A4B61"/>
<path transform="translate(641,298)" d="m0 0 2 1-3 5-8 8-4-2 2-5 4-3h2z" fill="#526479"/>
<path transform="translate(471,253)" d="m0 0h1v7l-2 5-4 2v-2l-7-1 4-1 1-7 4 1v6h2v-8z" fill="#7D8C9D"/>
<path transform="translate(540,228)" d="m0 0h6l-4 3-2 12 7-1-1-2-2-1 2-2 1-7h1v8h2l-2 6-6 1-3-1-1-4 1-11z" fill="#A9ABB0"/>
<path transform="translate(563,80)" d="m0 0h2l-3 12-2 9-4 1 1-10 3-5z" fill="#2F333D"/>
<path transform="translate(464,674)" d="m0 0 1 2 9-1 2-1v2l3 1-2 1h-26l-5-1 1-2h16z" fill="#67768B"/>
<path transform="translate(658,535)" d="m0 0 4 1 1 5v10l-3-1v-2l-3-1v-11z" fill="#213347"/>
<path transform="translate(658,505)" d="m0 0h5l-1 7-3 3-5-1-1-5z" fill="#34465E"/>
<path transform="translate(443,312)" d="m0 0 4 1 9 6 12 6 1 2-6-1-15-8-5-5z" fill="#556F8E"/>
<path transform="translate(496,302)" d="m0 0h7l3 2-7 1 1 2 7 2-1 2-8 1-2-2-2-5-2-2z" fill="#8E7F76"/>
<path transform="translate(643,188)" d="m0 0h1l1 8v24l-1 1-1 8h-1v-6l-9-1-1-2h10l1-1 1-20-2-1z" fill="#5E7793"/>
<path transform="translate(389,174)" d="m0 0 2 1-1 16 1 16-3-1v-30z" fill="#23364B"/>
<path transform="translate(496,150)" d="m0 0 6 1-2 1v7l-4 1-5-3 1-5z" fill="#22242B"/>
<path transform="translate(583,78)" d="m0 0 4 1 9 6v2l-2 1 2 3-5-2-7-5z" fill="#DFE0E1"/>
<path transform="translate(551,397)" d="m0 0h19l1 4-5 1-7-1-8-3z" fill="#2F2323"/>
<path transform="translate(505,208)" d="m0 0 12 3 3 3-3 2h-7l-5-3z" fill="#AA9E96"/>
<path transform="translate(574,72)" d="m0 0 5 1 6 4-2 1v2l2 1-2 2-9-5v-2l-3-1v-2z" fill="#E3E5E7"/>
<path transform="translate(766,511)" d="m0 0 3 3 3 8 1 7v9h-1l-2-10-5-11v-5z" fill="#BFB7B1"/>
<path transform="translate(556,256)" d="m0 0 6 1 4 1-1 5-1 1h-6l2-1-1-2-5 1v-5z" fill="#828A96"/>
<path transform="translate(466,79)" d="m0 0 1 2h-2l-1 5-4 1-2-1v2l9-1v2l-7 3-2 2-3-6v-2l6-2 1-3z" fill="#BEB9B7"/>
<path transform="translate(724,520)" d="m0 0h4v8l-2 5h-3l-1-2v-10z" fill="#DBD5D2"/>
<path transform="translate(640,237)" d="m0 0 2 3 3-3 4 1 1 13 2-2v4h-2l-1 5h-1v-19l-5 3-4 8h-1v-6z" fill="#4D6179"/>
<path transform="translate(386,146)" d="m0 0 1 4-3 11h2l-1 9-2 5-2-3v-9l4-14z" fill="#617790"/>
<path transform="translate(380,127)" d="m0 0 1 4-5 10 1 5-2 1 3 2v2l-5 2-2 2 1-9 5-13z" fill="#6C91B4"/>
<path transform="translate(420,612)" d="m0 0 3 2-5 3 1 4 4 4-4 3-3-1-2-14z" fill="#AA9E96"/>
<path transform="translate(296,486)" d="m0 0 5 1 5 5-1 4v-3l-14-1v-3h2v-2z" fill="#6C584D"/>
<path transform="translate(528,222)" d="m0 0h5l1 1v18h-3l-2-13h3z" fill="#63778F"/>
<path transform="translate(367,191)" d="m0 0h3l1 6v12l-2 2-2-2z" fill="#415570"/>
<path transform="translate(505,185)" d="m0 0 2 1-1 1 2 2-6 4-2 6 1 6h-2l-1 3-1-1v-8l1-7 5-5z" fill="#332829"/>
<path transform="translate(618,120)" d="m0 0 4 1 2 1 2 6 4 8-1 2-5-4-3-6v-3h-2z" fill="#22252F"/>
<path transform="translate(558,621)" d="m0 0 2 2-5 9-4 7-3-2 1-4 4-7z" fill="#4E6C90"/>
<path transform="translate(515,525)" d="m0 0h5v3l-9 6-2 3-2-3 1-4z" fill="#D5DBE3"/>
<path transform="translate(754,504)" d="m0 0 6 1 6 5v7l1 4h-3v-5l-4 1 1-6-4-4-3-1z" fill="#ACA199"/>
<path transform="translate(447,335)" d="m0 0 6 2 5 2 4 1 14 7-3 1-16-6-10-6z" fill="#8696A7"/>
<path transform="translate(410,612)" d="m0 0h2l2 8h2l1 7-2 3h-2l-2-5z" fill="#3A3334"/>
<path transform="translate(541,200)" d="m0 0 4 1v2l4 1-3 3v-2l-4 1-2 7h-2l-2 3 1-9z" fill="#8997A7"/>
<path transform="translate(571,178)" d="m0 0 4 2v2l4 2 3 7-1 5h-5l1-4 1-2-4-6v-2h-2z" fill="#535F6E"/>
<path transform="translate(716,518)" d="m0 0 4 1v8l-3 4-3-1v-7z" fill="#DCD6D3"/>
<path transform="translate(504,222)" d="m0 0h6l-2 2v11h-4l-2-7 1-5z" fill="#D6D4D4"/>
<path transform="translate(550,147)" d="m0 0 4 5 9 10 1 5-4 5-2 3h-3l2-4 4-4-1-4-7-8-4-7z" fill="#7188A0"/>
<path transform="translate(396,95)" d="m0 0 2 2-5 10-5 5-2 1 1-6 8-11z" fill="#66768A"/>
<path transform="translate(532,52)" d="m0 0 12 1 9 3 5 2-3 1h-3l-2 1-8-3-6-3z" fill="#3D536E"/>
<path transform="translate(427,593)" d="m0 0h12l6 2-3 1h-12l-9 5-5 4 2-4 5-5z" fill="#624E44"/>
<path transform="translate(442,573)" d="m0 0 9 3 2 4 4 1 1 4-11-6-8-3z" fill="#6D92B5"/>
<path transform="translate(291,478)" d="m0 0 1 4-7 11-2 4h-2l1-6 7-12z" fill="#BFB6B0"/>
<path transform="translate(593,182)" d="m0 0h2l-1 8 6-1-1 4h-9l-2-4 4-2z" fill="#2F313A"/>
<path transform="translate(596,177)" d="m0 0 4 5 3 4v2l-9 2v-10h2z" fill="#D0D1D3"/>
<path transform="translate(460,114)" d="m0 0h3l1 9v11h-3l-1-14-1-5z" fill="#4B596D"/>
<path transform="translate(507,53)" d="m0 0h5l1 3 1-2h6l-2 4h5v1h-13l-3-1v-2l-2-1z" fill="#C3BBB6"/>
<path transform="translate(541,592)" d="m0 0h2l-1 4-1 17-3 10-2 1 1-6 1-4 1-19h2z" fill="#68809B"/>
<path transform="translate(303,542)" d="m0 0 2 4 2 1 4 8 5 3v2l-6-1-5-5-2-7z" fill="#433431"/>
<path transform="translate(696,522)" d="m0 0 2 2 1 3h3l2-2-1 5-4 4-2-5-5 3-1-7 1 3 3-3z" fill="#C3BBB6"/>
<path transform="translate(371,199)" d="m0 0h1l2 17-4 4-2-3v-7l2-1z" fill="#546C8A"/>
<path transform="translate(560,171)" d="m0 0 7 3v2l4 1 1 4-8-1-1-2 2-1-4-2-4 2h-3v-2z" fill="#B4ABA4"/>
<path transform="translate(474,71)" d="m0 0 6 1h7l-3 6h-3l-1 3h-2v-4l-3-1z" fill="#C9C7C6"/>
<path transform="translate(509,774)" d="m0 0 2 1v2h2l2 9-4 2-2-2-1-11z" fill="#C5BDB8"/>
<path transform="translate(472,661)" d="m0 0h2l-2 5-7 2-9 1v-2l11-4z" fill="#213347"/>
<path transform="translate(561,643)" d="m0 0 2 1-5 5-11 6-2 1h-7l1-4h3l-2 3 14-7 4-3h3z" fill="#374B66"/>
<path transform="translate(709,518)" d="m0 0h3v11l-4 4-1-9z" fill="#DCD6D3"/>
<path transform="translate(688,508)" d="m0 0 1 2 4-1-2 16-3 2z" fill="#BCB3AD"/>
<path transform="translate(508,303)" d="m0 0 5 1 2 1v2l-5 2-3-2-1 1h-6l-2-4z" fill="#C6BFBC"/>
<path transform="translate(373,216)" d="m0 0h2l1 11-5 1-2-5 1-4z" fill="#587495"/>
<path transform="translate(551,57)" d="m0 0 14 4 6 3-2 1 1 3-5-2-14-7z" fill="#313D4E"/>
<path transform="translate(604,761)" d="m0 0h4l-2 4-5 4-9 3h-6l3-2 9-3 2-4h4z" fill="#524039"/>
<path transform="translate(515,545)" d="m0 0 5 5 6 8 1 3h-3v-2l-3-1-1-4-3-1-3-4z" fill="#617893"/>
<path transform="translate(529,537)" d="m0 0h6l-2 4-6 5h-4l1-5z" fill="#DAE3EC"/>
<path transform="translate(243,507)" d="m0 0h21l1 1 7 1v1h-19l-10-2z" fill="#D1CAC6"/>
<path transform="translate(308,494)" d="m0 0 14 1 15 2v1l-10 1-12-2h-8z" fill="#D0C9C5"/>
<path transform="translate(585,413)" d="m0 0h2v2h-3l-2 4-10 3-2 1h-6l-1-2 12-2v-2z" fill="#302423"/>
<path transform="translate(486,201)" d="m0 0h1v9l-2 3h-9l-7-4 2-2 4 2v2h7l1-3 1-5z" fill="#E0E2E5"/>
<path transform="translate(489,157)" d="m0 0 2 2 3 6 3 2 11 1v2l-2 1h-9l-5-3-3-5-1-5z" fill="#6A7686"/>
<path transform="translate(594,665)" d="m0 0h2v7l-4 3-4-2v3l-4-1h3v-3l2-1v-4z" fill="#2F2425"/>
<path transform="translate(543,656)" d="m0 0 3 1-3 2h-3v2l-7 2h-5l-1-3z" fill="#596F8A"/>
<path transform="translate(732,520)" d="m0 0 4 1-1 8-2 3-3-1v-8z" fill="#DCD6D3"/>
<path transform="translate(565,72)" d="m0 0h2v2l7 2v2l6 2 4 4-3 1-16-9z" fill="#6A7A8E"/>
<path transform="translate(383,596)" d="m0 0 3 1 2-1 1 3-2 3v11l-4-2z" fill="#557294"/>
<path transform="translate(760,528)" d="m0 0h3v7l-4 12-2-1 2-15z" fill="#232124"/>
<path transform="translate(651,512)" d="m0 0 5 2h4l-2 7-4-4 1 9h2l-1 3-2-1-3-12z" fill="#646974"/>
<path transform="translate(581,250)" d="m0 0h2l-1 14h-8l2-4 3-1z" fill="#3D4049"/>
<path transform="translate(524,147)" d="m0 0 1 4 1 1 3-1 2 6-2 1v4l-4-2-2-4v-7z" fill="#62768E"/>
<path transform="translate(569,65)" d="m0 0 4 1 11 7 1 4-5-2-10-7z" fill="#242731"/>
<path transform="translate(575,640)" d="m0 0 2 1-7 7-1 2-5 2-10 6-6 1 4-3 11-6 9-7z" fill="#394C67"/>
<path transform="translate(580,627)" d="m0 0v3l-3 5-9 7-2 3-4-1 2-3 5-3 3-1 2-5z" fill="#3F526E"/>
<path transform="translate(542,619)" d="m0 0 2 1-6 11-2 3-3-4 5-8h3z" fill="#BFB8B5"/>
<path transform="translate(750,547)" d="m0 0h2l-1 12h-4l-3-5v-2l4-1z" fill="#2F2323"/>
<path transform="translate(524,531)" d="m0 0 4 2 1 3h-3v2l-2 1h-8l5-5z" fill="#DBDEE3"/>
<path transform="translate(495,287)" d="m0 0h8l1 1 8 1v9h-1v-8h-3l-1 3h-2l-3-4-6-1v6l3 5h-2v-2l-3-1v-7z" fill="#BCB4AE"/>
<path transform="translate(515,227)" d="m0 0 3 1 2 4v10l2 1-3 1v-8h-3l-1 4-1-2v-9z" fill="#A89E97"/>
<path transform="translate(484,196)" d="m0 0 1 3-3 5h-7l-3-2v-4h2v2h5z" fill="#485262"/>
<path transform="translate(324,473)" d="m0 0 9 2 14 4v1l-10-1-13-2-2-2z" fill="#B7ADA7"/>
<path transform="translate(565,344)" d="m0 0 2 2-5 3-8 3-4-1 4-2-3-1 2-2 9-1z" fill="#C4BDBA"/>
<path transform="translate(510,154)" d="m0 0 3 1 2 4v7l-4 3h-2v2l-3-1h2l-1-3 5-2-1-5z" fill="#989CA2"/>
<path transform="translate(415,631)" d="m0 0 4 3v2l5 2 4 3 6 1-3 1v2l-5-1v-2l-5-1-6-8z" fill="#3F4F64"/>
<path transform="translate(559,626)" d="m0 0v3l-7 12-6 7v-3l8-13 3-5z" fill="#384C67"/>
<path transform="translate(513,313)" d="m0 0 4 5 2 2 22 2v1h-19l-7-1-2-2-1-5z" fill="#6D92B5"/>
<path transform="translate(499,254)" d="m0 0h8l-1 4-4 4-4-1z" fill="#667383"/>
<path transform="translate(573,195)" d="m0 0 8 2-1 3-18-1-3-2h9z" fill="#D5DBE2"/>
<path transform="translate(671,226)" d="m0 0h1v7l-3 13h-3l1-6 1-9 1-3h2z" fill="#31455F"/>
<path transform="translate(548,589)" d="m0 0h3v9l-3-2v-3l-1 3v3h-2v-3h-3l2-5z" fill="#AEB0B4"/>
<path transform="translate(661,515)" d="m0 0 3 1v10l-5 1v-7z" fill="#E2E1E2"/>
<path transform="translate(479,347)" d="m0 0 4 1 11 4 6 1v1l-8 1-16-6z" fill="#8A9099"/>
<path transform="translate(491,300)" d="m0 0h13l5 1-1 3-11-1-7 1z" fill="#6C5A51"/>
<path transform="translate(444,268)" d="m0 0h3l-2 5-3 1-1 3h-7l2-4 4-2 1-2z" fill="#838F9E"/>
<path transform="translate(673,251)" d="m0 0h2l1 4-1 3 4 4-3 4-4-1z" fill="#D7DFE8"/>
<path transform="translate(655,254)" d="m0 0h1v8l-4 11-4 5 1-5z" fill="#4E6C91"/>
<path transform="translate(435,190)" d="m0 0 5 2 3 2-1 5h-5l-2-4z" fill="#D1DAE3"/>
<path transform="translate(556,119)" d="m0 0h6l2 2v7h-3l-2-4-3-1z" fill="#CED0D3"/>
<path transform="translate(622,630)" d="m0 0 1 3-3 7-6 5h-2l2-5z" fill="#67798F"/>
<path transform="translate(657,524)" d="m0 0 4 4 3 1v17h-1l-1-7 1-5h-2l-2-4-4-1 2-3-2-1z" fill="#6C594F"/>
<path transform="translate(497,229)" d="m0 0h2l-1 7v3h1v5l-5-1-1-3 3-7-3-1z" fill="#818F9F"/>
<path transform="translate(489,198)" d="m0 0 2 1 2 13-5 1v-14z" fill="#566273"/>
<path transform="translate(491,200)" d="m0 0h1l2 6 2-3 3 5-1 5-4 2 3-5-4 2-2-6z" fill="#BCB4AF"/>
<path transform="translate(533,156)" d="m0 0h2l1 4h2l-1 5-4 1-3-5 2-4z" fill="#D9E1E9"/>
<path transform="translate(639,154)" d="m0 0 3 4 1 4h2l-1 6-2-2-3-9h-2l2 10-2-1-2-11z" fill="#2D3E53"/>
<path transform="translate(479,116)" d="m0 0 2 2 1 13-3 2-4-2 3-1-1-11z" fill="#6C7F94"/>
<path transform="translate(557,110)" d="m0 0h6l1 2h-5l5 5v2h-8z" fill="#343944"/>
<path transform="translate(306,543)" d="m0 0 6 6v6l6 2-2 2-6-4-4-8z" fill="#69554A"/>
<path transform="translate(741,522)" d="m0 0h3v10l-4 4v-13z" fill="#DAD4D1"/>
<path transform="translate(202,507)" d="m0 0h10l9 1-1 2h-16l-5-1z" fill="#2A2022"/>
<path transform="translate(514,412)" d="m0 0 6 5-2 5-2 1-3-3-1-5z" fill="#69788B"/>
<path transform="translate(583,342)" d="m0 0h2l1 4-12 5-5 1 1-3 11-5h2z" fill="#3C404A"/>
<path transform="translate(525,226)" d="m0 0 4 2 2 4 1 10h-2l-1-7-3-6h-1l-1 12h-1v-13z" fill="#BBB1AC"/>
<path transform="translate(605,172)" d="m0 0 6 1 2 3h-6l-4 7-4-5 5-5z" fill="#555E6B"/>
<path transform="translate(600,86)" d="m0 0 3 1v2l4 2 4 5-3 2-9-9z" fill="#475971"/>
<path transform="translate(561,340)" d="m0 0h8v2l-5 2h-13l1-2z" fill="#EBEEF1"/>
<path transform="translate(617,320)" d="m0 0 2 3-11 9-4-2 6-4 3-3z" fill="#46576B"/>
<path transform="translate(509,225)" d="m0 0 3 1-1 9-4 6h-2l1-5 1-1 1-9z" fill="#292A32"/>
<path transform="translate(464,205)" d="m0 0 3 1v2l15 6v1h-8l-8-5z" fill="#8A8F97"/>
<path transform="translate(626,173)" d="m0 0h6v3l-8 2h-8l1-2z" fill="#485364"/>
<path transform="translate(630,153)" d="m0 0 3 1 2 11-5-2-1-5-1-4z" fill="#C5BFBC"/>
<path transform="translate(287,507)" d="m0 0h2v5h10l3-3-1 5-2 2h-8l-3-2z" fill="#ACA098"/>
<path transform="translate(465,315)" d="m0 0 5 2 8 4 1 4-6-1-5-4v-2z" fill="#516C8C"/>
<path transform="translate(580,207)" d="m0 0 2 1-5 5-5 3-7 1-1-2 8-3z" fill="#858F9C"/>
<path transform="translate(511,160)" d="m0 0 2 3-4 4h-2v2l-4-1 2-1-4-2v-2h7l1-2z" fill="#D5DCE4"/>
<path transform="translate(505,311)" d="m0 0 4 1v4h-10l-3-1 1-3h6z" fill="#D7D1CD"/>
<path transform="translate(503,290)" d="m0 0 2 1v2l3-3h3l-1 5-3 3h-5v-6z" fill="#696365"/>
<path transform="translate(587,253)" d="m0 0 2 2 7 1 1 5-9-1z" fill="#D1D2D5"/>
<path transform="translate(580,200)" d="m0 0h4v3h-20l-1-2z" fill="#2E3B4E"/>
<path transform="translate(533,140)" d="m0 0h3v2h-2l-2 4 1 3 3-1v2h-5l-2-2v-3l-3 1 1-3z" fill="#A8A5A4"/>
<path transform="translate(545,603)" d="m0 0h1l-1 13-1 3-3 3-3-1 1-2h2l1-8z" fill="#DAD6D4"/>
<path transform="translate(640,576)" d="m0 0 8 1-2 4-3-1v2l-3 1-2 5-1-3z" fill="#4E6C91"/>
<path transform="translate(654,453)" d="m0 0 5 1 2 3v3l-3 1-4-2v-2h-2v-2h2z" fill="#B2A7A0"/>
<path transform="translate(466,273)" d="m0 0 1 2-2 5-6 3-4-1 3-2-8-2 1-2 10 2z" fill="#7895B1"/>
<path transform="translate(531,156)" d="m0 0 2 1-2 4 2 5-1 2-4-2-4-5 1-3 4 4-1-4z" fill="#BDB5AF"/>
<path transform="translate(472,114)" d="m0 0 7 1-1 4-7-1v6h-1l-1-5v-3z" fill="#424D5C"/>
<path transform="translate(693,507)" d="m0 0h2l1 5 9 2v10h-1v-8l-8 1-2-3z" fill="#C3BBB6"/>
<path transform="translate(289,496)" d="m0 0 1 4-1 5 7 1 5 1-2 2h-9l-2-2v-8z" fill="#DEDEDE"/>
<path transform="translate(560,316)" d="m0 0 1 4-10 4-5-2 3-2 6-1 1-2z" fill="#485D77"/>
<path transform="translate(552,651)" d="m0 0m-1 1m-1 1m-3 1h3v4l-5 2h-3v2l-9 1v-1l7-1v-2l5-3z" fill="#4A6587"/>
<path transform="translate(394,530)" d="m0 0h1v13l-2 2v-4h-8v-1h7v-7z" fill="#445166"/>
<path transform="translate(616,460)" d="m0 0 4 1 9 11-1 3-7-8-5-5z" fill="#485B76"/>
<path transform="translate(588,284)" d="m0 0 5 1 2 6-1 2-6 1-1-2h5v-4l-4 1z" fill="#667281"/>
<path transform="translate(649,224)" d="m0 0h1v21h-1l-1-7-3-2 2-7z" fill="#23354A"/>
<path transform="translate(641,183)" d="m0 0h2v15h-8l1-2h3l2-9z" fill="#7891A9"/>
<path transform="translate(631,131)" d="m0 0 3 4 4 8-2 4-5-10-2-1z" fill="#213346"/>
<path transform="translate(586,89)" d="m0 0 5 3 1 2-7-1v4l-4 2v-6l3-3 2 1z" fill="#AFAEB0"/>
<path transform="translate(331,534)" d="m0 0h10l9 1 2 2h-16l-5-2z" fill="#1C1B20"/>
<path transform="translate(311,476)" d="m0 0 2 1-9 3h-11l1-3z" fill="#6B574C"/>
<path transform="translate(477,205)" d="m0 0h7v6l-5 1-2-1z" fill="#FDFDFD"/>
<path transform="translate(553,195)" d="m0 0 4 1 3-1 2 2v3h-9l-3-3z" fill="#B2B4B8"/>
<path transform="translate(605,182)" d="m0 0 2 3 2 4 3 1v2l-5 1-2-1-2-4 1-4z" fill="#484C56"/>
<path transform="translate(495,186)" d="m0 0h2l2 3 2 1-2 2-2 13h-1l-1-14-1-4z" fill="#99989B"/>
<path transform="translate(459,97)" d="m0 0 5 3 3 5v4l-4-2-4-7z" fill="#3C4756"/>
<path transform="translate(468,76)" d="m0 0h1l-1 11-8 2-2-1v-2h6l1-5h2z" fill="#D8E1EA"/>
<path transform="translate(431,643)" d="m0 0 15 1-2 3h-8l-5-2z" fill="#2B384C"/>
<path transform="translate(401,127)" d="m0 0h2l-1 7-3 7-2 1 2-12z" fill="#31435A"/>
<path transform="translate(516,66)" d="m0 0h4l-1 12h-3z" fill="#66768A"/>
<path transform="translate(738,561)" d="m0 0 5 2 1 5-2 4-3-3z" fill="#B4AAA3"/>
<path transform="translate(754,545)" d="m0 0h1l1 16-3 1v-16z" fill="#DED9D7"/>
<path transform="translate(507,529)" d="m0 0 2 1-1 4 1 3h2l3 5-1 2-10-11v-2z" fill="#6F93B5"/>
<path transform="translate(541,288)" d="m0 0h2l1 8-1 1h-5l1-7z" fill="#445A75"/>
<path transform="translate(414,265)" d="m0 0 4 5 2 6-4-1-2-1-2-6h2z" fill="#2A3B50"/>
<path transform="translate(457,264)" d="m0 0 9 1v2l3-1v3l-2 3-6-1 3-1v-4h-8z" fill="#A8A5A6"/>
<path transform="translate(665,260)" d="m0 0 3 1 2 8-5-1-3 1z" fill="#D8E1EA"/>
<path transform="translate(649,202)" d="m0 0 2 2v11l-2 2-2-2 1-9z" fill="#23354A"/>
<path transform="translate(490,154)" d="m0 0 1 3 4 1 3 4h-2l-1 2h-3l-4-8h2z" fill="#C6C4C4"/>
<path transform="translate(586,662)" d="m0 0 3 1h-2v2l-16 7-2-2 8-3h2l2-4z" fill="#4D6A8F"/>
<path transform="translate(519,660)" d="m0 0h8l2 2 4 2h-15l3-1v-2z" fill="#496385"/>
<path transform="translate(453,636)" d="m0 0 2 1-4 5h3l-5 4-4-1-3-2 8-4z" fill="#41556F"/>
<path transform="translate(560,630)" d="m0 0 3 1-4 8h-2l-1 2-1-4z" fill="#15181F"/>
<path transform="translate(490,305)" d="m0 0 2 1 1 7 4 4v2l-5-1-2-6z" fill="#6C594F"/>
<path transform="translate(516,307)" d="m0 0 4 1v9l-5-2v-6z" fill="#394E6A"/>
<path transform="translate(490,299)" d="m0 0 4 1-3 1-1 3 5 1v5h-3l-1-4-1 6h-1v-12z" fill="#C0B7B1"/>
<path transform="translate(535,255)" d="m0 0 4 1v6l-5 1v-7z" fill="#4B5E74"/>
<path transform="translate(531,255)" d="m0 0 4 1-1 7 2 1h-11v-3l6 1z" fill="#ABA8A7"/>
<path transform="translate(590,245)" d="m0 0h8l1 3h-7l-1 3v-3l-2 1-2 4v-5z" fill="#59687C"/>
<path transform="translate(486,226)" d="m0 0 4 3-1 3-6-1-7 7v-3l5-5z" fill="#505A69"/>
<path transform="translate(490,73)" d="m0 0h5l1 4 3 2-3 2-3-4-2 4h-2l-1-4z" fill="#C5BFBB"/>
<path transform="translate(487,205)" d="m0 0 2 4-1 4 2 1-6 2h-6l1-3h6z" fill="#B4ADA9"/>
<path transform="translate(472,187)" d="m0 0 2 2v3h1v8l-1-2h-2l-1 3v-12z" fill="#717D8D"/>
<path transform="translate(638,144)" d="m0 0 2 3 5 15h-2l-6-14z" fill="#2F2323"/>
<path transform="translate(453,73)" d="m0 0 5 1-1 3-5 2-4-2 2-3z" fill="#CCCCCE"/>
<path transform="translate(501,661)" d="m0 0 1 3-12 6h-2l-1 2 1-4 10-5z" fill="#4E6C91"/>
<path transform="translate(414,579)" d="m0 0h7l-3 2 1 2-3 1-4-2h-7-3l2-2z" fill="#3B4F6A"/>
<path transform="translate(518,528)" d="m0 0 2 1-2 3h-2v2l3-1 2 2-5 2-3 1v-6z" fill="#5C7492"/>
<path transform="translate(644,498)" d="m0 0 4 5h8l-4 4-4 1-4-7z" fill="#616F81"/>
<path transform="translate(478,322)" d="m0 0 9 3 1 4-8-2-2-2z" fill="#687D96"/>
<path transform="translate(495,306)" d="m0 0 2 4 5 1 3 1-2 1h-6l-1 2 3 1-5-1-2-1 1-4h2z" fill="#B8AEA8"/>
<path transform="translate(378,126)" d="m0 0h1v6l-5 10h-1l1-8z" fill="#536780"/>
<path transform="translate(601,107)" d="m0 0 3 1v3h-2l-2 4h-4l2-5z" fill="#A9A9AB"/>
<path transform="translate(511,750)" d="m0 0h1l1 10v9l-3-1-1-4 1-2z" fill="#BDB4AF"/>
<path transform="translate(285,581)" d="m0 0h2v11h-8l4-1v-6h2z" fill="#D3CCC8"/>
<path transform="translate(388,544)" d="m0 0 3 1v11l-3 1v-7l-1-5z" fill="#E9ECEF"/>
<path transform="translate(496,302)" d="m0 0h7l3 2-7 1v4l-3-1-4-5z" fill="#998B82"/>
<path transform="translate(510,225)" d="m0 0h3l2 7-1 9h-1l-1-7h-1l1-8z" fill="#66656C"/>
<path transform="translate(538,216)" d="m0 0 2 3-3 13h-2v-9z" fill="#C3BBB6"/>
<path transform="translate(639,179)" d="m0 0 3 4-1 12-2-2-1-6z" fill="#C5BFBD"/>
<path transform="translate(478,174)" d="m0 0h6l3 3-4 1-11-2v-1z" fill="#A4A2A2"/>
<path transform="translate(401,162)" d="m0 0 7 1 5 2-1 2h-6l-5-3z" fill="#5C7A9A"/>
<path transform="translate(392,151)" d="m0 0 3 4-2 16h-1v-11h-1v-7z" fill="#4E6783"/>
<path transform="translate(534,142)" d="m0 0 7 3-1 2-7 2-2-4z" fill="#D9E2EC"/>
<path transform="translate(659,538)" d="m0 0h2l2 13-3-1-1-3z" fill="#292225"/>
<path transform="translate(316,466)" d="m0 0h4l1 4-7 2-1-4z" fill="#EBEEF1"/>
<path transform="translate(567,350)" d="m0 0 4 1-4 4h-12l3-2z" fill="#1B1C23"/>
<path transform="translate(524,308)" d="m0 0h8l1 3-1 3-4-2-3-1z" fill="#526D8E"/>
<path transform="translate(649,289)" d="m0 0 2 1-1 4-7 7v-3z" fill="#C7D4E1"/>
<path transform="translate(492,254)" d="m0 0h3v6l-1 2-4 1-1-2z" fill="#62748A"/>
<path transform="translate(485,251)" d="m0 0h2v9l-1 2h-3l1-10z" fill="#546579"/>
<path transform="translate(560,202)" d="m0 0 2 2-12 1 4 5-4-1h-3l1-5 1-1z" fill="#B1ABA9"/>
<path transform="translate(481,191)" d="m0 0 4 3h3l2 4-5 1-1-2h-3z" fill="#B4AAA3"/>
<path transform="translate(592,176)" d="m0 0h4v4h-2v2h-2v2h-2l-1-5h2z" fill="#E9ECEF"/>
<path transform="translate(373,152)" d="m0 0 3 1 2 2-2 5h-5l1-7z" fill="#BFBAB9"/>
<path transform="translate(619,125)" d="m0 0h2l3 6v3l3 1 2 6h-3l-2-5-5-9z" fill="#607893"/>
<path transform="translate(383,117)" d="m0 0 1 3-2 7-3 1-1-4 3-6z" fill="#64778E"/>
<path transform="translate(533,61)" d="m0 0 10 2-2 4-5-2h-3v-2l-2-1z" fill="#657E99"/>
<path transform="translate(527,31)" d="m0 0 5 1v3h-8l-5-1 4-2z" fill="#EEF0F3"/>
<path transform="translate(533,613)" d="m0 0 2 1-2 11-3 1-1-3z" fill="#5A6F8A"/>
<path transform="translate(535,575)" d="m0 0 2 3 1 4 2-2 2 1-1 7-5-5z" fill="#5E7B9C"/>
<path transform="translate(541,566)" d="m0 0 4 1-6 5-4-1v-3z" fill="#40536E"/>
<path transform="translate(294,473)" d="m0 0 1 2 16 1v1l-18 1z" fill="#AA9E96"/>
<path transform="translate(604,331)" d="m0 0h3v2l-9 6-4-2z" fill="#2A3443"/>
<path transform="translate(460,312)" d="m0 0 5 2 5 6-6-1v-2l-4-1z" fill="#3D536E"/>
<path transform="translate(589,248)" d="m0 0h2l1 3 3 2v2h-7v-6z" fill="#1D1F26"/>
<path transform="translate(476,183)" d="m0 0 3 1 1 3-5 1-1 5-2-3 2-5z" fill="#5A5354"/>
<path transform="translate(532,166)" d="m0 0 4 2-3 3-2 6-3 1 1-9 3-1z" fill="#ACA6A4"/>
<path transform="translate(547,59)" d="m0 0 8 1 4 3-8 1-4-4z" fill="#C8CBD0"/>
<path transform="translate(508,658)" d="m0 0v3l-4 4-6 3-2-1 4-3h2v-3l5-2z" fill="#607187"/>
<path transform="translate(458,632)" d="m0 0 1 4-8 7-2-1 5-6z" fill="#2F4158"/>
<path transform="translate(739,527)" d="m0 0h1l1 8 2-1-2 5-3-2-1-8z" fill="#C3BBB6"/>
<path transform="translate(301,521)" d="m0 0 2 1 1 13-3-3-1-9z" fill="#15181F"/>
<path transform="translate(654,517)" d="m0 0 5 1v7h-4l-1-2z" fill="#AA9E96"/>
<path transform="translate(405,490)" d="m0 0 1 2-2 5-2 9-2 2v-7l4-10z" fill="#3D506C"/>
<path transform="translate(509,313)" d="m0 0h2l-2 6h-11v-2l11-1z" fill="#6B5B53"/>
<path transform="translate(463,245)" d="m0 0h6l-1 3-7 2-1 4v-6z" fill="#5A697D"/>
<path transform="translate(659,234)" d="m0 0h1l2 9-3 2-2 9h-1l1-10z" fill="#4E6C91"/>
<path transform="translate(642,199)" d="m0 0h2v12l-1 7h-1l-1-11z" fill="#B8B7B8"/>
<path transform="translate(590,672)" d="m0 0 3 2 3-2-2 5h-10l4-1v-3z" fill="#584137"/>
<path transform="translate(726,551)" d="m0 0 3 2 1 4h-6l-2-1 1-3z" fill="#584137"/>
<path transform="translate(660,505)" d="m0 0h3l-1 7-4 1v-6z" fill="#362A29"/>
<path transform="translate(290,487)" d="m0 0h2l-2 6h-2l-1 4h-1v-7z" fill="#352827"/>
<path transform="translate(509,452)" d="m0 0 4 1v2l-4 1-10-1v-2z" fill="#40536F"/>
<path transform="translate(666,246)" d="m0 0h2l-1 11-2 5-1-3 2-8h-2z" fill="#3E5672"/>
<path transform="translate(522,223)" d="m0 0h7l3 3v2l-5-1-5-3z" fill="#556072"/>
<path transform="translate(548,200)" d="m0 0h10l2 1v2h-8l-4-1z" fill="#3B4C61"/>
<path transform="translate(437,181)" d="m0 0h6v3l-5 2-4-1z" fill="#4B5461"/>
<path transform="translate(563,80)" d="m0 0h2l-3 12h-3v-3z" fill="#506680"/>
<path transform="translate(566,77)" d="m0 0 5 1 3 3-7-1-2 4-1-2 1-2-3 1v-2z" fill="#C4BDBA"/>
<path transform="translate(419,582)" d="m0 0 5 1 1 2-6 3-2-5z" fill="#607187"/>
<path transform="translate(687,521)" d="m0 0h1v10l-3 3v-9z" fill="#D8D2CF"/>
<path transform="translate(426,311)" d="m0 0 6 4v2h2l-1 3h-2v-2l-4-2z" fill="#6C8FB1"/>
<path transform="translate(572,205)" d="m0 0h3l2 5-5 2-1-4z" fill="#E9ECF0"/>
<path transform="translate(498,195)" d="m0 0 2 2 1 8h-2l-1 3-1-1v-8z" fill="#3F3332"/>
<path transform="translate(561,179)" d="m0 0h2v2l-5 3-5 4-1 3h-2l2-5 7-6z" fill="#A8A29F"/>
<path transform="translate(612,115)" d="m0 0 4 2 2-2 3 5h-3l1 5-2-1-3-5z" fill="#708196"/>
<path transform="translate(593,95)" d="m0 0 4 2 10 10-1 2-13-13z" fill="#A8A5A6"/>
<path transform="translate(473,75)" d="m0 0 3 2 3 9-4-2v-3h-2z" fill="#546B85"/>
<path transform="translate(520,551)" d="m0 0 5 5 2 5h-3v-2l-3-1-1-3z" fill="#65809C"/>
<path transform="translate(761,516)" d="m0 0h3v6l-2 2v-4l-4 4 1-7z" fill="#BEB5B0"/>
<path transform="translate(742,502)" d="m0 0 12 1v2h-11l-2-2z" fill="#B3A9A2"/>
<path transform="translate(664,500)" d="m0 0h2v6l-1 2h-2v-3l-3-1z" fill="#675348"/>
<path transform="translate(585,413)" d="m0 0h2v2h-3l-2 4-7-1 3-2z" fill="#4D3932"/>
<path transform="translate(424,319)" d="m0 0 4 1 10 8 1 2-5-2-10-8z" fill="#808C9A"/>
<path transform="translate(577,245)" d="m0 0h5v3l-9 3 1-4z" fill="#323A47"/>
<path transform="translate(519,225)" d="m0 0h4l-1 16h-1l-1-10z" fill="#2F435C"/>
<path transform="translate(494,195)" d="m0 0h1v11l-2 1-1-7 1-4z" fill="#E7E9EC"/>
<path transform="translate(593,189)" d="m0 0h7l-1 4h-9l2-1z" fill="#696C74"/>
<path transform="translate(550,147)" d="m0 0 4 5 6 7-1 2-7-7-3-6z" fill="#7389A0"/>
<path transform="translate(490,145)" d="m0 0h2l-1 5-5 4 1-7z" fill="#6F87A0"/>
<path transform="translate(406,121)" d="m0 0 1 4-3 6-2-4 1-5z" fill="#465C77"/>
<path transform="translate(557,306)" d="m0 0h2l1 9-3 1-1-2v-6z" fill="#D9E2EC"/>
<path transform="translate(579,283)" d="m0 0 4 1v9l-2-1-2-5z" fill="#647890"/>
<path transform="translate(462,280)" d="m0 0 2 2-3-1zm-3 2h2l-2 4-2 1v-2h-6v-2z" fill="#C7C2C0"/>
<path transform="translate(384,257)" d="m0 0h2l2 9-1 2h-2l-1-6z" fill="#4F6D92"/>
<path transform="translate(584,253)" d="m0 0 3 1 1 6-3 1-2-2z" fill="#E7E9EC"/>
<path transform="translate(504,222)" d="m0 0h6l-2 2-2 4-3-3 1 6-2-3 1-5z" fill="#BFB6B1"/>
<path transform="translate(566,176)" d="m0 0 5 1 1 4-8-1-1-2z" fill="#97A2AE"/>
<path transform="translate(637,148)" d="m0 0 2 3 1 3-4 2-2-1v-5h2z" fill="#232F3F"/>
<path transform="translate(420,120)" d="m0 0 4 1 4 4v2l-5-2-3-2z" fill="#6887A5"/>
<path transform="translate(463,119)" d="m0 0h2v2h2l1 9-4-2z" fill="#F4F6F7"/>
<path transform="translate(600,98)" d="m0 0 4 1 3 3v2l-3 1-4-4z" fill="#2B2F3A"/>
<path transform="translate(466,79)" d="m0 0 1 2h-2l-1 5-4 1-2-2 3-1 1-3z" fill="#C3BBB6"/>
<path transform="translate(383,596)" d="m0 0 3 1 2-1 1 3-4 4-2-1z" fill="#4E6C90"/>
<path transform="translate(659,550)" d="m0 0 1 2h2l1 6h-4l-1-7z" fill="#B4AAA3"/>
<path transform="translate(516,540)" d="m0 0h7l1 3-6 1z" fill="#546A85"/>
<path transform="translate(308,534)" d="m0 0 3 1-4 2v6l-2 1-1-7 1-2z" fill="#665146"/>
<path transform="translate(435,305)" d="m0 0 8 5v2l-7-2-3-3h2z" fill="#4C6584"/>
<path transform="translate(509,299)" d="m0 0 8 3-2 2-6-1v-2h-5v-1z" fill="#5F758F"/>
<path transform="translate(553,294)" d="m0 0 4 4 4 2 1 3-10-4z" fill="#CBCBCD"/>
<path transform="translate(449,274)" d="m0 0h2l-1 4 8 1 1 2-5 1-1-3h-4v-2h-2v-2z" fill="#A79C95"/>
<path transform="translate(527,256)" d="m0 0h5l-1 6-4-1z" fill="#4F5F73"/>
<path transform="translate(516,236)" d="m0 0h3v7h-5z" fill="#C4BEBA"/>
<path transform="translate(524,147)" d="m0 0 1 4 1 1 3-1-1 4-5 1v-7z" fill="#9F9EA0"/>
<path transform="translate(387,148)" d="m0 0h1l-1 9-1 4h-2l1-9z" fill="#3F526E"/>
<path transform="translate(429,110)" d="m0 0 2 1-2 5h-3l-1 3-3 1v-2h2l1-5 3-1z" fill="#D2D6DB"/>
<path transform="translate(541,72)" d="m0 0h2v10l-3-1z" fill="#5F758F"/>
<path transform="translate(577,70)" d="m0 0 4 1 3 2 1 4-5-2-3-3z" fill="#302C31"/>
<path transform="translate(663,580)" d="m0 0h2l-1 5-3 5-1-3z" fill="#EBEEF1"/>
<path transform="translate(659,590)" d="m0 0" fill="#EBEEF1"/>
<path transform="translate(656,594)" d="m0 0" fill="#EBEEF1"/>
<path transform="translate(657,593)" d="m0 0" fill="#EBEEF1"/>
<path transform="translate(658,592)" d="m0 0" fill="#EBEEF1"/>
</svg>
