<?xml version="1.0" encoding="UTF-8"?>
<svg version="1.1" viewBox="0 0 1600 1168" width="1280" height="1280" xmlns="http://www.w3.org/2000/svg">
<path transform="translate(1202,76)" d="m0 0 6 1 1 1h6l2-2h5l2 2 7 1 3-2 5 1 1 1h8l5-1 2 1h32l20 2 5 5 23 4 79 8 78 9 37 6 10 3 5 4 1 3v12l-3 27 2 5-1 8-7 8h-76l-79-4-91-4-49-5-9-2-4-1h-6l-4-4-5-1v4h-7l-4-6-4-1-2 6-6-2-1-3-8-2-3-2-2-4-13-3-37-3-16-1h-16l-31 2-19 3-23 6-21 8-28 13-16 9-12 8-18 13-6 5-1 7 12 34 3 13 2 19v29l-2 9-5 10-10 9-6 4-7 7-8 7-10 9-17 16-12 11-10 10-8 7-20 20-8 5-3 1h-11l-30-4-13-1h-12l-12 2-12 5-11 7-13 12-8 7-8 8-8 7-11 10-11 9-10 8-14 11-14 12-10 9-8 7-1 2h-2l-2 4-11 12-9 11-9 10-9 11-11 13-12 16-13 20-9 15-15 28-10 19-8 12-7 6-19 8-9 6-9 9-11 16-10 15-12 16-18 22-13 15-7 9-14 17-9 11-9 10-9 11-13 14-9 11-18 20-9 11-12 14-10 13-13 18-14 20-11 17-7 11-16 24-9 14-12 21-8 13-6 15-8 24-4 16h-64l1-9 6-27 13-50 7-21 4-10-5-6-11-8-10-9-4-8 1-8 7-8 4-2v-13l9-19 10-9 1-4v-10l5-9 4-4h2l1-8 1-7 7-10 4-1 3-15 5-10 6-7 4-13 6-9 4-5 2-9 6-12 4-5 6-15 9-13 7-16 9-9 3-12 8-16 10-15 12-17 10-13 8-10 9-12h2l2-4 5-8 12-8 16 1 9-6 6-7 5-9v-6l-2-5h-2l-5-5-14-11-3-4 2-8 4-8 8-8 14-10 9-8 12-8 17-12 22-22 7-8 39-39 8-7 7-7 8-7 12-11 11-9 10-9 11-9 15-12 14-10 17-13 14-10 16-11 33-22 19-12 21-14 11-9 15-15 9-11 6-7 13-10 27-15 11-8 13-11 12-11 8-7 9-11 8-10 10-17 5-11 10-24 4-6 5-3 11 2 12 5 14 10 10 9 8 7v2l4 2 2 2 5-1 10-7 14-10 24-14 21-11 29-12 28-9 26-6 23-4 29-3 16-1 81-1v-3l7-1h6z" fill="#51494C"/>
<path transform="translate(1202,76)" d="m0 0 6 1 1 1h6l2-2h5l2 2 7 1 3-2 5 1 1 1h8l5-1 2 1h32l20 2 5 5 23 4 79 8 78 9 37 6 10 3 5 4 1 3v12l-3 27 2 5-1 8-7 8h-76l-79-4-91-4-49-5-9-2-4-1h-6l-4-4-5-1v4h-7l-4-6-4-1-2 6-6-2-1-3-8-2-3-2-2-4-13-3-37-3-16-1h-16l-31 2-19 3-23 6-21 8-28 13-16 9-12 8-18 13-6 5-1 7 9 26-8 1-9 4-27 9-21 8-26 11-20 11-11 7-25 15-16 9-18 10-56 28-18 10-16 11-36 26-19 14-24 18-14 11-4 3h-2v2l-13 10-10 8-22 18-15 13-10 9-13 12-9 7-12 11-2 3h-2l-2 4-6 5-10 10h-2l-1 3-8 7-11 10-1 3-10 7-7 3-16 11-7 1-21-14-8-6-5-5-7-4 2 6 4 6v11h-2l-1 6-1 5-1 4-3 3-1 4-1 2v6l1 2 7 2 4 5v2l4 2 3 3v4h-8l-7-3-6-2-1 4v7l-7 7-8-1-5-3-12-1 2 7-1 4-4 2-7 1 3 9-5 1h-5-3-2l2 9 5 6v6l-17-1-3-1 3 6 10 12 1 5-6 7h-2v2l-2 1-3 5h-2l-2 5-4 7-6 8-1 8v6l-3 7h-2l-2 4-3 2-7-1-5-4-5-2 3 6v2h2l1 5-7-4-5-6-6-4-5 2 1 7 4 9 3 6-5 2-2 1 3 5v2h2v3l-4-2-10-8-4-2-3 6 4 11 2 9-5-1 2 6 4 7v2l-4-2-8-8v-2l-6-2-3 3-1 6 4 8 4 9-3 1h-3l1 6 3 3v2h2l-1 3-1-2h-2l-7-8-6-5-4 1 2-4 4-5 2-9 6-12 4-5 6-15 9-13 7-16 9-9 3-12 8-16 10-15 12-17 10-13 8-10 9-12h2l2-4 5-8 12-8 16 1 9-6 6-7 5-9v-6l-2-5h-2l-5-5-14-11-3-4 2-8 4-8 8-8 14-10 9-8 12-8 17-12 22-22 7-8 39-39 8-7 7-7 8-7 12-11 11-9 10-9 11-9 15-12 14-10 17-13 14-10 16-11 33-22 19-12 21-14 11-9 15-15 9-11 6-7 13-10 27-15 11-8 13-11 12-11 8-7 9-11 8-10 10-17 5-11 10-24 4-6 5-3 11 2 12 5 14 10 10 9 8 7v2l4 2 2 2 5-1 10-7 14-10 24-14 21-11 29-12 28-9 26-6 23-4 29-3 16-1 81-1v-3l7-1h6z" fill="#6B7EA7"/>
<path transform="translate(380,618)" d="m0 0 4 2 11 7 13 8 5 3v2l14 1 10-4 10-2h7l6 4 2 3 1 5v9l-1 12 1 7 5 8 5 6 3 3 1 5-13-6-3-2-2 6h-2l-2 4-3 5h-2l-1 4-4 6-1 8h-6l-2-1h-11l-4 3h-2l1 11 2 1 1 5 3 1 3 3 2 1-2 4-11 16-10 15-12 16-18 22-13 15-7 9-14 17-9 11-9 10-9 11-13 14-9 11-18 20-9 11-12 14-10 13-13 18-14 20-11 17-7 11-16 24-9 14-12 21-8 13-6 15-8 24-4 16h-41l1-7 3-7 3-13 2-12 2-8 1-13 3-6 1-7 3-10 3-13 1-8-1-6-2-4-4-1-1-3 13 1 14 3-1-3-21-10-7-4-5-2-6-4-6-5v-2l-2-1 4 1 10 5 7 1 1-1-1-8-7-7-1-4 10 1 4-4 7-2-1-6-9-7-7-9-1-3 6 2 4 3 7 3 4 2-6-11-2-3 1-4 10 3 2 2h7l-5-5-5-4-3-1-8-11-2-4 1-4 5 2 3 3v2l4 1 7 5 6 3v-4h-2l-6-9-3-2v-4l5 1 7 5 5 1v2l3-2v-3l-7-5-5-5v-3l-4-2-5-8v-6l5 1 2 5 4 1 3 2v2l4 2 9 5 1-2h-2l-6-10-5-3-2-4 1-3 9 5 5-2-6-9-5-6-2-6-2-1-1-6 4 1 5 3 3 5 2 1v2l6 3v2l5 2 4 2-3-7-2-6-3-1 1-3 12 7 7-1-4-5-4-4-8-10-6-8v-4l4 1 5 5 9 8 11 5-3-5v-7l7 3 7 5 6 2 10 4-2-4-8-8-6-4-16-15-7-9-4-6v-3l10 5 7 7 1 2 4 1 5 5 4 1-4-8-5-6-5-5-1-2 6 1 6 3h5l-3-3-1-3-5-5-3-5-2-5-2-2v-5l4 2 4 4 4 2v3l4 2 5 4 10 4-5-10-2-5 5 1 2 1v2h6l4 3 4 1-3-5-5-5-6-5-7-8-10-13-2-7h2v2l4 1 5 5 7 6 7 5v2l5 2v2h5l-2-5-4-6 1-3 6 4 9 1 1 1h5l1-2h2l1-4 6-8 4-1 3-3 5-4 1-2h2l2-5 3-4 3-1 5-7h2v-2l5-5 3-5 3-1h8l1-3-4-2-9-7v-2l-4-2-2-2 1-4 5 1 9 3h12v-5l-8-7-4-3v-2l-4-2 1-5 17 6 6 1v-4l1-5h2l1-3h2l-2-8-4-2-11-8-8-7-5-4-5-6v-2l5 1 13 8 5 2 3 5 8 7v2l12 2 2-5 3-5-1-9-8-5-7-2v-2h-2v-3h-2l-1-5 4-1 7 1h7v-2l7-3 6-5 6-7 3-3h2v-2l6-2 1 2-2 4h-2l-2 6h-2l-2 5-6 8-1 5 9-1 1-4 4-7 6-11 3-4 6-1 5 1-5-7-11-9z" fill="#393235"/>
<path transform="translate(1250,78)" d="m0 0 5 1h32l20 2 5 5 23 4 79 8 78 9 37 6 10 3 5 4 1 3v12l-3 27 2 5-1 8-7 8h-76l-79-4-91-4-49-5-9-2-4-1h-6l-4-4-5-1v4h-7l-4-6-4-1-2 6-6-2-1-3-8-2-3-2-2-4-13-3-37-3-16-1h-16l-31 2-19 3-23 6-21 8-28 13-16 9-12 8-18 13-6 5h-5l-12-19-5-10 1-3 12-9 15-11 22-13 29-14 20-8 21-7 22-5 32-5 31-2h15l36 3 22 2h2l-1-3-13-2-42-3h-30l-27 2-30 5-20 5-24 8-30 13-18 10-19 12-17 12-12 9-3-1-4-6-1-1v-8l12-9 5-3 5-4 8-4 9-6 11-6 12-7 14-6 9-4 15-6 12-4h6v-2l10-2 3 1 16-3 15-4 12-2 19-3 15 1 35 5 1 1 48 3h6l2-3 4 3h9v-2l4 1 3 2 5 1 1-6 10 6 4 1v-7l-2-7-4-2v-1l9-2 4-4h14z" fill="#3A3336"/>
<path transform="translate(694,277)" d="m0 0h31l23 2 11 2h8l12 4 1 5-4 7-1 2h-2v2l-10 7-15 6-14 7-6 1-1 3-12 6-14 4-14 7-14 8-9 6-5 4h-2v2l-8 5-1 2-4 2-4 4-4 1v2l-10 8-4 4h-2l-2 4-8 5-11 6-22 14-3 3-13 10-4 1-2 4-4 4-5 3-10 9-10 8-3 1v2l-11 8-11 10h-2l-1 3-5 4h-2v2l-5 3h-2l-1 3-11 9-5 4h-3l-2 4-5 4h-2v2l-4 1-1 3-6 5-4 4-8 6-13 9-7 3-21 3-14-1-5-3v-6l3-5h2l1-5 4-4h2l2-5 5-5 9-10 8-8 2-4 5-5h2v-3l4-4h2l2-4 6-7 6-5 6-7 6-5 6-7h3l1-4 5-4h2l2-4 8-6 2-4 6-4 3-1v-2h3l1-3 9-5 1-2h2v-2h3v-3l10-6 1-2h2l2-4 10-7h2l4-8 17-12 16-11 33-22 19-12 21-14 11-9 8-8 5-3 11-4 9-5z" fill="#726D72"/>
<path transform="translate(327,578)" d="m0 0 7 3 6 5 5 5 21 14 3 3-5-1 5 5 11 9 3 3 5 2 6 5 5 6-1 2-8-1-4 2-3 6-7 13-3 5-6 2-3-1 1-7 7-9 1-2h2l2-6h2l1-5-6 1v2h-2l-1 3-5 5h-2l-2 4h-2l-1 3-5 3h-4v2l-11 1-4-1-2 1v4h2v3h2v2l9 2 7 5 1 9-6 10h-7l-5-2-11-11-2-3-10-5-8-5-3-1 2 4 8 7 9 8 10 7 5 5 1 6-3 3h-2l1 9-6 1-12-5-6-2-1 4 3 2v2l4 2 6 5v2l3 1-1 5-5 1h-8l-10-4h-3l1 4 4 3v2l4 2 9 7-1 4h-11l-1 4-5 6h-2v2l-5 5-2 3h-3l-2 4-3 5h-2l-2 4-4 3h-2l-1 3-5 2-4 6-2 4h-2l-1 3h-5l-4-1-7-2-5-3 2 4 4 7-1 3-5-1v-2l-5-2v-2l-4-2-9-8h-2v-2l-4-2v-2l-4-1v-2h-2l5 10 11 13 3 3v2l3 1 11 11v3l-6-1-4-2-4-1v-2l-7-2 6 10 1 5-7-2-6-3-6-5-1-3-5-3v-2l-6-3 2 6 2 2 3 8 5 5 1 4 3 1v2l-5 1-9-4-1 1 5 5 8 11 1 4-6-2-4-3v-2l-5-1-7-8-10-6 6 11 11 12 12 11 6 4 9 9-1 3-12-5-6-2-8-6-3-1v6l2 2v3l-6-2-6-3-10-9-3-2v-2l-4-1 3 7 9 11 4 6 3 2v2l3 1v2h-3l-1 2-4-1-11-6v2l3 3 4 7v4l-4-1-5-3v-2l-6-3v-2l-4-2-3-5-6-2 2 6 5 9 6 7 2 5h-2l-1 3-6-2-5-3 2 6 5 3 5 8v2h2l-1 3-10-6-3-2v-2l-4-2-3-1-2-5-5-1 2 8 5 7 2 1v3l4 2 1 3 4 2 4 3v5h-4v-2h-5l-9-6-3-1v4l4 2 5 7v2h2l1 5-10-5-5-4-3-1-4-5-4-1 1 5 6 9 2 4 5 1 6 5 3 5h-8l-2-2-10-3 1 5 6 9v3l-4-1-16-8 4 6 6 7 7 5v6l-8 4-4 3-9-2 4 6 5 5 1 8-3 2-7-2-11-5 8 8 5 3 8 3 19 10 6 3v3l-11-1-12-2h-3v2l4 1 4 6v7l-1 6-3 12-3 10-1 8-3 5-1 13-3 11-2 13-2 10-4 9-1 4h-23l1-9 6-27 13-50 7-21 4-10-5-6-11-8-10-9-4-8 1-8 7-8 4-2v-13l9-19 10-9 1-4v-10l5-9 4-4h2l1-8 1-7 7-10 4-1 3-15 5-10 6-7 4-13 3-5 5-2 8 7v2l4 2 1 3 3 1 1-2h-2l-5-7 1-5h5l-8-18 3-9 5 1 13 13 2 1-7-13 1-3 4 1-3-11-3-9h2l1-5h3l6 4 8 7 2 1v-3h-2l-4-8 7-2-6-12-2-5v-5l4-3 4 2 6 4 5 5 4 3v-4h-2l-3-5v-3l6 2 6 4 7-1 3-4h2l1-6 1-5v-7l3-6 4-5 5-9 5-5 2-4h2v-2h2l2-4h2l1-5-4-7-8-9-1-5 19 1v-7l-4-2-3-9 4-4 7 1 4-1-3-9 11-2 1-4-1-7 4-1 10 2 6 3h5l3-3h2l1-3v-9l2-3 6 2 7 3 8 1-2-5-5-4-5-7-7-2-1-2v-6l2-3 1-5 3-2v-7l3-7h2l-1-11-6-10z" fill="#7E7980"/>
<path transform="translate(925,244)" d="m0 0 3 1 5 16 3 24v29l-2 9-5 10-6 5v-15l2-13-1-6v-7l-1-4-3-1h-24l-14-1-33-5-2-1h-8l-7 3-2 2h-3v2l-8 4-4 4-9 6-7 2-3-1v2l-5 1v2h2l-2 5-3 5-1 2h-2v7l4 10 6 6 6 12-1 6-1 9-3-1-1 5-5 10-4 9-7 1-2 1-18-3-9-3-11-3-6-1-13-4-9-2-7-1-4-1-10-1-7 1-11 6-6 5-7 8h-2v2h-2v2l-8 5-10 7-8 7-7 6-3 3-5 4-5 5-8 7-8 3-2 2h-3v2l-16 8-4 1v2l-6 4-10 7-4 5-7 8-2 6v6l-4 14h-2l-1 5-3 5h-2l-2 4-11 10-5 1v2h-2v2l-6 2v2l-11 6-10 7-2 3h-2v2h-2l-2 5-7 8-6 9-4 9v8l-2 9-2 3h-2l-2 4-14 7-4 1-3-1v2l-9 4-6-1-8-3-10-6-20-14-2-1v-2l10-5 14-10 5-2 9-6 2-4 13-12 5-4 5-5 6-5 6-7 6-5 7-8 10-9 9-7 16-15 14-12 13-11 14-11 12-10 9-7h2v-2l11-8 10-8 12-9 38-28 10-7 28-20 13-8 27-14 17-8 36-19 21-12 25-15 18-11 15-8 24-10 30-11 26-9z" fill="#665F64"/>
<path transform="translate(1202,76)" d="m0 0 6 1 1 1h6l2-2h5l2 2 7 1 3-2 5 1 1 2h-6l-6 5-6 1 5 5 1 9-1 2-6-1-7-5-2 5-7-1-5-3v2l-9 1-4-3-2 3-41-2-13-1-1-1-44-6-15 1-10 2-13 2-14 4-16 3-6-1-7 1v2l-12 3-12 4-10 5-10 4-12 5-28 16-9 6-7 4-3 3-6 3-7 6h-2l1 8 4 5 1 2 5-2 10-8 24-16 20-12 16-8 23-10 27-9 27-6 29-4 18-1h30l42 3 13 2 1 4-5 1-40-4-23-1-27 1-26 3-27 5-25 7-21 8-26 12-19 10-16 10-13 10-11 8-2 5 4 9 2 6v6l-6-1h-9l-10 5-7 3-2 3 1 3-2 2v2h2l-1 6-1 2 6 2 1-6 5-8 6-4h13l8 5 1 2v9l-5 6-12 6h-3v2l-3 3-6 1-2 2h-3l-1 3-3 1-5-3-6-2-5 4-7 1-24 11-17 9h-10l-7-3-1-2-7-3-2-5-9 1-3 1-29 2-3 1h-8l-9 1-28 4 1 4-5 5-15 7-5 2h-3l11-12 9-11 10-8 13-8 18-10 11-8 13-11 12-11 8-7 9-11 8-10 10-17 5-11 10-24 4-6 5-3 11 2 12 5 14 10 10 9 8 7v2l4 2 2 2 5-1 10-7 14-10 24-14 21-11 29-12 28-9 26-6 23-4 29-3 16-1 81-1v-3l7-1h6z" fill="#628AD5"/>
<path transform="translate(689,387)" d="m0 0h12l13 2 9 2 19 5 13 3 7 3h7l4 2h10l9 2v-2l4 2 5 4 7 8 1 3h2v2h2l3 10-1 4-5 2h-11l-30-4-13-1h-12l-12 2-12 5-11 7-6 5-7 3-1 2-6 3h-2l-1 5-4 3h-3v2l-4 1-1 4-4 4-3 1-1 3-5 4-4 4-6 1-1 3-3 2h-3v2l-5 3-7 5h-3v2l-6 3-7 2-3 2-16 8h-2l-2 4h-3l-3 3-5 2-5 5-11 9-1 3h-2l-2 4-5 4-2 5h-2v2l-4 4h-2v2h-2l-1 5-6 5h-2v2l-9 7-3 1-1 3-9 6h-2v2h-2v2l-7 4-4 5-7 6-8 4-5 1-5-2-3-9-1-8 3-12 8-13 4-6 10-12h2v-2l7-5 8-4 5-2v-2l5-3 10-7 4-3h2l2-4 4-2 2-5 3-6 3-9 1-7h2l1-9 9-14h2v-2l7-4 17-3 8-4 6-4 10-4 5-3 1-2h2v-2l7-5 6-8 4-4 3-5h2l2-4 11-11 7-6h2v-2h2v-2h2l1-3h2l2-4 10-8z" fill="#393235"/>
<path transform="translate(1250,78)" d="m0 0 5 1h32l20 2 5 5 23 4 79 8 78 9 37 6 10 3 5 4 1 3v12l-1 9-2-2-4-1-22-2-21-2-14-1-51-1-22-2-42-2-52-5-4-1 1-6-4-4v-9l-5-2-19-1h-7l-2 11-2 4-1 6-13-1-4-2v-20l-6-4v-7l4-4 3-1 1-3-5-1-2-1-1 3-3 2-5-1v-4z" fill="#EEE5E2"/>
<path transform="translate(1202,76)" d="m0 0 6 1 1 1h6l2-2h5l2 2 7 1 3-2 5 1 1 2h-6l-6 5-6 1 5 5 1 9-1 2-6-1-7-5-2 5-7-1-5-3v2l-9 1-4-3-2 3-41-2-13-1-1-1-44-6-15 1-10 2-13 2-14 4-16 3-6-1-7 1v2l-12 3-12 4-10 5-10 4-12 5-28 16-9 6-7 4-3 3-6 3-7 6h-2l1 8 4 5 1 2 5-2 10-8 24-16 20-12 16-8 23-10 27-9 27-6 29-4 18-1h30l42 3 13 2 1 4-5 1-40-4-23-1-27 1-26 3-27 5-25 7-21 8-26 12-19 10-16 10-13 10-11 8-3 6 3 11-3 1-5-5-5-8-3-3-2-4-5-5-4-5-5-4-1-2h-3l-1-2-11-5-14-4h-6v2l-7 3-7 9-4 6h-2l-1 4h-2l-2 5-5 11-3 7-3 10-4 5-1 7-5 2-2 4-7 7-12 7-10 3-19 8-17 5-6 3h-4l-2 4-5 2-5 4-4 3h-2l1 4-5 5-15 7-5 2h-3l11-12 9-11 10-8 13-8 18-10 11-8 13-11 12-11 8-7 9-11 8-10 10-17 5-11 10-24 4-6 5-3 11 2 12 5 14 10 10 9 8 7v2l4 2 2 2 5-1 10-7 14-10 24-14 21-11 29-12 28-9 26-6 23-4 29-3 16-1 81-1v-3l7-1h6z" fill="#7F9DD8"/>
<path transform="translate(535,382)" d="m0 0 2 2-8 7-9 6-1 2h-2l-2 4-7 4h-2v3h-3v2h-2l-1 3-9 5-1 2h-3v2l-7 5h-2l-1 4-7 6-6 5h-2l-1 3-2 1-1 3-3 1-6 7-6 5-6 7h-2l-2 4-5 5-5 6h-2l-2 4h-2v3h-2l-2 4-3 1-2 5-14 14-6 8h-2l-2 5h-2l-2 4h-2l-1 5-3 3-1 2v6l4 2v2l-16-1-5 1v3h-3v2l-5 4-7 8-3 5-2 4-8-1 2 6 4 6v11h-2l-1 6-1 5-1 4-3 3-1 4-1 2v6l1 2 7 2 4 5v2l4 2 3 3v4h-8l-7-3-6-2-1 4v7l-7 7-8-1-5-3-12-1 2 7-1 4-4 2-7 1 3 9-5 1h-5-3-2l2 9 5 6v6l-17-1-3-1 3 6 10 12 1 5-6 7h-2v2l-2 1-3 5h-2l-2 5-4 7-6 8-1 8v6l-3 7h-2l-2 4-3 2-7-1-5-4-5-2 3 6v2h2l1 5-7-4-5-6-6-4-5 2 1 7 4 9 3 6-5 2-2 1 3 5v2h2v3l-4-2-10-8-4-2-3 6 4 11 2 9-5-1 2 6 4 7v2l-4-2-8-8v-2l-6-2-3 3-1 6 4 8 4 9-3 1h-3l1 6 3 3v2h2l-1 3-1-2h-2l-7-8-6-5-4 1 2-4 4-5 2-9 6-12 4-5 6-15 9-13 7-16 9-9 3-12 8-16 10-15 12-17 10-13 8-10 9-12h2l2-4 5-8 12-8 16 1 9-6 6-7 5-9v-6l-2-5h-2l-5-5-14-11-3-4 2-8 4-8 8-8 14-10 9-8 12-8 17-12 22-22 7-8 39-39 8-7 7-7 8-7 12-11 11-9 10-9 11-9 15-12 14-10z" fill="#C3BBBC"/>
<path transform="translate(327,578)" d="m0 0 7 3 6 5 5 5 21 14 3 3-5-1 5 5 11 9 3 3 5 2 6 5 5 6-1 2-8-1-4 2-3 6-7 13-3 5-6 2-3-1 1-7 7-9 1-2h2l2-6h2l1-5-6 1v2h-2l-1 3-5 5h-2l-2 4h-2l-1 3-5 3h-4v2l-11 1-4-1-2 1v4h2v3h2v2l9 2 7 5 1 9-6 10h-7l-5-2-11-11-2-3-10-5-8-5-3-1 2 4 8 7 9 8 10 7 5 5 1 6-3 3h-2l1 9-6 1-12-5-6-2-1 4 3 2v2l4 2 6 5v2l3 1-1 5-5 1h-8l-10-4h-3l1 4 4 3v2l4 2 9 7-1 4h-11l-1 4-5 6h-2v2l-5 5-2 3h-3l-2 4-3 5h-2l-2 4-4 3h-2l-1 3-5 2-4 6-2 4h-2l-1 3h-5l-4-1-7-2-5-3 2 4 4 7-1 3-5-1v-2l-5-2v-2l-4-2-9-8 2-1 8 6 4 1-7-11v-2l4 1 7 2 5-1 3-1 1-3h2l2-5 6-8 7-10 5-5 4-2 2-5 11-14-1-10-5-2-7-8-5-6 4-1 7 5 8-1 12 2-4-7-5-5-10-12 1-3 12 5 10 2h3l-2-4-7-6-5-6v-2l5 1 8 4 1-2-2-1-2-6-1-5-2-5v-5h7l1 3 5 1 6 2 5-2 3-4h2v-11l7 1 1 1h14l3-3h3l2-4 3-7-1-2-5 5-4 2v3h-6l-5-4-5-7-7-2-1-2v-6l2-3 1-5 3-2v-7l3-7h2l-1-11-6-10z" fill="#6F686D"/>
<path transform="translate(1234,79)" d="m0 0 6 1 1 4 5-1 3-3 7 2-1 4-5 2-1 2v7l6 4v20l16 3v-8l3-5 2-8 7-1 19 1 5 2 1 1v9l4 5-2 5 25 2 31 3 57 3 7 1 53 1 25 2 30 3 5 2v13h-1l-1-9-10-2-25-2-18-2v-2l-12 1-33-1h-15l-16 1h-27l-4-1-18-1-7-1h-15l-7-2-24-4-6-5-2-1-19-2h-6l-6 10-3 1v-2l-10-1-6-1-1-4v-7l-3 1-1 4-7-1-1-5-6-1-2 2-1 4h-5l-4-6-6-2-3 9-3-1-2-7-7-1-5 18h-3l-1-3-1-16-8 1-3-1h-13l-15-2-17-1-6-1h-44l-1 1-20 2-7 2h-9l-11 3-13 1-1 3-12 4-7 2-15 5h-6l4-3 19-7 17-5 18-4 32-5 31-2h15l36 3 22 2h2l-1-3-13-2-42-3h-30l-27 2-30 5-20 5-24 8-30 13-18 10-19 12-17 12-12 9-3-1-4-6-1-1v-8l12-9 5-3 5-4 8-4 9-6 11-6 12-7 14-6 9-4 15-6 12-4h6v-2l10-2 3 1 16-3 15-4 12-2 19-3 15 1 35 5 1 1 48 3h6l2-3 4 3h9v-2l4 1 3 2 5 1 1-6 10 6 4 1v-7l-2-7-4-2v-1l9-2z" fill="#666065"/>
<path transform="translate(925,244)" d="m0 0 3 1 5 16 3 24v29l-2 9-5 10-6 5v-15l2-13-1-6v-7l-1-4-3-1h-24l-14-1-33-5-2-1h-8l-7 3-2 2h-3v2l-8 4-4 4-9 6-7 2-3-1v2l-5 1v2h2l-2 5-3 5-1 2h-2v7l4 10 6 6 6 12-1 6-1 9-3-1-1 5-2 4-1-2v-7l-8-6-6-8-5-9-6-10-1-2 2-5v-5h-8l-8 5h-3v2l-18 8-32 16-14 8-12 6-18 13-10 8-9 6-5 2v2l-3 2h-3v2l-11 7h-2v2l-5 3-11 9-24 18-10 7-14 11-10 8-6 5h-2v2l-14 11-12 11-9 7-6 7-5 3-1 2h-2l-1 3-10 8-12 10-5 5-3 1-2 4-6 4-3 4h-2v2l-5 3-2 2-3-1 8-7 5-4 6-7 6-5 7-8 10-9 9-7 16-15 14-12 13-11 14-11 12-10 9-7h2v-2l11-8 10-8 12-9 38-28 10-7 28-20 13-8 27-14 17-8 36-19 21-12 25-15 18-11 15-8 24-10 30-11 26-9z" fill="#50566F"/>
<path transform="translate(694,277)" d="m0 0h6l-1 5h-2v3l-8 5-8 2-1 2h-3l-1 2-8 7-6 3-6 12-5 3-3 3-10 3-3 4-4 2h-3v2l-6 3h-2l-1 2h-3l-1 3-10 5-4 1v2l-4 2-10 6-9 6-5 1v3l-11 7-10 12-8 7-10 9-3 1v2l-5 2-2 4-6 7-5 5-17 16-5 5-9 8h-2v2h-3v2l-8 7-12 12-5 4-6 7h-2l-2 5-14 14-8 6-10 8-6 7-8 12v5l4 3 7 1-2 1v2l-16 2-12-1-5-3v-6l3-5h2l1-5 4-4h2l2-5 5-5 9-10 8-8 2-4 5-5h2v-3l4-4h2l2-4 6-7 6-5 6-7 6-5 6-7h3l1-4 5-4h2l2-4 8-6 2-4 6-4 3-1v-2h3l1-3 9-5 1-2h2v-2h3v-3l10-6 1-2h2l2-4 10-7h2l4-8 17-12 16-11 33-22 19-12 21-14 11-9 8-8 5-3 11-4 9-5z" fill="#7F7A81"/>
<path transform="translate(906,324)" d="m0 0h8l1 1 2 18-8 7-12 11-8 7-7 7-8 7-16 15-9 9-8 7-20 20-5 3-3-13h-2v-2h-2l-7-8-9-12-2-5 2-5 11-13 16-15 9-7 12-9 16-10 16-7 15-4z" fill="#C0555B"/>
<path transform="translate(1252,147)" d="m0 0 16 1 1 1-1 8-1 2 1 9 13 1 7 2h11l1-7 1-1 1-9h2v-3h11l55 4 58 5 20 1 92 2 1-7h1v6l2 5-1 8-7 8h-76l-79-4-91-4-49-5-9-2-4-1h-6l-2-1v-2h8l3-1 2 1v2h8l4-1 2-5 2-4v-8z" fill="#E9E0DE"/>
<path transform="translate(839,284)" d="m0 0h8l9 2 27 4 15 1h23l3 2 1 4v8l1 6-2 12-1 16-4 3h-3l-2-17-20 1-18 4-15 6-16 9-12 9-16 13-16 15-8 10-3 1 2-8 5-6h2l2-4h2l1-3 7-6 7-8 4-4 1-8h-2l-2-3v-3l-4-2-10-7-3-5-1-7 3-7 4-6 5-6 5-2 2-4 4-2h3v-2l7-4z" fill="#393235"/>
<path transform="translate(536,474)" d="m0 0 3 1-2 4-5 7h-2v2h-2l-2 4h-2v9l1 9-6 11-10 8-5 7-14 8-5 3-5 2v2l-7 5-13 13-6 7-6 9-4 11-1 15-5 8-6 3-18 2-10 1h-5l-18-10-10-5v-2l10-5 14-10 5-2 9-6 2-4 13-12 2-2 5-2 3-3h3v-2l5-5 7-5 5-5 3-1 2-4 11-9 10-8 1-2h2l2-4 4-2 7-8 11-9 11-10 10-8h2v-2z" fill="#726C71"/>
<path transform="translate(838,208)" d="m0 0 8 1 12 3 7 8 2 3 3 1-1 6-1 2 6 2 1-6 5-8 6-4h13l8 5 1 2v9l-5 6-12 6h-3v2l-3 3-6 1-2 2h-3l-1 3-3 1-5-3-6-2-5 4-7 1-24 11-17 9h-10l-7-3-9-9v-9l3-9 7-7 5-3h2l2-4 7-10 5-3h2v-2l10-3 5-5z" fill="#FBFAFA"/>
<path transform="translate(1087,113)" d="m0 0h14l6 1 9-1 6 1h7l1 1 13 2 15-1 7 2 12 1 1 1 1 12 4-4 3-9 1-2h2l3 20-2 1-9-1-10-2-22-2-18-1-11-1-19-1-21 1-29 4-23 5-33 11-7 2-15 8-9 4-12 6-7 4h-2v2l-14 10-4 3h-2l-1 3-9 5-4-1-2-6 1-2 7-2v-2l5-1v-2h2l1-4 7-7 8-5 7-6 11-7 4-1 1-2 7-1v-2l4-1v-2l19-9 8-3 9-3 20-6 11-2 6-2 7-1 10-2 7-1h10z" fill="#1F1B1D"/>
<path transform="translate(116,942)" d="m0 0 4 2 5 4v2l4 2 5 3v2h2l-3-6 1-2 7 9v2h2l1 5-10-5-5-4-3-1-4-5-4-1 1 5 6 9 2 4 5 1 6 5 3 5h-8l-2-2-10-3 1 5 6 9v3l-4-1-16-8 4 6 6 7 7 5v6l-8 4-4 3-9-2 4 6 5 5 1 8-3 2-7-2-11-5 8 8 5 3 8 3 19 10 6 3v3l-11-1-12-2h-3v2l4 1 4 6v7l-1 6-3 12-3 10-1 8-3 5-1 13-3 11-2 13-2 10-4 9-1 4h-23l1-9 6-27 13-50 7-21 4-10-5-6-11-8-3-2v-3l12 3-7-8-6-8v-2h-2l-1-6 6 2 5 4v2l5 2 3 1 1-3 3-3h-2l-2-5-5-5v-3l6 1 3-1 2-5 4-1v-2l-2-1-1-4-6-10-1-5 2-6 4 2 10 10h3l-6-11v-4h7l-2-5-3-6-2-10z" fill="#51494C"/>
<path transform="translate(760,327)" d="m0 0 8 1 1 5-2 6 3 3 3 7 5 8 4 6 4 5 7 5v7l-4 11-2 1h-8v-2l-22-1-16-3-12-3-13-4-1-1-15-2-16-3h-7l1-4 12-6 19-10 21-10 16-8h3v-2z" fill="#726C71"/>
<path transform="translate(1268,79)" d="m0 0h19l20 2 5 5 23 4 79 8 9 1-2 2h-10v2l10 1 10 2 5 3-1 3-6 1h-20l-46-2h-12l-18-1h-16l-4-2-3-5-2-1-33-1-3 10h-12l-3-5-2-7-5-3v-5l7-4v-6l-2-1z" fill="#FDFDFD"/>
<path transform="translate(726,323)" d="m0 0 2 1-13 7-14 4-14 7-14 8-9 6-5 4h-2v2l-8 5-1 2-4 2-4 4-4 1v2l-10 8-4 4h-2l-2 4-8 5-11 6-22 14-3 3-13 10-4 1-2 4-4 4-5 3-10 9-10 8-3 1v2l-11 8-11 10h-2l-1 3-5 4h-2v2l-5 3h-2l-1 3-11 9-5 4h-3l-2 4-5 4h-2v2l-4 1-1 3-6 5-4 4-8 6-13 9-7 3h-7l2-1v-2l11-3v-3l4-2 8-8 3-1 2-5 12-10 7-6 6-7 3-3 11-8 9-8 5-5 9-6 17-12 6-5h2v-2l5-1v-2l22-18 7-6 8-7 2-3 5-3 5-5 4-2v-2l10-6 9-6 8-4 10-10 12-9 11-8 7-5 2-4 4-1v-2l10-6 5-1 5-4h4v-2l22-11h15z" fill="#6E6D79"/>
<path transform="translate(1202,76)" d="m0 0 6 1 1 1h6l2-2h5l2 2 7 1 3-2 5 1 1 2h-6l-6 5-6 1 5 5 1 9-1 2-6-1-7-5-2 5-7-1-5-3v2l-9 1-4-3-2 3-41-2-13-1-1-1-44-6-15 1-10 2-13 2-14 4-16 3-6-1-7 1v2l-12 3-12 4-10 5-10 4-12 5-28 16-9 6-7 4-3 3-6 3-7 6h-2v6h-2l3 7-3 1-14-16-3-4v-2l-3-1-3-4v-2h-2v-2l-4-2-6-6 1-2 11 9 12 11v2l4 2 2 2 5-1 10-7 14-10 24-14 21-11 29-12 28-9 26-6 23-4 29-3 16-1 81-1v-3l7-1h6z" fill="#817C83"/>
<path transform="translate(1252,147)" d="m0 0 16 1 1 1-1 8-1 2 1 9 13 1 7 2h11l1-7 1-1 1-9 1 4 25 2 7 2 3 4 15 1 15 2 27 2 15 2 25 2 35 1h40l25 1 3 2-2 4h-76l-79-4-91-4-49-5-9-2-4-1h-6l-2-1v-2h8l3-1 2 1v2h8l4-1 2-5 2-4v-8z" fill="#C3BBBC"/>
<path transform="translate(1083,139)" d="m0 0 10 1 10-1h15l12 1v2l8-1 3 1h31l3 3 7 3 8 1 1 2 9 2 12 3h5l4 4 12-1 3 2 5-1 4-2 3-10h1l1 10-5 7h-3l-1 2-8-1v-2l-9 1-11-3v4h-7l-4-6-4-1-2 6-6-2-1-3-8-2-3-2-2-4-13-3-37-3-16-1h-16l-31 2-19 3-23 6-21 8-28 13-16 9-12 8-18 13-6 5h-5l-12-19-5-10 1-3 12-9 15-11 22-13 6-3h2v2l-6 3h-3v2l-8 4h-2v2l-8 5-5 2-7 8-7 7-4 1-1 4v7l5 8v2l11-3 2 1v-2l6-2v-2l9-5 3-1v-2l6-1 1-4 11-5h2l1-2h2l7-5 10-4 4-3 4 1 3-3h5v-2l12-3 6-3 16-3 6-3 24-4h8z" fill="#564E51"/>
<path transform="translate(1250,78)" d="m0 0 5 1v2h2l1 6-4 3-3 1-1 5 5 2 2 3 3 9 12 1 3-10 2-1 22 1 9 2 3 7 2 5 2 1 23 2 4 4v3l2 1 70 4h34l7-4 5-1h19l7 1-1-4-1-3 1-2 6-1 9 1h13l10 1 6 2 1 2 4 2 3 5 3 3 3 1 1 2v9l-2-2-4-1-22-2-21-2-14-1-51-1-22-2-42-2-52-5-4-1 1-6-4-4v-9l-5-2-19-1h-7l-2 11-2 4-1 6-13-1-4-2v-20l-6-4v-7l4-4 3-1 1-3-5-1-2-1-1 3-3 2-5-1v-4z" fill="#C2BABB"/>
<path transform="translate(612,528)" d="m0 0 3 1-14 13-7 6-1 2h-2l-2 4-11 12-9 11-9 10-9 11-11 13-12 16-13 20-9 15-15 28-10 19-8 12-6 1-1-5 1-8 4-8h2l1-3 3 1h3l1-3-3-9 1-7 2-6 2-4 2-9 6-10 7-9 3-6h2l2-4 10-12 5-4 2-3h3l2-4 3-3 3-1 3-3h2v-3l6-5h2l2-4 3-4h2v-3h2v-2l5-5 3-1 2-5 5-4 1-2h2v-2h2l1-3 5-4 1-3 6-5h2v-3l8-7 4-4 7-3z" fill="#676065"/>
<path transform="translate(925,244)" d="m0 0 3 1 5 16 3 24v29l-2 9-5 10h-3l-1-8 2-7 1-8-2-19-2-8-2-1-2 4-6 2h-10l-6-1-16-1-3-1-17-2-7-1-3-1v-5l5-3 14-6 14-5 20-7 9-4 9-3 1-2-4-1z" fill="#726C71"/>
<path transform="translate(361,552)" d="m0 0 12 2 20 5 9 2 6 4 3 3-1 5-3 5-5 4h-2v2h-2l-1 2-5 2-8 4-7 3-2 2-7 2h-9l-10-6-5-2-5-5-9-7h3l3-1 3-6 6-7h2l2-4 4-2v-2h3v-3z" fill="#7B9BD9"/>
<path transform="translate(327,578)" d="m0 0 7 3 6 5 5 5 21 14 3 3-5-1 5 5 11 9 6 7v2h-7l-7 1v2h-3l-1 7h-2v2l-4 1v2h-2v3l-7 6-12 3-13-1 1 6-4 5-6 4h-6l-8-5h3l6 2 5-2 3-4h2v-11l7 1 1 1h14l3-3h3l2-4 3-7-1-2-5 5-4 2v3h-6l-5-4-5-7-7-2-1-2v-6l2-3 1-5 3-2v-7l3-7h2l-1-11-6-10z" fill="#726C71"/>
<path transform="translate(1084,108)" d="m0 0h44l6 1 17 1 15 2h14l4 1h6l-3 2h-3v13l-3 4h-2l-2-12-18-2-3-1-15 1-11-2-3-1h-8l-4-1-9 1-9-1h-10l-11 2h-8l-14 2-4 2h-6l-6 2-18 4-21 7-11 4-13 7h-3v2l-4 1v2l-7 1-1 3-8 3-7 5-2 2-7 6-4 1-1 2-7 6-2 4h-2v2l-5 1v2l-3 2h-4l1 8-3-3-2-3v-7l2-4 6-4 8-9 6-5 6-3 5-2v-2l8-4h2v-2l6-3h3v-3l21-10 14-3 12-4 7-2 12-4 1-2 18-3 9-2h7l6-2 20-2z" fill="#3B3437"/>
<path transform="translate(1234,79)" d="m0 0 6 1 1 4 5-1 3-3 7 2-1 4-5 2-1 2v7l6 4v20l16 3v-8l3-5 2-8 7-1 19 1 5 2 1 1v9l4 5-2 5 25 2 31 3 57 3 7 1 53 1 25 2 30 3 5 2v13h-1l-1-9-10-2-25-2-18-2v-2l-12 1-33-1h-19l-10-2h-25l-22-1-18-2-12-1-1-1h-9v-1h-7l-1-1h-6l-4-1-2-6-3 1-6-2-12-1h-5l-4-2-1 2-2 3-2 4-5 1-6-1h-7l-1-1-1-11-4-2v-5l5-2-1-4-4-2-2-4-1 4h-2v2h-5l-6-2h-2l-1 2h-2v-7l-2-7-4-2v-1l9-2z" fill="#7E7980"/>
<path transform="translate(838,208)" d="m0 0 8 1 12 3 7 8 2 3 3 1-1 6-1 2 6 2 1-6 5-8 6-4h13l8 5 1 2v9l-5 6-12 6h-3v2l-3 3-6 1-2 2h-3l-1 3-3 1-5-3-6-2-5 4-7 1-24 11-17 9h-10l-2-2h11l25-13 16-7h2v-2l7-1 6-8 1-2v-11l-2-6-6-5-6-2h-7l-10 3-27 15-11 7-5 2-5 6-1-2 7-8 6-4h2l2-4 7-10 5-3h2v-2l10-3 5-5z" fill="#7B97CF"/>
<path transform="translate(1213,95)" d="m0 0 10 6 6 1 1-3 7 1 6 2v-2h2v-5l3 3v2l5 2v4l-5 2 2 6 3 3 1 9h11l7 1 2-7 3-2h5l4 1 12 1 7 2h2l3 5 9 1 2 1h7l3 1h5l5 1 8 1 18 2 30 1h17l10 2-4 2h-35l-4-1-18-1-7-1h-15l-7-2-24-4-6-5-2-1-19-2h-6l-6 10-3 1v-2l-10-1-6-1-1-4v-7l-3 1-1 4-7-1-1-5-6-1-2 2-1 4h-5l-4-6-6-2-3 9-3-1-2-7-7-1-5 18h-3l-1-3-1-16 5-3 2-3-4-1v-2h-7l-2 1h-8l-7-1-29-2-4-2 4-1 24 1 18 1 3-2 2-3 4 3h9v-2l4 1 3 2 5 1z" fill="#645D62"/>
<path transform="translate(305,693)" d="m0 0 6 2 12 8v2l9 1v-6l-2-6 5 3 2 4v4l-3 3h-2l1 9-6 1-12-5-6-2-1 4 3 2v2l4 2 6 5v2l3 1-1 5-5 1h-8l-10-4h-3l1 4 4 3v2l4 2 9 7-1 4h-11l-1 4-5 6h-2v2l-5 5-2 3h-3l-2 4-3 5h-2l-2 4-4 3h-2l-1 3-5 2-4 6-2 4h-2l-1 3h-5l-4-1-7-2-5-3 2 4 4 7-1 3-5-1v-2l-5-2 1-2 5 2-4-8-4-5v-2l9 3 1 1 9 1 4-1 1-4 4-6h3l2-4 5-5 5-3 5-5 6-7 6-5 1-2h2l2-4 9-9h2v-3h-2l-4-4-12-6-4-4v-2l5-1 1-2 10 2 11 3 1 2h2v-2l2-1v-4l-4-1-1-2-3-1v-2l-4-1-4-3v-2h-3l1-6 6-1 13 3-1-4-8-8z" fill="#665F64"/>
<path transform="translate(121,918)" d="m0 0 3 3v4l2 7-2 10h2l1 2 2-1 7 11v3h-2v-2l-4-1-5-4-5-5-4-2-1 5 4 11 3 5-1 3-7-1 4 10 3 5-1 2-5-3-8-7-4-4-1 8 5 10 3 4 1 6-4 1-2 5h-2l-1 2-6-2 3 5v2l3 1 1 5h2l-1 3h-2l-1 4-8-4v-2l-3-1v-2l-7-2v5h2l8 11 5 5v2l-8-1-4-2-1 2-8-9-2-5 1-8 7-8 4-2v-13l9-19 10-9 1-4v-10l5-9 4-4h2l1-8 1-7z" fill="#807A81"/>
<path transform="translate(733,341)" d="m0 0h5l5 6 15 6 12 7 5 4 5 6v2h2v3l3 1v8l-12-1-6-4-6-2-4-2-7-2-11-3h-16l-6-3-13-2-9-2v-3l16-8 19-9z" fill="#7E7980"/>
<path transform="translate(374,680)" d="m0 0 6 1 3 3 6 4v4h2v7l2 5-1 4-3 1-6 9 2 8 2 1v2l4 1 3 4v2l-7-1-6-2-3 3-5 1-9-7-4-3-1-7v-2l-4-7-1-1v-6l4-1 1-6 2-3h2l1-10 1-1h6v-2z" fill="#1F1B1D"/>
<path transform="translate(116,942)" d="m0 0 4 2 5 4v2l4 2 5 3v2h2l-3-6 1-2 7 9v2h2l1 5-10-5-5-4-3-1-4-5-4-1 1 5 6 9 2 4 5 1 6 5 3 5h-8l-2-2-10-3 1 5 6 9v3l-4-1-16-8 4 6 6 7 7 5v6l-8 4-4 3-9-2 4 6 5 5 1 8-3 2-7-2-11-5 8 8 7 4 9 6 10 5 1 2-8-1-11-4-10-2-1 2-12-9v-3l12 3-7-8-6-8v-2h-2l-1-6 6 2 5 4v2l5 2 3 1 1-3 3-3h-2l-2-5-5-5v-3l6 1 3-1 2-5 4-1v-2l-2-1-1-4-6-10-1-5 2-6 4 2 10 10h3l-6-11v-4h7l-2-5-3-6-2-10z" fill="#6C666B"/>
<path transform="translate(1080,89)" d="m0 0 15 1 35 5v1h-11l-19-1h-22l-38 4-7 2-9 2-8 3-11 3-8 3-12 4-4 3-17 6-10 5-7 4-11 6-9 7-9 5-4 4-6 2v2l-9 7-4 3-1 6 4 1-5 2-6-8v-8l12-9 5-3 5-4 8-4 9-6 11-6 12-7 14-6 9-4 15-6 12-4h6v-2l10-2 3 1 16-3 15-4 12-2z" fill="#726D72"/>
<path transform="translate(1092,102)" d="m0 0h30l42 3 13 2 1 4-5 1-40-4-23-1-27 1-26 3-27 5-25 7-21 8-26 12-19 10-16 10-13 10-11 8-2 2-2-2 1-4 18-13 21-14 19-11 16-8 24-10 24-8 27-6 29-4z" fill="#E2D9D7"/>
<path transform="translate(105,1050)" d="m0 0 6 2 5 5-2 11-3 8-4 10v2h-2l-1 7-3 7-4 16-3 8-1 7-4 13-2 6-1 7-3 4-2 5h-7l1-9 6-27 13-50 7-21 4-10z" fill="#777176"/>
<path transform="translate(925,244)" d="m0 0 3 1 5 16 3 24v29l-2 9-5 10h-3l-1-8 2-7 1-8-2-19-2-8-2-1-2 4-6 2h-10l-6-1-16-1-3-1-17-2-7-1-3-1v-5l5-3 2 1v2l23 3 15 3h10l13-1v-14l1-11-1-4-4-2 7-2 1-2-4-1z" fill="#665F64"/>
<path transform="translate(315,749)" d="m0 0 4 2 5 4 1 4-4 1-2-1h-7l-5 8-5 5-2 3h-2l-2 4-10 11-3 5-5 4-6 2-2 5-4 7-3 2-10-1-9-3 3 5 2 3-3 4-10-6-7-6h3l2 1v2h5l-2-5-4-6 1-3 6 4 9 1 1 1h5l1-2h2l1-4 6-8 4-1 3-3 5-4 1-2h2l2-5 3-4 3-1 5-7h2v-2l5-5 3-5 3-1h8z" fill="#51494C"/>
<path transform="translate(790,312)" d="m0 0h3l-2 5-3 5-1 2h-2v7l4 10 6 6 6 12-1 6-1 9-3-1-1 5-2 4-1-2v-7l-8-6-6-8-5-9-6-10-1-2 2-5v-5h-5l-1-2 17-9 9-4z" fill="#665F64"/>
<path transform="translate(374,555)" d="m0 0 12 2 16 4 6 4 3 3-1 5-3 5-5 4h-2v2h-2l-1 2-5 2-8 4-7 3-2 2-7 2h-9l-9-5 2-1 2-6 4-2v-2l11-4 16-1 6-3-1-5-8-4v-2h-2l-3-6z" fill="#628AD6"/>
<path transform="translate(1087,96)" d="m0 0h27l13 1 1 3h-23l-23 1-17 2v2l-30 5-20 5-24 8-30 13-16 9-7 1 2-4 2-1 1-4 8-4 6-1 1-3 7-1 1-3 8-3 12-4 9-4 7-2 13-4 4-1 8-4 10-1 16-4z" fill="#554E51"/>
<path transform="translate(327,578)" d="m0 0 7 3 6 5v3l4 5 6 3 4 7 2 1 1 4-4 8-3 1-1 5-6 10-5 10h-2l-5-7-7-2-1-2v-6l2-3 1-5 3-2v-7l3-7h2l-1-11-6-10z" fill="#7E7981"/>
<path transform="translate(173,837)" d="m0 0 8 6v3l-6-4 6 11 11 12 12 11 6 4 9 9-1 3-12-5-6-2-8-6-3-1v6l2 2v3l-6-2-6-3-10-9-3-2v-2l-4-1 3 7 9 11 4 6 3 2v2l3 1v2h-3l-1 2-4-1-11-6v2l3 3 4 7v4l-4-1-5-3v-2l-6-3 1-2 7 3-4-9-5-5 1-3 6 4 3 1 1-4-4-6v-2h-2l-5-8-1-4v-7l2-2 4 2 4 5 12 12 5 2-5-9-2-5 5 2 10 3-2-7-3-1-7-8-6-11z" fill="#635C60"/>
<path transform="translate(750,281)" d="m0 0h17l12 4 1 5-4 7-1 2h-2v2l-10 7-15 6-14 7-9 2 1-3 9-6 7-9v-11l4-5 5-1-2-2z" fill="#4F556F"/>
<path transform="translate(838,233)" d="m0 0h13l4 9-5 3-7 3-14 1v5l-1 1-11 2-7 4-10 6h-6l-5-6v-6l3-4 15-6 9-4 4 1 2 6 3-3 3-9 6-2z" fill="#EEE5E2"/>
<path transform="translate(1201,117)" d="m0 0 5 2 2 14h3l2-6 3-7 3-1 4 5 1 9 4-1 5-12h3l4 12 4 1 5-5 1 1v8l-3 9h-8l-10-1-7-2-23-2-4-2 1-5z" fill="#1F1B1D"/>
<path transform="translate(143,885)" d="m0 0 5 4 2 4-6-1 2 6 5 9 6 7 2 5h-2l-1 3-6-2-5-3 2 6 5 3 5 8v2h2l-1 3-10-6-3-2v-2l-4-2-3-1-2-5-5-1 2 8 5 7 2 1v3l4 2 1 3 4 2 4 3v5h-4v-2h-5l-9-6-3-1-1 2-5-3v-2h-2v-8l1-4-3-6 1-4-1-4 3-4h3l1-2 5 3 4 5 2 1-1-5 4-1 7 3h2v-4h-2l-10-15-1-6z" fill="#7E797F"/>
<path transform="translate(1252,147)" d="m0 0 16 1 1 1-1 8-1 2 1 9 13 1 7 2h11l1-7 1-1 1-9 2 4 1 1 26 3 1 3h-31l1 7 17 2v1h-29l-49-5-9-2-4-1h-6l-2-1v-2h8l3-1 2 1v2h8l4-1 2-5 2-4v-8z" fill="#6F696E"/>
<path transform="translate(378,792)" d="m0 0 4 1 5 2 4 8-11 14-10 11-11 14-5 5-4-2-1-8 2-2 2-11 5-10 8-4 5-1v-2l3-3 2-10 2-1z" fill="#524A4D"/>
<path transform="translate(394,632)" d="m0 0 4 2 11 9 3 3-1 4-4-1-4-2h-8l-3 1v2l-5 2-5 7h-2l-2 5-5 5-9-1-3-3 1-6-4 4h-3v2h-5l-1 2v-2l-4 1-6-1v3l4 2-6-1v-2h-2v-3h-2l-1-5 4-1 7 1h7v-2l7-3 6-5 6-7 3-3h2v-2l6-2 1 2-2 4h-2l-2 6h-2l-2 5-6 8-1 5 9-1 1-4 4-7 6-11 3-4 6-1 5 1z" fill="#51494C"/>
<path transform="translate(732,280)" d="m0 0h10l7 1 2 3-1 2 4 2-9 3-2 3v11l-9 11-6 4h-2v4l-6 1-1-3 7-10v-6l-4-3v-6l-1-2v-6l3-1 1-5z" fill="#665F64"/>
<path transform="translate(1071,101)" d="m0 0h61l37 2 7 1h8l7-1 2 1v2l4 1-2 4-2 2-11 1-3-1h-13l-15-2-17-1-6-1h-44l-1 1-20 2-7 2h-9l-11 3-13 1-1 3-12 4-7 2-15 5h-6l4-3 19-7 17-5 18-4 32-5 31-2h15l36 3 22 2h2l-1-3-13-2-42-3h-30l-27 1 2-2z" fill="#756F75"/>
<path transform="translate(335,698)" d="m0 0 8 2v8h-2v9l2 5-1 2-5 2v-2l-7-1-9-2-1 2h2l2 5 5 2 7 8 1 3-5 2h-11l-12-3v4l4 2 2 3-4-2-9-7v-2l-4-2-2-2 1-4 5 1 9 3h12v-5l-8-7-4-3v-2l-4-2 1-5 17 6 6 1v-4l1-5h2l1-3h2z" fill="#50484B"/>
<path transform="translate(1052,89)" d="m0 0h7l-4 2-24 5-12 3-5 2-9 1v2l-12 3-12 4-10 5-10 4-12 5-28 16-9 6-7 4-3 3-6 3-7 6h-2v6h-2l3 7-3 1-14-16-3-4v-2l-3-1-3-4v-2h-2v-2l-4-2-6-6 1-2 11 9 12 11v2l4 2 2 2 5-1 10-7 14-10 24-14 21-11 29-12 28-9 26-6z" fill="#C5BDBE"/>
<path transform="translate(1496,148)" d="m0 0 7 2v-2h12l7 1h16l2 4v5l-7 3h-19l-37-1-7-1v-1l7-1v-2h2v-6l5 1v2l7-1v-2z" fill="#1F1B1D"/>
<path transform="translate(200,784)" d="m0 0 4 1 5 3 7 8-2 2v-2l-4-2v-2l-4-1v-2h-2l5 10 11 13 3 3v2l3 1 11 11v3l-6-1-4-2-4-1v-2l-7-2 6 10 1 5-7-2-6-3-6-5-1-3-5-3v-2l-6-3 2 6 2 4h-2v-2l-4-2-2-3v-8l7 2 12 11v2l5 1 2 1-8-12-3-4v-2l11 3-4-8-7-11-3-6z" fill="#655E63"/>
<path transform="translate(886,216)" d="m0 0h13l6 4 2 5-1 8-5 4-12 6h-6l-5-4-2-4 1-11 4-5z" fill="#FCFBFA"/>
<path transform="translate(109,1052)" d="m0 0 5 2 2 4-2 10-3 8-4 10v2h-2l-1 7-3 7-4 16-3 8-1 7-4 13-2 6-1 7-3 4-2 5h-7l1-9 3-1 1-8 3-1 1-11 1-5h2l2-11h2l3-12v-4h2v-5l3-7 4-10 3-6 1-5h2l1-5 2-4v-9z" fill="#665F64"/>
<path transform="translate(1016,100)" d="m0 0m-4 0 4 1-1 3-36 12-3 2-10 3-16 8-6 2v2l-8 2-1 3-10 5h-2v2l-5 1v2l-10 6h-2v2h-3v2l-7 5-1 2h-4v6l1 4 6 1-3 3-3-1-4-6-1-1v-8l12-9 5-3 5-4 8-4 9-6 11-6 12-7 14-6 9-4 15-6 12-4h6v-2z" fill="#7F7A81"/>
<path transform="translate(143,891)" d="m0 0 4 1 5 3 2 5-4-2v-2h-3l4 8 9 11 11 9 15 12-1 4-6-2-10-4-8-3v-2l-5-2 5 10 3 5v2l-4-1-10-6-8-6v-2l-5-2v6l3 1v2l-4-2-5-8v-6l5 1 2 5 4 1 3 2v2l4 2 9 5 1-2h-2l-6-10-5-3-2-4 1-3 9 5 5-2-6-9-5-6-2-6-2-1z" fill="#51494C"/>
<path transform="translate(150,861)" d="m0 0h1l1 7 4 9v4h-3l-1 8 3 1 3 5-1 2-5-4-1-2-5-3-3-2v2l-3 3 2 8 8 11v2h2v4l-3 1-6-3h-3v5l-4-2-2-4-5-2h-3l3-3h2l3-15 5-10 6-7 4-13z" fill="#817C82"/>
<path transform="translate(163,973)" d="m0 0 5 1 8 4 6 4 3 3v2l5 2 2 3v3l2 1 4 5 3 3v2l-8-1-6-3-10-4-11-7-11-8-5-4 1-2 8 3 6 1-2-5z" fill="#1F1B1D"/>
<path transform="translate(1202,76)" d="m0 0 6 1 1 1h6l2-2h5l2 2 7 1 3-2 5 1 1 2h-6l-6 5-6 1 5 5 1 9-1 2h-4l-3-6h-4v-2h-2v-7h-4l2 4v6l-1 2-5-1-1-3-5-1-1-5 3-1-1-4h-8l1-3-1-2h6z" fill="#7B757C"/>
<path transform="translate(846,280)" d="m0 0h8l3 1 11 2 11 1 3 1 16 1 10 1h8l5-3 1-2 3 1 2 8 2 20-3 18 1 6-4 3v-15l2-13-1-6v-7l-1-4-3-1h-24l-14-1-33-5-6-2 3-1z" fill="#51494C"/>
<path transform="translate(1092,102)" d="m0 0h30l42 3 13 2 1 4-5 1-40-4-23-1-27 1-26 3-17 3h-5l4-2 16-3 21-3h8l-5-1-21 2h-7v-1l23-3z" fill="#C4BCBD"/>
<path transform="translate(1234,79)" d="m0 0 6 1 1 4 5-1 3-3 7 2-1 4-5 2-1 2v7l6 4v20l11 2 1 2h-13l-2-10-4-2v-5l5-2-1-4-4-2-2-4-1 4h-2v2h-5l-6-2h-2l-1 2h-2v-7l-2-7-4-2v-1l9-2z" fill="#7F7A81"/>
<path transform="translate(415,581)" d="m0 0h3l4 7 3 8 1 9-4 5-10-1v-2l-4-1-11-7-1-4 8-7z" fill="#7F7A81"/>
<path transform="translate(1213,95)" d="m0 0 10 6 6 1 1-3 7 1 3 2 5-1h3l2 1-2 5-5 2-11-1-4-1-7 1-3-2h-14l-6-2h-12l-2 1h-8l-7-1-29-2-4-2 4-1 24 1 18 1 3-2 2-3 4 3h9v-2l4 1 3 2 5 1z" fill="#50484B"/>
<path transform="translate(82,1011)" d="m0 0 6 2 5 4v2l5 2 3 1 1-3 3-3h-2l-1-4 6 4 5 5 1 8-3 2-7-2-11-5 8 8 7 4 9 6 10 5 1 2-8-1-11-4-10-2-1 2-12-9v-3l12 3-7-8-6-8v-2h-2z" fill="#665F64"/>
<path transform="translate(125 1e3)" d="m0 0 5 2 10 7v2h2v2h-6l-2-1v2h-6l-2 2h-12v3l10 8 1 4h2v2h-2l-1 2h-10l-7-3 1 3-4-2-5-3-6-5v-2l-2-1 4 1 10 5 7 1 1-1-1-8-7-7-1-4 10 1 4-4 7-2z" fill="#50484B"/>
<path transform="translate(204,789)" d="m0 0h2v2l4 1 5 5 7 6 7 5v2l-5-2-8-6 1 4 7 8 7 7 8 6v2l4 2 5 4 7 7-1 4-9-4-8-3-2-2-8-3 4 6v5l-5 1-10-7-2-3 9 3-5-10-2-5 5 1 2 1v2h6l4 3 4 1-3-5-5-5-6-5-7-8-10-13z" fill="#50484B"/>
<path transform="translate(838,208)" d="m0 0 8 1 12 3 7 8 2 3v5l-1 3 1 3-2 5-1-3-1-11-2-4-5-4-11-3h-7l-7 3-14 8-11 7-5 5-8 5-5 2-5 6-1-2 7-8 6-4h2l2-4 7-10 5-3h2v-2l10-3 5-5z" fill="#7E9DD8"/>
<path transform="translate(121,918)" d="m0 0 3 3v4l2 7-2 10h2l1 2 2-1 7 11v3h-2v-2l-4-1-5-4-5-5-4-2-1 5 4 11 3 5-1 3-7-1 4 10 3 5-1 2-5-3-8-7 3-3 1-9 2-1v-4l-1-7h-2v-8l6-7h2l1-8 1-7z" fill="#7E7980"/>
<path transform="translate(1277,118)" d="m0 0h5l4 1 12 1 7 2h2l3 5 9 1 2 1h7l3 1h5l5 1 8 1 18 2 30 1h17l10 2-4 2h-35l-4-1-18-1-7-1h-15l-7-2-24-4-6-5-2-1-19-2h-6l-6 10-3 1v-2l-10-1-6-1-1-10 2 4 1 3h11l7 1 2-7z" fill="#51494C"/>
<path transform="translate(925,244)" d="m0 0 3 1 5 16 3 24v29l-2 9-4 8-1-4 1-13 1-9-3-21-1-18-3-9v-10l-4-2z" fill="#777177"/>
<path transform="translate(173,837)" d="m0 0 8 6v3l-6-4 6 11 11 12 12 11 6 4 9 9-1 3-12-5-6-2-8-6-3-1-2 4-7-8v-2l-4-2-1-4 5 2 10 3-2-7-3-1-7-8-6-11z" fill="#625B60"/>
<path transform="translate(147,996)" d="m0 0 10 1 9 3 8 5-2 4-3 1-4 4v7l-4 1-22-14-6-4v-2l-4-2-2-3 5 1v2l4 1 18 9-3-7-6-4v-2z" fill="#1F1B1D"/>
<path transform="translate(198,831)" d="m0 0 7 6 6 5 5 5 15 13 4 4-1 3-15-7-2 1-12-8v4h2l7 11-1 3-4-1v-2l-4-1-10-8-1-2h3l5 5 4 1-4-8-5-6-5-5-1-2 6 1 6 3h5l-3-3-1-3-5-5z" fill="#51494C"/>
<path transform="translate(136,1064)" d="m0 0h7l6 4 2 5-2 4-3 3-1 3h-2l-3 9-3 4-2 7-5 2-2-2v-6l3-11 2-20z" fill="#1F1B1D"/>
<path transform="translate(1268,154)" d="m0 0 2 3 3 1 1-2 10 1h14v2l4-2v6l-2 3-1 5-2 1h-11l-5-2-13-1-1-1-1-10z" fill="#51494C"/>
<path transform="translate(914,251)" d="m0 0h7l-6 10-2 3h-2v-2l-3 1 1 2h-6l-10 4-18 4-11 1-2-1 1-3 17-6 9-3 16-6z" fill="#6E6C79"/>
<path transform="translate(104,972)" d="m0 0 7 6 3 3-1 2-5-2 4 6 6 7 7 5v6l-8 4-4 3-9-2 1 4-6-4-3-4v-3l6 1 3-1 2-5 4-1v-2l-2-1-1-4-4-6z" fill="#635C61"/>
<path transform="translate(494,511)" d="m0 0h2l-2 5-4 2-2 4-6 4-10 10-11 9-10 9h-2v2l-8 7-11 7-7 7-5 3-2 2-4 2-3-1 16-15 6-3 3-3h3v-2l5-5 7-5 5-5 3-1 2-4 11-9 10-8 1-2h2l2-4z" fill="#6D6C79"/>
<path transform="translate(816,244)" d="m0 0h2l2 7 7-2 1 4-1 2-10 2-7 4-10 6-5-1-1-4-3-1 1-7 2-2 10-3 10-4z" fill="#C1B9BB"/>
<path transform="translate(754,287)" d="m0 0h7l2 4v3l4 1v4l-9 6-10 2-5 4h-2l-1 3-4 2-1-2 7-9v-11l4-5z" fill="#51494C"/>
<path transform="translate(548,598)" d="m0 0 2 1-13 16-11 15-11 17-9 15-11 20-1-4 1-6 6-11 7-14h2l1-4 4-7h2l2-4h2v-5l4-5 5-5 6-8 4-4h3l2-4h2z" fill="#787277"/>
<path transform="translate(1276,134)" d="m0 0 22 1 6 3 1 1v7l-4 3-6-1-15-1-6 1-3-3 3-9z" fill="#1F1B1D"/>
<path transform="translate(1281,79)" d="m0 0 26 2 5 5v5l-1 1h-11l-17-1-7-1-1-2v-6l2-2z" fill="#C4BCBC"/>
<path transform="translate(1250,78)" d="m0 0 5 1v2h2l1 6-4 3-3 1-1 5 5 2 2 3 3 9 12 1 2-7 2-1-2 11-2 4-1 6-13-1-4-2v-20l-6-4v-7l4-4 3-1 1-3-5-1-2-1-1 3-3 2-5-1v-4z" fill="#C2BABB"/>
<path transform="translate(765,425)" d="m0 0 9 2 16 5 4 1 2 3 7 2-4 1-30-4-13-1h-12l-12 2-10 4h-2l1-3 7-2h3v-2l10-3h10l1-2v2h2v-2l5-1z" fill="#564E51"/>
<path transform="translate(1124,90)" d="m0 0 49 1 11 1 1 1v5l-2 2-24-2-28-3-8-3z" fill="#C3BBBC"/>
<path transform="translate(402,747)" d="m0 0 14 4 5 2 1 3-4 4-4 3 1 8-6 2-7-3-2-4 1-5 3-2-2-4-2-3-1-4z" fill="#51494C"/>
<path transform="translate(1455,135)" d="m0 0h28l25 2 30 3 5 2v13h-1l-1-9-10-2-25-2-18-2v-2l-12 1-28-1v-2z" fill="#8C7178"/>
<path transform="translate(196,902)" d="m0 0 10 5 10 7 11 6 7 4 4 4 10 6 8 4 6 2 1 4-9-2-14-7-11-6-13-8-12-9v-2l-4-2-4-3z" fill="#1F1B1D"/>
<path transform="translate(176,891)" d="m0 0 3 1v2l4 2 5 4v2l4 2 10 8 1 2-4 1-8-4-5-1-5-3-6-2-3-2 3 6 4 7-1 3-9-5-9-7h-2l-4-4 1-3 2 1v2l6 3v2l5 2 4 2-3-7-2-6-3-1 1-3 12 7 7-1-4-5-4-4z" fill="#51494C"/>
<path transform="translate(97,969)" d="m0 0 1 4 4 11 2 5-2 2h-3l-1 6-4-1-2 5 2 8-6-2-5 1-2-2 6-4v-13l9-19z" fill="#C3BBBC"/>
<path transform="translate(1257,158)" d="m0 0 8 1 1 1-1 9-1 2 4 1h-9l-18-2-9-2-4-1h-6l-2-1v-2h8l3-1 2 1v2h8l4-1 2-5 1-1z" fill="#6F686E"/>
<path transform="translate(1428,137)" d="m0 0h26l26 1h8v2l18 1 25 2 11 2-1 3-24-3-33-2-17-2h-23l-17-2z" fill="#55494D"/>
<path transform="translate(954,144)" d="m0 0h2v2l-6 3h-3v2l-8 4h-2v2l-8 5-5 2-7 8-7 7-4 1-1 4v7l5 8v2h2l2 7 10-3 2 2-6 5h-5l-12-19-5-10 1-3 12-9 15-11 22-13z" fill="#52576F"/>
<path transform="translate(174,923)" d="m0 0 4 1 9 6 4 2 10 6 7 3v2h5l5 5 2 4 5 2 7 4-1 3-9-3-18-10-9-7-2-1v-2l-4-2-4-3v-2l-5-2-6-5z" fill="#1F1B1D"/>
<path transform="translate(200,784)" d="m0 0 4 1 5 3 7 8-2 2v-2l-4-2v-2l-4-1v-2h-2l5 10 8 10 4 7 2 4-3 1-7-1-3-2 2 4 6 10-1 2-4-1-6-4 3-1 4 2-8-12-3-4v-2l11 3-4-8-7-11-3-6z" fill="#716A6F"/>
<path transform="translate(356,636)" d="m0 0 2 4-4 7-2 3h-3l-1 3-2 1h-14l-8-3 1 9-1 2h-2l-2 4-2 2-6 1-5-3-4-1-1-4 7 3h5l3-3h2l1-3v-9l2-3 6 2 7 3 8 1-1-5h5v-3l5-4z" fill="#7E7980"/>
<path transform="translate(415,709)" d="m0 0h2l2 6-3 5-1 5-6 7h-6l-5-4-1-7 2-4 9-1 4-3 1-3z" fill="#51494C"/>
<path transform="translate(156,859)" d="m0 0 5 2 4 5 12 12 5 2-3-5 1-3 11 14v3l-6-2-6-3-14-15-4-3h-2l2 7 5 10 7 9v3l-6 1-7-4-1 2-3-4 1-3 6 4 3 1 1-4-4-6v-2h-2l-5-8-1-4v-7z" fill="#6C666B"/>
<path transform="translate(165,834)" d="m0 0h1v6l4 8 4 9-3 1h-3l1 6 3 3v2h2l-1 3-1-2h-2l-7-8-6-5-4 1 2-4 4-5 2-9 2-5z" fill="#C6BEBE"/>
<path transform="translate(168,1085)" d="m0 0 4 1-13 22-7 14-9 27h-1l-1-6 5-16 4-13 4-10 5-7 1-3h2l-1-3h2l2-4h3z" fill="#595155"/>
<path transform="translate(954,139)" d="m0 0 2 1-7 5 1 2-14 8-16 10-14 11-7 5-2 2-2-2 1-4 18-13 21-14z" fill="#DAD2D1"/>
<path transform="translate(82,1011)" d="m0 0 6 2 5 4v2l5 2 3 1 1-3 3-3h-2l-1-4 6 4 5 5 1 8-3 2-7-2-11-5-1 2-5-5-2-4h-2z" fill="#665F64"/>
<path transform="translate(128,914)" d="m0 0 5 1 3 3v3l-5-1 2 8 5 7 2 1v3l4 2 1 3 4 2 4 3v5h-4v-2h-5l-9-6-3-1-1 2-3-4 1-2 7 1 2 1 1-2h-2l-1-5h-2l-4-9-3-3v-9z" fill="#6E686D"/>
<path transform="translate(1234,79)" d="m0 0 6 1 1 4 5-1 3-3 7 2-1 4-7 3-1 3-6-1-4-4v-2l-5 3v8l5 2v3l-7-1-1 2h-2v-7l-2-7-4-2v-1l9-2z" fill="#777278"/>
<path transform="translate(850,136)" d="m0 0 6 4 10 9 8 7v2l4 2 2 2 5-1 6-4h2l-2 4-4 2v6h-2l3 7-3 1-14-16-3-4v-2l-3-1-3-4v-2h-2v-2l-4-2-6-6z" fill="#C5BDBE"/>
<path transform="translate(1312,127)" d="m0 0 17 1 29 3 57 3 32 2v2h-23l-10-2h-25l-22-1-18-2-12-1-1-1h-9v-1h-7l-1-1h-6z" fill="#6F696E"/>
<path transform="translate(120,972)" d="m0 0 11 3 2 2h7l-2-3 4 2 8 6 5 5-3 1-10-3-7-3-9-3 6 11 1 3h2l-1 3-12-6-4-4 6 2 4 2-6-11-2-3z" fill="#51494C"/>
<path transform="translate(1538,158)" d="m0 0h3l-1 5h-43l-49-1-20-1v-1h24l19 1v-2l53 1h9z" fill="#5A5458"/>
<path transform="translate(143,891)" d="m0 0 4 1 5 3 2 5-4-2v-2h-3l4 8 9 11 11 9v3l3 1-2 2-13-5-6-2-5-2 1 4-4-3-1-6 10 5 5-2-6-9-5-6-2-6-2-1z" fill="#625B60"/>
<path transform="translate(179,870)" d="m0 0 7 2v2l4 1 4 2 5 1 4 2-3-5 1-2 5 4 8 7 5 5-1 3-12-5-6-2-8-6-3-1-2 4-8-10z" fill="#51494C"/>
<path transform="translate(1073,109)" d="m0 0h10v1l-20 2-7 2h-9l-11 3-13 1-1 3-12 4-7 2-15 5h-6l4-3 19-7 17-5 18-4 17-3z" fill="#767177"/>
<path transform="translate(140,936)" d="m0 0 7 6 6 5 2 1v2l5 2 5 5 4 3v3h-6v-2l-9-2-3-2-5-1-3-3-3 1-1 2-5-6-2-1v-4l5 1 7 5 5 1v2l3-2v-3l-7-5-5-5z" fill="#51494C"/>
<path transform="translate(535,382)" d="m0 0 2 2-8 7-9 6-1 2h-2l-2 4-7 4h-2v3h-3v2h-2l-1 3-9 5-1 2h-3v2l-7 5-2-1 5-6 11-9 15-12 14-10z" fill="#C3BBBC"/>
<path transform="translate(341,673)" d="m0 0 7 1 2 2-1 8-5 8-7-1-4-5 2-5z" fill="#C3BBBC"/>
<path transform="translate(1302,154)" d="m0 0 2 4 1 1 26 3 1 3h-31l1 7 17 2v1h-29l-9-1v-1l18-2 1-7 1-1z" fill="#706A6F"/>
<path transform="translate(1190,80)" d="m0 0 5 1-1 2 4 1 1-2v2l3-1v5l-2 1 1 5 4 1 3 3 3 1v-8l-1-4h4v7h2v2l5-1 2 6-4-2-5-3-2 5-7-1-5-3v2l-9 1-2-3 6-1v-8l-3-1-5 1 1-6z" fill="#716A70"/>
<path transform="translate(686,266)" d="m0 0v3 5l5 1-1 4-4 3-15 7-5 2h-3l11-12 9-11z" fill="#C4BCBD"/>
<path transform="translate(1257,82)" d="m0 0 2 3v6l-1 6 3 7 8 1 6-6h13l11 1v1h-24l-3 10h-12l-3-5-2-7-5-3v-5l7-4z" fill="#EEE5E2"/>
<path transform="translate(150,861)" d="m0 0h1l1 7 4 9v4h-3l-1 8 3 1 3 5-1 2-5-4-8-10-3-2 4-5 4-13z" fill="#C5BDBE"/>
<path transform="translate(339,670)" d="m0 0 7 1 7 5 1 9-6 10h-7l-5-2-4-4-1-8 6-10zm2 3-8 11 2 5 4 3h5l5-8 1-8-4-3z" fill="#7B757C"/>
<path transform="translate(170,956)" d="m0 0 9 3 8 4 9 6 10 6 1 3 3 1-3 2-22-11-12-9v-2l-3-1z" fill="#1F1B1D"/>
<path transform="translate(1218,78)" d="m0 0 4 1 3 6-3 1 5 5 1 9-1 2h-4l-3-6h-4l-1-2v-7l1-2-6 1v-2l6-4z" fill="#7E797F"/>
<path transform="translate(1202,110)" d="m0 0 4 1 1 1h14l4 4 5-1 2-2 6 1 2 2h9l2 2-3 1-1 4-7-1-1-5-6-1-2 2-1 4h-5l-4-6-6-2-3 9-3-1-2-7-7-1-2 3 1-5z" fill="#51494C"/>
<path transform="translate(1127,96)" d="m0 0 40 2 17 2-2 2-18-1-25-1 1 2-58-1v-1l25-1h20z" fill="#676065"/>
<path transform="translate(143,885)" d="m0 0 5 4 2 4-6-1 2 6 5 9 6 7 2 5h-2l-1 3-6-2-5-3-2 2-3-6 6 1 4 2h2v-4h-2l-10-15-1-6z" fill="#6D676C"/>
<path transform="translate(954,119)" d="m0 0 2 1-4 4-10 5-10 6-11 6-9 6-7 4-3 3-6 3h-3l5-5 11-8 24-14z" fill="#C7BFBF"/>
<path transform="translate(838,213)" d="m0 0h7l11 3 6 5 2 4 1 11-2 8-2 1 1-4v-11l-2-6-6-5-6-2h-7l-10 3-18 10-6 3-2-1 17-11 9-5z" fill="#C3BBBC"/>
<path transform="translate(700,277)" d="m0 0h25l23 2 6 1-4 2-8-1h-18l-8 3-8 1-4-3-5-1z" fill="#6E6D7A"/>
<path transform="translate(315,690)" d="m0 0 8 1 7 3 3 7-1 5-9-1v-2l-3-1-6-8z" fill="#7D777E"/>
<path transform="translate(644,308)" d="m0 0h2v2l-4 4-6 3-2 2-8 6-11 7-8 5-8 4-6 4-7 4-3-1 20-13 19-12 21-14z" fill="#C4BCBD"/>
<path transform="translate(848,235)" d="m0 0 4 2-1 5-5 3-2 1h-12l-2-1-2-5 1-2h5l1-1h10z" fill="#C3BBBC"/>
<path transform="translate(135,891)" d="m0 0h2l3 9 2 3v5l-3 1-2-1 3 9v2l-4-2-2-4-5-2h-3l3-3h2l3-15z" fill="#C4BCBD"/>
<path transform="translate(135,1030)" d="m0 0 14 3 2 1v2l6 2 6 4-1 3-13-1-4-3v-2l-5-2-5-5z" fill="#1F1B1D"/>
<path transform="translate(121,918)" d="m0 0 3 3v4l2 7-2 10h2l1 5-5-2v-2h-2v-2l-4-2-3 1-3 3 2-5 4-4h2l1-8 1-7z" fill="#C3BBBC"/>
<path transform="translate(212,877)" d="m0 0 5 2 14 9 8 6v2l5 2v2l3 1v3l-6-2-9-6v-2l-4-2-7-6-3-1v-2h-2v-2l-4-1z" fill="#1F1B1D"/>
<path transform="translate(198,831)" d="m0 0 7 6 6 5 6 8 5 6-4-1-7-3-7-2-8-4-1 2-4-6 6 1 6 3h5l-3-3-1-3-5-5z" fill="#635C61"/>
<path transform="translate(198,925)" d="m0 0 7 4 5 2 7 6 6 5v2l-3 1-7-2-1-3-4-1-7-6-3-5z" fill="#1F1B1D"/>
<path transform="translate(324,651)" d="m0 0 7 1 1 1 14 1v2l-9 1-9-1 1 6-4 5-6 4h-6l-8-5h3l6 2 5-2 3-4h2z" fill="#736D72"/>
<path transform="translate(109,943)" d="m0 0h1v6h2l2 7-2 3 2 1-3 1v11h-3l-4-5-6 2 4-5 4-3 1-4v-10z" fill="#C5BDBE"/>
<path transform="translate(954,144)" d="m0 0h2v2l-6 3h-3v2l-8 4h-2v2l-8 5-5 2-5 5-7 6-7 4-6 5v-4l12-9 15-11 22-13z" fill="#756F75"/>
<path transform="translate(108,989)" d="m0 0 5 2 3 5v5l-5 5h-2v2l-9-1-1 3-3-4v-3l6 1 3-1 2-5 4-1v-2l-2-1z" fill="#736D72"/>
<path transform="translate(1286,104)" d="m0 0h11l6 2 1 2-2 3-10 1-9-3-2-3z" fill="#736D72"/>
<path transform="translate(1252,147)" d="m0 0 15 1 1 3-1 4-2 1h-8l-7-2v-6z" fill="#DCD3D2"/>
<path transform="translate(978,129)" d="m0 0h3v2l-4 1v2l-25 12h-5l5-4 7-6 6-3 10-2z" fill="#E2DDDD"/>
<path transform="translate(103,969)" d="m0 0 4 2 10 10h3l-1-3 2-2 7 11v3l-4-1-10-5-3-5-6-6-1 8-2-1-1-5z" fill="#70696E"/>
<path transform="translate(395,593)" d="m0 0 3 1-2 4-5 5-7 5-2 3-8-1-3-2 10-5z" fill="#6E6D7A"/>
<path transform="translate(1139,99)" d="m0 0 25 1 18 1 3-1 1 4-2 1h-8l-7-1-29-2-4-2z" fill="#51494C"/>
<path transform="translate(82,1011)" d="m0 0 6 2 5 4v2l5 2 3 1 1-3 3-3h-2l-1-4 6 4 1 7-2 3h-6l-9-5-6-4v-2h-2l-1 2z" fill="#726C71"/>
<path transform="translate(1071,101)" d="m0 0h61l14 2v1h-12l-12-1h-30l-27 1 2-2z" fill="#7C777D"/>
<path transform="translate(1250,160)" d="m0 0h12l2 1-1 5h-2v3h-2v2h-4l-1-2-5-1v-7z" fill="#C3BBBC"/>
<path transform="translate(954,139)" d="m0 0 2 1-7 5 1 2-14 8-5 3-11 4 1-3 19-12z" fill="#D6CDCD"/>
<path transform="translate(190,824)" d="m0 0 4 2v2h2l6 10 3 2v3l3 1v2l-5 1-9-4-5-1-1-4 10 3-3-9-5-6z" fill="#726C71"/>
<path transform="translate(1249,80)" d="m0 0 7 2-1 4-7 3-1 3-6-1-4-4v-2l-3-1v-3h5v3h6z" fill="#736D73"/>
<path transform="translate(1165,92)" d="m0 0 17 1 2 1-1 4-16-1-18-2-2-2z" fill="#F1E9E7"/>
<path transform="translate(1217,76)" d="m0 0h5l2 2 7 1 3-2 5 1 1 2h-6l-6 5-4-1-3-5-4 1-5 4-4-1-2-6 9 1z" fill="#F1EDEC"/>
<path transform="translate(90,1025)" d="m0 0 5 2 6 5 4 4 6 4-1 3-7-3-9-2-3-2-1 2-4-3v-3l12 3-7-8z" fill="#736D71"/>
<path transform="translate(1154,105)" d="m0 0h10l13 2 1 4-5 1-19-2z" fill="#C3BBBC"/>
<path transform="translate(127,967)" d="m0 0 5 1 6 5 3 5h-8l-2-2-10-3-2 3-3-5v-3l6 2 2 1h4l1 1v-4z" fill="#635C61"/>
<path transform="translate(1367,134)" d="m0 0h48l32 2v2h-23l-10-2h-25l-22-1z" fill="#6A6469"/>
<path transform="translate(116,953)" d="m0 0 3 1 6 9 2 2v3h2l1 5h-2v-2l-5 1-7-4 4 8-1 2-5-8v-4h7l-2-5-3-6z" fill="#716B70"/>
<path transform="translate(395,661)" d="m0 0h3l-1 6-6 9h-2l-1 3h-4l1-7z" fill="#51494C"/>
<path transform="translate(1309,154)" d="m0 0h13l2 1 9 1v2l9-1 2 2-5 1-15-1h-8l-7-2z" fill="#FEFEFE"/>
<path transform="translate(166,869)" d="m0 0 4 2 7 7 5 2-3-5 1-3 11 14v3l-6-2-6-3-13-14z" fill="#6E686D"/>
<path transform="translate(1233,85)" d="m0 0h4v2l3 1 2 4h-2v6l3 4h-5l-2-4-5-2v-8z" fill="#7D787E"/>
<path transform="translate(1293,82)" d="m0 0h12l2 4-3 3-16-1-3-3z" fill="#7F7A81"/>
<path transform="translate(342,675)" d="m0 0h5l1 5-6 9-4 1-2-5z" fill="#EEE5E2"/>
<path transform="translate(1190,80)" d="m0 0 5 1-1 2 4 1 1-2v2l3-1v5l-2 1 1 7h-4-1l-1-8-3-1-5 1 1-6z" fill="#7D787F"/>
<path transform="translate(299,669)" d="m0 0 8 5 5 5 9 8v1l-7-1h-3l-5-5-1-5h-2l-3-5z" fill="#5E575B"/>
<path transform="translate(1021,119)" d="m0 0 1 2-12 4-7 2-15 5h-6l4-3 19-7z" fill="#665F64"/>
<path transform="translate(1275,116)" d="m0 0h10l17 2 5 2 1 4-1-2-3 1-6-2-12-1h-5l-4-2-1 2-3-1z" fill="#706A6F"/>
<path transform="translate(223,791)" d="m0 0 4 1 2 3h-2l8 12v3l-5-1-5-3-9-8 2-1 8 6 4 1-7-11z" fill="#736D72"/>
<path transform="translate(991,122)" d="m0 0 3 1-3 2 11-2-2 2-18 7-5 1 4-2v-2l-10 4-3-1z" fill="#D6CECD"/>
<path transform="translate(185,952)" d="m0 0 1 2 5 1 9 5 2 5-7-1-5-2-7-8z" fill="#1F1B1D"/>
<path transform="translate(140,939)" d="m0 0 4 2 1 3 4 2 4 3v5h-4v-2h-5l-9-6 3-1 5 3 1-3-4-4z" fill="#665F64"/>
<path transform="translate(173,837)" d="m0 0 8 6v3l-6-4 6 11 8 9-2 1-6-4-8-12-1-6z" fill="#5C5458"/>
<path transform="translate(196,848)" d="m0 0 5 5 6 9-1 2-7-3-2-4-5-1-2-4 5 2 3 1-2-3z" fill="#6E686D"/>
<path transform="translate(148,908)" d="m0 0 4 2 3 3v2l4 2v2h-2l-1 3-6-2-5-3-2 2-3-6 6 1 4 2h2v-4h-2z" fill="#736D72"/>
<path transform="translate(180,857)" d="m0 0 5 4 4 5 1 5-7-1-8-4-1 2-3-5h4l7 4 1-2-3-5z" fill="#726C71"/>
<path transform="translate(304,834)" d="m0 0 5 1 3 4 3 1 6 6-3 1-7-3-8-5z" fill="#1F1B1D"/>
<path transform="translate(363,606)" d="m0 0 8 2v2l5 2 6 5-2 1 5 7-4-2-9-8-5-4v-2l-4-2z" fill="#4A4346"/>
<path transform="translate(338,587)" d="m0 0 5 2 12 9 14 9-2 1h-3l-4-2-13-10-4-2z" fill="#595A6C"/>
<path transform="translate(1192,86)" d="m0 0 4 2v8l-1 1h-6l-3-4 1-4z" fill="#F3EDEB"/>
<path transform="translate(891,209)" d="m0 0 8 2 3 2-1 2-10-1h-2v2l-10 2 2-4 6-4z" fill="#515873"/>
<path transform="translate(1538,158)" d="m0 0h3l-1 5h-43v-1l21-1 1-1h14z" fill="#554E53"/>
<path transform="translate(416,646)" d="m0 0 4 1 11 8v2l4 1 9 9-3 1-9-8-3-2v-2l-5-2-8-7z" fill="#1F1B1D"/>
<path transform="translate(163,898)" d="m0 0 4 1 3 6 2 3v4l-4-1-5-3v-2l-6-3 1-2 7 3z" fill="#6F686D"/>
<path transform="translate(76,1012)" d="m0 0 2 1v5l4 2 4 4 3 6-5-2-5-4-1 2-3-6z" fill="#BEB6B7"/>
<path transform="translate(188,813)" d="m0 0 7 2 5 6 2 4-4-2v-2l-6-3 2 6 2 4h-2v-2l-4-2-2-3z" fill="#564E52"/>
<path transform="translate(163,881)" d="m0 0h2l8 11v3l-6 1-7-4-1 2-3-4 1-3 6 4 3 1 1-4z" fill="#736D72"/>
<path transform="translate(312,672)" d="m0 0 9 1 8 3 1 3v7l-5-4-2-3-10-5z" fill="#51494C"/>
<path transform="translate(762,294)" d="m0 0 5 1v4l-9 6-6 1v-3l6-4 1-2z" fill="#393235"/>
<path transform="translate(273,850)" d="m0 0 9 3 5 5v3l4 1 2 2-5-1-9-5-3-2v-2l-4-2z" fill="#1F1B1D"/>
<path transform="translate(610,418)" d="m0 0 1 2h2l-2 4-5 4-9 3 2-6 7-5z" fill="#716B70"/>
<path transform="translate(126,955)" d="m0 0 4 1 7 5 6 3v-4h-2l-1-4 5 5v2l3 1 1 6-4-1v-2l-5-1-10-7z" fill="#51494C"/>
<path transform="translate(128,914)" d="m0 0 5 1 3 3v3l-5-1 2 8 1 3h-2l-2-4-3-3v-9z" fill="#676065"/>
<path transform="translate(143,891)" d="m0 0 4 1 5 3 2 5-4-2v-2h-3l4 8 8 10h-3l-8-10-2-6-2-1z" fill="#554D50"/>
<path transform="translate(188,882)" d="m0 0 3 1 6 9v2h2v3h-2v-2l-3 1-13-10 2-1 8 4-3-5z" fill="#51494C"/>
<path transform="translate(1186,105)" d="m0 0h7l4 2-2 4-2 2h-5v-2l-4-2z" fill="#908A90"/>
<path transform="translate(1266,168)" d="m0 0 15 1 8 3v1h-18l-6-2z" fill="#696267"/>
<path transform="translate(1189,79)" d="m0 0 4 1-4 2-3 6-16-2-14-1v-1l30-1v-3z" fill="#D8D2D2"/>
<path transform="translate(346,550)" d="m0 0h2v2l-7 5h-2v2h-2l-2 4-9 4-2 3-3-1 9-8 12-8z" fill="#EFE7E4"/>
<path transform="translate(980,108)" d="m0 0 2 1-2 3-8 3-13 6-4-1 8-5z" fill="#C5BDBE"/>
<path transform="translate(170,834)" d="m0 0 5 1v2l4 2 1 3-6-3-1 5 5 9-1 2-3-3-5-9z" fill="#736D72"/>
<path transform="translate(1141,102)" d="m0 0 28 1 7 1 1 3-25-2-11-2z" fill="#726C71"/>
<path transform="translate(1139,97)" d="m0 0 28 1 17 2-2 2-18-1-3-1-18-1z" fill="#716C73"/>
<path transform="translate(319,693)" d="m0 0 7 1 4 5v4l-6-1-5-6z" fill="#C3BBBC"/>
<path transform="translate(1052,89)" d="m0 0h7l-4 2-24 5-6 2h-6v-2l23-5z" fill="#C7BFC0"/>
<path transform="translate(905,220)" d="m0 0 3 3v9l-5 6-12 6-6 1-4-2 2-1h6l15-8 2-4z" fill="#C3BBBC"/>
<path transform="translate(118,948)" d="m0 0 5 2 3 3-1 2-2-1 1 5 5 6v2h-2l-8-11-2-4z" fill="#4E4649"/>
<path transform="translate(919,165)" d="m0 0 4 1-10 8-11 7-3 3v-4l12-9z" fill="#736E74"/>
<path transform="translate(1305,160)" d="m0 0 20 1 7 2v2h-18v-1l3-1-9-1z" fill="#7E7980"/>
<path transform="translate(149,925)" d="m0 0 3 1 5 8v2h2l-1 3-10-6-3-2 1-2h4z" fill="#6E676C"/>
<path transform="translate(324,601)" d="m0 0 2 1-1 4-7 12-3 1 1-7 6-9h2z" fill="#7F7A81"/>
<path transform="translate(374,649)" d="m0 0 2 1v4l-2 1-2 5-4 3h-2l1-5 2-5z" fill="#716B70"/>
<path transform="translate(752,332)" d="m0 0h2l1 6-3 3v-2h-7l-9 2 4-3 6-3h3v-2z" fill="#6E6C79"/>
<path transform="translate(353,678)" d="m0 0 3 3-1 6-4 7-4 5-4-1-4-4 9 1 2-5 3-5z" fill="#554D51"/>
<path transform="translate(1517,143)" d="m0 0h14l11 2-1 3-24-3z" fill="#51494C"/>
<path transform="translate(158,865)" d="m0 0 4 1 8 7 5 6-4-2-5-4v-2l-4-1 1 6-4-4z" fill="#51494C"/>
<path transform="translate(1305,152)" d="m0 0 17 1v1l-13 1 2 2 5 1v1h-8l-5-1v-4h2z" fill="#EAE2DF"/>
<path transform="translate(185,809)" d="m0 0h5l3 3v3l-5-2v8l-2-1-2-4v-6z" fill="#6E676C"/>
<path transform="translate(328,638)" d="m0 0 7 4 4 6-7-1-5-5z" fill="#EEE5E2"/>
<path transform="translate(1245,95)" d="m0 0 3 3v2l5 2v4l-5 2 2 7-3-1v-7l3-5-4-1-2 2-4-1h3v-2h2z" fill="#6E686D"/>
<path transform="translate(222,906)" d="m0 0 7 4 5 6-3 1-10-6z" fill="#1F1B1D"/>
<path transform="translate(1071,101)" d="m0 0h21v2l-27 1 2-2z" fill="#746E74"/>
<path transform="translate(91,1036)" d="m0 0 12 3 5 2 1 2-10-1-1 2-7-5z" fill="#6C6569"/>
<path transform="translate(116,942)" d="m0 0 4 2 5 4v2l-7-1v5l-2-1-2-5 1-5z" fill="#6D666B"/>
<path transform="translate(1277,100)" d="m0 0 22 1 3 2h-27v-2z" fill="#C3BBBC"/>
<path transform="translate(350,634)" d="m0 0h2l-1 4-4 8-5-1v-3l2-4 3-2h3z" fill="#665F64"/>
<path transform="translate(697,304)" d="m0 0 5 1v2l-8 7-3-1 2-5z" fill="#665F64"/>
<path transform="translate(1192,158)" d="m0 0h10l-4 1-2 6-6-2-1-3-2-1z" fill="#6D666A"/>
<path transform="translate(1169,92)" d="m0 0m-4 0 4 1v2l-2 1-18-1-2-2z" fill="#EEE6E3"/>
<path transform="translate(351,675)" d="m0 0 2 1 1 9-6 10h-2l2-7 3-7z" fill="#6A6469"/>
<path transform="translate(1179,112)" d="m0 0 5 1h6l-3 2h-3l-1 10h-3v-10l-6-1v-1z" fill="#51494C"/>
<path transform="translate(1173,87)" d="m0 0 9 1 2 1v2h-13l-7-1 4-2z" fill="#736D72"/>
<path transform="translate(312,646)" d="m0 0v3l-3 5-2 3-3 1h-8l12-8z" fill="#EEE6E3"/>
<path transform="translate(937,149)" d="m0 0 2 1-4 4-14 8v-3z" fill="#DED5D4"/>
<path transform="translate(1206,77)" d="m0 0 9 1 1-1h5l-5 4-4 3-4-1z" fill="#DBD5D5"/>
<path transform="translate(105,975)" d="m0 0 7 4 2 4-6-2 4 6v3l-6-7-1-2z" fill="#51494C"/>
<path transform="translate(208,820)" d="m0 0 4 2 6 10-1 2-4-1-6-4 3-1 4 2z" fill="#726C71"/>
<path transform="translate(901,173)" d="m0 0 6 1-5 5-5 4-2-2 1-4z" fill="#CAC2C2"/>
<path transform="translate(1300,167)" d="m0 0 2 1v4l17 2v1h-27v-1h9z" fill="#817C83"/>
<path transform="translate(1073,109)" d="m0 0h10v1l-20 2-7 2h-5l3-2h3v-2z" fill="#625B60"/>
<path transform="translate(1186,86)" d="m0 0 2 3-1 4 2 4h-2l-2 3-2-1 1-1v-5l-11-1v-1h11v-2h-2v-2z" fill="#7D787F"/>
<path transform="translate(350,681)" d="m0 0 1 2-5 12-7-1-2-3 7 1 2-4z" fill="#7C767D"/>
<path transform="translate(1262,160)" d="m0 0h4l-1 9-1 2 4 1h-9v-3h2v-3l2-1 1-4z" fill="#847E85"/>
<path transform="translate(980,132)" d="m0 0 2 1-9 5-2 1-2-1-1 3-7 2-5 1 4-3z" fill="#6E686D"/>
<path transform="translate(380,808)" d="m0 0 3 1-1 5-3 4h-2l-1-4 3-5z" fill="#413A3E"/>
<path transform="translate(204,760)" d="m0 0h1l2 12v3l-8-1 4-6z" fill="#EEE5E2"/>
<path transform="translate(421,757)" d="m0 0 1 3-6 9h-2l-1-7 5-3z" fill="#413A3E"/>
<path transform="translate(1130,94)" d="m0 0 29 3v1h-15l-13-1z" fill="#7C777F"/>
<path transform="translate(1210,87)" d="m0 0h4v7h2v2l5-1 2 6-4-2-5-3-4-6z" fill="#696267"/>
<path transform="translate(1250,78)" d="m0 0 3 1-2 2-2-1-1 3-3 2-5-1v-4z" fill="#DBD5D5"/>
<path transform="translate(156,859)" d="m0 0 5 2 4 5 2 1v2l-5-2-1-3-4 1v5l-2-2v-7z" fill="#716B70"/>
<path transform="translate(177,881)" d="m0 0 9 3 1-3 4 5v3l-6-2-6-3z" fill="#645C61"/>
<path transform="translate(203,787)" d="m0 0 6 2 7 7-2 2v-2l-4-2v-2l-4-1v-2h-2l2 7-3-3-1-5z" fill="#665F64"/>
<path transform="translate(916,170)" d="m0 0 2 1-8 8-4 1-1 4-3-2 5-5 8-6z" fill="#51494C"/>
<path transform="translate(1192,86)" d="m0 0 4 2v8l-1 1h-6l-3-4 1-4zm-2 2-2 2 1 5h5l1-1v-5z" fill="#C3BBBC"/>
<path transform="translate(923,205)" d="m0 0 3 2-6 5h-5l-1-3z" fill="#6C666B"/>
<path transform="translate(1248,164)" d="m0 0 1 4h5l1 3-14-1 4-1v-3z" fill="#8B858B"/>
<path transform="translate(1202,84)" d="m0 0 4 2v3h-2l-1 4h-4l1-5h2l-1-3z" fill="#C3BBBC"/>
<path transform="translate(123,980)" d="m0 0 3 4 2 3v3l-4-1-10-5 4-1 3 2h3z" fill="#635C61"/>
<path transform="translate(200,853)" d="m0 0 5 5 2 6-6-2-4-4 5 1z" fill="#665F64"/>
<path transform="translate(1217,87)" d="m0 0 5 1-1 5-4 2-1-1v-6z" fill="#C3BBBC"/>
<path transform="translate(103,969)" d="m0 0 4 2 4 6h-3l-3-4-1 8-2-1-1-5z" fill="#726C71"/>
<path transform="translate(174,815)" d="m0 0 2 4-1 8-5-1 3-9z" fill="#EEE6E3"/>
<path transform="translate(789,242)" d="m0 0 2 1-7 9-2 4-1 8h-1v-9l4-8z" fill="#D2CACA"/>
<path transform="translate(1193,105)" d="m0 0h7l1 4-7 6-2-2 5-6z" fill="#736D72"/>
<path transform="translate(1233,88)" d="m0 0h5l-1 5-2 3h-3v-7z" fill="#C3BBBC"/>
<path transform="translate(1021,119)" d="m0 0 1 2-12 4h-7l3-2h3v-2z" fill="#544C50"/>
<path transform="translate(1275,116)" d="m0 0h10l1 4h-5l-4-2-1 2-3-1z" fill="#6E686D"/>
<path transform="translate(128,914)" d="m0 0 5 1 3 3v3h-2l-2-3-3 1-2 3v-7z" fill="#726C71"/>
<path transform="translate(339,670)" d="m0 0 7 1-3 1-4 2-6 8-2 2 1-5 5-8z" fill="#716B70"/>
<path transform="translate(363,606)" d="m0 0 8 2v2l5 2-3 1-1 2-5-4v-2l-4-2z" fill="#50494E"/>
<path transform="translate(925,244)" d="m0 0 3 1 3 10-2 1-4-8-5-2v-1z" fill="#767480"/>
<path transform="translate(789,178)" d="m0 0 1 3-6 9h-2l-2 4-2-1 9-12z" fill="#C8C0C1"/>
<path transform="translate(1203,161)" d="m0 0 5 1 3 2v-3h7v1h-5v4h-7z" fill="#797378"/>
<path transform="translate(1221,85)" d="m0 0 9 1v6l-4-1-1-3-4-2z" fill="#6E676C"/>
<path transform="translate(188,790)" d="m0 0h2l1 2v6l-5 1-2-1z" fill="#EEE5E2"/>
<path transform="translate(1305,161)" d="m0 0 15 1 3 2h-20v-2z" fill="#736D72"/>
<path transform="translate(1256,116)" d="m0 0h9l2 3-1 1-9-1z" fill="#EEE5E2"/>
<path transform="translate(200,784)" d="m0 0 4 1 5 3-2 1-4-1 1 7-3-3-1-2z" fill="#736D72"/>
<path transform="translate(978,129)" d="m0 0h3v2l-11 5-4-1 1-2 9-3z" fill="#F7F4F3"/>
<path transform="translate(1253,123)" d="m0 0 1 2 3-1 15 2-2 2-9-1h-7z" fill="#716B70"/>
<path transform="translate(1240,92)" d="m0 0 4 2v6h-4l-1-6z" fill="#C3BBBC"/>
<path transform="translate(1234,77)" d="m0 0 5 1 1 2h-6l-6 5-4-1-1-2 7-1z" fill="#CCC5C5"/>
<path transform="translate(399,737)" d="m0 0 7 1 2 2v3l-7-1z" fill="#1F1B1D"/>
<path transform="translate(995,103)" d="m0 0m-3 1h3v2l-10 4-4-1 5-3z" fill="#C4BCBD"/>
<path transform="translate(1224,93)" d="m0 0h3l1 7h-4l-1-1v-5z" fill="#CAC2C2"/>
<path transform="translate(1208,92)" d="m0 0 4 2-1 5-5-1v-5z" fill="#C3BBBC"/>
<path transform="translate(1202,76)" d="m0 0 4 1-5 3-3 4h-5l1-3-1-2h6z" fill="#D0C8C8"/>
<path transform="translate(104,972)" d="m0 0 4 4h-2l1 7 2 3-1 3-4-5z" fill="#6A6469"/>
<path transform="translate(662,380)" d="m0 0 3 1-2 4-6 3-2-1 4-5z" fill="#706A6F"/>
<path transform="translate(929,161)" d="m0 0 2 1-10 8-3-1 5-5z" fill="#554D51"/>
<path transform="translate(1257,158)" d="m0 0 8 1v1l-15 1-3 5-1-2 2-5z" fill="#777177"/>
<path transform="translate(1190,80)" d="m0 0 5 1-2 4-6 3 1-6z" fill="#6F696E"/>
<path transform="translate(168,904)" d="m0 0 4 4v4l-4-1-5-3 1-2 4 2z" fill="#665F64"/>
<path transform="translate(216,797)" d="m0 0 5 2 5 4 3 5-4-2-9-8z" fill="#6B6469"/>
<path transform="translate(332,581)" d="m0 0 4 2 4 4v2l1 2-4-2-4-4z" fill="#6C738A"/>
<path transform="translate(1249,148)" d="m0 0h1l1 7 8 2-2 2h-8z" fill="#6A6369"/>
<path transform="translate(147,901)" d="m0 0 3 1 9 12h-3l-8-10z" fill="#51494C"/>
<path transform="translate(213,842)" d="m0 0 4 1 6 4v2l4 2v2l-4-2-4-3v-2l-4-2z" fill="#1F1B1D"/>
<path transform="translate(173,837)" d="m0 0 8 6v3l-6-4-1 3-2-4z" fill="#51494C"/>
<path transform="translate(350,598)" d="m0 0 5 3 6 5-1 2-7-4-3-4z" fill="#706D76"/>
<path transform="translate(644,308)" d="m0 0h2v2l-4 4-6 3-2 2v-3z" fill="#C3BBBC"/>
<path transform="translate(927,158)" d="m0 0 2 1-11 8-2-1 2-2v-3l5-1z" fill="#C4BCBD"/>
<path transform="translate(1229,95)" d="m0 0 8 3v3l-8-1z" fill="#6A6368"/>
<path transform="translate(152,928)" d="m0 0 4 4 1 4h2l-1 3-7-4 2-1 2 1-3-5z" fill="#665F64"/>
<path transform="translate(144,916)" d="m0 0 6 3 1 2h-3l1 4-4-3z" fill="#686166"/>
<path transform="translate(175,866)" d="m0 0 5 2 6 3-3 2v-2l-4-1-1 2-3-4z" fill="#665F64"/>
<path transform="translate(353,678)" d="m0 0 3 3-1 6-5 5 2-5 1-7z" fill="#51494C"/>
<path transform="translate(123,950)" d="m0 0 5 1 5 6h-3l-4-2z" fill="#6B6469"/>
<path transform="translate(884,217)" d="m0 0 2 1-6 7-3 1 2-5z" fill="#D7D0D0"/>
<path transform="translate(173,834)" d="m0 0 2 1v2l4 2 1 3-6-3-2 2v-6z" fill="#6C656A"/>
<path transform="translate(370,614)" d="m0 0 4 2 8 7h-3l-7-5z" fill="#665F64"/>
<path transform="translate(559,459)" d="m0 0v3l-5 4-5 1 4-5z" fill="#736D72"/>
<path transform="translate(887,169)" d="m0 0 4 2 1 4 6 1-3 3-3-1-4-6z" fill="#707994"/>
<path transform="translate(1252,145)" d="m0 0h11l4 3h-17z" fill="#726C72"/>
</svg>
