<?xml version="1.0" encoding="UTF-8"?>
<svg version="1.1" viewBox="0 0 800 800" width="1280" height="1280" xmlns="http://www.w3.org/2000/svg">
<path transform="translate(498,149)" d="m0 0h13l10 2 3-2h10l15 4 9 5 12 3 13 1 14 5 10 4 12 9 3 6 6 9 9 24 7 19 5 22 1 8v10l15-4 6-1 4 3 1 6-2 4-7 1-7-3-11-2v7l-4 17-3 5 5-2 12-1h10l7 4v8l-2 3h-9l-4-2-25-2-2 5-5 8 1 7 3 6 6-1 1 6 19-5h12l3 3 5 1v2h-3l-1 7-1 1-14 1h-8l-3-3-11-2-5 2-1 9 5 9 3 2 54-3 2 1v-11l3-9 6-7 7-4 53 1 5 3 6 9 3 10 1 7v9l-3 12-6 7-8 3-29 6-22 2-7-6-8-16-1-3-14 3-35 4-30 1-8 1-5 14v7l1 5-4 2 1 10 1 4 15 1h9l4-9 2-9h4l1 4h3l8-17 6-5 7-3h12l11 3 6 4 5 5 8 10 10 18 8 14 3 5-1 3-7-8-9-15-9-16-9-10-8-5-12-2-11 1-6 5-3 15v3l1 11 4 7 5 4 16 5 6 4 6 9 7 9 3 5 3 3v2h-2l1 6 9 1-2 1v6l-4 4h-3l3 6 3 14v8l-2 4 1 4 20 9 23 10 24 11 27 12 1 1v10l-9-3-32-15-20-9-19-9-8-1-12 2-16 2-46 8h-4l2 4 22 12 24 12 20 11 23 11 15 8 26 12 10 6 24 13v15l-6-2-16-9-14-7-46-25-16-9-39-20-22-12-23-12-39-20-36-18-19-7-24-12-13-8-5-4-19-9-32-16-8-5 1-4 16-2 12-2 17-2 4-1v-10l-2-4-4-1h-8l-4 3-4-2-7-9-7-3 3-5 3-7 2-4-9-2v-2l-9-1-3-1v-6l-23 3h-20l-1-3-5-1 1 63-3 3-1 11-2 7 1 5-3 5-2 5-4-2-2-7 1-10-3-5-2-4v-5l-7-3-1-5-10-2-5-4-6-8-5-1 1-6v-7l-5-9-7-7h-9l-15 2-44 3 2 6 2 2v4l-4 1 1 7 4 2-1 4h-2l3 20v3l-4 1v3l4 1-2 12-3 11-3 17-2 6h-2l-5-22-3-5v-6l-5-5-14-9-4-5-8-6-1-2-2-14-2-5-3-13v-3l-22 4h-12l-20 3h-10l-7-2-5-4-4 1 1 5 4 1v2l-4 2-1 13 2 3v6l-1 1 3 21v7l-5 11-2 10-1 18-2 11-4-4-2-6v-10l1-5-4-7-1-1-1-10-7-1-1 4h-6l-1-3 3-3-6-4-4-6-5-4-3-6v-4l4 2 3 4 3-1 3-7-1-8h2v-6l-4-2-6-1 1 8-3 2-4-1-1-1v-23l-5 1-2 4-10 2-5-2-2-8 1-5 11-3 12-3 7-4 2-6 2-14 1-6-4 1 1 1v6l-4 1-7-5-1-5 8-5 5-5 2-4 8-1 1-12 1-23 1-4v-10l-4-12-7-14-12-17-11-12-30-20-5-4-1-3 6-3 39-4 22-2 1-5h1v5l71-1 37-3 11-3 36-3 36-4 46-5 14-2 17-7 22-12 13-8 19-11 15-9 26-14 22-10 12-4zm-9 6-18 4-25 11-16 8-24 13-14 9-16 10-4 5 4 2h10l14-4 20-7 10-7 12-7 22-14 18-10 14-9 4-4zm109 18-2 1v4l6 2h9l7 3-1-3-10-5zm-23 10-2 4 4 7 6 2 1-1-1-7-4-5zm-14 2-5 2v5l8 4 5-1-1-7-1-3zm-94 9-21 7-6 4v3l5 2 15-5 8-6 2-5zm73 7-17 2-16 8-11 6-2 2v4l7-1 21-8 20-8 7-3-1-2zm19 6v14l-5-1v-11l-11 3-36 12-20 7-16 5-29 9-9 2-2 1 1 9 4 5 18 6 11 6 8 7 6 10 4 9v31l4 11v14l3 7 2-4 7 1 2-6 6 1 8 2 2 3h9l1-1 1-15 1-33 1-3-1-1v-31h8l5 2h9l2-7v-7l10 1 6-3v-8l-4 2-4 4h-6l-4-8 1-5 2-6-1-6 3-3v-10l2 1 1 9 3 4-2 6 6 7h3l2-9-2-5 3-1 1-14-3-8-5-5zm56 8 1 23 1 7 10-4 2-2-1-7-7-14-3-3zm-159 2-2 2 8 1 1-3zm-11 3 1 2zm1 2m170 23 1 2zm20 2-1 25-1 10 2 1 7-3 1-4v-16l-3-11-2-2zm-20 2-2 10-1 11 3 10 3 1 4-10 4-9-1-5-6-3zm-202 5-28 5-5 3-6 7-1 4 8-1 20-6 22-3-2-5-5-4zm-134 1-21 3h-50l-1 5h-2l-2-5-10-2h-8l1 7 10 13 12 8 15 14 7 10 6 12 6 22v2h-2l1 7 2 16-4 2 2 4 2 5v13l-1 14 1 11 4 1 44-3 19-2 11-6 3-4v-10l-2-4-10-2-2-6 1-4 5-2 1-1 15-1 9-3 1-2 2-40 2-6-2-5-24-13-7-3-4-11 11 1-1 9 14 8 6 2 4-14-1-4-7-6-9-2-14-1-20 1-20 4-34 12 2-5 8-8 27-18 10-7 2-4-2-2zm23 5-14 7-11 8v3l29-2 4-1 2-5 2 4-2 1 11 1-2-4-11-9-6-3zm31 0 4 8 8 10 6 5 7-6 9-9 3-4v-2zm-216 1-31 3-1 4 1 3h-2l-1-5-2-1-18 3-2 1 1 8 8 16 8 9 4 2 2-11 1 15 7 14 6 11 4 13v14l3 6 2 12v29l-2 5 1 12v10l1 1h5l1-3 3-1 40-3 12-2h14l4 1 2-5 9-3 2-2 1-7v-11l-3-2-9-3v-4l8-2 1-4 17-1 1-16 1-19v-8l1-6-3-10-8-16-7-11-7-9-5-6-8-6-16-5-23-4h-16l-1-6zm-74 8 4 5h2v2h2v-7zm380-1-21 3-18 6-17 8-7 5 2 5 7 11 5 12 2 10-1 5-1 4 1 8 2 2-2 8 2 4v23l-2 9-1 1-1 12h13l16-2 17-1 4-1 2-3h8l2-2v-13l-4-3-10-4-1-2v-6l2-4h12l1-3h12l3-6 1-7v-24l1-11 1-6-15-8-7-3-6-1-1-3 5 1 1 2 16 7 5 2 1-9 3-2-1-4-9-12-7-6-3-1zm201 7-1 7 3-1 1-3-1-3zm9 8-3 9 1 7 4 3h3l4-16v-2zm-91 4-1 1v18l1 10 5 1h8l1-11 2-3 2-10 2-5-9-1zm0 37-2 15 1 11 2 3 6-1 8-5 6-12-1-6-4-5zm-91 29 1 6h1v-5zm35 18-2 3v7l4 6h7l6-7-1-4-10-2-2-3zm53 40-5 7-1 6 3 9 5 4 5 1 1-1 1-19-2-6-1-1zm13 0-2 3v12l3 3 2 1h7l4-3v-13l-2-3zm-67 5 1 15 4 4 2 7 6-1 9-5 1-2v-17l-1-1-14 1-6 1zm-242 8 1 3h2l-1-3zm231 37 1 2zm206 54-6 10-5 5 9 4 10 4h3v-7l-6-8-4-8zm-38 14-7 1-33 4-5 1 2 10-2 13 8 5 11 5 10-1 29-4 27-2 16-4 3-1-1-3-11-4-34-15-10-5z" fill="#F0E6E2"/>
<path transform="translate(498,149)" d="m0 0h13l10 2 3-2h10l15 4 9 5 12 3 13 1 14 5 10 4 12 9 3 6 6 9 9 24 7 19 5 22 1 8v10l15-4 6-1 4 3 1 6-2 4-7 1-7-3-11-2v7l-4 17-3 5 5-2 12-1h10l7 4v8l-2 3h-9l-4-2-25-2-2 5-5 8h-2l-2 4-5 3-4 5h-6l4-10 7-6h2l1-4 3-3 1-6-4 1-2 7-8 5h-3l-2 5-4 9h-3v-2l-3 3-3 5-1 4 5 1 1 6 6 4-4 1-18 2-5-1-1-2v-7l4-4-1-1-5 5-6 9-8 1h-9l-10-2-1-3 11-2v-4l-3-1 4-1v-2l4-1 1-3 4-2 2 6 8-2 4-6h9v7l-1 2h6l-1-4 5-11 2-4 4-1 5-4 4-8 3-5-6 2-9 14-6 5-3 5-10-1 1-4 4-4 5-1 2-4 6-10 1-5-3 4-1 2h-2v2l-12 12-3 5-5 4-7-1 3-5 3-3h2l2-4h2l1-5 1-6-3-7-1 4-1 7h-22l-1-3h-8l1-2 11 1v-11l1-2 11-1 2-1v2l5 2 2 1-1-2 1-11 4-9 5-8 2-6-3 1-1-6 1-2 5 2h1l1-4h2v-6h-2v-3h-2l-1 6-3-1-3 5h-2l3-18-4-4-1-13-4-10-10-10-6-1 1 12-1 2-5-1v-11l-43 15-18 6-14 5-21 6-16 5-11 2 2 9 5 5 16 5 11 6 9 8 6 10 4 9v36h-2l-1-4-3-1-2-4v-5l4 1-1-14-3-6-3-9-6-9-8-7-4-2h-4l10 8 7 11 3 9v6l-1 3 1 2 1 14v31l-4-1v-36l-1-13-3-4-6-12-9-13-7-8-6-3-12-1-21 3-18 6-17 8-6 4 2 5 7 11 5 12 2 10-1 5-1 4 1 8 2 2-2 8 2 4v23l-2 9-5 1-4-1-3-9h2l1-14-7 1-3-9v-3l3-2-1-22-3-9-3-8-3-9-7-12-3-5-5-4-9-2-14-1-20 1-20 4-17 6-15 5h-2l1-5 9-9 36-24 2-4-1-1-13 1-14 2h-50l-1 4h-2l-2-5-18-2 3 9 8 10 12 8 15 14 8 11 6 12 6 22-1 2h-2l3 14v9l-3 2 2 4 2 5v13l-4 12h-5v-3l-4-1-2 1-2-4h-4v-17l5-3h2l1-4 6 1-3-5-1-7-2-1 6-4-1-1-1-11-6-21-7-14-3-2 7 14 5 18v6l-8 2-4-1-1 1-1 17h-1l-1-24 1-6-3-10-8-16-7-11-7-9-4-5-8-6-16-5-23-4-16-1-1-6-13 2-24 2v6h-2l-2-5-21 3 4 13 6 11 7 8 3 2 2-10 2-1 1 16 7 14 6 11 4 13v6l-1-2-3 3-4-4-6-14-1-1 1 7 2 10-5 2-3-9-6-17-7-14-12-17-11-12-30-20-5-4-1-3 6-3 39-4 22-2 1-5h1v5l71-1 37-3 11-3 36-3 36-4 46-5 14-2 17-7 22-12 13-8 19-11 15-9 26-14 22-10 12-4zm-9 6-18 4-25 11-16 8-24 13-14 9-16 10-4 5 4 2h10l14-4 20-7 10-7 12-7 22-14 18-10 14-9 4-4zm109 18-2 1v4l6 2h9l7 3-1-3-10-5zm-23 10-2 4 4 7 6 2 1-1-1-7-4-5zm-14 2-5 2v5l8 4 5-1-1-7-1-3zm-94 9-21 7-6 4v3l5 2 15-5 8-6 2-5zm73 7-17 2-16 8-11 6-2 2v4l7-1 21-8 20-8 7-3-1-2zm75 14 1 23 1 7 10-4 2-2-1-7-7-14-3-3zm-159 2-2 2 8 1 1-3zm-11 3 1 2zm1 2m170 23 1 2zm20 2-1 25-1 10 2 1 7-3 1-4v-16l-3-11-2-2zm-20 2-2 10-1 11 3 10 3 1 4-10 4-9-1-5-6-3zm-202 5-28 5-5 3-6 7-1 4 8-1 20-6 22-3-2-5-5-4zm-111 6-14 7-11 8v3l29-2 4-1 2-5 2 4-2 1 11 1-2-4-11-9-6-3zm31 0 4 8 8 10 6 5 7-6 9-9 3-4v-2zm-290 9 4 5h2v2h2v-7zm581 6-1 7 3-1 1-3-1-3zm9 8-3 9 1 7 4 3h3l4-16v-2z" fill="#403151"/>
<path transform="translate(498,149)" d="m0 0h13l10 2 3-2h10l15 4 9 5 12 3 13 1 14 5 10 4 12 9 3 6 6 9 9 24 7 19 5 22 1 8v10l15-4 6-1 4 3 1 6-2 4-7 1-7-3-11-2v7l-4 17-3 5 5-2 12-1h10l7 4v8l-2 3h-9l-4-2-25-2-2 5-5 8h-2l-2 4-5 3-4 5h-6l4-10 7-6h2l1-4 3-3 1-6-4 1-2 7-8 5h-3l-2 5-4 9h-3v-2l-3 3-3 5-1 4 5 1 1 6 6 4-4 1-18 2-5-1-1-2v-7l4-4-1-1-5 5-6 9-8 1h-9l-10-2-1-3 11-2v-4l-3-1 4-1v-2l4-1 1-3 4-2 2 6 8-2 4-6h9v7l-1 2h6l-1-4 5-11 2-4 4-1 5-4 4-8 3-5-6 2-9 14-6 5-3 5-10-1 1-4 4-4 5-1 2-4 6-10 1-5-3 4-1 2h-2v2l-12 12-3 5-5 4-7-1 3-5 3-3h2l2-4h2l1-5 1-6-3-7-1 4-1 7h-22l-1-3h-8l1-2 11 1v-11l1-2 11-1 2-1v2l5 2 2 1-1-2 1-11 4-9 5-8 2-6-3 1-1-6 1-2 5 2h1l1-4h2v-6h-2v-3h-2l-1 6-3-1-3 5h-2l3-18-4-4-1-16 3 2 1 2 3 1 1 5 3-2 1-4-9-16-5-7-2-5-4-5-2-1-2-10-8 1v-2l2-2-9-1-2-3-3-1v3l-2 1v6l-1 3-7 1-6 1-3-1h-24l-12-2-1-1-7 3-16 8 1-4-12 3-13 5-4 4 4 3-18 5-9 3-11 2v-3h-6v2l-9 2-21 3-5 1-3 1-3-1-4 2-1-1-9 1h-10l3-2 19-9 17-10 24-14 20-12 26-14 22-10 12-4zm-9 6-18 4-25 11-16 8-24 13-14 9-16 10-4 5 4 2h10l14-4 20-7 10-7 12-7 22-14 18-10 14-9 4-4zm109 18-2 1v4l6 2h9l7 3-1-3-10-5zm-23 10-2 4 4 7 6 2 1-1-1-7-4-5zm40 32 1 23 1 7 10-4 2-2-1-7-7-14-3-3zm1 30 1 2zm20 2-1 25-1 10 2 1 7-3 1-4v-16l-3-11-2-2zm-20 2-2 10-1 11 3 10 3 1 4-10 4-9-1-5-6-3zm9 26-1 7 3-1 1-3-1-3zm9 8-3 9 1 7 4 3h3l4-16v-2z" fill="#5F3141"/>
<path transform="translate(526,442)" d="m0 0 5 1 7 1 5 3-1 3-8-1-11-1v3l5 1 2 3-7 2-3 1 3 6 4 1v2h2v2l5 1 4 3 13 5 8 10 1 10-2 10v6l9 6v2h12l9 2 1-2 5 1 2-4 8-2 15-2v-2l-1-11h5l1 2v8l-1 1h4v-12h4l1 11h4l-1-11 4-1 1 12h4l-1-12 4-1 1 12 4-1-1-4v-8l5 1 1 11 8-2h4l-2-5-3-5v-3l-2-1 2-4 6-1h19l1 4 4 1 9 2 6 1-2 1v6l-4 4h-3l3 6 3 14v8l-2 4 1 4 20 9 23 10 24 11 27 12 1 1v10l-9-3-32-15-20-9-19-9-8-1-12 2-16 2-46 8h-4l2 4 22 12 24 12 20 11 23 11 15 8 26 12 10 6 24 13v15l-6-2-16-9-14-7-46-25-16-9-39-20-22-12-23-12-39-20-36-18-19-7-24-12-13-8-5-4-19-9-32-16-8-5 1-4 16-2 12-2 31-2-3 3-3-1v2l-17 4-16 1-2 1 32 16 10 4v-32l-7-2 2-2 1-17 16-1-1 2-8 3-1 5 2 2h13l5-2 4-1-1-3-6-3v-2l-4-1v-3l26-1zm155 73-6 10-5 5 9 4 10 4h3v-7l-6-8-4-8zm-38 14-7 1-33 4-5 1 2 10-2 13 8 5 11 5 10-1 29-4 27-2 16-4 3-1-1-3-11-4-34-15-10-5z" fill="#4B4347"/>
<path transform="translate(88,333)" d="m0 0 3 2 7 16h3l2-1 1 3v7l3 6 2 12v29l-2 5 1 12v10h8l19-2h24l7-2h14l11 1 2-1v2l4-1v2l-15 3-40 4h-31l-2 1 1 5 4 1v2l-4 2-1 13 2 3v6l-1 1 3 21v7l-5 11-2 10-1 18-2 11-4-4-2-6v-10l1-5-4-7-1-1-1-10-7-1-1 4h-6l-1-3 3-3-6-4-4-6-5-4-3-6v-4l4 2 3 4 3-1 3-7-1-8h2v-6l-4-2-6-1 1 8-3 2-4-1-1-1v-23l-5 1-2 4-10 2-5-2-2-8 1-5 11-3 12-3 7-4 2-6 2-14 1-6-4 1 1 1v6l-4 1-7-5-1-5 8-5 5-5 2-4 8-1 1-12 1-23 2-12 2 3 2 8 5-1-4-13z" fill="#EDE3DE"/>
<path transform="translate(200,241)" d="m0 0 2 1 11 1 4 2 3-1 7 2-4 1-8 1-2 6h-1l1-8h-11l-3-1v2l-5 2-3 3h-3l-3 1-1 3h-1v2l3 1 6 10 5 6 12 8 15 14 8 11 6 12 6 22-1 2h-2l3 14v9l-3 2 2 4 2 5v13l-4 12h-5v-3l-4-1-2 1-2-4h-4v-17l5-3h2l1-4 6 1-3-5-1-7-2-1 6-4-1-1-1-11-6-21-7-14-3-2 7 14 5 18v6l-8 2-4-1-1 1-1 17h-1l-1-24 1-6-3-10-8-16-7-11-7-9-4-5-8-6-16-5-23-4-16-1-1-6-13 2-24 2v6h-2l-2-5-21 3 4 13 6 11 7 8 3 2 2-10 2-1 1 16 7 14 6 11 4 13v6l-1-2-3 3-4-4-6-14-1-1 1 7 2 10-5 2-3-9-6-17-7-14-12-17-11-12-30-20-5-4-1-3 6-3 39-4 22-2 1-5h1v5l71-1 37-3zm-156 28 4 5h2v2h2v-7z" fill="#534B4F"/>
<path transform="translate(507,475)" d="m0 0 7 1 16 8 9 6 6 3 4 10 4 16-1 3h-2v2l-5 1-1 5 19 10 18 8 6 3v2l6 1 1-6 2-9h4l1 6-2 13 18 9 10-1 29-4 27-2 16-4h3l-3-3-9-3-34-15-7-4v-2l19-1 3 2 20 8 4 1 1-12 3-5 1-6 2 3h2l2 9v8l-2 4 1 4 20 9 23 10 24 11 27 12 1 1v10l-9-3-32-15-20-9-19-9-8-1-12 2-16 2-46 8h-4l2 4 22 12 24 12 20 11 23 11 15 8 26 12 10 6 24 13v15l-6-2-16-9-14-7-46-25-16-9-39-20-22-12-23-12-39-20-36-18-3-1v-2l-2-1 2-1 1-4-1-8-1-31-8-5-16-8-7-4z" fill="#100C10"/>
<path transform="translate(325,234)" d="m0 0h1l1 15 24-1 26-3 19-4h13l15 9 7 3 5 8 18 6 11 6 9 8 6 10 4 9v36h-2l-1-4-3-1-2-4v-5l4 1-1-14-3-6-3-9-6-9-8-7-4-2h-4l10 8 7 11 3 9v6l-1 3 1 2 1 14v31l-4-1v-36l-1-13-3-4-6-12-9-13-7-8-6-3-12-1-21 3-18 6-17 8-6 4 2 5 7 11 5 12 2 10-1 5-1 4 1 8 2 2-2 8 2 4v23l-2 9-5 1-4-1-3-9h2l1-14-7 1-3-9v-3l3-2-1-22-3-9-3-8-3-9-7-12-3-5-5-4-9-2v-1h5v-3l-11-3 3-1-5-6-2-1v-5l5 2-1-4 2-3-7-1-2-3-4-1-7-3-4 1 5 2 1 5-6-1-2-2v-3h-7l3-3 3-2h6v-3l9 1 9 4 4-1zm89 20-28 5-5 3-6 7-1 4 8-1 20-6 22-3-2-5-5-4zm-80 6 4 8 8 10 6 5 7-6 9-9 3-4v-2z" fill="#423450"/>
<path transform="translate(712,344)" d="m0 0 53 1 5 3 6 9 3 10 1 7v9l-3 12-6 7-8 3-29 6-22 2-7-6-7-13 1-5 11-9 4-3h2v-3l-19-1-1-1v-8l3-9 6-7z" fill="#4A4346"/>
<path transform="translate(387,224)" d="m0 0 8 1v1l-19 5-8 1-1 1-22 3-17 1-1 7h-1l-2 6-4 1-12-5-6-1v3l-7 3 4 6 6 2-1-5-6-2 4-2 5 1v2l3-1 2 2 8 4 3 1-1 5v3l-4-1-2 2-5-4-6-3-9 3-16 10-2 3 33-2 1-5h3v4l14 4 3 2v3h-19l-20 1-20 4-17 6-15 5h-2l1-5 9-9 36-24 2-4-1-1-13 1-14 2h-50l-1 4h-2l-2-5-18-2-1 3-3-3 3-3 2-1-1-2 5 1 4-4h4v-2l14 1v7l2-6 10-1-6-1-5 1-1-2-11-1-1-2 56-5 51-6 21-2-1 3h16v2h2l1-2 2-1 15-2 9-2z" fill="#412D4C"/>
<path transform="translate(670,489)" d="m0 0h19l1 4 4 1 9 2 6 1-2 1v6l-4 4h-3l3 6-1 8-4 2-3 15-4-1v-7l-6-8-3-7-2 1-3 7-7 6-3-1h-18l-1 2-5-1-7 1-33 4h-5l1 4h-3l-1 9-1 7-7-2v-2l-9-3-33-16-2-3 3-1 14 7 3 1 2-13 1-1h13l9 2 1-2 5 1 2-4 8-2 15-2v-2l-1-11h5l1 2v8l-1 1h4v-12h4l1 11h4l-1-11 4-1 1 12h4l-1-12 4-1 1 12 4-1-1-4v-8l5 1 1 11 8-2h4l-2-5-3-5v-3l-2-1 2-4z" fill="#494246"/>
<path transform="translate(200,241)" d="m0 0 2 1 11 1 4 2 3-1 7 2-4 1-8 1-2 6h-1l1-8h-11l-3-1v2l-5 2-3 3h-3l-3 1-1 3h-1v2l3 1 6 10 5 6 12 8 15 14 8 11 6 12 6 22-1 2h-2l3 14v9l-3 2 2 4 2 5v13l-4 12h-5v-3l-4-1-2 1-2-4h-4v-17l5-3h2l1-4 6 1-3-5-1-7-2-1 6-4-1-1-1-11-6-21-7-14-3-2 7 14 5 18v6l-8 2-4-1-1 1-1 17h-1l-1-24 1-6-3-10-8-16-7-11-7-9-4-5-8-6-16-5-23-4-16-1-1-5 12-3 11-2 5-2 7-2-1-5h-6v-1l37-3z" fill="#585054"/>
<path transform="translate(586,185)" d="m0 0 2 1 2 6 4 6 3 3-1 3h-3l2 9 3 9h2l1-2 2 9h2l2 8 2-1 1 17v-27l1-7h3 1l1 5v20l-2 26v12l-2 22 1-1 1-10 2-5 2 2 3-7 1 4-4 15v6l7-21 3-11 3 1 3-1v3h-2l-1 11v8l-4 1 1 3-3 2-2 10-4 5 2 1v2h-2l-1 4-4 2h-3l-2 5-4 9h-3v-2l-3 3-3 5-1 4 5 1 1 6 6 4-4 1-18 2-5-1-1-2v-7l4-4-1-1-5 5-6 9-8 1h-9l-10-2-1-3 11-2v-4l-3-1 4-1v-2l4-1 1-3 4-2 2 6 8-2 4-6h9v7l-1 2h6l-1-4 5-11 2-4 4-1 5-4 4-8 3-5-6 2-9 14-6 5-3 5-10-1 1-4 4-4 5-1 2-4 6-10 1-5h-6l2-1v-5l-7 1 2-7 1-3 7-4h2v9l-1 6 4-6 4-2 1-7h-1l-1-16-1-7v-8l-3-12-1-1-3-15-5-10-5-6-6-13-2-5 1-4 2-1v-9z" fill="#40314F"/>
<path transform="translate(700,516)" d="m0 0 2 3h2l2 9v8l-2 4 1 4 20 9 23 10 24 11 27 12 1 1v10l-9-3-32-15-20-9-19-9-8-1-12 2-16 2-46 8h-4l2 4 18 10v3l-13-3-11-5v-3l4 1v-4l-9-3-5-4 12-3 36-4 21-2 10-3h3l-3-3-9-3-34-15-7-4v-2l19-1 3 2 20 8 4 1 1-12 3-5z" fill="#130F13"/>
<path transform="translate(571,215)" d="m0 0 4 2 4 8 1 3 1 13 4 4-2 14-2 4h2l2-5 4-1 1-4h2v3h2v6l-2 1v5l-7-4 1 7h2l-2 8-4 6-4 9-1 11v2l-5-2-3-2-1 1h-10l2-11 3-5-22-1v-2l-10 1-3 1v-11l5-1 7 1 2 1 9 1 2-14 5-1 5 1 5-2 1-8-5 5-3 2h-6l-4-6-1-7 2-2 1-7-1-4 2-3h2v-10l3 1 1 9 3 4-2 6 5 6 3 1 1-9-2-5 4-1v-14z" fill="#4A4246"/>
<path transform="translate(614,177)" d="m0 0 5 3 3 6 6 9 9 24 7 19 5 22 1 8v10l15-4 6-1 4 3 1 6-2 4-7 1-7-3-11-2v7l-4 17-3 5 5-2 12-1h10l7 4v8l-2 3h-9l-4-2-25-2-2 5-5 8h-2l-2 4-5 3-4 5h-6l4-10 7-6h2l1-4 3-3 1-6-4 1-2 7-3 1v-2h2v-2l-3-1 4-5 2-10 3-3v-2l5-2 4 4 3 1 3-16 1-2h-8l1-2 6-2 1-4v-16l-5-17-4-8-3-9-3-6v-4h-2l-9-15-2-6-3-6-11-8-3-3 9 1 7 1 3 1-4-3z" fill="#413350"/>
<path transform="translate(570,374)" d="m0 0h11v7l-1 3 1 6 1 3 2 1 1 9 5-1-2 4-3 3-1 3v19l4 1 1 12-5 3h-13l-8-3v5l-9-1-7-6 1-24-2-6-3-1v-3l4-1v-7l-9-1-2-7 2-2h4l2-4 5 1 4 3 6 1 2-5h2v-2l3-1 2-7h2zm-17 37-2 3v12l3 3 2 1h7l4-3v-13l-2-3z" fill="#4C4549"/>
<path transform="translate(579,225)" d="m0 0 3 2 1 2 3 1 1 5 3-2 1-2h2l4 9 6 24 1 12 2-1 1 2 1 15 1 4-2 5-4 1-2 5-3 2 2-16-6 4h-3l-1 4-1 5 4-1 2 1v5l2 1-2 6h-2v2l-12 12-3 5-5 4-7-1 3-5 3-3h2l2-4h2l1-5 1-6-3-7-1 4-1 7h-22l-1-3h-8l1-2 11 1v-11l1-2 11-1 2-1v2l5 2 2 1-1-2 1-11 4-9 5-8 2-6-3 1-1-6 1-2 5 2h1l1-4h2v-6h-2v-3h-2l-1 6-3-1-3 5h-2l3-18-4-4z" fill="#484045"/>
<path transform="translate(348,327)" d="m0 0 3 1 1 11 1 59 7 5v8l1 3 2 1v-8l-1-5 5-3 1 1v10l1 3 1 25 2-1 1 6-2 9-2 5h2l1-3 2 4-5 4 1 4-7-1v-2l-7-1-10-2-3 1-3-2-4 1v-6h3l-2-1 1-4 2-2-1-10-4-1-4 1-3-1v-8l4 1 4 2 7 1 2-6-8-1-1-5 6-3 2-4h3l2 5 2 1v-6l-3-1-1-33v-50z" fill="#4A4246"/>
<path transform="translate(526,442)" d="m0 0 5 1 7 1 5 3-1 3-8-1-11-1v3l5 1 2 3-7 2-3 1 3 6 4 1v2h2v2l5 1 4 3 13 5 8 10 1 10-2 10v6l9 6-3 17-13-5-7-4 1-4h5v-2h2l-1-7-2-18-2-7-8-4-5-4-10-4-8-4-15-2-9-2h-5l-1 9h-1l-1-10-7-2 2-2 1-17 16-1-1 2-8 3-1 5 2 2h13l5-2 4-1-1-3-6-3v-2l-4-1v-3l26-1z" fill="#484145"/>
<path transform="translate(474,371)" d="m0 0 1 2h2l2 5 4 8 1 13v38l-13-1-3 1 1 3-3 5-4 4-1 5-6 4-4-2-7-9-2-1v-2h5l5-14 8-2 6-1v-2h-14l-1-5-3-3 1-2h6l2-4 5 2 1-4-15-2 1-7 4 2 4-4 6 1 2-4h2l1-22h3l1 9 1 34 1 5h1v-43z" fill="#484145"/>
<path transform="translate(425,261)" d="m0 0 13 1 16 5 11 6 9 8 6 10 4 9v36h-2l-1-4-3-1-2-4v-5l4 1-1-14-3-6-3-9-6-9-8-7-4-2h-4l10 8 7 11 3 9v6l-1 3 1 2 1 14v31l-4-1v-36l-1-13-3-4-6-12-9-13-7-8-6-3-12-1-21 3-18 6-17 8-5 3h-3l-2-5 13-7h2v-2l12-5 17-5 12-2h11z" fill="#4B4146"/>
<path transform="translate(194,278)" d="m0 0h3v3l3-1 8 2 16 15 8 11 6 12 6 22-1 2h-2l3 14v9l-3 2 2 4 2 5v13l-4 12h-5v-3l-4-1-2 1-2-4h-4v-17l5-3h2l1-4 6 1-3-5-1-7-2-1 6-4-1-1-1-11-6-21-7-14-3-2 7 14 5 18v5l-3-1-8-24-2-3v-4h-2l-8-12-9-13v-2h-2l-4-5z" fill="#463037"/>
<path transform="translate(498,149)" d="m0 0h13l10 2 3-2h10l15 4 1 4-1-2h-4l2 1v2l-12-1-6-3-18 6-14 7 23-9h7l2 1v2l-6 3 2 1 1-2 3 3-13 1-10 4-6 4-20 8h-3l-7 2 2-5 5-3 4-2h3v-2l-6 1-4 1v2l-6 3-11 4h-2l-1 2v-3l21-12 20-12 4-3h-10l-18 4-25 11-16 8-24 13-12 8h-2l-1-4 22-13 23-13 23-11 16-6 15-3z" fill="#1D181C"/>
<path transform="translate(626,315)" d="m0 0h2v6l-4 4-1 3-9 7-3 8 5 1 2-4 4-4 4-2 2-2 4 12 4 1 3-1 1 6 19-5h12l3 3 5 1v2h-3l-1 7-1 1-14 1h-8l-3-3-11-2-5 2-3 3-9 2h-6l-2-1v2h-7l-6-4-1-6-4-1 1-6 4-6 4 1 7-13 10-5 3-7z" fill="#484044"/>
<path transform="translate(726,360)" d="m0 0 2 2 3 10 2 15v5l6 2 16 3v4h-2l-5 6h-3v2l-21 3-12 1-7-6-3-5-1-11 10-4 4-1 2-7v-6l-4-1 4-4 7-1 2-4z" fill="#392D2F"/>
<path transform="translate(628,276)" d="m0 0 3 1 3-1v3h-2l-1 11v8l-4 1 1 3-3 2-2 10-4 5 2 1v2h-2l-1 4-4 2h-3l-2 5-4 9h-3v-2l-3 3-3 5-1 4 5 1 1 6 6 4-4 1-18 2-5-1-1-2v-7l4-4-1-1-5 5-6 9-8 1h-9l-10-2-1-3 11-2v-4l-3-1 4-1v-2l4-1 1-3 4-2 2 6 8-2 4-6h9v7l-1 2h6l-1-4 5-11 2-4 4-1 5-4 4-8 2-3-1-10h2l1 7h2v-2h2l2-13 5-16z" fill="#474044"/>
<path transform="translate(290,260)" d="m0 0h6l2 1v2l-12 7-8 6 4 1 7-1 22-1 1-5h3v4l14 4 3 2v3h-19l-20 1-20 4-17 6-15 5h-2l1-5 9-9 36-24z" fill="#3B2F32"/>
<path transform="translate(631,297)" d="m0 0 5 4 3 1 2-4h5l-1 8-3 5 5-2 12-1h10l7 4v8l-2 3h-9l-4-2-25-2-2 5-5 8h-2l-2 4-5 3-4 5h-6l4-10 7-6h2l1-4 3-3 1-6-4 1-2 7-3 1v-2h2v-2l-3-1 4-5 2-10 3-3v-2z" fill="#41354B"/>
<path transform="translate(556,222)" d="m0 0 3 1 1 9 3 4-2 6 5 6 3 1 1-7h1v22l-1 1-1 7 3 1-1 5-4 6-7 2-8 1h-11v-2l-10 1-3 1v-11l5-1 7 1 2 1 9 1 2-14 5-1 5 1 5-2 1-8-5 5-3 2h-6l-4-6-1-7 2-2 1-7-1-4 2-3h2z" fill="#ECE3DE"/>
<path transform="translate(615,205)" d="m0 0 5 5 5 8 3-2 4 10 2 4 1 5 4 8 1 5-4-1v25l-1 11-3 9-2-3 2-10h2l-1-2-3 1v-2h-2l-1 2v-3h-2l-1 7 3-1-3 13-5 14-2 1v-7l4-16-3 5-2-1-3 15-2-1 3-31h1l2 7 2 1 3-10 4-9v-4l-6-3-4-3h-1v-8l1-6h1l1 6 10-5-1-7-9-18h-2zm1 40 1 2z" fill="#43334D"/>
<path transform="translate(63,292)" d="m0 0 4 1 4 2v2l3-1 8 7 2-10 2-1 1 16 7 14 6 11 4 13v6l-1-2-3 3-4-4-6-14-1-1 1 7 2 10-5 2-3-9-6-17-7-14-12-17v-3z" fill="#5D3442"/>
<path transform="translate(199,245)" d="m0 0 14 1v7l1-5 14-1 2-1 13-1h13v1h-5v2l23 2 1 3 2 1-1 2-17 3h-50l-1 4h-2l-2-5-18-2-1 3-3-3 3-3 2-1-1-2 5 1 4-4h4z" fill="#3D2D4D"/>
<path transform="translate(364,314)" d="m0 0h2l4 11 2 8 3-2 3 1-2 5 1 8 2 2-2 8 2 4v23l-2 9-5 1-4-1-3-9h2l1-14-7 1-3-9v-3l3-2 1-7v-15l1-1v-17z" fill="#5D5457"/>
<path transform="translate(338,281)" d="m0 0 10 2 5 3 4 2 3 2v2h2l9 14 5 12 2 13-6 2-4-11-2-8-2 1v17l-1 1v15l-2-1-1-14-3-9-3-8-3-9-7-12-3-5-4-3z" fill="#382B2E"/>
<path transform="translate(579,225)" d="m0 0 3 2 1 2 3 1 1 5 3-2 1-2h2l4 9 6 24 1 12 2-1 1 2 1 15 1 4-2 5-4 1-2 5-3 2 2-16h-2l-3-5-1-15 1-6-4-1 1-4h2v-6h-2v-3h-2l-1 6-3-1-3 5h-2l3-18-4-4z" fill="#3E2F4D"/>
<path transform="translate(406,243)" d="m0 0 10 6 7 4 6 6h-7l-5-4-21 3-13 3-4 3v-2l-6 1v-2l-4 1-3-2-15-2-4-2-5-1v-1l8-2 12 1 5-2 20-5 6-2h11l2 1z" fill="#382C2F"/>
<path transform="translate(234,332)" d="m0 0 2 3 2 7 2 1v-2h2l1-3 1 4-1 2h-2l3 14v9l-3 2 2 4 2 5v13l-4 12h-5v-3l-4-1-2 1-2-4h-4v-17l5-3h2l1-4 6 1-3-5-1-7-2-1 6-4-1-1-1-11-2-8z" fill="#564E51"/>
<path transform="translate(487,469)" d="m0 0 11 1 3 1 15 2 8 4 11 5 5 4 8 4 3 12v9l-2-2-4-16-6-2-11-7-17-8h-3l7 4 12 6 11 6 1 2-5-1-5-3-17-7-3-2h-6l-2 3-1 7-2 6-3-1v-10l-2 1-1 9-3-2v2h-2v-2h-2v-15l1-9z" fill="#392D2F"/>
<path transform="translate(318,229)" d="m0 0 4 1-5 2-8 1-4 2h-4v3h-29l-10 3-1 1 5 1v2l-3 1 25 2-4 2-2-1v2l-23-1-9-1 1-3-21 1-2 1h-13v-1l10-1-6-1-5 1-1-2-11-1-1-2 56-5 51-6z" fill="#403050"/>
<path transform="translate(95,367)" d="m0 0h2l2 13 2-5 2 1 2 6h3l1 8v17l-1 4-12 2-8 2-1-15 1-1v-30h1l1 6h1l2 16 1-3-1-13 1-1z" fill="#4A4347"/>
<path transform="translate(662,401)" d="m0 0h12l11 3 6 4 5 5 8 10 10 18 8 14 3 5-1 3-7-8-9-15-9-16-9-10-8-5-12-2-11 1-6 5-3 15h-5l-1 17-2 4h-3l2-23 8-17 6-5z" fill="#211C1F"/>
<path transform="translate(92,419)" d="m0 0 5 1 3 5 1 22 3 9 1 2v4 27l-4 4-5-4-2-26-1-17-3-16-1-1v-6h2z" fill="#484145"/>
<path transform="translate(549,431)" d="m0 0 39 1 1 12-5 3h-13l-8-3v5l-9-1-3-3-2-4z" fill="#382C2E"/>
<path transform="translate(387,236)" d="m0 0h6l7 1 9 2 6 3 1 3-6-2-1-1h-13l-19 4-26 3h-14l-8-2 2-4 4-1 24-3 15-2h8z" fill="#5C2B3D"/>
<path transform="translate(142,248)" d="m0 0h16l2 5-2 2-17 3h-18l-30-2-2-1-1-4 2-2h21z" fill="#0B080C"/>
<path transform="translate(498,149)" d="m0 0h9l3 3-7 2h-14v2l-18 4-25 11-16 8-24 13-12 8h-2l-1-4 22-13 23-13 23-11 16-6 15-3z" fill="#171216"/>
<path transform="translate(610,275)" d="m0 0h1l1 16-4 20-3 5v3l-4 9-5 6-5 5-1 2-10-1 1-4 4-4 5-1 2-4 6-10 1-5h-6l2-1v-5l-7 1 2-7 1-3 7-4h2v9l-1 6 4-6 4-2 1-7h-1v-5l1-1v-8z" fill="#3F314C"/>
<path transform="translate(428,403)" d="m0 0h2l3 3h3l5 6 2 2 1 8-3 3 3 2h-6l-2-1v-2l-9-1-3-1v-6h-13l-14 1h-5v-3h-3l1-3 10-1 5 1 5-2 14-2z" fill="#4D464A"/>
<path transform="translate(452,312)" d="m0 0 4 1 3 1 1 7 1 39 2 25v7l-1 1h-6l-2-46-3-16z" fill="#4A4347"/>
<path transform="translate(232,415)" d="m0 0 5 1 1 7 1 4-2 9h2v2h-2l2 5v15l1 13 1 7-2 5h-6l-2-7-1-8 1-3v-34l-1-6 1-9z" fill="#484145"/>
<path transform="translate(166,430)" d="m0 0h14l11 1 2-1v2l4-1v2l-15 3-40 4h-29l-1-4 4-2 19-2h24z" fill="#484145"/>
<path transform="translate(683,560)" d="m0 0h10l7 1v1l-16 2-46 8h-4l2 4 18 10v3l-13-3-11-5v-3l4 1v-4l-9-3-5-4 12-3 36-4z" fill="#1C171B"/>
<path transform="translate(442,267)" d="m0 0h8l8 2 11 7 8 9 7 15v36h-2l-1-4-3-1-2-4v-5l4 1-1-14-3-6-3-9-6-9-8-7-4-2-4-4-5-1-4-2z" fill="#0D0A0E"/>
<path transform="translate(590,253)" d="m0 0h2v3h2v6l-2 1v5l-7-4 1 7h2l-2 8-4 6-4 9-1 11v2l-5-2-3-2-1 1h-10l2-11 4-4 1 5 6 2 2-10 4-7 5-16 4-6h3z" fill="#F0E6E1"/>
<path transform="translate(626,315)" d="m0 0h2v6l-4 4-1 3-9 7-3 8 5 1 2-4 4-4 4-2 2-2 4 12 4 2v2l-9-3-3-3-5 3v7l2 4h-5v-6l-2 1h-9l-2-5h-1l-1 6h2v2h-2v2h-2v-3l-4-1 1-6 4-6 4 1 7-13 10-5 3-7z" fill="#F2E8E3"/>
<path transform="translate(418,264)" d="m0 0h17l6 3-3 1-14 1-21 3-18 6-17 8-5 3h-3l-2-5 13-7h2v-2l12-5 17-5h7l1 1z" fill="#161216"/>
<path transform="translate(520,158)" d="m0 0h7l2 1v2l-6 3 2 1 1-2 3 3-13 1-10 4-6 4-20 8h-3l-7 2 2-5 5-3 4-2h3v-2h-2v-2l21-10 3 1-9 5z" fill="#3C2C33"/>
<path transform="translate(637,344)" d="m0 0h2l1 6 19-5h12l3 3 5 1v2h-3l-1 7-1 1-14 1h-8l-3-3-11-2-2-1 1-7z" fill="#F2E8E3"/>
<path transform="translate(507,388)" d="m0 0h1l3 23-2 5-15 2-6 1v-29l2 4v6l6-1 8-1 2-6z" fill="#4E474B"/>
<path transform="translate(70,249)" d="m0 0 16 1 1 4-7 2-22 1-1 1-11 1h-22l-8-2 4-3 25-3z" fill="#141016"/>
<path transform="translate(207,302)" d="m0 0 5 1 5 7v2h2l5 13 3 10 3 8 2 2-8 2-4-1-1 1-1 17h-1l-1-24 1-6-3-10-7-14z" fill="#60585B"/>
<path transform="translate(659,308)" d="m0 0h10l7 4v8l-2 3h-9l-4-2-20-2-2-2 3-6 5-2z" fill="#F2E8E3"/>
<path transform="translate(290,246)" d="m0 0 10 1-2 3-3 2 6 6 4 1-1-5-6-2 4-2 5 1v2l3-1 2 2 8 4 3 1-1 5v3l-4-1-2 2-5-4-6-3-7 2v-2h-12l1-4-1-1h-10l-3-2 2-1-1-3h6l2 1v-2l6-1z" fill="#623142"/>
<path transform="translate(325,234)" d="m0 0h1l1 15 24-1 26-3 19-4h13l15 9 7 3 5 9-11-1-1 2-1-4 5-1-5-3v-2l-14-7-2-2-3 1h-13l-11 4-16 2-25 1h-14l-1-3z" fill="#F2E8E3"/>
<path transform="translate(80,315)" d="m0 0 1 2 5-1h5l9 17 4 13v6l-1-2-3 3-4-4-6-14-1-3-7 2 1-6-2-1-2-8h3l-2-1z" fill="#4D3C43"/>
<path transform="translate(162,255)" d="m0 0 3 2 2 5 4 5 3 5v2l-10-2-23-4-16-1v-2l15-5 18-2 4-1z" fill="#493F44"/>
<path transform="translate(371,261)" d="m0 0 3 1 3-1 2 1-1 4-4 7 3 1-4 1v2l-14 7 1 5 2 1-2 2v-2l-4-2-7-3-8-3-4 1-1 3-9-2v-1h5v-3l-11-3v-1h12l5 2h9l5 4 7-6 8-8z" fill="#3C3134"/>
<path transform="translate(313,269)" d="m0 0 2 1v4l14 4 3 2v3h-19l-20 1-11 2h-12v-2l5-3 2 1v-2h4v2l7-4 19-3h4l1-5z" fill="#241F23"/>
<path transform="translate(387,224)" d="m0 0 8 1v1l-19 5-8 1-1 1-22 3-17 1-1 7h-1v-10l-5 1v-2l-9 3-10 3h-14v-1h13l-1-4h7l2-2 9-1 9-3h2l-1 3h16v2h2l1-2 2-1 15-2 9-2z" fill="#5D2B3D"/>
<path transform="translate(614,177)" d="m0 0 5 3 3 6 6 9 12 32-3-1-3-2-3-7-8-16-9-10-7-6-9-6 2-1 14 2 3 1-4-3z" fill="#645C5F"/>
<path transform="translate(556,222)" d="m0 0 3 1 1 9 3 4-2 6 6 7-2 9-4 3h-6l-4-6-1-7 2-2 1-7-1-4 2-3h2z" fill="#2B2629"/>
<path transform="translate(406,243)" d="m0 0 10 6 7 4 6 6h-7l-5-4-21 3-10 1 2-6 3-1 1-3h4v-2h-9l4-3h13l2 1z" fill="#5C3141"/>
<path transform="translate(566,522)" d="m0 0 2 1 2 9v4l-1 3h10l3-2 2-6 4 1 1 10-3 3 2 4 1 3-7-2-14-7-23-11-2-3 3-1 14 7 3 1 2-13z" fill="#F2E8E3"/>
<path transform="translate(348,327)" d="m0 0 3 1 1 11v44l-1 27-1 2h-2l-1-33v-50z" fill="#453C40"/>
<path transform="translate(88,369)" d="m0 0h1l1 6h1l2 16 3-3 1-6 2 2 1 8v17l-4 4-8 2-1-15 1-1z" fill="#554D51"/>
<path transform="translate(628,276)" d="m0 0 3 1 3-1v3h-2l-1 11v8l-4 1 1 3-3 2-2 10-4 5 2 1v2h-2l-1 4-4 2h-4l1-8 2-3-1-10h2l1 7h2v-2h2l2-13 5-16z" fill="#3D303F"/>
<path transform="translate(403,216)" d="m0 0h6l-1 3-16 5-16 3-6 1-10 2-11 1-5 2v-2l-6 1h-11l2-4 3-1 13-1 9-1 2 1 4-2h3l19-3 13-2h5v-2z" fill="#402E4F"/>
<path transform="translate(501,356)" d="m0 0 4 2v-2h5l1 2 4 1 1 1-1 7-4 3-3-1-2-4-4 2-1 9h-8l-3-2v-9l2-6 3-1 6 1z" fill="#50494D"/>
<path transform="translate(318,372)" d="m0 0h21v8l-3 3-5-1h-7l-3 6-8-1-3-5 2-6z" fill="#5A5255"/>
<path transform="translate(224,442)" d="m0 0h2l1 4 1 27-1 2h-5l-7-3-2-4 1-4 7-1 1-2 2 1v-5h-4v2l-3 1-2-4-1-3-8-2v-2h8l9 2v-3h-3l-1 2-1-2 1-4 3 1v2h2z" fill="#474044"/>
<path transform="translate(632,369)" d="m0 0 4 4 1 3-21 3-20 2h-4v-2h-3l-1-5 2-1 36-2z" fill="#FDFDFD"/>
<path transform="translate(199,245)" d="m0 0 14 1v7l1 4-5 2-1 4h-2l-2-5-18-2-1 3-3-3 3-3 2-1-1-2 5 1 4-4h4z" fill="#493853"/>
<path transform="translate(290,260)" d="m0 0h6l2 1v2l-12 7-8 6-10 4-12 6h-2l2-4 5-5 24-16z" fill="#1C171B"/>
<path transform="translate(424,477)" d="m0 0h3l1 3 2-1 11 4v2l7 1 6 4 10 6 3 4 3 1v2h2l1 3-6-2-16-8-19-9-9-6z" fill="#100D11"/>
<path transform="translate(440,363)" d="m0 0 10 1-1 7-2 1h-7l-2-2-6 4-1 5-9-3-2-3v-6l7-3z" fill="#4C4549"/>
<path transform="translate(341,289)" d="m0 0 4 2 6 6v3l2 1v3l4 2 3 4 1 2 1-3 4 2 1 3-3 1v17l-1 1v15l-2-1-1-14-3-9-3-8-3-9-7-12z" fill="#483C41"/>
<path transform="translate(529,153)" d="m0 0 7 3 5 2 3 2 10 3 6 3 7 5-1 2-10-4-5-3-9-4-11 1v2h-8l-1-2 7-2v-2h-9l-23 9-3-1 17-8 10-3z" fill="#5F3242"/>
<path transform="translate(194,278)" d="m0 0h3v3l3-1 8 2 9 8-2 2v5l5 7h-3l1 5h-3l-9-13-6-9v-2h-2l-4-5z" fill="#5F2D3E"/>
<path transform="translate(479,471)" d="m0 0 4 1-4 2-2-1v2l-17 4-16 1-2 1 3 3-9-2-6-2h-3v-3l25-4z" fill="#51494C"/>
<path transform="translate(364,314)" d="m0 0h2l4 11 2 8 3-2 3 1-4 4-2 9-4 2h-3l-1 2-1-1-1-15 1-1v-17z" fill="#F2E8E3"/>
<path transform="translate(610,322)" d="m0 0 1 4-1 6-5 10h-3v-2l-3 3-3 5-1 4 5 1 1 6 6 4-4 1h-10l3-1-2-5v-5h-2l-1-5 5-11 2-4 4-1 5-4z" fill="#493F44"/>
<path transform="translate(580,206)" d="m0 0 1 3 3 1v2h2l5 9 5 6 4 10 1 5v7l2 1 3 12v8l-1 7-2-1-2-17-4-14-3-9-8-16-6-10z" fill="#F2E8E3"/>
<path transform="translate(613,277)" d="m0 0h1v5h-1zm-1 5h1v13l-1 9 1-1 1-10 2-5 2 2 3-7 1 4-4 15v6l2-4-1 8h-2v2h-2l-1-7h-2l2 5v3l-6 2-4 7-1-3 2-3v-3l3-7 3-18z" fill="#463A42"/>
<path transform="translate(323,261)" d="m0 0h3v2l5 2 4 4v2l3-1 1 2 4 1 3 5-1 1h-7l-7-2-7-1-5-6-2-1v-5l5 2-1-4z" fill="#665A5E"/>
<path transform="translate(690,408)" d="m0 0 7 6 9 12 14 26 5 8-1 3-7-8-9-15-9-16-9-10z" fill="#322C2F"/>
<path transform="translate(668,273)" d="m0 0 5 1 2 2 1 6-2 4-7 1-7-3-11-2 1-4 15-4z" fill="#EFE5E0"/>
<path transform="translate(622,271)" d="m0 0 3 4-1 7 3-1-3 13-5 14-2 1v-7l4-16-3 5-2-1-3 15-2-1 3-31h1l2 7 2 1z" fill="#5E464E"/>
<path transform="translate(389,197)" d="m0 0 3 1v3l-16 10-6 5-9 4-18 5-2-1 19-10 14-8z" fill="#442E46"/>
<path transform="translate(318,229)" d="m0 0 4 1-5 2-8 1-4 2h-4v3h-29l-11 2-2-1v-2l-2-1 51-6z" fill="#5A5255"/>
<path transform="translate(631,297)" d="m0 0 5 4 3 1-2 6-3 5-5 6-1-4-4 1-2 7-3 1v-2h2v-2l-3-1 4-5 2-10 3-3v-2z" fill="#534A4F"/>
<path transform="translate(38,439)" d="m0 0 7 1 8 4 1 5-2 4-10 2-5-2-2-8 1-5z" fill="#51494D"/>
<path transform="translate(549,204)" d="m0 0 5 1v1l-5 1-1 2-3 2-5 3-23 8-4-1-1-3 1-2 20-7 5-2 8-2z" fill="#1D181F"/>
<path transform="translate(689,496)" d="m0 0 2 1 2 9 2-1-1-7h7l-1-2 9 1-2 1v6l-4 4h-3l2 4-7 5-4-1 2-5 5-1-10-2v-11z" fill="#EEE4E0"/>
<path transform="translate(441,483)" d="m0 0 9 2 15 8 13 6 4 1v2l2 1 1 3 3 3-2 1-5-2h-6l-3-3v-2h-2v-2l-4-1-5-5-8-5-7-4-5-1z" fill="#3A2F32"/>
<path transform="translate(418,264)" d="m0 0h17l6 3-3 1-14 1-21 3-6 1v-2l-9-1 3-2 11-3h7l1 1z" fill="#181417"/>
<path transform="translate(786,629)" d="m0 0h14v8l-15 2h-9l-1-5v-2z" fill="#F2E8E3"/>
<path transform="translate(229,312)" d="m0 0h5l4 8 4 15v6h-2v2l-3-1-2-10h-2l-4-11 1-7-2-1z" fill="#181317"/>
<path transform="translate(198,383)" d="m0 0 13 1 1 2v6l-3 1-9 1-6 2-5-1-2-4 2-2 8-1z" fill="#574F53"/>
<path transform="translate(152,247)" d="m0 0h10l4 4 2 5 5 11-1 2-7-8-2-4v1l-23 3-13 4-3-1v-2l12-3 11-2 5-2 7-2-1-5h-6z" fill="#493E44"/>
<path transform="translate(603,440)" d="m0 0h10v15l-10 4-2-1v-10l1-7z" fill="#0B080C"/>
<path transform="translate(633,425)" d="m0 0h3l1 9-2 9-8 5-2 2h-5l-2-2 1-6 2-2h6l4-9z" fill="#433B3E"/>
<path transform="translate(475,334)" d="m0 0 4 2 8 3 1 8-4 2-4-1 1 17-4-2-1-1z" fill="#4A4146"/>
<path transform="translate(90,252)" d="m0 0 1 3 32 2h18l8-1-2 2-21 4h-8l-7 1h-12l-7-1-2 1v-3h17l-2-2-15-1z" fill="#443651"/>
<path transform="translate(605,277)" d="m0 0h2l1 15 1 4-2 5-4 1-2 5-3 2 1-7v-15l3-8h2z" fill="#493F44"/>
<path transform="translate(511,217)" d="m0 0 2 1v3l2 1-8 3-20 7-10 3 1-3h-5l3-3 6-1 24-9z" fill="#413145"/>
<path transform="translate(579,225)" d="m0 0 3 2 1 2 3 1 5 11 1 6-1-2-3-1v12l-4 5-1 2h-2l3-18-4-4z" fill="#502D39"/>
<path transform="translate(627,321)" d="m0 0 1 4 5-1-2 5-2 3h-2l-2 4-5 3-4 5h-6l4-10 7-6h2l1-4z" fill="#574E52"/>
<path transform="translate(364,250)" d="m0 0h8v1l-9 2-5 1-8-1-3 2h2v2l17 2 4 2-1 1h-19l-8-1-1-3 1-1-4-3 1-3z" fill="#44374F"/>
<path transform="translate(498,149)" d="m0 0h9l3 3-7 2h-14v2l-19 4v-2l-2-1 3-3 12-3z" fill="#141114"/>
<path transform="translate(645,266)" d="m0 0h2l1 14 1 1v8l-2 10h-7l1-8 2-7h-8l1-2 6-2z" fill="#453753"/>
<path transform="translate(302,245)" d="m0 0 9 1 9 4h5v2h13v2l3 1 2 2-1 4h-7v2l-4-2-5-4v-2l-5-1-12-6-7-1z" fill="#605368"/>
<path transform="translate(57,257)" d="m0 0h24l-1 2-33 3-5 2h-12l-6-3v-1z" fill="#F2E8E3"/>
<path transform="translate(45,251)" d="m0 0h6l1 3-10 1 15 2v1l-11 1h-22l-8-2 4-3z" fill="#3D3235"/>
<path transform="translate(596,320)" d="m0 0 1 3-1 1 5-1 1 4-6 7-5 5-1 2-10-1 1-4 4-4 5-1 2-4z" fill="#493F44"/>
<path transform="translate(145,259)" d="m0 0h6l-3 2-9 3 12-2 7 3-2 2 2 1v2l-9-1-24-2v-2l15-5z" fill="#4C3944"/>
<path transform="translate(396,246)" d="m0 0 15 7v2l-19 4h-6l2-6 3-1 1-3h4z" fill="#3E2F4B"/>
<path transform="translate(524,149)" d="m0 0h10l15 4 1 4-1-2h-4l2 1v2l-12-1-6-3-15 5-2-1 2-2 5-1 2-4z" fill="#3E313A"/>
<path transform="translate(468,311)" d="m0 0 3 4 1 14v31l-4-1z" fill="#484145"/>
<path transform="translate(625,300)" d="m0 0 1 3-3 8v4l-4 4 2 1v2h-2l-1 4-4 2h-4l1-8 2-3-1-10h2l1 7h2v-2h2l1-6z" fill="#372C32"/>
<path transform="translate(213,317)" d="m0 0h2l7 14 2 7-1 7-4 2-1 17h-1l-1-24 1-6-3-10-2-6z" fill="#7D5662"/>
<path transform="translate(243,245)" d="m0 0h13v1h-5v2l22 2v1l-20 1h-13l-1-2h-19l-4-2 12-1 2-1z" fill="#4F3942"/>
<path transform="translate(273,250)" d="m0 0 2 1v2l2 1-1 2-10 2h-14l-1-2-2-1-1-2 5-2z" fill="#3A2E32"/>
<path transform="translate(623,567)" d="m0 0 2 1 3 2 10 1-4 1 2 4 18 10v3l-13-3-11-5v-3l4 1v-4l-9-3-5-4z" fill="#423A3D"/>
<path transform="translate(547,177)" d="m0 0 4 1 4 3h6v3h-2l-1 3h-2l-1 6-7-1v-2l-5-1 1-2v-7h3z" fill="#312629"/>
<path transform="translate(592,276)" d="m0 0h2v11l-3 13-4 5h-2v-2h-6l1-7 3-2 1 4-1 2 2-1z" fill="#F2E8E3"/>
<path transform="translate(72,395)" d="m0 0 3 1 1 6-3 1v-3l-5 3h-2l2 3v6l-4 1-7-5-1-5 6-4 9-1z" fill="#635A5E"/>
<path transform="translate(586,354)" d="m0 0h4l1 2 3-1 2 5v3h-3v2l-8 1-5-1-1-2v-7z" fill="#3D3538"/>
<path transform="translate(475,295)" d="m0 0 4 4v8h3l1-7h1v36h-2l-1-4-3-1-2-4v-5l4 1-1-14-3-6z" fill="#696163"/>
<path transform="translate(662,401)" d="m0 0h12l11 3 5 4 1 4h-4l-5-3-12-2h-10l3-2 2-1h-8l2-2z" fill="#6C6667"/>
<path transform="translate(598,178)" d="m0 0 9 1h4l9 12 5 6v2h2l2 6-2 3-7-11-5-5-8-7-9-6z" fill="#EFE5E1"/>
<path transform="translate(453,219)" d="m0 0 9 1-3 2-29 10-15 4h-5l2-2 24-8 10-5z" fill="#F4EEEB"/>
<path transform="translate(716,375)" d="m0 0h2l-1 8-4 4-9 4h-3l2 9h-2l-3-6 1-5 11-9 4-3h2z" fill="#494246"/>
<path transform="translate(425,261)" d="m0 0 13 1 16 5-4 1h-7l-2 3-16-2v-1l14-1-6-2h-15l-8 1-1 2v-3l-2-1 7-1h11z" fill="#45353A"/>
<path transform="translate(325,234)" d="m0 0h1l1 15 24-1 18-1v1l5 1v1l-10 1-25 1h-14l-1-3z" fill="#F2E8E3"/>
<path transform="translate(589,491)" d="m0 0h8l1 1v6l6 1 1 1v7l-1 2h-7l-1-1v-12l-6-1-2-1z" fill="#474044"/>
<path transform="translate(562,350)" d="m0 0h1l2 7 9 1-2 5-2 1h-15l2-9 4-1z" fill="#382C2E"/>
<path transform="translate(290,246)" d="m0 0 10 1-2 3-6 3v3h-16l-3-2 2-1-1-3h6l2 1v-2l6-1z" fill="#5B3443"/>
<path transform="translate(382,249)" d="m0 0h9v3l-3 3-1 2-7 2-1 2-4-1-8-1v-2l9-2v-3l6-1z" fill="#0C080C"/>
<path transform="translate(680,508)" d="m0 0h3l1 10-3-2-4 8-3 2-6-2 2-6h2l2-4 2-2h3z" fill="#F2E8E3"/>
<path transform="translate(96,501)" d="m0 0 3 1 2 6 2-1v28l-1 16h-1l-2-30 2-5h-2l-2-6z" fill="#4B3D43"/>
<path transform="translate(344,413)" d="m0 0h3l2 5 2 1 1-4 2 4-1 5-8 2-8-1-1-5 6-3z" fill="#453E41"/>
<path transform="translate(371,214)" d="m0 0 10 3-4 2-32 8h-10l3-2 16-4 10-3z" fill="#F2E8E3"/>
<path transform="translate(442,267)" d="m0 0h8l8 2 11 7 8 9 1 3-5-2-6-7-8-6-5 1-4-2-5-2-3-1z" fill="#352A2D"/>
<path transform="translate(169,252)" d="m0 0 7 3 8 8 6 3 5 6-1 4h-2l-2-3-4-1v-3h-3v-2h-2l-4-5-4-4v-2l-4-2z" fill="#613242"/>
<path transform="translate(612,218)" d="m0 0 3 1 1 5v20l-3 2-2 3-1-23 1-7z" fill="#552B41"/>
<path transform="translate(582,322)" d="m0 0 1 3-1 3 2 1-4 5-7 7-7-1 3-5 3-3h2l2-4h2l1-5 2 1z" fill="#494246"/>
<path transform="translate(80,243)" d="m0 0h1v5h61v1l-31 1h-19l-1 1-1 8h-7l1-2-4-2 6-1v-3l-8-1z" fill="#756B70"/>
<path transform="translate(610,275)" d="m0 0h1l1 16-3 15-2 3-3 1-2 5h-1l1-9 1-4 4-2 1-7h-1v-5l1-1v-8z" fill="#0B080C"/>
<path transform="translate(733,345)" d="m0 0h32l5 3v3l-14-2h-10l-4-1h-7z" fill="#F2E8E3"/>
<path transform="translate(341,289)" d="m0 0 4 2 6 6v3l2 1v3l4 2 3 4-1 4-5 1-4-9-8-15z" fill="#4D3B43"/>
<path transform="translate(641,564)" d="m0 0h5l1 3 7 1v1l-12 2h-14l-4-3 3-2z" fill="#2E2528"/>
<path transform="translate(544,528)" d="m0 0 5 2 14 6 3 3 9 3v2h6l1 4-6-1-31-15-2-3z" fill="#F9F6F5"/>
<path transform="translate(556,222)" d="m0 0 3 1 1 9 3 4-2 6v1l-8 1-1-9 2-3h2z" fill="#786B6E"/>
<path transform="translate(327,228)" d="m0 0h2l-2 6 2 1h-2v9h-1v-10l-5 1v-2l-9 3-10 3h-14v-1h13l-1-4h7l2-2 9-1z" fill="#592E3E"/>
<path transform="translate(596,526)" d="m0 0h12l5 2-2 6-12 1-1-2 1-2h-2z" fill="#E5DCD7"/>
<path transform="translate(488,163)" d="m0 0 3 1v2l-13 6v-3zm-13 8h2v2l-2 1-1 3-6 3-11 4h-2l-1 2v-3z" fill="#443348"/>
<path transform="translate(710,435)" d="m0 0 3 4 9 16 3 5-1 3-7-8-9-15-1-4z" fill="#3F3739"/>
<path transform="translate(321,276)" d="m0 0h12l5 2h9l3 3v2h-7l-4-1-2 1-1 3-9-2v-1h5v-3l-11-3z" fill="#513340"/>
<path transform="translate(549,206)" d="m0 0h7l3 3 1 10-1 2-5-1v-11l-10 3v-3h4z" fill="#3F324A"/>
<path transform="translate(597,242)" d="m0 0h3 1v7l2 1 3 12v8l-1 7-2-1-2-17-4-14z" fill="#544D50"/>
<path transform="translate(571,189)" d="m0 0 2 1 1 6 1-3 6 2v5l4 9 1 3h-2l-4-4-3-2-2-5-3-3-2-8z" fill="#6D6366"/>
<path transform="translate(607,302)" d="m0 0 2 4-3 9-1 4-2 6h-4l-4-1 5-11h2l2-4h3z" fill="#392D36"/>
<path transform="translate(215,291)" d="m0 0 4 1 10 11 5 9-5 1 1 3-2 2-4-8 2-1 2 2 1-3-6-9-5-1h-3l-1-1v-5z" fill="#443642"/>
<path transform="translate(86,456)" d="m0 0h1v24h-2l-1-13-2-4-4-2-7-2-2-2h8l7 1z" fill="#484145"/>
<path transform="translate(584,433)" d="m0 0h3v10l-1 1h-12l-9-1v-2h15l1-5h2z" fill="#0B080C"/>
<path transform="translate(251,246)" d="m0 0h12l25 2-4 2-2-1v2l-23-1-9-1z" fill="#484145"/>
<path transform="translate(600,560)" d="m0 0 6 2 18 8 1 4-6-2-17-6-4-2z" fill="#33282B"/>
<path transform="translate(596,539)" d="m0 0h4l1 6-2 12-3 1-2-1-1-7z" fill="#171316"/>
<path transform="translate(195,247)" d="m0 0h2l1 7 5 1-3 2-14-1-1 3-3-3 3-3 2-1-1-2 5 1z" fill="#5B3849"/>
<path transform="translate(601,398)" d="m0 0 6 1-1 6-2 7v6l1 5-4 1z" fill="#918888"/>
<path transform="translate(623,277)" d="m0 0h1v5l3-1-3 13-5 14-2 1v-7z" fill="#F0E6E1"/>
<path transform="translate(641,298)" d="m0 0h5l-1 8-4 9h-2l-1-4h-2l-1-3 1-2h2l2-7z" fill="#3C2F43"/>
<path transform="translate(519,493)" d="m0 0 8 1 1 6-1 6h-2l-1 2-1-7-2-2-1 9-2-2-1-8z" fill="#3A2F31"/>
<path transform="translate(538,376)" d="m0 0h21l-2 4-10 3-8-1-3-4h2z" fill="#FDFDFD"/>
<path transform="translate(607,195)" d="m0 0 4 1 8 7 6 10 2 4-2 3-6-10-4-5-3-2v-2l-3-1z" fill="#F0E6E1"/>
<path transform="translate(627,216)" d="m0 0 7 14 1 5 4 8 1 5-5-2-2-10-4-6-3-7v-6z" fill="#5B5356"/>
<path transform="translate(200,241)" d="m0 0 2 1 11 1 4 2 3-1 7 2-4 1-8 1-2 6h-1l1-8h-11l-9-2 3-2z" fill="#F2E8E3"/>
<path transform="translate(538,160)" d="m0 0 11 1 11 5 7 5-1 2-10-4-5-3-9-4-11 1v-2z" fill="#EEE3DF"/>
<path transform="translate(275,276)" d="m0 0 7 1 7-1h10v1l-11 2-5 3h-2v-2h-4v2l-7 1-6 1 4-5z" fill="#41373D"/>
<path transform="translate(97,382)" d="m0 0 2 2 1 8v17l-1 2-4-1 1-17z" fill="#32262D"/>
<path transform="translate(636,346)" d="m0 0 2 1-1 7-7 6h-7l1-4 5-1 1-5 1-2h2l1 2z" fill="#3B3032"/>
<path transform="translate(86,334)" d="m0 0 2 1 4 16-5 2-3-9-1-6h2z" fill="#543440"/>
<path transform="translate(90,321)" d="m0 0 4 1 6 11 3 9v5h-2l-3-8-6-10z" fill="#3D2F33"/>
<path transform="translate(575,219)" d="m0 0 3 3 1 3v16l-4 2-1-23z" fill="#F2E8E3"/>
<path transform="translate(217,297)" d="m0 0 7 2 6 9-2 4-6-4-5-7z" fill="#32252C"/>
<path transform="translate(158,258)" d="m0 0h6v4h-6v3l-8-2-10 1-1 2-1-3 10-3z" fill="#33272A"/>
<path transform="translate(571,215)" d="m0 0 4 2v3 25l-2-1-1-4v-4l-2 4-2-5 4-1v-14z" fill="#81606A"/>
<path transform="translate(603,440)" d="m0 0h10v15l-10 4-2-1v-10l1-7zm3 3-3 3-1 4v7l9-2 1-1v-11z" fill="#5F575A"/>
<path transform="translate(609,352)" d="m0 0h6v7h-2v-3l-5 1v3l2 2-4 1-6-4v-2l3-1 2-3z" fill="#302628"/>
<path transform="translate(362,213)" d="m0 0 5 2v2l-6 3-18 5-2-1 19-10z" fill="#402F42"/>
<path transform="translate(427,240)" d="m0 0h6l-1 5 1 3-5 1-4-1-5-5z" fill="#0B080C"/>
<path transform="translate(595,203)" d="m0 0 3 1 2 8v10h-2l-5-12v-6z" fill="#F2E8E3"/>
<path transform="translate(409,185)" d="m0 0 2 1-1 4-16 10h-2l-1-4z" fill="#1B171B"/>
<path transform="translate(628,450)" d="m0 0 1 2h14l1 3-1 1h11l-2 2h-16l-1-2h-5l-3-5z" fill="#484145"/>
<path transform="translate(520,158)" d="m0 0h7l2 1v2l-6 3 2 1 1-2 3 3-10 1 1-2h-3v-2h-5l3-3z" fill="#442D3C"/>
<path transform="translate(292,253)" d="m0 0h5l3 5v2l3 1-5 2v-2h-12l1-5 3-1 2 1z" fill="#6E4D5A"/>
<path transform="translate(642,424)" d="m0 0 2 4v17l-2 4h-3l2-23z" fill="#564E51"/>
<path transform="translate(585,264)" d="m0 0 5 2 1 1 2-2v2h2v6l-2 2h-4l-1-4-3 1-1-6z" fill="#4C373F"/>
<path transform="translate(150,262)" d="m0 0 5 1 3 3-2 1 2 1v2l-9-1-8-1 2-2v-3z" fill="#4C4448"/>
<path transform="translate(511,217)" d="m0 0 2 1v3l2 1-8 3-8 1-1-4z" fill="#493C45"/>
<path transform="translate(633,425)" d="m0 0h3l1 9-1 6-2-3-3 1v2l-2 1-1 3h-2l1-4 4-9z" fill="#6A6061"/>
<path transform="translate(503,161)" d="m0 0 3 1-9 5 1 2-9 5-7-1v-2z" fill="#473440"/>
<path transform="translate(646,587)" d="m0 0 6 1 2 1v-2l6 2 12 6v3l-4-1-7-3-15-6z" fill="#302629"/>
<path transform="translate(582,454)" d="m0 0h7l1 1v7h-10v-6z" fill="#484145"/>
<path transform="translate(667,403)" d="m0 0m-6 0 6 1-4 2-7 4-4 3-5 2 2-6 6-5z" fill="#645E60"/>
<path transform="translate(222,251)" d="m0 0 3 1v3l10 2v1l-6 1h-14l-2-2h3l1-3z" fill="#3A2E34"/>
<path transform="translate(361,379)" d="m0 0 3 1v12h-6l-1-1v-7h2l1-4z" fill="#473E43"/>
<path transform="translate(516,366)" d="m0 0h5l4 8-4 1h-5l-1-3-3 1v-3z" fill="#FDFDFD"/>
<path transform="translate(425,291)" d="m0 0h5l1 3 5 1 14 7 7 1-3 1v2l-6-2-16-8-7-2z" fill="#CDC4C1"/>
<path transform="translate(645,266)" d="m0 0h2l1 16-4 2h-9l1-2 6-2z" fill="#4B4749"/>
<path transform="translate(540,525)" d="m0 0h1l1 9-2 6-6-1-1-4h2l-4-3 2-2h7z" fill="#392E30"/>
<path transform="translate(621,283)" d="m0 0 1 4-4 15h-2l-2 2-1-6 3-10 2 2z" fill="#484044"/>
<path transform="translate(496,175)" d="m0 0 4 1-17 8-20 8-2-1 10-5 21-9z" fill="#F2E8E3"/>
<path transform="translate(586,354)" d="m0 0h4l1 6-7 3-4-1v-5z" fill="#392D2F"/>
<path transform="translate(628,276)" d="m0 0 3 1 3-1v3h-2l-1 13-4 2 1-4-2-3 1-8z" fill="#3F3335"/>
<path transform="translate(159,247)" d="m0 0 4 1 3 3 2 5 5 11-1 2-7-8-4-11v-2z" fill="#F2E8E3"/>
<path transform="translate(570,387)" d="m0 0 7 1 1 6-4 5-3-2v-4h-2v-5z" fill="#F2E8E3"/>
<path transform="translate(595,352)" d="m0 0 5 1 1 6 6 4-4 1h-10l3-1-2-7 4-1v-2z" fill="#524B4E"/>
<path transform="translate(547,177)" d="m0 0 4 1 2 2 2 4v3l-5 2-5-6-1-3h3z" fill="#512B38"/>
<path transform="translate(585,432)" d="m0 0h3l1 12-5 3h-13l-6-2v-1l21-1 1-10z" fill="#463E42"/>
<path transform="translate(475,295)" d="m0 0 4 4v8h3l1-7h1v9l-2 13h-1l-2-13-3-6z" fill="#4B4145"/>
<path transform="translate(346,287)" d="m0 0 7 2 5 5v7h-2v-2h-2v-2l-4-2-2-2v-4h-2z" fill="#3C2D4F"/>
<path transform="translate(224,416)" d="m0 0 6 1v2h-2v2h-2v2h-2v8l-5-4 2-10 2 1z" fill="#4C4549"/>
<path transform="translate(63,485)" d="m0 0h2l6 8 4 4v2l4 1 1 4-5-1-5-7-5-4-2-4z" fill="#6A6164"/>
<path transform="translate(610,306)" d="m0 0 2 1 2 5v3l-6 2-4 7-1-3 2-3v-3l4-8z" fill="#51494E"/>
<path transform="translate(610,356)" d="m0 0h3v3h2l1-2 5 1h2l1 3-9 1-2-1v2h-6l1-6z" fill="#403639"/>
<path transform="translate(244,249)" d="m0 0h19l10 1v1l-20 1h-13l-1-2z" fill="#5E2B3D"/>
<path transform="translate(614,243)" d="m0 0h1v16l-1-3h-3l-1 3-2-4v-10l2 4v4l2-8z" fill="#4A374A"/>
<path transform="translate(587,242)" d="m0 0 4 3v2h2l1 9h-2v-3h-2l-1 6-2-1z" fill="#685F61"/>
<path transform="translate(425,261)" d="m0 0 13 1 3 2-9 1h-14l-8 1-1 2v-3l-2-1 7-1h11z" fill="#51454A"/>
<path transform="translate(296,248)" d="m0 0h6v2l-3 2 5 2 1 5-6-1-2-2v-3h-7l3-3z" fill="#484044"/>
<path transform="translate(484,188)" d="m0 0 3 1-10 6-9 4 1-6z" fill="#F3EAE5"/>
<path transform="translate(540,151)" d="m0 0 9 2 1 4-1-2h-4l2 1v2l-12-1-1-4z" fill="#34262E"/>
<path transform="translate(683,560)" d="m0 0h10l7 1v1l-16 2-10 1 1-3h-7v-1z" fill="#463D42"/>
<path transform="translate(318,409)" d="m0 0h2v14l-4 2-4-2-1-3h4l1-5h2z" fill="#484145"/>
<path transform="translate(614,177)" d="m0 0 5 3 5 10-5 1-7-9-1-2 5 1-3-3z" fill="#845F6A"/>
<path transform="translate(551,512)" d="m0 0 4 3v9l-1 3-6 1-4-1 1-3h5v-2h2z" fill="#392D2F"/>
<path transform="translate(589,316)" d="m0 0h3l-1 5-6 7h-3l1-6 4-5z" fill="#403446"/>
<path transform="translate(521,156)" d="m0 0 4 1-28 11-3-1 17-8z" fill="#F2E8E3"/>
<path transform="translate(370,371)" d="m0 0 2 1v17l-4-1v-10z" fill="#372B2E"/>
<path transform="translate(368,319)" d="m0 0 3 3v3h2v-2h2v3h2l1 5-6 2-4-11z" fill="#413338"/>
<path transform="translate(180,245)" d="m0 0h5l-1 3-6 2h-9l-4-3 2-1z" fill="#D1C7C4"/>
<path transform="translate(382,244)" d="m0 0h4l1 3-7 2h-16v-1l6-2z" fill="#F6F1EE"/>
<path transform="translate(620,189)" d="m0 0 6 2 5 12-1 3-3-4v-3h-2l-5-6z" fill="#55494E"/>
<path transform="translate(606,268)" d="m0 0h1v7h2v-7l3 4v11h-1l-1-5-1 1v11l-2-2-1-11-1-7z" fill="#45313E"/>
<path transform="translate(609,296)" d="m0 0h1l-1 10-2 3-3 1-2 5h-1l1-9 1-4 4-2z" fill="#0C090D"/>
<path transform="translate(598,252)" d="m0 0h2l3 12 1 12 1 3-2 2-2-5v-8l1-2h-2z" fill="#484145"/>
<path transform="translate(583,229)" d="m0 0 3 1 5 11 1 6-1-2-3-1v-2h-2l-3-9z" fill="#534048"/>
<path transform="translate(604,291)" d="m0 0 2 1-2 10-5 7-1-4 4-12z" fill="#F2E8E3"/>
<path transform="translate(428,278)" d="m0 0 2 1 1 8-3 3-3-1-2-5 3-4h2z" fill="#BAB2B0"/>
<path transform="translate(609,225)" d="m0 0 2 4v26l-2-2-1-23z" fill="#F2E8E3"/>
<path transform="translate(389,197)" d="m0 0 3 1v3l-10 6-4-2 4-4z" fill="#3A2D40"/>
<path transform="translate(544,528)" d="m0 0 5 2 14 6-3 1-1 2-15-8z" fill="#F6F1EE"/>
<path transform="translate(690,408)" d="m0 0 7 6 4 6h-2l-1 3-8-9z" fill="#403B3E"/>
<path transform="translate(43,268)" d="m0 0h13l1 2v9l-6-2 1-8-9 1z" fill="#F6F0ED"/>
<path transform="translate(99,528)" d="m0 0h1l1 22-2-2-2-6v-10z" fill="#F2E8E3"/>
<path transform="translate(600,220)" d="m0 0 2 4 1 5h2l1 3v10l-2-4-3-9-2-1-1-6h2z" fill="#484145"/>
<path transform="translate(373,314)" d="m0 0 2 1 1 3v8l-1-3h-2v2h-2l-2-5v-4z" fill="#0E0B0F"/>
<path transform="translate(629,306)" d="m0 0 4 1 1 6-5 6-1-4-3-1h2l-1-3 2-2z" fill="#4B3B4F"/>
<path transform="translate(507,149)" d="m0 0 7 1-1 3-7 1-1 3h-6v-1l-10-1v-1l14-1 5-1z" fill="#4F434A"/>
<path transform="translate(724,405)" d="m0 0 10 2v4l-17 1v-1l6-2z" fill="#4B4447"/>
<path transform="translate(80,315)" d="m0 0 1 2 5-1h4v3h-2l-1 3h-2l-2 3-4-4v-2h3l-2-1z" fill="#392D2F"/>
<path transform="translate(455,292)" d="m0 0 1 4h2l1 8-7-2v-8z" fill="#FDFDFD"/>
<path transform="translate(143,258)" d="m0 0h8v1l-14 3-12 3-1-3 12-3z" fill="#F2E8E3"/>
<path transform="translate(713,448)" d="m0 0h5l7 12-1 3-7-8z" fill="#4A4143"/>
<path transform="translate(146,256)" d="m0 0 3 1-6 2-19 3-2-2 2-2 17-1z" fill="#40334B"/>
<path transform="translate(390,246)" d="m0 0 6 1v2l-4 1-10-1v2l-8 1v-3z" fill="#372A30"/>
<path transform="translate(501,353)" d="m0 0 6 1 9 3 1 4-3-2h-4l-1-2-4-1v2l-3-1-2 2v-5z" fill="#F2E8E4"/>
<path transform="translate(452,334)" d="m0 0h1l2 13v11l-3-4h-1z" fill="#F2E8E3"/>
<path transform="translate(162,255)" d="m0 0 3 2 2 10-3-1-8 2-2-2h4v-4h6z" fill="#56303E"/>
<path transform="translate(600,252)" d="m0 0 2 1 4 14-1 10-2-1-2-17z" fill="#F2E8E3"/>
<path transform="translate(273,250)" d="m0 0 2 1v2l2 1-8 1-3 1v-2l-13-2v-1z" fill="#3D2D50"/>
<path transform="translate(492,220)" d="m0 0h2v3l2 1-16 6-2-1 9-6z" fill="#F1EAE7"/>
<path transform="translate(678,599)" d="m0 0 5 2 12 6v3l-6-2-12-7z" fill="#292124"/>
<path transform="translate(634,421)" d="m0 0 3 1 1 4 2 1 1 8h-3l-1 3-1-13h-3z" fill="#F4ECE8"/>
<path transform="translate(594,279)" d="m0 0h1l1 10 2 1v4l-4 3h-2l1-10z" fill="#4A3C43"/>
<path transform="translate(529,281)" d="m0 0 13 1v2l3-1v2l2 1-6 1v-2l-10 1-2 1z" fill="#484145"/>
<path transform="translate(323,448)" d="m0 0 7 1 5-1v4l-4-1-1 2-6 2z" fill="#FCFCFB"/>
<path transform="translate(96,344)" d="m0 0 8 2v6l-1-2-3 3-4-4z" fill="#45383D"/>
<path transform="translate(355,280)" d="m0 0h1l1 5 3 2v2l2 1-2 2v-2l-4-2-7-3-1-2 6-2z" fill="#60585B"/>
<path transform="translate(419,244)" d="m0 0 5 3h5l2 2-1 4-9-4-5-4z" fill="#3F2D39"/>
<path transform="translate(418,213)" d="m0 0h5v3l-14 4-3-1z" fill="#F2E8E3"/>
<path transform="translate(275,276)" d="m0 0 7 1 7-1h10v1l-24 3-5 1v-2z" fill="#A39A9B"/>
<path transform="translate(398,266)" d="m0 0h4l-2 5 3 1-6 1v-2l-9-1 3-2z" fill="#483D48"/>
<path transform="translate(364,250)" d="m0 0h8v1l-9 2-5 1-3-1-16-1v-1z" fill="#43344A"/>
<path transform="translate(290,246)" d="m0 0 10 1-2 3-3 2-10-1 3-3z" fill="#5D2B3D"/>
<path transform="translate(230,246)" d="m0 0h13v2l-12 1-2 1h-9l-4-2 12-1z" fill="#5E2B3D"/>
<path transform="translate(585,168)" d="m0 0 9 2 6 2-4 2-1 4-5-5z" fill="#F2E8E3"/>
<path transform="translate(700,512)" d="m0 0h2l1 7-2 3-4 2v-8z" fill="#3C3133"/>
<path transform="translate(625,300)" d="m0 0 1 3-4 10-2 3-2-1 2-9z" fill="#0C080C"/>
<path transform="translate(302,245)" d="m0 0 9 1 9 4 4 2 1 3-5-2-11-5-7-1z" fill="#F2E8E3"/>
<path transform="translate(220,244)" d="m0 0h10l13 1v1l-13 1-2 1h-13v-1l10-1-5-1z" fill="#4F484C"/>
<path transform="translate(438,211)" d="m0 0 2 2-6 1v2l-6 3h-3l1-5z" fill="#463D46"/>
<path transform="translate(618,502)" d="m0 0h5l1 2v8h-4z" fill="#1D191D"/>
<path transform="translate(97,382)" d="m0 0 2 2 1 15-2 1-2-3v-9z" fill="#34292B"/>
<path transform="translate(228,328)" d="m0 0 2 3 2 8v5l-3-1-3-8 1-4z" fill="#5A2F3E"/>
<path transform="translate(341,289)" d="m0 0 4 2 6 7v6h-2l-7-13z" fill="#57323F"/>
<path transform="translate(463,278)" d="m0 0 5 3 5 6 2 8-3-3-6-8-4-5z" fill="#3F3437"/>
<path transform="translate(214,248)" d="m0 0 8 2-1 3-4 2-1 2h-2z" fill="#3E2E4E"/>
<path transform="translate(496,223)" d="m0 0 3 1v2l2 1-8 3-3-1-1-2h2v-2z" fill="#342A30"/>
<path transform="translate(554,440)" d="m0 0 8 1-1 5h-7l-2-1v-2h2z" fill="#0B080C"/>
<path transform="translate(596,419)" d="m0 0h4l1 6-2 2h-6l-1-3z" fill="#FCFCFC"/>
<path transform="translate(372,271)" d="m0 0h2v2l3 1-4 1v2l-5 3h-4l2-4 5-3z" fill="#988F8F"/>
<path transform="translate(221,398)" d="m0 0h1l2 11-1 7h-2l-1-3v-13z" fill="#484145"/>
<path transform="translate(85,292)" d="m0 0h1l1 14-2 2-3-4 2-11z" fill="#ECE5E2"/>
<path transform="translate(554,243)" d="m0 0h8v1l-7 2-1 8-3 1-1-7z" fill="#51484A"/>
<path transform="translate(480,172)" d="m0 0 4 1v2l-7 3-5 3h-2l2-4h2v-2z" fill="#5A2B3E"/>
<path transform="translate(623,567)" d="m0 0 2 1 3 2 10 1-4 1 1 4-10-4-5-4z" fill="#867F80"/>
<path transform="translate(217,433)" d="m0 0h6l1 1v6l-6-1-1 2z" fill="#473E43"/>
<path transform="translate(329,278)" d="m0 0 9 2 1 3h-2l-1 3-9-2v-1h5v-3l-3-1z" fill="#47374A"/>
<path transform="translate(245,237)" d="m0 0h6v3h-20v-1z" fill="#7E646C"/>
<path transform="translate(632,232)" d="m0 0 4 4 4 10-1 2-4-2-2-10z" fill="#F2E8E3"/>
<path transform="translate(564,307)" d="m0 0h6l1 2-6 3-2 2h-3l1-5z" fill="#392D2F"/>
<path transform="translate(519,160)" d="m0 0 5 1-1 3 2 1 1-2 3 3-10 1 1-2h-3v-2l-2-1z" fill="#413546"/>
<path transform="translate(503,518)" d="m0 0h13l-1 6-5-2-7-3z" fill="#392D2F"/>
<path transform="translate(487,356)" d="m0 0 2 4 2 5-1 7-3-1-1-13z" fill="#F2E8E3"/>
<path transform="translate(342,297)" d="m0 0h2l3 4v7l-6-3z" fill="#FDFDFD"/>
<path transform="translate(453,219)" d="m0 0 9 1-3 2-10 3 2-5z" fill="#F8F4F3"/>
<path transform="translate(491,192)" d="m0 0 3 1-4 2h-3l-1 3-7 1-1-2 6-3z" fill="#474045"/>
<path transform="translate(603,440)" d="m0 0 9 1-1 3h-5l-2 4-2 2v-9z" fill="#40373A"/>
<path transform="translate(651,415)" d="m0 0 1 2-2 11-4-1 1-6z" fill="#736A6D"/>
<path transform="translate(217,341)" d="m0 0h4l1 4-3 2-1 17h-1z" fill="#4A3E43"/>
<path transform="translate(614,319)" d="m0 0 1 3h2v-3l4 1v2h-2l-1 4-3 1-3-3z" fill="#403448"/>
<path transform="translate(168,266)" d="m0 0 3 1 3 5v2l-10-2 2-1z" fill="#613947"/>
<path transform="translate(555,245)" d="m0 0 5 4-1 5-2 3h-2v-9z" fill="#3C3234"/>
<path transform="translate(571,235)" d="m0 0 2 1v6l1 5v6l-3-1z" fill="#44393D"/>
<path transform="translate(427,229)" d="m0 0h2l1 3-15 4h-5l2-2z" fill="#F2E8E3"/>
<path transform="translate(371,214)" d="m0 0 10 3-4 2h-11l1-3z" fill="#F8F5F3"/>
<path transform="translate(556,207)" d="m0 0h2l2 6v6l-3 1-1-8-1-4z" fill="#2F2B2D"/>
<path transform="translate(519,165)" d="m0 0m-3 1h3v2l-15 6-4 1 3-3 10-5z" fill="#82797A"/>
<path transform="translate(581,455)" d="m0 0h6l1 1 1 3-5 2-3-1z" fill="#382C2E"/>
<path transform="translate(362,404)" d="m0 0 2 3-1 8-3-1v-3l-2-1h2v-5z" fill="#F2E8E3"/>
<path transform="translate(632,353)" d="m0 0h3l-2 4-3 3h-7v-2l7-3z" fill="#1E191D"/>
<path transform="translate(614,286)" d="m0 0h3l-3 14-1 5-2-1 2-16z" fill="#F2E8E3"/>
<path transform="translate(458,272)" d="m0 0 5 3 3 4h-6l-5-3v-2h3z" fill="#161216"/>
<path transform="translate(45,251)" d="m0 0h6l1 3-16 1v-3z" fill="#413638"/>
<path transform="translate(476,177)" d="m0 0 3 2v3l-9 3 2-5z" fill="#3C2D4F"/>
<path transform="translate(61,464)" d="m0 0h3l-1 6 2 1-1 2-4-1-1-1v-5z" fill="#645C5F"/>
<path transform="translate(621,440)" d="m0 0 5 1v6l-4 1-1-2z" fill="#161216"/>
<path transform="translate(90,260)" d="m0 0h16l1 2-2 1h-6l-7-1-2 1z" fill="#3D2D50"/>
<path transform="translate(401,250)" d="m0 0 6 1 4 2v2l-9 1v-3l1-2z" fill="#3B2D3B"/>
<path transform="translate(195,247)" d="m0 0m-1 1m-1 1m-7 1 5 1h3l1 4h-10v-2l2-1z" fill="#572B40"/>
<path transform="translate(347,424)" d="m0 0 5 1-1 9h-3l-1-7z" fill="#F2E8E3"/>
<path transform="translate(442,267)" d="m0 0h8l3 3 2 4-10-4-3-1z" fill="#181216"/>
<path transform="translate(586,249)" d="m0 0 2 4-1 4-4 6h-2l2-12 2 3z" fill="#452F36"/>
<path transform="translate(210,240)" d="m0 0h9l-4 2-1 1h-12l-1-2z" fill="#52484E"/>
<path transform="translate(405,219)" d="m0 0 3 2-10 4h-8l2-2z" fill="#493F44"/>
<path transform="translate(636,500)" d="m0 0h3v11h-2l-2-10z" fill="#181418"/>
<path transform="translate(63,485)" d="m0 0h2l6 8 1 3-5-2-4-6z" fill="#544C4F"/>
<path transform="translate(106,387)" d="m0 0 3 3v17h-1l-1-9-1-4z" fill="#F2E8E3"/>
<path transform="translate(607,302)" d="m0 0 2 4-3 9-2 1v-2l-2-1 2-4h3z" fill="#392D2F"/>
<path transform="translate(627,501)" d="m0 0h4v10h-2l-2-4z" fill="#201B1F"/>
<path transform="translate(77,491)" d="m0 0 5 1 2 4-2 2-6-2z" fill="#484145"/>
<path transform="translate(363,356)" d="m0 0 4 1v9h-3z" fill="#ECE2DE"/>
<path transform="translate(79,328)" d="m0 0 4 2-1 4 7-2-2 3-4 4-2-4z" fill="#63585C"/>
<path transform="translate(180,257)" d="m0 0 5 1 3 5v2l-4-1-3-2z" fill="#908788"/>
<path transform="translate(616,238)" d="m0 0h1l1 6h1v9l-4-1v-8zm0 7 1 2z" fill="#D1C1C0"/>
<path transform="translate(561,444)" d="m0 0h2v5l-9-1-2-1v-2l9 1z" fill="#443C3F"/>
<path transform="translate(359,329)" d="m0 0 1 2 3 1v16l-2-1-1-14z" fill="#484145"/>
<path transform="translate(234,332)" d="m0 0 2 3 2 7 2 1v-2h2l1-3 1 4-1 2h-7l-2-8z" fill="#594D50"/>
<path transform="translate(629,318)" d="m0 0h2v3h2l2-2-1 5-6 1v-6z" fill="#352932"/>
<path transform="translate(225,309)" d="m0 0 3 2 4-2 2 3-5 1 1 3-2 2-4-8z" fill="#3F2F38"/>
<path transform="translate(628,276)" d="m0 0 3 1 3-1v3h-2v5h-3z" fill="#231B20"/>
<path transform="translate(384,257)" d="m0 0h2v3l-5 3-2 1v-2h-5l1-3 7-1z" fill="#2E2527"/>
<path transform="translate(570,242)" d="m0 0h1l-1 14-1-2-4 2 2-7h2z" fill="#F2E8E3"/>
<path transform="translate(300,234)" d="m0 0h5l1 4-4 1h-14v-1h13z" fill="#5E2B3D"/>
<path transform="translate(571,215)" d="m0 0 4 2v3 10h-3v-10z" fill="#6E4E59"/>
<path transform="translate(78,507)" d="m0 0h5l1 5h-6l-1-3z" fill="#6F6466"/>
<path transform="translate(634,433)" d="m0 0h1v10l-6 1 2-6 2-1z" fill="#100C10"/>
<path transform="translate(533,401)" d="m0 0h2l1 10-5 2 1-5 1-4z" fill="#484145"/>
<path transform="translate(601,398)" d="m0 0 6 1v3l-3 1-2 5h-1z" fill="#484145"/>
<path transform="translate(561,357)" d="m0 0 5 2v2l3-1 2 1v2h-9z" fill="#0B080C"/>
<path transform="translate(538,354)" d="m0 0 4 2-1 4h-5l-1-3z" fill="#484145"/>
<path transform="translate(21,255)" d="m0 0h7l5 1-1 2-2-1v2h-6l-3-2z" fill="#0C090D"/>
<path transform="translate(555,247)" d="m0 0 1 4-1 6 3-1 1 3h-6l-1-5h2v-6z" fill="#110E11"/>
<path transform="translate(586,185)" d="m0 0 2 1-1 7-2 1-2-4v-4z" fill="#432D3F"/>
<path transform="translate(488,163)" d="m0 0 3 1v2l-8 4h-3v-2z" fill="#382D31"/>
<path transform="translate(641,564)" d="m0 0h5v2l-11 1-4 1-4-2z" fill="#4E4548"/>
<path transform="translate(599,500)" d="m0 0 4 1v6l-5-1-1-4h2z" fill="#261E21"/>
<path transform="translate(36,440)" d="m0 0 2 2v2l1 4v1l1 3-2 2-2-3-1-10z" fill="#F2E8E3"/>
<path transform="translate(528,356)" d="m0 0h3l1 2v6h-4z" fill="#484145"/>
<path transform="translate(86,334)" d="m0 0 2 1 1 7-2 2-2-5-2-1h2z" fill="#5C2C3D"/>
<path transform="translate(614,273)" d="m0 0h1l2 7 2 1-1 4h-4z" fill="#F2E8E3"/>
<path transform="translate(557,264)" d="m0 0h3v6l-2 2-3-1 1-5z" fill="#4F4549"/>
<path transform="translate(167,246)" d="m0 0h10l-5 4-5-1-2-2z" fill="#C4BBB8"/>
<path transform="translate(436,231)" d="m0 0 2 1v13l-2 1-1-4z" fill="#F2E8E3"/>
<path transform="translate(579,225)" d="m0 0 3 2 1 5h-2l2 10 1 2-3-1-1-2z" fill="#5C2B3D"/>
<path transform="translate(579,208)" d="m0 0 4 5 4 7-1 2-4-2-1-5-3-6z" fill="#474045"/>
<path transform="translate(705,428)" d="m0 0h2l3 5v3h-4l-2-6z" fill="#282225"/>
<path transform="translate(661,403)" d="m0 0 6 1-8 4-4-1 2-3z" fill="#211C1F"/>
<path transform="translate(75,298)" d="m0 0 6 4-2 3 1 2-5-2-1-6z" fill="#504349"/>
<path transform="translate(608,292)" d="m0 0 1 4-2 5-3 1 1-7z" fill="#3B3032"/>
<path transform="translate(609,268)" d="m0 0 3 4v11h-1l-1-5h-2z" fill="#34292B"/>
<path transform="translate(629,266)" d="m0 0 1 3-2 9-1-3h-2l2-8z" fill="#665C5F"/>
<path transform="translate(362,213)" d="m0 0 5 2v2l-2 1h-6l1-4z" fill="#3A2E36"/>
<path transform="translate(537,190)" d="m0 0 9 2v1h-16l3-2z" fill="#433849"/>
<path transform="translate(570,168)" d="m0 0 9 1 2 3-9-1-3-2z" fill="#F2E8E3"/>
<path transform="translate(541,318)" d="m0 0h1v5h-6l-2-1v-2z" fill="#484145"/>
<path transform="translate(589,316)" d="m0 0h3l-1 5h-6l2-4z" fill="#3E2F4E"/>
<path transform="translate(475,295)" d="m0 0 4 4v8l2 1h-3l-3-10z" fill="#41363A"/>
<path transform="translate(602,268)" d="m0 0h1l1 8 1 3-2 2-2-5v-7z" fill="#60585B"/>
<path transform="translate(231,249)" d="m0 0h13v1l-9 1v2h-3v-2l-2-1z" fill="#3D2D50"/>
<path transform="translate(361,222)" d="m0 0h3l1 4-6-1-4 2-3-3z" fill="#533540"/>
<path transform="translate(556,211)" d="m0 0h1v9l2 1-5-1v-8z" fill="#4A3F49"/>
<path transform="translate(439,207)" d="m0 0 5 2-3 2-7 2-4-1 8-4z" fill="#F3EBE6"/>
<path transform="translate(634,278)" d="m0 0 1 4-3 10-2-3 2-10z" fill="#5F516A"/>
<path transform="translate(501,221)" d="m0 0h3l1 4-1 1h-5l-1-4z" fill="#3F333D"/>
<path transform="translate(96,501)" d="m0 0 3 1 1 11h-2l-2-9z" fill="#625A5D"/>
<path transform="translate(566,427)" d="m0 0 1 3-3 2h-9v-2l10-2z" fill="#9D9494"/>
<path transform="translate(230,251)" d="m0 0h2v2h3v-2h4v2l4 1-3 1-10-1z" fill="#3D2C31"/>
<path transform="translate(305,241)" d="m0 0h6l-1 4h-10l-5-1v-1l10-1z" fill="#392D2F"/>
<path transform="translate(251,237)" d="m0 0h8v2l2 1h-10z" fill="#4F3942"/>
<path transform="translate(327,228)" d="m0 0h2l-2 6 2 1h-2v9h-1l-1-15z" fill="#5C4D58"/>
<path transform="translate(488,425)" d="m0 0h2v2h-2z" fill="#F2E8E3"/>
<path transform="translate(764,639)" d="m0 0" fill="#FDFDFD"/>
<path transform="translate(766,638)" d="m0 0" fill="#FDFDFD"/>
<path transform="translate(768,636)" d="m0 0" fill="#F2E8E3"/>
<path transform="translate(769,635)" d="m0 0" fill="#F2E8E3"/>
<path transform="translate(646,361)" d="m0 0" fill="#FDFDFD"/>
<path transform="translate(528,308)" d="m0 0" fill="#F2E8E3"/>
</svg>
