<?xml version="1.0" encoding="UTF-8"?>
<svg version="1.1" viewBox="0 0 2048 1536" width="1280" height="1280" xmlns="http://www.w3.org/2000/svg">
<path transform="translate(1431,126)" d="m0 0h16l16 4 19 9 16 11 14 10 27 21 10 8 13 11 14 11 14 12 10 9 11 9 15 13 11 10 11 9 13 12 8 7 7 8 2 4 1 9v6l7 8 10 9 13 12 8 7 13 12 8 7 15 14 8 7 36 33 11 9 9 8 5 7 7 21 2 9 2 24v20l1 2v10l-5 17-10 23-8 11-8 7-26 13-19 7-5-2-9 1-4 1-6-1-22 1-26-3-11-4-11-9-18-18-8-7-7-7-8-7-7-7-8-7-30-28-10-9-12-11-7-7-11-9-5-5h-13l-11-4-10-9-12-11-13-12-8-7-11-10-11-9-12-11-14-11-11-7-7-3h-14l-18 6-21 11-11 7-16 11-17 13-10 9-8 7-17 17-8 10-9 15-8 16-11 24-9 24-12 33-10 29-7 20-4 4-6 4-3 5 1 6 4 15 2 11v20l-3 20-5 17-9 21-8 16-13 23-20 30-13 18-10 14-11 14-16 20-11 13-12 14-9 10-7 9-4 3-5-1-8-7-7-7-7-9 1-5 9-13 12-16 1-4-16-4-15-5-9-1-8 6h-4l-8-7-10-10 1-7 11-26 11-24 9-19-1-1-8 7-9 10-12 17-8 16-4 15 2 10 4 10 8 9 8 7 12 12v7l-5 6-3 2-8-1-24-14-15-9-22-12-29-14-27-11-11-3h-13l-13 4-12 6-3 2-8-1v6l-6 7-7 4-4 8-4 4-10-1-14 8-5 5-5 10h-10l-10 5-8 6-5 10-4 3-7-1-5 2-4 4-6 4-3 1-3 11-4 3-11 1-10 8-5 5-3 9-2 2-11 1-9 8h-2v2l-4 4-4 10-5 2-8 2-10 9-2 3-3 10-4 3h-6l-5 5-5 6-8-1-2 1-4 9-7 8-10 12-9 12-10 13-11 17-12 22-8 17-7 15-14 35-5 10-5 5-6 2-10-1-13-7-13-11-11-9-12-10-2-1h-8l-10 6-7 6-2 4-9 43-5 16-10 9-13 10-21 16-13 10-11 7-16 8-11 3-20 11-16 10-22 14-11 6-5-1-10-8-5-6-4 2-8 7-12 13-11 18-12 19-7 8-13 10-16 10-14 8-15 10-14 8-13 5-15 3h-3v-217l10-11 6-8 6-7 4-2 22-5 8-4-2-7 7-8 9-9 8-7 35-35 5-10 5-6 5-5 9-10 16-13 13-10 16-12 13-9 3-1h22l21 1h24l-1-5-9-11-7-10-3-7v-6l4-6 23-15 10-8 10-9 1-2h2l2-4 16-17 7-8 12-11 17-16 10-8 7-4v-6l11-9 10-9 14-11 13-11 8-7h2l2-4 5-5 9-6 10-9 11-9 10-9 8-6 4-8 3-3 9-3 13-11 11-9 16-13h2l1-10 7-4 9-2 16-13 10-8 14-12 3-9 5-4 11-3 16-12 11-9 12-10 3-9 4-4 13-3 9-7 28-22 6-12 3-3 9-1 5-2 10-7 13-10 14-10 4-10 7-6 5-1 6-1 17-12 12-9 8-7 3-9 7-6 13-2 18-14 12-9 18-13 5-1 4-1 7-8 17-12 18-14 11-9 10-9 8-7 8-8 8-11 6-12 9-27 6-11 9-11 20-20 17-13 16-12 16-11 18-12 20-13 24-15 19-11 29-17 23-13 22-12 28-15 29-15 60-28 27-11 21-7zm-295 556-15 6-3 5-16 35-9 21-9 31-6 26-1 8 4-1 8-13 13-22 9-16 11-23 8-20 7-26 1-11z" fill="#2F2E32"/>
<path transform="translate(1644,296)" d="m0 0 9 2 9 6 5 5 6 5 5 3 4 6 16 15 20 18 12 11 8 7 15 14 8 7 36 33 11 9 9 8 5 7 7 21 2 9 2 24v20l1 2v10l-5 17-10 23-8 11-8 7-26 13-19 7-5-2-9 1-4 1-6-1-22 1-26-3-11-4-11-9-18-18-8-7-7-7-8-7-7-7-8-7-30-28-10-9-12-11-7-7-11-9-5-5-4-1-3-5-6-6v-2l-4-2-5-9-1-4v-12l9-27 11-21 8-12 12-14 7-8 12-13 8-6 12-13 24-16 17-8z" fill="#BBBFB6"/>
<path transform="translate(1154,618)" d="m0 0 4 2 7 14 6 6v2h2l5 5 3 2 1 6 4 15 2 11v20l-3 20-5 17-9 21-8 16-13 23-20 30-13 18-10 14-11 14-16 20-11 13-12 14-9 10-7 9-4 3-5-1-8-7-7-7-7-9 1-5 9-13 12-16 1-4-16-4-15-5-9-1-8 6h-4l-8-7-10-10 1-7 11-26 11-24 9-19 1-6h2l3-10 7-18 16-34 6-12 17-11 11-8 23-13 19-9 5-1 3 3 2 6v11l-3 14-5 20-5 17-5 14v9l-7 24-6 26-2 8 3-1 8-13 13-22 9-16 11-23 8-20 7-26 2-11-4 1 1-3v-23l-1-17 8-8 7-10z" fill="#F85742"/>
<path transform="translate(742,822)" d="m0 0 8 1 8 6 19 19 12 16 2 4-5 4-5 3-4 8-4 4-10-1-14 8-5 5-5 10h-10l-10 5-8 6-5 10-4 3-7-1-5 2-4 4-6 4-3 1-3 11-4 3-11 1-10 8-5 5-3 9-2 2-11 1-9 8h-2v2l-4 4-4 10-5 2-8 2-10 9-2 3-3 10-4 3h-6l-5 5-5 6-9-1-2-4-10-6-14-11-10-7-6-4-10-8-3-4-2-5v-10l6-7 10-6 11-6 22-13 13-9 22-14 16-9 11-8 24-16 19-14 14-8 15-11 11-8 12-10 21-14 13-9z" fill="#FA794D"/>
<path transform="translate(1154,618)" d="m0 0 4 2 7 14 6 6v2h2l5 5 3 2 1 6 4 15 2 11v20l-3 20-5 17-9 21-8 16-13 23-20 30-13 18-10 14-11 14-16 20-11 13-12 14-9 10-7 9-4 3-5-1-8-7-7-7-7-9 1-5 9-13 12-16 2-5 6-5 10-16 7-10 5-10 3-1 1-4h2l1-4 7-11 1-5 3-1 8-13 13-22 9-16 11-23 8-20 7-26 2-11-4 1 1-3v-23l-1-17 8-8 7-10z" fill="#FDE08A"/>
<path transform="translate(901,494)" d="m0 0 1 3h-2l-2 10-4 15-4 17-3 6-6 7-13 10-18 12-14 10-13 10-12 9-21 13-19 14-18 13-30 20-14 10-19 14-12 9-13 8-17 12-4 2v2l-18 13-20 14-19 14-11 8-19 14-10 7-16 11-25 20-11 8-13 9-12 9-13 10-15 12-14 11-13 10-5 4-11 9-15 12-9 7-6 5-2 3-2-1 1-4v-3l11-9 10-9 14-11 13-11 8-7h2l2-4 5-5 9-6 10-9 11-9 10-9 8-6 4-8 3-3 9-3 13-11 11-9 16-13h2l1-10 7-4 9-2 16-13 10-8 14-12 3-9 5-4 11-3 16-12 11-9 12-10 3-9 4-4 13-3 9-7 28-22 6-12 3-3 9-1 5-2 10-7 13-10 14-10 4-10 7-6 5-1 6-1 17-12 12-9 8-7 3-9 7-6 13-2 18-14 12-9 18-13z" fill="#E36D56"/>
<path transform="translate(450,967)" d="m0 0h4l-1 7-6 5-6 8-7 8-1 6 5-1 5-2v-2l11-8 2-1h8l5 3 3 6-2 8-5 8-1 12-3 6-1 4-5 5-2 10-4 2-2-2-4-1 2 12-3 9-4 6-7 8-1 2h-2l-1 6-2 5-2 11-13 18-6 10-6 13-6 7-5 4-7-1-13-8-8-5-6-3v4l-5 1-9-7-26-26-4-5-4-4 1-4 4 1 11 7 8 6 6 1 1-6 6-7 7-8 6-11 1-2h2v-3l3-3 7-8 9-10 7-11 2-10 2-9 4-6h2l2-4 7-7 1-2h2l1-3h2v-2h2l1-3h2l2-4 3-3h2l2-4 7-8h2v-2l14-11z" fill="#4A484E"/>
<path transform="translate(1431,126)" d="m0 0h16l16 4 19 9 16 11 14 10 27 21 10 8 13 11 14 11 14 12 10 9 11 9 15 13 11 10 11 9 13 12 8 7 6 6v2l-6-2-10-6-8-4-1-3-6-2-11-8-3-1-7-8-9-8-11-7-5-5-10-7v-2l-4-2v-2h-3l-4-4v-2l-4-2-4-4-3-1-3-3v-2l-4-2-6-6-3-1v-2l-4-1-9-8-11-9-12-9v-2h-3l-5-5-7-6-10-6v-2l-4-2-8-5-13-8h-3v-2l-10-3-6-2v1l-13 1-10 4-4 3h-4v2l-6 3h-2l-1 3h-3l-1 3-5 1-1 3-5 2-7 3-10 4-4 1h-3l-1 2-4 2-3-2 9-4 10-4 7-3 6-2 3-3-8 4h-5v2l-14 5-18 8-7 4 9-2 2 2-15 4-1 2-12 4-1-3 3-1-5-1v2l-15 6-1 2h-5v2l-6 2h-2v2l-7 2-4 1-1 2-5 2-15 8-7 3-17 9-7 4-7 5-7 3-5 4-16 8-7 4-9 6-12 6-3 1v2l-11 6h-2l-1 3-7 4-12 8h-3l-1 5-5 1-3 3v-2l-5 3-1 3-5 2-1 2-3 3-3 2-5 5-8 1-3 1v2l-5 5 5-2 1 2h-3l-1 3-4 2v-3l-4 1v2l-4 1-8 7h-3v2l-3 1-1 2h-3v2h-3l-1 4-4 4h-2l-1 3h-2v2l4-1v-2l6-5 2-2v3l-11 11-3 1-1 4-1-4 2-3h-2l-2 4-2 3h-2l-2 5 1 7h-2l-1 6-2-1-1-4-5 11-6 18-1 5-7 13h-2l-2 5-7 9-7 6h-2l-2 4h-2v2l-8 7-5 4-6 2v2l-4 1-1 3h-3v2l-6 3v3l2-1-1 4h-3v2l-5 2-5 5h-4l1-2h-3v2h-3v2l-4 2-5 5-4 1v2l-7 2 5-1 8-4 4-4 3 1-5 5-5 3h-2v2l-6 3h-6l-4 10-5 19-2 2 2-11 4-17 5-17h2v-3h5l8-9 17-12 18-14 11-9 10-9 8-7 8-8 8-11 6-12 9-27 6-11 9-11 20-20 17-13 16-12 16-11 18-12 20-13 24-15 19-11 29-17 23-13 22-12 28-15 29-15 60-28 27-11 21-7z" fill="#49474D"/>
<path transform="translate(1817,481)" d="m0 0 9 1 3 2 3 7 1 15v20l1 2v10l-5 17-10 23-8 11-8 7-26 13-19 7-5-2-9 1-4 1-19-2h-6l-5-3-3-5v-13l4-15 3-4 2-9 2-3h3v2l8 2 7-1 2-2v-6l-4-2-5-4 1-7 9-12 5-2 3-4h2l1-4 7-1 6 4 4-1 3 1 7-3 5-6 1-10-3-6 1-5 5-2 3-1 2-4 7-4z" fill="#D4938A"/>
<path transform="translate(353,1201)" d="m0 0h1l-1 11-9 40-4 9-9 8-13 10-21 16-13 10-11 7-16 8-11 3-20 11-16 10-22 14-11 6-5-1-10-8-5-6-4 2-8 7-12 13-11 18-12 19-7 8-13 10-16 10-14 8-15 10-14 8-13 5-15 3h-3v-9l9-4 7-3 11-1v-2l15-6 14-5h2v-2l7-3 6-4 8-4 4-1v-2l5-4 2-8-1-11 1-4v-31l4-6 7-7 1-8-4-4v-4l9-2h14l8 2 8 1 15 1 9 3h6l12-5 11-4 10-7 24-16 2-2 2-12 4-1 14 5 7 1 4-10 4-4 5-2 5-3 8-6 9-8 5-5 6-5h2l2-5 9-9 4-10 5-5 13-10 6-3h3v-2l7-6z" fill="#4A484E"/>
<path transform="translate(594,922)" d="m0 0 2 1-8 5-14 8-17 11-10 7-25 15-11 6-11 7-4 5v10l4 8 12 10 10 6 14 11 10 7 5 3 1 4-6 12-8 8-13 17-12 15-10 15-13 24-9 17-12 28-13 32-4 6-5 3-9 1-9-3-10-6-11-9-13-11-13-10h-8l-10 6-7 6-3 4-2-8-2-7 5-5 5-2 2-6 4-2 8 1 13 8 6 3v2l4 1 6 3v2l5 2 5 3h10l4-5 2-12 3-7 3-6 3-9 6-11 6-9 4-5 4-10 8-11 10-13 12-14 5-6h2l2-4 6-8 5-5 5-6 10-4 4-3h15l2-4v-3l-4-1 1 1 1 2-2 2h-3v-2l-4-1-9-2v-1l3-1 1-4 2-1v-2h-2l-5-6-11-7-11-9-5-6-5-10-2-1-1-4 2-5 5-1 15-10 8-4 11-6 15-9 13-9 16-10 14-8z" fill="#4A484E"/>
<path transform="translate(762,779)" d="m0 0h13l18 4 9 4 11 3 17 9 16 8 15 10 8 6 15 11 11 7 15 11 3 2v2l5 2 9 7 7 5 6 8 4 4 8 4v2l5 1 11 4 1-3h4l2-1 2 1 1-3 9 9v7l-5 6-3 2-8-1-24-14-15-9-22-12-29-14-27-11-11-3h-13l-13 4-12 6-3 2-8-1v6l-2 3h-2l-9-12-8-10-11-11h3l7 6 5 2v-2l5 2-2 4-2 1 4 2 3-1 2-4 5-5 2-3 1-11-3-8-4-5-5-4-10-2-7-4-7-5-5-3-3-4v-6l4-4z" fill="#555359"/>
<path transform="translate(1379,253)" d="m0 0h7l7 3 5 5 4 7 1 9v9l-2 15-1 9-5 12-8 16h-2l-3 9-4 8-5-1-15-10v-2l-9-3-5-3-7-3-8-7-11-9-8-8-5-9-1-5 2-6 2-12 5-8 3-3 11-1 4-2 12-3 7-3 19-3z" fill="#4A484E"/>
<path transform="translate(1231,392)" d="m0 0h10l2 2v7l-3 12-3 5-8 4-3 5-3 10-8 15-4 9-6 11-3 5h-2l-2 6-8 17-8 15-4 13-8 21-9 25-5 16-6 9-3 1-8-5v-2l-5-2-1-6 1-4 1-17 1-5 3-9 2-8 6-18 5-17 6-15 3-4 5-13 3-5 3-8 4-8 5-17 5-5 2-6 5-2 2-4 5-6 5-5 4-2v-2l9-5 5-2 2-4z" fill="#56535A"/>
<path transform="translate(964,501)" d="m0 0 3 1-7 4-4 6-5 5-8 9-6 3-3 3-6 4h-2l-1 4-5 3-6 9-5 4-2 7-3 4-9-2-2 4-5 5-5 1v2l-5 1 1-4h-2v2l-7 3-4 4-5 3-4 3-5 2-4 7-2 1-3 5-8 5-3 2h-3l-2 5-5 6-12 5-7 4-5 6-9 5-9 10-8 4-10 8-6 3-9 8h-2l-1 3h-2v2l-3 1-5 3-8 3-8 6-5 8h-2l-1 3-9 3 1-3 5-5 6-4 7-8 4-2 7-8 1-2h2v-2h2l1-3h2v-2h2v-2l-2-1 4-1 1-2 4-1 4-5h2v-2h2v-2l2-2-5 2v2l-5 3-7 2-8 3-4 5-1 2 8-2-1 3-7 7-6 3-4 4h-2v2l-9 7-3 4h-2v2l-9 4-8 4-2-1 5-5 4-2 2-4 9-7 8-6 1-2-6 1-6 5-1 2h-2l-2 4-14 7-11 9-10 6-3 5 5-1 2-1-1 5-11 11-16 12-15 12-6 5-2-1 5-6 9-9 3-1v-2l7-5 6-2v-2h2v-2l4-4-7 1-4-1v5l-3 1-1 2h-2v2h-2v2l-12 7-7 2-9 5-5 4-5 5-6 4-17 12-11 8-15 11-7 5-9 5-2-1 17-13 14-9 18-14 14-10 12-9 5-5 15-11 19-13 3-3h2v-2l19-14 12-7 14-10 17-13 10-7 17-12 24-16 18-13 15-11 21-13 12-9 10-8 14-10 15-10 14-10 8-7 4-6h2l4-17 3-9 2 2-1 11 3 8h6l-4 6-4 2-1-1v-6h-2l-2 12h-2l-2 5h-2v3l9-1 1-3 7-1v-2l7-3 6-9 8-7 12-8h4l2-5 12-11 4-5z" fill="#2A2629"/>
<path transform="translate(1108,383)" d="m0 0h12l10 4 3 5 1 10-3 13-36 72-7 19-6 8-6 4-11 2-12-3-5-5-2-4-1-7 1-9 8-16 8-17 8-16 8-15 10-21 6-15 8-7z" fill="#FA784C"/>
<path transform="translate(222,1194)" d="m0 0h6l4 4v2l15-5 5 3 2 3-3 5-10 5-10 3-3 9-10 6-6 11h-2v2l-4 3-3 7-3 12-5 2-13-1-7-1-7 3-4 5-12 6-7 5-10 5h-2l-2 5-8 10-5-1-8-11v-2l-3-1-8-10-3-5v-4h5l4 1 10-6 14-8 8-7 1-2h2v-2l8-7 3-3h2l2-4 3-4-1-9-2-6v-6l3-3 5 2 8 6v2l4 2 5 4 2 1h6l-1-6-4-6 1-3 9 3 5 1 7-6 8-4z" fill="#4A484E"/>
<path transform="translate(1751,487)" d="m0 0 6 1 10 6 9 3 3-1 5 10-1 10-3 4h-2l-1 3-9 3-4-2-1 2-6-4-7 1-1 3-6 6-5 3-8 11-1 5 4 2 5 4 1 6-5 4-7-1-6-2v-2l-3 1-2 5-2 7-3 7-3 11v13l3 5 6 2 9 1v1l-14 1-26-3-11-4-11-9-3-4 4 2 10 6 10 3h6l-3-4h-3l-3-3-1-11v-14l5-9 1-14v-6l7-11 5-5 6-10h2l2-6 8-9 8-5 9-6h2v-2l3-2h7z" fill="#D2D2CE"/>
<path transform="translate(1431,126)" d="m0 0h16l16 4 19 9 16 11 14 10 27 21 10 8 13 11 14 11 14 12 10 9 11 9 15 13 11 10 11 9 13 12 8 7 6 6v2l-6-2-6-4-6-7-3-2v-2l-4-1-11-8-10-8-6-5-2-1v-2l-4-2-6-4v-2l-5-2-5-3-3-3-5-4-5-5-6-5-4-4v-2l-4-2-2-4h-3v-2l-4-1-5-5-5-4-11-9-1-3-4-1-5-3-10-10-7-4-5-5-2-1v-2l-6-2-9-6v-2l-5-2-6-4v-2l-6-2-1-2h-3v-3l-4-1-3-1v-2l-5-1-7-2-10-3h-9l-14 2-10 5h-4v2l-9 4-5 1v2l-10 5-7 2-4 1-1 2-9 2-12 6-3 2h-3v2l-8 2-10 4-9 4-5 1v2l-16 8-17 8h-3v2l-4 2h-4v2l-6 2-1 2-6 1-2 2-6 1v2l-7 3-3 2-4 1-1 2-6 3-4 1-1 3-6 1-1 3-6 1-1 3h-3v2l-6 2-3 3-5 2-3 1-3 3-12 6-13 7-1 2-10 5-1 2-9 5-11 7-1 2-11 6-10 6-4 3h-3v2l-4 4-7 2v2l-3 1-5 5-3 2h-3l-1 4-3-2-4 1-3 3h-2l-1 4-6 4h-2v2h-3l-2 4-2 6-3-1-1 3-6 5-4 5-4 4h-2l-1 4-3 3 1 2-3 2-1 5h-2l-3 7-5 2-1 4-1-2 4-12 6-11 9-11 20-20 17-13 16-12 16-11 18-12 20-13 24-15 19-11 29-17 23-13 22-12 28-15 29-15 60-28 27-11 21-7z" fill="#56535A"/>
<path transform="translate(890,519)" d="m0 0h2l-1 11-2 12-7 9-14 11-18 12-14 10-13 10-12 9-21 13-19 14-18 13-30 20-14 10-19 14-12 9-13 8-17 12-4 2v2l-18 13-20 14-19 14-11 8-19 14-10 7-3 2-4 1-5 2-2-1v-2l3-1 4-4h2v-2l5-3 8-6 5-3 4-5 6-4h2l1-3h3v-3l3-1 2-2h4l2-4 9-6h3v-2h2v-2l4-1v-3l8-4 10-8 11-7 5-4 11-9 5-3h2l1-3 10-6 3-3h2v-2h3v-2l5-3 6-5 6-2v-2l8-6 6-2 1-3 10-8 10-7 11-8 6-4h2l1-2 4-3h2l1-6 3-3 1-2 6 1 2-2 3-1 1-2 5-2 7-7h-2l-1-5-1 3-3-3v-2l-3-1 2-1 2-6h3l1-2 2 5v3l4 1 3-1 2-3-1-3h2v-3h3l1-4 6-4 5-1 3-3h2v-2l4-4 6-7 4-6h2v-3h3l1-5 2-4h2l1-4 5-1 2 2h5l1-3 6-1 4 3h4l1-3 5-1 7-5h2l1-2h3l1-5 3-3z" fill="#F7744C"/>
<path transform="translate(252,1080)" d="m0 0h7l5 1v2l12 2 5 1 7 8 6 7 23 23 6 7 5 5 5 6 3 6 1 3h2l1 7-3 3-1 3v10l6 12 2 6-4 3-9-1-9-7-8-11-9-12-5-5v-2l-3-1-4-5v-2l-3-1v-2l-4-2-8-7-10-6-6-5-11-2-5-5-3-6v-17l3-11h2l1-3z" fill="#282427"/>
<path transform="translate(603,748)" d="m0 0 2 1-10 8-19 14-12 9-15 11-11 7-17 13-17 14-15 11-12 9-13 11h-2l-1 3-4 2 1 5-1 3-5 5-3 2-5 2-6 3-3 4h-2v2h-3l-1 3-1-3-7 3-6 4 3 3-2 4h-2l-2 4-3 3h-2v2h-3l-1 3h-2v2l-7 6h-2v2l-9 7-2 3h-2l-2 4-5 5-7 6h-2v2h-2l-1 3-4 4h-2l-1 2-4 3h-2v3h-3l-2 4-4 4 2 1-3 1-1 2-3-1v2l-8 7-3 4h-2v2h-2l-3 6h-2l-2 4h-2l-1 3h-2l-2 4-3 4h-2l-2 4-3 1v2h-2v2l-7 6-5 5-10 9-5 4-10 4 1 8 4 5 2 1-1 3-10-12-6-12v-6l4-6 23-15 10-8 10-9 1-2h2l2-4 16-17 7-8 12-11 17-16 10-8 8-3 2-3h2l1-3 17-13 16-13 5-4 14-11 16-13 12-9 10-8 17-13 16-11 12-9 28-22 15-10 19-14 12-9 14-10z" fill="#4A484E"/>
<path transform="translate(1104,662)" d="m0 0 3 1 3 8v11l-3 14-5 20-5 17-5 14v9l-7 24-6 26-2 13-8 12-1 3-2 1-1 3-4 4-3 7-14 21-6 8-4 3-10-2-22-7-9-1-8 6h-4l-8-7-10-10 1-7 2-5 7 2 11 2 11 4 9 5 4 2v4h2v2l14 3 9 1-1-1v-4l4-4 5 1 4-10 4-9 4-8 2-5-1-7 1-8 3-2 2-10-3 8-1-4 1-6 3-9 4-17 2-9 3-12h1v6l3-2 1-9 3-9 2-7 4-11 3-7 6-11 1-3h2l1-7 3-5 4-11 2-7-1-8-8 1-14 8-19 10-4 1v2l-11 7-4 2v2l-6 3-3 2h-3v2h-2l-2 5-1-2 4-6 15-9 12-9 23-13 19-9z" fill="#E46A51"/>
<path transform="translate(1117,368)" d="m0 0h5l-3 3-8 3h12v3l4-1 12 12 1 3 3-1 1 1v8l-1 7 3 4-1 4-1-5-4 1-4 9-3 5-3 7h-2l1 3-4 8-3 5-2 5-3 7-1-2-2 5 1 2-2 3h-2l-5 7 3 1-3 3-3 12-1 2h-2l-1 6 1 5-2 3h-2l1 2 7 2-2 2h-6l-1 4h7l4-2 3-13 1-3 3 1 1 5-1 9 1 4-4 4-6 1v2l-7-1-7 3-7 6-3 5-5 3-3 4h-3v-2h2l1-6 4-3h3v-2l8-7 2-3-10 5-4 3-8 3-6 3h-7l-2-2h10v-2l4-4 2-1-6-1-10-3-7-2-1-5h-2l-2-9-1-10 1-8-2-4-2-1 1-2 5-1 1-9-1-4 5-8 2-2-1-1-7 10h-2l-1 5h-2v2h-5l-1-2 2-7h-4l-1 3v-6l3 1v-2h8 3l4-5 4-6 4-12 2-5-5-4 1-4 5-3h1v6l-1 1 3 1-3 10 6-5h2v-5l3-1 2-4 4-7 2-5 2-10 2-3h2v-2l-5 2-3 6h-2l2-6 5-5 10-7 12-9 5-5 10-4zm-9 15-8 3-7 8-7 18-10 19-11 22-11 23-8 16-1 10 2 9 4 5 9 3 8 1 10-3 7-6 6-12 6-16 34-68 3-13-1-10-3-5-10-4z" fill="#282427"/>
<path transform="translate(1257,366)" d="m0 0 9 1 5 4 1 8-4 10-6 8-5 5-3 1-2 4-5 8-3 6-7 6-4 2-5 8-4 10-10 17-4 6-1 3h-2l-1 5-6 10-8 15-10 24-6 13-3 13-1 3h-2l-1 6-5 13-5 20-3 5-5 2-4 4-5-3-2-4-9-7-2-3 1-7v-8l-1-5 2-6 10-38 5-16 2-9 3-5 8-16 7-21 6-12 3-11 4-8 1-3h2l2-5 2-3h2l2-5 10-10 6-7 15-11 12-6 10-8 4-2zm-26 26-7 3-1 3-5 2-9 5v2l-4 2-5 5-7 8v2l-5 2-3 7-4 4-5 17-4 8-4 9-4 8-4 11-3 4-7 19-4 13-5 16-4 15-1 4-1 7-1 13-1 5 2 6 4 1 1 3 7 4 4-2 6-10 6-20 5-13 7-20 6-15 2-6 8-16 9-19v-2h2l5-8 4-8 4-9 9-17 3-10 3-4 8-4 4-10 1-13-2-2z" fill="#4A484E"/>
<path transform="translate(1021,715)" d="m0 0h1v7l-14 30-6 16-4 10h-2l-2 5-8 7-9 10-12 17-8 16-4 15h-2v6l-5-2-6-4-4-5-4-6-1-5 3-17 5-12 8-12 10-13 7-10 14-16 11-9 9-8 12-5 4-2v-2h2l1-7z" fill="#0D0C0D"/>
<path transform="translate(264,1069)" d="m0 0h2l2 3-1 5-3 1-20 1-10 5-6 4-11 4-11-2-3-1-10 5h-2l-2 4h-2v2h-3l-2 4h-2l-3 3-9 5-4 1v2l-4 2-4 5-5 1v2l-6 5-1 2-3 1-3 4h-2l-4 7h-4v2 1l-2 6-3 4h-2v2h-2l-2 4h-2l-2 4-6 2-1 4h-2l-1 3h-2l-2 5-3 2h-3l-1 4-3 3-5 3-7 6h-2v2h-3l-2 5-4 6-4 4-4 1-1 2-4 4-4 6-1 3-12 6-11 1-3 4v5l-4 3-9-2v2l4 1-3 1-4 1-5 4h-1v-5l10-11 6-8 6-7 4-2 22-5 8-4-2-7 7-8 9-9 8-7 35-35 5-10 5-6 5-5 9-10 16-13 13-10 16-12 13-9 3-1h22l21 1h24z" fill="#49474D"/>
<path transform="translate(417,1036)" d="m0 0h8l4 3v7l-3 9-5 10-2 6-6 4-3 8-4 4h-4l-3 13-5 8h-2l-3 9-1 7-4 7-4 8-2 2-11 1-6-4-7-6-4-7 1-8 2-6 6-4 7-14h2l2-6 10-12 6-1 5 1-1-8 4-10 4-5 5-1 2-4 7-6 1-3z" fill="#6A686E"/>
<path transform="translate(1205,427)" d="m0 0 5 1 2 3v7l-5 13-5 10v2h-2l-1 4-8 15-7 16-4 11-2 3-2 15-6 14-3 9-11 28-3 11-3 5-5 1-6-4-2-7v-11l2-8h2l1-7 5-13 2-6 6-13 4-10 3-6 3-12 4-8 2-6h2l2-9 1-3h2l1-5 7-15 5-9 7-10z" fill="#717076"/>
<path transform="translate(430,1016)" d="m0 0h14l6 6v6l-5 2-2 10-3 4h-2l-3 9-1 9-6 10-5 8-4 6-3 5-3 9-7 10-7 9-5 13-9 16-4 3-9-2-10-5-11-11-3-1v-2h-3l-4-11 2-7 7-6 1-2h2l2-5 6-12 9-11 6-7 7-6 1-2h2l1-5 7-9 2-4 8-6 4-4 8-7 3-6 7-3zm-13 20-4 2-3 5-7 6v2l-6 2-5 8-2 7 1 7-6-1-6 2-10 13-1 4h-2l-8 15-5 3-3 10 1 6 6 8 8 6 6 1 7-1 4-5 4-9 2-4 2-8 2-7h2l6-10 2-11 5-1 4-4 2-7 6-4 4-9 3-7 3-9v-7l-4-3z" fill="#56535A"/>
<path transform="translate(1244,498)" d="m0 0 1 4-11 23-10 26-13 36-10 29-7 20-4 4-6 4-3 4-4-1-4-3v-2h-2l-8-10-7-13-5 2-4 5-7 9-5 6 1 16v23l-3 4-7 2 1-7 7-1v-16l-2-19 1-5 6-6h2l2-4 5-8v-6l2-2h3l1 3 4 1 9 12 8 10 1 3 6 1 1-3 2-1v-5l-6-7-4-8-2-1-1-4 2-7 6-16 10-20 8-10 5-6 3 1 1 7-2 7-1 6 1 2 3-8 4-7 3-10 4-10v-2l1-1-1-2 3-1 3-7h-2l-1-5 2-3h3l2-4 2 2 6-8 3-6z" fill="#49474D"/>
<path transform="translate(762,779)" d="m0 0h13l18 4 9 4 11 3 17 9 16 8 15 10 20 15-2 1-16-11-14-10-26-14-11-5-14-4-11-3-7-1h-15l-7 1 1 6 5 2 8 5 6 3 23 2 18 4 11 5 9 4 10 4 8 3 11 6 15 9 9 6 1 3-5-1v-2l-6-1-3-3v-2l-11-3-4-2-16-7-4-3-22-7-5-1h-8l-1 4 6 7 5 5 3 2v9l-5 5-6 2v2h-2l-2 4-5 3-8-1v6l-2 3h-2l-9-12-8-10-11-11h3l7 6 5 2v-2l5 2-2 4-2 1 4 2 3-1 2-4 5-5 2-3 1-11-3-8-4-5-5-4-10-2-7-4-7-5-5-3-3-4v-6l4-4z" fill="#4A484E"/>
<path transform="translate(1363,271)" d="m0 0h11l9 3 5 6 2 12-3 14-4 10-4 8-9 2-10-2-8-5v-2l-6-2-4-5-6-5-3-10 2-9 3-5 5-4 3-3 9-2z" fill="#727177"/>
<path transform="translate(256,1083)" d="m0 0h6l10 6 8 1 3 2v2l4 2 7 13 2 9 7 11v2l4 2 3 4v2h2l7 8 8 9 6 18v7l-6-1-6-5v-3h-2v-2h-2l-7-8-5-6-17-17-7-8-10-9-2-1v-2l-5-2-8-7-3-5-2-7v-10l1-3z" fill="#0A090A"/>
<path transform="translate(349,1217)" d="m0 0h2l-2 13-6 25-3 6-9 8-13 10-21 16-13 10-11 7-16 8-11 3-20 11-16 10-22 14-11 6-5-1-10-8-2-4 3 1v2h6l3 1 5-1 1-2 10-5h4v-2l5-3h2l1-3 3-2h3v-2l8-2v-2l10-5 7-3 3-1 2-4 4-6 5-2 9 1 8-3 1-4h2l1-3 6-3 3-2h4l1-4 4-1 1-2 5-4 7-4 2-3h2v-2l8-5 11-3 3-2h4l2-16 4-15 4-5 5-5z" fill="#57545B"/>
<path transform="translate(1109,392)" d="m0 0 9 1 3 2v3l-6 1 1 4 4 2v3l5-4h5l-1 8-9 16-11 21-5 12-8 15-3 8-5 11-2 1-3-2 1-7-2 1-3 8-2 2h-13v2l7 4v2l-3 1-7-2h-4v-6l7-14 3-1 1-7 4-3h2l2 4 4 2 1-7-5-1-1-1v-5l4-2 1-7h6l6 4-1 3-4 3 3 4 4-9 3-4v-4h-6l-5-3-1-4 4-8 1-7 4-3h5l3-1 8 2 4-7 2-6-7 3-8-1-2-4 3-7 2-6 4-4v-5z" fill="#D59289"/>
<path transform="translate(1794,492)" d="m0 0h7l10 9v7l6 1 4 3 3 1-2 5h-3v-2l-2 2 1 5-4 3-7 2v2l-5 3-10 3-6 4-1 2h-2l-1 7h-2l-1 4-2 3h-2l-2 4-6 7-5 2-3-5-3-4-7-2-1-1h-5l-6-7-1-6 6-12 5-4 8 1 1 3 13 2 1 1v5h5l3-2 5-1 7-12 1-3-3-1 2-8v-17z" fill="#727076"/>
<path transform="translate(1324,167)" d="m0 0 2 1-4 4h-2l-2 4-19 9-2-1v2l-12 6-2-1-1 3-6 2-14 7-10 4-7 3-5 5-6 2-1 5-6 3-4 1-1 3-6 1-1 3-6 1-1 3h-3v2l-6 2-3 3-5 2-3 1-3 3-12 6-13 7-1 2-10 5-1 2-9 5-11 7-1 2-11 6-10 6-4 3h-3v2l-4 4-7 2v2l-3 1-5 5-3 2h-3l-1 4-3-2-4 1-3 3h-2l-1 4-6 4h-2v2h-3l-2 4-2 6-3-1-1 3-6 5-4 5-4 4h-2l-1 4-3 3 1 2-3 2-1 5h-2l-3 7-5 2-1 4-1-2 4-12 6-11 9-11 20-20 17-13 16-12 16-11 18-12 20-13 24-15 19-11 29-17 23-13 22-12 28-15 29-15z" fill="#5B595F"/>
<path transform="translate(1365,262)" d="m0 0h11l10 2 5 4 3 5 3 12-1 6-1 16-4 7-4 11-6 9-6 3-14-2-9-5-4-4-7-3v-2l-5-2-4-5-8-7-4-5-1-11 3-8 4-6 10-5 6-4 9-3zm-2 9-14 2-3 1-3 3-5 4-3 5-2 10 3 9 9 8 1 2 6 2v2l11 6 8 1 8-2 5-10 5-15 1-8-2-11-6-7-11-2z" fill="#56535A"/>
<path transform="translate(914,759)" d="m0 0 7 1 6 5 4 14 1 3 4 3 1 4-9 21-5 8-5-1-10-7-11-7-10-9v-2l-4-1-2-3 1-6 10-6 5-5 8-6 6-5z" fill="#4A484E"/>
<path transform="translate(544,1056)" d="m0 0h2l-2 4-11 12-12 16-10 13-11 17-12 22-8 17-7 15-14 35-5 10-5 5-6 2-10-1-13-7-13-11-11-9-8-7h3l12 6 3 3 5 2 7 4v2l4 2 12 3h8v-2h3l1-6h2l2-8 3-1 1-8 3-3v-3l3-3h2v-5l3-7 5-11 2-4 6-9 1-3h2l2-7 8-11 2-4h2l1-4 3-1 1-4h2l1-3h2v-2h2v-5l4-1 4-10h3l1-5 4-6h2l1-3 6-5 5-5 5-4h2z" fill="#57545B"/>
<path transform="translate(1101,665)" d="m0 0 4 1 1 8-2 7-3 8-3 7-4 10-3 4-4 8-3 7-5 12-2 9-2 6-1 9-4 2-1-1-3 9-2 12-3 12-3 9-2 3-4-6 1-14 2-12h2l-1-3 1-7 2-4 2-9 3-12 2-4 4-14h2l1-5 4-9 1-5 3-5 1-6 4-6v-2l2-1 2-7 4-6z" fill="#FA784D"/>
<path transform="translate(146,1353)" d="m0 0 3 1-9 9-8 10-10 16-12 19-7 8-13 10-16 10-14 8-15 10-14 8-13 5-15 3h-3v-9l9-4 7-3 11-1v-2l15-6 14-5h2v-2l7-3 6-4 9-4 6-2 4-3h3v-2l3-3 1-9-2-9v-22l3-6 5-1 4 5 1 5 7 1 4-3h2l1-3 11-9 3-3h2l1-4z" fill="#57545B"/>
<path transform="translate(380,921)" d="m0 0v3h-2l-1 3-5 4-8 8h-2v3l-5 4h-2v3h-4v3l-2 1-1 3h-3v2l-5 3v2h-2l-1 3-9 7-5 6-10 10-4 2-1 4h-2l-2 4-2 3h-2l-2 5-3 3h-3l-2 5-5 3-1 2h-2v2l-6 4-5 3-7 5-1 2-6 2-1 3h-2l-1 3-2 1v7l-3-3-3-7v-6l4-6 23-15 10-8 10-9 1-2h2l2-4 16-17 7-8 12-11 17-16 10-8 6-2h3l5-4z" fill="#57545B"/>
<path transform="translate(734,821)" d="m0 0h3l-2 5-13 9-12 8-14 10-12 10-17 12-11 7-10 6-13 10-30 20-5 4-7 3-15 8-13 8-19 13-7 4h-3l2-4 11-8 5-3 5-4 7-4 8-5h2l1-3h4l1-2 3-2h3l2-4 6-4 5-2 9-11 9-5 7-5 7-2v-2l7-4h2l1-3h2l1-3 7-2 11-8 5-4h3l2-4 9-5 14-11 10-7 6-3h3v-2l6-2 2-4 4-3 7-1z" fill="#2C292C"/>
<path transform="translate(1106,656)" d="m0 0h3l3 4 4-1 5-1 4 3v6h-2l-1 3 1 7-3 3-5-2-8-16-9 1-30 15-14 9-11 8-10 6-5 5-2 4-2 8-2 2-1-4-3 3-2 7h-2v2l-6 4-11 5-11 10-9 7-3 4h-2l-2 4-8 10-10 14-9 12-5 9-4 11-2 16 3 6 2 5 3 1v2l5 2 6 4v-6h1l1 10-7-2-5-4-3-1v-2h-3l-11-11v-2h-2l-3-5 1-4h8l6-17 7-15h2l2-6 5-7 2-4h2l1-4 8-11 7-9 5-6 5-2 1-3 8-4 7-6 8-3-2-5 5-3 5 1v3l4-10 4-5 3-2-3-1 2-4 7-6h2v-2h3l2-4 3 1 7-7 14-9 3-1 2-4 12-4 10-2v-2l9-4 9-3z" fill="#282427"/>
<path transform="translate(880,531)" d="m0 0 2 4-5 7h-3v2h-2l-1 3-5 2v2l-7 3h-3v2l-5 3h-3v2l-10 5-3 1-2 4h-2l-2 4h-2v2l-2 1-1 3-6 5v2l-7 4-6 4-2-1v2l-10 5h-2l-1 3-9 2-1-5-1 3-3-3v-2l-3-1 2-1 2-6h3l1-2 2 5v3l4 1 3-1 2-3-1-3h2v-3h3l1-4 6-4 5-1 3-3h2v-2l4-4 6-7 4-6h2v-3h3l1-5 2-4h2l1-4 5-1 2 2h5l1-3 6-1 4 3h4l1-3 5-1 7-5h2z" fill="#F85742"/>
<path transform="translate(264,1069)" d="m0 0h2l2 3-1 5-3 1h-36l-2 1-22 1-11 1v3l-6 3h-4v4l-5 3-5 5h-4v2l-6 4-1 4-5 3-5 5-10 8-7 8-7 5-5 8-5 5-4 6-6 8h-2l-1 4-7 8-6 5-1 2-4 2-4 5-5 3-5 6-6 3-3 3-5 2-1 8-3-4-1-3 7-8 9-9 8-7 35-35 5-10 5-6 5-5 9-10 16-13 13-10 16-12 13-9 3-1h22l21 1h24z" fill="#5A575E"/>
<path transform="translate(1716,451)" d="m0 0 4 1-2 7-4 2-2 5-6 7-8 6-10 14-2 3h-2l-2 4-8 7-8 14-8 11-6 17-3 8-3 16 1 5 3 5 11 11-1 2-14-14-7-6 2-1 2 1-1-9-1-6 4-18 3-12 4-8 3-2 4-9 8-11 7-10 5-9 5-7h2v-2l9-5 10-8 8-7z" fill="#D2D2CF"/>
<path transform="translate(1025,576)" d="m0 0h11l13 3 21 2 23 7 7 1 12 6-1 7h-2v2l-11 1-1 1h-10l-7-2-14-5-9-4-12-3-21-8-6-3-1-3z" fill="#4A484E"/>
<path transform="translate(429,1021)" d="m0 0h4v2l4 2 1 1v6l-3 4-3 15-5 12-8 15-6 5-3 6h-2v2h-2l-2 11-4 6-6 7-3 9-6 16-5 5-10 1-10-6-7-6-4-5-1-5h-2v-5l3-6 3-4h2l2-4 7-11 2-5 1-3 5-4 1-2h2l2-6 2-2 8-3 2-8h2l2-5 4-6h2v-2h2l2-4 8-6 3-1 1-3 5-3h2l1-6 3-3zm-12 15-4 2-3 5-7 6v2l-6 2-5 8-2 7 1 7-6-1-6 2-10 13-1 4h-2l-8 15-5 3-3 10 1 6 6 8 8 6 6 1 7-1 4-5 4-9 2-4 2-8 2-7h2l6-10 2-11 5-1 4-4 2-7 6-4 4-9 3-7 3-9v-7l-4-3z" fill="#5F5D64"/>
<path transform="translate(385,1078)" d="m0 0 5 2 6 5 1 9-5 6-4 7-2 6-5 11-3 3-4 9-4 2-7-1-7-6-2-5v-7l6-8 4-2 3-7h2l2-4 4-9 7-10z" fill="#727177"/>
<path transform="translate(1416,131)" d="m0 0h8l-5 4-7 3h-4v2l-9 4-5 1v2l-10 5-7 2-4 1-1 2-9 2-12 6-3 2h-3v2l-8 2-10 4-9 4-5 1v2l-16 8-17 8h-3v2l-4 2h-4v2l-6 2-1 2-6 1-2 2-6 1v2l-7 3-3 2h-4v-2l8-4 5-5 9-3 12-6 9-5 5-1 1-2 5-1 7-4h2v-2l5-1 17-9 4-4h2l1-4 27-13 30-13 22-8h9z" fill="#56545B"/>
<path transform="translate(809,815)" d="m0 0h8l18 5 11 4 4 3 14 6 4 2 11 4 6 7 14 8-3 1-17-10-20-10-13-5-4-2-6-1 3 5 7 4 10 3 8 4 5 2v2l5 1 4 3 5 3-1 3-12-3-2-2-10-3-15-2h-13l-13 4-8 3v-2h2v-2l8-4 2-3 1-9-5-2-4-5v-2l-3-1-3-4 1-4z" fill="#57545B"/>
<path transform="translate(836,827)" d="m0 0 9 1 6 3 15 6 9 5 21 12 8 4 1 2 6 2 5 5 11 7 5 5 7 5 5 2v2l3 1 1 3 3 1 4 4 11 7 4 2h8l6-3h2l-2 4-5 4-8-1-24-14-15-9-22-12-29-14-27-11-3-2h7l10 3 2 2 12 3-1-3-12-6v-2l-9-3-9-4-9-3-6-5z" fill="#6B696F"/>
<path transform="translate(1436,130)" d="m0 0h9l11 3 6 2 12 6 1 2 3 1 1 2 5 2 4 4 7 4v2l5 2 10 6v2l4 2 5 4 8 6 7 6v2l5 2 4 2 4 5 8 6 9 7 2 3 3 1v2h3l4 5 6 5v2l4 2 7 6v2l3 1v2l5 2v2l5 2 5 3v2l4 2 6 4v2l5 2 10 9 15 11 3 1 4 4v2l4 2 1 2-9-3-4-3v-2l-6-2-11-8-3-1-7-8-9-8-11-7-5-5-10-7v-2l-4-2v-2h-3l-4-4v-2l-4-2-4-4-3-1-3-3v-2l-4-2-6-6-3-1v-2l-4-1-9-8-11-9-12-9v-2h-3l-5-5-7-6-10-6v-2l-4-2-8-5-13-8h-3v-2l-10-3-6-2v1l-16 1-4-2 4-3z" fill="#49474D"/>
<path transform="translate(68,1344)" d="m0 0h3l4 9 2 12 2 6 1 18-2 7-9 7h-2l-2 4-13 4-11 1-6-3-1-4 4-5 10-5 7-1h8v-24l2-7 1-16z" fill="#4A484E"/>
<path transform="translate(1448,160)" d="m0 0 6 2 2 7 4 2-2 5h7l8-2 12 4 9 7 4 5 5 5 13 9-3 1-6-3-5-5-7-6v-2l-5-2-1-2-7-2-3-1v2h-2l-1 5-2 6h-6v-7l-8 1-1-5-4-2-3-3v-2h-6l3 9-8 2-5-3-5-1-8 4-6 2h-5l3-2 8-4 1-1v-5l-6-2-6-1 2-2 6-1v-2h2l1-7 4-2 3 1h-2v2h2l1 3 7-2 1-2 1 8h5l1-4z" fill="#282427"/>
<path transform="translate(966,848)" d="m0 0 7 2 11 2 11 4 9 5 4 2v4h2v2l14 3 9 1 3 5v2l-5 1-19-6-14-4-7 1-7 6-5-2-16-16 1-7z" fill="#E36B54"/>
<path transform="translate(1108,383)" d="m0 0h12l10 4 3 5 1 10-3 13-36 72-7 19-6 8-6 4-11 2-12-3-5-5-2-4-1-7 1-9 8-16 8-17 8-16 8-15 10-21 6-15 8-7zm-3 2-9 7-5 13-3 7-22 44-11 23-4 8v3l-3 1-1 11 2 7 4 5 5 2 1-3h4l3 5 7-1 8-5 5-6 3-10 3-9 3-10 5-8 8-17 10-21 11-19 3-9-1-10-3-5-7-3z" fill="#EB6B4F"/>
<path transform="translate(86,1288)" d="m0 0 7 1 10 9 7 10 1 3v7l-5 3-21 6-1 3-4 1-3-3 3-18 1-12z" fill="#4A484E"/>
<path transform="translate(1640,293)" d="m0 0h8l11 7 14 11 3 1 1-7h-2v-5l3 4 1 9-1 4-5-2-7-6v-2l-4-2-9-6-9-2-16 4-17 8-20 14-8 7-7 8-10 8-14 15-9 11-6 8-10 16-9 19-7 22v12l4 10 1 3-3-1-4-6v-4h-2l-2-4v-8l4-13 4-10 8-16 5-11 1-6 9-10h2l2-4h2l2-4 3-3h3l1-4 5-5 9-11 8-6h2l2-4 8-11 9-6 6-3 3-3 24-12z" fill="#58565C"/>
<path transform="translate(1109,392)" d="m0 0 9 1 3 2v3l-6 1 1 4 4 2v3l3-1-1 7h-2l-2 5-6 12-9 17-4 10-2-4h-6l-5-3-1-4 4-8 1-7 4-3h5l3-1 8 2 4-7 2-6-7 3-8-1-2-4 3-7 2-6 4-4v-5z" fill="#D59288"/>
<path transform="translate(1363,271)" d="m0 0h11l9 3 5 6 2 12-3 14-4 10-4 8-9 2-10-2-8-5v-2l-6-2-4-5-6-5-3-10 2-9 3-5 5-4 3-3 9-2zm-4 5-10 3-6 5-3 7-1 9 5 7 11 7 8 4 10-2 8-7 1-5h2l2-6 1-7-3-7-4-4-3-2z" fill="#6A686E"/>
<path transform="translate(1794,492)" d="m0 0h7l10 9v7l6 1 3 3v2l-8 1-1 2 1 2h-13l-1 7-5 4 3 2-9 5-5 6-3 3-5-1-6 4-4-1v-5l-4-2-1-3 2-1 1-3h7l1 1v5h5l3-2 5-1 7-12 1-3-3-1 2-8v-17z" fill="#DF6851"/>
<path transform="translate(1818,451)" d="m0 0 4 1 7 21 2 9v8l-2-3-1-3-8-2-22 3-4-1h2v-2l-6 1-5 6h-5l-2-2v-7l4-4 6-1 2-5 3-2 5-1 2-3 6-1 2 5 2 2v4l5 1h9l-7-6-1-4-5-1-2-1v-5l5-2 2 1z" fill="#D2D2CF"/>
<path transform="translate(1220,554)" d="m0 0h2l-1 5-10 28-10 29-7 20-4 4-6 4-3 4-4-1-4-3v-2h-2l-8-10-7-13-5 2-4 5-7 9-5 6 1 16v23l-3 4-7 2 1-7 7-1v-16l-2-19 1-5 6-6h2l2-4 5-8v-6l2-2h3l1 3 4 1 9 12 8 10 1 3 6 1 5-2v-2h2v-9l5-11 3-10 3-12 5-12h2l1-6 1-3h2l1-6h2l1-5 3-8z" fill="#5F5C62"/>
<path transform="translate(1208,420)" d="m0 0 7 1 2 3 1 7-6 16-13 26h-2l-2 7-7 14-5 13-3 5-3 12h-1v-7l2-7 4-9 6-15 10-19 2-4h2l-1-3 8-16 2-6v-7l-2-3-6 1-7 8-4 6-6 10-8 19h-2l-2 9-1 3h-2v5l-4 6-3 9-2 8-3 5-4 12-5 10-3 8-6 18h-1v-6l4-13 6-16 4-9 4-10 1-4 4-12 6-12 4-10 13-26 3-7 4-6 9-10 4-1v-2z" fill="#6A686E"/>
<path transform="translate(1216,412)" d="m0 0 4 1 2 4v8l-2 10-5 11-7 14-3 7-8 13-6 12-4 11-5 9-3 10-2 2v-6l4-10 3-7 9-20 4-8h2l2-5 4-9 6-12 6-16-2-9-7-1h-2v2l-6 4-8 9-4 7-3 7-9 19-3 5-4 12-6 11-3 10-3 9-4 10-7 16-4 15h-1v-7l3-11 4-8 3-7 4-15 2-4h2v-7l7-14 5-12 7-14 2-8 5-10 2-5h2l2-4 6-7 9-7h3v-2z" fill="#5F5D64"/>
<path transform="translate(1e3 391)" d="m0 0h1v12l-7 17-3 1-1 6h-2l-1 3-6 5-8 8h-3l-1 3-3 2-15 15-3 1v2l-6 2-1 3-5 2-5 5h-2v2l-6 2v2l-8 7h-2v2h-3l-1 4h-3l-1 3-7 4 2-7v-2l5-5 9-8 13-9 18-14 11-9 10-9 8-7 8-8 8-11 6-12z" fill="#5B595F"/>
<path transform="translate(770,787)" d="m0 0h14l16 4 17 6 13 5 13 8 8 4 1 4-5 1-24-10-9-4-10-2-13-2-14-2-5-4-3-1-2-4z" fill="#706F75"/>
<path transform="translate(1360,267)" d="m0 0h13l8 1 7 4 3 6v26l-7 18-3 5-6 3h-9l-8-3-7-4v-2l-4-2-11-8-9-10v-11l7-10h2l2-4 9-6zm3 4-14 2-3 1-3 3-5 4-3 5-2 10 3 9 9 8 1 2 6 2v2l11 6 8 1 8-2 5-10 5-15 1-8-2-11-6-7-11-2z" fill="#5F5D64"/>
<path transform="translate(1101,661)" d="m0 0h6l4 7 5 10 6 4 4 5-6 3-9 21-13 28-6 15h-1v-7l6-18 5-16 4-17 3-14v-11l-2-8-10 2-22 11-20 12-15 11-10 6-4 8-1-3 4-7 8-5 17-12 18-11 26-13z" fill="#525055"/>
<path transform="translate(911,780)" d="m0 0 9 2 10 9-1 10-6 11-3 1-8-4-9-7-5-6 3-9 6-6z" fill="#727177"/>
<path transform="translate(1110,381)" d="m0 0h9l11 4 4 4 2 11-1 9-5 13-7 12-11 23-13 26-8 21-6 10-7 5-9 3h-8l-12-4-5-8-1-11 2-9 16-32 7-16 12-22 10-23 4-8 5-4zm-2 2-8 3-7 8-7 18-10 19-11 22-11 23-8 16-1 10 2 9 4 5 9 3 8 1 10-3 7-6 6-12 6-16 34-68 3-13-1-10-3-5-10-4z" fill="#4A484E"/>
<path transform="translate(705,845)" d="m0 0h2v2l-11 8-11 9-17 12-10 7-8 4-5 4h-2l-1 3-11 7-22 15-13 10-13 7-16 10-16 11-11 7-10 6-17 9-10 6-4 3-1 3v10l6 8 8 6 11 7 11 9 5 3v2l5 2 9 7-1 4-2-4-10-6-14-11-10-7-6-4-10-8-3-4-2-5v-10l6-7 10-6 11-6 22-13 13-9 22-14 16-9 11-8 24-16 19-14 14-8 15-11 11-8 12-10z" fill="#E46A52"/>
<path transform="translate(53,1218)" d="m0 0h2l-2 5-4 6-1 3-12 6-11 1-3 4v5l-4 3-9-2v2l4 1-3 1-4 1-5 4h-1v-5l10-11 6-8 6-7 4-2 22-5z" fill="#4A484E"/>
<path transform="translate(66,1434)" d="m0 0m-1 1m-1 1m-3 1h3v3l-3 1-2 4-22 14-15 7-19 4h-3v-9l9-4 7-3 11-1v-2l15-6 14-5h2v-2z" fill="#4A484E"/>
<path transform="translate(970,839)" d="m0 0 2 1v4l10 1 9 3 13 4 10 4 12 4 7 2 4 2-2 4-2 1 1 5-16-2-6-2-2-1v-2h-2v-4l-4-1-3-1v-2l-5-1-3-2-9-3-13-2-4-3z" fill="#FA794D"/>
<path transform="translate(1085,772)" d="m0 0 1 4-7 30-2 13-8 12-1 3-2 1-1 3-4 4-8 11-1-2 5-16 6-18 5-11 9-19 6-13z" fill="#4D4A50"/>
<path transform="translate(321,1272)" d="m0 0 4 1-12 10-16 12-13 10-11 7-16 8-11 3-20 11-16 10-5 2 2-7 7-4 14-7 8-3 7-6h2l2-4 3-1h8l6-3 3-3 9-4 2-2h3l1-3h3v-2l3-2 2-3h3l1-2 5-3 6-7 9-4z" fill="#605E65"/>
<path transform="translate(1324,167)" d="m0 0 2 1-4 4h-2l-2 4-19 9-2-1v2l-12 6-2-1-1 3-6 2-14 7-10 4-7 3-5 5-6 2v2h-4v2l-9 3-9 6-6 1-1 3-11 6-3 2h-4l-1 3-7 4h-6l4-3 15-9 42-24 32-17 18-10 16-8 21-10z" fill="#7E7D80"/>
<path transform="translate(1090,301)" d="m0 0 1 2-6 5-1 6-7 5h-3l-1 4-3-2-4 1-3 3h-2l-1 4-6 4h-2v2h-3l-2 4-2 6-3-1-1 3-6 5-4 5-4 4h-2l-1 4-3 3 1 2-3 2-1 5h-2l-3 7-5 2-1 4-1-2 4-12 6-11 9-11 20-20 17-13 16-12z" fill="#615F65"/>
<path transform="translate(765,784)" d="m0 0h15l9 1 27 9 17 8 16 9 5 5 7 5v2h-8l-13-4-4-3-10-4-11-4-14-3-23-2-12-6-5-4-3-3v-4zm5 3-3 3 2 4 6 3 2 2 14 2 16 3 10 2 25 11 5 2 5-1-1-4-16-9-10-5-16-6-20-6-5-1z" fill="#57545B"/>
<path transform="translate(164,1212)" d="m0 0 5 1 9 8 8 10 7 11 2 6-3 3-6-1-9-6-7-8-6-10-3-10 1-3z" fill="#56535A"/>
<path transform="translate(1168,530)" d="m0 0h2l-3 10-6 18-5 8-5 9-3 6h-2l-1-4-2-1-1-7 5-14 4-10 5-9 3-4 6 1z" fill="#BBBFB6"/>
<path transform="translate(1751,533)" d="m0 0 6 2 3 4v2l4 1 1 5 3 1 7-4 2 1 1-3 1 6-1 2h-2l-1 4-6 8-5 2-2-7v-4l-5 1-3 1-5-2-5-1-3-4 2-8 4-5z" fill="#4A484E"/>
<path transform="translate(594,922)" d="m0 0 2 1-8 5-14 8-17 11-10 7-25 15-11 6-11 7-4 5v10l4 8 12 10 10 6 14 11 10 7 5 3 1 4-3-1-4-4-5-1 1 1 1 2-2 2h-3v-2l-4-1-9-2v-1l3-1 1-4 2-1v-2h-2l-5-6-11-7-11-9-5-6-5-10-2-1-1-4 2-5 5-1 15-10 8-4 11-6 15-9 13-9 16-10 14-8z" fill="#49474D"/>
<path transform="translate(825,821)" d="m0 0 9 1 15 6 11 5 4 2-4 1-18-8-6-1 3 5 7 4 10 3 8 4 5 2v2l5 1 4 3 5 3-1 3-12-3-2-2-10-3-26-3v-1l14-2-1-4-15-6-7-6-1-4z" fill="#605E65"/>
<path transform="translate(908,774)" d="m0 0h10l7 4 6 8 2 2-1 10-3 7-2 7-4 6-5-1-8-6-5-5-9-7-4-6v-6l5-7 7-5zm3 6-5 2-6 6-2 8 7 8 8 6 8 3 4-4 4-8 1-10-7-7-7-3z" fill="#555259"/>
<path transform="translate(1466,132)" d="m0 0 6 2 13 7 23 16 18 14 12 9 11 9 13 11 9 7-4 1-8-6-2-3-4-2-1-2-12-6-3-5-5-4-7-4v-2l-6-2-6-5v-2l-5-2-4-2v-2l-6-2-1-3h-4l-1-3-5-2-2-3-4-1-3-4-10-4-2-1z" fill="#706F73"/>
<path transform="translate(1043,399)" d="m0 0h1l-1 18-2 10-1 4v12l-1 3h-6l-2-2-5 3h-2v7l2 5-8 3-2 5-8 1-2 6-7 6-1 3-9 3-2 7-2 2-9 1-5 4-2-1 4-5h2l1-4 3-1 1 3h4v-6l8-6 4-4 7-3 4-7 2-2h5l2-6 3-3 1-4 3-6 3-3h2v-3l5-3h3v-2h2l-2-4 1-4 3-7v-10z" fill="#282427"/>
<path transform="translate(264,1069)" d="m0 0h2l2 3-1 5-3 1h-36l-2 1-22 1-11 1v3l-6 3h-4v4l-5 3-5 5h-4v2l-8 2v2l-8 4h-3l12-10 19-14 14-10 3-1h22l21 1h24z" fill="#626067"/>
<path transform="translate(90,1298)" d="m0 0h7l4 2v2l4 2 2 5v6l-4 4-11 3h-6l-2-2-1-6 2-9z" fill="#56535A"/>
<path transform="translate(1100,428)" d="m0 0 10 2 2-1-2 5-10 21-2 3-1-4h-6l-5-3-1-4 4-8 1-7 4-3h5z" fill="#D69187"/>
<path transform="translate(473,1166)" d="m0 0h2l-3 9-16 39-4 6-5 3-9 1-9-3-10-6-11-9-12-10 2-1 4 1v3h3v2l4 2 9 7v2l5 1 3 1v2l8 2 7 1 5-3h2l1-3h2l1-5 3-5 3-4 1-4 2-6h2l1-7 6-12 1-3z" fill="#6A686E"/>
<path transform="translate(498,1116)" d="m0 0h2l-2 6-10 18-8 17-5 9-4 1-1 4-4 10-3 8h-2l-2 10-3 4-5 10-8 6-3 1-10-2-4-2 1-2 6 2h10l4-4 1-4h2v-2h2l1-5 8-16v-2h2l1-5 6-16 2-4h2v-4h2l1-4 1-3h2l2-6 2-1 2-4 3-7 6-8h2z" fill="#5F5D64"/>
<path transform="translate(1774,502)" d="m0 0 5 1 3 4 1 9-3 4h-2l-1 3-9 3-8-5-2-5 2-5 8-6z" fill="#FEFEFE"/>
<path transform="translate(694,707)" d="m0 0h6l-5 5-8 4-9 3h-2l-2 5-7 6h-2l-2 4-7 7-9 6-8 5-4 4-5 1-2 7h-7l2-1 1-3 4-1 2-4 10-8 4-1 2-5 6-4 5-4h2v-5l5-3 3-5 9-7 5-1 2-1 6-1z" fill="#282427"/>
<path transform="translate(1452,420)" d="m0 0 3 1v2l5 1 5 4 7 3 4 4v2l4 2 6 2 7 7v3l4 1v2l3 1 2 7v5l-8-6-10-10-8-7-12-11-8-7-5-5z" fill="#504E54"/>
<path transform="translate(931,853)" d="m0 0 5 2 12 8 8 6 2 1 1-2 8 9 4 4-5-2-6-5h-2v4l-7 1-14-7-8-15z" fill="#4A484E"/>
<path transform="translate(1540,369)" d="m0 0 2 1-5 7-2 6-8 13-9 19-7 22v12l4 10 1 3-3-1-4-6v-4h-2l-2-4v-8l4-13 4-10 8-16 5-11 1-6 9-10h2z" fill="#545258"/>
<path transform="translate(1027,471)" d="m0 0h2l-1 11-5 2-2 6-6 3-4 6-5 2-2 4-3 3 1 4h-2l-1 2-2-1-1-2-5 3-3-3 1-9 7-2 2-9h3l-1 5 5-2v-5l4-1 5 2 1-3h5l-1-3h2l2-5h2z" fill="#282427"/>
<path transform="translate(817,606)" d="m0 0 2 4-5 8-6 3-3 5-8 4-8 6-2 4-4-2 2-4h3l-1-2h-4l-1 3h-3l1-3 5-2 1-3 7-6 5-1v-2l8-8 7-3z" fill="#2E2D31"/>
<path transform="translate(1794,492)" d="m0 0h7l10 9v7l4 1-11 2-7 2-6 2-1-2v-17z" fill="#727177"/>
<path transform="translate(976,439)" d="m0 0m-1 1m-1 1m-2 1 2 1-3 5-15 15-3 1v2l-6 2-1 3-5 2-5 5h-2v2l-6 2v2l-8 7h-2v2h-3l-1 4h-3l-1 3-7 4 2-7v-2l5-5 9-8 8-5 7-2 11-9 11-8 6-7 8-7z" fill="#5A585E"/>
<path transform="translate(1143,620)" d="m0 0h4l-1 4-5 8-8 7 1 17 1 6v8h-2v-2l-4-2 1-3h2v-2l-5-1-2-4-3-1v-6l6-6v-4l-2-1 1-3h2l2-5 6-2 1-4z" fill="#242023"/>
<path transform="translate(1105,669)" d="m0 0h1l-1 9-2 5-2 6-3 7-4 10-3 4-4 8-3 7-5 12-2 9-2 6-1 9-4 2 1-12 4-13 8-22 6-14 7-15 2-1 4-10z" fill="#F85742"/>
<path transform="translate(1150,612)" d="m0 0h3l1 3 4 1 9 12 8 10 1 3 6 2-3 1-1 2-13-13-5-6-4-8-5 2-4 5-7 9-5 6 1 16v23l-3 4-7 2 1-7 7-1v-16l-2-19 1-5 6-6h2l2-4 5-8v-6z" fill="#4C4A50"/>
<path transform="translate(896,843)" d="m0 0 5 2 12 9v2l5 2 9 7 7 5 6 8 4 4 8 4v2l5 1 11 4 1-3h4l2-1 2 1 1-3 4 4-3 6-8 2-9-3-7-4v-2l-4-1-9-6-7-5v-2l-3-1v-2h-2l-2-4-2-1v-2l-9-2-3-3-2-4-8-7-8-6z" fill="#4A484E"/>
<path transform="translate(944,886)" d="m0 0 11 4v2l5 2 7 3 6 1 6-1 2-4h3l3 3v7l-9 4h-8l-12-7-7-5v-2l-4-1-1-3-2-1z" fill="#56535A"/>
<path transform="translate(1060,584)" d="m0 0h11l13 4 4 3 2 2-1 6-2 1h-8l-14-7-6-4z" fill="#56535A"/>
<path transform="translate(1179,520)" d="m0 0 1 3-6 15-7 20-6 16-5 16-6 9-3 1-8-5-3-5-1-1 1-17 2-3v15l3 8 5 2h4l2-5 5-16 11-27 3-10 5-12h2z" fill="#56535A"/>
<path transform="translate(1405,132)" d="m0 0 3 1-4 4-7 3-7 1-5 2v2l-6 3-9 4-8 3-27 9-1 2-8 1 4-3 23-11 30-13z" fill="#88888A"/>
<path transform="translate(406,1054)" d="m0 0h6l3 2-1 7-4 5-2 1v11l-5 1-3-3-2-9-3-3 3-8z" fill="#727177"/>
<path transform="translate(1739,568)" d="m0 0h3l1 2v8l-2 5-2 3-1 4 1 4v13l-4-1-3-4-1-13-1-14 4-2 1-3z" fill="#E16A53"/>
<path transform="translate(468,840)" d="m0 0 2 1-2 4-12 9-4 2-1 4-4 1v-2h-2l-2 5-9 9-4 2-3 1-1 3-5 2-5 4-6 2 6-7 6-5h2l2-4 5-5 9-6 10-9 6-5 6 1 4-4h2z" fill="#F17F5C"/>
<path transform="translate(228,1077)" d="m0 0h10l-3 2-6 3-11 2-10 1h-13l-5 4h-2v2l-10 8-5 1-1 3h-3v2l-6 2v-3l4-3h2v-2l5-2 6-6h3v-4l10-3v-3l2-1 31-2z" fill="#56535A"/>
<path transform="translate(314,1110)" d="m0 0h6l13 10 10 11 5 6-1 5-6-2-24-24z" fill="#5C5960"/>
<path transform="translate(363,930)" d="m0 0 2 1-2 5-5 2-4 2-9 9-6 7-4 4-2 3h-2l-1 3-4 2-1 2-5 1v2h-2l-1 4-5 2-15 16-2 1 2-4 16-17 7-8 12-11 17-16 10-8z" fill="#878889"/>
<path transform="translate(1125,406)" d="m0 0h3l-1 6-4 5-4 10-5 9h-2l-3 10-11 23-4 2 3-13h2l1-5 10-21 6-10 4-8h2l1-5z" fill="#FEE18A"/>
<path transform="translate(1090,301)" d="m0 0 1 2-6 5-1 6-7 5h-3l-1 4-3-2-4 1-3 3h-2l-1 4-6 4h-2v2h-3l-1 3-12 8-2-1 11-11 17-13 16-12z" fill="#57545B"/>
<path transform="translate(53,1445)" d="m0 0 4 1-15 10-15 8-13 4-14 2v-4l7-3 15-4 5-2 6-2 13-6z" fill="#57555C"/>
<path transform="translate(911,871)" d="m0 0 2 1v2l9 2 25 15 4 2 4 4 11 7 4 2h8l6-3h2l-2 4-5 4-8-1-24-14-15-9-22-12-2-2z" fill="#828285"/>
<path transform="translate(1079,428)" d="m0 0 1 2-13 26-11 23-4 8-1 3-2 1-1 11 2 7 5 5 3 2 1-4 5 1 1 5-5 1-9-3-4-5-2-10 1-9 8-16 8-17 8-16 7-13z" fill="#E56A52"/>
<path transform="translate(293,996)" d="m0 0 2 1-3 5-6 5-5 9-8 5h-2v2l-9 5h-2v2l-7 3-4 2 1 3h-3v7l-2-3v-6l4-6 23-15 10-8 10-9z" fill="#6A686E"/>
<path transform="translate(1413,354)" d="m0 0 13 4 13 3 5 6 5 8 4 5 1 6-2 4-5-1 4-1-1-8-14-16-5-1-9-2-2 1 4 9 2 3-4-2-5-5-4-5-1-6z" fill="#282427"/>
<path transform="translate(1230,219)" d="m0 0 4 1-1 2-6 3-4 1-1 3-6 1-1 3-6 1-1 3h-3v2l-6 2-3 3-5 2-3 1-3 3-5 1 4-6 3-3 7-3 11-6 1-2 9-4 8-5 7-1z" fill="#57545B"/>
<path transform="translate(1685,516)" d="m0 0h10l3 3v5l-8 9-7-1-2-4v-7z" fill="#D2D2CF"/>
<path transform="translate(113,1150)" d="m0 0v3l-14 14-2 5-3 4-3 1-4 7-5 3-3 3h-2l-1 3-6 4-7 6-6 5v6l-3-4 3-5 13-13 8-7z" fill="#868788"/>
<path transform="translate(53,1218)" d="m0 0h2v2l-3 1-2 3-8 2-6 3-5 2-9 3h-3l-2 4-5 5-9 10-1 2h-2l2-4 8-9 6-8 6-7 4-2 22-5z" fill="#626067"/>
<path transform="translate(115,1152)" d="m0 0 1 3-7 8-1 2h-2l-1 4-7 8-6 5-1 2-4 2-4 5-5 3-5 6-6 3-3 3-5 2-1 8h-1l-1-8 7-6 8-7 5-3 8-8h3l2-4 7-5 5-5 4-8h2l2-4z" fill="#5D5A61"/>
<path transform="translate(1324,167)" d="m0 0 2 1-4 4h-2l-2 4-19 9-2-1v2l-12 6-2-1-1 3-6 2-4 1 1-2h2l1-3 6-2h5v-2h3l1-3h3l2-5 25-12z" fill="#656369"/>
<path transform="translate(1034,556)" d="m0 0 7 2 4 4 8 1 3-1h9l3 4 9 1 5-2h3l-1 3-12 2-7-3h-10l-7 1-1 1h-6l-6-5z" fill="#282427"/>
<path transform="translate(794,802)" d="m0 0h10l16 4 12 6 15 6h4v-4l-5-2-11-6-1-2 6 2 12 7 4 5 5 3v2h-8l-13-4-4-3-10-4-11-4-14-3-7-1z" fill="#58565D"/>
<path transform="translate(1571,208)" d="m0 0 5 3 14 12 10 9 11 9 6 5-3 1-8-4-1-3-4-1-4-5-9-6-1-3-4-2-10-10z" fill="#7A7A7D"/>
<path transform="translate(544,1056)" d="m0 0h2l-2 4-11 12-12 16-7 9-2-4 3-7h3l1-5 4-6h2l1-3 6-5 5-5 5-4h2z" fill="#656368"/>
<path transform="translate(902,494)" d="m0 0 3 1 1 4-2 5v2l5-1 8-4 4-4 3 1-5 5-5 3h-2v2l-6 3h-6l-4 10-5 19-2 2 2-11 4-17 5-17h2z" fill="#4A484E"/>
<path transform="translate(321,1272)" d="m0 0 4 1-12 10-16 12-13 10-3 1v-2h2l1-3h3l1-3h2l2-4 4-1 2-5 7-8 9-4z" fill="#68676C"/>
<path transform="translate(1108,383)" d="m0 0h12l10 4 3 5 1 10-1 6h-2v-11l-3-8-7-3h-16l-8 6-5 13-3 7-8 16h-2l1-5 8-16 6-15 8-7z" fill="#E56A52"/>
<path transform="translate(1431,126)" d="m0 0h16l16 4 3 2h-7l-2-1h-21l-12 1h-8l-4 1-4-2 15-4z" fill="#5D5A61"/>
<path transform="translate(274,1181)" d="m0 0h6l8 11 1 6-4 1-8-4v-2l-5-2-1-5z" fill="#4A484E"/>
<path transform="translate(1103,467)" d="m0 0 1 2-10 21-6 16-6 8-6 4-11 2v-3l8-1 8-5 4-5 3-10 3-9 3-10 5-8z" fill="#E96B50"/>
<path transform="translate(594,922)" d="m0 0 2 1-8 5-14 8-17 11-10 7-25 15-11 6-8 5-2-1 5-4 9-6 9-4 20-12 13-9 16-10 14-8z" fill="#4A484E"/>
<path transform="translate(253,1153)" d="m0 0 6 2 4 5 6 7-1 4-5 2h-9l-1-2h2l1-6-4-8z" fill="#4A484E"/>
<path transform="translate(1518,410)" d="m0 0 1 3-8 24v12l4 10 1 3-3-1-4-6v-4h-2l-2-4v-8l4-13 1-3h2l2-5z" fill="#66646A"/>
<path transform="translate(1e3 869)" d="m0 0h12l7 2 14 2 3 5v2l-5 1-19-6-14-4z" fill="#D5948B"/>
<path transform="translate(131,1341)" d="m0 0 9 1 7 2-1 4-9 1-16 1-3-2 1-5z" fill="#56535A"/>
<path transform="translate(69,1348)" d="m0 0 4 4 3 16v12l-3 3-4-1v-21l-1-8z" fill="#56535A"/>
<path transform="translate(1160,612)" d="m0 0 4 1 12 12v2l3 1 3 5-1 4-4 1-6-8-11-14z" fill="#0A090A"/>
<path transform="translate(92,1304)" d="m0 0h7l4 7-1 5-1 1-11 1-3-3-1-3 2-5z" fill="#727177"/>
<path transform="translate(171,1218)" d="m0 0 5 3 5 4 5 9-1 5-5-1-6-5v-3h-2l-3-7 1-4z" fill="#5E5C63"/>
<path transform="translate(908,778)" d="m0 0h9l9 6 1 3h2l2 3v7h-1l-2-7-8-7-9-2-5 2-5 5-2 8 7 8 7 5 4 2-2 1-8-4-6-5-4-5-2-6 6-10z" fill="#5E5C63"/>
<path transform="translate(1466,132)" d="m0 0 6 2 13 7 23 16 1 3-6-2-8-6-8-3-2-3-4-1-3-4-10-4-2-1z" fill="#767579"/>
<path transform="translate(1143,620)" d="m0 0h4l-1 4-5 8-8 7-2 4-3-2v-2l-2-1 1-3h2l2-5 6-2 1-4z" fill="#282428"/>
<path transform="translate(370,1180)" d="m0 0h11l3 3 4 2v3l-6-3h-8l-10 6-7 6-2 2-1-9 6-3 6-2z" fill="#666469"/>
<path transform="translate(347,1230)" d="m0 0h1l-1 10-5 18-7 8-2-1 1-5 4-9 2-7 5-10h2z" fill="#78777B"/>
<path transform="translate(498,1116)" d="m0 0h2l-2 6-10 18-8 17-4 8h-1v-8l3-4h2l1-5 1-7 2-1 2-4 3-7 6-8h2z" fill="#6F6E73"/>
<path transform="translate(198,1074)" d="m0 0h22l21 1v1l-18 1-6 1-5-1-4 1-13 1-8 6-7 2 5-5 10-7z" fill="#6B696F"/>
<path transform="translate(911,780)" d="m0 0 9 2 10 9-1 10-2 2v-10l-4-5-7-3-6-1-6 5-2 5 1 4 5 7-4-2-6-7 3-9 6-6z" fill="#6A686E"/>
<path transform="translate(240,1323)" d="m0 0 2 2-19 11-16 10h-2l2-7 7-4 14-7 11-4z" fill="#69676D"/>
<path transform="translate(1101,661)" d="m0 0h6v3l-3-1-11 4-25 13-13 8-15 11-10 6-4 8-1-3 4-7 8-5 17-12 18-11 26-13z" fill="#4A484E"/>
<path transform="translate(363 1e3)" d="m0 0h4l2 6h2l-1 3-2 1-2 5-10 5-5 2-6 5-2 3h-2v-5l11-8 9-2v-4l4-1 2-3h-4l-2-2z" fill="#282427"/>
<path transform="translate(1619,249)" d="m0 0 5 3 13 12 11 9 4 5-4-1-7-3-5-5-3-2v-2l-4-1v-3l-3-1v-2l-3-1-3-5z" fill="#747377"/>
<path transform="translate(1738,576)" d="m0 0 1 4-2 10h2v17l-4-1-3-4-1-11h2l2-9z" fill="#4E4C52"/>
<path transform="translate(25,1236)" d="m0 0m-5 1h5l-2 4-1 7-4 3-9-2v2l4 1-3 1-4 1-5 4-1-3h2l2-4 5-6 6-1 4-4z" fill="#49474D"/>
<path transform="translate(313,977)" d="m0 0 1 2-4 6h-2v2h-2l-2 5-3 2-2 5-5 5-5 6-5 5h-2v2l-2-1 6-10 7-6 3-5 9-9 7-8z" fill="#636168"/>
<path transform="translate(984,858)" d="m0 0 6 2 6 4-2 1v5l-9 7h-4l-7-6 4-1 6 1 7-2v-2l-5-2v-2h-2z" fill="#89797B"/>
<path transform="translate(1801,518)" d="m0 0 12 1v5l-10 5-7 2-4-1 3-3 3-1 1-7z" fill="#4A484E"/>
<path transform="translate(938,860)" d="m0 0h6l4 5 5 4v6h-7l-7-8z" fill="#59575E"/>
<path transform="translate(95,1419)" d="m0 0 3 1-14 10-22 13h-2l1-3h3l1-4 6-5 9-4 6-2 4-3h3v-2z" fill="#4E4C52"/>
<path transform="translate(1727,553)" d="m0 0 5 1 5 6-1 4-1 1h-7l-5-2-1-5z" fill="#FEFEFE"/>
<path transform="translate(178,1087)" d="m0 0 2 1-1 2 4-2v3l-5 3-5 5h-4v2l-8 2v2l-8 4h-3l12-10z" fill="#646269"/>
<path transform="translate(349,1217)" d="m0 0h2l-2 13h-2v4h-2l-1 4-3 6-3 9-2 7h-2l1-9 4-12 4-9 2-3h2z" fill="#5F5D64"/>
<path transform="translate(1125,404)" d="m0 0h5l-1 8-9 16-11 21-5 12-3 5-2-1 9-19 4-10h2l2-6 4-7 3-8 4-5 1-4-3 1-2 2 1-4z" fill="#D79589"/>
<path transform="translate(44,1224)" d="m0 0h4v2l-10 5-10 4-4 3-4-1-1 4-2 1-2 3h-5l6-7 3-4 12-4 5-2z" fill="#56535A"/>
<path transform="translate(1171,249)" d="m0 0 2 1-3 1-2 4-6 3-13 8-4 4h-3v2l-5 2h-4v2l-7 2 4-4 20-12 16-10z" fill="#79787C"/>
<path transform="translate(123,1184)" d="m0 0 3 2 2 5v13l1 6-1 2h-2l-1 3-2-1 2-3v-19l-3-3-6 2-10 6-1 2-7 4-2-1 13-10 5-4z" fill="#282427"/>
<path transform="translate(948,890)" d="m0 0h2v2h3l5 5 3 1v2l10 2 3 2 7-1 2-5 3-3 1 1v7l-9 4h-8l-12-7-7-5v-2l-4-1z" fill="#636168"/>
<path transform="translate(1099,336)" d="m0 0 2 1-10 11-6 4-10 9-6 4-11 11v-3l4-5h2l2-4 8-7 7-6h2l1-3 8-5 4-5z" fill="#282427"/>
<path transform="translate(971,441)" d="m0 0 2 1-14 14-7 6-9 7-10 8h-5l5-5 20-15 10-9z" fill="#818183"/>
<path transform="translate(1064,319)" d="m0 0 2 1-3 5h-2l-1 4-6 4h-2v2h-3l-1 3-12 8-2-1 11-11 17-13z" fill="#76767A"/>
<path transform="translate(473,1166)" d="m0 0h2l-3 9-12 30-2-3 2-4v-7l1-2h2l1-7 6-12 1-3z" fill="#747377"/>
<path transform="translate(1362,154)" d="m0 0 4 1-5 1v2l-7 1v2l-10 2-1 2-7 1v2l-13 5-3-1 5-2 1-3 8-1 1-3 6-2z" fill="#646268"/>
<path transform="translate(388,1188)" d="m0 0 4 2 10 4 4 4 5 2 7 4v2l3 1 1 3 3 3h-3l-4-1-5-5-8-6v-2h-3v-3l-7-1-7-6z" fill="#5E5C62"/>
<path transform="translate(293,996)" d="m0 0 2 1-3 5-6 5-3 5-5 4h-3v2h-3v2l-5 3h-4v2l-6 1 4-4 11-7 10-8 10-9z" fill="#8C8D8E"/>
<path transform="translate(746,818)" d="m0 0h5v3l5-1 4 2 4 7 3 3 1 4-4-2-5-3-6-7-5-2h-9v-2z" fill="#2B282B"/>
<path transform="translate(1256,280)" d="m0 0v3l-5 4-7 3-9 4-4 2h-3v-2h2v-2l21-11z" fill="#282427"/>
<path transform="translate(1042,543)" d="m0 0 9 1 4 3h9 3l-1 2-7 2-7-1-6-2h-4l-1 2-4 1-4-2 3-3z" fill="#282427"/>
<path transform="translate(1154,618)" d="m0 0 4 2 7 14 6 6v2h2l5 5 3 2-1 1h-5l-3-3v-2h-2v-2h-2l-7-10-6-12-5 3-3 2 2-4z" fill="#D99181"/>
<path transform="translate(1652,278)" d="m0 0 4 2 16 15 3 3v2l-6-2-6-4-6-7-3-2z" fill="#57555B"/>
<path transform="translate(101,1276)" d="m0 0h2v2l6 2 1 3h2v3h2l5 9-1 3-6-4-2-5-3-1-4-7z" fill="#55535A"/>
<path transform="translate(945,862)" d="m0 0 4 2 9 6 1-2 8 9 4 4-5-2-6-5h-2v4l-7 1-4-2v-2h6l-2-7-6-5z" fill="#535257"/>
<path transform="translate(1450,130)" d="m0 0h7l9 2v4l6 2 7 3 2 4 5 1-4 2-4-2-1-2h-3v-3l-4-1-3-1v-2l-5-1-7-2-5-2z" fill="#57545B"/>
<path transform="translate(566,777)" d="m0 0m-1 1m-1 1m-1 1v3l-10 8-17 12-9 5-2-1 17-13 14-9z" fill="#282427"/>
<path transform="translate(1366,147)" d="m0 0 3 1-4 2-4 4-5 1-3 3-18 6-1 2-8 1 4-3 23-11z" fill="#838385"/>
<path transform="translate(203,1346)" d="m0 0 2 1-17 11-11 6-5-1-2-2h6l6-3h2l2-5 6-4 8-2z" fill="#6E6C72"/>
<path transform="translate(70,1200)" d="m0 0h2l-1 5-4 5-5 6-4 1-1 2h-2l1-3h2v-8l5-3h2z" fill="#4C4A51"/>
<path transform="translate(1162,610)" d="m0 0 5 3v2l-4-2h-3l2 4 10 13 5 7 3 2-1 2h-4l-4-7-5-6-9-12 2-5z" fill="#282427"/>
<path transform="translate(38,1456)" d="m0 0 2 1-16 8-15 4-9 1v-2l12-3h3v-2l13-4 8-2z" fill="#706F74"/>
<path transform="translate(770,787)" d="m0 0h14l8 2v1l-17-1-2 3 5 4 26 5v1h-10l-7-2-10-1-5-4-3-1-2-4z" fill="#6A686E"/>
<path transform="translate(976,439)" d="m0 0m-1 1m-1 1m-2 1 2 1-3 5-15 15-3 1v2l-6 2-1 3-3-1 6-5 1-3 6-4 6-7 8-7z" fill="#57555C"/>
<path transform="translate(396,1195)" d="m0 0 6 1v3h3v2l4 2 9 7v2l5 1 2 4 5 2 2 1-1 2-11-6-13-11-11-9z" fill="#909191"/>
<path transform="translate(1133,644)" d="m0 0 2 1 1 12v23l-3 4-7 2 1-7 7-1v-16l-1-6z" fill="#535157"/>
<path transform="translate(1e3 391)" d="m0 0h1v12l-4 8-4 2-2 7-2 3-4 2-3 4-2-1 10-13 6-12z" fill="#7F7F81"/>
<path transform="translate(1539,182)" d="m0 0 7 4 11 10 14 11-4 1-8-6-2-3-4-2-1-2-6-3-1-3-4-2v-3h-2z" fill="#878788"/>
<path transform="translate(863,833)" d="m0 0 5 2 11 4 6 7 14 8-3 1-17-10-12-6-4-4z" fill="#59575E"/>
<path transform="translate(1139,565)" d="m0 0h1l-1 18 4 8 4 1 4-5 5-16 3-6 1 3-5 14-3 8-2 4-5 1-6-4-2-7v-11z" fill="#6A686E"/>
<path transform="translate(1422,396)" d="m0 0 5 1v2l4 1 4 4v2l5 1 5 5 5 2 1 7-8-6-11-10-10-8z" fill="#59575C"/>
<path transform="translate(277,1306)" d="m0 0 4 1-8 5-16 8-11 3-4 1 2-4 5-3 14-3 11-6z" fill="#767579"/>
<path transform="translate(323,1117)" d="m0 0 5 1 8 7 4 5 1 4-5-1-5-5-8-9z" fill="#6A686E"/>
<path transform="translate(1140,550)" d="m0 0h1v9l-2 10h-2l-1 20 3 4-5-2-1-6 1-4 1-17 1-5 3-8z" fill="#58555C"/>
<path transform="translate(1230,219)" d="m0 0 4 1-1 2-6 3-4 1-1 3-6 1-1 3-6 1-3-1v-2l9-4 8-5 7-1z" fill="#57545B"/>
<path transform="translate(834,804)" d="m0 0 6 2 12 7 4 5 5 3v2h-8l-9-3v-2l-2-1 9 1v-4l-5-2-11-6z" fill="#5D5B62"/>
<path transform="translate(1568,256)" d="m0 0 6 1 1 4h4l-1-4 6 5-4 2 1 4-1 5-2-1v-5l-2-3-4-2-10-2-2-1 1-2h6z" fill="#282427"/>
<path transform="translate(1294,181)" d="m0 0 2 1-2 3-3 1-1 2h-3v2l-11 3-4 5-6 2h-3-3l4-3 20-11z" fill="#858687"/>
<path transform="translate(1179,520)" d="m0 0 1 3-6 15-7 20-4 3 1-5 4-10 3-10 5-12h2z" fill="#58565D"/>
<path transform="translate(1480,342)" d="m0 0 4 2 1 2-4 8-4 3-3-1v-7l2-3h2v-3z" fill="#4A484E"/>
<path transform="translate(1150,612)" d="m0 0h3l1 4 2 2-8 6-6 9-7 7-2 4-1-5 7-7h2l2-4 5-8v-6z" fill="#504E54"/>
<path transform="translate(1324,167)" d="m0 0 2 1-4 4h-2l-2 4-6-1v2l-8 2v2l-7 1-1-2 25-12z" fill="#868688"/>
<path transform="translate(1044,502)" d="m0 0h2l2 9 5 5 12 3 10-1v2l-6 2h-8l-12-4-5-8z" fill="#4C4A50"/>
<path transform="translate(797,788)" d="m0 0 17 5 19 9 1 2-4-1-13-5-20-7-5-1v-1z" fill="#59565D"/>
<path transform="translate(1714,574)" d="m0 0 3 1v10l-4 7h-4v-7l3-8z" fill="#FEE189"/>
<path transform="translate(94,1203)" d="m0 0 2 1-12 12-2 3h-2v2h-2v2h-2v2l-9 7-1 1-1 9-2-3 1-7 5-5 6-5 5-5 6-7 6-5h2z" fill="#282427"/>
<path transform="translate(482,1143)" d="m0 0 1 3-3 7-4 4-1 9-4 1-1 4-3 1 1-4 4-10h2v-4h2l1-4 1-3h2z" fill="#626066"/>
<path transform="translate(1425,153)" d="m0 0 3 1-10 6-7 9-5 4h-2l-2 4-6 7-6 2 6-7 18-18 4-5z" fill="#282427"/>
<path transform="translate(1373,144)" d="m0 0 7 1 5-1-5 4-7 2-7 4-11 3 2-4 6-1 2-3 3-1 3-3z" fill="#79787C"/>
<path transform="translate(92,1302)" d="m0 0h6l5 5 2 3-1 6-5 3h-11l-3-3 1-8 5-5zm0 2-5 5-1 4 2 4 5 1 8-1 2-4-1-5-3-4z" fill="#5F5D64"/>
<path transform="translate(468,840)" d="m0 0 2 1-2 4-12 9-4 2-1 4-4 1v-2l-2-1 13-12 4 1 4-4h2z" fill="#F8774D"/>
<path transform="translate(458,1205)" d="m0 0 1 2-5 10-5 5-6 2-10-1 2-2 10-2 6-4 3-5z" fill="#848486"/>
<path transform="translate(1046,501)" d="m0 0 2 1 2 7 5 5 3 2 1-4 5 1 1 5-5 1-9-3-4-5-1-3z" fill="#E56A52"/>
<path transform="translate(409,1011)" d="m0 0 3 1-1 3h-2l-2 6-5 5h-4l-1-3 3-4h2l2-4z" fill="#56535A"/>
<path transform="translate(1070,319)" d="m0 0 2 1-1 4-7 4-5 5h-2v2l-8 5-3-1 3-4h3v-2l8-5 1-3 6-5z" fill="#56535A"/>
<path transform="translate(92,1304)" d="m0 0h7l4 7-1 5-1 1-11 1-3-3-1-3 2-5zm2 2-5 5v3h2v2h7l3-2-1-5-4-3z" fill="#6A686E"/>
<path transform="translate(1137,569)" d="m0 0 1 4v11l3 8 5 2h4l2-5 1 2-3 6-7 1-4-3-3-5-1-1 1-17z" fill="#5D5B62"/>
<path transform="translate(975,525)" d="m0 0v3l-2 4-9 3-6 5-7 2 2-4 7-3 10-9z" fill="#282427"/>
<path transform="translate(1571,208)" d="m0 0 5 3 7 6 3 5 10 8 1 3-5-2-5-4v-2l-4-2-10-10z" fill="#717075"/>
<path transform="translate(115,1152)" d="m0 0 1 3-7 8-1 2h-2l-1 4-7 8-6 5-1 2-3-1 4-5 5-5 5-4 3-7h2l2-4z" fill="#56535A"/>
<path transform="translate(1821,512)" d="m0 0 3 1-2 5h-3v-2l-2 2 1 5-4 3-3-1 1-1v-5l-3-2 3-3 8-1z" fill="#757176"/>
<path transform="translate(1651,297)" d="m0 0 5 1 16 12 4 2 1-7h-2v-5l3 4 1 9-1 4-5-2-7-6v-2l-4-2-9-6z" fill="#6A696E"/>
<path transform="translate(1798,500)" d="m0 0 7 1 1 4-1 2-11 3 1-9z" fill="#4A484E"/>
<path transform="translate(1125,453)" d="m0 0 3 1 2 4-1 4-7 3-1 2h-2l-1-3 5-9z" fill="#282427"/>
<path transform="translate(1213,529)" d="m0 0 3 1-1 3v-2l-4 2 3 1-1 3h-3l-1 2-4 2-7 11-2-1 2-4 4-7 6-8z" fill="#48464C"/>
<path transform="translate(1547,193)" d="m0 0 6 2 1 2 5 3 5 5 7 3 6 8 2 3-4-2-5-5-4-2v-2l-4-2-5-3-10-9z" fill="#605E65"/>
<path transform="translate(1102,451)" d="m0 0h3l1 2-9 17h-3l3-12h2l1-5z" fill="#FCDF89"/>
<path transform="translate(1348,175)" d="m0 0 4 2-15 4-1 2-12 4-1-3 3-1v-2l9-4h8z" fill="#3D3B40"/>
<path transform="translate(678,695)" d="m0 0 2 1-15 10-10 7-14 11-2-1 3-3h2v-2l19-14 12-7z" fill="#4A484E"/>
<path transform="translate(1786,419)" d="m0 0 8 6 2 3-10-2-13-1 1-3 4-1h8z" fill="#D3D3D0"/>
<path transform="translate(1602,240)" d="m0 0h3l2 3 11 4 4 6 1 4-4-2-11-8v-2l-4-2z" fill="#656369"/>
<path transform="translate(729,714)" d="m0 0 5 1-6 8-5 1-4-1 1-4z" fill="#282427"/>
<path transform="translate(1163,630)" d="m0 0 15 15 4-1 1-3 4-1v-2l5-3 2 1-4 4-6 4-3 4-4-1-4-3v-2h-2l-8-10z" fill="#717076"/>
<path transform="translate(1408,132)" d="m0 0h8l-3 3-15 6-5 3h-8l5-4 10-2 4-1 1-3z" fill="#636168"/>
<path transform="translate(836,591)" d="m0 0 5 1-3 3-11 7-4 3-2-1 4-5h2l2-5z" fill="#2F2E32"/>
<path transform="translate(142,1115)" d="m0 0v3l-4 4h-2v2l-5 5-5 7-6 3 2-4 5-4 6-8zm-23 24v3l-2 6h-3l4-8z" fill="#7B7B7E"/>
<path transform="translate(1475,442)" d="m0 0 7 2 6 8 4 1v3h3v4h3l1 4-6-4-9-9-8-7z" fill="#77777A"/>
<path transform="translate(1112,432)" d="m0 0 1 4-6 15-4 2-1-5 6-10h2l1-5z" fill="#FEEAAD"/>
<path transform="translate(69,1348)" d="m0 0 4 4 1 3v11l-4-1-2-12z" fill="#58555C"/>
<path transform="translate(1639,295)" d="m0 0h9l3 2h-7l-16 4-15 7-2-1 17-9z" fill="#706F75"/>
<path transform="translate(1241,212)" d="m0 0 2 1-7 4h-2v2h-4v2l-9 2 2-4 9-5z" fill="#706F74"/>
<path transform="translate(984,858)" d="m0 0 6 2 6 4-2 1v5l-3-1v-2l-5-2v-2h-2z" fill="#4A484E"/>
<path transform="translate(1060,801)" d="m0 0h1v6l-2 9-1 7h-1l-1-4-2 9h-1l-1-9 3-8 2 2z" fill="#F96B48"/>
<path transform="translate(1783,511)" d="m0 0h2l-1 7-5 7-5 3h-6l-4-2v-2l6 1 7-3 5-6z" fill="#FBE08D"/>
<path transform="translate(1619,249)" d="m0 0 5 3 11 10-1 3-5-1v-3l-3-1v-2l-3-1-3-5z" fill="#7B7B7E"/>
<path transform="translate(120,1387)" d="m0 0h2l-2 5-10 16-2 1 2-10 4-4h2l2-5z" fill="#6B6A6F"/>
<path transform="translate(264,1069)" d="m0 0h2l2 3-1 5-3 1-38-1v-1l39-1z" fill="#77767A"/>
<path transform="translate(313,977)" d="m0 0 1 2-4 6h-2v2h-2l-2 5-8 7-2 1 1-4 10-10 7-8z" fill="#6B6A70"/>
<path transform="translate(1507,457)" d="m0 0 5 2 3 5 4 5-1 3v-2l-5-1-6-7z" fill="#282427"/>
<path transform="translate(100,1284)" d="m0 0 5 2 3 5 6 9-1 3-4-4-3-5-6-5-1-4z" fill="#282427"/>
<path transform="translate(352,941)" d="m0 0v3l-7 8-3 5-8 7-4 2 1-3 9-9z" fill="#5E5C63"/>
<path transform="translate(946,479)" d="m0 0 1 3-4 1v2l-5 2-5 5h-4l4-6h2v-2l8-4z" fill="#3E3C41"/>
<path transform="translate(1105,385)" d="m0 0h16l8 4 3 8v6l-2-4-3-7v-2l-10-3-12-1z" fill="#F95742"/>
<path transform="translate(1555,355)" d="m0 0 2 1-10 11-10 13-1-3 5-7 3-5 3-3h3l1-4z" fill="#5B5A60"/>
<path transform="translate(1489,145)" d="m0 0 5 2 15 11v2l-6-2-8-6-5-3z" fill="#898A8B"/>
<path transform="translate(21,1228)" d="m0 0v3l-3 6-4 5-5 5-7 8h-2l2-4 8-9 6-8z" fill="#848485"/>
<path transform="translate(922,480)" d="m0 0 1 3-11 11h-3v2l-4-1 5-5 9-8z" fill="#7A7A7D"/>
<path transform="translate(178,1087)" d="m0 0 2 1-3 4-7 4-8 6-1 3-8 4h-3l12-10z" fill="#8F9090"/>
<path transform="translate(1088,501)" d="m0 0 1 3-6 9-7 5-11 2v-3l8-1 8-5 4-5z" fill="#E56A52"/>
<path transform="translate(1525,396)" d="m0 0 1 2-6 12h-2l-2 7-4 6-1-3 8-17z" fill="#5C5B61"/>
<path transform="translate(1124,278)" d="m0 0 2 1-2 4-9 6-6 2-5 1 5-4z" fill="#808082"/>
<path transform="translate(915,866)" d="m0 0h3v2l9 3v2h2v2l4 2v2l4 2 5 3-3 1-11-8-4-4-9-6z" fill="#5F5D64"/>
<path transform="translate(1644,572)" d="m0 0 2 2 1 4 3 5 11 11-1 2-14-14-7-6 2-1 2 1z" fill="#D4D4D1"/>
<path transform="translate(1431,126)" d="m0 0h16v1l-26 2v2l-9 2-4-2 15-4z" fill="#8B8C8C"/>
<path transform="translate(147,1162)" d="m0 0 6 3-1 2h-1v11l3 2-1 3-5-5-1-2v-8l-1-5z" fill="#282427"/>
<path transform="translate(944,886)" d="m0 0 11 4v2l5 2 4 5-1 2-2-1v-2l-4-1-4-3v-2h-3v-2l-3 1-3-3z" fill="#5B5960"/>
<path transform="translate(1748,579)" d="m0 0 7 4-3 10-3 1z" fill="#727177"/>
<path transform="translate(1090,301)" d="m0 0 1 2-6 5-1 2-7 4-4-1 15-11zm-19 13 2 1-4 2zm-4 3 2 1h-3z" fill="#848486"/>
<path transform="translate(1248,207)" d="m0 0 3 1-3 6-7 3-3 2h-4v-2l8-4 5-5z" fill="#58565C"/>
<path transform="translate(473,1166)" d="m0 0h2l-3 9-6 15h-1v-6l3-6v-6l3-5z" fill="#858587"/>
<path transform="translate(185,1148)" d="m0 0 4 2v6l-6 1-4-4 1-3z" fill="#282427"/>
<path transform="translate(913,778)" d="m0 0 6 1 8 6v2h2l2 3v7h-1l-2-7-8-7-8-2z" fill="#5F5D64"/>
<path transform="translate(971,441)" d="m0 0 2 1-14 14-7 6-2-1 6-7 11-9z" fill="#7E7E80"/>
<path transform="translate(388,1188)" d="m0 0 4 2 10 4 7 6 2 4-6-3v-2h-3v-3l-7-1-7-6z" fill="#67656A"/>
<path transform="translate(1220,554)" d="m0 0h2l-1 5-6 17h-1l1-12 3-8z" fill="#6C6B6F"/>
<path transform="translate(95,1419)" d="m0 0 3 1-14 10-8 5h-2l1-3h3v-2l3-1 1-2 7-4 4-1v-2z" fill="#706E73"/>
<path transform="translate(262,1312)" d="m0 0 2 1-1 2-16 4-6 5-4 1 5-5 3-1 2-4 3-1h8z" fill="#5F5D64"/>
<path transform="translate(118,1309)" d="m0 0 5 4 2 5h2l1 5h-4l-3-5-2-4v-3l-2-1z" fill="#282427"/>
<path transform="translate(153,1108)" d="m0 0v3l-2 4-8 5-3 1 2-4 1-3 5-4z" fill="#6B696F"/>
<path transform="translate(296,1049)" d="m0 0v3l-8 9-8 4-11-1v-2l3-1 9 1 6-4 5-5z" fill="#282427"/>
<path transform="translate(255,1026)" d="m0 0 2 1-4 3v4l-4 1 1 3h-3v7l-2-3v-6l4-6z" fill="#828284"/>
<path transform="translate(494 1e3)" d="m0 0 3 1 7 8 6 4-1 2-10-5-5-6z" fill="#282528"/>
<path transform="translate(984,903)" d="m0 0h2l-2 4-5 4-8-1-1-3 11-2z" fill="#7E7D80"/>
<path transform="translate(484,1143)" d="m0 0h2l-2 6-8 16h-1v-8l3-4h2l1-5 1-2h2z" fill="#838385"/>
<path transform="translate(771,785)" d="m0 0 13 1v1l-16 1 1 6 5 1 2 3-7-2-4-5 1-4z" fill="#5F5D64"/>
<path transform="translate(1450,130)" d="m0 0h7l9 2 1 5-5-1-7-2-5-2z" fill="#5A575E"/>
<path transform="translate(13,1317)" d="m0 0 1 3v4l12-1 4 2-16 2-3-2v-6z" fill="#282427"/>
<path transform="translate(429,1024)" d="m0 0 5 2 1 4-3 2-6-1-1-3h2v-3z" fill="#6A686E"/>
<path transform="translate(1235,517)" d="m0 0h2l-2 6-7 17-1-3 2-9 4-8z" fill="#706F73"/>
<path transform="translate(1091,439)" d="m0 0 5 1-1 8-3 1-3-3 1-6z" fill="#FB794D"/>
<path transform="translate(848,549)" d="m0 0 4 1h-3l1 3-3 4-5 1-4-3 4-2 1-2z" fill="#E56A52"/>
<path transform="translate(1220,221)" d="m0 0 2 1-5 5-8 4-7 1 4-3z" fill="#858587"/>
<path transform="translate(1579,219)" d="m0 0 8 6 5 5 7 5 3 5-5-2-5-5-10-8-3-4z" fill="#5F5D64"/>
<path transform="translate(1365,200)" d="m0 0 4 1-8 3-7 3-10 6-2-1 6-5 8-4z" fill="#282427"/>
<path transform="translate(1378,161)" d="m0 0h5l-3 3-8 4h-6l-1 2-4 2-3-2 9-4 10-4z" fill="#4A484E"/>
<path transform="translate(89,1180)" d="m0 0v3l-6 8-5 3-4-1 8-7 2-2h3z" fill="#5B585F"/>
<path transform="translate(265,1025)" d="m0 0h3v3l-7 3-3 4-5 1-2-2 3-3 6-1v-2z" fill="#5F5D64"/>
<path transform="translate(1808,525)" d="m0 0h3v2l-4 1v2l-5 3-8 1 2-4 9-3z" fill="#886F6F"/>
<path transform="translate(1125,406)" d="m0 0h3l-1 6-4 5-4 7-1-4h2l2-9z" fill="#FEFEFE"/>
<path transform="translate(90,1273)" d="m0 0 4 1 6 9-2 1-5-3-4-7z" fill="#282427"/>
<path transform="translate(580,763)" d="m0 0 2 1-11 9-11 8-2-1 4-4 5-4h2v-2l9-5z" fill="#E56A52"/>
<path transform="translate(1162,561)" d="m0 0 1 3-8 24-2 1 2-11z" fill="#5F5D64"/>
<path transform="translate(1125,404)" d="m0 0h5l-1 8-5 8-3 1 2-6 4-5 1-4-3 1-2 2 1-4z" fill="#E8B789"/>
<path transform="translate(1277,190)" d="m0 0 2 1-6 5-1 2-6 2h-3-3l4-3z" fill="#939493"/>
<path transform="translate(1455,153)" d="m0 0 4 1 16 9 4 5-5-2-16-10z" fill="#282427"/>
<path transform="translate(1145,267)" d="m0 0 3 1-3 2h-3v2l-5 2h-4v2l-7 2 4-4 8-5z" fill="#78787B"/>
<path transform="translate(53,1445)" d="m0 0 4 1-15 10-1-4 9-5z" fill="#706F73"/>
<path transform="translate(948,890)" d="m0 0h2v2h3l5 5 3 1v2l4 2 3 3-5-2-11-7-1-3-4-1z" fill="#6A686E"/>
<path transform="translate(794,802)" d="m0 0h10l13 3-1 2-22-3z" fill="#5A585F"/>
<path transform="translate(1405,178)" d="m0 0 2 1-2 3h-2l-1 7 10 1v1h-13l-1-3 4-7z" fill="#282427"/>
<path transform="translate(146,1353)" d="m0 0 3 1-13 13v-4h2l1-4z" fill="#636167"/>
<path transform="translate(312,1279)" d="m0 0h5l-4 4-12 9h-2l1-3 6-4 1-3 5-1z" fill="#808082"/>
<path transform="translate(359,1047)" d="m0 0 3 1-20 10-3-1 3-3z" fill="#282427"/>
<path transform="translate(941,862)" d="m0 0 3 1 2 2 5 4-1 5-7-6z" fill="#6B696F"/>
<path transform="translate(1747,522)" d="m0 0 3 1-1 3-6 6-3 1 1-4 1-5z" fill="#BDBAB1"/>
<path transform="translate(1520,466)" d="m0 0 7 6 2 2v3l-9 1-7-2 4-1 9-1-6-6z" fill="#6B6A6E"/>
<path transform="translate(1411,195)" d="m0 0h7l2 4-3 3-6 1 2-7z" fill="#282427"/>
<path transform="translate(212,1076)" d="m0 0 6 1 8-1 2 2-2 1-18 1-2-2z" fill="#5F5D64"/>
<path transform="translate(771,588)" d="m0 0h1l-1 7-7 6-8 5-2-1 13-10 3-3z" fill="#D59E96"/>
<path transform="translate(1591,317)" d="m0 0v3l-4 2-2 4-6 8-4 2 2-4 8-11z" fill="#4B494F"/>
<path transform="translate(1415,140)" d="m0 0m-1 1m-2 1h2v3l-6 3h-2l-1 3h-3l-1 3-5 1 5-5 3-1v-2l6-3z" fill="#4A484E"/>
<path transform="translate(271,1016)" d="m0 0 2 1-1 3-5 3h-4v2l-6 1 4-4z" fill="#858688"/>
<path transform="translate(759,620)" d="m0 0 6 2-5 5-6 4 1-6 3-3z" fill="#F75843"/>
<path transform="translate(1702,603)" d="m0 0 4 2v5l-5 2-1-4-2-1z" fill="#BBBFB6"/>
<path transform="translate(1085,503)" d="m0 0 1 3-7 8-9 4h-4v-2l5-2 5-1 5-4z" fill="#F95742"/>
<path transform="translate(129,1372)" d="m0 0 3 1-9 14-2-4 1-3h2l1-3 3-2z" fill="#79787C"/>
<path transform="translate(188,1355)" d="m0 0h2v2l-13 7-5-1-2-2h6z" fill="#7E7E80"/>
<path transform="translate(232,1328)" d="m0 0 3 1-17 10v-3l4-4 7-1v-2z" fill="#858587"/>
<path transform="translate(171,1157)" d="m0 0 3 1 3 5 2 2-7-1-5-2 1-2z" fill="#282427"/>
<path transform="translate(328,966)" d="m0 0 2 1-5 6h-2l-1 2-3 1-3 3h-2v-2h3l1-4h2v-2l5-1 1-3z" fill="#5F5D64"/>
<path transform="translate(1011,384)" d="m0 0 2 4h-2l-1 4-4 7-1-3 2-7 1-3z" fill="#57545B"/>
<path transform="translate(1362,154)" d="m0 0 4 1-5 1v2l-7 1v2l-8 1 2-1v-2z" fill="#605E65"/>
<path transform="translate(277,1306)" d="m0 0 4 1-8 5-10 5h-2v-2l13-7z" fill="#868687"/>
<path transform="translate(278,1302)" d="m0 0m-1 1m-1 1m-1 1m-2 1h2l-2 4-8 4-2-1 2-4z" fill="#626067"/>
<path transform="translate(1092,616)" d="m0 0 6 1 1 5h-7l-1-5z" fill="#4A484E"/>
<path transform="translate(1217,226)" d="m0 0 2 1-4 6-6 1-3-1v-2l9-4z" fill="#5A585F"/>
<path transform="translate(292,1294)" d="m0 0h5l-5 5-10 7-1-2h2l1-3h3l1-3h2z" fill="#858587"/>
<path transform="translate(14,1252)" d="m0 0 8 6 1 4v3l-4-4v-2l-4-1-2-5z" fill="#4A484E"/>
<path transform="translate(197,1129)" d="m0 0 5 1 2 2-1 8-3 2-1-4 2-2 1-4h-7z" fill="#282427"/>
<path transform="translate(198,1074)" d="m0 0h22v1l-16 1-12 2 3-3z" fill="#9D9F9C"/>
<path transform="translate(1059,512)" d="m0 0 5 1 1 5-5 1-2-1v-5z" fill="#E3AD89"/>
<path transform="translate(914,493)" d="m0 0 1 2-1 2h-3l-1 3-7 4 2-7v-1l8-2z" fill="#57555B"/>
<path transform="translate(1254,480)" d="m0 0h2l-2 5-7 13-2-3v-3l2-2 4-5z" fill="#646366"/>
<path transform="translate(1200,232)" d="m0 0h6l-1 2-10 5h-5l5-4z" fill="#7D7D80"/>
<path transform="translate(1525,211)" d="m0 0 4 2 9 8 1 3-5-1-1-3-7-6z" fill="#282427"/>
<path transform="translate(1405,132)" d="m0 0 3 1-4 4-7 3-3-1v-2l4-1 1-2z" fill="#77767A"/>
<path transform="translate(244,1176)" d="m0 0 5 1-1 5-5 2-1-5z" fill="#4A484E"/>
<path transform="translate(363,930)" d="m0 0 2 1-2 5-5 2-4-2 5-4z" fill="#79797C"/>
<path transform="translate(1136,568)" d="m0 0 2 1-1 3-1 17 3 4-5-2-1-6 2-16z" fill="#56535A"/>
<path transform="translate(1169,541)" d="m0 0h1v8l-3 9-4 3 1-5 4-10z" fill="#5B585F"/>
<path transform="translate(1244,498)" d="m0 0 1 4-7 15-1-4 2-7 3-5z" fill="#636266"/>
<path transform="translate(1243,494)" d="m0 0 3 2-1 3-4 2-4 7-3-1 2-1 2-6 2-3h2z" fill="#49474D"/>
<path transform="translate(1583,218)" d="m0 0 5 3 11 10-3 1v-2l-4-2-9-8z" fill="#8C8D8D"/>
<path transform="translate(214,1075)" d="m0 0h27v1l-18 1-6 1-3-1z" fill="#888989"/>
<path transform="translate(1134,676)" d="m0 0m-4 2h4l-2 4-4 4h-2l1-7z" fill="#4A484D"/>
<path transform="translate(1140,634)" d="m0 0v3l-3 7-1 13h-1l-1-17z" fill="#E9765A"/>
<path transform="translate(1363,195)" d="m0 0 3 1-8 4h-8v-4l8 1z" fill="#282427"/>
<path transform="translate(121,1383)" d="m0 0 1 4-4 4-2 4h-2l-1-3 3-4h2v-3z" fill="#5F5D64"/>
<path transform="translate(53,1218)" d="m0 0h2v2l-3 1-2 3h-14l4-2z" fill="#7E7E80"/>
<path transform="translate(482,1143)" d="m0 0 1 3-3 7-4 4h-2v-3h2l1-4 1-3h2z" fill="#5F5D64"/>
<path transform="translate(996,781)" d="m0 0h2l-2 6-5 11-2 4h-2l2-6z" fill="#EE8262"/>
<path transform="translate(771,636)" d="m0 0 3 2-9 9h-2v-3l5-5z" fill="#2F2E32"/>
<path transform="translate(1214,537)" d="m0 0 4 5-4 10h-2l1-10 2-2-2-1z" fill="#49474D"/>
<path transform="translate(1229,517)" d="m0 0 1 3h-2l-1 7h-3-2l1-5 4-1z" fill="#3F3D42"/>
<path transform="translate(968,462)" d="m0 0 3 1h-2v2l-6 4-2 3-6 3v-3l4-2 4-5 5-1z" fill="#49474D"/>
<path transform="translate(957,458)" d="m0 0 1 2-3 4h-2v2l-6 2-1 3-3-1 6-5 1-2 5-3z" fill="#56535A"/>
<path transform="translate(113,1152)" d="m0 0v3l-6 7h-2v3l-3 1-1 2-3-1z" fill="#66646A"/>
<path transform="translate(643,969)" d="m0 0 1 2-3 9-2 2h-8v-2l7-1z" fill="#D79B8E"/>
<path transform="translate(845,827)" d="m0 0 7 2 12 6-4 1-9-4-6-3z" fill="#5F5D64"/>
<path transform="translate(910,810)" d="m0 0 7 2 2 3 4-1 2-1-2 5-5-1-8-6z" fill="#4C4A50"/>
<path transform="translate(908,805)" d="m0 0 5 2 4 2h5l4-4-2 5-3 3-8-3z" fill="#6A686E"/>
<path transform="translate(1738,590)" d="m0 0 1 4v13l-3-1h2l-2-6v-9z" fill="#956E6B"/>
<path transform="translate(1652,278)" d="m0 0 4 2 8 7-3 1-4-2-3-1z" fill="#7B7A7D"/>
<path transform="translate(1340,199)" d="m0 0h3l1 4-4 3-5-2z" fill="#282427"/>
<path transform="translate(1306,175)" d="m0 0 3 1-3 3h-2v2l-7 1-1-2z" fill="#8E8F8F"/>
<path transform="translate(1422,396)" d="m0 0 5 1v2l4 1 3 2-1 4-11-9z" fill="#69686C"/>
<path transform="translate(1018,363)" d="m0 0 1 2-2 5h-2l-2 6-2 4h-2l2-6 6-10z" fill="#808082"/>
<path transform="translate(1609,308)" d="m0 0 2 1-17 12-2-1 10-8 5-3z" fill="#6D6C72"/>
<path transform="translate(1643,275)" d="m0 0 9 3 2 5-4-1-7-5z" fill="#58555C"/>
<path transform="translate(1493,151)" d="m0 0 5 2 9 6h3v2h-6v-2l-6-2-1-3h-4z" fill="#646269"/>
<path transform="translate(1366,147)" d="m0 0 3 1-4 2-4 4-7 1-1-2z" fill="#999B99"/>
<path transform="translate(1376,144)" d="m0 0m6 0 3 1-6 3-9 3 2-5z" fill="#6B6A70"/>
<path transform="translate(274,1182)" d="m0 0 6 1 2 7-5-2-3-3z" fill="#555259"/>
<path transform="translate(328,962)" d="m0 0v3l-5 4-1 2h-2v2h-2l-1 4-3-1 7-8z" fill="#6F6E74"/>
<path transform="translate(926,805)" d="m0 0 1 4-4 6-4 1-2-4h6l2-5z" fill="#5B585F"/>
<path transform="translate(834,804)" d="m0 0 6 2 12 7-3 1-14-8z" fill="#59575E"/>
<path transform="translate(1192,635)" d="m0 0 2 1-4 4-6 4-1 2h-4v-2h3l1-3 4-1v-2z" fill="#6A696D"/>
<path transform="translate(1111,543)" d="m0 0 1 2-2 4-5 2-2-5z" fill="#282427"/>
<path transform="translate(1565,342)" d="m0 0 2 1-8 11-5 2v-2l5-4z" fill="#56545A"/>
<path transform="translate(1045,334)" d="m0 0 2 1-3 3 1 2-9 6-2-1z" fill="#878788"/>
<path transform="translate(1610,288)" d="m0 0 4 2 1 3 2 1-1 3-4-1-2-5z" fill="#282427"/>
<path transform="translate(1559,200)" d="m0 0 5 1 7 6-4 1-8-6z" fill="#79787C"/>
<path transform="translate(1329,180)" d="m0 0h5l-1 4-9 3-1-3 3-1v-2z" fill="#403E44"/>
<path transform="translate(7,1466)" d="m0 0h11l-4 2-14 2v-2z" fill="#8A8B8C"/>
<path transform="translate(419,1212)" d="m0 0 4 1 2 4 5 2 2 1-1 2-11-6z" fill="#838385"/>
<path transform="translate(892,865)" d="m0 0h5l4 3 4 1 3 2v2l-6-2-10-5z" fill="#88888A"/>
<path transform="translate(1015,708)" d="m0 0v3l-5 4-5 2v2l-2-1 5-5 5-4z" fill="#282427"/>
<path transform="translate(1141,631)" d="m0 0v3l-6 7-2 3-1-5 7-7z" fill="#4B494F"/>
<path transform="translate(1277,452)" d="m0 0 3 1-11 11-1-2 7-9z" fill="#676669"/>
<path transform="translate(1113,439)" d="m0 0 2 3-5 11-2-1 1-5z" fill="#F86B49"/>
<path transform="translate(1119,435)" d="m0 0v3l-5 11h-2l2-8 1-3z" fill="#E56A52"/>
<path transform="translate(1083,402)" d="m0 0 1 3-3 6-3 1-1-4 3-5z" fill="#2F2E32"/>
<path transform="translate(460,1195)" d="m0 0 1 3-2 5-2 4h-3l3-7z" fill="#6B696F"/>
<path transform="translate(366,1117)" d="m0 0h5l1 5h-6l-1-4z" fill="#BBBFB6"/>
<path transform="translate(766,697)" d="m0 0 5 2-2 4-6-1 2-4z" fill="#282427"/>
<path transform="translate(1794,532)" d="m0 0m-2 1h2v2l-8 5-1 2h-2l-1 3-1-2 7-8z" fill="#727177"/>
<path transform="translate(1657,285)" d="m0 0 4 2 5 2 2 3h-6l-5-5z" fill="#68666B"/>
<path transform="translate(1447,127)" d="m0 0 10 1 9 3v1h-7l-12-4z" fill="#898A8A"/>
<path transform="translate(32,1224)" d="m0 0 4 1-8 4-6-1 4-3z" fill="#7F7F82"/>
<path transform="translate(314,1110)" d="m0 0h6l4 4-5-1 1 5-4-4z" fill="#56535A"/>
<path transform="translate(545,1041)" d="m0 0 4 2 2 4-3 8-2-4 1-6z" fill="#5C5A60"/>
<path transform="translate(334 1e3)" d="m0 0 1 4-7 8h-3l7-8z" fill="#282427"/>
<path transform="translate(451,852)" d="m0 0 3 3-2 1-1 4-4 1v-2l-2-1z" fill="#FA764C"/>
<path transform="translate(1408,132)" d="m0 0h8l-3 3-5 2-4-1z" fill="#626067"/>
<path transform="translate(338,1246)" d="m0 0h1l-1 7-2 7h-2l1-9z" fill="#5F5D64"/>
<path transform="translate(345,1135)" d="m0 0 3 2-1 5-6-2-2-3 5 1z" fill="#56535A"/>
<path transform="translate(190,1078)" d="m0 0 2 1-3 5-9 3 5-5z" fill="#868688"/>
<path transform="translate(264,1069)" d="m0 0h2l2 3-1 5-3 1h-11v-1l12-2z" fill="#615F64"/>
<path transform="translate(1758,552)" d="m0 0 4 1 1 4-2 2-3-3-2 1-2-2z" fill="#DD6A54"/>
<path transform="translate(1534,180)" d="m0 0h2v2h3v2h2l2 4 2 1v2l-5-2-3-5-3-3z" fill="#656369"/>
<path transform="translate(40,1452)" d="m0 0 1 4-7 3-3-1h2l2-4z" fill="#5A575E"/>
<path transform="translate(101,1276)" d="m0 0h2v2l4 2 2 5-5-1-3-6z" fill="#69676D"/>
<path transform="translate(349,1217)" d="m0 0h2l-2 13-2-4z" fill="#6F6E72"/>
<path transform="translate(125,1133)" d="m0 0m-2 1 2 1-5 4 2-4zm-4 5v3l-2 6h-3l4-8z" fill="#8F9090"/>
<path transform="translate(201,1091)" d="m0 0 2 2-5 3-3 3-4 1v-2l3-3h2l1-2z" fill="#4A484E"/>
<path transform="translate(851,848)" d="m0 0h7l5 2v2h2l-1 2-13-5z" fill="#858687"/>
<path transform="translate(797,788)" d="m0 0 7 2v2l5 1-4 1-13-4v-1z" fill="#5C5960"/>
<path transform="translate(1090,480)" d="m0 0h1l-1 8-2 4h-2l1-7z" fill="#FEE189"/>
<path transform="translate(1545,366)" d="m0 0 2 1-10 13-1-3 7-9z" fill="#6C6A70"/>
<path transform="translate(214,1338)" d="m0 0 3 2-10 6h-2l2-4z" fill="#868789"/>
<path transform="translate(508,893)" d="m0 0h2l-1 4-5 4-5 2 4-5z" fill="#282427"/>
<path transform="translate(902,803)" d="m0 0 4 1 7 5 4 2-2 1-8-4z" fill="#5A585F"/>
<path transform="translate(648,687)" d="m0 0h2v2l-11 9-2-1z" fill="#D7A29B"/>
<path transform="translate(1464,432)" d="m0 0 4 1 4 3 1 3 2 1-1 2-8-7z" fill="#757477"/>
<path transform="translate(1151,261)" d="m0 0 2 1-5 5-8 2 3-3z" fill="#868788"/>
<path transform="translate(1476,208)" d="m0 0h5l2 5-7-1-1-2z" fill="#282427"/>
<path transform="translate(1324,167)" d="m0 0 2 1-4 4h-2l-2 4-2-1 3-6z" fill="#78777A"/>
<path transform="translate(19,1463)" d="m0 0h8l-3 2-2 1h-10l3-2z" fill="#78777B"/>
<path transform="translate(71,1435)" d="m0 0 3 1-12 7h-2l1-3h3v-2h3v-2z" fill="#79797B"/>
<path transform="translate(1512,459)" d="m0 0 8 5-1 5-7-7z" fill="#3F3E43"/>
<path transform="translate(1073,314)" d="m0 0 3 1-6 5-5 3-2 1 2-4z" fill="#6C6B71"/>
<path transform="translate(120,1387)" d="m0 0h2l-2 5-4 7-1-4z" fill="#858586"/>
<path transform="translate(1225,542)" d="m0 0 2 1-4 11h-1l-1-7z" fill="#727175"/>
<path transform="translate(1116,500)" d="m0 0 4 1 1 4-2 3h-2z" fill="#282427"/>
<path transform="translate(1e3 411)" d="m0 0 1 2-4 8-3-1 3-7z" fill="#57545B"/>
<path transform="translate(1400,383)" d="m0 0h6v2l7 2 1 3-5-2-9-4z" fill="#5F5E62"/>
<path transform="translate(1171,249)" d="m0 0 2 1-3 1-2 4-7 1 5-4z" fill="#868687"/>
<path transform="translate(1607,239)" d="m0 0 4 2 6 5-3 1-5-3v-2h-2z" fill="#8D8D8E"/>
</svg>
