<?xml version="1.0" encoding="UTF-8"?>
<svg version="1.1" viewBox="0 0 900 900" width="1280" height="1280" xmlns="http://www.w3.org/2000/svg">
<path transform="translate(221,48)" d="m0 0h53l22 2 40 6 21 7 6 3 5-1 3-1h9l8 2 3 2 1 15 1 5h18l50-2h37l33 1 47 3h72l5 5 3 15 5 5v13l-2 13-8 27-4 13-1 8-1 141v56l1 127 1 71 2 7 2 4h5l2-17 5-8 5-3 6-1h10l6 3 5 7 1 4v12l4-10 1-10 1-23 4-1 3 1 2 30 3 10 5 1 10-23 13-25 8-12 6-7 12-6 4-1h12l15 3 8 5 8 9 5 12 4 17 1 8v35l-5 28-6 20-7 16-8 13-7 9-8 7-11 4h-13l-12-4-10-6-8-8-9-17-17-5-17-2h-11l-10 4-9 6-5 2h-9l-14-2-24-5h-7l-66 33-7 4h-2l3 5 7 8 2 5v16l-4 6-14 8-6 3 6 14 2 13v12l-2 16-5 13-7 12-9 10-6 4-13 4-16-5-7-5-6-9-4-13v-23l1-7-5-13-4-3h-13l-51 6-24 2h-18l-14-3-11-7-9-9-10-6-15-5-14-3-8-1-2 5-8 11-8 8-10 5-4 1h-15l-14-7-8-8-5-9-2-9-5-2-8-7-11-13-10-17-3-5-9-5-8-8-3-9v-9l3-6 9-6 16-7 9-4v-32l-2-51-5-83-3-61-2-68-2-14v-9l1-7-2-22v-17l5-48 10-70 3-26 3-18 6-12 9-7-1-9-4-14v-11l3-7 10-5 18-4zm-15 20 2 12 6 18 3 5 36 1h18l16-1 1-3 23-2 6-1 16-1-2-9-6-10-5-5-3-1h-65l-21-1-15-2zm469 502-6 4-5 6v8l6 7 9 2 8-2 4-5 1-2v-9l-4-6-6-3zm38 70-6 4v3l10 2 3-1v-8z" fill="#1A161C"/>
<path transform="translate(559,89)" d="m0 0 19 1h72l5 5 3 15 5 5v13l-2 13-8 27-4 13-1 8-1 141v56l1 127 1 71 2 7 2 4 6 1v4h-8v2h-2l-1 4-5 3h-2v2l-8 3-9 4-6 1v2l-5 1v3l-10 5-3 3-6 3h-5l-2 4-5 1-1 3h-3l-1 3h-3v2l-11 8h-3l-2 4-6 5h-4l-1 3-4 3h-3l-2 4-5 4-5 2-5 5-7 4h-2v2l-5 1v2l-7 3h-6l-5-3-5-5-6-4h-7l-8 3-8 4-18 6h-3v2l-12 5h-8v-3l-2-2-4-1-3-5-10-2-6 1-2 22-3 3-1-1v-9l-2-4-6 1-2 2-3 10-6 9-3 10-2 4h-4l-1 4-6 3h-24l-3-1-3-64-1-27-1-4-1-36 1-21h-5l-3-2v-4h7l1-11 1-3h-8v5l-1 1h-8l-4-2 3-10 3-6 4 1 4 2 3-1 1-5v-15l-3-1-1 6-3 4-9 2-1 2v-3l-2-1 1-9 3-6h2v-4l-5-1-1-4h3l4 3 11 1v-54l-1-41v-24l40-2 14-3 8-3v-27l-1-30v-79l3-40 2-19 5-28 1-7 1-17 7-10 4-3 10-4 2-7v-7l-3-7-6-4-4-5v-2l-4-3 1-5 7-1 37-2 56-5 15-1 15-2 30-3z" fill="#E2032F"/>
<path transform="translate(774,516)" d="m0 0h12l15 3 8 5 8 9 5 12 4 17 1 8v35l-5 28-6 20-7 16-8 13-7 9-8 7-11 4h-13l-12-4-10-6-8-8-9-17-17-5-17-2h-11l-10 4-9 6-5 2h-9l-14-2-24-5h-7l-72 36-13 1-12 4-2-1 9-8 5-3 2-3 5-2 16-12 3-4 7-1 7-8 5-4 9-1 2-4 4-2v-2l6-5 3-3 7-5 4-4 7-2 1-3 7-4h3v-3l5-1v-2l14-5 5-3h4v-2l7-4 1-3h2v-2h8l-1-5 2-17 5-8 5-3 6-1h10l6 3 5 7 1 4v12l4-10 1-10 1-23 4-1 3 1 2 30 3 10 5 1 10-23 13-25 8-12 6-7 12-6zm-99 54-6 4-5 6v8l6 7 9 2 8-2 4-5 1-2v-9l-4-6-6-3zm38 70-6 4v3l10 2 3-1v-8z" fill="#1B161C"/>
<path transform="translate(165,348)" d="m0 0h1l2 7 3 2 1 11-2 5-2 3v7l7-1 11 2v1h-14l1 7-4 2v17l2 46 1 24 3 1h-2v21l2 1h-3l2 7 2 2-2 4 2 16 3 3v3l-3 3v9l1 5 2 2-3 1v4l3 3-1 2h-2l2 11 3 4v2l-4 3h-2v4l6 1-3 3v9l4 3-1 6 1 7h2l-1 3-4 2-1 12 4 2 1 4-4 2-1 2v9l5 5-3 2h-2l1 5 4 2-3 2-1 11 2 5h-2v7l-3 11-6 1-1 2h-2l-1-4h-5l-5-5-2-43v-11l1-1v-32l-2-51-5-83-3-61v-29l4-1 2 1v-19h1l1 14 6 1 6-3 2-10 2-3v-10l-4-6z" fill="#48060A"/>
<path transform="translate(558,333)" d="m0 0h5l1 28 3-1 1-11h1v21l4-1 2 3v6l-2 1h-6l-1 10 9-6h1v6l-4 4-12 3v-17h-2l1 8-1 6 1 4-7 1-2-5-2 7h-4v-16l-4-1v18l-4 3h-2v-16l-3-3 1 7h-3l-6-3v12l3 1 2-6h4l-1 5-3 5-30 10-13 4h-4l-1-14v-10l9-3 7-2 2 1 2 17h4l1-20h2v-2l-16 4-7 2-8 1-4 2h-4v33l27-7 79-24 9-5-2 5-10 5-72 22-28 7-4-1-1-4-1-27-17 3-2-1v-2l14-3 2-6h-9v-31l6-1 1 23 7 1 1-26 5-2 1 28 1-21 1-7 2-2h6l4 9 1 7 1-18 5-2 2 4 4-5 5-2 5 1 1 3v9h-2l-2-3h-5l-1 15 4-1 4-6h3v10h-2l-1 3-3 3 4-1 9-1 13-3 1-2h2v-2h-3l-1-3v-27l5-1v22l7-2 1-22 3-2h6l2 10v-11z" fill="#66121C"/>
<path transform="translate(577,160)" d="m0 0h5l1 1 1 9v61l-2 14-3 3-6 2-13 1-5 2-26 3-2-1-1-3-1-39 1-7v-19l-1-3v-11l3-5 7-2 10-2 14-1 7-2z" fill="#32040A"/>
<path transform="translate(371,64)" d="m0 0h9l8 2 3 2 1 15 1 5h18l50-2h37l33 1 28 2v1l-24 3-21 2-5 1-48 4-38 3-29 1v5l5 5 2 5 5 2 4 5 1 4v7l-2 7-14 7-7 10-1 17-5 31-2 14-2 19-2 30v79l1 30v27l-9 4-14 3-18 1h-22v-1l20-1 4-2 13 1 18-4 4-2 1-5v-93l-2-1 1-6v-14l1-6h-4l-1-8-2-4-3-2h2l-2-4v-7h2l3-9-1-2v-15l1-2 1-4-1-4 3 1 1 2 1-5h-3l-1-2v-8l3-7v-7h-3l1-4 4-4 2-18 1-2v-9l-2-5 4-4 7 1-1-7-2-2v-12h-6l3-2 6-1v-4l-7-1-5 1-1-5 2-2h4v-2l-5-1 1-2h7l3 2-2-6-3-1v3l-4 1-4-2 1-2h5l1-6h-2l-3-10-3-5-1-7-1-2-3-1-2-4h-3l1-3z" fill="#36252E"/>
<path transform="translate(316,426)" d="m0 0 2 4 1 19 2 3 1 6h-2v2l4 1v5l2 1v8l-1 5 2 1-2 4v9l1 2h-2v2l2 1v6h2l-1 6 4 8-2 4 1 5-3 2 1 4h3v-2l2 1 2 5 4 1v11l1 8v22l1 7 4 2 1 3v19l1 14-1 6-1 7 1 8-1 13-1 5 1 4v18l-2 1v8l-4 10-5 7-3-1v-3h-2v-2h-2v-3l-2-1-1-4 2-19-4-10v-17l-1-5v-45l-1-19-1-38-1-6-2-62z" fill="#F81236"/>
<path transform="translate(351,152)" d="m0 0h2v8l-4 25-4 31-5 31-3 20-4 17-2 7-6 17-13 35h-4l-6-26-6-22v-8l3-7h2l4-16 11-27 10-24 8-19 12-30z" fill="#5A565A"/>
<path transform="translate(589,636)" d="m0 0h3l-2 4-6 4h-2l-2 4h-2l-1 3h-2v2l-5 4-3 3-7 1-10 9-2 3h-7l-2 4-14 11-4 3-4 1-5 5-9 7-8 6-8 5-9 3-4-1-3-4v-5l-2-1-2 10-3 1-1-8-4-1v-3l6-4 5-1v-6l-2-1-26 12-8 4-16 6h-3v2l-6 2-3-2-5 10-6 2h-2l-7 10-8 3-9 3-6 3-5 1h-33l-1-2h26l6-2 1-4h4l1-4 4-12 6-9 3-9 4-3 5 1 2 6v7l2-2 1-15 2-7 8-2 6 2 4 2 1 4 7 1 1 3-1 1h7l9-4h3v-2l11-4 7-2 10-4 2-2 7-2h7l10 7 2 3 4 2h6l4-2h3v-2l5-1v-2l9-5 7-6 7-4 3-4 7-4 1-2 5-2 6-5 1-2 6-3 6-5h2v-2l3-1 1-2 3-1 1-2 5-2z" fill="#620A13"/>
<path transform="translate(468,693)" d="m0 0 3 2v6l-7 3-5 2v3l4 1 1 8 3-3 1-8h3l1 3 1 4 2 3h5l-4 4-13 6-12 6-7 3-10 5-5 5-2 4h-69v-1l10-3 6-3 11-3 8-11 8-2 4-11 5 3 5-1v-2l12-4 12-5 16-8z" fill="#2B0409"/>
<path transform="translate(562,327)" d="m0 0h6l1 22-2 11-4 2v-29l-6 2v13l-2-2-1-3v-7l-8 2-1 22-2 2h-6v-22l-4 1v30h3v2h-2l-1 3-16 4h-10l1-3 3-3h2v-10l-3 1-4 6h-4v-15l1-1h5l2 4h2l-1-12-7 1-5 3-2 7h-1l-1-8-4 1-1 19-2-1-2-9-2-7-7 2-1 7-1 22-2-1v-28l-4 2-1 24-1 2h-7l-1-1v-23l-6 1v31l9-1 1 2v3l-3 3-5 1h-8v-43l17-5 12-3 50-12z" fill="#3E0911"/>
<path transform="translate(152,648)" d="m0 0h2l1 10 2 43 1 3 8 2v2h-5l3 15 2 1v4l5-1 3 2 1 5 3-1v2l5-1 3 3v13l3 10 5 10-1 2-10-9-5-7-3-9v-3l-5-2-8-7-11-13-10-17-3-5-9-5-8-8-3-9v-9l3-6 9-6 16-7z" fill="#524C52"/>
<path transform="translate(549,203)" d="m0 0 5 2h5l2 1 9-2 7 1 3 9 1 9-1 10v5l-2 3-3 7-14 2-7 2-12 1h-14l-1-26-1-13 16-9 5-1 2 1z" fill="#130306"/>
<path transform="translate(148,394)" d="m0 0 3 1 1 31 1 22 2 20 3 69 3 65 1 24 2 15 1 27v35l-1 1h-6l-2-3-2-43v-11l1-1v-32l-2-51-5-83-3-61v-21h2z" fill="#E00631"/>
<path transform="translate(524,700)" d="m0 0 3 1-2 1v3l-7 6-5 5-4 1-1 3h-2l-1 3-9 5 7-1 13-7h4l4-6h4l1 2h4v2l-8 6-46 23-10 2h-8l-1-3-8 1-1 1 4 1h-10l2-1v-2l-11-1-1 3-4 1-1 2-4-1 4-7 5-4 12-6 8-3 24-12 13-7 7-5 16-5z" fill="#532832"/>
<path transform="translate(147,389)" d="m0 0 6 1 1 4 3 2 1 6 1 24 1 6 1 41v20l2 29 1 8 1 20 1 6v12l2 11v12l1 13v33l2 10-1 14-1 25v18l-3 3-6-2 4-2v-35l-1-27-2-15-3-72-3-63-1-23-2-22-2-51h-2l-1 3h-2v-8z" fill="#620A13"/>
<path transform="translate(370,303)" d="m0 0 2 1 2 5 1 56v40l-3 4-15 4-8 1-6-2v-11h2v-4l2-1v-3l7-2v-6l-2-2 1-5 3-1 3 4h2v-5l-1-2 2-1-1-5-3 1-3-3 1-5 3-3 2-4v4h3v-3h-2l-3-3v-2h-2v-3l-2-1h3v-2l-2-1 4-1-5-2 1-5 4 2v-3l-2-1 3-4-1-4 1-3h-3v-2l2-2 2-3-1-3-4 1 1-5 2-2v4l6-1 2-4h2z" fill="#34242D"/>
<path transform="translate(571,369)" d="m0 0 3 1 1 2v6l-2 1h-6l-1 10 9-6h1v6l-4 4-12 3v-17h-2l1 8-1 6 1 4-7 1-2-5-2 7h-4v-16l-4-1v18l-4 3h-2v-16l-3-3 1 7h-3l-6-3v12l3 1 2-6h4l-1 5-3 5-30 10-13 4h-4l-1-14v-10l9-3 7-2 2 1 2 17h4l1-20 19-6 8-2 31-8z" fill="#F8EFF1"/>
<path transform="translate(461,86)" d="m0 0h37l33 1 28 2v1l-24 3-21 2-5 1-48 4-38 3h-29l-1-13 18-2z" fill="#211A20"/>
<path transform="translate(165,348)" d="m0 0h1l2 7 3 2 1 11-2 5-2 3v7l7-1 11 2v1h-14l1 7-4 2v17l2 46 1 24 3 1h-2v21l2 1h-3l2 7 2 2-2 4 2 16 3 3v3l-3 3v9l1 5 2 2-3 1v4l3 3-1 2h-2l2 11 3 4v2l-4 3h-2v4l6 1-3 3v9l4 3-1 6 1 7h2l-1 3-4 2-1 12 4 2 1 4-4 2-1 2v9l5 5-3 2h-2l1 5 4 2-3 2-1 11 2 5h-2v7l-3 11-6 1-1 2h-2l-1-3 5-1 3-10v-56l-2-35-1-39-1-43-1-21-1-9-1-59-2-40h-2l-1-2-9-1-2-1v-19h1l1 14 6 1 6-3 2-10 2-3v-10l-4-6z" fill="#2A0308"/>
<path transform="translate(468,693)" d="m0 0 3 2v6l-7 3-5 2v3l4 1 1 8 3-3 1-8h3l1 3 1 4 3 5-15 7-13 6-14 6h-3v2h-5l-1-1-1-17-4-2v-3h-5l3-2 16-6 28-13z" fill="#48060A"/>
<path transform="translate(774,516)" d="m0 0h12l12 2-10 5-4 4-8 7-5 10-8 17-11 27-6 20-2 8-2-1 1-14 6-20 12-29 6-10 4-5 2-5-5 2-2 2-7 2h-8l-1 5h-2l-2 6-3 5h-2v3h-2v4h-2l-1 5h-2l-3 11-7 20-4 5-5 2h-6l-1-4 3-3h2l-1-5v-13h1l3 10 5 1 10-23 13-25 8-12 6-7 12-6z" fill="#635C60"/>
<path transform="translate(473,686)" d="m0 0h7l10 7 2 3 4 2h6l4-2 3 1-8 6-5-1-10-8v-2l-4-1-1-1h-8l-12 5-16 8-11 4-10 4-12 5h-3l-4-11v-3l-3-1-1-2-9-1-1 27-4 4-2 5-2 2-13 2-6 4-2 4-8 3-4-1 6-2 1-4h4l1-4 4-12 6-9 3-9 4-3 5 1 2 6v7l2-2 1-15 2-7 8-2 6 2 4 2 1 4 7 1 1 3-1 1h7l9-4h3v-2l11-4 7-2 10-4 2-2z" fill="#8B0D22"/>
<path transform="translate(526,339)" d="m0 0h5v26h-1l-1-17-1-5-7 1-5 3-2 4-3-1v-3l-7 1-5 3-2 7h-1l-1-8-4 1-1 19-2-1-2-9-2-7-7 2-1 7-1 22-2-1v-28l-4 2-1 24-1 2h-7l-1-1v-23l-6 1v31l9-1 1 2v3l-3 3-5 1h-8v-43l17-5 12-3 29-7h11l1-1z" fill="#18090D"/>
<path transform="translate(361,120)" d="m0 0h5l3 3-2 1-2 16-2 11-5 35-2 15-5 37-2 14-5 31-1 7-1 1-1 13v4h-2l-1 5-14 28-3 9-2 5-1-2h-2l3-12 5-14 3-8 9-26 3-12 6-38 7-50 4-26 2-12v-15l-1-4-3 1 1-4 6-9z" fill="#555055"/>
<path transform="translate(202,304)" d="m0 0h16l24 3 4 5v2l5 2 2 5-1 10-2 2-25-2-11-2-5-4-1-6h-3v-2l-3-1-1-3v-7z" fill="#6D1B2A"/>
<path transform="translate(436,458)" d="m0 0 7 2v16l-3 14-3 4-18 4-5-1-3-6v-20l2-9 21-3z" fill="#2E040A"/>
<path transform="translate(311,428)" d="m0 0 2 3 1 17v58l-10-3h-8l-1-1v-5l8 1-3-5-2-2 1-2h3l-1-5-5-1-5-2-12-4h-6l1-6 1-7-3-2-1-3-2-1v-8h1v6l6-4h3v9l3 6 7 5v2h2v2h9l6-3 1-5 5-1v-7l-2-2-2-4-8 1 5-10-2 2v-6l4-2 2-6z" fill="#130307"/>
<path transform="translate(502,762)" d="m0 0 3 1 5 35 1 1v7l-3 5-6 4h-8l-3-12-4-23-2-3v-6z" fill="#978D92"/>
<path transform="translate(371,64)" d="m0 0h9l8 2 3 2 1 15 1 5 5 1v1h-5l1 3v10h7v1h-7v5l5 5 2 5 5 2 4 5-1 4-3-5-7-2-5-7-3-5-4-1-2-5-3-4v-3l-4 1-3-10-3-5-1-7-1-2-3-1-2-4h-3l1-3z" fill="#8F0F24"/>
<path transform="translate(559,89)" d="m0 0 40 2v1l-50 4-47 4-32 3-69 6-7 1-1-4 1-2 7-1 37-2 56-5 15-1 15-2 30-3z" fill="#E1C2C9"/>
<path transform="translate(426,166)" d="m0 0h12l3 3 1 38-5 2-15 1 1-17 1-24z" fill="#19151B"/>
<path transform="translate(301,98)" d="m0 0 9 1 23 2 3 5v3h14l7 3 3 2v2l-9-1-19-3-2-1v-2l-6 1h-31l-10-1h-16l-7-2v-2l-29-1v-1h40l16-1 1-2z" fill="#544D52"/>
<path transform="translate(373,310)" d="m0 0h1l1 55v40l-3 4-15 4-8 1 1-2h2l-1-7 9-3 9-4 1-8-2-3v-11l-1-4 2-4 2-5 1-3-4-1-1-11 4-1h2l-1-7h-3v-2l-4-1v-12l-1-4 1-3 5-1 2-1z" fill="#2B0409"/>
<path transform="translate(147,389)" d="m0 0 5 2 2 21 1 12 3 65 2 44 1 13 3 65 2 44 1 30v19l-1 2h-5l-1-2 4-1v-35l-1-27-2-15-3-72-3-63-1-23-2-22-2-51h-2l-1 3h-2v-8z" fill="#A60D28"/>
<path transform="translate(314,289)" d="m0 0h5l-1 2-10 2-1 2h-2l1 4 9 1 4 2 2 3-1 2 1 7 1 2-10 27h-4l-6-26-6-22v-3l5-2h10z" fill="#5A565A"/>
<path transform="translate(624,396)" d="m0 0h5l1 2v23l-4 7-4 3-13 1-2-3-1-24 2-3 10-1 1-3z" fill="#2F0409"/>
<path transform="translate(392,697)" d="m0 0 9 1 4 4 2 5 1 11 7-1-2 2-4 1-3-2-5 10-6 2h-2l-7 10-8 3-9 3-6 3-5 1h-33l-1-2h30l5-2h3l2-5 6-4 13-2 2-2 2-5h2l1-3 1-27z" fill="#48060A"/>
<path transform="translate(338,188)" d="m0 0 2 2v5l-4 10-4 11-2 6-1 6 1 2-4 8h-2l1 4-1 4-3 3-1 3-4 4-4 9-5 11-1 9-5 5-5 2 1-8 2-4h2l4-16 11-27 10-24 8-19 3-3z" fill="#665E63"/>
<path transform="translate(145,660)" d="m0 0 3 1-4 2v2h-5v2h-2l-1 3 3-1 2 1v-2l4-1 6 2 1-3h1l1 5v25l-5-5v-3l1-5-2-4-4-1-2 3 2 2v-3h2l1 3v8l-2-3-1-2-5 5-2 7-5-1-8-7-1-6h3l-1-10 1-4 1 1 2-5h5l1-3 10-1z" fill="#1A161C"/>
<path transform="translate(152,648)" d="m0 0h2l1 10 1 28v13l-4-1-5-5-1-13-2 4-3-3 4-4 4 2v3l2 1-2 7 4 5v-24l-1-4-1 2-10-1v2l-6 1 1-3 3-1v-2h5v-2l3-2-2-1v2l-5 2h-5l-3 3h-3l-1 6-2-2v13h-3l1 5-4-4-2-7v-9l3-6 9-6 16-7z" fill="#4B4348"/>
<path transform="translate(550,167)" d="m0 0h2l1 3 1 18v15l-4 2h-3l-5 1-9 5-5 2 5-5 2-1v-2l-5-1-1-3v-15l3-1 2-4 4-2v2h3v2l3-2h4l1-13z" fill="#532731"/>
<path transform="translate(386,161)" d="m0 0h1v17l-5 31-2 14-2 19-2 30v79l1 30v27l-9 4-14 3-18 1h-22v-1l20-1 4-2 13 1 18-4 4-2 1-5v-93l-2-1 1-6v-20l-2-3 2-12h-2l3-9 3-27 1-13 1-2-3-1v-4l2-9 1-18 3-3 3-18z" fill="#532832"/>
<path transform="translate(558,333)" d="m0 0h4v30l-2 1h-6l-2-5-1-8-1 1v13l-10 4-7 1-1-2v-27l5-1v22l7-2 1-22 3-2h6l2 10v-11z" fill="#F5F2F3"/>
<path transform="translate(316,517)" d="m0 0h1l2 49v10h-8v5l-1 1h-8l-4-2 3-10 3-6 4 1 4 2 3-1 1-5v-15l-3-1-1 6-3 4-9 2-1 2v-3l-2-1 1-9 3-6h2v-4l-5-1-1-4h3l4 3 11 1z" fill="#A30E28"/>
<path transform="translate(238,380)" d="m0 0h16l21 3 19 2 13 3 3 2-1 5-5 1-24-3-19-3-8-2h-10l-6-2v-5z" fill="#8B7B80"/>
<path transform="translate(651,600)" d="m0 0 2 2-3 4-2 3-5 2-7 5-1 4-2 2-6 2-5 5v6l-7 2-5 6-10 4-4-1-1-7-5 3h-2v2l-7 5-3-1 6-5 7-5 4-4 7-2 1-3 7-4h3v-3l5-1v-2l14-5 5-3h4v-2l7-4 1-3h2z" fill="#130306"/>
<path transform="translate(571,369)" d="m0 0 3 1 1 2v6l-2 1h-6l-1 10 9-6h1v6l-4 4-12 3v-17h-2l1 8-1 6 1 4-7 1-2-5-2 7h-4v-16l-3-1v-3l9-4 15-4z" fill="#EEDDE0"/>
<path transform="translate(524,714)" d="m0 0h4l1 2h4v2l-8 6-46 23-10 2h-8v-4l6-3 15-8 5-3 16-4 13-7h4z" fill="#483F45"/>
<path transform="translate(473,686)" d="m0 0h7l10 7 2 3 4 2h6l4-2 3 1-8 6-5-1-10-8v-2l-4-1-1-1h-8l-12 5-16 8-11 4-10 4-12 5h-3l-6-16-1-2-11-2 2-2 6-1 6 2 4 2 1 4 7 1 1 3-1 1h7l9-4h3v-2l11-4 7-2 10-4 2-2z" fill="#BA0C2D"/>
<path transform="translate(160,189)" d="m0 0h1l1 12-6 64-1 7-4 2v-2h-2v-29l2-8 4-33 3-11h2z" fill="#534D52"/>
<path transform="translate(375,201)" d="m0 0h2l1 8v3l-1 3 2 1-3 36-2 9-3 6h2l-1 13 1 2h-3l-1-8-2-4-3-2h2l-2-4v-7h2l3-9-1-2v-15l1-2 1-4-1-4 3 1 1 2 1-5h-3l-1-2v-8l3-7z" fill="#34242D"/>
<path transform="translate(144,685)" d="m0 0 2 1 1 5 6 7 3 1 2 5h2l1 14v15l-5-5-9-12-9-16-2-2 3-8z" fill="#6B6367"/>
<path transform="translate(505,389)" d="m0 0 2 1v21l4 1-23 7-7 1-1-14v-10l9-3 7-2 2 1 2 17h4z" fill="#E7CACF"/>
<path transform="translate(174,351)" d="m0 0 1 2 10-2h8l-2 4h-3v26l-1 1h-10l-5-1-4 1-1-1 1-7 4-1v-20z" fill="#8D0D22"/>
<path transform="translate(252,404)" d="m0 0 15 1 33 4 2 1-2 4-10 7-4 4-4-2-3-1-1-4-14-2-8-4-1-4h-2z" fill="#4F484E"/>
<path transform="translate(564,324)" d="m0 0h5l1 1v7h-1v-5l-15 3-53 13-29 7-15 4-10 2v42l-2 1-1-34 1-11 7-3 96-24z" fill="#E4C5CB"/>
<path transform="translate(211,307)" d="m0 0 5 1 2 1v-2l13 1 2 5 2-3 6 1 1 6-6 1 3 2 4 1 1 7-9-1h-4-7l-12-3-1-3 5-4-2-1h-9l-1-4 4 1v-4z" fill="#A3979C"/>
<path transform="translate(344,249)" d="m0 0h1l-1 17h2l-2 17-1 7-1 1-1 13v4h-2l-1 5-14 28-3 9-2 5-1-2h-2l3-12 5-14 3-8 9-26 3-12z" fill="#504A50"/>
<path transform="translate(582,393)" d="m0 0 1 2-5 5-16 6-34 10-29 9-28 7-4-1-1-4-1-27-17 3-2-1v-2l19-4h3v33l27-7 79-24z" fill="#DFAAB4"/>
<path transform="translate(293,563)" d="m0 0 3 1-4 8-10 10-8 7-2 3h-2l-2 5-4 6-4 11v12l3 4v2h2l-1 4-5-2-5-7-1-17 4-9 11-15 8-7 11-10 5-5z" fill="#5C555A"/>
<path transform="translate(293,361)" d="m0 0h11l8 2v16l-3 5h-10l-7-2-2-2v-13z" fill="#E6E1E2"/>
<path transform="translate(491,350)" d="m0 0 4 1v29l-4 2h-4l-4-9-1-7v17l-1 1h-5v-29l2-2h6l4 9 1 7 1-18z" fill="#F7F3F4"/>
<path transform="translate(617,140)" d="m0 0h5l2 2v35l-2 2h-10v-37z" fill="#52070D"/>
<path transform="translate(523,342)" d="m0 0h5l1 1v27l-5 3-4 2h-3l-2-3-1-8v-15l4-5z" fill="#F2EFF0"/>
<path transform="translate(502,762)" d="m0 0 3 1 5 35-1 9h-3v-10l-6-4-6-20-1-1-2 8-3-1-2-3v-4l6-5z" fill="#D9A7B1"/>
<path transform="translate(471,355)" d="m0 0h2v31l-10 4-10 1v-31l6-1 1 23 7 1 1-26z" fill="#F5F0F2"/>
<path transform="translate(269,359)" d="m0 0h16l3 2-1 16-2 3h-12l-5-2-1-2v-10z" fill="#EBD8DC"/>
<path transform="translate(174,592)" d="m0 0 7 1-3 3v9l4 3-1 6 1 7h2l-1 3-4 2-1 12 4 2 1 4-4 2-1 2v9l5 5-3 2h-2l1 5 4 2-3 2-1 11 2 5h-2v7l-3 11-5 1 4-7 1-11-1-66-1-20z" fill="#120306"/>
<path transform="translate(388,696)" d="m0 0 3 1-1 5-1 15-3 3-1-1v-9l-2-4-6 1-2 2-3 10-6 9-3 10-2 4h-4l-1 4-3 2-3-1 4-9 1-7 3-3h2l2-5 3-5 5-5 3-7 4-4 7-3h3z" fill="#B80D2D"/>
<path transform="translate(448,811)" d="m0 0h2v2h2l4 4 2-1 3 9 2 5 2 6 5 9 4 4-8-2-7-4-5-5-5-9-3-10v-5z" fill="#524B51"/>
<path transform="translate(316,649)" d="m0 0h2l2 8 2 51 1 14v22l-2-3v-25h-2l-1-11-3-1v-2l-6-1-6-4v-3l7-1 5 1 2-8-1-9-3-2 2-1-1-7 2-1v-14z" fill="#120306"/>
<path transform="translate(577,160)" d="m0 0h5l1 1v8l-2-3-1-4-15 2-3 1-16 1-1 1-7 1h-8l-2 5-1 9h6l-1 3-2 1v16l6 3-1 3-6 4-1 2h-2l2 13v26l26-2 6-1-1 2-19 3-11 1-2-1-1-3-1-39 1-7v-19l-1-3v-11l3-5 7-2 10-2 14-1 7-2z" fill="#880F22"/>
<path transform="translate(789,541)" d="m0 0h6v4l-3 4h-2l-2 4-7 11-8 16-4 1-2-6 1-7 1-4h2l2-6 5-6 1-2h2l2-4z" fill="#504A50"/>
<path transform="translate(406,125)" d="m0 0 3 2v3h2v7l-2 7-14 7-4 3 2-4 4-5-3-7-2 4-2 2-2-3v-12l1-3 6 1 3 2 4 10v-6l-2-6z" fill="#15070B"/>
<path transform="translate(413,230)" d="m0 0 5 1 1 2v10l-2 1-2-1-1-8-1 10-4 2h-7l-3-1-3-4v-7h-3l1 6 1 3-3 4h-4l1-12 2-3 7-1 3 3 1 6 1-9z" fill="#E6CCD1"/>
<path transform="translate(747,538)" d="m0 0 1 2-2 9-3 5h-2v3h-2v4h-2l-1 5h-2l-3 11-7 20-4 5-5 2h-6l-1-4 3-3h2l-1-5v-13h1l3 10 5 1 10-23 13-25z" fill="#554E53"/>
<path transform="translate(286,452)" d="m0 0 5 1 8 4 4 7 2 3v5l-4 3h-7l-6-4-4-5 1-4-3 1-1-3h2l-1-6z" fill="#9F9599"/>
<path transform="translate(465,353)" d="m0 0h8l4 2-1 7-1 22-2-1v-28l-4 2-1 24-1 2h-7l-1-1v-26z" fill="#1F191F"/>
<path transform="translate(450,223)" d="m0 0h6l1 1v9l-3 5-4-1-3 1-1 2-13 2v-14l2-2h10z" fill="#E2BAC1"/>
<path transform="translate(195,348)" d="m0 0 5 2 3 3-1 6-5-1v11h2v-2l4 2v12l-2 4-4 1h-7l-3-2h8l1-3-5-2-2-8v-13l7-2v-5z" fill="#280408"/>
<path transform="translate(370,303)" d="m0 0 2 1 2 6-1 7h-3l-1 2-4-1 1 10v9l3 1v2h3l1 7-6 1v-2h3l-3-1-1-3 1-2h-5l-1 6h-3v-2l-2-1 4-1-5-2 1-5 4 2v-3l-2-1 3-4-1-4 1-3h-3v-2l2-2 2-3-1-3-4 1 1-5 2-2v4l6-1 2-4h2z" fill="#34252E"/>
<path transform="translate(506,346)" d="m0 0 5 1 1 3v9h-2l-2-3h-5l-1 15 4-1 4-6h3v10h-2l-1 3-2 1h-8l-3-7v-18l4-5z" fill="#F2EDEE"/>
<path transform="translate(774,516)" d="m0 0h12l12 2-4 2-9 3-12 5h-11l-4 3-4 1-1 3-3 3h-2l2-5 7-9 10-6z" fill="#6B6065"/>
<path transform="translate(355,182)" d="m0 0h1v19l-5 37-4 28h-3l1-23 7-50 2-8z" fill="#5C555A"/>
<path transform="translate(319,288)" d="m0 0h11l-1 9-6 16-1 2-2-1-1-8v-3l-4-2-9-1-1-5h2l1-3 10-2z" fill="#665E62"/>
<path transform="translate(167,346)" d="m0 0 8 1 9 1h9l4 3-1 5-4 2h-3l2 19 3 3 2 1-1 4-23-2-4-1 6-2 3 1h10v-23l1-3h3v-3h-8l-8 1h-2v18l-1 2-2-1 1-6-1-9-4-4v-6z" fill="#522731"/>
<path transform="translate(526,339)" d="m0 0h5v26h-1l-1-17-1-5-7 1-5 3-2 4-3-1v-3l-7 1-5 3-2 7h-1l-1-8-5 1-4-1-5 1h-9v-2l33-8h11l1-1z" fill="#3E070F"/>
<path transform="translate(375,260)" d="m0 0h1v91l1 30v27l-9 4-14 3-18 1h-22v-1l20-1 4-2 13 1 18-4 4-2 1-5v-93l-2-1 1-6v-14l1-23z" fill="#790D1C"/>
<path transform="translate(487,218)" d="m0 0h7l-1 4-10 1 1 6h7l-1 4-9 1-2-2-1-10-2 1v12l-7 1-1-4 1-9-3 2-3 11-3 1-1-11-1-3 14-3z" fill="#EBCFD5"/>
<path transform="translate(311,480)" d="m0 0h2l1 2v24l-10-3h-8l-1-1v-5l8 1-3-5-2-2 1-2h3v-6z" fill="#120306"/>
<path transform="translate(256,357)" d="m0 0h7l1 18-3 3-5-1-1-3h-10l-1-1v-7l5-6z" fill="#EEEBEC"/>
<path transform="translate(559,89)" d="m0 0 40 2v1l-50 4-35 3h-8v-1l13-2-5-1v-1l40-4z" fill="#DEBFC6"/>
<path transform="translate(202,304)" d="m0 0h16l24 3 4 5v4l2 1-4 2h-7l4-3-1-4-5-1-1 6-2-4-1-5h-10l-3-1v2l-7-1-3 1v4h-3v2h9l6 1-4 2-1 2h-7l-3-1v-2l-3-1-1-3v-7z" fill="#94364A"/>
<path transform="translate(426,169)" d="m0 0h13l1 4 1 32-4 2 1-4-7-1-2-2v-3l2-1-1-4 1-3 4-1 2-7 1-11-10 1 1 17-2 10 1 4-1 4-2 3-1-1v-9l2-14z" fill="#2A0409"/>
<path transform="translate(172,509)" d="m0 0 4 4-2 4 2 16 3 3v3l-3 3v9l1 5 2 2-3 1v4l3 3-1 2h-2l2 11 3 4v2l-4 3h-3l-1-3-1-27z" fill="#120306"/>
<path transform="translate(571,369)" d="m0 0 3 1 1 2v6l-2 1h-6l-1 10 9-6h1v6l-4 4-12 3v-17h-2v-2l-11 1 3-2 15-4z" fill="#E7CBD1"/>
<path transform="translate(313,577)" d="m0 0 4 1v11h-12v2l5 2 3 2 5 1v49l-5-3 1-3h3l-1-13-6-3v-1h5l-2-7-11-2-2-2 11 1 2 1 1-6 2-2-1-5-8-5-6-5v-2h2v-3l8-3z" fill="#300409"/>
<path transform="translate(549,203)" d="m0 0 4 1 2 9-1 5-3-1v-2l-4-1 1 10 1 4-2 4-2-4-5-2-4-8 1-7 5-6 5-1 2 1z" fill="#1A151B"/>
<path transform="translate(392,697)" d="m0 0 9 1 4 4 2 5-1 3-2-4h-2l-1-4-8-2v9l1 5-1 13-4 5-3 5-5 3-8 1-6 3-4 5-5 1h-33l-1-2h30l5-2h3l2-5 6-4 13-2 2-2 2-5h2l1-3 1-27z" fill="#680B15"/>
<path transform="translate(152,648)" d="m0 0h2l1 10 1 28v13l-4-1-5-5-1-13-2 4-3-3 4-4 4 2v3l2 1-2 7 4 5v-24l-1-4-1 2-10-1v2l-6 1 1-3 3-1v-2h5v-2l3-2 2-5v-7z" fill="#561C29"/>
<path transform="translate(367,67)" d="m0 0 2 1 3 2 9 2 4 4-1 11-3 1 3 6-1 6-1-2-4 1-3-10-3-5-1-7-1-2-3-1-2-5h2z" fill="#630C15"/>
<path transform="translate(185,414)" d="m0 0h6l6 8 2 4 1 4-3 4-1 3-6-1-8-9-1-7z" fill="#4A2832"/>
<path transform="translate(237,381)" d="m0 0h16l17 3 7 1 1 2h8l2 2-1 2-26-1-8-2h-10l-6-2z" fill="#A8989D"/>
<path transform="translate(292,99)" d="m0 0 16 1 25 3 1 4h-17l-40-2-6-1v-1l16-1 1-2z" fill="#D4ACB4"/>
<path transform="translate(475,362)" d="m0 0h1v22l5-1v-18l2 1 2 10 2 6h6l-4 6-16 4-5 1v2l-3 2-4-1 2-7 10-3 1-3z" fill="#470A0F"/>
<path transform="translate(318,587)" d="m0 0h1l1 9 1 53 2 50v23h-1l-2-38-1-27-1-4-1-36 1-21h-5l-3-2v-4h7z" fill="#960D24"/>
<path transform="translate(259,709)" d="m0 0h10l31 8 2 1v2h2l-1 4-18-3v-2l-10-1-15-5z" fill="#AC9CA1"/>
<path transform="translate(231,386)" d="m0 0 1 2 16 3 11 1 9 2 17 2 1 2-15 1-3 3h-7l-5-2v-2l-5 1v-3l-12-2-7-3z" fill="#240509"/>
<path transform="translate(786,521)" d="m0 0 3 1-5 5-8 7-4 9-2-4 3-7-5 2-2 2-7 2h-8l-1 5h-2l-1 2 1-7h2l1-3h2l1-4 4-1 2-2 4-1h9l12-5z" fill="#534D53"/>
<path transform="translate(311,428)" d="m0 0 2 3 1 17v28l-3-1-3-4v-2l4-2v-7l-2-2-2-4-8 1 5-10-2 2v-6l4-2 2-6z" fill="#150306"/>
<path transform="translate(495,391)" d="m0 0 3 1 1 5v15l-3-1v-7l-3-7-7 2v6l5-3 2 1v3l-7 3 1 7h-6l-1-3v-17l9-3z" fill="#F7ECEE"/>
<path transform="translate(147,389)" d="m0 0 5 2 2 21 1 12 2 43v21h-1l-1-16-2-15-1-11-2-51h-2l-1 3h-2v-8z" fill="#9F0D27"/>
<path transform="translate(523,705)" d="m0 0 4 1 8 9v2h-7v-3l-5 2-3 5-5 1-12 6-9 1 5-4 6-3 4-5 7-4 3-4h2z" fill="#1D191F"/>
<path transform="translate(530,168)" d="m0 0h13v5l5 1v7l-7 2v-2h-3v-2l-4 3h-7v-9z" fill="#2B0409"/>
<path transform="translate(160,705)" d="m0 0 6 1v2h-5l3 15 2 1v4l5-1 3 2 1 5 3-1v2l5-1 3 3-2 4-3-4h-5l-4 4-5-1-6-6-1-16z" fill="#443C42"/>
<path transform="translate(379,97)" d="m0 0 3 1 4 7 1 5 5 1 5 8 4 4 5 1-1 3-4 1 2 5v6l-2 1-4-11-5-2-2-3v-4l-3-1v-3h2l-1-3-2-1-2-6-3-1v3l-4 1-4-2 1-2h5z" fill="#512731"/>
<path transform="translate(351,70)" d="m0 0 4 1 5 9 3 3 1 4-1 5-4-1 1-2-6-2-2-2-7-2-2-11 3-1z" fill="#483F45"/>
<path transform="translate(673,569)" d="m0 0h8v1l-8 2-6 5-2 3v8l5 6 9 2 8-2 4-6h1l-1 7-6 4-7 2-12-6h-3l-2 1-2 3-1-4 2-17 4-7h6z" fill="#614E56"/>
<path transform="translate(582,393)" d="m0 0 1 2-5 5-16 6-34 10-16 5-3-1v-2l48-15 17-5z" fill="#DEA4AF"/>
<path transform="translate(503,387)" d="m0 0h4v2h-2v20l-5 1-1-1-1-17-9 2-8 2v10l-1 6h-1v-17l-9 2-1 2v-3l7-3 12-2z" fill="#C6092D"/>
<path transform="translate(515,724)" d="m0 0 4 1v2l-12 6-19 10-12 5h-4l1-4h2v-2l8-3 4-2 4-3 13-4z" fill="#504A50"/>
<path transform="translate(404,145)" d="m0 0 3 1-10 6-4 4-2 8-2 15-2 7-3 20-1 4-1 15-1 3-2 20-2 3v-9l3-29 5-28 1-7 1-17 7-10 4-3z" fill="#950D24"/>
<path transform="translate(436,458)" d="m0 0 5 1v1l-14 4-11 2-2 2v21l2 6 11-2 10-3 3-10 2-4-1 11-3 6-8 3-11 2-5-1-3-6v-20l2-9 21-3z" fill="#720C19"/>
<path transform="translate(524,700)" d="m0 0 3 1-2 1v3l-7 6-5 5-4 1-4-1v-6l-1-5 8-3z" fill="#36262F"/>
<path transform="translate(809,627)" d="m0 0 2 1-1 8v7l-3 6h-2l-2 6h-3l-1 3-3-4v-5l1-5 2-6 6-4h2l1-6z" fill="#4F484E"/>
<path transform="translate(619,144)" d="m0 0h2l1 7v17l-1 6-5-1-2-7v-18l2-3z" fill="#120306"/>
<path transform="translate(373,310)" d="m0 0h1v31l-2 1v-2h-3v-2l-4-1v-12l-1-4 1-3 5-1 2-1z" fill="#2D050A"/>
<path transform="translate(656,110)" d="m0 0h2l5 5v13l-2 13-2 1v-4h-2l-2-12-3-5 1-6 3-1z" fill="#B80C2C"/>
<path transform="translate(215,319)" d="m0 0 24 1 4 1 1 7-9-1h-4-7l-12-3-1-3z" fill="#D7A3AD"/>
<path transform="translate(296,294)" d="m0 0h2l3 8 6 4-1 6 2 6 2 14 2 9-1 3-3-1-6-26z" fill="#514A50"/>
<path transform="translate(426,166)" d="m0 0h12l3 3 1 38-5 2-15 1 1-17 1-24zm0 3v19l-2 11v9l2 1 13-2 2-3-1-31-1-4z" fill="#810C1E"/>
<path transform="translate(206,260)" d="m0 0h15l4 4 2 3v3l-6-1-8-5v2l-5 1-7-1-2 4h-6l1-4 3-4z" fill="#422730"/>
<path transform="translate(236,384)" d="m0 0 1 2 13 1 7 1 17 3 19 3 15 1 1-5-2-2 4 1v6l-1 2h-15l-20-3h-13l-3-1-17-2-3-1-3-3z" fill="#7D3948"/>
<path transform="translate(375,110)" d="m0 0h8l6 3v3h-2l1 3 2 1 2 6h-3l-1 9-4 2v-8h-6l3-2 6-1v-4l-7-1-5 1-1-5 2-2h4v-2l-5-1z" fill="#34242D"/>
<path transform="translate(306,453)" d="m0 0 4 2 2 4h1v9l-5 1-2 5-6 3-9-1v-2h-2l1-2 4 2h7l3-2-1-7-4-5v-5z" fill="#1F151C"/>
<path transform="translate(351,152)" d="m0 0h2v8l-2 5-2 11h-2l-1 5-5 9-6 3 3-9z" fill="#635B60"/>
<path transform="translate(220,421)" d="m0 0h5v3l4 2 3 2 2 5v4l-4 1-1 2h-4v-3h-2l-4-6-1-1v-7z" fill="#6B565D"/>
<path transform="translate(807,532)" d="m0 0 6 2 5 1 5 13 1 9-1-2-3-1-7-8-3-2v-2h-2l-2-6z" fill="#514A50"/>
<path transform="translate(545,335)" d="m0 0 3 1-2 2-1 22-2 2h-6v-22h5v-2h2z" fill="#2D272D"/>
<path transform="translate(231,103)" d="m0 0h22l81 4v2l-25-1h-37l-5 1-7-2v-2l-29-1z" fill="#5F585D"/>
<path transform="translate(319,657)" d="m0 0h1l2 51 1 14v22l-2-3v-25h-2l-1-11-3-1-1-4h2v-3l-2-1 4-2z" fill="#4D070F"/>
<path transform="translate(449,368)" d="m0 0 2 2 2 11v10l9-1 1 2v3l-3 3-5 1h-8l2-25z" fill="#36090F"/>
<path transform="translate(323,748)" d="m0 0 2 1 67 1 22 1v1l-15 1 4 2-15-1v-1l-12-1h-21l-4 2-3 1-2-1-4 1-3-2v-2h-16z" fill="#3D262F"/>
<path transform="translate(165,348)" d="m0 0h1l2 7 3 2 1 11-2 5-2 3v7l7-1 11 2v1h-14l1 7-4 2-1 5h-1l-1-9-1-1h-12l-1-4 7 1 6-3 2-10 2-3v-10l-4-6z" fill="#160306"/>
<path transform="translate(564,324)" d="m0 0h5l1 1v7h-1v-5l-15 3-28 7h-14l4-2 32-8z" fill="#E7C7CD"/>
<path transform="translate(313,416)" d="m0 0h1l1 24 1 41v31l-10-3-2-4 7 1 3 1-1-59-1-20z" fill="#640A14"/>
<path transform="translate(473,686)" d="m0 0h7l10 7 2 3 4 2h6l4-2 3 1-8 6-5-1-10-8v-2l-4-1-1-1h-8l-12 5-20 10-3-1 21-10 3-1v-2l4-3z" fill="#9D0D26"/>
<path transform="translate(511,387)" d="m0 0h5l-1 4-4 1-2 7h2l1-4 1-2h2l1 7-4 3 1 4 2 1-1 3h-7l-1-2v-19l1-2z" fill="#F7F1F2"/>
<path transform="translate(541,673)" d="m0 0h5l-6 7-8 5h-2l-1 3-6 4-2 3v4l-8 1-1 3-9 3-2-1 9-8 5-3 2-3 5-2 16-12z" fill="#310409"/>
<path transform="translate(304,564)" d="m0 0 4 1 4 8-1 8-1 1h-8l-4-2 3-10z" fill="#7C545F"/>
<path transform="translate(252,404)" d="m0 0 15 1 9 1v1h-7l1 4 8 5-2 1-12-1-8-4-1-4h-2z" fill="#514B51"/>
<path transform="translate(370,303)" d="m0 0 2 1 2 6-1 7h-3l-1 2-4-1-1 6h-3v-2h-3v-2l2-2 2-3-1-3-4 1 1-5 2-2v4l6-1 2-4h2z" fill="#33242D"/>
<path transform="translate(152,240)" d="m0 0 4 1v11l-1 11v9l-4 2v-2h-2v-16h2z" fill="#5B575B"/>
<path transform="translate(512,351)" d="m0 0h2l1 19-2-3v-3l-3 1-4 6h-4v-15l1-1h5l2 4h2z" fill="#352F34"/>
<path transform="translate(235,317)" d="m0 0h6l3 1h5l-1 6h-2l3 5v2l-10-1-23-3-5-2-1-5 2 1v3l10 1 2 1h7 4l9 2-1-7-23-1v-1l15-1z" fill="#DF032E"/>
<path transform="translate(324,223)" d="m0 0 1 3-10 25-6 17-8 20-4 2 3-10 15-36 7-18z" fill="#A0979B"/>
<path transform="translate(313,547)" d="m0 0 3 1v11l-3 5-4 1-2-3-7 1v-6l3-2 7-2z" fill="#250509"/>
<path transform="translate(278,366)" d="m0 0 9 2v9l-2 3h-12l-5-2 1-7 1 2 4 2 7 1v-5l-6-2v-2z" fill="#F4EDEF"/>
<path transform="translate(413,478)" d="m0 0 5 5 4 2 6 4v2l4 2-13 3-4-1-2-6z" fill="#430509"/>
<path transform="translate(589,636)" d="m0 0h3l-2 4-6 4h-2l-2 4h-2l-1 3h-2v2l-5 4-3 3-7 1-10 9-2 3-4-1 10-9 5-4 1-2 6-3 6-5h2v-2l3-1 1-2 3-1 1-2 5-2z" fill="#4C0710"/>
<path transform="translate(307,468)" d="m0 0 4 5 3 3v6l-1-2-11 4-6-1-3-5-2-2h9l6-3z" fill="#29060B"/>
<path transform="translate(569,338)" d="m0 0 4 5 1 1v10l10-1 2 5v25h-2v-23l-1-5-11 3h-3z" fill="#E4C0C7"/>
<path transform="translate(550,170)" d="m0 0 2 1v9l-2 2h2v20l-8-1 1-4 1-2-3-3v-5l5-2 1-12z" fill="#655E62"/>
<path transform="translate(563,330)" d="m0 0h4l2 19-2 11-4 2v-29l-2-1h2z" fill="#2A0308"/>
<path transform="translate(361,120)" d="m0 0h5l3 3-2 1-2 16-2 3 1-12 1-4h-2v8l-3 15h-1l-1-10-1-4-3 1 1-4 6-9z" fill="#4F484E"/>
<path transform="translate(651,600)" d="m0 0 2 2-3 4-2 3-5 2-6 4-6 1v2l-5 2h-3v2l-6 4-8 4-7 2 1-3 7-4h3v-3l5-1v-2l14-5 5-3h4v-2l7-4 1-3h2z" fill="#49070D"/>
<path transform="translate(519,336)" d="m0 0 4 1-10 3-41 10h-5l3-2 8-3 9-3 21-5z" fill="#EDD7DB"/>
<path transform="translate(252,364)" d="m0 0h11l1 4v7l-3 3-5-1-1-3h-10l-1-2 10-1 1-3-4-1z" fill="#E7E0E2"/>
<path transform="translate(398,89)" d="m0 0h11l-3 2-4 1 1 8h23v1l-23 2h-9l-1-13z" fill="#2C070C"/>
<path transform="translate(292,600)" d="m0 0 2 1-2 9-8 13-6 7-4 1 2-5 9-15 5-9z" fill="#554E54"/>
<path transform="translate(298,429)" d="m0 0 5 1v3h6l-3 5-9 1-2 4-5 2-4-1v-5h-2l1-2 4 2v3h2l1-4 1-2-2-1h2l1-5 1 3h3z" fill="#35252E"/>
<path transform="translate(147,361)" d="m0 0h1v8l1 5v2l2 1v13h-7v-28l2 2z" fill="#4D454B"/>
<path transform="translate(141,304)" d="m0 0 3 3 1 9 1 3v23l-2 9h-1l-2-14v-9l1-7z" fill="#534B51"/>
<path transform="translate(570,665)" d="m0 0 6 1v6l3-1h4l4-1-3 3-14 7-3-1 1-5-3-3 3-5z" fill="#120407"/>
<path transform="translate(751,576)" d="m0 0 1 4h2l-1 6-7 22-2 8-2-1 1-14 6-20z" fill="#524C52"/>
<path transform="translate(401,108)" d="m0 0h19v1l-10 1-2 10 1 5-12-10v-3l-1-3z" fill="#BA0C2D"/>
<path transform="translate(163,611)" d="m0 0h1l2 44 1 30v19l-1 2h-5l-1-2 4-1v-35l-1-27z" fill="#8B0E22"/>
<path transform="translate(526,339)" d="m0 0h5v26h-1l-1-17-1-5-7 1-5 3-2 4-3-1v-3l-10 1 3-3 10-4z" fill="#190C11"/>
<path transform="translate(712,579)" d="m0 0h1l3 10 5 1 4-9 1 3-3 12-5 5h-6z" fill="#9A9094"/>
<path transform="translate(513,367)" d="m0 0 2 3 2 5h6l7-5 6 1v2h-2l-1 3-16 4h-10l1-3 3-3h2z" fill="#40050A"/>
<path transform="translate(174,624)" d="m0 0h2l1 72-3 9-5 5h-2l-1-3 5-1 3-10z" fill="#2B0409"/>
<path transform="translate(577,160)" d="m0 0h5l1 1v8l-2-3-1-4-15 2-3 1-16 1-1 1-7 1h-8l-2 5-1 9h6l-1 3-5 1v-2h-2v-11l3-5 7-2 10-2 14-1 7-2z" fill="#800C1D"/>
<path transform="translate(396,232)" d="m0 0 4 1 1 2v8l5 1-1 2-7-2-2-2v-7h-3l1 6 1 3-3 4h-4l1-12 2-3z" fill="#EEDDE0"/>
<path transform="translate(447,356)" d="m0 0 1 3 6-1 3 2h-4v21h-1l-2-11-1 15-1 13h-1z" fill="#38242C"/>
<path transform="translate(167,346)" d="m0 0 8 1 9 1 3 1-4 3-8 1h-2v18l-1 2-2-1 1-6-1-9-4-4v-6z" fill="#502630"/>
<path transform="translate(144,685)" d="m0 0 2 1 1 5 6 7 3 1v4l-7-1v-3l-9-2-4 2 3-9z" fill="#4D464C"/>
<path transform="translate(518,87)" d="m0 0h13l28 2v1l-24 3h-11l-2-1 1-3-5-1z" fill="#29242A"/>
<path transform="translate(400,738)" d="m0 0h5l4 5v5l-1 1h-13l-1-4 4-6z" fill="#120306"/>
<path transform="translate(398,709)" d="m0 0 5 3v13l-2 3h-5l-1-2v-13z" fill="#630B14"/>
<path transform="translate(350,165)" d="m0 0h1v9l-4 27h-1l-1-5h-5v-6l8-16z" fill="#544F54"/>
<path transform="translate(487,218)" d="m0 0h7l-1 4-10 1 1 6h7l-1 4-9 1-2-2-1-11 3-2z" fill="#F3E8EA"/>
<path transform="translate(293,462)" d="m0 0 4 1-2 6 5-1v-2l5 1v5l-4 3h-7l-6-4-1-4 6-2z" fill="#E3CBD0"/>
<path transform="translate(406,125)" d="m0 0 3 2v3h2v7l-2 7-4 1-3-12-2-6z" fill="#1E0A0E"/>
<path transform="translate(265,709)" d="m0 0 7 1 28 7 2 1v2h2l-1 4-18-3 4-2 11 2-13-4-10-2-8-2-1-2z" fill="#857D81"/>
<path transform="translate(254,607)" d="m0 0 1 4 2 4 3-3v14l3 4v2h2l-1 4-5-2-5-7-1-17z" fill="#544E53"/>
<path transform="translate(617,140)" d="m0 0h5l2 2v35l-2 2h-10v-37zm-1 2-3 3v32l6 1 3-1 1-7v-18l-1-10z" fill="#7E0D1D"/>
<path transform="translate(448,825)" d="m0 0 3 1 2 3 2-1 3 3 2 4 3 3 2 7 3 1-2 1-7-4-5-5-5-9z" fill="#5D595D"/>
<path transform="translate(567,370)" d="m0 0 2 1-10 4-27 7-21 6-3-1 6-3 15-4 17-5 5-2z" fill="#D6052E"/>
<path transform="translate(421,231)" d="m0 0h1l1 12 6-2h3 9l-2 3-16 1v2l-17 1 3-2 3-1 1-11 2 1v8h5v-11z" fill="#B11C37"/>
<path transform="translate(269,407)" d="m0 0h8l4 1 3 5v2l5 1-2 4-5-2-12-6-2-3z" fill="#5A565A"/>
<path transform="translate(316,704)" d="m0 0 3 1v11h2v12l-11-1-1-4-1-2h10v-3h-3l1-8z" fill="#120306"/>
<path transform="translate(316,508)" d="m0 0h2l1 31 1 6 1 38h-2l-1 4v-28l-2-42z" fill="#DE032E"/>
<path transform="translate(152,666)" d="m0 0h1l1 5v25l-5-5v-3l1-5-2-5 1-4z" fill="#2B0409"/>
<path transform="translate(531,385)" d="m0 0 3 1 1 2v11l-2 1-2-4h-2l-3 6-4-1 1-12 5 1 3 2z" fill="#D9042E"/>
<path transform="translate(550,350)" d="m0 0 2 1 2 12 7 1-1 3-14 5-4-1 4-5 3-1v-13z" fill="#39070C"/>
<path transform="translate(526,221)" d="m0 0h1l1 6v26l26-2 6-1-1 2-19 3-11 1-2-1-1-3z" fill="#660A15"/>
<path transform="translate(434,227)" d="m0 0h5v12l2-1 3-6 2 3v5l-13 2v-14z" fill="#F4E6E9"/>
<path transform="translate(493,395)" d="m0 0 2 4v9l-3 5-6 1-1-5 6-3h2v-3l-5 1-3 2v-7l7-2z" fill="#CB062C"/>
<path transform="translate(549,382)" d="m0 0 4 1-1 14-2-4-2 7h-4v-16l-2-1h3l2 5z" fill="#E7C7CD"/>
<path transform="translate(394,104)" d="m0 0h29l1 3-23 2-7 1-1-4z" fill="#EAD2D7"/>
<path transform="translate(306,537)" d="m0 0 5 1 2 5-5 2v2l-2 1v4l-6-1-1-5z" fill="#A19499"/>
<path transform="translate(174,740)" d="m0 0 5 3 2 2v9l2 3v4l4 2 3 2 1 3 3 2-1 2-10-9-5-7-3-9v-3l-4-2h3z" fill="#6E666A"/>
<path transform="translate(169,437)" d="m0 0h1l1 23 1 21 3 1h-2v21l2 1-4-1-1-9-1-28z" fill="#120306"/>
<path transform="translate(575,383)" d="m0 0h1v6l-4 4-12 3v-9l2 2 2-2h2v2z" fill="#E7C9CF"/>
<path transform="translate(375,201)" d="m0 0h2l1 8v3l-1 3 2 1-1 6-2-1v-2l-4-1-2 1v-10l3-7z" fill="#2A1F27"/>
<path transform="translate(499,758)" d="m0 0h6l1 4v8h-1l-1-7-6 2-11 6h-2l-1 4-1-4 5-6 7-4z" fill="#534C51"/>
<path transform="translate(504,389)" d="m0 0h1v20l-5 1-1-1v-9l1-9 2-1 2 1z" fill="#D9052E"/>
<path transform="translate(536,381)" d="m0 0h3l1 10v10l-4 3h-2v-22z" fill="#F4E6E9"/>
<path transform="translate(426,169)" d="m0 0h13v1l-11 1 1 17-2 10 1 4-1 4-2 3-1-1v-9l2-14z" fill="#290408"/>
<path transform="translate(303,57)" d="m0 0h5l7 2 8 2v3h2v3l-18-4-6-3v-2z" fill="#483F45"/>
<path transform="translate(730,569)" d="m0 0 1 3-3 14-5 13-5 4-9 1-1-4 4-3v4l8-2 3-6 3-15z" fill="#595256"/>
<path transform="translate(217,421)" d="m0 0h2v9l3 2 1 5h2v3h4l1-3h4l-2-7 5 5 2 8-4-2-8 2-3-2v-2l-3-1-5-9v-6z" fill="#442E36"/>
<path transform="translate(413,230)" d="m0 0 5 1 1 2v10l-2 1-2-1-1-8h-5l-2 3h-2l-1 2-1-8z" fill="#EDDBDE"/>
<path transform="translate(188,418)" d="m0 0 4 2 6 7-1 4-4 1-5-2-2-5v-5z" fill="#655E62"/>
<path transform="translate(379,218)" d="m0 0h1l-3 42h-2l-1 22-3-3 2-12h-2l3-9 3-27 1-12z" fill="#582530"/>
<path transform="translate(118,669)" d="m0 0 5 1 1 8h2v6h-3l1 5-4-4-2-7z" fill="#5B555A"/>
<path transform="translate(317,548)" d="m0 0h1l1 18v10h-7l-3-9 6-1z" fill="#9A0D25"/>
<path transform="translate(436,458)" d="m0 0 5 1v1l-14 4-11 2-2 2-1 4-1 19h-1v-20l2-9 21-3z" fill="#9B0D26"/>
<path transform="translate(321,403)" d="m0 0h2l1 3 2 1v4l2 1v2h6v1h-19l-1-2v-8h1v7h4v-8z" fill="#4F2731"/>
<path transform="translate(196,367)" d="m0 0 1 2h2v-2l4 2v12l-2 4-4-1-1-7z" fill="#120306"/>
<path transform="translate(308,101)" d="m0 0h11l14 2 1 4h-17l-20-1v-2h23l-2-1-10-1z" fill="#A0979B"/>
<path transform="translate(371,363)" d="m0 0 2 3v20l-1 2-4-1v-11l-1-4 2-4z" fill="#1A161C"/>
<path transform="translate(296,367)" d="m0 0h9l1 1v9h-10z" fill="#2A252B"/>
<path transform="translate(313,577)" d="m0 0 4 1v11l-14-1v-3l8-3zm-12 11 2 1z" fill="#300409"/>
<path transform="translate(313,575)" d="m0 0 6 1-1 14-5 1-3-1v3l-5-2-1-3 13 1-1-11h-3l-2 5-10 4 1-3-3-2 1-2 2 1h8l1-5z" fill="#54202A"/>
<path transform="translate(495,391)" d="m0 0 3 1 1 5v15l-3-1v-7l-3-7-1 1h-5l4-1v-2h-7v-1z" fill="#F7ECEE"/>
<path transform="translate(548,666)" d="m0 0 3 1h-2l-2 4-3 2h-3l-2 4-14 11-4 3-4 1-5 5-3-1v-2l5-1v-2l9-5 7-6 7-4 3-4 7-4z" fill="#7D0C1C"/>
<path transform="translate(702,582)" d="m0 0h1v6l-1 4 3 11-6 2-2-1v-11z" fill="#625A5F"/>
<path transform="translate(308,545)" d="m0 0 5 1-2 7-2 2-9 2-1 2v-3l-2-1 1-9 2 4 6 1-1-4h3z" fill="#881A31"/>
<path transform="translate(805,636)" d="m0 0h2v13h-2v2l-5 1-2-3 2-8 3-1v-2h2z" fill="#575257"/>
<path transform="translate(389,126)" d="m0 0 6 1 2 2h-2v9h-2l-2 6-3-3v-12z" fill="#191318"/>
<path transform="translate(426,228)" d="m0 0h2l3 5-1 4h-2l-1 5-5 2v-12z" fill="#E9CCD2"/>
<path transform="translate(281,574)" d="m0 0 2 1-6 7 3 1-7 7-1 2h-2l-1 3-1-4h3l-3-3-2 5-5 4 2-4 5-7 8-7z" fill="#534D52"/>
<path transform="translate(758,559)" d="m0 0 4 2-1 5-6 14-4 2 1-9z" fill="#5E575C"/>
<path transform="translate(235,310)" d="m0 0 6 1 1 6-6 1v1h-22l2-2 10-1 8 1v-6z" fill="#69585E"/>
<path transform="translate(316,649)" d="m0 0h2l1 4v35h-1l-2-11-3-2 2-1-1-7 2-1v-14z" fill="#2D0408"/>
<path transform="translate(517,388)" d="m0 0h1v18l-1 1h-5l-1-4 4-3v-7h-2l-2 6h-2l1-7 6-3z" fill="#D3052D"/>
<path transform="translate(788,544)" d="m0 0h2l-1 4-2 4h-2l-2 4-5 8h-2l-1-5 6-8z" fill="#686064"/>
<path transform="translate(372,289)" d="m0 0h2v13l-2-3-4 3h-3v-2l-4-1 5-1 1-2-3-1 4-4z" fill="#38242D"/>
<path transform="translate(469,222)" d="m0 0h6l1 13-7 1-1-4z" fill="#F7ECEE"/>
<path transform="translate(691,588)" d="m0 0h1l-1 7-6 4-7 2-12-6-1-3 4 1 7 3 9-1 5-5z" fill="#615A5E"/>
<path transform="translate(344,249)" d="m0 0h1l-1 17h2l-1 11-3 6h-2v-9z" fill="#554F54"/>
<path transform="translate(774,516)" d="m0 0h12l7 1-1 2-7 1-4 1v-1l-13 1-8 2 3-3z" fill="#A7999E"/>
<path transform="translate(202,304)" d="m0 0h16v1l-14 1-1 9h11l6 1-4 2-1 2h-7l-3-1v-2l-3-1-1-3v-7z" fill="#70434F"/>
<path transform="translate(372,297)" d="m0 0h1v10l-2-3-5 5-6 1-1-5 4-5h2v2l6-3z" fill="#1A0F15"/>
<path transform="translate(747,686)" d="m0 0 3 3 5 6 3 5-6-1-8-4v-7z" fill="#4C4449"/>
<path transform="translate(285,267)" d="m0 0h6l-2 3-8 4-4 5-5-1v-4l3-3z" fill="#4A4248"/>
<path transform="translate(649,590)" d="m0 0 4 3v2l6 1v4h-8v2h-2l-1 4-5 3-2-1 6-5z" fill="#A70D28"/>
<path transform="translate(160,189)" d="m0 0h1l1 12-2 23h-1v-26l-2 9h-2l1-9 2-7h2z" fill="#4B444A"/>
<path transform="translate(260,385)" d="m0 0 10 1h7l1 1h8l2 2-1 2-21-1-6-3z" fill="#DEA4AF"/>
<path transform="translate(449,368)" d="m0 0 2 2 2 11v11h-4l-1 4v-11z" fill="#130307"/>
<path transform="translate(204,305)" d="m0 0h23v1l-9 1v2l-7-1-3 1v4h-3l-2 2v-9z" fill="#A13048"/>
<path transform="translate(181,745)" d="m0 0h2l3 12h2l4 9-1 3-2-4-6-4-3-8z" fill="#585357"/>
<path transform="translate(786,521)" d="m0 0 3 1-5 5-8 7-4 9-2-4 3-7-4-1 9-4 3-3z" fill="#4B4248"/>
<path transform="translate(448,811)" d="m0 0h2v2h2l4 4 2-1 2 4v5l-1-2-3 1-5-4-4-2-1-4z" fill="#483F45"/>
<path transform="translate(446,359)" d="m0 0h1v39l-2 1-1-27 1-11z" fill="#ECD6DA"/>
<path transform="translate(158,197)" d="m0 0 2 1-1 17-2 12-2-1v-19h2z" fill="#5A555A"/>
<path transform="translate(380,708)" d="m0 0 4 2-1 7-1 3-5 1-2-3 2-9z" fill="#630B14"/>
<path transform="translate(430,707)" d="m0 0h5l-1 3-19 7-7 1-1-2v-6l2 4v2l17-7z" fill="#740C1A"/>
<path transform="translate(255,395)" d="m0 0 8 1 7 1 1 3-3 2h-7l-5-2v-2l-5 1 1-3z" fill="#120306"/>
<path transform="translate(523,691)" d="m0 0h1v5h7l2 2-5 3-15 1v-2l6-2 2-4z" fill="#16070A"/>
<path transform="translate(438,174)" d="m0 0h1v19l-3 3h-5l-1-4 1-3 4-1 2-7z" fill="#120306"/>
<path transform="translate(177,505)" d="m0 0 6 1 5 3 2 4-2 1-13-3-1-4z" fill="#120408"/>
<path transform="translate(283,451)" d="m0 0 3 1-1 2h-3l1 6h-2l2 2h2l1 6 3 4-4-2-5-4-2-5v-6z" fill="#762D3D"/>
<path transform="translate(566,90)" d="m0 0h12l21 1v1l-16 1h-21l-6-1v-1z" fill="#ECD2D7"/>
<path transform="translate(144,677)" d="m0 0 5 2v3l2 1-2 7 5 5 1 4-4-2-4-4-1-13-2 4-3-3z" fill="#35252D"/>
<path transform="translate(293,388)" d="m0 0 10 1 6 2v2l-3 1h-13l-2-5z" fill="#DEA4AF"/>
<path transform="translate(269,359)" d="m0 0h16l3 2v3l-5 1-9-3-5 1z" fill="#EEE6E8"/>
<path transform="translate(465,396)" d="m0 0h3l-1 9-2-3v-2l-17 3-2-1v-2z" fill="#E3C4CA"/>
<path transform="translate(573,353)" d="m0 0h11l2 5v25h-2v-23l-1-5-6 2-4-1z" fill="#DCA3AE"/>
<path transform="translate(531,342)" d="m0 0h1l1 28-8 4-2 2-3-2 8-4 1-22h1z" fill="#716569"/>
<path transform="translate(550,167)" d="m0 0h2l1 3 1 18v15l-4 1-1-3h2l1-19h-2v-5h1v-6l-2 2v-5z" fill="#5E3540"/>
<path transform="translate(816,541)" d="m0 0 5 1 3 10v5l-1-2-3-1-5-8-2-4z" fill="#5B565A"/>
<path transform="translate(765,532)" d="m0 0 4 1-3 3-7 2h-8l-1 5h-2l-1 2 1-7 6-2v-2h6z" fill="#483F45"/>
<path transform="translate(458,225)" d="m0 0 2 1v11l-1 2-9 1-1 2-3-2 3-1 1-3 4 1 2-4 1-7z" fill="#9D0C25"/>
<path transform="translate(346,109)" d="m0 0 8 1 6 4v2l-9-1-9-2-1-3z" fill="#4D454B"/>
<path transform="translate(181,426)" d="m0 0 9 9 6 1 1-4 5 1v-5l3 2 1 4-5 2h-3l-1 3h-5l-8-5-3-6z" fill="#17080D"/>
<path transform="translate(607,403)" d="m0 0h1l1 27 16-2-3 3-13 1-2-3-1-24z" fill="#710C19"/>
<path transform="translate(467,398)" d="m0 0h1v31l8 1v1l-8 1-2-5v-22z" fill="#DEA4AF"/>
<path transform="translate(236,384)" d="m0 0 1 2 13 1 7 1 4 2-8 1-5 1-9-2-3-3z" fill="#A80E2C"/>
<path transform="translate(464,351)" d="m0 0 4 1h-3v2l-5 2v3h-7l-3 1-2-1 1-4z" fill="#2D060D"/>
<path transform="translate(789,541)" d="m0 0h6v4l-3 4-4 1 2-6-8 7-4 3 1-4h2l2-4z" fill="#595357"/>
<path transform="translate(310,411)" d="m0 0 5 2-2 12-1-2h-2l-2-5-9 1 1-3 4-2v2l4-1v2l3-1-2-4z" fill="#230509"/>
<path transform="translate(520,350)" d="m0 0h4v16l-1 2h-3z" fill="#221C22"/>
<path transform="translate(326,334)" d="m0 0 1 2-6 12-1 5-2 2v-2h-2l3-12 2-6 1 2h3z" fill="#483F45"/>
<path transform="translate(368,74)" d="m0 0 3 1 2 5 1 5 4 10-1 4-5-8-3-5 1-6z" fill="#432630"/>
<path transform="translate(236,402)" d="m0 0 5 1 1 3-6 3-3 5-5-2 2-4z" fill="#585156"/>
<path transform="translate(491,341)" d="m0 0h3v2l2 1-24 6h-5l3-2 8-3 9-3z" fill="#E8C8CE"/>
<path transform="translate(624,396)" d="m0 0h5l1 2v23l-4 7-1-2 3-8v-10l1-9-11 1 1-2z" fill="#720B19"/>
<path transform="translate(536,330)" d="m0 0 3 1h-2l1 3-12 3h-14l4-2z" fill="#E5C4CB"/>
<path transform="translate(166,399)" d="m0 0h2l1 12v21h-2l-1-20z" fill="#230308"/>
<path transform="translate(493,349)" d="m0 0 3 1 2 21 1 7-3 3-2-1v-29z" fill="#432D32"/>
<path transform="translate(201,261)" d="m0 0h5l-1 4 3 1h-7l-2 4h-6l1-4 3-4z" fill="#63464F"/>
<path transform="translate(487,388)" d="m0 0m-8 1h8v2l-3 2-8 1-4 2h-6l2-1v-2z" fill="#6A0B16"/>
<path transform="translate(540,383)" d="m0 0 4 1v18h-2l-2-3z" fill="#C4092D"/>
<path transform="translate(315,544)" d="m0 0 2 2v15l-2 6-3 1-5-3h-4l1-4 4 1 1 2 4-1 2-4v-11l-2-1v-2z" fill="#5B1620"/>
<path transform="translate(344,71)" d="m0 0 6 2 5 7-4 2-4-1-4-7z" fill="#514B51"/>
<path transform="translate(519,381)" d="m0 0h7l-4 2-10 3-5 2-7 1-9 1 4-2 3-2 9-1 4-2z" fill="#8B0E22"/>
<path transform="translate(548,185)" d="m0 0h1v16h-5l1-4 1-2-3-3v-5z" fill="#514B51"/>
<path transform="translate(426,166)" d="m0 0h12l1 3h-13l1 19-2 3v-24z" fill="#770C1B"/>
<path transform="translate(435,468)" d="m0 0h2l1 6-5 1-1 2h-2l-2-2h-3l-1 3h-3l1-5h5l6-2z" fill="#4F363E"/>
<path transform="translate(323,430)" d="m0 0h2l2 6-1 11 1 4-2-1v-2h-2v-5l-1-2 1-2-2-1 1-3-1-3z" fill="#F91337"/>
<path transform="translate(160,705)" d="m0 0 6 1v2h-5l1 3 2 18-1 6-2-1-1-16z" fill="#554A4F"/>
<path transform="translate(143,692)" d="m0 0 3 1v3l7 2 3 1v4l-7-1v-3l-10-2v-2h3z" fill="#585357"/>
<path transform="translate(292,600)" d="m0 0 2 1-2 9-6 4v4l-3-1 2-6 5-9z" fill="#534D52"/>
<path transform="translate(505,389)" d="m0 0 2 1v21l4 1-7 2h-6l1-5h5z" fill="#E8CCD2"/>
<path transform="translate(539,379)" d="m0 0 4 1h-2l-1 11h-1v-10l-5 1-1 4-2-1 1 7h-3l-1-2h2l-1-5-5-1v-1l8-2z" fill="#E0ADB7"/>
<path transform="translate(622,152)" d="m0 0h1v18l-1 7-6 1-2-1v-11h1l2 7 4 1z" fill="#340409"/>
<path transform="translate(404,89)" d="m0 0h5l-3 2-4 1 1 8-7 1v-8l5-3z" fill="#120306"/>
<path transform="translate(571,369)" d="m0 0 3 1-1 2-3 1-1 2-7 1-2 3h-2v-2l-11 1 3-2 15-4z" fill="#DEA4AF"/>
<path transform="translate(481,365)" d="m0 0 2 1 2 10 2 6-2 2-4-1z" fill="#3E3036"/>
<path transform="translate(368,347)" d="m0 0h5v14l-5-2-1-11z" fill="#1A151C"/>
<path transform="translate(483,222)" d="m0 0h8l1 5-6 3-3-1-1-6z" fill="#9D0C25"/>
<path transform="translate(321,753)" d="m0 0h2v26l-5-1 2-1z" fill="#534C52"/>
<path transform="translate(541,673)" d="m0 0h5l-6 7-8 5h-2l-1 3-4 2 1-4 13-10z" fill="#2A0408"/>
<path transform="translate(152,648)" d="m0 0h1l1 11v12h-1v-10l-4 1-1-4 1-2v-7z" fill="#562833"/>
<path transform="translate(318,275)" d="m0 0 5 3 1 3-1 2-7 3h-3v-2h2l1-6z" fill="#686064"/>
<path transform="translate(377,135)" d="m0 0h6l-1 3h-3l1 3 5 1-1 4-6 1-2-5z" fill="#120407"/>
<path transform="translate(658,114)" d="m0 0 5 1v13l-3-1-3-10z" fill="#640B15"/>
<path transform="translate(496,798)" d="m0 0h8l1 4-1 2-8 1-1-5z" fill="#625B60"/>
<path transform="translate(564,658)" d="m0 0m-1 1 3 2-5 3-5 5h-2v2l-5 1 2-4 9-8z" fill="#260308"/>
<path transform="translate(260,602)" d="m0 0h1v8l-4 6-3-3 1-7z" fill="#665E62"/>
<path transform="translate(185,414)" d="m0 0h6l6 8 2 3-4-2-3-2-1-5h-5l-1 3h-2l1 7 2 5-4-4-1-7z" fill="#3B262F"/>
<path transform="translate(147,389)" d="m0 0 5 2 1 6v15h-1l-1-14-1-3h-2l-1 3h-2v-8z" fill="#8B0E22"/>
<path transform="translate(362,340)" d="m0 0h5v5l3-1v2h-3v2l-6 1-3-1v-2h3z" fill="#1A161C"/>
<path transform="translate(467,223)" d="m0 0h2v12l4 2h-6l-3-1v-7l2-5z" fill="#B90B2B"/>
<path transform="translate(355,182)" d="m0 0h1v12l-1 2-1 10-2 2v-15l2-8z" fill="#625B5F"/>
<path transform="translate(272,714)" d="m0 0 7 1 13 2 10 4-4 1-22-5z" fill="#E2B8C0"/>
<path transform="translate(239,358)" d="m0 0h2v14l-1 3h-3v-10z" fill="#B6A5AA"/>
<path transform="translate(346,247)" d="m0 0 2 1v12l-1 6h-3v-9z" fill="#5E575B"/>
<path transform="translate(427,201)" d="m0 0 8 1 3 1-1 4-11 1z" fill="#4F2731"/>
<path transform="translate(622,619)" d="m0 0 4 1h-3v2l-6 4-8 4-7 2 1-3 18-9z" fill="#44060C"/>
<path transform="translate(276,447)" d="m0 0 11 1 3 3v1h-7l-4 3-1-3-3-1z" fill="#42333B"/>
<path transform="translate(222,439)" d="m0 0h2l3 3 5-2 4 1 3 2 1-2-1 4-5 2-12-5z" fill="#24060B"/>
<path transform="translate(307,419)" d="m0 0 3 2v2h2l1 5h-2l-1 5-2-4h-2l1-4v-2l-5-2v-1z" fill="#422E36"/>
<path transform="translate(198,400)" d="m0 0h3l2 2-4 7-6-1-1-2 5-5z" fill="#4D454B"/>
<path transform="translate(522,384)" d="m0 0h7l1 3v3l-7-1-4-2-1 2h-2l-1-3z" fill="#EDD4D9"/>
<path transform="translate(488,351)" d="m0 0h2v19l-2-1-2-9-1-5z" fill="#271C22"/>
<path transform="translate(210,320)" d="m0 0 2 1v3l10 1 2 1h7 4l4 2v1h-10l-16-3-3-3z" fill="#E3032F"/>
<path transform="translate(381,217)" d="m0 0h1v8l-1 3-2 20-2 3v-9l2-19z" fill="#A50D28"/>
<path transform="translate(292,717)" d="m0 0h8l2 1v2h2l-1 4-18-3 4-2 11 2-8-3z" fill="#8E8589"/>
<path transform="translate(303,502)" d="m0 0 10 3 1 2-10-2 2 3 9 3v1l-8-1-7-4-1-4z" fill="#4A2C35"/>
<path transform="translate(620,410)" d="m0 0h4l-1 4-6 3h-4l-1-3 1-3z" fill="#6F0B18"/>
<path transform="translate(301,461)" d="m0 0h2l4 6v6l-7 4-9-1v-2h-2l1-2 4 2h7l3-2-1-7z" fill="#822135"/>
<path transform="translate(267,394)" d="m0 0 18 2 1 2-13 1-9-2z" fill="#1C0B0F"/>
<path transform="translate(299,387)" d="m0 0 8 1 3 2-1 5-5 1-11-1 1-2h15v-2l-6-1-4-1z" fill="#A0979B"/>
<path transform="translate(511,343)" d="m0 0h6v3l-3 5-3-1v-3l-10 1 3-3z" fill="#231C22"/>
<path transform="translate(311,512)" d="m0 0h4v20l-2 1h-8l4-1v-2l2-1 2-6 1-10z" fill="#250308"/>
<path transform="translate(493,405)" d="m0 0h1v6l-5 3-4-1 1-5z" fill="#D8052E"/>
<path transform="translate(568,349)" d="m0 0h1v21l-11 3h-7l4-2 7-2 4-1 1-1z" fill="#8B0E22"/>
<path transform="translate(458,696)" d="m0 0m-3 1h3v2l-16 7-6 3-2-1v-2l11-4z" fill="#660B15"/>
<path transform="translate(145,374)" d="m0 0h1v11l2-1 2-7h1v13h-6z" fill="#43242D"/>
<path transform="translate(397,233)" d="m0 0h3l1 2v8l5 1-1 2-7-2-1-1z" fill="#F4ECED"/>
<path transform="translate(184,587)" d="m0 0 7 1 2 2h-2l-1 4-7-1-1-4z" fill="#120306"/>
<path transform="translate(165,348)" d="m0 0h1l2 7 3 2 1 11-2 5-2 3v7l-2-1v-7l3-5v-10l-4-6z" fill="#290308"/>
<path transform="translate(360,354)" d="m0 0 2 4-1 10-3 1-3-3 1-5 3-3z" fill="#35252E"/>
<path transform="translate(619,144)" d="m0 0h2l1 8-7 2-1-6 2-3z" fill="#1A161C"/>
<path transform="translate(392,126)" d="m0 0h13l-4 2 2 5v6l-2 1-4-11-5-2z" fill="#3A262F"/>
<path transform="translate(744,598)" d="m0 0 4 2-4 16-2-1 1-14z" fill="#4E464C"/>
<path transform="translate(338,412)" d="m0 0 11 1v1l-13 2h-22v-1l20-1z" fill="#6B1C2A"/>
<path transform="translate(252,404)" d="m0 0h7l-3 2 1 5h5l4 2 6 2v1h-8l-8-4-1-4h-2z" fill="#483F45"/>
<path transform="translate(556,388)" d="m0 0 2 1 1 8-7 1v-8l2-1 2 1z" fill="#E7C8CE"/>
<path transform="translate(252,364)" d="m0 0h5l-1 9-1 1h-10l-1-2 10-1 1-3-4-1z" fill="#96858B"/>
<path transform="translate(246,366)" d="m0 0h3v2h6l-1 4h-10l1-5z" fill="#FCFAFB"/>
<path transform="translate(501,344)" d="m0 0h7l-4 2-5 5-2 7h-1l-1-8-4-1z" fill="#14070A"/>
<path transform="translate(544,328)" d="m0 0h11l-1 2-12 3h-5v-2h2v-2z" fill="#ECD6DA"/>
<path transform="translate(151,235)" d="m0 0 2 1-1 17-1 3h-2v-13z" fill="#4D464C"/>
<path transform="translate(308,540)" d="m0 0h2l-1 3-4 3-1 4h-5l1-5 2-3z" fill="#D7A2AC"/>
<path transform="translate(298,530)" d="m0 0 6 4 7 1-4 2-6 8-2-1 2-4h2v-4l-5-1-1-4z" fill="#644A52"/>
<path transform="translate(315,504)" d="m0 0h1v8l-10-3-2-4 7 1 4 1z" fill="#930C23"/>
<path transform="translate(358,128)" d="m0 0 2 2v20h-1l-1-10-1-4-3 1 1-4z" fill="#483F45"/>
<path transform="translate(722,588)" d="m0 0 1 4-4 7h-4l1-7 5-2z" fill="#E2B7C0"/>
<path transform="translate(303,588)" d="m0 0 2 1v2l5 2 7 3v6l-5-4-5-3-6-5z" fill="#210408"/>
<path transform="translate(673,569)" d="m0 0h8v1l-8 2-7 6h-3v-6l2-1 7-1z" fill="#544B51"/>
<path transform="translate(217,421)" d="m0 0h2v9l3 2 1 5h2v3l3 1h-4v-2l-3-1-5-9v-6z" fill="#462A33"/>
<path transform="translate(513,393)" d="m0 0h2l1 7-4 3-2 3v-5h-2l1-3 2 1 1-4z" fill="#ECD1D6"/>
<path transform="translate(550,350)" d="m0 0 2 1 2 13-6 4-2-2 3-1v-13z" fill="#583F46"/>
<path transform="translate(299,280)" d="m0 0 1 3-3 7 3-2 3-7 2-1 1 5-5 5-5 2 1-8z" fill="#645C61"/>
<path transform="translate(149,257)" d="m0 0 2 1-1 9 5-2v7l-4 2v-2h-2z" fill="#4F484E"/>
<path transform="translate(321,403)" d="m0 0h2l1 3 2 1-1 5h-6v-8z" fill="#36262F"/>
<path transform="translate(523,389)" d="m0 0 5 1-1 5-2 2h1v5l-4-1z" fill="#B90A2B"/>
<path transform="translate(553,380)" d="m0 0h3l3 3-1 5h-2v2l-3-1-1-8z" fill="#FAF3F4"/>
<path transform="translate(501,764)" d="m0 0h3l1 6v10l-2-3-3-8-2-3z" fill="#EAD6DA"/>
<path transform="translate(589,636)" d="m0 0h3l-2 4-6 4h-2l-2 4-6 1v-2l3-1 1-2 3-1 1-2 5-2z" fill="#7C0B1C"/>
<path transform="translate(309,642)" d="m0 0 4 1 5 2v4l-7-1-3-3z" fill="#38262F"/>
<path transform="translate(484,425)" d="m0 0h7v2l-11 3h-7v-2z" fill="#E2B6BE"/>
<path transform="translate(252,359)" d="m0 0 2 1-2 3 4 1-4 1v3h-3v-2l-5 2 2-5 3-3z" fill="#D8C2C7"/>
<path transform="translate(321,286)" d="m0 0h8v1l-18 4h-10l3-2z" fill="#312A30"/>
<path transform="translate(308,721)" d="m0 0h9l1 5-2 2-6-1-1-4z" fill="#120306"/>
<path transform="translate(167,685)" d="m0 0 2 1v18l-3 3v-21z" fill="#630B14"/>
<path transform="translate(313,547)" d="m0 0 3 1v11l-3 5-1-2 1-7-1-7z" fill="#48060A"/>
<path transform="translate(315,512)" d="m0 0h1v23l-3 1-8-1 2-2 8-1z" fill="#56121A"/>
<path transform="translate(405,231)" d="m0 0h7l1 3-5 2-1 2h-2l-1 2-1-8z" fill="#F9F2F3"/>
<path transform="translate(615,165)" d="m0 0 2 1 3-1 1 3v6l-5-1-1-1z" fill="#1A161C"/>
<path transform="translate(334,103)" d="m0 0 2 3v3h9v2l-4-1 1 3-10-1-2-1v-2h4z" fill="#494046"/>
<path transform="translate(491,769)" d="m0 0 2 3-2 8-3-1-2-3v-4z" fill="#DEA4AF"/>
<path transform="translate(699,589)" d="m0 0h1l2 7v7h-4l-1-10z" fill="#BD9DA4"/>
<path transform="translate(767,571)" d="m0 0h4l-1 5h2v-2l4-1-3 7-4 1-2-6z" fill="#483F45"/>
<path transform="translate(365,318)" d="m0 0 4 1-2 1 1 10 2 1h-2l-1 4 1 3-3-1v-12l-1-4z" fill="#1A161C"/>
<path transform="translate(209,319)" d="m0 0 2 1v5l18 3v1h-15l-5-4-1-5z" fill="#821224"/>
<path transform="translate(235,310)" d="m0 0 6 1 1 6h-8v-6z" fill="#C6ABB1"/>
<path transform="translate(657,114)" d="m0 0 1 3 3 10 1 1v9h-2v-8h-2l-2-9-1-3z" fill="#8D0D22"/>
<path transform="translate(538,88)" d="m0 0 21 1v1l-15 2h-6z" fill="#524048"/>
<path transform="translate(339,751)" d="m0 0h16l-4 4-5-1-4 1-3-2z" fill="#36262F"/>
<path transform="translate(595,634)" d="m0 0 3 1-2 1-1 3-5 3h-2v2l-7 5-3-1 6-5 7-5z" fill="#330409"/>
<path transform="translate(316,605)" d="m0 0h1v8l-3 1-13-1-1-2 11 1 2 1 1-6z" fill="#120306"/>
<path transform="translate(318,587)" d="m0 0 1 4-1 5h-5l-3-2v-4h7z" fill="#820F21"/>
<path transform="translate(789,549)" d="m0 0v3l-6 9-3 6-2-2 3-7 4-6h2v-2z" fill="#4E474D"/>
<path transform="translate(292,397)" d="m0 0h18l-2 4-9-1v-2h-7z" fill="#292027"/>
<path transform="translate(306,331)" d="m0 0 4 1 2 9-1 3-3-1z" fill="#4F484E"/>
<path transform="translate(211,307)" d="m0 0m-1 1 2 3v3l7 1v1h-14l-1-4 4 1v-4z" fill="#A0979B"/>
<path transform="translate(805,636)" d="m0 0h2l-1 6-4 8h-1v-10h2v-2h2z" fill="#686064"/>
<path transform="translate(272,371)" d="m0 0h9v5h-7l-2-2z" fill="#342D33"/>
<path transform="translate(242,310)" d="m0 0 4 2v4l2 1-4 2h-7l4-3z" fill="#70545C"/>
<path transform="translate(428,474)" d="m0 0 2 1-1 4-7 4-3-1 6-7z" fill="#2A1B23"/>
<path transform="translate(268,360)" d="m0 0h1l2 9 8 1v1h-7v2l-3 1-2 2v-10z" fill="#B2A1A6"/>
<path transform="translate(568,345)" d="m0 0 1 4-2 11-4 2v-9h3z" fill="#49090E"/>
<path transform="translate(206,261)" d="m0 0h8l-1 5-5 1v-2h-3z" fill="#512C36"/>
<path transform="translate(487,218)" d="m0 0h7l-1 4-8 1-4-4z" fill="#EBD3D7"/>
<path transform="translate(525,173)" d="m0 0h2v9h6l-1 3-5 1v-2h-2z" fill="#6D0B17"/>
<path transform="translate(560,657)" d="m0 0 3 1-4 4-8 7-3 4-4-1 10-9 5-4z" fill="#5B0913"/>
<path transform="translate(751,576)" d="m0 0 1 4h2l-1 4-3 6-3 1 1-7z" fill="#565055"/>
<path transform="translate(706,572)" d="m0 0h1l1 8h-2l-1 10h-1l-1-12 1-5z" fill="#120407"/>
<path transform="translate(441,227)" d="m0 0 2 1v7l-2 4h-2v-11z" fill="#B50A29"/>
<path transform="translate(406,125)" d="m0 0 3 2v3h2v7l-2 7-2 1 1-4v-12l-3 1z" fill="#540811"/>
<path transform="translate(464,836)" d="m0 0 2 1 4 8 4 4-6-1-4-5-1-4z" fill="#514A50"/>
<path transform="translate(809,627)" d="m0 0 2 1-1 8v7l-3 3v-15z" fill="#4A4248"/>
<path transform="translate(258,616)" d="m0 0h1l1 10 3 4v2h2l-1 4-5-2 2-2-3-4z" fill="#4B444A"/>
<path transform="translate(194,422)" d="m0 0 5 4 1 4-5 5-4-1-3-2 1-2 7 1 1-4-3-3z" fill="#4F484E"/>
<path transform="translate(529,395)" d="m0 0 3 1-1 5-2 4-6-2 3-1 2-6z" fill="#ECD4D8"/>
<path transform="translate(255,395)" d="m0 0 8 1 1 2h-3l-1 3-4-1v-2l-5 1 1-3z" fill="#14080C"/>
<path transform="translate(581,231)" d="m0 0h1v7l-2 7-2 2-3-1 3-9h2z" fill="#360409"/>
<path transform="translate(408,235)" d="m0 0h4l-1 6-2 2h-4l2-7z" fill="#A40C27"/>
<path transform="translate(426,194)" d="m0 0 2 8-1 4-2 3-1-1v-9z" fill="#23080D"/>
<path transform="translate(289,611)" d="m0 0 1 2-6 10-2 1v-4l-2 1 2-5 4 2-1-4z" fill="#555055"/>
<path transform="translate(650,591)" d="m0 0 3 2v2l6 1v4l-6-1-3-4z" fill="#DE284C"/>
<path transform="translate(665,592)" d="m0 0 4 1 7 3h9v1l-5 1h-9l-6-4z" fill="#776D72"/>
<path transform="translate(412,472)" d="m0 0h1l1 17 2 6 3 3-5-1-2-4z" fill="#730C19"/>
<path transform="translate(476,393)" d="m0 0h4l1 13-1 6h-1v-17l-9 2-1 2v-3z" fill="#B30C2B"/>
<path transform="translate(561,379)" d="m0 0h4v9l-4 2z" fill="#FCFAFB"/>
<path transform="translate(513,367)" d="m0 0 2 3 2 5h5l-3 2h-9l1-3h2z" fill="#2B141A"/>
<path transform="translate(141,328)" d="m0 0h1v7h2l1 10-1 6h-1l-2-14z" fill="#5F595E"/>
<path transform="translate(563,330)" d="m0 0h4l1 7-1 3h-2l-2-3v-4l-2-1h2z" fill="#181217"/>
<path transform="translate(346,236)" d="m0 0h1l1 5 2-3-1 14-2-4-2 1z" fill="#544E54"/>
<path transform="translate(189,615)" d="m0 0 5 1 1 3-3 3-5-2 1-4z" fill="#120306"/>
<path transform="translate(298,546)" d="m0 0 2 4 9 2-1 2-11 1z" fill="#77414E"/>
<path transform="translate(484,401)" d="m0 0 2 4 5-3 2 1v3l-8 3-1-1z" fill="#E4BDC5"/>
<path transform="translate(558,379)" d="m0 0h2l1 8-1 9-3-3 1-10z" fill="#D3052D"/>
<path transform="translate(526,381)" d="m0 0 3 1-10 4-11 2 4-3z" fill="#CB082D"/>
<path transform="translate(567,370)" d="m0 0 2 1-10 4h-10l2-2z" fill="#CC082D"/>
<path transform="translate(225,312)" d="m0 0h6l2 1v4h-7l-2-4z" fill="#CDA3AB"/>
<path transform="translate(175,696)" d="m0 0h1l-1 8-5 6h-3l-1-3 5-1 3-9z" fill="#280308"/>
<path transform="translate(300,466)" d="m0 0 5 1v5l-4 2 1-3h-6l-1-2 5-1z" fill="#D7A2AC"/>
<path transform="translate(238,382)" d="m0 0h6l2 3-2 2-7-1z" fill="#D5A2AC"/>
<path transform="translate(517,340)" d="m0 0h6v3l-7 1h-7l3-3z" fill="#170B0E"/>
<path transform="translate(530,168)" d="m0 0h8v1l-7 1-2 7 1 4-3 1v-9z" fill="#4B060B"/>
<path transform="translate(396,132)" d="m0 0 1 2h2l2 3-1 7-3-1-1-2z" fill="#1A161C"/>
<path transform="translate(311,467)" d="m0 0h3v9l-3-1-3-4v-2z" fill="#120306"/>
<path transform="translate(286,455)" d="m0 0 7 1 3 4-8 1z" fill="#93354A"/>
<path transform="translate(495,391)" d="m0 0 1 2-1 6-2-2-1 1h-5l4-1v-2h-7v-1z" fill="#E3BAC2"/>
<path transform="translate(355,171)" d="m0 0h3l-1 14h-3z" fill="#565155"/>
<path transform="translate(404,145)" d="m0 0 3 1-10 6-7 6 2-5 6-5z" fill="#780C1B"/>
<path transform="translate(502,762)" d="m0 0 3 1v7h-1v-6l-8 4-7 2 3-3z" fill="#A7989D"/>
<path transform="translate(628,615)" d="m0 0h2v2l-9 4-6 3h-2v-2l5-1v-2z" fill="#880C20"/>
<path transform="translate(747,538)" d="m0 0 1 2-1 6-4 4-1 2h-2l2-6z" fill="#635C61"/>
<path transform="translate(313,498)" d="m0 0h1v8l-14-4 1-2 11 2z" fill="#2B0409"/>
<path transform="translate(186,416)" d="m0 0h5l1 4h-3-3l1 8-3-4v-5z" fill="#4D454B"/>
<path transform="translate(355,403)" d="m0 0 3 1-1 5-5 1-1-5z" fill="#1A161C"/>
<path transform="translate(515,390)" d="m0 0h2v6l-2-1v-2h-2l-2 6h-2l1-7z" fill="#B70929"/>
<path transform="translate(276,272)" d="m0 0h2v6l-5 1-1-5z" fill="#8C6972"/>
<path transform="translate(156,213)" d="m0 0 3 1-2 13-2-1v-9z" fill="#686064"/>
<path transform="translate(543,168)" d="m0 0h5l1 1v5l-6-1-1-4z" fill="#130509"/>
<path transform="translate(319,716)" d="m0 0h2v12h-3l-1-7z" fill="#280409"/>
<path transform="translate(125,678)" d="m0 0h1v6h-3l1 5-4-4v-5h3v2h2z" fill="#4C4449"/>
<path transform="translate(306,669)" d="m0 0h7l3 1v4l-6-1-2-1v-2z" fill="#36262F"/>
<path transform="translate(317,625)" d="m0 0h1v20l-5-3 1-3h3z" fill="#270509"/>
<path transform="translate(293,563)" d="m0 0 3 1-4 8-3 2 1-4v-3z" fill="#4F484E"/>
<path transform="translate(475,362)" d="m0 0h1v22l4 1-7 1 1-3z" fill="#847A7E"/>
<path transform="translate(371,363)" d="m0 0 2 3v6l-4 2-1-4z" fill="#1C1319"/>
<path transform="translate(366,319)" d="m0 0 4 1 1 4-2 6-2-3z" fill="#120306"/>
<path transform="translate(211,309)" d="m0 0 5 1 1 2 4 1v2l-9-1z" fill="#DEA4AF"/>
<path transform="translate(351,152)" d="m0 0h2v8l-2 4-1-4-3 3 3-9z" fill="#565055"/>
<path transform="translate(774,559)" d="m0 0 2 2v3h2l1-2v5l-4 1-2-2-1-3z" fill="#595559"/>
<path transform="translate(179,481)" d="m0 0h6l3 2v2l-4 1-5-2z" fill="#120306"/>
<path transform="translate(302,470)" d="m0 0v3l-1 2h-7l-1-4z" fill="#E9D2D6"/>
<path transform="translate(486,229)" d="m0 0h5l-1 4-9 1z" fill="#E1C5CB"/>
<path transform="translate(428,190)" d="m0 0h2l1 5 4 2h-6l1 4h-2l-2-4z" fill="#1A161C"/>
<path transform="translate(427,493)" d="m0 0h4l-1 3-5 1h-8l2-2z" fill="#6A0B16"/>
<path transform="translate(303,414)" d="m0 0 1 2 4-1v2h3v2l-3 1v-2l-9 1 1-3z" fill="#120306"/>
<path transform="translate(529,412)" d="m0 0 5 1-3 2-6 2h-5l5-4z" fill="#DEA7B1"/>
<path transform="translate(275,364)" d="m0 0h12v4l-12-2z" fill="#9D8B90"/>
<path transform="translate(478,345)" d="m0 0h7l-1 2-12 3h-5l3-2z" fill="#F0E2E5"/>
<path transform="translate(553,335)" d="m0 0h3l1 2v11l-2-2z" fill="#521B25"/>
<path transform="translate(363,285)" d="m0 0 1 4v5h-2l-2 3-1-2 1-5-3-2h5z" fill="#35252E"/>
<path transform="translate(428,241)" d="m0 0h3 10l-2 3h-14z" fill="#AD0C2A"/>
<path transform="translate(546,232)" d="m0 0 2 3 3 5v2h-5l-1-7z" fill="#1A161C"/>
<path transform="translate(159,193)" d="m0 0h1v5h-1l-2 9h-2l1-9 1-4z" fill="#4F484E"/>
<path transform="translate(616,142)" d="m0 0h6v9h-1v-7l-5 1-1 3h-1v-5z" fill="#2E0409"/>
<path transform="translate(316,649)" d="m0 0h2v20l-4-1 2-2v-14z" fill="#170306"/>
<path transform="translate(283,451)" d="m0 0 3 1-1 2h-3l1 6h-2l-1 2-1-6h2l1-4z" fill="#D7042D"/>
<path transform="translate(190,408)" d="m0 0 3 3 3 2h-3l2 6h-2l-2-4-5-2 4-1z" fill="#120407"/>
<path transform="translate(518,397)" d="m0 0h1l1 8 4 3-9 2v-2l-2-1 4-1z" fill="#E1B3BB"/>
<path transform="translate(571,369)" d="m0 0 3 1-1 2-3 1-1 2h-7l3-3z" fill="#DEA7B1"/>
<path transform="translate(543,367)" d="m0 0 2 1-3 5-9-2 4-2z" fill="#4A282C"/>
<path transform="translate(528,240)" d="m0 0h1v9l5 2 2 2h-8z" fill="#2B0409"/>
<path transform="translate(471,229)" d="m0 0 1 3 4 1v2l-7 1-1-4z" fill="#D9C1C6"/>
<path transform="translate(183,761)" d="m0 0 4 2 3 2 1 3 3 2-1 2-10-9z" fill="#686165"/>
<path transform="translate(305,696)" d="m0 0h8l3 1v3h-5l-6-3z" fill="#1A161C"/>
<path transform="translate(564,658)" d="m0 0m-1 1 3 2-5 3-5 5-2-1 6-8z" fill="#200307"/>
<path transform="translate(807,532)" d="m0 0 6 2 1 2h-6l2 6h-2l-2-6z" fill="#483F45"/>
<path transform="translate(293,462)" d="m0 0 4 1-2 6-7-1-1 2v-3l6-2z" fill="#DEA4AF"/>
<path transform="translate(236,402)" d="m0 0 5 1 1 3-5 1h-3l-2-1z" fill="#4C444A"/>
<path transform="translate(199,350)" d="m0 0 3 1 1 4-2 4-4-2z" fill="#120408"/>
<path transform="translate(204,317)" d="m0 0 1 2h3l3 7 2 2-5-1-1-5h-2l-2-4z" fill="#4C2831"/>
<path transform="translate(444,232)" d="m0 0 2 3v5h-7l3-5z" fill="#F3E2E5"/>
<path transform="translate(395,129)" d="m0 0h3l2 4v6h-1v-5h-2l-1 8h-1z" fill="#130509"/>
<path transform="translate(730,569)" d="m0 0 1 3-1 7h-2l-1 5h-1v-6z" fill="#6D666A"/>
<path transform="translate(670,567)" d="m0 0 4 1-4 4h-5l1-3z" fill="#292229"/>
<path transform="translate(531,385)" d="m0 0 3 1 1 2v10l-2-2z" fill="#A20B25"/>
<path transform="translate(549,382)" d="m0 0 4 1v5l-4 1-1-6z" fill="#DB042E"/>
<path transform="translate(538,336)" d="m0 0h6v2h-2v2h-3l-1 3-1-3-2-2z" fill="#120306"/>
<path transform="translate(294,283)" d="m0 0 3 2-1 7-2 1-2-2v-4-2h2z" fill="#33252D"/>
<path transform="translate(310,265)" d="m0 0 2 1-5 10-1 4h-2l3-10z" fill="#686064"/>
<path transform="translate(402,145)" d="m0 0 2 1-9 5-4 3 2-4 3-4z" fill="#2B0409"/>
<path transform="translate(265,709)" d="m0 0 7 1 4 1 1 3-8-1-1-2z" fill="#8B7D82"/>
<path transform="translate(517,689)" d="m0 0 3 1-8 7-3-1v-2l5-1v-2z" fill="#8B0C20"/>
<path transform="translate(776,526)" d="m0 0 3 1-5 3-5 2-4-1z" fill="#534D53"/>
<path transform="translate(239,441)" d="m0 0 1 3-6 3-4-3h3v-2l6 1z" fill="#130508"/>
<path transform="translate(183,413)" d="m0 0h2l-2 5-2 7h-1l-1-9z" fill="#1D080C"/>
<path transform="translate(449,399)" d="m0 0h7l-1 3-7 1-2-1v-2z" fill="#E4C6CC"/>
<path transform="translate(488,351)" d="m0 0h2v11h-1l-1-5-2 3-1-5z" fill="#4F454B"/>
<path transform="translate(564,324)" d="m0 0h5l1 1v7h-1v-5h-9z" fill="#EDCFD5"/>
<path transform="translate(389,126)" d="m0 0 5 1v4l-5-1v5h-1z" fill="#1D171E"/>
<path transform="translate(399,713)" d="m0 0 3 1-1 8h-2l-1-7z" fill="#8B0E22"/>
<path transform="translate(517,698)" d="m0 0h7v3l-11 1v-2z" fill="#1A161C"/>
<path transform="translate(789,541)" d="m0 0h6v4l-3 4-2-1 3-6-5 1z" fill="#4D454B"/>
<path transform="translate(762,527)" d="m0 0h8l2 2-8 2-5-1 1-2z" fill="#5B575B"/>
<path transform="translate(281,467)" d="m0 0 8 5v2h2v2l-5-2-5-5z" fill="#2C050A"/>
<path transform="translate(496,378)" d="m0 0 9 1v2l-4 1h-7l2-1z" fill="#47070B"/>
<path transform="translate(146,376)" d="m0 0h3v8l-3 1z" fill="#483F45"/>
<path transform="translate(346,247)" d="m0 0 2 1v7l-1 2h-2v-8z" fill="#675F63"/>
<path transform="translate(546,165)" d="m0 0h7l-5 4-10-1v-1l7-1z" fill="#46060C"/>
<path transform="translate(402,132)" d="m0 0h4v11h-2z" fill="#1A161C"/>
<path transform="translate(346,109)" d="m0 0h4v3l-2 1h-6l-1-3z" fill="#524C51"/>
</svg>
