<?xml version="1.0" encoding="UTF-8"?>
<svg version="1.1" viewBox="0 0 2048 1539" width="1280" height="1280" xmlns="http://www.w3.org/2000/svg">
<path transform="translate(1228,163)" d="m0 0h12l4 2 1 97 9 3 1 1v17l-9 4-2 14h31l3 1 1 5 1 77h319l19 2 12 4 14 8 11 11 10 14 5 13 3 14v14h28l38 1 2 2 15 2 13 2 4 2h6l1-8v-4h-7l-5-2v-8l1-2 4-1 12 2 9 5 14 13 2 6 19 1 10 2 3 5 1 12 9 1 1 1v17l-1 1-11-1v19l-1 6v65l-1 139-2 20-4 8-7 4-5 8-6 5v13l9 16 14 20 10 13 16 21 14 19 20 26 13 18 9 12 10 13h19l5 2 2 2 1 28v81l-5 8-5 2h-3v14l3 13 4 6 3 4 1 9-3 8-11 8-26 15-21 12-28 15-10 4-9 2-1 109v32l-1 81-2 2-14 2-3 3-2 5v7l1 2-1 12 23 3 3 4 1 8-4 4-9 2-11 1h-21l-17-1-7-2-2-2 1-10 3-4 4-1 13-1 6-2v-6l-1-4 3-5-2-8-4-4-11-2-3-3-15 1h-514l-415 1-52 1-27-1-4 3-10 3-5 5-1 2 1 9 2 8 17 3 5 4 3 8-1 4-7 2-23 3h-29l-9-3-1-1v-12l2-2 17-2 6-3 1-11v-10l-5-5-14-4-2-6-1-217-16-4-24-13-24-14-29-16-12-9-1-3v-17l5-5 3-14v-13l-8-3-2-58-42-1-2-1-1-4v-22l3-14 9-30 10-37 10-35 14-50 7-9 2-6 1-11v-29l-7-5-1-27-1-62-1-144-1-23h-10l-2-3v-10l1-5 10-1 1-15 2-4 2-1 26-1 5-8 13-12 7-4 3-1h14l1 2v7l-2 2-9 2-1 12 8-1 4-3 9-1 22-1h14l1-3 471-1 1-161 4-2 20-1 1-1v-15l-2-4 2-11 3-11 3-41 2-48 2-5zm146 244-86 1-7 2-2 48-1 6 1 1h293l74-1 3-6-1-14-3-10-6-9-8-8-14-7-7-2-8-1zm-665 159v47l1 87 5 2 7 2 1 25 3 1 6-3 2-2 7-32 10-52 1-3 467-1 2-1 1-67-4-1h-11l-16-1-47-1zm733 0-193 1-4 1v68l1 1h400l5 1 4-2h10l13 1 8 9 8 4 11 14 14 18 5 3-1-58v-60l-1-1zm408 453-3 50v42l3 1h34l3-9 2-8v-13l-9-7-5-3-10-1-6-8-4-8-2-10-1-26zm-1169 9-3 7-4 22-1 23-8 3v12l2 8 2 9 2 1h12l2-4 1-35v-43l-1-3zm10 46-4 30v8l1 1h20l1-13-1-7-1-1-12-1-1-17zm1208 7v14l4 16h26l5-25-1-5zm-1277 2-1 2 1 14 3 13 1 1h24l2-1 2-15v-13l-1-1zm234 109-1 2v20l1 1h5l2-5v-17l-1-1z" fill="#282B30"/>
<path transform="translate(208,602)" d="m0 0h280l8 2 10 7 5 8v19l-6 84-4 69v84l1 39 1 83 2 133 1 83 1 53 1 91 1 52 1 12 22 5 1 3-5 16-5 13-4 4-10 3-24 4h-300l-20-3-6-2 1-8 8-16 7-13 7-2v-32l-2-99-2-102-3-144-3-136-2-92v-15l2-33 7-72 7-69 3-13 4-6 9-8z" fill="#1D4C90"/>
<path transform="translate(862,1192)" d="m0 0 832 1 1 1 1 18 5 2 1 1 1 25 2 11 8 19 10 17 12 22 3 5 1 5 8 16 12 21 13 24 12 22v5h2l2 5-14 2h-514l-415 1-52 1-20-1-6-1 2-7 2-3 4-9h2l2-6 9-16 6-11 4-7 2-4 11-21 10-17 8-16 9-16 6-10 6-12 3-14 1-7h2l-1-7v-15l6-2 1-4z" fill="#1F4D90"/>
<path transform="translate(658,449)" d="m0 0h14l1 2v7l-2 2-9 2-1 12 8-1 4-3 9-1 22-1h14l1-3 472-1-1 14 1 8v25l-1 21 1 35h-261l-221-1 1 47 1 87 11 3 1 1v25l3 1-1 21-2 16-3 11-2 17-2 3-5-2-2-9-2 4-6 29-6 27-6 35-6 26-6 29-2 14-6-1-3 2 1-5-3 3-4 17-1 8v11l1 16 1 5 5 2 3 9-3 7-9 2-5-5-1-6 2-6-1-3-8-3v-15h2l1-5 3-11 2-18v-7l-14 3-1-1v-7l8-34 5-25 5-24 5-21 5-22v-7l-4 14-4 17-4 16-5 22-19 76-3 3-2 7-1 11-3 5-4 2-7-1-2-3v-12l4-3h2v-11l1-10 4-8 2-3 5-13 9-40 7-31 6-23 8-37 2-6 1-11 3-1 1-8-1-1-9-1-48-1-1-16-1-62-1-144-1-23h-10l-2-3v-10l1-5 10-1 1-15 2-4 2-1 26-1 5-8 13-12 7-4z" fill="#1D4C8F"/>
<path transform="translate(1283,384)" d="m0 0h316l19 2 12 4 14 8 11 11 10 14 5 13 3 14v14h28l38 1 2 2 15 2 13 2 4 2h6l1-8v-4h-7l-5-2v-8l1-2 4-1 12 2 9 5 14 13 2 6 19 1 10 2 3 5 1 12 9 1 1 1v17l-1 1-11-1v19l-1 6v65l-1 139-2 20h-1v-6l-10 1h-14l-2-1-13 2h-18l-6-3-2-4-10-14-7-10-5-7-4-7-3-3v-2l-4-2-1-6-4-1-6-5-2-6-3-2 1-2-1-57v-60h-443l-1-12v-14l1-14v-53l1-9 292-1 74-1 2-5-1-14-3-10-6-9-7-7-14-7-7-2-8-1h-259v-1l18-1 12-5 2-1-7-1-2-4-1-6 2-2-6-1-78-1z" fill="#1E4C8F"/>
<path transform="translate(241,641)" d="m0 0h231l8 4v14l-3 52-5 56-2 4-3 1-2-1v-3l-5 3-7 2h-198l-46-1-13-2-4-4 1-13 2-16 3-29v-11l5-44 4-9 6-2z" fill="#16191D"/>
<path transform="translate(498,865)" d="m0 0h2l1 10 1 39 1 83 2 133 1 83 1 53 1 91 1 52 1 12 22 5 1 3-5 16-5 13-4 4-10 3-24 4h-300l-20-3-6-2 1-8 8-16 7-13 7-2v-66l1-7h1l2 11v8l1 8v15l1 19h2l3 4 6-2 2 3 10 1 2-1 9-1 9-2h5l2-1 4 1 13 1 4 1v-3l2-1 10 1 3 1-1-3 6-1-1-4h6l6-1 2 2 5-1 1-3 3-1h3l9-2 7-1 9-3 4-1 1 2h5l-1-4 4-3 2 1 2 2 8-1 5 1 7-1v-2l8-1 1 4 4 1 2 3h11l9-3 4 1v-2l9-3-1 5 7-2 2 1h7l2 1v2h8v-2l12-3v-3l10-3 6-4 3-5 4-1 1-4 3-4 1-10 1-2h-2l1-11h3v-10l1-3h-2l1-9-3-1 2-1 1-14v-9l1-2h2l-2-5-1-13 1-8v-7-3l1-5h1v-13l-3-16 1-20-1-8v-92l1-68v-20l1-5v-19l2-30 4-53 5-15 1-4 1-22z" fill="#1D3F74"/>
<path transform="translate(1228,163)" d="m0 0h12l4 2 1 97 9 3 1 1v17l-9 4-2 14h31l3 1 1 5 1 77 84 1 5 1-3 3 1 7 1 3h7l1 2-15 6-18 1-55 1-6 1-2 48-1 6 1 1v64l-1 12v26l-4 1h-29v68l4 2-3 7-1 1-3 21-5 6h-9l-3-5-2-32-3-1v-66h-14l-16-1-1-7-1-32 1-27v-16l-1-9 1-11 1-163 4-2 20-1 1-1v-15l-2-4 2-11 3-11 3-41 2-48 2-5z" fill="#292C31"/>
<path transform="translate(816,1193)" d="m0 0h28l11 1 1 22v22h-2l-1 13-1 6h-2l1 3h-2l-2 6-1 5-3 3-9 16-11 20v3l-3 3-15 27-5 11-1 2-9 14-6 11-7 14h-2l-3 11-3 2-3 7-4 3-10 3-5 5-1 2 1 9 2 8 17 3 5 4 3 8-1 4-7 2-23 3h-29l-9-3-1-1v-12l2-2 17-2 6-3 1-11v-10l-5-5-14-4-2-6v-216z" fill="#282B30"/>
<path transform="translate(1845,1191)" d="m0 0h1v141l-1 81-2 2-14 2-3 3-2 5v7l1 2-1 12 23 3 3 4 1 8-4 4-9 2-11 1h-21l-17-1-7-2-2-2 1-10 3-4 4-1 13-1 6-2v-6l-1-4 3-5-2-8-4-4-11-2-6-7v-2h-2l-3-9-10-18-9-17-10-18-9-16-6-11-1-6-13-23-10-18-5-10-5-13-1-11-1-22-3-3 3-2-1-11 4-5 37-1h103z" fill="#282B30"/>
<path transform="translate(605,758)" d="m0 0 47 1 9 1 2 4-2 6-2 1-1 11-4 16-7 31-5 19-8 36-9 38-4 10-1 5-4 4-1 2-1 14-1 7-4 3h-2l1 12 3 3 7-1 3-2 1-3 2-15 3-5 2-5 11-44 9-35 6-29 4-15 3-12 3-7h1v8l-7 30-8 37-5 25-8 34v7l14-3 1 1-1 18-3 15-3 8h-2l1 15 8 3 1 3-2 9 3 6 4 1 7-2 2-8-3-7-4-2-2-5-1-16v-11l3-16 2-11 4-1v4l2-2 5 1 1-6h1v62l-1 15v15l3 2-3 19-1 23-7 3h-2l2 18 2 5v6l2 1h-2v2l-4 2-1 3h-11l-3-8h2v-8l1-7v-13h-31l1 15 3 14h-7l-1 4h-14v17l3 1v4l-4-2-1-3v-17l5-5 3-14v-13l-8-3-2-58-42-1-2-1-1-4v-22l3-14 9-30 10-37 10-35 14-50 7-9 2-6 1-11v-29l-7-5v-11z" fill="#282B30"/>
<path transform="translate(1283,384)" d="m0 0h316l19 2 12 4 14 8 11 11 10 14 5 13 3 14v14h28l38 1 2 2 15 2 13 2 4 2 6 1-4 1v2l-4 1h-475l-11-1 2-6 13-3h6l-25-2v-1l291-1 74-1 2-5-1-14-3-10-6-9-7-7-14-7-7-2-8-1h-259v-1l18-1 12-5 2-1-7-1-2-4-1-6 2-2-6-1-78-1z" fill="#5A5D68"/>
<path transform="translate(1835,835)" d="m0 0 4 2 9 12 16 21 14 19 20 26 13 18 9 12 10 13h19l5 2 2 2 1 28v81l-5 8-5 2h-3v14l3 13 3 6-13 2h-6l-1-4h-26v-1h25l1-10 3-15v-4l-34-1 1 14 1 6-6 1-7-1v-19l-5-4h2l-1-19v-39h-2l-3-13-6-1-3-3 2-4 8-1 1-12-1-17-1-5v-21l-8-13-8-11-7-10-6-7-1-3-1-28-2-12-8-12-3-5z" fill="#292C31"/>
<path transform="translate(1447,638)" d="m0 0h6l1 4-3-2-1 2h6l-1-4h30l1 4 2-1-1-2 2-1h103v2l-8 4-5 2-6 4-26 7-13 2-5 1-7 3h-9v2h-10l-4 2-14 1-7 3-15 3-14 4-6 2-6 1-3-1h-7l-11 4-3 3h-10l-4-1-6 1h-3l-8 1h-7l-11-2h-2l-2 4h-16l-7-1-3 2-10 1-5 1-6-1-4 1-9-1-7 1-4-2-10-1-7-2v-6l-8-1-2 5-4-1-3-11-2-4-6 5-5-1v-3l2-3 2-13 3-9 11-1 25-1 74-1h87l-1-3z" fill="#16181C"/>
<path transform="translate(747,723)" d="m0 0h2l1 2 4 1v2h2l1 8 1 3h2v3l5-1 3 3 6-2 5 2v2h2l3 3v2l14-1 6 1 1-3v-6l3-1 4 2v13l-1 2-2 12v11l-3 16-4 1-1-4v-5l-1-4v-4h-5v-3l4-5v-4l-4 1-1 2h-2l2 4-3 2-5-1 1-3v-5l-1-1h-7v7l-3 2-6-2-1 6 2 3-3 2-1 3-3 1-3-3-6 1-1 5-4 4-4 18-2 1-1 9 5 1 18 4 3 1h9l16 1 6 1h6l2 1 19 1 8-1h9l8 1 9-1h49l42 1h37l58 1h3 14 4 45l18 1h11l12 1 5-1 4 2h14l7-1 2 4-3 2h-11l-5 2-1-1h-11l-3 3-5 3h-5v-7h-5l2 6-3 1-10 1v-4h-3v2l-5-1-2-3h-5l-3 3-6-1-5-1-1 1h-6l-2-1-1 3-2 1h-8v-4l3-2h-4l-1 2-4-1-1 4-4 1v-3l-9 2h-4l-3 1h-10l-4-3-6 4h-29l-4-2-3 1-15 1-5 1-21 1-3 1h-26l-8 1-12-2h-66l-4-1-10 1-4-1h-9l-21 2-22 1h-28l-16-2-3-5v-10l2-18 5-24 7-43 2-15 4-11 2-2h3z" fill="#3A3D44"/>
<path transform="translate(280,661)" d="m0 0h117l1 6-3 58-2 2-45 1h-90l-24-1-6-1v-11l5-40 2-10 2-3h14l3 2h17z" fill="#D8ECF6"/>
<path transform="translate(1238,415)" d="m0 0 2 1 2 11 5 3 2-7h4l7 28 2 44-2 50-1 9-4 5h-2v6l-1 1 23 1v1h-29v68l4 2-3 7-1 1-3 21-5 6h-9l-3-5-2-32-3-1v-66l-2-2h4l3-7 4-2 1-2 3-1v-7l-5 8-5 3-4 1h-7l-5-2-4-6-1-3v-11l2-13v-54l1-17 1-2v-7h2l1-4 6-11 4 2 2 3 1 8 1 25 1 8h5l3-47 3-12z" fill="#3B3E45"/>
<path transform="translate(511,1423)" d="m0 0h8l13 3 1 3-5 16-5 13-4 4-10 3-24 4h-300l-20-3-6-2 1-8 8-16 7-13 6-1 1 14 1 4 2 1 12 1h240l55-1 18-2z" fill="#292C32"/>
<path transform="translate(958,644)" d="m0 0h8l7 1 13-1 3 1 13-1 11 1 6-1 6 1 16-1h64l4 1 6-1 7 1h68l5 1h10l14 1 3 5 4 3 1 19-10 2-3 5-5 1-9 2-3 1-4-1-9 1h-6l-3-1-7 1h-11l-4-1-6 2-8-3-10-1-4-1h-6l-4-2-9-1-10-1-1-4-10 2-3 1-15-3-7-1h-4-7l-4-1-8-1-3 1-11-2h-10l-13-2h-14l-19-4-9-1-5-4-6 1-3 1-11-3-12-1-10-4-1-5 22-2h21z" fill="#16181C"/>
<path transform="translate(605,758)" d="m0 0 47 1 9 1 2 4-2 6-2 1-1 11-4 16-7 31-5 19-8 36-9 38-4 10-1 5-3 1-3-5-1-8h-22l-6 2-3 5-2 1-5-1-2 1 1-8 13-45 14-50 7-9 2-6 1-11v-29l-7-5v-11z" fill="#3B3E45"/>
<path transform="translate(228,655)" d="m0 0h21l91 1h19l41 1 3 2-1 12-2 25-1 32-2 10v8h2l-1 17-2 1h-12l-1-17 1-2h-8l-1 18-3 2h-13l-1-7 3-2-2-11-8-1 1 2v16l-3 1v2l-12 1-3-1v-6l2-5-1-1-1-8-5-3-1-1-1 20h-2v2l-12 1-2-1v-19h-2l-1-2-7 3 1 1-1 15-1 2h-12v-6h2l-2-4v-6l3-3-1-1v-5l-5 2v2l-10 2 2 4v5l-4 2 4 2v7l-4 1h-7l-4-2 1-9 1-7 2-2v-6l-4 2-1 1h-6v2h-3l1 2v7l-1 3v6l-2 1h-11l-1-5 4-3-2-2-1-5 2-5v-5l-6 5-7 1 1 7-3 2h-8l-2-2v-6l3-1v-16l3-33 2-25 3-14zm52 6-9 3h-17l-3-2h-14l-3 6-5 38-1 9v11l6 1 24 1h90l45-1 2-2 3-58-1-6z" fill="#565965"/>
<path transform="translate(733,725)" d="m0 0h3v10l-3 22-5 28-7 36-2 16-1 25-2 3h-7l-3 1-1 2h-2l-1 18-1 2v24l-1 7v2l4 2 3 6 1 17v7l-4 6-5 5h-2l-1 5-1 3h-2l1 17 2 14 1 5-2 17v16l3 5 9 4 1 7v22l-1 10-2 2h-9l-1-26-1 2h-2l-1 12-2 16-1 5-2-1-1-71-4 1-3 9-4-2v-15l1-21v-48l1-15 10-48 4-18 5-28 5-23 6-29 2-5 2 1 2 9 4 1 2-9 1-10 4-16 2-27 1-6 6-3z" fill="#16181C"/>
<path transform="translate(1190,464)" d="m0 0 1 2-1 11-1 1h-512l-9-1-6-2v-1l7-1 4-3 9-1 22-1h14l1-3z" fill="#8C96A5"/>
<path transform="translate(724,730)" d="m0 0h2l-1 21-2 16-3 11-2 17-2 3-5-2-2-9-2 4-6 29-6 27-6 35-6 26-6 29-2 14-6-1-3 2 1-5-3 3-4 17-1 8v11l1 16 1 5 5 2 3 9-3 7-9 2-5-5-1-6 2-6-1-3-8-3v-15h2l1-5 3-11 2-18v-7l-14 3-1-1v-7l8-34 5-25 5-24 5-21 5-22v-7l-4 14-4 17-4 16-5 22-19 76-3 3-2 7-1 11-3 5-4 2-7-1-2-3v-12l4-3h2v-11l1-10 4-8 2-3 5-13 9-40 7-31 6-23 8-37 2-6 1-11 3-1 1-8-1-1-9-1-48-1v-4l75 1 2 1v7l-8 37-9 41-8 32-12 57-2 7v6l11 1 1 1h9l6-3 3-8 4-20 7-32 6-27 3-20 5-20 2-12 2-7 3-16 4-12 3-3 2 7 2-1 3-16 5-25z" fill="#1C3F73"/>
<path transform="translate(1507,1184)" d="m0 0h72l10 1 73 1h13l17-1h11l9-1 16 1 44 1h34l29 1h8l3 2-2 5h-111l-29 1-3 5 1 10-2 2h-4l-1-3-1-15-830-1-3-3 3-1h113l49-1h112l124-1h67l13-1h44l38-1h42z" fill="#16181C"/>
<path transform="translate(1646,463)" d="m0 0 2 1h53l38 1 2 2 15 2 13 2 4 2 6 1-4 1v2l-4 1h-475l-11-1 2-6 13-3h6l-25-2v-1l291-1z" fill="#909AAA"/>
<path transform="translate(669,517)" d="m0 0h183l121 1h216v11h-89l-301-1h-129l-2-2v-8z" fill="#8A92A0"/>
<path transform="translate(721,527)" d="m0 0h112l297 1 59 1 1 3v22h-1v-14l-94 1h-103l-220-1h-28l-43-2-4-2 4-2 12-1 7-2 54-1h40l-90-1z" fill="#204173"/>
<path transform="translate(213,642)" d="m0 0h24v1l-9 1 8 2 19 1 12 2h2v2l3-1h9l5 1h15l6 1 68 1h22l7 1 1 1v17l-3 44-2 21-2 9-2-2 1-9 1-7 1-32 2-25 1-10 1-2-3-1-41-1h-26l-102-1h-3l-3 14-2 25-3 33v14l-3 3v6l1 1h8l3-1-1-7 9-3 2-3h2l1 7-2 4 2 5 1 2-4 2v4h13l-1-7 1-2v-9h3v-2l7-2 4-2 1 1v6l-2 2-1 7-2-4 2-6-6 3v7l-3 1-1 7-1 2h-2v3l20 2 19 1 5 1 44 1v1h-84l-46-1-13-2-4-4 1-13 2-16 3-29v-11l5-44 4-9z" fill="#292C31"/>
<path transform="translate(1603,517)" d="m0 0h169l2 2v7l-3 2h-164l-121 1h-116l-71-1-14-1-4-1-1-7 1-1z" fill="#8E98A8"/>
<path transform="translate(1056,946)" d="m0 0 4 1 1 15h15l1 3 1 18-1 16-1 5v48l-1 10-7-1v2l-3 1h-8l-9-2-1-3-1-30v-47l-8 1-21 1-6 1h-27l-20-2-62-7-10-2-49-5-34-1-14-2-2-1-61-7h-19l-9 6-4 5-2 4v7l2 8v4h2l1 3v8h-2l-6-15-1-3v-13l3-8 7-6 2-3 10-4 20 1 65 8 2 1 24 2 12 2 32 3 34 2 23 3 11 2 23 2 13 2 11 1h25l5-1h30v-17l7-1v-13z" fill="#7E838B"/>
<path transform="translate(1280,528)" d="m0 0h16l8 1 54 1h129l1-2v3l14-1h166l44 1h8l6 2 16 1v3l-12 1h-17l-21 1-13 1h-48l-70 1h-156l-21 1-45-1h-45l-10 1-2 2v8l-1 3v7h7l2-3 3-3 1 6h7l2-7h4v7h2l-1 4-10-1-17 1-2 1-1-12v-14l1-12z" fill="#1C3F74"/>
<path transform="translate(1844,1296)" d="m0 0 2 4v32l-1 81-2 2-14 2-3 3-2 5v7l1 2-1 12 23 3 3 4 1 8-4 4-9 2-11 1h-21l-17-1-7-2-2-2 1-10 3-4 4-1 13-1 6-2v-6l-1-4 3-5-2-8-4-4-11-2-6-7v-2h-2l-3-9-10-18-9-17-10-18-9-16-2-6 3 3 8 15 12 21 10 17 6 10 8 13 5 5 5-1 7-9 4-8 3-12h3l3-10 5-5 6-11 10-13 4-3z" fill="#3D4047"/>
<path transform="translate(1852,908)" d="m0 0 6 2 11 16 7 10 4 7v21l1 5 1 23-2 7-8 1-1 5 8 2 2 4 1 9h2l1 13v33l1 8-1 4-4-1-6-4-10-1-6-7-5-10-2-10-1-27-2-3v-32l1-22 1-48z" fill="#16181C"/>
<path transform="translate(1087,926)" d="m0 0h18l1 1 1 12h8l1 1v13l-2 1-1-4-3-1 1 3-2 1-1-6-1 11h-2v2l6 1 1 9 1 27-1 5-1 43-2 16-7 2h-2l1 9 1 5h-11l1-5-1-7 1-2-9-1-1-1-1-11v-84l1-5 4-2-2-16-1 13-2-1v-2h-2l-2-3v-10l1-1 8 1v-13z" fill="#80858D"/>
<path transform="translate(853,553)" d="m0 0 5 1 1 7h7l1-3h4l1 4 8-1 1-6h4l1 6 8 1v-7l1-1h5l1 8h6l1-7 4-1 1 1 1 7h8l-1-8h5l1 1 1 7h6l1-8h5l1 8h7l1-8h4l1 8h7l1-7h5l1 7 7 1v-9h5l1 8h8l2-4 3 1 1 3 7 1v-9h6l1 9 6-1 1-7 1 2h2l3 5h7l2-2 2-1-2-4h3v7h8l1-9 6 1v9l8-1v-9l5 2v8l7-1 2-4 5-1 2 6 1 2-370 1 1 47 1 87 11 3v19l-1 6-2-1-1-2-6-1-6 4-15 1-5 3-2-2 1-6 3-3 5-1 3-6 3-15 3-4 1 2 4-2 1-6-1-5-1-21-1-7h-3l-1 2h-2l-2-6-2-27-1-46 5-13 3-4h2v-2l6-5 9-1 2 2 2 7 8-2 1-7 4 1v7l8-1 3-4 4 4h8l1-2 4 2h8v-7l3 1v2h2l1 5 6-1 2-4 1 4 12 1v-8h4l1 7h8l2-7h4v8h7v-8h6v8h9l5 2v-2h7v-8z" fill="#214376"/>
<path transform="translate(608,841)" d="m0 0 13 2 10 3h3l2-4 2 4 4-2-1 10-11 48-5 20-4 10-1 5-3 1-3-5-1-8h-22l-6 2-3 5-2 1-5-1-2 1 1-8 13-45 1-5 2 2 4-4 3-10 4-11 3-7z" fill="#3B3E45"/>
<path transform="translate(669,1113)" d="m0 0h16l25 1v4l8 1 46 1h17l52-1h120l7-1 2 1h259l288-1 106-1h24l34 1h46l23-1 4 1 5 1v1l-30 1h-34l-30 1h-66l-128 1h-703l-67-1h-24l-47-1-3-1v-2l9-3 24 1 1 4h11l1-4 4-1z" fill="#16181C"/>
<path transform="translate(1835,835)" d="m0 0 4 2 9 12 16 21 14 19 20 26 13 18 6 8-1 5h-2l2 5-4-1-9-3h-12l-6 2-3-1 1 18 3 5 8 14 1 9-3-4-2-6-4-2-1 24-2 6-2-4-1-1-9-2-1-4 2-2 8-1 1-12-1-17-1-5v-21l-8-13-8-11-7-10-6-7-1-3-1-28-2-12-8-12-3-5z" fill="#1D4074"/>
<path transform="translate(360,1447)" d="m0 0h72l8 4-4 1-8 1-5-1v2l-7 2-3 2-8 1-1 2h-13l-11 2-11 1-11-1h-4l-5-1-1 1h-19l-12 1-12-1-4 1-2-1h-39l-5 1-15-3-8-4v-2l-13-1-15-2-5-2 1-2z" fill="#16181C"/>
<path transform="translate(591,924)" d="m0 0h22l1 1 1 8 2 5h-2l-2 4-1 10-2 5-10 4-6 5-3 5-7 6-5 15-1 10-5 5-4 10-1 2-6 3h-6l-1-4v-22l3-14 9-30 5-19 4-2 5 1 4-6z" fill="#17191D"/>
<path transform="translate(712,867)" d="m0 0h5l3 3h10l6-3h17l6 2 8-1 9 3 3-3h10l2 1h6l2-1h8l5 3 4 4 2-4 5-2 15 1h13v5l-6 3h-2l-2 4h-10l-5-4h-13l-5 1-5-1-4 4-3 7-4 4-3 5-9 1-1-1v-6l2-4v-5l-1-3-7 1-2 5-2 3h-4l-2-6h-3l-2 7-4 2-2 4-3 7-15 9-8-1-1-8-2-4-5-1-4-6-3-7 1-12h-2z" fill="#3B3E45"/>
<path transform="translate(419,656)" d="m0 0h39l1 1v30l-2 27-4 8-10 2-4-1h-25v-12l3-41z" fill="#525763"/>
<path transform="translate(719,465)" d="m0 0h370v1l-348 1v1l19 1 151 1h93v2h8v1h-10l-12 1h-12l-1 3-300 1-9-1-6-2v-1l7-1 4-3 9-1 22-1h14z" fill="#8B94A3"/>
<path transform="translate(228,655)" d="m0 0h21l91 1h19l41 1 3 2-1 12-2 25-1 32-2 10v8h2l-1 17-2 1h-12l-1-17 1-2h-8l-1 18-3 2h-13l-1-7 3-2-2-11-8-1 1 2v16l-3 1v2l-12 1-3-1v-6l2-5-1-1-1-8-5-3-1-1-1 20h-1l-1-8v-7l-4-2h2l1-5-7-2-1-2h16l1 2h-2l1 5h14v-4l-4-1v-2l3-1h18l14-1 11 1 8-1 2-52v-21l-29-1h-87l-47 1-4 6-3-1-3 20-4 50h4v2h-2l-1 6h8l-2 1 1 7-3 2h-8l-2-2v-6l3-1v-16l3-33 2-25 3-14z" fill="#575A65"/>
<path transform="translate(335,620)" d="m0 0 1 4v9l-1 3 60 1 13 1 63 1 10 2v33l-4 62-3 33-2 5h-9l-2 1-84 1h-50l-132-1-6-3-1-3 6-51 5-42 3-30 2-5 10-2 31-2 4-1 1-2 3 1h62l18-1 1-12zm-94 21-28 1-6 2-4 9-3 28-2 17v10l-3 31-3 20v7l4 4 13 2 46 1h198l7-2 5-3v3l4 1 2-1 2-15 4-45 3-52v-14l-8-4z" fill="#224273"/>
<path transform="translate(1235,562)" d="m0 0 8 1 3 5v68l4 2-3 7-1 1-3 21-5 6h-9l-3-5-2-32-3-1v-58h1l1 28 2-4-1-6v-27l2-5z" fill="#99AABD"/>
<path transform="translate(862,1192)" d="m0 0 832 1 1 1 1 18 5 2 1 1 1 25 2 11 8 19 10 17 12 22 3 5 1 5 8 16 12 21 13 24 12 22-1 2-12-18-9-16-8-16-10-17-6-9-9-17-5-10-11-19-10-17-5-15-2-23v-10l-3-5-1-12-1-3-5-1-88-1h-734z" fill="#1C3F73"/>
<path transform="translate(1233,476)" d="m0 0h5l2 3 1 18-1 27 6 2 3 7 2 5v9l-4 7-1 1v10l1 2-3-1-1-2-8-1-9 1-1 4v33l4 1h-5l-1 4-1-1-1-36-2-2h4l3-7 4-2 1-2 3-1v-7l-5 8-5 3-4 1h-7l-5-2-4-6-1-3v-11l3-6 5-4 4-2 13-1-1-16v-21l1-9z" fill="#575A65"/>
<path transform="translate(1280,385)" d="m0 0h84l5 1-3 3 1 7 1 3h7l1 2-15 6-18 1-64 1v-21z" fill="#282B30"/>
<path transform="translate(250,614)" d="m0 0h85l1 1-1 7-1 12-1 1-18 1h-62l-5-3 1-6 1-5-1-7z" fill="#8E98A8"/>
<path transform="translate(1298,466)" d="m0 0h342v1l-22 1-67 1-33 1h-108l-60 1-26 1-2 2h-3v2h419l33 1v1h-475l-11-1 2-6 13-3h6l-8-1z" fill="#80858D"/>
<path transform="translate(853,553)" d="m0 0 5 1 1 7h7l1-3h4l1 4 8-1 1-6h4l1 6 8 1v-7l1-1h5l1 8h6l1-7 4-1 1 1 1 7h8l-1-8h5l1 1 1 7h6l1-8h5l1 8h7l1-8h4l1 8h7l1-7h5l1 7 7 1v-9h5l1 8h8l2-4 3 1 1 3 7 1v-9h6l1 9 6-1 1-7 1 2h2l3 5h7l2-2 2-1-2-4h3v7h8l1-9 6 1v9l8-1v-9l5 2v8l7-1 2-4 5-1 2 6 1 2h-331l-7-1 3-3 3-4 4 4h8l1-2 4 2h8v-7l3 1v2h2l1 5 6-1 2-4 1 4 12 1v-8h4l1 7h8l2-7h4v8h7v-8h6v8h9l5 2v-2h7v-8z" fill="#2E456A"/>
<path transform="translate(1823,1420)" d="m0 0h2l-1 5v7l1 2-1 12 23 3 3 4 1 8-4 4-9 2-11 1h-21l-17-1-7-2-2-2 1-10 3-4 4-1 13-1 6-2v-6l-1-4 3-5v-5l9-1z" fill="#5B5F6A"/>
<path transform="translate(747,1422)" d="m0 0 2 1-3 5 1 9 2 8 17 3 5 4 3 8-1 4-7 2-23 3h-29l-9-3-1-1v-12l2-2 17-2 6-3 1-11v-10l-1-2 7 2 7-1z" fill="#3F4249"/>
<path transform="translate(716,951)" d="m0 0 20 1 65 8 2 1 24 2 12 2 32 3 34 2 23 3 11 2 23 2 13 2 11 1h25l5-1h20l-1 4-18 1-6 1h-27l-20-2-62-7-10-2-49-5-34-1-14-2-2-1-61-7h-19l-9 6-4 5-2 4v7l2 8v4h2l1 3v8h-2l-6-15-1-3v-13l3-8 7-6 2-3z" fill="#E2EAEE"/>
<path transform="translate(1250,637)" d="m0 0h337v1l-98 1-1 4-4-2 1-3-7 1h-20l-2 1 1 3h-9l1-3 3-1 1 1v-2l-7 2v3l-42 1h-59l-63 1-22 1h-11l-1 4h-2v-5z" fill="#272A2F"/>
<path transform="translate(1734,567)" d="m0 0 2 1v50l-1 28-1 10 1 4v35l-2 2-9-10-2-1 1-2-1-57 1-59z" fill="#81878F"/>
<path transform="translate(1623,518)" d="m0 0h148l1 1v6l-1 2h-35l-20-1h-107v-2l-3 2-5-1h-28v-5l33-1z" fill="#8E98A8"/>
<path transform="translate(1076,553)" d="m0 0h7v9l-1 2h8l-1-2v-9h9v9l-1 2h6l-1-2v-9h9v8l-3 1v2l9-1-1-1v-8l1-1h6l2 7-1 3 2 1 18 1-1-3v-9h8v9l5-1 1-8h8v9l-1 1 7 1-1-2v-9h6 3l11 1 1 13h-261l-215-1v-1l363-1-2-2z" fill="#818998"/>
<path transform="translate(1095 1e3)" d="m0 0 7 1 6 2-1 2 3 1v46l-1 8-1 1-13 1-9-2-3-4h3v-2h2v-2h3v-2h-7l-2-3 2-8 1-9 1-4-1-11 2-6v-2h2l-2-4z" fill="#80858D"/>
<path transform="translate(631,811)" d="m0 0 1 2 3-1 8 3 3 2v8l-3 11-3 3-3 1-3 6-4 1-12-4-10-1-3 1-2 7-5 13-3 10-5 5h-1l1-10 11-38 7-9 2-6 9-2h8z" fill="#2A2D32"/>
<path transform="translate(282,658)" d="m0 0h87l29 1 1 1v21l-2 46h-2l-2 4-54 1h-52l-60-2-1-7 5-44 2-18 2-2zm-2 3-9 3h-17l-3-2h-14l-3 6-5 38-1 9v11l6 1 24 1h90l45-1 2-2 3-58-1-6z" fill="#94A2B4"/>
<path transform="translate(721,518)" d="m0 0h138l9 1 1 2-2 4h-18l-1 1h-125v-2l-3 2h-10l-9-1-12-1-2-4 1-1z" fill="#8E98A8"/>
<path transform="translate(228,664)" d="m0 0 3 1 2-1v8l-5 40-1 18h24l47 1h48l47-1 3-3v6l-9 2-15-1-15 1h-15v2l4 1 1 4-1 1h-14l-1-1v-5l1-1h-15l7 3-1 4h-12v-7l-52-1h-22l-4 1 4 1-2 4-5 2h-8l1-6h2v-2h-4v-15l4-43 2-12z" fill="#80858D"/>
<path transform="translate(741,466)" d="m0 0h339l3 2-23 1-54 1-95 1-151-1-37-2v-1z" fill="#80858D"/>
<path transform="translate(724,730)" d="m0 0h2l-1 21-2 16-3 11-2 17-2 3-5-2-2-9-2 4-6 29-6 27-6 35-6 26-6 29-2 14-6-1-3 2 1-5-4 1v-2l6-3 3-8 4-20 7-32 6-27 3-20 5-20 2-12 2-7 3-16 4-12 3-3 2 7 2-1 3-16 5-25z" fill="#1C3E73"/>
<path transform="translate(1316,554)" d="m0 0h4l1 9h8l1-8h3l2 7h7l1-5 5 1 1 4h7l-1-8 6 2 1 6h7l1-4 5-2 1 6 6 1v-8h6l1 8 7-1 1-7h4l1 7h7l3-5 3 1 1 4h6l1-7h5v7h9l3-5h2l1 5 7 1v-6l2-2h3l2 7h6l1-7 5-1 1 8h7l1-7 4-1 2 8h6l1-7 5-1 1 8h8v-7h3l2 3v4h7l1-5 3-1 1 3h2v3h6l1-6 4 1v4l7 2-3 2-97 1h-65l-61-1-2-2 1-1z" fill="#2B4165"/>
<path transform="translate(197,698)" d="m0 0h2v10l-3 31-3 20v7l1 3 15 2 46 1h198l7-2 2-2h3v3l5-1 1-3 5-55 2-1v12l-3 38-2 12-1 1h-9l-2 1-84 1h-50l-132-1-6-3-1-3 6-51 2-18z" fill="#1C3E73"/>
<path transform="translate(1031,1222)" d="m0 0h5l2 6 3 19 16-14 8-10 6-1 1 2-4 11-2 7-5 12-6 19-3 5-5 1v-6l8-21 2-7v-4l-11 11-5 6-4-1-1-1-2-16h-2l-11 31-3 7-5 1-1-5 5-16 11-29z" fill="#F3F7F8"/>
<path transform="translate(414,728)" d="m0 0h40l1 1v11l-2 13-1 1h-27l-12-1-1-1 1-23z" fill="#737882"/>
<path transform="translate(1722,566)" d="m0 0h14l2 2v89h1l2 10 2 4v3h2l2 9 3 28 4 10 5 6 5 9 9 12 5 4 6 1 27-1 2 2h9l1 3h-11l-2-1-13 2h-18l-6-3-2-4-10-14-7-10-5-7-4-7-3-3v-2l-4-2-1-6-4-1-6-5 1-3 5 5 1-1v-35l-1-10 1-4 1-36v-42l-11 1z" fill="#1C3F74"/>
<path transform="translate(1235,562)" d="m0 0 8 1 3 5-1 60h-13v-1h12l-4-8-5-3v-4l5-2v-5l-1-1-14-1-1 30h-2v-28l3-4-1-6v-27l2-5z" fill="#99AABD"/>
<path transform="translate(1242,1221)" d="m0 0 5 2 4 28 1 10h3l3-11 10-27 2-2 4 1-1 7-8 27-7 16-3 6h-5l-2-8-5-29v-3l-3 3-6 18-4 10-3 9h-6v-5l5-12 7-23 6-15z" fill="#F5F9FA"/>
<path transform="translate(1891,946)" d="m0 0h12v2l5 1 4 4v2h2l4 6 4 4 5 8 2 7v9l-4 8-5 2-5-1-2-3-1-9-7-13v-2l-3-1-4-5v-2h-2l-6-9v-6z" fill="#16181C"/>
<path transform="translate(925,519)" d="m0 0h202l-1 5-3 2-1-3h-20l-4 2-7-4-2 5-2 1-3-1v-3l-11 2v-2l-10 1-4 1-1-3-5 1-1 3-7-1-6-1h-14l-3-1-2 1-3-1-1 3-11-1-7-1h-14-4l-4 2-5-2h-13l-14-1-1-1-2 4h-2v-2l-7-1h-18l-2-1v-2z" fill="#99AABD"/>
<path transform="translate(654,947)" d="m0 0h9l1 3-4 17-1 8v11l1 16 1 5 5 2 3 9-3 7-9 2-5-5-1-6 2-6-1-3-8-3v-15h2l1-5 3-11 3-25z" fill="#585B66"/>
<path transform="translate(1240,168)" d="m0 0 2 1 2 7 1 86 9 3 1 1v17l-5 2-1-8h-5l-3-2-4-13-1-13 1-4-1-19-1-5v-14l2-14 1-18z" fill="#3C3F47"/>
<path transform="translate(1324,520)" d="m0 0h173l-3 6h-18l-4-1-2 1h-7l-2-1v-2l-5 3-20-1-5 1-6-1-2-2-3 3h-27l-3-1-6-1-2 2h-27l-6-4-1 3-7 1-16-2-4-1v-2z" fill="#9AABBE"/>
<path transform="translate(669,517)" d="m0 0h183v1l-20 1h-111l-33 1 1 3 12 1 9 1h10l3-1v2l38-1h72l29 1h6l3-3 2 3 50 1v1h-253l-2-2v-8z" fill="#81868E"/>
<path transform="translate(1323,385)" d="m0 0h41l5 1-3 3 1 7 1 3h7l1 2-15 6-18 1h-47v-1l21-1 12-2 1-2 5 1-1-3-2-1v-10l-2-1 1-1-8-1z" fill="#3B3E45"/>
<path transform="translate(853,553)" d="m0 0 5 1 1 7h7l1-3h4l1 4 8-1 1-6h4l1 6 8 1v-7l1-1h5l1 8 6 1 17 1v1h-176l-7-1 3-3 3-4 4 4h8l1-2 4 2h8v-7l3 1v2h2l1 5 6-1 2-4 1 4 12 1v-8h4l1 7h8l2-7h4v8h7v-8h6v8h9l5 2v-2h7v-8z" fill="#2A3D5B"/>
<path transform="translate(605,758)" d="m0 0 47 1 2 1v15h-2l-1 3-5-1-31-1-7-3-4-3v-11z" fill="#17191D"/>
<path transform="translate(708,677)" d="m0 0h2l1 23 11 3v19l-1 6-2-1-1-2-6-1-6 4-15 1-5 3-2-2 1-6 3-3 5-1 3-6 3-15 3-4 1 2 4-2 1-6-1-11z" fill="#1C3F74"/>
<path transform="translate(859,518)" d="m0 0h107v1l-54 1 2 1v2l7-1h13l5 2v2h2l2-5 1 2 3-1 19 1 8 1 3 3-7 1h-47l-50-1-3-3-2 3h-16l-4-2 1-1h18l1-4-9-1z" fill="#8B93A2"/>
<path transform="translate(227,654)" d="m0 0h57l111 1 8 1 1 1v13l-2 18-2 41-1 6h-1l1-39 2-25 1-10 1-2-3-1-41-1h-26l-102-1h-3l-3 14-2 25-1 12-2-1v-10l-4-2-3-3-1-4 1-21 3-7 4-2h5z" fill="#3B3E45"/>
<path transform="translate(856,1215)" d="m0 0h2v20l-2 14-6 18-8 16-13 23-15 30-8 13-24 48-8 11-3 1-1 2h-2l1-4 2-3 4-9h2l2-6 9-16 6-11 4-7 2-4 11-21 10-17 8-16 9-16 6-10 6-12 3-14 1-7h2l-1-7v-15z" fill="#1E3F70"/>
<path transform="translate(228,655)" d="m0 0h21l91 1h19l41 1 3 2-1 12-3 34h-1v-45l-29-1h-87l-47 1-4 6-3-1-3 20-4 50h4v2h-2l-1 6h8l-2 1 1 7-3 2h-8l-2-2v-6l3-1v-16l3-33 2-25 3-14z" fill="#585B66"/>
<path transform="translate(1335,1221)" d="m0 0h7l9 3 3 3-1 4-1 1-7-1-3-2h-11l-6 4 1 4 10 10 7 10-1 7-5 8-5 4-7 2h-14l-6-3-1-4 3-3 5 1 6 3h7l8-4 1-7-3-5-13-13-2-3v-5l6-8 3-3z" fill="#F4F7F9"/>
<path transform="translate(250,614)" d="m0 0h85l1 1-1 7-1 12-1 1-18 1h-62l-5-3 1-6 1-5-1-7zm0 1 1 4 4 3v4l-2 1v2l-3 1v3l2 1h9l2-4 1-4 6-1 2 2-1 6 3 1h9l3-1-1-7h2v-2h8l2 1 1 8 4 1 9-2 1-6 11-3 5-2 6-1 1-4-1-1z" fill="#81868E"/>
<path transform="translate(1603,517)" d="m0 0h169l2 2v7l-3 1v-8h-148l-334 1 1 5 21 1 70 1v2l-82-1-14-1-4-1-1-7 1-1z" fill="#81868E"/>
<path transform="translate(973,518)" d="m0 0h216v10h-52l-9-1 1-4h-2v-4h-154z" fill="#89919E"/>
<path transform="translate(1497,521)" d="m0 0 2 1 1 3 6 1h92l8-1 3-1v2l35-1h74l18 1h21l14 1v1h-164l-121 1h-80l-24-1v-1l27-1 1-1h10l4-3 1 3h9l4-1 18 1 2-2h3v2h9l3-1 4 1 17 1 2-4z" fill="#81868E"/>
<path transform="translate(1081,988)" d="m0 0 1 2h4l4 8 9-2 5-2 3-3 5-2 1 8-1 5-1 43h-1v-38l-4-1 1-1-7-3h-5l-7 3 1 3h-2l1 3-2 5 1 12-2 6v7l-2 8 1 1 2-2v3h5v2h-3v2h-2v2l-2 1 4 3 14 1-2 1 1 9 1 5h-11l1-5-1-7 1-2-9-1-1-1-1-11z" fill="#565963"/>
<path transform="translate(711,1189)" d="m0 0h146l-1 5-5 1-7-1h-134z" fill="#16181C"/>
<path transform="translate(665,809)" d="m0 0h1v8l-7 30-8 37-5 25-9 37-3 15-2 4h-2l-1-7 1-12 10-39 9-35 6-29 4-15 3-12z" fill="#181B1F"/>
<path transform="translate(719,465)" d="m0 0h370v1h-369v3l5 1 6 1v1l-22 3h-12l-8 1h-20l1-4 3-2 9-1 22-1h14z" fill="#B4C5D4"/>
<path transform="translate(1158,1331)" d="m0 0h27l1 2-2 4-22 1-4 8-2 8 11 1 5 3 2 3v7l-6 11-7 6-7 2h-15l-1-4 15-1 7-2 4-6 1-3v-9l-3-1-16-1 3-11 6-16z" fill="#F5F9FB"/>
<path transform="translate(658,449)" d="m0 0h14l1 2v7l-2 2-9 2-1 10 1 4h-18l-12-1 1-7 8-8 11-9z" fill="#3D4047"/>
<path transform="translate(1573,554)" d="m0 0 4 1v7h8l1-7h2v5l3 2h6l5-1h8l1-6 4-1v8h8l1-8h6v8h6l1-7 3-1 2 1v7l9-1 1-6 1 3h2l1-3 1 7h12l8 1v-5l1 4h3v-6h1l1 5 8 1 1-6 3-1 1 6 7 1v1l-8 2-132 1-12-1v-2l8-1v-5l5-1v6h8v-7z" fill="#40454F"/>
<path transform="translate(1772,448)" d="m0 0 13 2 9 5 14 13 1 7-34 2v-2h4l1-14h-7l-5-2v-8l1-2z" fill="#3F424A"/>
<path transform="translate(1832,756)" d="m0 0h4v9l-4 6-33 1v7l-5-3-1-3-4-2-7-9 1-3h15l6-1h20z" fill="#16181C"/>
<path transform="translate(1056,946)" d="m0 0 4 1 1 15h15v14l-1-4h-5l-2-2-3 1-2 6-5 1-2 4 7 1-3 3-6 2-1 2h-6l-1-8-11 1 1-4h10v-17l7-1v-13z" fill="#8C96A6"/>
<path transform="translate(716,951)" d="m0 0 20 1 57 7v1h-10l-16-1 35 5 28 3v1h-21l-14-2-2-1-61-7h-19l-9 6-4 5-2 4v7l2 8v4h2l1 3v8h-2l-6-15-1-3v-13l3-8 7-6 2-3z" fill="#919DAC"/>
<path transform="translate(1416,1239)" d="m0 0h22l3 1 1 7-3 12-7 18-7 1 1-9 5-10 3-14h-14l-7 22-5 10-5 1-1-5 10-27 3-6z" fill="#F2F7F8"/>
<path transform="translate(1320,1331)" d="m0 0h18l6 4v7l-5 10-3 3v13l-1 4h-2l-1 5-2 4h-2v2l-9 3-15 1-4-1 1-4 18-1 6-4 3-7v-9l-12-1-1-3 1-3 14-1 5-5 1-9-2-1-16-1-1-3z" fill="#EFF5F7"/>
<path transform="translate(1190,464)" d="m0 0 1 2-1 9-2-3-1-2h-181v-1l57-1 17-1v-1l9-1z" fill="#828891"/>
<path transform="translate(1125,982)" d="m0 0 2 2h23l5 2-1 3-2 1-19 1-9 2-5 10-2 16-1 18-1 2-1 10-3 3v-50l1-7v-11l12 1z" fill="#17191D"/>
<path transform="translate(282,658)" d="m0 0h87l29 1-1 4v-2l-12 1h-105l-9 3h-17l-3-2h-14l-2 5-4 29h-1v-10l3-26 2-2z" fill="#8C97A4"/>
<path transform="translate(1087,926)" d="m0 0h18v21l1 9-6 2h-13z" fill="#81868E"/>
<path transform="translate(728,1449)" d="m0 0h26l15 1 2 2v5l-2 4-14 2-8-3-6-2-9 1v2l-6 2-8-1-1-8 4-2 2 1 1-3z" fill="#282B30"/>
<path transform="translate(446,674)" d="m0 0h11l2 1v12l-2 27-4 2h-10l-1-4 1-8z" fill="#8B95A3"/>
<path transform="translate(1125,973)" d="m0 0h20l17 2 4 5-1 4h-3v2h-5l-5-1h-25l-2-2-1 2h-7l-5-1v-8h3v-2z" fill="#282B30"/>
<path transform="translate(1883,951)" d="m0 0 4 2 8 12 12 15 4 7 1 12-2 2h-11l-2-2-1-12-5-10-7-10-1-4z" fill="#585B66"/>
<path transform="translate(434,657)" d="m0 0h10l1 4-1 11-1 2v15l-2 19h-11l-1-2 2-19 2-29z" fill="#838A93"/>
<path transform="translate(1181,1222)" d="m0 0h6l-2 10-2 7-4 10-9 24h21l-1 6h-24l-3-1v-7l7-21 8-21z" fill="#F3F7F9"/>
<path transform="translate(1274,1347)" d="m0 0 4 1 4 13 4-2 11-12 4 1-1 5-7 6-5 6-2 1v5l3 7v8h-6l-4-9v-3l-5 3-7 8-7 1v-3l6-4 8-10-1-9-2-10z" fill="#F0F5F7"/>
<path transform="translate(1375,1221)" d="m0 0h4l-1 9-2 8h9l-1 5-2 1-9 1-8 22-2 7h-2l-2 5-4-1v-6l8-24v-3l-4-2 1-3 8-3 5-14z" fill="#F2F6F7"/>
<path transform="translate(1143,553)" d="m0 0h8v9l5-1 1-8h8v9l-1 1 7 1-1-2v-9h6 3l11 1 1 13h-45l-3-5z" fill="#6D7C91"/>
<path transform="translate(1150,1221)" d="m0 0h7l6 4 2 4v8l-2 6-7 8-8 4h-2l4 16 1 6-1 1h-5l-3-7-3-10v-7l1-3 10-4 7-7v-7l-2-3-7-2v-5z" fill="#F2F6F8"/>
<path transform="translate(670,950)" d="m0 0 2 1 1 3 1 15-1 29-1 4-6 1h-3l-2-3v-19l3-11 3-16z" fill="#16181C"/>
<path transform="translate(1480,1239)" d="m0 0h5l-2 10-10 27-2 5-7 10-5 4-3 1h-16l1-7 19-1 4-9 8-22 5-13 1-4z" fill="#EFF5F8"/>
<path transform="translate(1788,1448)" d="m0 0h24l2 1v5l-2 2-2 5-7 3-5 1h-13l-5-2 1-10 3-4z" fill="#3E4148"/>
<path transform="translate(396,605)" d="m0 0h8l8 2 3 4v7l-4 5-6 2-4 4-9-3-3-5-1-8 3-5z" fill="#595C67"/>
<path transform="translate(1142,1331)" d="m0 0h2l-1 9-6 17-6 16-2 8h-2l-2 6h-4l1-10 6-18 4-11v-3l-6 3h-5l1-4 11-8z" fill="#F3F7F9"/>
<path transform="translate(1059,466)" d="m0 0h21l3 2-23 1-54 1h-84l-28-1-7-1v-1z" fill="#585B66"/>
<path transform="translate(1933,1081)" d="m0 0 3 1h8v13l3 13 3 6-13 2h-6l-1-4h-26v-1h25l1-10 3-15z" fill="#5E626D"/>
<path transform="translate(1529,519)" d="m0 0h77v1h-33v5l14-1h15l1 2-5 1h-92l1-2 6-1 7 1h10l2-4z" fill="#8E98A8"/>
<path transform="translate(1279,518)" d="m0 0 2 1v7l18 1 82 1h105l1 2-4 1h-139l-40-1-24-2-1-1z" fill="#254E89"/>
<path transform="translate(1221,635)" d="m0 0 4 1v18l-4-2-2-2v-3l-7 1-14-1h-6l-8-2v-8l35-1z" fill="#2F3238"/>
<path transform="translate(1549,384)" d="m0 0h50l19 2 12 4 14 8 3 4-11-2-4-3-7-2-15-3-3-2-1 2v-2l-5 1-14-2-3-1-16-1-19-1z" fill="#838992"/>
<path transform="translate(669,517)" d="m0 0h183v1l-20 1h-111l-33 1 1 3 12 1 9 1v1l-18 1h-14l-8-1-1-2z" fill="#868D98"/>
<path transform="translate(1503,1239)" d="m0 0 3 1-1 4-5 5-1 5 1 6-5 2-1 2v7l19 1 1 4-2 2h-21l-5-2-1-3v-7l9-20 5-6z" fill="#EBF1F4"/>
<path transform="translate(747,1422)" d="m0 0 2 1-3 5 1 9 2 8 17 3v1l-38-1 1-2 1-11v-10l-1-2 7 2 7-1z" fill="#5A5D68"/>
<path transform="translate(418,674)" d="m0 0h12v11l-2 22-1 1h-10l-1-1 1-20z" fill="#868C98"/>
<path transform="translate(1223,1221)" d="m0 0h5l-1 8-4 12-8 20-7 17-5-1 3-12 8-24 7-18z" fill="#F4F8FA"/>
<path transform="translate(379,737)" d="m0 0h11l4 3 1 4v-7l2 1v8h2l-1 17-2 1h-12l-1-17 1-2-4-2-5-3v-2l3 1z" fill="#494D55"/>
<path transform="translate(1308,554)" d="m0 0h7v9l1 1 64 1h62v2h-162l1-2 21-1 6 1z" fill="#8A929F"/>
<path transform="translate(1316,554)" d="m0 0h4l1 9h8l1-8h3l2 7h7l1-5 5 1 1 4h7l-1-8 6 2 1 6h7l1-4 5-2 1 6 6 1v-8h6l1 8 2 1-1 1-13 1-61-1-2-2 1-1z" fill="#385075"/>
<path transform="translate(950,553)" d="m0 0 3 1 1 8h7l1-7h5l1 7 7 1v-9h5l1 8 1 2-11 1h-47l-17-1 1-9 4-1 1 1 1 7h8l-1-8h5l1 1 1 7h6l1-8h5l1 8h7l1-8z" fill="#284878"/>
<path transform="translate(1102,1221)" d="m0 0h4v5l-3 3-5 9-12 17-7 10-5 9-4 4h-6l2-5 7-10 2-4 3-3 8-13 12-16z" fill="#EFF4F6"/>
<path transform="translate(1138,1221)" d="m0 0h3v6l-9 23-8 21-2 7h-6l1-7 6-18 4-14 4-9 5-8z" fill="#F5F9FA"/>
<path transform="translate(1538,1239)" d="m0 0h18l2 1v7l-2 3h-5l-2-5h-7l-7 20-6 13h-4v-8l3-8 7-20z" fill="#F2F7F9"/>
<path transform="translate(1225,603)" d="m0 0h14l2 2v5l-3 2h-3l2 5 4 2 3 6v2l-13 1-7-1v-15z" fill="#D8ECF6"/>
<path transform="translate(1235,562)" d="m0 0 8 1 3 5-1 31h-1v-17h-2v-2l-4 4-1 2h-3l-3-9-4-4-2-1v23h-1v-27l2-5z" fill="#8B95A3"/>
<path transform="translate(1215,1332)" d="m0 0h5l4 4v7l-3 7-10 25-6 9-7 2v-4l5-5h2l3-12 6-18v-14z" fill="#F2F7F9"/>
<path transform="translate(1255,1332)" d="m0 0h6l4 5-2 9-11 29-3 6-5 4-7 1v-3l6-4 4-8 8-27z" fill="#F3F8FA"/>
<path transform="translate(1823,1420)" d="m0 0h2l-1 5v7l1 2-1 12 2 1h-10l-9-1v-7l-1-4 3-5v-5l9-1z" fill="#868C95"/>
<path transform="translate(616,953)" d="m0 0 1 3 7-1 2-1-1 7-2 15-3 5-4 2-7-1-2-3v-12l4-3h2l2-9z" fill="#41444C"/>
<path transform="translate(269,737)" d="m0 0h15l1 2-3 3-7 2 2 4v5l-4 2 4 2v7l-4 1h-7l-4-2 1-9 1-7 2-2 2-7z" fill="#81868E"/>
<path transform="translate(1366,1331)" d="m0 0 4 1-2 5-5 4-6 17-4 16v11l-5 1-5-4 1-9 4-9 9-24 3-4h2v-2l4-1z" fill="#EBF1F4"/>
<path transform="translate(1406,1331)" d="m0 0h4v5l-6 5-11 32-1 6 1 7-7-1-2-4 1-7 11-30 6-9z" fill="#EEF5F8"/>
<path transform="translate(350,738)" d="m0 0 4 2 2 2 8 2v1l8 1 1 1v5l-1 1h-10l-2-1-1-7-8-1 1 2v16l-3 1v2l-12 1-3-1v-6l3-5 11-1 2-5-3-3 2-6z" fill="#363940"/>
<path transform="translate(1243,1332)" d="m0 0h5l-1 5-4 3h-2l-3 9-8 22v13l-1 1h-5l-2-2v-8l10-30 3-6z" fill="#F0F5F8"/>
<path transform="translate(761,519)" d="m0 0h70l-1 5-5 1-25-1-2-2-3 2h-32l-2-1z" fill="#9AABBE"/>
<path transform="translate(1446,1332)" d="m0 0 4 1-1 4h-2v2l-3 3-8 24-3 10v10l-5-1-3-3 1-9 9-25 6-11z" fill="#EFF7FA"/>
<path transform="translate(1202,1332)" d="m0 0h5l-1 5-3 1-2 4-5 11-7 18-1 10-1 5-5-1-1-8 8-26 6-12z" fill="#F1F6F8"/>
<path transform="translate(1378,1331)" d="m0 0 5 1 1 3h2l-1 9-3 9-8 23-4 6-8 4h-3v-3l7-5 9-22 4-17h-2v-7z" fill="#EFF4F7"/>
<path transform="translate(582,905)" d="m0 0 1 3 2 1h-2l1 7v5h33l3 2v2l-3 2v5l2 3-2 3-3-5-1-8h-22l-6 2-3 5-2 1-5-1-2 1 1-8 5-17z" fill="#2A2D33"/>
<path transform="translate(1537,553)" d="m0 0h9l11 1 1 1v7l-1 1h-6v2h12v1h-115v-1l91-1-2-2z" fill="#6B7789"/>
<path transform="translate(1462,1239)" d="m0 0h7v4l-7 1-8 20-1 7 4 1 1 4-2 2-9-1-2-2v-9l8-20 7-6z" fill="#F1F7F9"/>
<path transform="translate(644,989)" d="m0 0h1l1 13 4 1h8l2-1 1 5 5 2 3 9-3 7-9 2-5-5-1-6 2-6-1-3-8-3z" fill="#3B3E45"/>
<path transform="translate(1722,566)" d="m0 0h14l2 2v52l-1 72-1 8-4-2-5-4 1-3 5 5 1-1v-35l-1-10 1-4 1-36v-42l-11 1z" fill="#575A65"/>
<path transform="translate(1280,385)" d="m0 0 15 1 1 12v3h-2v2l-5 3-1 3h-9v-21z" fill="#1A1C20"/>
<path transform="translate(1079,982)" d="m0 0h1l1 8v74l-5-1 1-80z" fill="#16181D"/>
<path transform="translate(1497,521)" d="m0 0 2 1 1 3 6 1v1h-8v-3h-2l-1 3h-2v2h-87l-24-1v-1l27-1 1-1h10l4-3 1 3h9l4-1 18 1 2-2h3v2h9l3-1 4 1 17 1 2-4z" fill="#88909D"/>
<path transform="translate(764,958)" d="m0 0h10l27 2 2 1 24 2 12 2 32 3v2h9v2l-17-1-61-6-35-5z" fill="#DFEFF7"/>
<path transform="translate(1086,927)" d="m0 0h1l1 30h12l6-1-2-10 1-19h1l1 12h8l1 1v13l-2 1-1-4-3-1 1 3-2 1-1-6-1 11h-2v2l-21 1 2-2-2-16-1 13-2-1v-2h-2l-2-3v-10l1-1 8 1z" fill="#585B66"/>
<path transform="translate(1461,1331)" d="m0 0 4 2 2 3-1 8-7 24-6 12-6 4h-4l2-4 5-9 9-23 1-16z" fill="#F3F7F9"/>
<path transform="translate(1419,1332)" d="m0 0 5 1 3 4-1 6-11 33-6 7-4 2h-5l1-3 4-3h2l3-9 8-21 1-10z" fill="#F2F8FA"/>
<path transform="translate(307,738)" d="m0 0h3v5h13l3 3v15l-1 2-12 1-2-1v-19h-2l-1-2-3 1z" fill="#44474F"/>
<path transform="translate(1722,519)" d="m0 0h50v6l-1 1h-11l-7-1-8 1-25-2v-4z" fill="#9AABBE"/>
<path transform="translate(740,471)" d="m0 0h155l2 2-47 1-59-1h-47z" fill="#9AABBE"/>
<path transform="translate(414,728)" d="m0 0h11v25h-12l-1-1 1-23z" fill="#8B96A6"/>
<path transform="translate(1102,1241)" d="m0 0h4v35l-3 2h-5v-13h-9l1-4 3-2h6v-10z" fill="#F0F5F7"/>
<path transform="translate(856,1215)" d="m0 0h2v20l-2 14-6 18-8 16-13 23-2 3-3-1 2-5 7-13 11-19 6-12 3-14 1-7h2l-1-7v-15z" fill="#1C3E73"/>
<path transform="translate(457,657)" d="m0 0h2v16l-2 2-11-1-1 20-1 15-1 6h10l3-1-2 6-1 2-10 2-3-2-1-14h2v-10l1-17 1-7h-7v-1l7-1 1-11 1-3h2v10l-1 4h12z" fill="#575A64"/>
<path transform="translate(1739,466)" d="m0 0 6 2 21 2 7 3v2l-2 1h-30l-17-3-2-2 4-2 13-1z" fill="#9AABBE"/>
<path transform="translate(412,734)" d="m0 0h1v18l35 2 2 2v5l-1 1h-11v-7l-14 1v7l-5 2h-7l-3-2v-6l3-1-1-3v-16z" fill="#32353C"/>
<path transform="translate(1804,775)" d="m0 0h21l-3 6-7 6-1 13-5-5-5-6-1-2v-11z" fill="#F9FBFC"/>
<path transform="translate(1088,926)" d="m0 0h17l-2 5-3 2v23l-5 1-3-3v-7l-4-16z" fill="#8D97A7"/>
<path transform="translate(1091,521)" d="m0 0 4 1 5 2 3-2 19 1 2 2 5-3v3l-1 2h40l21 1v1h-89l-12-1 2-3h3v-2z" fill="#8B95A3"/>
<path transform="translate(611,1085)" d="m0 0 7 1 2 3-1 17-1 4-2 6h-8l-4-2 3-2 3-14z" fill="#585B66"/>
<path transform="translate(733,725)" d="m0 0v3l-1 4-2 12-4 23-4 16-3 15-2 4-4-1-2-5 5 1 2-9 1-10 4-16 2-27 1-6 6-3z" fill="#292C32"/>
<path transform="translate(665,809)" d="m0 0h1v8l-7 30-8 37-2-1-1 1-2 3 1-8 5-22 6-25 4-16z" fill="#282B30"/>
<path transform="translate(1076,553)" d="m0 0h7v9 3 1l-54 1h-99v-1l59-1 89-1-2-2z" fill="#909CAC"/>
<path transform="translate(1493,528)" d="m0 0h114v1l-40 1-1 1h-78v-2z" fill="#38527C"/>
<path transform="translate(1888,947)" d="m0 0 3 1v6l5 7v2h2l5 7 3 3 6 11-1 3-4-5-9-12-8-11-5-7-2-1 2 16 7 10 5 10 1 12 1 1h11l2-1-1 3-4 1h-7l-4-3-3-15-6-11-4-5-1-3v-18h5z" fill="#2D3036"/>
<path transform="translate(653,1083)" d="m0 0h2v2l5 1 2 7v11l-1 10-1 2h-6l-4-4h2v-8l1-7z" fill="#595C67"/>
<path transform="translate(1070 1e3)" d="m0 0h6v50l-1 10-7-1v2l-2-1 1-6v-4l4-1-1-3 3-1v-8l-1-5 1-4-2-1h2l-1-4 1-4-2-1-1-3h3l-1-6z" fill="#585B66"/>
<path transform="translate(1397,1239)" d="m0 0h5l-1 7-5 16-5 13-3 3h-4l1-7 7-19 2-7z" fill="#F2F7F9"/>
<path transform="translate(1245,637)" d="m0 0h5l-3 8-1 1-3 21-5 6h-9l-3-5v-11l2 3 1 7 1-4 4-3 7-1v-8z" fill="#81868E"/>
<path transform="translate(1244,636)" d="m0 0 2 1-4 14-1 8-9 3-1 5h-3l-2-10-1-2v-9h1v5l7-2 1-5 3 2 3-1v-2h3v-6z" fill="#8E98A8"/>
<path transform="translate(1170,553)" d="m0 0h6 3l11 1 1 13-19-1-2-4z" fill="#294672"/>
<path transform="translate(510,1461)" d="m0 0h9l-2 2-25 5-7 1h-99v-1l75-1 25-2 8-2z" fill="#4C4F58"/>
<path transform="translate(655,1083)" d="m0 0 9 2 1-2 2 18 2 5v6l2 1h-2v2l-4 2-1 3h-11l-2-6 9 2 1-12v-11l-2-7-4-1z" fill="#2D3035"/>
<path transform="translate(600,480)" d="m0 0h1v34h-11l-2-3v-10l1-5 10-1z" fill="#868C96"/>
<path transform="translate(1280,479)" d="m0 0 5 1 2 15-1 18-2 4h-5z" fill="#1C3F74"/>
<path transform="translate(1627,469)" d="m0 0 7 1 5-1 24 1h17l4 2v1l-7 1h-16l-23-1-1 2-4-1h-10v-2l-12 2-12-1 2-2h15l10-1z" fill="#9AABBE"/>
<path transform="translate(374,740)" d="m0 0 4 1 3 3-5 1-1 18-3 2h-13l-1-7 3-2 1-4h10v-9h2z" fill="#2D333D"/>
<path transform="translate(1712,553)" d="m0 0 5 1v10h3v2h-152v-1l143-1-1-6z" fill="#868E99"/>
<path transform="translate(441,729)" d="m0 0h8l2 10v11l-5 2h-5l-1-1v-16z" fill="#D8ECF6"/>
<path transform="translate(607,1083)" d="m0 0 14 1 1 1 1 14 3 14h-7l-1 4h-14v17l3 1v4l-4-2-1-3v-17l1-2h13l1-8 1-1 1-17-1-3-11-2z" fill="#3F4249"/>
<path transform="translate(601,515)" d="m0 0h1l1 22h2l1 2v7l-2 10-1 125h-1z" fill="#8D96A0"/>
<path transform="translate(289,746)" d="m0 0h11l1 1v14l-1 2h-12v-6h2l-2-4v-6z" fill="#666A74"/>
<path transform="translate(772,554)" d="m0 0 3 1v2h2l1 5 6-1 2-4 1 4 6 1-4 1 9 1v1h-50l-7-1 3-3 3-4 4 4h8l1-2 4 2h8z" fill="#3D424C"/>
<path transform="translate(1696,518)" d="m0 0h75v1l-16 1h-35v4h10l19 1 7-1 15 2v1h-35l-23-1 2-6h-21z" fill="#8E98A8"/>
<path transform="translate(1513,1239)" d="m0 0h8l3 4v8l-1 3h-2l-1 6-1 1h-9l-2-1v-3l6-3v-10z" fill="#EBF1F4"/>
<path transform="translate(631,759)" d="m0 0h21l2 1v15h-2l-1 3-5-1-31-1-6-2v-1h42l-1-11h-8l-11-2z" fill="#282B30"/>
<path transform="translate(706,955)" d="m0 0 5 2v2l-8 6-5 8v7l2 8v4h2l1 3v8h-2l-6-15-1-3v-13l3-8 7-6z" fill="#8B95A4"/>
<path transform="translate(1899,980)" d="m0 0 5 1 5 4 1 3v11l-1 1h-9l-1-1-1-18z" fill="#8E99A9"/>
<path transform="translate(1505,555)" d="m0 0h3l2 3v4h7l1-5 3-1 1 3h2v3h6l1-6 4 1v4l7 2-3 2h-46l4-2 8-1z" fill="#2E4569"/>
<path transform="translate(1657,552)" d="m0 0 6 1 3 1 1 7 3-8 7-1 1 1-1 10h-20l-1-1v-9z" fill="#686E79"/>
<path transform="translate(658,449)" d="m0 0h14l1 2v7l-2 2-9 1v-6l-1-1h-6-3l-9 8-5 6-3-1 6-7 11-9z" fill="#5E616D"/>
<path transform="translate(420,657)" d="m0 0h11v15l-2 1h-9l-1-1v-14z" fill="#8B94A3"/>
<path transform="translate(1652,555)" d="m0 0 1 3h2l1-3 1 7h12l8 1v-5l1 4h3v-6h1l1 5 8 1 1-6 3-1 1 6 7 1v1l-8 2h-42l-4-2 2-2z" fill="#414550"/>
<path transform="translate(1898,1081)" d="m0 0h1l1 14 1 6-6 1-7-1 1-17 9 1z" fill="#5B5E69"/>
<path transform="translate(1398,554)" d="m0 0 3 1 1 7h7l3-5 3 1 1 4h6l1-7h5v7l3 1-2 2h-39l1-2 5-1 1-7z" fill="#21457D"/>
<path transform="translate(1591,552)" d="m0 0 5 1 4 2 4-3 7 1v8l-1 1h-12l-1 1h-6l-1-1v-9z" fill="#757C89"/>
<path transform="translate(234,660)" d="m0 0h42l-1 3-4 2h-17l-3-2h-14l-2 5-4 29h-1v-10l3-26z" fill="#95A3B4"/>
<path transform="translate(1534,520)" d="m0 0h35l1 4-7 2h-27l-2-3z" fill="#9AABBE"/>
<path transform="translate(1527,519)" d="m0 0 6 1-3 6h-10l-10-1-10 1-2-6z" fill="#9AABBE"/>
<path transform="translate(650,986)" d="m0 0h6l2 3v13l-1 1h-7l-3-1-1-4 1-10z" fill="#868E99"/>
<path transform="translate(657,1054)" d="m0 0 6 1 3 3 1 5-3 5-7 1-5-4v-7l2-3z" fill="#585B66"/>
<path transform="translate(1316,554)" d="m0 0h4l1 9h8l1-8h3l2 7h7l1-5 5 1v6l-1 1h-31l-2-2 1-1z" fill="#2A4C7F"/>
<path transform="translate(1607,528)" d="m0 0 60 1-1 2h-100l1-2z" fill="#1D4C90"/>
<path transform="translate(688,519)" d="m0 0h33l-1 5-3 1h-22l-7-2z" fill="#9AABBE"/>
<path transform="translate(448,657)" d="m0 0h9l1 1v14l-10 1-2-1 1-14z" fill="#8B95A3"/>
<path transform="translate(434,657)" d="m0 0h10l1 4-1 11h-12l1-14z" fill="#8A93A1"/>
<path transform="translate(1202,539)" d="m0 0h1l2 13 3 4v2l5 1h7l7-3 3-2 3-6 1-6h1v13l-4 1-1 3-4 2-2 6-1-4-6 2-10-2-5-12z" fill="#3B3E45"/>
<path transform="translate(835,519)" d="m0 0h33l1 2-2 4h-20l-11-1-2-4z" fill="#9AABBE"/>
<path transform="translate(612,1010)" d="m0 0 7 1 3 4-1 7-4 3-7-1-2-3v-7z" fill="#585B66"/>
<path transform="translate(612,1054)" d="m0 0 7 1 3 3v8l-2 2h-9l-3-2v-9h2v-2z" fill="#585B66"/>
<path transform="translate(895,554)" d="m0 0h5l1 8 6 1 17 1v1h-41l-4-2 2-8h4l1 6 8 1v-7z" fill="#3D4A62"/>
<path transform="translate(937,471)" d="m0 0h67l8 1v1h-10l-12 1h-41l-12-2z" fill="#9AABBE"/>
<path transform="translate(663,759)" d="m0 0h14l1 1v9l-4 13-1 2h-2v-16l-8-7z" fill="#1A1C20"/>
<path transform="translate(264,747)" d="m0 0h1l1 5h9l2-2-1 4-3 1 4 2v7l-4 1h-7l-4-2 1-9z" fill="#33363C"/>
<path transform="translate(1723,650)" d="m0 0h1l2 16 3 7 2 6v13l-4-1-5-5 1-2z" fill="#909BAB"/>
<path transform="translate(369,657)" d="m0 0h31l3 2-1 12-3 34h-1v-45l-29-1z" fill="#585B66"/>
<path transform="translate(726,519)" d="m0 0h31l1 4-7 2h-15l-10-1-1-4z" fill="#9AABBE"/>
<path transform="translate(1887,1101)" d="m0 0h14l2 6v4h-4l-15 1z" fill="#41454C"/>
<path transform="translate(981,522)" d="m0 0 8 1h14l6 1 2-1 2 5h-43v-1l7-1z" fill="#8A93A1"/>
<path transform="translate(1573,520)" d="m0 0h33l1 2-3 3h-31z" fill="#9AABBE"/>
<path transform="translate(1772,448)" d="m0 0 13 2 4 2-3 1-4 2-2 5-4 1-7-1-1-1v-8l1-2z" fill="#626671"/>
<path transform="translate(1464,1344)" d="m0 0 1 4-6 20-6 12-6 4h-4l2-4 5-9 9-23 1 4-5 15-1 1v5l6-15z" fill="#D8ECF6"/>
<path transform="translate(764,958)" d="m0 0h10l27 2 2 1 24 2v1l-8 1v1h-9l-38-5-8-2z" fill="#D1E5EF"/>
<path transform="translate(430,709)" d="m0 0h10v13l-1 1h-11l1-13z" fill="#9FAFC0"/>
<path transform="translate(873,519)" d="m0 0h33l1 3-2 3-5-1h-26l-2-2z" fill="#98A8BA"/>
<path transform="translate(1573,554)" d="m0 0 4 1v7l5 1-1 2-18 1-12-1v-2l8-1v-5l5-1v6h8v-7z" fill="#314769"/>
<path transform="translate(1053,522)" d="m0 0h5l2 2 5-1h8 3 8v3l4 1v1h-17l-20-1zm38 0 3 1-1 3-3-1z" fill="#8D96A6"/>
<path transform="translate(720,946)" d="m0 0h10l5 2 6 2 4 1v2h10l3 2-14-1-23-2-10 1 1-3z" fill="#454851"/>
<path transform="translate(1280,465)" d="m0 0 28 2-4 2-8 1-9 1-2 6h11v1h-16l-1-4z" fill="#585B66"/>
<path transform="translate(1940,1104)" d="m0 0 4 1 1 5h3l2 4-13 2h-6l-1-4h-26v-1l32-1z" fill="#464951"/>
<path transform="translate(705,967)" d="m0 0 3 1v8l-3 12-1 2h-2v-3h-2l-1-4v-11h2v-4z" fill="#181A1E"/>
<path transform="translate(665,947)" d="m0 0h2l-4 21-2 33-2 1-1-16v-11l3-16 2-11z" fill="#343E4E"/>
<path transform="translate(428,729)" d="m0 0h10l-1 14-1 1-9-1v-13z" fill="#D8ECF6"/>
<path transform="translate(457,705)" d="m0 0h1v14l-2 7h-23l-18-1v-2l27-1 3 1 8-1 2-6 1-2z" fill="#35383F"/>
<path transform="translate(417,710)" d="m0 0h10l-1 13h-12v-5z" fill="#858D98"/>
<path transform="translate(853,553)" d="m0 0 5 1 1 7h7l1-3h4l1 4h8l3 3h-19l-8-1-9-1v-1h5v-8z" fill="#384459"/>
<path transform="translate(1894,1009)" d="m0 0h7l4 4-1 7-3 2-7-1-2-2v-8z" fill="#5C606A"/>
<path transform="translate(623,802)" d="m0 0 9 1 6 4v2l-11 1-14-2v-5z" fill="#282B30"/>
<path transform="translate(1124,554)" d="m0 0h5l1 7 8 1v-8l5 1v7h6v1h-5v2h-18l-3-2 1-3z" fill="#334D76"/>
<path transform="translate(1423,522)" d="m0 0 2 1v2h8l1 1 18 1 5 1v1h-51l-24-1v-1l27-1 1-1h10z" fill="#858C97"/>
<path transform="translate(1452,555)" d="m0 0h3l2 7h7v2h6v1l-28 1-13-1 2-2 6-1 3-5h2l1 5 7 1v-6z" fill="#2F4D7B"/>
<path transform="translate(856,1215)" d="m0 0h2v20l-2 14-6 18-4 2 1-5 3-5 3-14 1-7h2l-1-7v-15z" fill="#1E3E70"/>
<path transform="translate(428,727)" d="m0 0h27l1 1v21l-2 5-1 8-3 3h-9l-4-2v-6h1v5l11-1 1-5-3-1 5-2 2-13v-11l-26-1z" fill="#2C2F34"/>
<path transform="translate(1239,603)" d="m0 0h6v25h-13v-1h12l-4-8-5-3v-4l5-2v-5z" fill="#9AABBE"/>
<path transform="translate(1414,528)" d="m0 0h72l1 2-4 1h-56v-2h-13z" fill="#35527E"/>
<path transform="translate(685,1074)" d="m0 0h1l1 25 1 5v8l20 1v-7l7 6 1 5-5 1-1-4h-25l-2-2 1-3z" fill="#4C5059"/>
<path transform="translate(264,738)" d="m0 0 3 1v6l-2 2-1 7-2-4 2-6-6 3v7l-3 1-1 7h-2l-1-7 1-2v-9h3v-2l7-2z" fill="#2F3238"/>
<path transform="translate(1057,553)" d="m0 0 5 2v8l7-1 2-4 5-1 2 6 1 2h-32l2-2 8-1z" fill="#2E476F"/>
<path transform="translate(1308,554)" d="m0 0h7v9l1 2h-4v2h-32l1-2 21-1 6 1z" fill="#596376"/>
<path transform="translate(1279,553)" d="m0 0 2 2v7h7l2-3 3-3 1 6h7l2-7h4v7h2l-1 4-10-1-17 1-2 1z" fill="#1E4278"/>
<path transform="translate(419,656)" d="m0 0h39v1l-14 1h-10l-1 16h-15l1 7-2 19-2-1 2-29 1-6h1l1 8h11v-15l-12 1z" fill="#4B4F5B"/>
<path transform="translate(1841,482)" d="m0 0h1l1 12 9 1 1 1v17h-1l-1-8h-9l-1-3z" fill="#8C939E"/>
<path transform="translate(1886,981)" d="m0 0 5 3 3 7v8l-2 2h-6l-1-8v-11z" fill="#16191D"/>
<path transform="translate(1105,927)" d="m0 0h1l1 12h8l1 1v13l-2 1-1-4-3-1 1 3-2 1-1-6-1 8-2-2-1-7z" fill="#585B66"/>
<path transform="translate(1092,1062)" d="m0 0h10l-2 1 1 9 1 5h-11l1-5-1-7z" fill="#5D616B"/>
<path transform="translate(443,704)" d="m0 0 2 2h7l5-1v9l-4 2h-10l-1-4z" fill="#787C85"/>
<path transform="translate(1632,519)" d="m0 0h9l1 4-1 1h-30l-1-4z" fill="#9AABBE"/>
<path transform="translate(1153,975)" d="m0 0h9l4 5-1 4h-3v2h-5l-7-3 1-6z" fill="#919CA9"/>
<path transform="translate(1894,1053)" d="m0 0h6l4 3v7l-3 2h-6l-4-4v-5z" fill="#585B66"/>
<path transform="translate(758,1241)" d="m0 0 5 1 3 4v5l-4 4h-5l-3-3v-7z" fill="#666A74"/>
<path transform="translate(416,729)" d="m0 0h8l-1 14-2 1h-7l1-14z" fill="#D8ECF6"/>
<path transform="translate(1129,519)" d="m0 0h35l-1 4h-13l-2-1-2 1-14 1-3-3z" fill="#9AABBE"/>
<path transform="translate(1850,1113)" d="m0 0h20l-3 2 2 4-3 1h-17l-1-2z" fill="#16181C"/>
<path transform="translate(1114,969)" d="m0 0 35 2 6 2v1h-40v2h-3v-5z" fill="#17191D"/>
<path transform="translate(1226,581)" d="m0 0 5 2 1 4h2l1 11-2 2h-8z" fill="#D8ECF6"/>
<path transform="translate(1467,1336)" d="m0 0 2 3-9 30-6 12-5 4-5 2-4-1 1-4 6-8 5-11 1 3-4 9-6 9 8-3 5-8 7-21z" fill="#8E99A8"/>
<path transform="translate(1882,948)" d="m0 0 4 1 2 5-5-3 2 16 7 10 5 10 1 12 1 1h11l2-1-1 3-4 1h-7l-4-3-3-15-6-11-4-5-1-3z" fill="#3A3E45"/>
<path transform="translate(1740,467)" d="m0 0 16 2 13 2 4 2v2l-7 1-12-2-13-4z" fill="#D8ECF6"/>
<path transform="translate(1795,1356)" d="m0 0 5 1 2 3v6l-2 3-7-1-4-5 2-5z" fill="#585B66"/>
<path transform="translate(1221,577)" d="m0 0h1v56h2v-6l21 1-1 3-10 1-9-3v7l-4-1z" fill="#AAB8C4"/>
<path transform="translate(1705,519)" d="m0 0h8l2 1-1 5-26-1-3-1 1-3z" fill="#9AABBE"/>
<path transform="translate(1227,599)" d="m0 0 18 1v3h-20l-1 30h-2v-28l3-4z" fill="#7B828E"/>
<path transform="translate(658,772)" d="m0 0 7 2-1 11-2 11-3 2v-9l-3-5 2-9z" fill="#1D4C90"/>
<path transform="translate(316,735)" d="m0 0h16l1 2h-2l1 5 7 2-4 5-1-4-5-3-1-1-1 20h-1l-1-8v-7l-4-2h2l1-5-7-2z" fill="#31343A"/>
<path transform="translate(446,674)" d="m0 0h11l2 1v12l-1 18h-1v-22l-9-1h-2z" fill="#767B85"/>
<path transform="translate(1653,519)" d="m0 0 25 1-1 4h-26l-4-1v-3z" fill="#9AABBE"/>
<path transform="translate(1792,1299)" d="m0 0h9l1 1v8l-1 2-5 1-5-3-1-7z" fill="#585B66"/>
<path transform="translate(1956,990)" d="m0 0h1v81l-2 2-1-5v-10l1-12z" fill="#42454D"/>
<path transform="translate(1794,1240)" d="m0 0h6l2 2v9l-1 1h-6l-4-3v-6z" fill="#585B66"/>
<path transform="translate(756,1301)" d="m0 0h8l2 3-1 6-3 3-6-1-2-4 1-6z" fill="#5A5D67"/>
<path transform="translate(675,944)" d="m0 0h1v15l-1 10-2-1-1-14-2-3-3 7-4 21h-1v-11l3-16 4-3 5 1z" fill="#282B30"/>
<path transform="translate(909,554)" d="m0 0 4 1 1 7h8l-1-8h5l1 1 1 7 1 2h-22l1-9z" fill="#2B3E5A"/>
<path transform="translate(656,1053)" d="m0 0h6l5 3v2l6 1 1-2v23h-1l-1-12-3-1-4 3h-8v-1l7-2 2-6-1-5-8-1-3-1z" fill="#3F424A"/>
<path transform="translate(1877,939)" d="m0 0 3 4v21l1 5 1 23-2 7h-7l4-2 2-5v-14l-2-14v-8l1-11z" fill="#282B30"/>
<path transform="translate(1279,518)" d="m0 0 2 1v7l18 1 71 1v1h-74l-16-1-1-1z" fill="#585B66"/>
<path transform="translate(612,968)" d="m0 0 7 1 2 4-2 5-4 2-5-1-1-2v-7z" fill="#89929F"/>
<path transform="translate(1719,556)" d="m0 0 9 1 4 4v4l-2 1h-10v-2h-3l1-7z" fill="#1C3F74"/>
<path transform="translate(1940,1053)" d="m0 0 6 1 2 4-1 5-6 2-5-3v-7z" fill="#585B66"/>
<path transform="translate(658,1011)" d="m0 0 5 2 1 1v6l-2 3-7-1-3-4 1-4z" fill="#80858F"/>
<path transform="translate(1939,1010)" d="m0 0h7l2 2v7l-5 3-6-4-1-5z" fill="#5A5D68"/>
<path transform="translate(1115,974)" d="m0 0h8v10l-1 1-10-1v-8h3z" fill="#3D4048"/>
<path transform="translate(441,729)" d="m0 0h1v9l-1 5h10v7l-5 2h-5l-1-1v-16z" fill="#96A6B8"/>
<path transform="translate(1076,959)" d="m0 0h6l-1 31h-1l-1-7h-1l-2-18-1-5z" fill="#1D1F23"/>
<path transform="translate(1909,1113)" d="m0 0h18l-1 4-6 1-7 1-15-1 2-2 5-1z" fill="#16181C"/>
<path transform="translate(1740,708)" d="m0 0h2l7 9 5 9 4 5 12 17 4 6-4-2-10-13-8-11-9-15z" fill="#3B3E45"/>
<path transform="translate(1235,562)" d="m0 0 8 1 3 5-2 2v-2l-12 1-7-2 1-4z" fill="#81868E"/>
<path transform="translate(288,738)" d="m0 0h2l1 5 7 1v1l-8 1-2 1-2-3-6 2-1 7-1 8-2-4-5-2v-1l5-1v-5l-1-4 10-2v-2z" fill="#32353B"/>
<path transform="translate(1809,773)" d="m0 0h17l-1 2-21 1v11l4 6 5 6 3 3 2 6-2-1v-2h-2l-7-8-3-5-3-6 1-12z" fill="#8D97A4"/>
<path transform="translate(799,554)" d="m0 0h4l1 7 8 1 1 3h-15l-17-1 4-2h14z" fill="#2B456D"/>
<path transform="translate(686,1044)" d="m0 0h1l1 36 2-1v12l-2 9-2-1z" fill="#282B30"/>
<path transform="translate(243,737)" d="m0 0h17l1 3-1 2-5 1h-12l-1-3z" fill="#81868E"/>
<path transform="translate(1841,502)" d="m0 0 1 3 7-1h3v10l-11-1z" fill="#5B5E69"/>
<path transform="translate(1793,1355)" d="m0 0h7l4 4 1 7-2 4-8 2-5-3-2-3v-7zm2 1-5 3-1 4 4 5 7 1 2-3v-6l-4-4z" fill="#3B3E45"/>
<path transform="translate(1712,553)" d="m0 0 5 1v10h3v2h-25v-1l16-1-1-6z" fill="#516482"/>
<path transform="translate(1939,967)" d="m0 0h8l1 1v7l-2 2h-6l-3-3v-5z" fill="#5C5F6A"/>
<path transform="translate(426,699)" d="m0 0h2v8l-1 1h-10l-1-1v-7z" fill="#99AABD"/>
<path transform="translate(1804,775)" d="m0 0h21l-1 2-10 3-8 1-2 6h-1v-11z" fill="#D8ECF6"/>
<path transform="translate(670,519)" d="m0 0h14l1 3-5 4h-10l-1-6z" fill="#9AABBE"/>
<path transform="translate(871,969)" d="m0 0h19l21 2 17 2v1h-11l-28-3v2l-9-1v-2h-9z" fill="#C1CED8"/>
<path transform="translate(455,714)" d="m0 0 1 2-3 6-10 2-3-2v-4h2l1-3h10z" fill="#585B66"/>
<path transform="translate(431,699)" d="m0 0 10 1v8h-11l-1-2z" fill="#98A8BA"/>
<path transform="translate(1819,1418)" d="m0 0h7v2l-5 3-6 3h-5l-4-6v-1h8z" fill="#595C67"/>
<path transform="translate(612,808)" d="m0 0 15 1 4 1v2l-4 2h-10l-6 1z" fill="#3B3E45"/>
<path transform="translate(654,760)" d="m0 0h7l2 4-2 6-7 2-1-9z" fill="#3A3D44"/>
<path transform="translate(355,737)" d="m0 0h16l1 5-2 1h-10l-5-3z" fill="#81868E"/>
<path transform="translate(758,1359)" d="m0 0 6 1 1 2v6l-1 1h-7l-3-4 1-4z" fill="#585B66"/>
<path transform="translate(1684,552)" d="m0 0h7l1 1-1 9h-8l-1-1v-6z" fill="#8D98A5"/>
<path transform="translate(953,553)" d="m0 0h10l-1 9-1 1h-7l-1-1z" fill="#F1F6F8"/>
<path transform="translate(1458,523)" d="m0 0h3v2h9l3-1 4 2v1l-25 1-18-1 2-3 20 1z" fill="#8E98A8"/>
<path transform="translate(682,469)" d="m0 0h21v1l-17 2-9 3h-8l1-3 3-2z" fill="#D8ECF6"/>
<path transform="translate(713,957)" d="m0 0h19l34 4v1h-19l-16-2v-2l-20 1z" fill="#4E515A"/>
<path transform="translate(1056,946)" d="m0 0 4 1 1 13h-7l-1-12z" fill="#A4B5C5"/>
<path transform="translate(1469,553)" d="m0 0h9v9l-1 1h-7l-1-1z" fill="#DFE7EC"/>
<path transform="translate(1021,553)" d="m0 0h9v9l-1 1h-7l-1-1z" fill="#E1E9EE"/>
<path transform="translate(940,553)" d="m0 0h9v9l-1 1h-7l-1-1z" fill="#E1E8ED"/>
<path transform="translate(362,757)" d="m0 0h10l1 1v5l-3 1h-8l-3-2v-4z" fill="#828996"/>
<path transform="translate(1321,553)" d="m0 0h8v10h-8l-1-2v-7z" fill="#DFE7EC"/>
<path transform="translate(313,746)" d="m0 0h11l1 1v5l-1 1h-11l-1-5z" fill="#8F9BAA"/>
<path transform="translate(1361,553)" d="m0 0h8l1 2v7l-1 1h-7l-1-1z" fill="#C3D5E1"/>
<path transform="translate(599,492)" d="m0 0h1v10l-2 1h-8l-1 8h-1v-10l1-5 10-1z" fill="#ADBCCA"/>
<path transform="translate(315,756)" d="m0 0 9 1 1 3-2 3-10 1-2-1v-5z" fill="#7D848E"/>
<path transform="translate(913,553)" d="m0 0h8l1 2v7l-2 1h-6l-1-1z" fill="#E8EEF1"/>
<path transform="translate(1078,939)" d="m0 0h5l1 2-1 15-2-1v-2h-2l-2-3v-10z" fill="#646771"/>
<path transform="translate(236,754)" d="m0 0 2 1v12l-4 1-3-1v-2h-2l1-5h2l1-5z" fill="#16181C"/>
<path transform="translate(449,729)" d="m0 0h4v20l-2 4h-12v-6l2 4 9-1v-11l-2-8z" fill="#8C95A3"/>
<path transform="translate(457,657)" d="m0 0h2v16l-2 2-11-1-2-1-1 2-7-1v-1l7-1 1-11 1-3h2v10l-1 4h12z" fill="#585B66"/>
<path transform="translate(833,552)" d="m0 0 6 1 1 1v8h-9v-9z" fill="#CFDDE6"/>
<path transform="translate(1166,519)" d="m0 0h23l-1 5-3-1h-16z" fill="#9AABBE"/>
<path transform="translate(218,745)" d="m0 0h7l3 2-1 5-1 1h-8l-2-2 1-5z" fill="#878E9A"/>
<path transform="translate(1586,555)" d="m0 0h2v5l3 2h6l5-1 7 2-1 2h-27l1-2 3-1z" fill="#39455A"/>
<path transform="translate(732,554)" d="m0 0 4 1v7h9l3 3h-21l1-3 3-1z" fill="#264370"/>
<path transform="translate(611,1012)" d="m0 0h7l3 4-2 4-7-2 2 5-4-2-1-1v-6z" fill="#81878F"/>
<path transform="translate(338,746)" d="m0 0h9l2 1-1 5-1 1h-10l-1-5z" fill="#8F9AA9"/>
<path transform="translate(447,681)" d="m0 0h7l4 2-2 5-1 1h-9v-7z" fill="#98A8BB"/>
<path transform="translate(1128,522)" d="m0 0 2 2-2 3h40l21 1v1h-59l-4-2z" fill="#81868E"/>
<path transform="translate(1810,755)" d="m0 0 2 1h14l3 2-5 1h-20l-6 1h-10v-2l19-2z" fill="#282B30"/>
<path transform="translate(1505,555)" d="m0 0h3l2 3v4l7 2v1h-24l4-2 8-1z" fill="#334F79"/>
<path transform="translate(1089,553)" d="m0 0h9v9h-9z" fill="#EBF0F4"/>
<path transform="translate(1715,517)" d="m0 0h57l2 2v7l-3 1v-8h-56z" fill="#828790"/>
<path transform="translate(1102,553)" d="m0 0h9v8l-1 1h-8z" fill="#FBFCFC"/>
<path transform="translate(651,989)" d="m0 0h5v11l-1 1h-5l-1-1v-9z" fill="#9AABBE"/>
<path transform="translate(363,746)" d="m0 0h9l1 1v5l-1 1h-10l-1-1v-5z" fill="#8D98A6"/>
<path transform="translate(1442,553)" d="m0 0h8v10h-7l-1-1z" fill="#DDE5EB"/>
<path transform="translate(994,553)" d="m0 0h8v10h-7l-1-1z" fill="#DBE3E8"/>
<path transform="translate(1293,554)" d="m0 0h9v8l-1 1h-7l-1-1z" fill="#DFE5E9"/>
<path transform="translate(655,1083)" d="m0 0 9 2 1-2 1 17-4 4-2-17-5-2z" fill="#3C4047"/>
<path transform="translate(1456,553)" d="m0 0h8v9l-1 1h-6l-1-1z" fill="#E1E9EE"/>
<path transform="translate(1062,553)" d="m0 0h7l1 1v8l-1 1h-7z" fill="#E2EAEF"/>
<path transform="translate(900,553)" d="m0 0h8v9l-1 1h-6l-1-1z" fill="#E1E8ED"/>
<path transform="translate(1281,554)" d="m0 0h8v8l-1 1h-7l-1-1v-7z" fill="#DEE4EA"/>
<path transform="translate(1049,553)" d="m0 0h8v9l-2 1h-6z" fill="#EAF0F4"/>
<path transform="translate(1035,553)" d="m0 0h8v9l-1 1h-6l-1-1z" fill="#BDCEDB"/>
<path transform="translate(650,947)" d="m0 0 3 1-1 18-3 15-3 8h-1l1-9 3-12 1-8z" fill="#3A3E45"/>
<path transform="translate(337,757)" d="m0 0h11l1 4-2 2h-11l-1-5z" fill="#9EA9B3"/>
<path transform="translate(389,746)" d="m0 0h7l1 1v5l-1 1h-11v-5z" fill="#9FACBA"/>
<path transform="translate(1497,553)" d="m0 0h7l1 1v8l-2 1h-6z" fill="#E6ECF0"/>
<path transform="translate(1483,553)" d="m0 0h7l1 1v8l-1 1h-6l-1-1z" fill="#F6FAFB"/>
<path transform="translate(1402,554)" d="m0 0h7l1 1v7l-1 1h-7l-1-1v-7z" fill="#ECF3F6"/>
<path transform="translate(859,553)" d="m0 0h7l1 1v7l-1 1h-7l-1-1v-7z" fill="#F5F8F9"/>
<path transform="translate(1008,553)" d="m0 0h8v9l-1 1h-6l-1-2z" fill="#DEE5EA"/>
<path transform="translate(734,1466)" d="m0 0h24v1l-15 2h-29l3-2h9z" fill="#60646F"/>
<path transform="translate(379,737)" d="m0 0h11l4 3v3h-11l-4-3z" fill="#848B95"/>
<path transform="translate(654,1086)" d="m0 0 2 4h3l1 6-2 5-3 1-2 7h-1l1-12z" fill="#858C96"/>
<path transform="translate(1839,850)" d="m0 0 3 1 4 7-1 2-6 1-3-3-1-5z" fill="#16191D"/>
<path transform="translate(1939,1052)" d="m0 0h6l4 3 1 7-4 5-8-1-4-4 1-7zm1 1-4 2v7l5 3 6-2 1-5-2-4z" fill="#3B3E45"/>
<path transform="translate(1899,980)" d="m0 0 5 1 5 4-1 3-1-1h-5l-1 1v10l8 1v1h-9l-1-1-1-18z" fill="#81868E"/>
<path transform="translate(655,771)" d="m0 0h3l1 4-2 9-1 3-3-1-1-2 1-9z" fill="#585B66"/>
<path transform="translate(267,746)" d="m0 0h8l2 4-2 3h-9l-1-1v-5z" fill="#909CAC"/>
<path transform="translate(242,746)" d="m0 0h10v6l-1 1h-9l-1-1v-5z" fill="#92A0B0"/>
<path transform="translate(1389,554)" d="m0 0h8v8l-1 1h-7l-1-8z" fill="#F0F6F8"/>
<path transform="translate(1349,553)" d="m0 0h6l1 2v7l-7 1-1-1v-8z" fill="#E3ECF1"/>
<path transform="translate(805,552)" d="m0 0 7 1v9h-8v-9z" fill="#FDFDFC"/>
<path transform="translate(602,1052)" d="m0 0h1l1 5 6-2v2h-2v9l-1-2h-3v19l-2-1z" fill="#3E4148"/>
<path transform="translate(202,745)" d="m0 0 2 3v12l2 3v3l-5 1-2-2 1-8z" fill="#16181C"/>
<path transform="translate(430,673)" d="m0 0h2v17l-2 16h-2l1-26z" fill="#565964"/>
<path transform="translate(1226,633)" d="m0 0h5l2 3v7l-5 3h-2z" fill="#D8ECF6"/>
<path transform="translate(300,744)" d="m0 0h5l-2 9-1 10-1 1h-14v-17h1l1 6 2 2-1 2h-2v6h12v-9l1-8z" fill="#303339"/>
<path transform="translate(430,745)" d="m0 0h6l1 1v6h-11v-6z" fill="#D8ECF6"/>
<path transform="translate(1130,553)" d="m0 0h8v9h-8z" fill="#E8EDF1"/>
<path transform="translate(981,554)" d="m0 0h8v9h-8z" fill="#E9F0F3"/>
<path transform="translate(1157,553)" d="m0 0h8v9h-8z" fill="#E0E6EB"/>
<path transform="translate(886,553)" d="m0 0h8v9h-8z" fill="#CBDBE6"/>
<path transform="translate(694,1064)" d="m0 0 2 1v26l2 1-4-1v-17l-3-1 1-6h2z" fill="#565B64"/>
<path transform="translate(697,980)" d="m0 0h1l2 8v4h2l1 3v8h-2l-6-15v-2h2z" fill="#838A95"/>
<path transform="translate(420,681)" d="m0 0h9l1 4-2 3h-9v-6z" fill="#97A7B9"/>
<path transform="translate(1245,637)" d="m0 0h5l-3 8-1 1-2 17h-1l-2-12z" fill="#6C707A"/>
<path transform="translate(1510,554)" d="m0 0h7l1 1v7l-1 1-7-1-1-7z" fill="#EFF6F9"/>
<path transform="translate(968,553)" d="m0 0h8l-1 10h-7z" fill="#FEFEFD"/>
<path transform="translate(927,553)" d="m0 0h7l1 9-1 1h-6l-1-1z" fill="#E0E6EC"/>
<path transform="translate(758,1357)" d="m0 0 6 1 3 4v6l-3 3-5 1-5-3-1-2v-6zm0 2-4 3 1 5 2 2h7l1-1v-6l-3-3z" fill="#3B3E45"/>
<path transform="translate(656,1010)" d="m0 0h6l4 4v7l-3 4-9-1-3-5 1-3 3 5 7 1 1-2v-6l-5-2-5 2 1-3z" fill="#585B66"/>
<path transform="translate(241,757)" d="m0 0h11v5l-2 1h-9l-2-4z" fill="#878F9B"/>
<path transform="translate(1429,554)" d="m0 0h7l1 1v8h-7l-1-1z" fill="#EEF5F8"/>
<path transform="translate(1415,554)" d="m0 0h8v8l-1 1h-6l-1-1z" fill="#E1E8ED"/>
<path transform="translate(1170,553)" d="m0 0h6l2 1v8h-8z" fill="#F1F7FA"/>
<path transform="translate(266,756)" d="m0 0h6l3 2-1 5h-10v-6z" fill="#8A93A0"/>
<path transform="translate(433,690)" d="m0 0 8 1v6l-1 1h-8l-1-4z" fill="#96A5B7"/>
<path transform="translate(1382,555)" d="m0 0h6l1 8 2 1-1 1-10-1 2-1z" fill="#273E63"/>
<path transform="translate(853,553)" d="m0 0 5 1 1 7 2 2-5 1-9-1v-1h5v-8z" fill="#344662"/>
<path transform="translate(1537,554)" d="m0 0h8v8l-7 1-1-1z" fill="#F1F6F8"/>
<path transform="translate(1117,553)" d="m0 0h6l1 1v7l-1 1h-7v-8z" fill="#D7DFE6"/>
<path transform="translate(1446,637)" d="m0 0h39v1l-7 1h-20l-2 1 1 3h-9l1-3 3-1 1 1v-2l-7 1z" fill="#282B30"/>
<path transform="translate(1374,556)" d="m0 0h1l1 6 8 2-4 2-18-1 4-2 3-1 1-4z" fill="#29456F"/>
<path transform="translate(727,1420)" d="m0 0 8 1h11l6-1-2 2-9 4-8-1-6-4z" fill="#3D4048"/>
<path transform="translate(414,745)" d="m0 0h8l1 1v5l-1 1h-9v-6z" fill="#D8ECF6"/>
<path transform="translate(1335,554)" d="m0 0h6l1 1v7l-7 1-1-1v-7z" fill="#DFEDF4"/>
<path transform="translate(1124,554)" d="m0 0h5l1 7 6 2-2 2h-8l-3-2 1-3z" fill="#1F4070"/>
<path transform="translate(1794,1239)" d="m0 0h7l3 5v7l-3 3-4 1-6-3-2-5 2-6 1 2v6l3 2h6v-9l-7-2z" fill="#3B3E45"/>
<path transform="translate(1081,1048)" d="m0 0 3 2 2-2v3h5v2h-3v2h-2v2l-2 1 4 3 4 2-9-1-1-1z" fill="#585B66"/>
<path transform="translate(1943,1008)" d="m0 0 6 2 1 2v6l-5 5-6-1-4-3v-7l3-3zm-4 2-3 3 1 5 6 4 5-3v-7l-2-2z" fill="#3B3E45"/>
<path transform="translate(1227,654)" d="m0 0h6v3l2 1-1 3-3 2v5l-3-1-2-11z" fill="#A7B5C3"/>
<path transform="translate(1524,553)" d="m0 0h7v9l-4 1-3-1z" fill="#E2E9EE"/>
<path transform="translate(766,553)" d="m0 0 5 1v4h2l-1 4h-8v-8z" fill="#D2E3EC"/>
<path transform="translate(1279,553)" d="m0 0 2 2v7h7l2-3 3-3 1 9-13 1-2 1z" fill="#324461"/>
<path transform="translate(814,554)" d="m0 0h4v8h7l-2 2h-12l2-9z" fill="#213E6B"/>
<path transform="translate(1894,1052)" d="m0 0h7l5 4v7l-4 4h-7l-5-5v-6h1l2 7 2 1h6l2-1v-7l-3-2-6-1z" fill="#3B3E45"/>
<path transform="translate(1104,1051)" d="m0 0h6l-1 10-1 1h-6l1-7-1-3z" fill="#5B5E68"/>
<path transform="translate(336,756)" d="m0 0h14v7l-1 2-12 1-3-1v-6l2 3h11l1-4h-13z" fill="#43464F"/>
<path transform="translate(1693,555)" d="m0 0h2l1 6 7 1v1l-8 2h-5v-1l-8-1-1-1v-6h1l1 5 8 1 1-6z" fill="#474D5A"/>
<path transform="translate(872,554)" d="m0 0h8v8h-8z" fill="#F1F8FA"/>
<path transform="translate(292,738)" d="m0 0h12v4l-2 1h-10l-1-4z" fill="#88919D"/>
<path transform="translate(1550,554)" d="m0 0h7l1 1v7h-8z" fill="#EDF6FA"/>
<path transform="translate(1076,553)" d="m0 0h7v9h-7z" fill="#E3ECF1"/>
<path transform="translate(182,1273)" d="m0 0h1l1 46-2-2-1-5z" fill="#264371"/>
<path transform="translate(1115,942)" d="m0 0h1v11l-2 1-1-4-3-1 1 3-2 1-1-10z" fill="#585B66"/>
<path transform="translate(472,748)" d="m0 0h1l-1 19-2 4-3 1-2-1v-3l-3-1h7l1-10z" fill="#292D33"/>
<path transform="translate(1616,554)" d="m0 0h7v8h-8v-6z" fill="#D5E4ED"/>
<path transform="translate(252,746)" d="m0 0h1v7l-1 4-11 1v4h-3l1-5 3-2-2-3h11z" fill="#555863"/>
<path transform="translate(792,554)" d="m0 0h7v8h-7l-1-7z" fill="#EBF4F8"/>
<path transform="translate(1578,554)" d="m0 0h6l1 1v6l-1 1h-7v-7z" fill="#D3E7F1"/>
<path transform="translate(847,553)" d="m0 0h5v9h-7v-8z" fill="#EDF4F7"/>
<path transform="translate(851,968)" d="m0 0h20v2h9v2l-17-1-12-2z" fill="#EAF4F9"/>
<path transform="translate(437,734)" d="m0 0h1v19h-12v-1h11l-1-6h-10v-11h1v8h9z" fill="#96A5B7"/>
<path transform="translate(418,691)" d="m0 0h10v6h-10z" fill="#98A7BA"/>
<path transform="translate(786,557)" d="m0 0 1 4 6 1-4 1 9 1v1h-24l3-6 1 3 6-1z" fill="#40434B"/>
<path transform="translate(1376,554)" d="m0 0h5l1 1v8h-6l-1-1v-7z" fill="#ECF3F6"/>
<path transform="translate(1492,554)" d="m0 0h4l1 10-4 1h-7l4-1 1-9z" fill="#2A3F61"/>
<path transform="translate(1452,1363)" d="m0 0 1 3-4 9-6 9 8-1-4 3-6 1-1-4 6-7z" fill="#8E99A7"/>
<path transform="translate(1240,651)" d="m0 0 2 1-1 7-6 1v-2l-3-1 1-4z" fill="#929DAD"/>
<path transform="translate(746,557)" d="m0 0 5 4 7 1 4 3h-14l-7-1 3-3z" fill="#374153"/>
<path transform="translate(685,1074)" d="m0 0h1l1 25 1 5-1 8-3-1z" fill="#727783"/>
<path transform="translate(1153,979)" d="m0 0 5 1 7 3-3 1v2h-5l-7-3 1-2z" fill="#5A5D67"/>
<path transform="translate(1085,975)" d="m0 0 3 1 1 4-2 5h-4l-2 2v-10l4 2-1-3z" fill="#585B66"/>
<path transform="translate(795,965)" d="m0 0h15l20 2v1h-21l-14-2z" fill="#676D78"/>
<path transform="translate(411,757)" d="m0 0h11l-1 5h-10l-1-4z" fill="#696D76"/>
<path transform="translate(316,735)" d="m0 0h16l1 2h-2l-1 3v-2h-4l-1 5-2-1 1-3-7-2z" fill="#585B66"/>
<path transform="translate(1631,552)" d="m0 0 5 1v9h-6v-9z" fill="#CED9E1"/>
<path transform="translate(610,1056)" d="m0 0h7l2 1v2l-3 2h-4v3l3 1-4 1-2-3v-6z" fill="#81868E"/>
<path transform="translate(1165,554)" d="m0 0h4l1 7 2 3-5 1-7-1 4-2z" fill="#273B5C"/>
<path transform="translate(1308,554)" d="m0 0h7v8h-7z" fill="#EDF5F9"/>
<path transform="translate(1143,554)" d="m0 0h7v8h-7z" fill="#F2F8FA"/>
<path transform="translate(856,1215)" d="m0 0h2v20l-2 2-1-6v-15z" fill="#1D3F74"/>
<path transform="translate(1829,1098)" d="m0 0h6l1 5-2 3-5-1-1-1v-5z" fill="#16181C"/>
<path transform="translate(312,743)" d="m0 0h11l3 3v7l-1 1h-12v-1l11-1v-5l-11-1-1 2z" fill="#525560"/>
<path transform="translate(446,691)" d="m0 0 8 1 1 5-9 1z" fill="#9AABBE"/>
<path transform="translate(439,757)" d="m0 0h11l-1 5h-10z" fill="#585B66"/>
<path transform="translate(1072,557)" d="m0 0h4l2 6 1 2h-12l-1-2 3-1 2-4z" fill="#374051"/>
<path transform="translate(935,554)" d="m0 0h5l1 10h-7z" fill="#243A5B"/>
<path transform="translate(975,554)" d="m0 0h5l1 8 1 2h-8z" fill="#1F3352"/>
<path transform="translate(603,1115)" d="m0 0 2 1-1 18 3 1v4l-4-2-1-3v-17z" fill="#4F525B"/>
<path transform="translate(787,754)" d="m0 0 5 2-1 4-4 4h-2l-2-6z" fill="#282B30"/>
<path transform="translate(1827,752)" d="m0 0 10 1v9h-1v-6l-10 1-3-3z" fill="#234271"/>
<path transform="translate(1704,559)" d="m0 0 4 1 3 1 1 3-1 1h-16l2-2 6-1z" fill="#224272"/>
<path transform="translate(1652,555)" d="m0 0 1 3h2l1-3 1 7 6 1-2 2h-8l-4-2 2-2z" fill="#3F4249"/>
<path transform="translate(1644,554)" d="m0 0h6l1 1v5l-1 1h-7v-6z" fill="#D8ECF6"/>
<path transform="translate(731,1425)" d="m0 0 4 4-1 4-1 1-1 13-4 1 1-2z" fill="#8B949F"/>
<path transform="translate(350,750)" d="m0 0h2v12l-2 1v-7h-14l1-2 11-1z" fill="#32353B"/>
<path transform="translate(224,738)" d="m0 0h10v4l-4 1h-8v-3h2z" fill="#8D97A5"/>
<path transform="translate(410,609)" d="m0 0 3 4-1 5-1 1h-7v-4h5l-1-4z" fill="#81868E"/>
<path transform="translate(1662,456)" d="m0 0 5 1 1 3-3 3-7-1-1-3z" fill="#3B3E45"/>
<path transform="translate(1802,1300)" d="m0 0 2 3-1 8-4 2-5-1-5-5v-6h1l1 7 7 2h3z" fill="#3B3E45"/>
<path transform="translate(1917,943)" d="m0 0 5 4 3 5-3 1-8-4v-3z" fill="#40434A"/>
<path transform="translate(644,833)" d="m0 0 1 3-3 8-4 2-2-6 6-4z" fill="#41444C"/>
<path transform="translate(290,747)" d="m0 0h10l-1 4-1 1h-9z" fill="#99AABD"/>
<path transform="translate(441,746)" d="m0 0h8l1 3-1 2-8 1-1-5z" fill="#D8ECF6"/>
<path transform="translate(839,553)" d="m0 0h5l1 1v10l-5-1z" fill="#264473"/>
<path transform="translate(373,747)" d="m0 0h1v6l-3 2 1 2-12 1 1-6h11z" fill="#4E515A"/>
<path transform="translate(425,725)" d="m0 0 29 1v1l-26 1h-13v-1h10z" fill="#1E2025"/>
<path transform="translate(1566,554)" d="m0 0 5 1v7h-7l1-7z" fill="#EBF4F8"/>
<path transform="translate(1398,554)" d="m0 0 3 1 1 8-1 1-11 1 1-2 5-1 1-7z" fill="#2B466F"/>
<path transform="translate(1773,474)" d="m0 0h6l-4 1v2h-37v-2h33z" fill="#8C96A5"/>
<path transform="translate(607,1083)" d="m0 0 14 1 1 1v12l-2-1-1-7-1-3-11-2z" fill="#454950"/>
<path transform="translate(1114,554)" d="m0 0h2l1 8 1 2h-10v-2l4-1v-5h2z" fill="#2B323F"/>
<path transform="translate(962,555)" d="m0 0h5l1 9h-7z" fill="#2B2F37"/>
<path transform="translate(1697,554)" d="m0 0h6l1 4-2 3h-6v-6z" fill="#D8ECF6"/>
<path transform="translate(1657,554)" d="m0 0h5l1 4-2 4h-5v-7z" fill="#D6EAF4"/>
<path transform="translate(737,554)" d="m0 0h6l1 1v5l-1 1h-6l-1-6z" fill="#DBEDF6"/>
<path transform="translate(656,1056)" d="m0 0h5l2 2-1 7h-2v-4l-2-1-2 4-2-4z" fill="#81868E"/>
<path transform="translate(1238,632)" d="m0 0 3 1-1 5h2v5l-4 1-2-1v-9z" fill="#D8ECF6"/>
<path transform="translate(1604,554)" d="m0 0h6v7h-7v-6z" fill="#D8ECF6"/>
<path transform="translate(778,554)" d="m0 0h6v8h-6z" fill="#DAEBF4"/>
<path transform="translate(613,972)" d="m0 0 5 1 1 5-4 2-5-1v-2h2z" fill="#81868E"/>
<path transform="translate(845,562)" d="m0 0 16 1 3 2h-30v-1l8-1 3 1z" fill="#353C49"/>
<path transform="translate(881,555)" d="m0 0h4l2 9-4 1-4-2z" fill="#222B3A"/>
<path transform="translate(727,553)" d="m0 0 4 2v6h-6l-1-7z" fill="#E6F2F8"/>
<path transform="translate(756,1301)" d="m0 0h6l2 2v4h-2l-1-2-3 1-2 3-2-1 1-6z" fill="#818894"/>
<path transform="translate(661,1104)" d="m0 0h1v14l-1 1h-8l-2-5 9 2z" fill="#3B3E45"/>
<path transform="translate(611,1087)" d="m0 0h1l1 11-2 12-1 2h-2l1-9z" fill="#888F99"/>
<path transform="translate(424,728)" d="m0 0h1v25h-12v-1l9-1 1-15z" fill="#858D99"/>
<path transform="translate(241,741)" d="m0 0h2v2h12l-3 1v2l-10 1-1 5-2-4 2-5z" fill="#585B66"/>
<path transform="translate(447,675)" d="m0 0h10v4l-2 1h-7z" fill="#97A7BA"/>
<path transform="translate(1226,657)" d="m0 0 2 3 1 7 1 5 9-3 2 1-3 3h-9l-3-5z" fill="#757A83"/>
<path transform="translate(1225,646)" d="m0 0h1v5l4-1 3 1 7-1-1 3-12 1-1 2-1-1z" fill="#858C97"/>
<path transform="translate(950,553)" d="m0 0 3 1 1 10h-6l1-10z" fill="#243856"/>
<path transform="translate(746,1437)" d="m0 0h1l2 8 17 3v1h-9l-10-1-1-1z" fill="#9BA6B0"/>
<path transform="translate(649,840)" d="m0 0h1l-1 9-3 6-1-4 1-9z" fill="#1D4C90"/>
<path transform="translate(292,758)" d="m0 0h7l-1 5h-9v-4z" fill="#B1BFCC"/>
<path transform="translate(245,738)" d="m0 0h12l1 2-5 2h-7l-2-1z" fill="#8E98A8"/>
<path transform="translate(1591,554)" d="m0 0 5 1v7h-6v-6z" fill="#D2E4EE"/>
<path transform="translate(1316,554)" d="m0 0h4v9l-1 2-5-1z" fill="#36445B"/>
<path transform="translate(1409,1373)" d="m0 0 1 4-1 3h3l-5 4-7 1 1-3 4-3h2z" fill="#D8ECF6"/>
<path transform="translate(1107,942)" d="m0 0h1l2 9v-2l4 1 1 5h-6l-2-1z" fill="#3B3E45"/>
<path transform="translate(1835,835)" d="m0 0 4 2 2 3v4h-2v2h-2l-2-4z" fill="#394250"/>
<path transform="translate(324,628)" d="m0 0h7l2 3-1 2-8 1-2-1z" fill="#8E98A8"/>
<path transform="translate(909,554)" d="m0 0 4 1 1 8h-7l1-8z" fill="#294062"/>
<path transform="translate(1685,554)" d="m0 0h5l1 4-1 3h-6v-6z" fill="#D8ECF6"/>
<path transform="translate(1098,554)" d="m0 0h4l1 10h-6z" fill="#283A55"/>
<path transform="translate(1647,464)" d="m0 0h28l-1 3h-25l-3-2z" fill="#81878F"/>
<path transform="translate(703,912)" d="m0 0h5l1 4-3 3-4-1-1-4z" fill="#3B3E45"/>
<path transform="translate(307,738)" d="m0 0h3v5l3 1v8l1 4-3 2v-14h-2l-1-2-3 1z" fill="#2F3239"/>
<path transform="translate(416,718)" d="m0 0h10v4h-11z" fill="#D8ECF6"/>
<path transform="translate(433,682)" d="m0 0 8 1v5h-8z" fill="#99AABD"/>
<path transform="translate(419,675)" d="m0 0h10v4l-7 1-3-1z" fill="#98A9BB"/>
<path transform="translate(1343,557)" d="m0 0 5 1v6l-1 1h-5l-1-2z" fill="#31435F"/>
<path transform="translate(695,1060)" d="m0 0 2 3 1 28h-2l-1-26-2 2v-5z" fill="#282B30"/>
<path transform="translate(607,1014)" d="m0 0h1l2 9 7 1 4-4 1-5h1v7l-3 4h-9l-4-4z" fill="#3B3E45"/>
<path transform="translate(271,738)" d="m0 0h9v3l-2 1h-8l-3-2z" fill="#8E98A8"/>
<path transform="translate(417,692)" d="m0 0h1v5h10v-5h1v6l-3 2h-9z" fill="#8A93A1"/>
<path transform="translate(1230,664)" d="m0 0 9 4v2l-9 2-1-4z" fill="#8E98A8"/>
<path transform="translate(1e3 554)" d="m0 0h6l1 8-5-2-2 2z" fill="#31496F"/>
<path transform="translate(1794,948)" d="m0 0 5 1v5l-4 2-3-3 1-4z" fill="#16181C"/>
<path transform="translate(819,554)" d="m0 0h5l1 1v6h-6z" fill="#F1F7F9"/>
<path transform="translate(1712,553)" d="m0 0 5 1v7h-5l-1-5z" fill="#ECF5F9"/>
<path transform="translate(658,449)" d="m0 0h14l1 2v7l-2-2-1-5h-12z" fill="#88909A"/>
<path transform="translate(1403,1221)" d="m0 0h5l1 4-3 2h-5l1-5z" fill="#EAF0F4"/>
<path transform="translate(1167,978)" d="m0 0h10v4h-9z" fill="#BDCEDA"/>
<path transform="translate(1081,961)" d="m0 0h1l-1 29h-1l-1-7h-1v-5h2v-14z" fill="#303339"/>
<path transform="translate(444,710)" d="m0 0h8l1 2-1 2-8 1-1-4z" fill="#8E98A8"/>
<path transform="translate(724,552)" d="m0 0h7l1 1v8l-6 2-3-3v-7zm3 1-3 1 1 7h6v-6z" fill="#8C96A3"/>
<path transform="translate(1614,554)" d="m0 0h1v8l-4 1 3 2h-6v-1l-5-1v-1l7-1 1-6z" fill="#4A4F5B"/>
<path transform="translate(1573,554)" d="m0 0 4 1 1 8-6-1v-7z" fill="#224376"/>
<path transform="translate(1184,554)" d="m0 0h5v8h-5z" fill="#DBEDF6"/>
<path transform="translate(1446,1332)" d="m0 0 4 1-1 4h-2v2l-3 1v-2l-3 1 2-4z" fill="#D6EAF4"/>
<path transform="translate(1871 1e3)" d="m0 0h6l3 2-1 3-8-1z" fill="#373E49"/>
<path transform="translate(1078,939)" d="m0 0h5l1 2-3 5v3h-3z" fill="#99A6B4"/>
<path transform="translate(386,758)" d="m0 0h9v4h-10z" fill="#D8ECF6"/>
<path transform="translate(313,758)" d="m0 0h8l2 3-1 1h-10z" fill="#D8ECF6"/>
<path transform="translate(420,665)" d="m0 0 5 2 3 1v3l-9 1z" fill="#98A8BA"/>
<path transform="translate(1244,630)" d="m0 0h1v6l-2 7-2-3 1-2-3 1 1-6-1-2z" fill="#98A8BA"/>
<path transform="translate(1227,599)" d="m0 0 18 1v2h-16l-4-2z" fill="#7F848E"/>
<path transform="translate(1672,554)" d="m0 0 5 1v5l-1 1h-5v-6z" fill="#D8ECF6"/>
<path transform="translate(786,553)" d="m0 0 5 1 1 8-5-1-2-3z" fill="#304D79"/>
<path transform="translate(684,1019)" d="m0 0 2 4v8l-1-3-5 1 1-5z" fill="#51555E"/>
<path transform="translate(1119,975)" d="m0 0h3v9l-6-1v-3h2z" fill="#585B66"/>
<path transform="translate(1947,967)" d="m0 0h2l2 6-2 4-4 2-6-1-2-4 3 2h6l1-1z" fill="#3B3E45"/>
<path transform="translate(276,750)" d="m0 0 1 3-4 2 4 2-1 5-2-1v-3l-7-2-1-3 9-1z" fill="#5F626D"/>
<path transform="translate(433,675)" d="m0 0h9v4h-9z" fill="#8E98A8"/>
<path transform="translate(758,1241)" d="m0 0h3l1 4h-2l-2 4h-3v-5z" fill="#838C99"/>
<path transform="translate(395,737)" d="m0 0 2 1v6l1 7-2-4h-10l1-3h8z" fill="#454850"/>
<path transform="translate(1189,554)" d="m0 0h1l1 13-15-1 2-2h9l-1-2h3z" fill="#616671"/>
<path transform="translate(1035,554)" d="m0 0h4l1 8h-5z" fill="#F2F8FA"/>
<path transform="translate(1102,553)" d="m0 0h9v8l-4-4v-2h-4v7h-1z" fill="#B7C8D5"/>
<path transform="translate(1158,1331)" d="m0 0h27v1l-26 1-4 3 1-4z" fill="#D8EAF3"/>
<path transform="translate(1047,1051)" d="m0 0h5l2 5v2l-5-2-2 3z" fill="#585B66"/>
<path transform="translate(696,991)" d="m0 0 2 3 3 9h2v-5h1l1 6-1 3-3-1-3-6v-3h-2z" fill="#555863"/>
<path transform="translate(643,858)" d="m0 0h2v10l-3 7-2 3v-6l1-2 1-10z" fill="#1D4C90"/>
<path transform="translate(438,754)" d="m0 0h10l2 3h-11v5h-1z" fill="#34373D"/>
<path transform="translate(265,739)" d="m0 0h2v6l-2 2-1 7-2-4 2-6-3-1z" fill="#2C2F34"/>
<path transform="translate(455,716)" d="m0 0h1l-1 7-2 2h-10l2-2 8-1z" fill="#3B3E45"/>
<path transform="translate(1043,553)" d="m0 0 6 1v8h-1v-7l-1 2-1 6-3-2z" fill="#3B4B65"/>
<path transform="translate(1016,555)" d="m0 0 1 2h2l3 5v2h-7z" fill="#30353F"/>
<path transform="translate(754,553)" d="m0 0 3 1v7h-5v-7z" fill="#EEF6FA"/>
<path transform="translate(1243,288)" d="m0 0h2l-1 12-5-3 1-4h2z" fill="#44474F"/>
<path transform="translate(877,972)" d="m0 0 15 1 7 1v1h-17l-5-2z" fill="#6A717C"/>
<path transform="translate(1805,793)" d="m0 0 8 6 3 3 2 6-2-1v-2h-2l-7-8z" fill="#6D737E"/>
<path transform="translate(439,722)" d="m0 0 4 1v2h8v1h-18v-2h6z" fill="#2C2F34"/>
<path transform="translate(430,709)" d="m0 0h10v13l-5-5 3-3v-3l-8-1z" fill="#878F9B"/>
<path transform="translate(1245,646)" d="m0 0 2 4-1 9-1 7-2 1z" fill="#2F3237"/>
<path transform="translate(1520,556)" d="m0 0 2 1v2h2v3l3 1-6 1-4-2 1-5z" fill="#414E64"/>
<path transform="translate(1423,555)" d="m0 0h5v7h-3-2z" fill="#273D5F"/>
<path transform="translate(913,553)" d="m0 0h8l1 7-4-1-1-4z" fill="#BECFDB"/>
<path transform="translate(1153,975)" d="m0 0h9l-4 2-1 3h-4l-2 2-1-3z" fill="#7C828D"/>
<path transform="translate(416,700)" d="m0 0h1l1 5 9 1v-5h1v6l-1 1h-10l-1-1z" fill="#878E9A"/>
<path transform="translate(1640,637)" d="m0 0h7l3 5-7-1-4-2z" fill="#1A1C20"/>
<path transform="translate(1672,552)" d="m0 0h5l1 1v5l-2-3h-4l-1 6 6-1v2h-7v-9z" fill="#8E99A7"/>
<path transform="translate(1110,956)" d="m0 0h6l-1 6h-3l-3-5z" fill="#16181C"/>
<path transform="translate(1882,948)" d="m0 0 4 1 2 5-5-3 1 14h-2z" fill="#393E47"/>
<path transform="translate(1091,926)" d="m0 0h9l-2 5-6-1z" fill="#9AABBE"/>
<path transform="translate(430,700)" d="m0 0h1v6l10-2v4h-11l-1-2z" fill="#878F9B"/>
<path transform="translate(413,620)" d="m0 0v3l-6 5-4 1 1-5 4-1z" fill="#223E6A"/>
<path transform="translate(1128,560)" d="m0 0 3 2 5 1-2 2h-8l-3-2z" fill="#26426C"/>
<path transform="translate(1085,557)" d="m0 0 3 2v3h2v2h-8l1-5z" fill="#2A303C"/>
<path transform="translate(1382,555)" d="m0 0h6l1 7-5-3-2 3z" fill="#586273"/>
<path transform="translate(805,552)" d="m0 0 7 1v9h-8v-1l6-1 1-5h-7z" fill="#B2C2D0"/>
<path transform="translate(1823,756)" d="m0 0 6 1v1l-5 1h-12v-2z" fill="#303339"/>
<path transform="translate(1813,754)" d="m0 0h9l1 3h-11l-1-2z" fill="#5E616C"/>
<path transform="translate(1860,981)" d="m0 0 7 1-1 4h-5l-2-4z" fill="#223450"/>
<path transform="translate(1084,942)" d="m0 0h1l1 15-3-1v-13z" fill="#3B3E45"/>
<path transform="translate(267,741)" d="m0 0 1 2h9l-2 1v2l-10 1z" fill="#595C67"/>
<path transform="translate(772,554)" d="m0 0 3 1v2h2l-1 6h-4z" fill="#374256"/>
<path transform="translate(1452,555)" d="m0 0h3l1 7h-6v-5z" fill="#41444C"/>
<path transform="translate(895,554)" d="m0 0h4v7l-3 1-2-4z" fill="#283A55"/>
<path transform="translate(859,553)" d="m0 0h7l1 1v7l-2-4-6-2v6h-1v-7z" fill="#A8B6C4"/>
<path transform="translate(827,554)" d="m0 0h4v8l-4-1z" fill="#3D424D"/>
<path transform="translate(1226,333)" d="m0 0h1l1 14-2 4-1-6v-9z" fill="#16181C"/>
<path transform="translate(1095,1073)" d="m0 0 6 2v2h-10l1-3z" fill="#838A95"/>
<path transform="translate(694,972)" d="m0 0h2l1 14-3-1z" fill="#919DAD"/>
<path transform="translate(1108,939)" d="m0 0h7v4h-7z" fill="#828893"/>
<path transform="translate(218,747)" d="m0 0h8l-1 4h-6z" fill="#9AABBE"/>
<path transform="translate(426,735)" d="m0 0h1v8h10l-1 3h-10z" fill="#97A7B9"/>
<path transform="translate(449,729)" d="m0 0 3 1v13l-2-4-2-8z" fill="#9AABBE"/>
<path transform="translate(1227,654)" d="m0 0h6v3l2 1v2h-5l-1-4h-2z" fill="#D8ECF6"/>
<path transform="translate(1440,557)" d="m0 0h2l2 7h-9z" fill="#2C3F5D"/>
<path transform="translate(814,554)" d="m0 0h4v5h-2v3h-2l-1-7z" fill="#373F4C"/>
<path transform="translate(1361,555)" d="m0 0 4 1 1 5-5 1z" fill="#FAFCFC"/>
<path transform="translate(1331,554)" d="m0 0 3 2v5l-5 1 1-7z" fill="#374B6C"/>
<path transform="translate(1483,553)" d="m0 0h7l1 1v8l-1 1h-6l4-2 1-7h-6z" fill="#A9B8C6"/>
<path transform="translate(968,553)" d="m0 0h8l-1 10h-7v-1h6v-7l-3 1-3-1z" fill="#BFD1DD"/>
<path transform="translate(814,964)" d="m0 0h14v2l-2 1h-6l-6-2z" fill="#EBF5F9"/>
<path transform="translate(311,739)" d="m0 0h9l2 2-1 1h-9z" fill="#8F9AAB"/>
<path transform="translate(433,672)" d="m0 0h10l-1 4-9-1-1 4z" fill="#81868E"/>
<path transform="translate(1722,566)" d="m0 0h13l-1 2-10 1z" fill="#595D68"/>
<path transform="translate(872,562)" d="m0 0h8l3 3h-14l3-1z" fill="#4B5465"/>
<path transform="translate(1046,555)" d="m0 0h2l1 9-4 1-3-1 1-3 2 1z" fill="#232A36"/>
<path transform="translate(926,560)" d="m0 0 3 4h-22l3-2 15 1z" fill="#222C3B"/>
<path transform="translate(1031,555)" d="m0 0h3v7h2v2h-7v-2l2-2 2-1z" fill="#24272C"/>
<path transform="translate(1578,555)" d="m0 0 5 1v5h-5z" fill="#FEFEFD"/>
<path transform="translate(1848,1451)" d="m0 0 2 2 1 8-4 4-2-1 3-2z" fill="#88909B"/>
<path transform="translate(1441,1382)" d="m0 0h2v2l8-1-4 3-6 1-1-4z" fill="#8D98A6"/>
<path transform="translate(718,795)" d="m0 0 1 3-2 4-4-1-2-5 5 1z" fill="#282B30"/>
<path transform="translate(266,758)" d="m0 0h6l1 4h-8z" fill="#D8ECF6"/>
<path transform="translate(446,700)" d="m0 0 5 1 1 4-6 1-1-5z" fill="#9AABBE"/>
<path transform="translate(1124,560)" d="m0 0v3l2 2h-13l4-3z" fill="#3A5277"/>
<path transform="translate(887,555)" d="m0 0h2l2 3-1 4h-4v-6z" fill="#FCFDFC"/>
<path transform="translate(953,553)" d="m0 0h10l-1 9h-1l-1-5-7-3z" fill="#BDCFDB"/>
<path transform="translate(906,519)" d="m0 0h19v1l-13 1-1 2h-2v-2l-3-1z" fill="#919CAD"/>
<path transform="translate(1367,1376)" d="m0 0 1 3-2 3-3 1 2 2-6 1v-3l7-5z" fill="#DDEEF7"/>
<path transform="translate(889,971)" d="m0 0h9l2 2-1 1h-7l-3-1z" fill="#F4F9FB"/>
<path transform="translate(1060,960)" d="m0 0 1 2h15l-1 2-5 1v-2h-10l-3-2z" fill="#797E86"/>
<path transform="translate(655,771)" d="m0 0h3l1 4-4 4-1-7z" fill="#646771"/>
<path transform="translate(439,757)" d="m0 0h6l-1 4-5 1z" fill="#6B6F79"/>
<path transform="translate(300,744)" d="m0 0h5l-3 13h-2l1-11z" fill="#292C31"/>
<path transform="translate(1598,561)" d="m0 0 5 1 6 1-1 2h-9z" fill="#3B3E45"/>
<path transform="translate(1465,554)" d="m0 0h4v7l-4-2-1-4z" fill="#314C76"/>
<path transform="translate(853,553)" d="m0 0 5 1v5l-1-2-3 1-2 3v-7z" fill="#38537C"/>
<path transform="translate(643,459)" d="m0 0 2 1-7 8-3-1 6-7z" fill="#5B5E69"/>
<path transform="translate(1695,1194)" d="m0 0h2l1 5-2 10h-1z" fill="#282B30"/>
<path transform="translate(689,1086)" d="m0 0h1l-1 9-1 5-2-1 1-8z" fill="#484B53"/>
<path transform="translate(652,1056)" d="m0 0 1 2v7l4 4-5-1-2-4 1-7z" fill="#3B3E45"/>
<path transform="translate(956,995)" d="m0 0 3 1v5l-5-1v-4z" fill="#B6C6D1"/>
<path transform="translate(1111,989)" d="m0 0h1l1 8-2-1v-2l-5 1 1-4z" fill="#3D4048"/>
<path transform="translate(1886,981)" d="m0 0 5 3 1 6-5-4h-2z" fill="#282B30"/>
<path transform="translate(264,747)" d="m0 0h1l1 7 2 1-4 2v5h-1v-8z" fill="#44474F"/>
<path transform="translate(433,690)" d="m0 0 8 1v6l-3-3-6-1z" fill="#8E98A8"/>
<path transform="translate(444,673)" d="m0 0h2v9l-4-1z" fill="#51545E"/>
<path transform="translate(887,562)" d="m0 0h7v2l3 1h-12l2-1z" fill="#4D5769"/>
<path transform="translate(1412,557)" d="m0 0 3 1v6l-5-1 1-5z" fill="#2A2D33"/>
<path transform="translate(1152,555)" d="m0 0 4 1-1 4 1 2h-5z" fill="#3B475B"/>
<path transform="translate(759,553)" d="m0 0 4 1v6l-3-1-1 2z" fill="#1C3F75"/>
</svg>
