<?xml version="1.0" encoding="UTF-8"?>
<svg version="1.1" viewBox="0 0 876 920" width="1280" height="1280" xmlns="http://www.w3.org/2000/svg">
<path transform="translate(338,13)" d="m0 0h15l10 4 4 3h44l32-3 3 2v9l-2 3-5 1h-74l-1 5v20l3 5 7 7 6 4 3 4 21 5 12 5 5 4 9-1 10 7 10 8 8 4 7 10 8 16 11 27 10 27 19 48 7 21v8l-3 2-9-1-21-3v25l5 1 21 9 31 15 13 6 29 14 9 6v6l-4 3-8 2-3 12-2 50-3 59-5 112-2 35-3 57-3 62 36-1 37 2 13 2 11 3h14l21-2 38-5h26l23 3 26 5 1 5-4 35-3 35v10l4 7 7 7 5 8v8l-6 8-7 6-12 5-16 3h-35l-25-5-12-4-12-6-10-8-9-9-7-8-39-39-7-9v-33l1-8 4-4 1-3-12-1h-54l-1 46-1 7-4 3-10 2h-12l-6-4-2-4 2-3 7-2 2-14-1-9-3-1h-8l-165 29-64 11-43 8-45 9-32 6-2 1v30l-1 10-4 3-8 2h-17l-6-8-3-10-1-35-4-9-9-13-9-11-5-2-7-1-5-4-5-8-12-2-5-8-2-4-1-7-4-122-3-114-2-151-1-27-1-10-6-9-3-5v-7l6-2 61-5 50-3 29-2 2-1-6-15-4-13-2-28v-70l2-6 33-33 8-7 4-4h2l2-4 10-8 14-15 4-8v-10l28-3h17l12-6 6-7 1-3v-15l-1-7-34 2-31 1-19 2h-13l-2-2v-11l2-2 6-1h49l41-1 2-4z" fill="#54739A"/>
<path transform="translate(338,13)" d="m0 0h15l10 4 4 3h44l32-3 3 2v9l-2 3-5 1h-74l-1 5v20l3 5 7 7 6 4 3 4 21 5 12 5 5 4 9-1 10 7 10 8 8 4 7 10 8 16 11 27 10 27 19 48 7 21v8l-3 2-9-1-21-3v25l5 1 21 9 31 15 13 6 29 14 9 6v6l-4 3-8 2-3 12-2 50-3 59-3 64-5 2-3-1-1-4v-16l-11 4-84 11-52 6-18 2h-9l-1-3v-17l3-105 1-11 2-4 16-2 69-6 41-4 34-3h9l-1-4-6-2v-2l-5-5 4-1 1-3 4-2-10-3h-9l-3 1-10 2-18 1-18 3-22 2-15 2-40 2-18 2-15 3-14 3-2 4-1 24v19l-2 6-1 8-2 6-4 13-4 8-5 6h-2v2h-2l-2 4-4 2-2 4-12 8-3 4-9-2-2-1-6 3-9 2h-5l-5-1-8 1-3-1-6-1-1-1h-9l-3-1-7 3-4-2h-10l-6-2-7-1-3-1-5-1v-2h-7l-5 2-4-2-2-3-5-2-4 1-8 1-5-5-11-4-3-3-10-4-4 1-1-3h-2l-1 14h-1v-25l1-1-1-4v-11l1-4v-44l-5-4-6-1-1-2-1-10-10-10-7-5-7-8-12-11-10-7v-2l-4-2-5-4v-3l-4-2-9-9-3-2-4-3v-3l-4 1 1-4 15-2 51-4 50-3 29-2 2-1-6-15-4-13-2-28v-70l2-6 33-33 8-7 4-4h2l2-4 10-8 14-15 4-8v-10l28-3h17l12-6 6-7 1-3v-15l-1-7-34 2-31 1-19 2h-13l-2-2v-11l2-2 6-1h49l41-1 2-4z" fill="#6D83A2"/>
<path transform="translate(49,309)" d="m0 0 3 1 2 4 6 3 6 7 6 5v3l4 2 5 4v2l4 2 9 7 13 12 3 3v2l4 2 10 9 4 4 1 12h8l4 5v49h-1v9l1 2h-2l2 4h-2l1 6h1v5h2l2 2 3-1 10 4 3 3 13 5 3 4 8-1 4-1 6 3 1 3 5 1 6-2 5 1 2 2h5l5 1 6 2 9 1 6 1 3 1 7-3 5 1h6l4 2h5l3 1 10-1 1 2 14-3 7-3 7 3 4-1 5-5 10-7 5-5 2-3h2v-2h2l2-4 3-3 3-7 4-13 2-6 2-11 1-4v-27l1-15 3-5 9-2 20-4 18-2 40-2 43-5 14-2 18-1 10-2 1-1h9l10 3 1 2-5 1-1 5h-3l6 4v2l5 2v4l-73 7-66 6-30 3-1 3-1 11-3 105-1 19-25 4-11 2-53 6-15 2-19 2-28 2-36 4v168l1 34v19h2l2 4 1 6 4 2 3 2h5l5-1 17 1 1 2h5l5-1 11 1 4-2h10l18-2 13-2 14-2 2-1h8l3-1h9l9-3 4 1 3-3 7 1v-2h9l1 2-1 2h2v2h2l2-4 3-3 8-2h6l5 5 1-2 6-1 1-6 4-1 2 9-3 2-87 15-77 14-45 9-32 6-2 1v30l-1 10-4 3-8 2h-17l-6-8-3-10-1-35-4-9-9-13-9-11-5-2-7-1-5-4-5-8-12-2-5-8-2-4-1-7-4-122-3-114-2-151-1-27-1-10-6-9-3-5z" fill="#405E80"/>
<path transform="translate(381,76)" d="m0 0 16 4 15 5 9 6 9-1 10 7 10 8 8 4 7 10 8 16 11 27 10 27 19 48 7 21v8l-3 2-9-1-21-3v23l1 4-4 12-8 12-18 20-4 7-3 1-27 1-39 4-100 8h-18l-3-3-4-6-11-11-5-4-11-21-5-16v-10l3-8 4-7 4-10 8-16 4-10 5-10 3-8 7-14 3-7 5-13 3-5 4-10 7-15 7-17 5-12 2-4-1-3-3 1-2-1v-3l6-5h3v-2l3-1 4-14v-3l5-1h28l32-1 2-1z" fill="#CACED7"/>
<path transform="translate(565,640)" d="m0 0h1v22l-2 32-2 44 36-1 37 2 13 2 11 3h14l21-2 38-5h26l23 3 26 5 1 5-4 35-3 35v10l4 7 7 7 5 8v8l-6 8-7 6-12 5-16 3h-35l-25-5-12-4-12-6-10-8-9-9-7-8-39-39-7-9v-33l1-8 4-4 1-3-12-1h-54l-1 46-1 7-4 3-10 2h-12l-6-4-2-4 2-3 7-2 2-14-1-9-3-1h-8l-63 11h-9v-4l5-1v-2l6-1 1-3 5-1 7-4h9l6-1-2-10-7-2-4-1-5-1 2-2 31-7 10-2 11-11 3-7h2v-13l1-13 4-21 8-9 8-6 5-5h2v-2h3v-2h2z" fill="#405E7F"/>
<path transform="translate(541,362)" d="m0 0h9l10 3 1 2-5 1-1 5h-3l6 4v2l5 2v3l-5-2-14-9-7-2-39 2-21 3-23 2-3 1-39 3-11 2-13 1-4 1h-16l-1 8-3 120-1 19-9 3-28 4-17 4-21 2-58 7-29 3-8 2-2 15-1 33-2 42-1 9 1 16v43l-1 3-1 16v42l2 10 2 3v5l-2 2-4 7-16 2-5 1-5-4v-2l-10-3-2-2-2-9-2-22v-16l-1-7-2-51v-10l-1-21-1-166v-96l-6-4 4-1h2l4 5v49h-1v9l1 2h-2l2 4h-2l1 6h1v5h2l2 2 3-1 10 4 3 3 13 5 3 4 8-1 4-1 6 3 1 3 5 1 6-2 5 1 2 2h5l5 1 6 2 9 1 6 1 3 1 7-3 5 1h6l4 2h5l3 1 10-1 1 2 14-3 7-3 7 3 4-1 5-5 10-7 5-5 2-3h2v-2h2l2-4 3-3 3-7 4-13 2-6 2-11 1-4v-27l1-15 3-5 9-2 20-4 18-2 40-2 43-5 14-2 18-1 10-2z" fill="#54739A"/>
<path transform="translate(554,385)" d="m0 0h8l1 1v42l-3 74-1 15-1 2-12 3-63 8-57 7-28 3h-9l-1-3v-17l3-105 1-11 2-4 16-2 69-6 41-4z" fill="#CBCFD8"/>
<path transform="translate(356,124)" d="m0 0h42l3 1 1 62 10 7 8 9 3 11 1 12 3-1h18l13 7v2l4 2 6 7v2h2v2l4 2 5 5 6 8 1 2v24l-2 6-8 11-7 6-8 3-8 1-14-3h-19l-11-4-7-4-7-10-4-13-1-15 1-7 2-3-24 1-2 1h-15l-5-3-4-7v-11h-6l-2-1-1-5v-36l1-67 8-3z" fill="#40434E"/>
<path transform="translate(400,81)" d="m0 0 12 4 9 6 9-1 10 7 10 8 8 4 7 10 8 16 11 27 10 27 19 48 7 21v8l-3 2-9-1-21-3v6h-1l-2-8-5-7-5-5-4-3v-2h-2l-8-10-2-1v-2l-6-2-7-4h-21l-3-16-3-8-8-9-9-6v-64l-3-9-7-1-2 5h-12l-1-7h-2v-2l-8 2 4 5-2 3h-6l-1-1v-10h-15l-8 1h-15l-3-2v-8h-2v-7l4-1 55-2 25-2-1-3-2-2z" fill="#FCFCFC"/>
<path transform="translate(338,13)" d="m0 0h15l10 4 4 3h44l32-3 3 2v9l-2 3-5 1h-74l-1 5v20l3 5 7 7 6 4 1 2v7l-2 4-2 1-32 1h-30l-2 3-4 14-4 1v2l-5 3-4 2v3l6-1 1 4-5 11-4 10-7 17-8 16-3 8-5 12-3 5-3 7-5 11-8 18-4 10-11 22-4 10-3 5-2 5-3 3h-6l-3 3h-4l1-4 3-2-4-2-1 5-5-2-1 1-4-2-6 2-1-5v-39l2-4h24l5 3 3-5 4-13 4-14 5-10 1-5 3-3 3-8h3l2-6 4-10h2l2-7 5-10 2-6-7-1-6-5-7-9-4-4 2-5 5-7 2-4 6-4h4l2-4h2v-2l6-5h2v-2l7-1 6 3 5 8 4-1v-7l5-4 4-2 3-5-1-2-1-10 1-2 12-6 6-7 1-3v-15l-1-7-34 2-31 1-19 2h-13l-2-2v-11l2-2 6-1h49l41-1 2-4z" fill="#7689A4"/>
<path transform="translate(297,233)" d="m0 0h11l10 4 9 6 5 5 5 7 3 5v2l4 2 7 11 2 4 6-1 3-1h12l11 4 5 5 3 4 3 8 1 13-3 12-7 11-7 7-11 5-9 1-13-4-6-5-6-9v-5l-11 1h-16l-4-1h-14l-13-4-7-4v-2l-4-2-8-10-2-6-1-2v-23l3-8h2l1-7 9-10 4-3h2v-2l6-1 1-4z" fill="#40444F"/>
<path transform="translate(291,71)" d="m0 0 17 1 1 11 1 3-5 6-7 4v7l-2 2-4-1-3-5-2-3-5-2h-7v2l-6 5h-2v2l-4 4-7 3-3 2-5 9-4 6 4 2 4 6 3 3v2l3 1v2l10 3-1 6-3 3-2 4-5 5-4 5h-2l-1 5-3 3-5 9-5 11-4 12h-2l-1 11-1 7-1 9-7-2-1 2h-8l-9 2-2 1h-9l-1 12v21h-2l-1 3-2-8-2-28v-70l2-6 33-33 8-7 4-4h2l2-4 10-8 14-15 4-8v-10z" fill="#CBCFD8"/>
<path transform="translate(565,640)" d="m0 0h1v22l-2 32-2 44 36-1 37 2 13 2 6 3-3 3-7 1h-11l-19-3h-54l-1 46-1 7-4 3-10 2h-12l-6-4-2-4 2-3 7-2 2-14-1-9-3-1h-8l-63 11h-9v-4l5-1v-2l6-1 1-3 5-1 7-4h9l6-1-2-10-7-2-4-1-5-1 2-2 31-7 10-2 11-11 3-7h2v-13l1-13 4-21 8-9 8-6 5-5h2v-2h3v-2h2z" fill="#415F80"/>
<path transform="translate(800,746)" d="m0 0h8l-2 23-3 29-2 22-2 9-4 2-1 2-9 2-10 3-9-1-2-1v-2l-2-2 8-2 3-7-6-1-1-1v-5h-4l-1 7-7 1-12-1v2l5 5v2l7 1v1l-8 1-5 1-17 5-9 1-3 1-3-1v-2l5-1 2-5 1-6h-4l-1 4h-5l-1-2 1-7 7-2 16-3 7-5h25l28-3 6-2-1-9-4-5-8-4-18-2v-2l10-4-5-2v-2l-3-1h-10l-11 1h-12v7l1 4 4 1v6l-10 2-9-2h-13l1-3 8-2v-3l-4-4-1-3-6-1-1 3-13 4-9 1-2-7 1-16 1-1 15-2 13-2 15-2 8-2 22-3 27-4h6v-2z" fill="#1C222C"/>
<path transform="translate(275,95)" d="m0 0h7l2 1v2h-4v2h-3v3h3v2l6 2 8 8v6l-7 17-12 26-7 15-9 22-8 16-8 19-4 9-2 1-3 7-3 11-8 16v4l8-18 5-11h2v-5l4-6 2-6h2l2-9 6-16 8-15 10-23 10-21 5-12 3-5 4-10 3-10 5-2 1 4-5 11-4 10-7 17-8 16-3 8-5 12-3 5-3 7-5 11-8 18-4 10-11 22-4 10-3 5-2 5-3 3h-6l-3 3h-4l1-4 3-2-4-2-1 5-5-2-1 1-4-2-6 2-1-5v-39l2-4h24l5 3 3-5 4-13 4-14 5-10 1-5 3-3 3-8h3l2-6 4-10h2l2-7 5-10 2-6-7-1-6-5-7-9-4-4 2-5 5-7 2-4 6-4h4l2-4h2v-2z" fill="#2C2E37"/>
<path transform="translate(383,124)" d="m0 0h15l3 1 1 62 10 7 8 9 3 11 1 12 3-1h18l13 7v2l4 2 6 7v2h2v2l4 2 5 5 6 8 1 2v24l-2 6-8 11-7 6-8 3-8 1-14-3h-19l-11-4-7-4-7-10-1-5 2 1v3l9 1 15 4 8 4-3-10v-18l4-10 10-13 4-3h4l1-3h-8v-3-4l-5-4v-6l-7 2h-9l-1-11 1-5-1-7-8-11h-3l-3 1-8-2-3 4-6 2-3 2-7 2v2h-2l-2 7h-2l-2 9h-3l-1 2-3-12 6-2-1-4-2-2 1-4 13-13 8-3h5l1-2 6 3 1-60-17-1z" fill="#40434E"/>
<path transform="translate(356,124)" d="m0 0h27l1 4v53l-2 2-14 4-1 2h4l-2 6-3 1-2 5-6 10-1 5v11l3 12 6 10 2 4 4 2-4 1h-17l-3-2v-2l-4-1-1-3v-11h-6l-2-1-1-5v-36l1-67 8-3z" fill="#060609"/>
<path transform="translate(315,111)" d="m0 0h7l3 4 8 3 1 11v18l-2 18-4 5h-2l-2 5-5 5-2 3h-2l-2 5-3 7-3 24-5 5-7 1v-2l-17 1-16 3-2-5v-7l4-10 7-14 4-10 7-16 9-20 4-10 5-12 3-3 7-3z" fill="#FBFBFB"/>
<path transform="translate(680,768)" d="m0 0h1v14l1 5 12-2 10-3 1-2h6l3 6 3 2-1 4-8 2-1 2 13-1 9 2 10-1-1-4 1-2-4-1-2-4v-7l1-1h18l5-1h10l3 2v2l5 1 1 2-11 3v2h12l8 2 7 4 4 5v9l-6 3-28 3h-25l-7 5-16 3-6 1-1 8 3 2-7 1-1 1-14 1 3 2 3 1 11 1v1l-10 1v1l-10 2-2-2-5-2-2-4v-8l2-6 1-17h-1v-12l1-1h10v3l12-3 9-3h5v-2l-6 1-10-1-5 1h-15v-14z" fill="#464A57"/>
<path transform="translate(426,90)" d="m0 0 6 1 13 10 7 5 7 4 9 14 9 20 15 40 21 53 7 21v8l-3 2-9-1-16-2-1-30-4-14-7-17-3-5-2-6v-6h-2l-4-11-2-13-3-1-4-12-1-7h-2l-2-6-4-2-4-4-4-6-11-10-6-5-5-6-1-5 3-7z" fill="#07080B"/>
<path transform="translate(217,324)" d="m0 0 7 4 13 11 6 3 1 2 6 3 5 5 8 3h22l37-3 48-1 4-1 2 1v-2l45-4 22-1h13l-1 4h-5v2l-17 2-29 2-19 2h-9v2l-49 4-17 2-40 3-10 1-38 2h-19l-2-7-5-4-3-3 2-5 5-3 1-4h3l2-5 7-2 2-8z" fill="#415E80"/>
<path transform="translate(434,117)" d="m0 0 8 6 5 6 1 4 4 2 4 4 1 4h2l3 9 3 10 3 3 3 14 2 8h2l3 12 7 14 6 17 1 5v29h-5v6h-1l-2-8-5-7-5-5-4-3v-2h-2l-8-10-2-1v-2l-6-2-7-4-17-1 1-2 7-1 7 1 6-11 8-12v-11l-3-8-4-14-9-25-4-15v-4h-2z" fill="#CACED7"/>
<path transform="translate(301,115)" d="m0 0 2 1-1 5-4 9-4 10-7 17-8 16-3 8-5 12-3 5-3 7-5 11-8 18-4 10-11 22-4 10-3 5-2 5-3 3h-6l-3 3h-4l1-4 3-2-4-2-1 5-5-2-1 1-4-2-6 2-1-5v-39l2-4h24l4 6 1 5-2 6v5l9-19 1-3h2l2-8 8-18 3-2 3-7 3 1-3 11-8 19-4 9-2 1-3 7-3 11-8 16v4l8-18 5-11h2v-5l4-6 2-6h2l2-9 6-16 8-15 10-23 10-21 5-12 3-5 4-10 3-10z" fill="#2B2E37"/>
<path transform="translate(362,277)" d="m0 0h12l11 4 5 5 3 4 3 8 1 13-3 12-7 11-7 7-11 5-9 1-13-4-6-5-3-5 8-1 3-1v-2l-3-1v-6l3-8-2-6h2v-6l3-2 2 4h3l2-1 1-2v-14l6 2 2-11-9 1z" fill="#515D70"/>
<path transform="translate(732,737)" d="m0 0h26l23 3 26 5v1l-7 1h-12v2l-26 4-24 2-39 6-11 2h-9l-15-3-29-6-11-2 2-6 7 1h11l9-2-2-2 8 1h14l21-2z" fill="#6E83A2"/>
<path transform="translate(292,236)" d="m0 0h11v7l4 2v2l3 1v2l15 3 3 3h-14l-9 4h-2v2l-8 7-7 6-3 10-1 14h2l2 8 2 3-1 3-5-4-4-4 1 4h-3l-7-4-2-5h-4v-2h-7l-3-4v-23l3-8h2l1-7 9-10 4-3h2v-2l6-1v-2l2-1h7z" fill="#07070A"/>
<path transform="translate(306,407)" d="m0 0 4 1-1 16-2 3-15 2-2-2-2 3-12 1-1 1-24 1-9 1-3 4v-2l-8 1-1 2-9 2h-9l1-5h-9v-18l1-1 57-6z" fill="#F7F8F9"/>
<path transform="translate(431,228)" d="m0 0h4l2 7 5 4-2 5h9l-2 4-7 3-8 10-5 10-1 3v18l3 11-7-3-8-3-14-3-4-1-4-9v-22l3-6 8-3 5-1v-2l5-4 6-10 3-7z" fill="#060609"/>
<path transform="translate(748,754)" d="m0 0h5l-2 2-3 1 2 4 5 2v4h2v2l4 1 9 5 4 5h-4v-2l-3-1h-10l-11 1h-12v7l1 4 4 1v6l-10 2-9-2h-13l1-3 8-2v-3l-4-4-1-3-6-1-1 3-13 4-9 1-2-7 1-16 1-1 15-2 13-2 15-2 8-2z" fill="#2B2D36"/>
<path transform="translate(332,152)" d="m0 0h1v8l-2 7-3 3h-2l-2 5-5 5-2 3h-2l-2 5-3 7-3 24-5 5-7 1v-2l-17 1-16 3-2-5v-7l4-10 7-14 4-10 7-16 2 3-1 3v12l4 1h5l4 2h5l6-4h2v-2l7-4h2v-2l8-7 5-8z" fill="#E7E9ED"/>
<path transform="translate(338,13)" d="m0 0h15l8 3-2 1-1 22 1 7v8l2 7 5 7-1 4-8 3-12-1-6-3-1-8-7-4v-44z" fill="#CCD0D9"/>
<path transform="translate(381,76)" d="m0 0 16 4 3 2 2 2v3l-13 2-12 1-59 2v7h2v8l3 1h15l13-1 10 1 1 3v7h6l1-3-6-3 3-2 8-1v2h2l1 7 12-1 2-4 4-1 5 3 2 8v39h-1l-1-38-5-1-19-1-29 1-9 2-4 1-1 3v-11l-9-3-2-3h-7l-5 6-8 3v-5l-4 1-2-1v-3l6-5h3v-2l3-1 4-14v-3l5-1h28l32-1 2-1z" fill="#E7E9EE"/>
<path transform="translate(443,344)" d="m0 0h13l-1 4h-5v2l-17 2-29 2-19 2h-9v2l-49 4-17 2-43 3v-2h-2l-3-9-5-2 2-1 4 2h22l37-3 48-1 4-1 2 1v-2l45-4z" fill="#606E84"/>
<path transform="translate(780,794)" d="m0 0 7 1 6 3 2 2-1 7-8 4-24 3h-25l-7 5-16 3-9 1h-13l-2-2 1-7 3-6 9-2h4v-2l10-2 11-1 5 3 16 4h3l-1-8 5-3 6-1z" fill="#6C82A1"/>
<path transform="translate(467,250)" d="m0 0 6 2 5 5 6 5-1 8h-2v11l-6 8h-2v2h-2l-1 3-8 5h-13l-5-5-4-5-2-8 3-9 2-3h2l1-3h2l1-4 5-1 1-3h2l3-5z" fill="#2B2D36"/>
<path transform="translate(329,16)" d="m0 0h2v19l-1 17h-1l-1-17-2-1h-19l-42 2-23 2h-13l-2-2v-11l2-2 6-1h49l41-1 2-4z" fill="#2C2F38"/>
<path transform="translate(737,813)" d="m0 0h32l1 2 4 2 3 7v2l5-2 18-3v6l-6 6-9 2-10 3-9-1-2-1v-2l-2-2 8-2 3-7-6-1-1-1v-5h-4l-1 7-7 1-12-1v2l5 5v2l7 1v1l-8 1-5 1-17 5-9 1-3 1-3-1v-2l5-1 2-5 1-6h-4l-1 4h-5l-1-2 1-7 7-2 16-3z" fill="#2B2D36"/>
<path transform="translate(439,134)" d="m0 0 2 4 8 24 4 11 4 14 1 2v11l-8 12-7 12-8-1-7 2-4 1-1-9 6 3 1-8 1-1 2-12 4-16 4-18 1-8-1-11-2-7z" fill="#E8EAEE"/>
<path transform="translate(383,124)" d="m0 0h15l3 1 1 62 10 7 8 9 3 11 1 12 3-1h18l13 7v2l4 2 6 7v2h2v2l4 2-2 1-6-3-10-4-6-1-3-3-3-1v-2l-4-1-2-2-1-7-10 2-4 2h-4l-1-11 1-5-1-7-8-11h-3l-3 1-8-2-3 4-6 2-3 2-7 2v2h-2l-2 7h-2l-2 9h-3l-1 2-3-12 6-2-1-4-2-2 1-4 13-13 8-3h5l1-2 6 3 1-60-17-1z" fill="#555C6C"/>
<path transform="translate(419,399)" d="m0 0 2 1v3l-10 6h-7v-2l-7 1v4h3l3 6 1 6h3v4h-2l-2 5-3 7-1 15v12l-2 12-4 9-1 6v17l3 7 2 9 1 2-6 2 2 5 1 2h-6l-1-1v-17l3-105 1-11 3-3z" fill="#E4E6EB"/>
<path transform="translate(383,125)" d="m0 0h14l3 1v61l-7-2-9 2-10 5-8 8-1-2 4-4 2-5h-4l1-3 14-4 1-1z" fill="#414550"/>
<path transform="translate(459,111)" d="m0 0 4 5 8 14 11 27 12 32 19 48 7 21v8l-3 2h-5l-1-11-5-15-3-10v-3h-2l-3-10-2-3-2-7-10-24-3-12-5-12-4-10-5-14-6-16-2-5z" fill="#383B46"/>
<path transform="translate(440,17)" d="m0 0 5 1 1 1v9l-2 3-5 1h-74l-1 5-1 20-2-1-1-19v-14l2-4 4 2h18l27-1z" fill="#2B2D36"/>
<path transform="translate(515,526)" d="m0 0 2 1-3 1 1 5 2 2 1 4 6 2 4 9v10l-4 7-4 3-5 1-7 1-7-3-3-3-3-7 1-12 4-7h2l1-3h3l-1-6-5-2v-1z" fill="#405D7F"/>
<path transform="translate(776,750)" d="m0 0h9l3 4 3 15v4h2l-1 8-4 6-5 1-9-1h-7v-2l8-3-6-7-12-6v-2h-2v-4l-5-2-3-5 8-3z" fill="#13151C"/>
<path transform="translate(383,205)" d="m0 0 1 3 8-1 1-2 1 2h8l-1 3h4l1 10-2 4-4 1 1 4-2 8-4 1v2l-9 3-9-3-4-5-2-6v-11l3-7 6-5z" fill="#2B2D36"/>
<path transform="translate(343,125)" d="m0 0h10l-2 46-4 4-5 2h-5v59h-2l-1-5v-36l1-67z" fill="#3F434E"/>
<path transform="translate(204,241)" d="m0 0h17l4 8-2 8-8 19-4 2-7-2-3 1v-2h-2v11l-3-1v-36l1-6 2 1 2-2z" fill="#13151C"/>
<path transform="translate(351,278)" d="m0 0 6 1 11-1-1 8-1 3-5-1v13 3l-5 2-5-5-3 8 2 5-3 8v6l2 1v2l-3 2h-8l-3-4v-5l-11 1h-16v-1l14-1 4-5-2-1-1 3-1-6 4-4 5-1 2-4 2-1 4-8 2 3 1 4-1 2-3 2-2 1-1 3-3 2-1 4h3v-2l6-3 3-9h2v-2h-2l1-4h3l2-2 2-11z" fill="#515866"/>
<path transform="translate(292,236)" d="m0 0h11v7l4 2v2l3 1v2l15 3 3 3h-14l-9 4h-2v2l-8 7-7 6-3 10-1 14h2l2 8 2 3-1 3-5-4-4-4 1 4h-3l-7-4-2-4 3 1v2l6-1-3-8v-11l5-16 6-7 15-10 2-1-2-2v-3l-5-1-5-2z" fill="#13151C"/>
<path transform="translate(444,126)" d="m0 0 3 3 1 4 4 2 4 4 1 4h2l3 9 3 10 3 3 3 14 2 8h2l3 12 7 14 6 17 1 5v28h-1l-3-18-3-7-4-13-3-7-4-10-6-19-4-10-3-9-4-9-3-10-6-9-4-10z" fill="#6B809E"/>
<path transform="translate(700,761)" d="m0 0h11l1 6 1 3 3 1 1 8h2l1 3-2 4h-3l-2-6h-8l-1 3-13 4-9 1-2-7 1-16 1-1 15-2z" fill="#2B2D36"/>
<path transform="translate(278,422)" d="m0 0h10l2 4-2 4-12 1-1 1-24 1-9 1-3 4v-2l-8 1-1 2-9 2h-9l1-5-2-1h2v-9l2-2 14-1 1 2v6l4-2 2-3 10-2 1 1h10l2 4 2-5h8l1-1h7z" fill="#CFD2D9"/>
<path transform="translate(307,275)" d="m0 0h5v2h2l1 2h13l1 1 2 1v3h2l-1 10-4 9-2-2-4 3-9 1-1-2 1-2-4-1-1 2 1 2-5-1-4-6-1-4 3-7-3-1 2-6z" fill="#2A2C35"/>
<path transform="translate(236,574)" d="m0 0 7 1 8 6 1 8-2 8-5 4-2 2-5 1h-9l-6-3-1-4-2-1-1-10h2l2-5 7-6h5l2 8h4l-1-4-1-2-3-1z" fill="#2C2F39"/>
<path transform="translate(297,233)" d="m0 0h11l10 4 9 6 5 5 5 7 3 5v2l4 2v3l-3-2-8-1-4 3-4-6-5-1-5 4-3-3v4l-4-1-5 1-1-3 3-3 9-4h13l-10-3-7-1-1-3-2-1v-2l-5-2 1-7-9 1-2-1 1 3h-2v-2l-9 1 1-2z" fill="#515766"/>
<path transform="translate(433,489)" d="m0 0h11l6 3 2 4-1 10-4 6-5 6-1 2h-9l-5-3-5-8v-7l6-9 1-3z" fill="#555C6B"/>
<path transform="translate(376,280)" d="m0 0 9 1 5 5 3 4 3 8 1 13-3 12-4 6-6 1v-3l-6 1-1-4-2-1 1-4 4-7v-3l2-1v-3l-4 1v-3h2v-3h-2l3-6 1-9-3-2-5-1z" fill="#505665"/>
<path transform="translate(97,725)" d="m0 0 3 2 2 9-1 13-1 9-1 5v5l2 4v8l2 4-1 3-5-2-5-5-4-6-3-6-3-11-1-2 9-7 1-15z" fill="#2B2D36"/>
<path transform="translate(284,97)" d="m0 0 5 5 5 4 6 1-2 6h-2v3l2 1-3 10-4 10-5 9-5 13-8 16-8 19-12 24-7 20h-2l-2 7-3 5-1 5h-2l-3 10-10 20h-1v-5l8-16 3-11 4-8h2l3-9 10-23 10-21 8-20 17-36 6-15v-8l-4-2-3-2v-2l-4-1-2-1v-2h-3v-3h3v-2z" fill="#4B505D"/>
<path transform="translate(726,803)" d="m0 0 8 3 2 6-3 5-3 2-16 3-9 1h-13l-2-2 1-7 3-6 18-4z" fill="#6C82A0"/>
<path transform="translate(381,76)" d="m0 0 16 4 3 2 2 2v3l-13 2-12 1-59 2 1 10-3 5-12 12-3-3-3 1-2-1v-3l6-5h3v-2l3-1 4-14v-3l5-1h28l32-1 2-1z" fill="#CCD0D8"/>
<path transform="translate(312,72)" d="m0 0h11l3 1v2l-5-1v6h6l2-7 22 3 6 2h2l1-3 7-2 12-1 1 1v7l-1 3-2 1-57 1-9-2-1-1v-9z" fill="#4F5563"/>
<path transform="translate(590,737)" d="m0 0 30 1 24 2 10 4-3 3-7 1h-11l-19-3-51-1v-5l4-1z" fill="#0F1016"/>
<path transform="translate(139,505)" d="m0 0 2 4 4 10 2 2v5l3 1 4-1 3 3 1 6 6 3 4 5 1 7-3-1-3-3-2 1v-5l-5-5-1-3-5 2-2 2h3 3v2h2l1 4-3 1v-2h-4l-1 4 5 1 4 4 5-2 1 3-2 7-5 2h-4l-2-2-2-1v-3l-5 1-1-14-3-13-1-13z" fill="#6C82A1"/>
<path transform="translate(289,426)" d="m0 0 5 3v2l9-2 5-1-1 4-5 2h-3v2l-19 3h-11l-44 4h-11l1-2 11-2h4l1-3h9l2-3 9-1 24-1 1-1h12z" fill="#5D6A7F"/>
<path transform="translate(268,108)" d="m0 0 3 1v3l4 2 1 2 6 3-1 6-3 11-4 4-7 2-6-1-4-5-3-5 1-5 4-1 2-5 4-6z" fill="#14171E"/>
<path transform="translate(85,453)" d="m0 0 4 1 11 8 4 5v30l-2 3-4-1-3-3-7-8-2-5 3-2 7 1-2-5-5-3-3-6z" fill="#A5AAB4"/>
<path transform="translate(484,282)" d="m0 0 2 1-1 10-9 12-7 6-8 3-8 1-14-3-2-2 2-4 1-3 4 1 4-2 13-2 9-4h2v-2h3l1-2 2-2h3l2-6z" fill="#525968"/>
<path transform="translate(383,125)" d="m0 0 2 2 2 9-1 22v3h6l6-2 1 7v19h-4l-11 2-10 5-8 8-1-2 4-4 2-5h-4l1-3 14-4 1-1z" fill="#2A2C35"/>
<path transform="translate(68,713)" d="m0 0 6 1 2-1 1 3-1 4 2 3 5 1 1 9-1 3-2 1 3 1 1-2h4v2h-3v7l-2 4h-2v2h-4l-3-3-2-1 6 17 1 8-5-1-6-11-1-7v-21h1l2 8 5-2 1-3-2-6h-3l-3-3v-7l-1-1z" fill="#4F5C6F"/>
<path transform="translate(301,115)" d="m0 0 2 1-1 5-4 9-4 10-7 17-8 16-3 8-5 12-3 5-3 7-5 11-3-2-3 2 1-4 8-17 7-15 4-9 8-17 5-12 3-5 4-10 3-10z" fill="#242731"/>
<path transform="translate(426,90)" d="m0 0 6 1 13 10 7 5 7 4 2 8 3 10-5-4v-2l-3-1v-5l-7-1-5-4-6-3-2-2-6-1-1 1-5 1-3-3-1-5 3-7z" fill="#181B23"/>
<path transform="translate(446,128)" d="m0 0h2l4 5 5 3 2 3v3h2l11 30 3 8 5 14 10 27 5 15 1 17 7 10 3 3h-8l-6-1-1-30-4-14-7-17-3-5-2-6v-6h-2l-4-11-2-13-3-1-4-12-1-7h-2l-2-6-4-2-4-4z" fill="#3F434F"/>
<path transform="translate(460,265)" d="m0 0 9 2 2 5 1 2-2 6-4 8h-6l1-4h2l-1-7-1 6-2 1h-6l-1-3 3-5 4-1v-2l-8 4v6l5 5 4 3-3 3-5-1-6-5-2-12 7-8 2-2z" fill="#15171E"/>
<path transform="translate(355,17)" d="m0 0h1v17l-2 19v6l7 8 1 4-3 2h-8l-5-2-1-5 2-10 1-35 4-3z" fill="#E9EBEF"/>
<path transform="translate(418,202)" d="m0 0 2 1 3 11 1 12 3-1h18l13 7v2l4 2 6 7v2h2v2l4 2-2 1-6-3-10-4-6-1-3-3-3-1v-2l-4-1-2-2-1-7-10 2-4 2h-4l-1-11 1-5-1-7v-3z" fill="#515866"/>
<path transform="translate(459,111)" d="m0 0 4 5 8 14 11 27 7 20v9l1 6h-3l-3-7-3-12-5-12-4-10-5-14-6-16-2-5z" fill="#4C5260"/>
<path transform="translate(513,540)" d="m0 0 7 2 4 4 3 7-1 6-3 2-2-8-2-1-3-5-4-1-1 5-2 2 1 8 1 1 7 1 1 3-5 2h-9l-5-4-2-10 3-8 6-5z" fill="#181A22"/>
<path transform="translate(679,823)" d="m0 0 18 1h5l2 2-1 6-3 2h-10v2l-2 1 6 2 11 1v1l-10 1v1l-10 2-2-2-5-2-2-4v-8l1-5z" fill="#4E596B"/>
<path transform="translate(443,125)" d="m0 0h1l2 10 7 14 2 2 3 10 4 9 3 9 6 16 5 16 4 9 3 7 5 17 2 6-1 4-5-11-4-11-6-16-3-9-6-17-5-11-3-9-7-20-5-10-3-7v-6z" fill="#A5A9B1"/>
<path transform="translate(265,152)" d="m0 0 1 2-7 15h-2l-1 6-5 10h-3l-1 4-3 7h-2l-1 7-4 8-4 14-2 6-1-3 1-14 3-13 7-15 6-11 3-1 1-5 5-5 4-5h2l2-6z" fill="#6A7F9C"/>
<path transform="translate(230,24)" d="m0 0 1 2h9l11 1 4 2 4 4 16-1 5-1 4 1h4v2l-3 1-24 1-19 2h-13l-2-2v-9z" fill="#09090D"/>
<path transform="translate(218,319)" d="m0 0 5 1 16 11 9 6 1-2 14 14 2 6 2 1-5-1-8-3-7-6-4-2-3-3-5-3-7-6-7-8-3-3z" fill="#A1A6B0"/>
<path transform="translate(309,83)" d="m0 0 6 2 29 1 35-1-2 2-32 1h-30l-2 3-4 14-4 1v2l-6 3 1-4-4 1-6-4-6-7-9-2 3-2 5 1 5 2 5 8 4-1v-7l5-4 4-2 3-5z" fill="#A6AAB2"/>
<path transform="translate(768,814)" d="m0 0 6 3 3 7v2l5-2 18-3v6l-6 6-9 2-10 3-9-1-2-1v-2l-2-2 8-2 2-3h2v-6l-5-1v-2h-2z" fill="#2B2D36"/>
<path transform="translate(257,213)" d="m0 0 2 2-2 9-3 5-3 7-4 9-7 15-5 11-5 10-2 5-4 1 3-12 7-15 2-5h2v-5l4-6 2-6h2l2-9 5-13z" fill="#1E2029"/>
<path transform="translate(251,205)" d="m0 0 3 1-3 11-8 19-4 9-2 1-3 7-2 9-3 1-2 4h-1l-1-9 7-15 1-3h2l2-8 8-18 3-2z" fill="#1B1F27"/>
<path transform="translate(219,286)" d="m0 0 1 3 6-2 2-1 2 13 6 16 6 11-1 2-7-10-2-5-3-1-4-6-2-1v-2l-3 1-8-7-11-3v-3l10-1 5 1h2z" fill="#A4A9B1"/>
<path transform="translate(360,543)" d="m0 0h9l-3 2-42 6-47 6-27 2-3-1 9-3 15-2 20-2 51-6z" fill="#A6AAB2"/>
<path transform="translate(278,422)" d="m0 0h10l2 4-2 4-12 1-1 1-24 1-7-1 1-6-2-2 10 1 5 1 1 3 2-5h8l1-1h7z" fill="#C6CAD3"/>
<path transform="translate(271,170)" d="m0 0 2 3-3 9-9 20-8 16-7 20h-2l-2 7-3 5-1 5h-2l-3 10-10 20h-1v-5l8-16 3-11 4-8h2l3-9 10-23 10-21 8-20z" fill="#41444F"/>
<path transform="translate(326,62)" d="m0 0h3v5l-4 1 1 4 4 1-3 8-6-1v-6h3l-1-1h-13l1 9 11 2 57-1 1-8h1v7l-1 3-5 1-39 1-21-1-7-3-1-10 1-2 15-7z" fill="#6F829E"/>
<path transform="translate(351,128)" d="m0 0h1v25l-1 18-4 4-5 2h-6v-16l1-2 9-1 3-10 1-17z" fill="#2B2D36"/>
<path transform="translate(724,809)" d="m0 0 8 2 1 4-5 3-12 2h-5l-7 2h-9l-1-7 6-3 13-1z" fill="#A6AAB2"/>
<path transform="translate(300,256)" d="m0 0h2l-2 5h-2l-1 3h-2l-2 5h-2l-2 5-3 7-1 4-1 14h2l2 8 2 3-1 3-5-4-6-15 1-13 4-9 6-9 5-5z" fill="#06060A"/>
<path transform="translate(297,233)" d="m0 0h11l10 4 9 6 5 5 5 7-1 3-3-5-2-1v2l-11-3-6-2-1-4-4-1-5-2 1-7-19 1 4-2z" fill="#606D82"/>
<path transform="translate(398,27)" d="m0 0h47l-1 4-5 1h-60l-14-1 1-3z" fill="#1F242D"/>
<path transform="translate(418,232)" d="m0 0h1l-1 8-7 9-3 1v2l-10 4h-3l-2 6-1 19h-1l-1-15 1-7 2-3h-16l-1-4h2l1-3h6 4l6-1h3l6-2 5-5 7-3 1-5z" fill="#4F5564"/>
<path transform="translate(334,164)" d="m0 0h1v70l-5-2-3-10-1-13 4-19 3-8z" fill="#A6AAB2"/>
<path transform="translate(737,813)" d="m0 0h32l-2 5h2v2h5l1 5-2 2v-4l-6-1-1-1v-5h-4l-1 7-7 1-12-1v2l5 6-4-1-4-5-2-4v-4l-5 1z" fill="#41444F"/>
<path transform="translate(777,791)" d="m0 0 14 2 5 6v9l-6 3-4-1 7-3 1-7-4-3-6-2-22 2-9 2-1 5v4l-5 1-8-3-7-2-4-2v-2l13 2 7-6 5-2h6l7-2z" fill="#4F5563"/>
<path transform="translate(97,728)" d="m0 0 2 2v14l-3 36v3l-3-1-2-4-1-8-3-4 1-3h2l3-30z" fill="#13161D"/>
<path transform="translate(762,815)" d="m0 0 4 1 1 5 6 2-1 6-4 3-6 1h-12l-3-1v-2l-4-2-3-5 3-1 18 1v-7z" fill="#505664"/>
<path transform="translate(247,555)" d="m0 0h9l-6 3h17v1l-45 5-14 3-6-1-1-4 7-3z" fill="#6A81A1"/>
<path transform="translate(361,19)" d="m0 0 5 2h39l-1 3h6v1l-26 1-4 1h-15v5l-1 5-1 20-2-1-1-19v-14z" fill="#41444F"/>
<path transform="translate(762,778)" d="m0 0h5l8 3 1 2-12 3-6 2-14 2h-2v-2l-2-1-3-5v-2l7-1z" fill="#525867"/>
<path transform="translate(231,209)" d="m0 0h1v11l-3 18-3 5h-3l-3-2h-26l-1 5v34l-2 2-2-4v-6h2l-1-3v-24l2-6 9-1 6-2 5-1h8l3-1h4l3-21z" fill="#969EAC"/>
<path transform="translate(700,761)" d="m0 0h11l1 6 1 3 3 1 1 8h2l1 3-2 4h-3l-2-6-6-2-5-3-5-10v-3z" fill="#13151C"/>
<path transform="translate(292,236)" d="m0 0h11v7l4 2v2l3 1v2l15 3 3 3h-14l-9 4h-2v2l-8 7-6 5 2-5h2l2-5 3-3 7-4h2v-3h-6v-3l2-1-2-2v-3l-5-1-5-2z" fill="#1E212A"/>
<path transform="translate(680,768)" d="m0 0h1v14l1 5 12-2 10-3 1-2h6l3 6 3 2-1 4-26 6h-8l-4-1 1-4h10v3l12-3 9-3h5v-2l-6 1-10-1-5 1h-15v-14z" fill="#4A505D"/>
<path transform="translate(312,72)" d="m0 0h11l3 1v2l-5-1v6h6l2-7 22 3 6 2h2l1-2-1 4-3 1h-7l-5-4-14-2-1 8h19v1l-28 1-9-2-1-1v-9z" fill="#4A4F5D"/>
<path transform="translate(419,456)" d="m0 0h6l3 2 1 4v8l-6 5-7-1-6-3-1-3 2-3h3l2-7h3z" fill="#476384"/>
<path transform="translate(443,344)" d="m0 0h13l-1 4h-5v2l-17 2h-19l-8-1 4-1v-2l11-3z" fill="#4F5E74"/>
<path transform="translate(762,754)" d="m0 0 4 1 5 6 3 1 3 5 3 10-3 3-7-6-8-7-4-10v-2z" fill="#050508"/>
<path transform="translate(784,802)" d="m0 0h5l3 2-1 5-5 2-8 1h-19l-2-4 3-3 16-1z" fill="#A2A8B2"/>
<path transform="translate(88,464)" d="m0 0 6 1 3 3 3 9v10l-1 9-5-2-7-7-1-4 3-2 7 1-2-5-6-8z" fill="#CCD0D9"/>
<path transform="translate(403,355)" d="m0 0h10l-1 2-21 2-11 2-43 3-21 2h-9v-1l24-3 45-5z" fill="#B2B6BF"/>
<path transform="translate(451,454)" d="m0 0h7l4 4v11l-4 3-10-1-1-1v-7l3-8z" fill="#436082"/>
<path transform="translate(289,426)" d="m0 0 5 3v2l9-2 5-1-1 4-5 2h-3v2l-19 3h-9v-1l6-1-7-1 2-3 7-1-3-2h12z" fill="#606F86"/>
<path transform="translate(511,236)" d="m0 0 2 1 7 21v8l-3 2h-5l-1-11-5-15 1-2 2 3z" fill="#424652"/>
<path transform="translate(277,175)" d="m0 0 1 2-3 5-5 13-6 12-4 9-3-2-3 2 1-4 8-17 7-15 5-2z" fill="#262B35"/>
<path transform="translate(299,435)" d="m0 0 2 1-9 4h-6v1l-46 5h-19l-2-2 28-3 33-3z" fill="#A6AAB2"/>
<path transform="translate(359,17)" d="m0 0 5 1 3 2 17 1v1h-21l-1-2-1 3v16l1 17 2 1 3 5 4 5-1 2h-2l-1 3-2-1-1-4-5-7-1-6v-9l-1-11 1-15z" fill="#8090A7"/>
<path transform="translate(274,313)" d="m0 0h6l2 2 7 2 3-1 10 1v2h2v2h2l1-2 2 3-16 2-11-2-10-5 2-1z" fill="#545D6D"/>
<path transform="translate(253,193)" d="m0 0 1 2-2 7h-2l-1 5-11 25-3 8h-2l-1 5-9 19h-1v-7l2-6 2-1 4-9 7-15 4-8 9-21z" fill="#41444F"/>
<path transform="translate(722,801)" d="m0 0 9 1 2 2 16 4h3l1-4 1 8 8 1v1h-27l-1-8-8-2-19 1 2-2z" fill="#606D82"/>
<path transform="translate(205,249)" d="m0 0 7 1 2 5 1 8-4 2v2l-6-1h-2l-2 1-1-5 3-11z" fill="#050508"/>
<path transform="translate(429,90)" d="m0 0 9 5 12 10 8 4 1 2-3 2h-5v-2l-5-1-4-4-9-6-3-1-2-8z" fill="#3A3E4A"/>
<path transform="translate(351,153)" d="m0 0h1v19l-1 9-4 6-5 1-4-1-2 2v-12l3-1 6-1 4-2 1-2z" fill="#13151C"/>
<path transform="translate(396,295)" d="m0 0 5 2v2l10 3h3l5 3 5-1 7 4-1 2v2h-10l-11-4-7-4z" fill="#545C6D"/>
<path transform="translate(484,262)" d="m0 0 2 2v19l-3 3-2 4h-3l-1 3-5 1v2l-6 3-2-1 6-5 1-2h2v-2h2l2-5 3-3 1-11h2z" fill="#414550"/>
<path transform="translate(234,571)" d="m0 0 7 1 6 4 4 5-4-2-6-4-5-1v2l4 1 2 3-1 4-4-1-2-4v-4l-7 2-6 7-2 3 1 9h-3l-1-9 4-9 3-3z" fill="#415E7F"/>
<path transform="translate(278,93)" d="m0 0 5 1 5 2 5 8 6-1 3-6 3-2 5 1-1 9-4 1v2l-6 3 1-4-4 1-6-4-6-7-9-2z" fill="#7287A3"/>
<path transform="translate(291,235)" d="m0 0h14v7l7 1 3 1-1 5h5l12 5v-2l3 1 3 5v4h-2l-4-4-4-2-2-2-10-2-6-2v-2l-2-1v-2l-5-2 1-7-9 1-2-1 1 3h-2v-2l-9 1 1-2z" fill="#4D5361"/>
<path transform="translate(755,753)" d="m0 0h7v2h-4l5 12 12 11 1 4-5-5-7-5-7-3v-2h-2v-4l-5-2-3-5z" fill="#15171F"/>
<path transform="translate(440,17)" d="m0 0 5 1 1 1v9h-14l-3-2 5-3-4-2h-19v-1z" fill="#555B69"/>
<path transform="translate(284,97)" d="m0 0 5 5 5 4 6 1-2 6h-2l-1 2-9-6v-2l-4-1-2-1v-2h-3v-3h3v-2z" fill="#525968"/>
<path transform="translate(677,824)" d="m0 0 7 1-1 6-1 4 3 3 9 3 1 2-10 2-2-2-5-2-2-4v-8z" fill="#2A2C36"/>
<path transform="translate(511,546)" d="m0 0 1 3-3 4 1 8 1 1 7 1 1 3-5 2h-9l-5-4-1-6h2v2h2l2-6z" fill="#2B2D36"/>
<path transform="translate(237,235)" d="m0 0h2v6l-3 8-3 9-1 4-3 1-2 4h-1l-1-9 7-15 1-3h2z" fill="#16181F"/>
<path transform="translate(326,62)" d="m0 0h3v5l-4 1 1 4 4 1-3 8-6-1v-6h3l-1-1h-13v5h-1v-6l8-5 8-4z" fill="#647287"/>
<path transform="translate(327,17)" d="m0 0 1 2-1 4-3 1h-84l-5-1v-1h49l41-1z" fill="#ADB5C2"/>
<path transform="translate(269,115)" d="m0 0h4l3 3v6l-9 1v3l-3 3-2 4h-2l-1-5v-5l5-5v-2z" fill="#050509"/>
<path transform="translate(451,415)" d="m0 0 5 1 3 7v-7h4l1 2v12l-9-1-4-2z" fill="#111217"/>
<path transform="translate(316,237)" d="m0 0 6 2 8 6 7 10-1 3-3-5-2-1v2l-9-3-3-4v-2h-2l-3-5 3-1z" fill="#6C819F"/>
<path transform="translate(278,422)" d="m0 0h10l2 4-2 4-12 1-1 1h-13l1-6h2v5h7l1-7z" fill="#C4C8D2"/>
<path transform="translate(349,359)" d="m0 0h9v1l-46 5 1 2-18 1h-23v-1l11-1h10v-2l25-2z" fill="#8090A7"/>
<path transform="translate(69,747)" d="m0 0 4 1 4 11 2 5 1 8-5-1-6-11z" fill="#3F4653"/>
<path transform="translate(301,115)" d="m0 0 2 1-1 5-4 9-4 10-3 7h-5l-1 2 1-5 4-7 4-10 3-10z" fill="#353944"/>
<path transform="translate(91,747)" d="m0 0h1l-1 14-1 2h-2l1 5 2 1v7l-5-5-4-14-1-2z" fill="#2B2D36"/>
<path transform="translate(446,128)" d="m0 0h2l4 5 5 3 2 3v3h2l11 30 3 8 1 6-3-2-1-3v-7l-3-1-2-10-3-1-4-12-1-7h-2l-2-6-4-2-4-4z" fill="#3A3D48"/>
<path transform="translate(429,226)" d="m0 0h8l2 4 1 4 4 2v2l5 1 4 2 5 2-1 2-6 1-4 1 1-2h-8v-3-4l-5-4v-6l-10 2z" fill="#41444F"/>
<path transform="translate(49,309)" d="m0 0 3 1 2 4 6 3 6 7 6 5-1 2-10-7v2h-2l-1 3-4-5-6-9z" fill="#5B7290"/>
<path transform="translate(231,26)" d="m0 0h9l11 1 4 2 4 4 16-1 5-1 4 1h4v2l-3 1-24 1h-8l-2-1-2-7h-11l-7-1z" fill="#181C24"/>
<path transform="translate(349,60)" d="m0 0 5 1 4 2 4 6-1 3-7 1-6-1-1-2v-7z" fill="#F9F9FA"/>
<path transform="translate(257,213)" d="m0 0 2 2-2 9-3 5-3 7-2 6-4-1 2-10 6-15z" fill="#1A1D25"/>
<path transform="translate(713,831)" d="m0 0h2l-1 5-2 2-7 2h-11l-7-3 1-2 14-1 4-2z" fill="#6D83A1"/>
<path transform="translate(194,240)" d="m0 0 2 1-1 3v39l2 4h3l1-2 3 2 1-2 5 3 2-4 5 1-5 6-3-1-15-1-2-5v-38z" fill="#6B7F9B"/>
<path transform="translate(196,240)" d="m0 0h24v1l-16 1-3 1-2 2-1-1-1 5-1 36-2-2v-39z" fill="#3B3F4A"/>
<path transform="translate(762,818)" d="m0 0 3 1v5l7 1-3 5-9 2-9-2-2-1v-2l12-3z" fill="#6B809F"/>
<path transform="translate(447,410)" d="m0 0h8l4 2 3 4h-3l1 8-2-1-2-4v-3l-8-2-1 13h-3v-15z" fill="#99A2B0"/>
<path transform="translate(258,298)" d="m0 0h7v2h4l2 5 4 2-2 1-4-2 2 4 1 5-5-2-9-11z" fill="#333742"/>
<path transform="translate(236,23)" d="m0 0 76 1v1l-49 2-17-1-10-1z" fill="#4C5260"/>
<path transform="translate(709,811)" d="m0 0m-10 1h10v7l1 2-6 1h-9l-1-7z" fill="#A6AAB2"/>
<path transform="translate(246,432)" d="m0 0 1 3-3 2v4l-19 2h-11l1-2 11-2h4l1-3h9l2-3z" fill="#484E5C"/>
<path transform="translate(518,460)" d="m0 0 4 1 2 3h5l3-3 6-1 1 5h-3l-5 1-8 3-6 2-5-1 5-7z" fill="#556174"/>
<path transform="translate(361,19)" d="m0 0 5 2 3 2-1 2-3 2v5l-1 5-1 20-2-1-1-19v-14z" fill="#5A6577"/>
<path transform="translate(292,236)" d="m0 0h11v7l4 2 1 4-4 3-3-1 2-1-2-2v-3l-5-1-5-2z" fill="#191B23"/>
<path transform="translate(329,16)" d="m0 0h2v19l-1 17h-1l-1-17-2-1-14-1v-1l11-1 2-1 1-6-2-1h3l1-6z" fill="#596477"/>
<path transform="translate(452,497)" d="m0 0h2l2 7-2 8-5 6-3 2h-5l1-4 7-8z" fill="#9BA3AF"/>
<path transform="translate(193,356)" d="m0 0 1 2 5 2 4 5v5h7v1h-17l-1-14z" fill="#54739A"/>
<path transform="translate(493,233)" d="m0 0 2 3 1 17 7 10 3 3h-8l-5-2z" fill="#2A2E38"/>
<path transform="translate(73,747)" d="m0 0 3 1 5 10 2 8h2l2 7h-9l2-1-6-20z" fill="#697C96"/>
<path transform="translate(92,457)" d="m0 0 4 2 7 6 1 2v30l-2 3-4-1-3-3 1-2 1 3 4 1v-32l-9-8z" fill="#6A81A0"/>
<path transform="translate(239,425)" d="m0 0h6l1 4-2 3 2 1-4 1-3 4v-2l-9 1v-5l1 2 3-1 2-7z" fill="#C6CBD4"/>
<path transform="translate(330,75)" d="m0 0 12 1 3 3v2h3v2h-19z" fill="#14161E"/>
<path transform="translate(792,809)" d="m0 0h3v5l-4 2-12 2-6-3v-2l5-2 12-1z" fill="#15171F"/>
<path transform="translate(418,202)" d="m0 0 2 1 3 11 1 12 6-1-5 5h-6l-1-11 1-5-1-7v-3z" fill="#5B6374"/>
<path transform="translate(266,175)" d="m0 0 1 3-8 19-4 8-1-2-3 1 2-5h2l1-8 7-14h2z" fill="#181E28"/>
<path transform="translate(252,584)" d="m0 0h1v8l-2 6-4 5-8 4h-8l-10-5-1-5h2l2 4 5 2h9l6-2 6-7 1-9z" fill="#405E80"/>
<path transform="translate(334,164)" d="m0 0h1v70l-2-1-2-11z" fill="#6B809E"/>
<path transform="translate(366,28)" d="m0 0h33l5 2v1l-25 1-14-1z" fill="#0F1117"/>
<path transform="translate(436,560)" d="m0 0 5 1 6 2 3 2 3-1 1 5-4 4h-3l-4-5-8-3z" fill="#6C82A1"/>
<path transform="translate(343,125)" d="m0 0h10l-1 3-9 2-5 4-2 25h-1v-31z" fill="#5F6B80"/>
<path transform="translate(275,95)" d="m0 0h7l2 1v2h-4v2h-3v3h3v2l6 2 5 6-7-1-1 3-4-4v-3h-4l-1-7 2-2h3v-2z" fill="#41444F"/>
<path transform="translate(85,736)" d="m0 0h4v2h-3v7l-2 4h-2v2h-4l-5-7 1-4h10z" fill="#41444F"/>
<path transform="translate(268,305)" d="m0 0 8 4 3 2 8 1 5 3-1-5 4 4v3l-5-1-1 2-8-3-7-2v3h-4l1-4-3-4z" fill="#434652"/>
<path transform="translate(699,787)" d="m0 0 16 1v2l-12 3-12 1-2-4z" fill="#6A7E9B"/>
<path transform="translate(357,196)" d="m0 0 4 2-2 5h-3v2h-2l-3 9h-4l1-9h2l1-4 4-4z" fill="#12141B"/>
<path transform="translate(256,125)" d="m0 0 4 1v9h2l1-2v3l5 1 2 2h-2l-1 3-6-1-4-5-3-5 1-5z" fill="#12151C"/>
<path transform="translate(279,238)" d="m0 0h3v2l-6 1v2l-6 4-8 9-2 7h-2l-2 8-1 18h-1v-20l3-7 5-11 5-5 9-7z" fill="#637590"/>
<path transform="translate(370,67)" d="m0 0 4 2 3 3-10 2-7 2-3 3-14-4v-1h15l9-2 1-4 2 1z" fill="#7C8DA6"/>
<path transform="translate(304,428)" d="m0 0h4l-1 4-5 2h-3v2l-11 2h-8l3-2h4v-2l11-4z" fill="#4B6585"/>
<path transform="translate(237,245)" d="m0 0 2 1-2 4 1 5h-2l-3 10-10 20h-1v-5l8-16 3-11z" fill="#454954"/>
<path transform="translate(248,185)" d="m0 0h2l-3 9-11 27-3 4 1-8 5-13 2-3 1-5 3-3z" fill="#4C515F"/>
<path transform="translate(97,764)" d="m0 0 4 8v8l2 4-1 3-5-2-2-5 1-15z" fill="#2B2D36"/>
<path transform="translate(232,265)" d="m0 0h3l1 5-6 11-2 5-4 1 3-12z" fill="#1E212A"/>
<path transform="translate(376,121)" d="m0 0 19 1 6 2-3 1h-45l3-3z" fill="#C7CCD6"/>
<path transform="translate(312,72)" d="m0 0h7l1 1 1 9-2 1-8-2-1-2v-6z" fill="#1A1C23"/>
<path transform="translate(192,239)" d="m0 0h6l-4 2-1 5v34l-2 2-2-4v-6h2l-1-3v-24z" fill="#A6AAB2"/>
<path transform="translate(687,824)" d="m0 0h13l1 6-5 3-9-4-2-4z" fill="#2B2D36"/>
<path transform="translate(498,216)" d="m0 0 3 3 4 9 2 5 5 1-2 9-2 1-5-12v-3h-2l-3-10z" fill="#4A4F5C"/>
<path transform="translate(755,815)" d="m0 0h5v7l-5 1-5-1v-3h-5v2l-4-2-2-2 4-1h10l1 4h2z" fill="#2B2D36"/>
<path transform="translate(753,780)" d="m0 0 10 1 1 2-3 2h-3v2h-7-3v-2l-3-1v-2z" fill="#6B809E"/>
<path transform="translate(68,732)" d="m0 0h1l2 8 5-2 1-2 8 2-1 3h-10l1 4v3l-6-1v6h-1z" fill="#505A6B"/>
<path transform="translate(780,794)" d="m0 0 7 1 5 2v1h-9l-9-1-9 2-12 2-2 3 1-5 5-2 15-2z" fill="#606D82"/>
<path transform="translate(441,547)" d="m0 0 5 1v4l-3 4-3 1-2 2-5-1 1-5 1-2 5-1 2 1v-2l-2-1z" fill="#6D83A2"/>
<path transform="translate(286,141)" d="m0 0 1 3-6 15-7 13-2 1 1-8 7-14h2l2-6z" fill="#505766"/>
<path transform="translate(396,304)" d="m0 0h1l-1 13h-3l-1 2-7-1 1-3 2 1-1-5 2-2 4-1 2-1z" fill="#505C6F"/>
<path transform="translate(249,221)" d="m0 0h1l-1 8-3 9h-2l-2 7-4 6-2-1 5-13 4-8z" fill="#474C58"/>
<path transform="translate(485,213)" d="m0 0 1 2h2l5 14 1 9v27h-2l-1-30-4-14-2-5z" fill="#3C404B"/>
<path transform="translate(347,122)" d="m0 0h7l1 2-2 1-14 2-3 1-1 22-1 10h-1v-13l1-21 7-3z" fill="#CCD0D9"/>
<path transform="translate(768,747)" d="m0 0h13l7 1v1l-26 4h-7l2-2 7-2z" fill="#566071"/>
<path transform="translate(360,287)" d="m0 0 8 1-2 16-4-1-2-13z" fill="#5F6C81"/>
<path transform="translate(488,177)" d="m0 0 3 4 4 10-2 6 1 6-1-2h-2l-3-6 1-6-1-7z" fill="#3E424D"/>
<path transform="translate(376,73)" d="m0 0 4 1-2 8h-15l5-5z" fill="#12141B"/>
<path transform="translate(705,791)" d="m0 0h3v2l-8 3-10 2h-8l-4-1 1-4h10v3l12-3z" fill="#515867"/>
<path transform="translate(762,778)" d="m0 0h5l8 3 1 2-12 3-6 1v-2l5-3-5-1v-2z" fill="#4F5563"/>
<path transform="translate(714,821)" d="m0 0 3 1-1 6h-3l-1 4h-5l-1-2 1-7z" fill="#434752"/>
<path transform="translate(233,236)" d="m0 0 1 4-7 16-4 8h-1v-7l2-6 2-1 4-9z" fill="#454955"/>
<path transform="translate(255,162)" d="m0 0 3 1-5 6h-2l-1 5-3 3-5 9-5 11-2 4-1-3 7-16 4-7 6-9h2z" fill="#A6AAB2"/>
<path transform="translate(433,340)" d="m0 0h20l1 2-3 1-27 1-11 1-1-2z" fill="#A6AAB2"/>
<path transform="translate(369,256)" d="m0 0h24l-3 12h-2l-4-9-2-1-13-1z" fill="#98A0AD"/>
<path transform="translate(765,786)" d="m0 0h15l15 7 3 4-1 9h-1l-2-9-6-5-5-2-18-2z" fill="#2B2D36"/>
<path transform="translate(375,72)" d="m0 0 5 1-4 1-6 3-5 4 13 1 1-6 1 4-1 3h-17l-2-2 7-8z" fill="#32353F"/>
<path transform="translate(369,22)" d="m0 0h14l1 4-4 1h-16l1-2h3z" fill="#41444F"/>
<path transform="translate(93,757)" d="m0 0 2 1 1 18v7l-3-1-1-2v-18z" fill="#08090C"/>
<path transform="translate(96,527)" d="m0 0h2l1 2v14l-4 1-1-1v-13z" fill="#6D83A2"/>
<path transform="translate(266,180)" d="m0 0 1 2-8 19-6 12-1-3 2-4h-3l-3 7-2 1 3-9 2-3 4 1 7-15 3-7z" fill="#2B2D36"/>
<path transform="translate(446,453)" d="m0 0 1 2 3 1-3 14-1-2h-3l-1-2v-7z" fill="#A0A6B0"/>
<path transform="translate(394,289)" d="m0 0 2 1v3l9 1 15 4 5 3-2 1-4-2-10-1-7-2-4-1-3-2z" fill="#2E313B"/>
<path transform="translate(731,819)" d="m0 0h2l-1 5-5 2h-6l-3 1v-5l4-2z" fill="#181E28"/>
<path transform="translate(359,17)" d="m0 0 5 1 3 2 17 1v1h-21l-1-2-1 3v15l-2 1-1-7v-13z" fill="#71849F"/>
<path transform="translate(440,529)" d="m0 0h11l4 3-5 2h-15l2-1v-2z" fill="#E5E8EC"/>
<path transform="translate(502,545)" d="m0 0h1v5l3-1 2 2-4 7-1 2h-2v-2l-3-1 2-9z" fill="#1B212B"/>
<path transform="translate(246,122)" d="m0 0 1 4 3 3 3 5 7 7 3 2 7 1-2 8-1-4 1-2-7-1-6-5-7-9-4-4z" fill="#687A94"/>
<path transform="translate(678,789)" d="m0 0h13v3 2l10-1-3 2-9 1v-3h-11z" fill="#606D82"/>
<path transform="translate(49,309)" d="m0 0 3 1 3 5v3l2 1h-2v2l4-1v2h-2v3l-3-1-6-9z" fill="#436082"/>
<path transform="translate(456,232)" d="m0 0h2v2l4 2 6 7v2h2v2l4 2-2 1-6-3-5-5-1-4-3-1z" fill="#636F83"/>
<path transform="translate(421,551)" d="m0 0 7 2-1 4-6 2-2-3-8 1v-3l5-2z" fill="#6D83A2"/>
<path transform="translate(459,416)" d="m0 0h4l1 2v12l-9-1-3-2 9 1-3-3 1-5z" fill="#434B5B"/>
<path transform="translate(336,325)" d="m0 0h9l-1 7-1 1h-5l-3-4z" fill="#101218"/>
<path transform="translate(271,170)" d="m0 0 2 3-3 9-5 12h-2l1-8z" fill="#494D5A"/>
<path transform="translate(265,152)" d="m0 0 1 2-7 15h-2l-1 6-5 10h-1v-5h2l2-10 7-10z" fill="#596477"/>
<path transform="translate(459,111)" d="m0 0 4 5 8 14-1 3-5-5-1-3h-2l-3-9z" fill="#464B57"/>
<path transform="translate(753,754)" d="m0 0 2 1-1 3 7 9v2l3 1-3 1-4-2v-2h-2v-4l-5-2-3-5z" fill="#191F29"/>
<path transform="translate(308,416)" d="m0 0h1v8l-2 3-15 2v-3l3-1v-4l5 1 1 4 6-1z" fill="#D9DCE2"/>
<path transform="translate(293,365)" d="m0 0h14l6 1v1l-18 1h-23v-1z" fill="#A6AAB2"/>
<path transform="translate(314,250)" d="m0 0 11 1 6 3v-2l3 1 3 5v4h-2l-4-4-4-2-2-2-10-2-2-1z" fill="#494D5A"/>
<path transform="translate(297,233)" d="m0 0h11l6 2-4 1-3 1 5 2-1 3h-4l-2-4v-3l-19 1 4-2z" fill="#6D83A2"/>
<path transform="translate(277,175)" d="m0 0 1 2-3 5-4 11-3 1v-7l2-7 5-2z" fill="#232933"/>
<path transform="translate(440,237)" d="m0 0 5 2v2h8l5 2-1 2-6 1-4 1 1-2h-8v-3-4z" fill="#272A33"/>
<path transform="translate(505,542)" d="m0 0h8l-1 4-3 4h-6v-6z" fill="#13151C"/>
<path transform="translate(257,213)" d="m0 0 2 2-2 9-3 3-4-1 1-5 2-5z" fill="#1D2029"/>
<path transform="translate(561,485)" d="m0 0 2 1 1 10 2 2v5l-6 2z" fill="#54739A"/>
<path transform="translate(394,314)" d="m0 0h1l-1 9-4 6-4-2 1-6 4-2z" fill="#22252E"/>
<path transform="translate(238,253)" d="m0 0 3 1v5l-5 8-3-1 1-6 2-5h2z" fill="#191B23"/>
<path transform="translate(485,174)" d="m0 0h3l1 3v9l1 6h-3l-3-7v-6z" fill="#454A56"/>
<path transform="translate(275,431)" d="m0 0h5l-3 3-13 1-7 1-2-1v-2l2-1z" fill="#4E5462"/>
<path transform="translate(364,278)" d="m0 0h4l-1 8-4 1-5-5v-2z" fill="#1C1E26"/>
<path transform="translate(455,276)" d="m0 0h5l1 7-2 1h-6l-1-3z" fill="#0C0D12"/>
<path transform="translate(449,246)" d="m0 0h6v2l-2 1-2 4-6 1-2-1 2-5z" fill="#4F5563"/>
<path transform="translate(248,127)" d="m0 0 4 1v4h2l7 8 6 1h5v3h-9l-10-9-3-3z" fill="#414551"/>
<path transform="translate(435,773)" d="m0 0h5l1 4 3-1-1 4h-10z" fill="#436182"/>
<path transform="translate(283,356)" d="m0 0h24v1l-23 2h-8l-1-2z" fill="#525E72"/>
<path transform="translate(253,137)" d="m0 0 2 1v2l3 1v2l10 3-1 6-4 3 1-4 1-2-6-2-6-8z" fill="#A4A9B2"/>
<path transform="translate(709,813)" d="m0 0h6v2h2l1 4-7 1-3-1v-5z" fill="#C9CDD6"/>
<path transform="translate(94,477)" d="m0 0 2 1v4l-4 1-4-1-1 3 7 8h-3l-6-7v-8l9 2z" fill="#8493A8"/>
<path transform="translate(215,424)" d="m0 0h13l-1 3h-12v7l-2 6-1-2 1-2-2-1h2v-9z" fill="#B1B7C1"/>
<path transform="translate(231,230)" d="m0 0 1 2-1 9-5 10-2-2-2-4 1-3h3l3-8z" fill="#373B46"/>
<path transform="translate(385,217)" d="m0 0h11v2h-9l1 5 6 1-1 4h-5l-3-5z" fill="#4B505E"/>
<path transform="translate(223,423)" d="m0 0h6l1 2v6l5-2-1 5h-3l-1 5-3-1h2l-1-9-11-2v-1h10l1-2h-5z" fill="#C8CCD5"/>
<path transform="translate(316,284)" d="m0 0h8l2 3 5 3-1 3-10-5-5-1z" fill="#424550"/>
<path transform="translate(679,823)" d="m0 0 8 1-1 2 2 3 8 3v1l-12-1v5l-3-2 3-10-5-1z" fill="#41444F"/>
<path transform="translate(525,793)" d="m0 0h6l2 7v2l-5-1-4-5z" fill="#111319"/>
<path transform="translate(722,780)" d="m0 0 5 1 1 5h-2l-1 3h-4l-1-6z" fill="#4E5665"/>
<path transform="translate(559,385)" d="m0 0 4 1-1 16-2-2v-10h-6v-2l4-1z" fill="#E6E8EC"/>
<path transform="translate(230,370)" d="m0 0h10l-4 2-13 1-5 1-13-1v-1z" fill="#A6AAB2"/>
<path transform="translate(398,217)" d="m0 0 3 2-1 4-4 1h-9l1-4h8l1-1z" fill="#15181F"/>
<path transform="translate(239,228)" d="m0 0 1 3h4l-1 5-4 9h-2l2-10-3 1 2-6z" fill="#22262F"/>
<path transform="translate(446,128)" d="m0 0h2l4 5 5 3 4 9 1 7-3-4v-5h-2l-2-6-4-2-4-4z" fill="#545D6D"/>
<path transform="translate(452,127)" d="m0 0 3 1 3 4v4h2v6l-3-4-2-3-5-3-2-3 4 1z" fill="#2C2E37"/>
<path transform="translate(338,75)" d="m0 0h8l11 3h2l1-2-1 4-3 1h-7l-5-4-6-1z" fill="#576172"/>
<path transform="translate(243,424)" d="m0 0 10 2v6l-2 1-7-1 1-6z" fill="#CCD0D9"/>
<path transform="translate(479,297)" d="m0 0h2l-2 4-7 8-5 3h-2l1-3 6-5 5-5z" fill="#65758E"/>
<path transform="translate(300,252)" d="m0 0 1 2h6v3l-7 4 2-5-8 3v-3z" fill="#11131A"/>
<path transform="translate(330,75)" d="m0 0 12 1 3 3v2h3v2h-15v-1h10l-1-3-12-1z" fill="#2B2D36"/>
<path transform="translate(765,821)" d="m0 0 8 2-1 6-4 3-13 1v-2l12-1 4-4-5-1-2-1z" fill="#525968"/>
<path transform="translate(757,776)" d="m0 0h10l3 2v2l-8-1h-18l4-2z" fill="#41444F"/>
<path transform="translate(388,537)" d="m0 0 1 3h5l-1 2-13 1-7 1 2-4 13-1z" fill="#677E9C"/>
<path transform="translate(81,305)" d="m0 0 4 2v3l-4 1h-9v-4h7l2 1z" fill="#425F80"/>
<path transform="translate(268,305)" d="m0 0 8 4 4 4h-6v3h-4l1-4-3-4z" fill="#444853"/>
<path transform="translate(279,167)" d="m0 0 1 4-5 8h-2l-2 2 1-6 2-4z" fill="#1A1D25"/>
<path transform="translate(362,111)" d="m0 0 7 3 1 2-2 3h-6l-1-1v-6z" fill="#FDFDFD"/>
<path transform="translate(360,60)" d="m0 0h5l6 7-1 2h-2l-1 3-2-1-1-4z" fill="#A6ABB4"/>
<path transform="translate(452,766)" d="m0 0h2l1 4-5 3-5-1h-3v-2z" fill="#405E80"/>
<path transform="translate(212,284)" d="m0 0 5 1-5 6-3-1-14-1 2-2h3l1-2 3 2 1-2 5 3z" fill="#545B6A"/>
<path transform="translate(307,247)" d="m0 0 3 1v2l12 2v1l-21 1v-2l5-3z" fill="#2B2D36"/>
<path transform="translate(305,106)" d="m0 0h2l-1 4-2 2-2 4-4 1-2-1v-3l6-5h3z" fill="#BABEC7"/>
<path transform="translate(640,740)" d="m0 0 8 1 6 3-3 3h-7l-1-6z" fill="#1E212A"/>
<path transform="translate(280,305)" d="m0 0 4 2 5 5 2-1 1 4-5-2-10-2-2-3 5 1z" fill="#2B2D36"/>
<path transform="translate(228,252)" d="m0 0 2 3 2 4v3l-3 1-2 4h-1l-1-9z" fill="#1B212B"/>
<path transform="translate(253,193)" d="m0 0 1 2-2 7h-2l-1 5-3 7h-2l1-5 6-13z" fill="#40434D"/>
<path transform="translate(651,743)" d="m0 0 7 1-1 4-6 1h-15v-1l15-2 2-1z" fill="#58667B"/>
<path transform="translate(258,298)" d="m0 0h7v2l4 1-4 1 1 4-7-3z" fill="#20242E"/>
<path transform="translate(329,21)" d="m0 0h1v31h-1l-1-17-2-2 1-2 1-9z" fill="#4A4F5C"/>
<path transform="translate(91,754)" d="m0 0h1l1 8-1 16h-1l-1-8-3-4 1-3h2z" fill="#181D26"/>
<path transform="translate(305,257)" d="m0 0 3 1-5 2v2l-8 7-6 5 2-5h2l2-5 3-3z" fill="#2E313A"/>
<path transform="translate(704,824)" d="m0 0 3 1v6l3 2-7 1-1 1h-12v-1l10-1 3-3z" fill="#596274"/>
<path transform="translate(767,813)" d="m0 0 2 1-2 4h2v2h5l1 5-2 2v-4l-6-1-1-1v-5h-3v-2z" fill="#41444F"/>
<path transform="translate(680,801)" d="m0 0h3l1 8h2v2l-5 1-2-2z" fill="#2B2D36"/>
<path transform="translate(518,460)" d="m0 0 3 1h-2l1 7 3 1-6 2-5-1 5-7z" fill="#6E7C92"/>
<path transform="translate(441,225)" d="m0 0 5 1v4l6 2-1 5-5-3-1-3-5-2z" fill="#5E6B80"/>
<path transform="translate(231,209)" d="m0 0h1v11l-3 18h-1v-14z" fill="#9EA4AF"/>
<path transform="translate(368,186)" d="m0 0 9 1-4 4-3 5-5 4 1-4 3-2 2-5h-4z" fill="#1A1C24"/>
<path transform="translate(449,118)" d="m0 0 4 2 2 5 2 3-1 3-4-4-1 2-2-7z" fill="#13151C"/>
<path transform="translate(256,191)" d="m0 0 3 1-1 1 1 4-4 8-1-2-3 1 2-5h2z" fill="#151820"/>
<path transform="translate(361,19)" d="m0 0 5 2 3 2-1 2-3 2-1 4h-2l-1-7z" fill="#4F5767"/>
<path transform="translate(512,257)" d="m0 0 4 1v6l2 1-1 3h-5z" fill="#262932"/>
<path transform="translate(237,235)" d="m0 0h2v6l-4 6-3-1 1-6h2z" fill="#14161D"/>
<path transform="translate(370,67)" d="m0 0 4 2 3 3-10 2-2-1 2-5 3 1z" fill="#70839F"/>
<path transform="translate(238,427)" d="m0 0h1l-1 9-8 1v-5l1 2 3-1 1-4h3z" fill="#939DAC"/>
<path transform="translate(400,81)" d="m0 0 11 4-1 2-11 1 3-1-1-3-2-2z" fill="#EBEDF0"/>
<path transform="translate(385,537)" d="m0 0h3v2l-13 2h-9l4-2 3-1z" fill="#272933"/>
<path transform="translate(492,236)" d="m0 0 2 2v27h-2l-1-22z" fill="#4B505D"/>
<path transform="translate(358,216)" d="m0 0 2 1 1 11 1 4-3-1v-2h-2v-8z" fill="#4F5562"/>
<path transform="translate(290,132)" d="m0 0h1l-1 8-5 5-3 6-1-3 7-13z" fill="#4B505D"/>
<path transform="translate(97,728)" d="m0 0 2 2v14l-1 8-2-2 1-14-2-6z" fill="#191F29"/>
<path transform="translate(231,576)" d="m0 0h4v7l-7-1 1-5z" fill="#171C25"/>
<path transform="translate(503,464)" d="m0 0h6l1 4-3 2-5-1z" fill="#4D5668"/>
<path transform="translate(444,414)" d="m0 0h3v13h-3z" fill="#6A7E9B"/>
<path transform="translate(511,236)" d="m0 0 2 1 6 17-1 4-6-15z" fill="#22252D"/>
<path transform="translate(418,202)" d="m0 0 2 1 3 11v7l-2-3-2-4-1-7v-3z" fill="#687487"/>
<path transform="translate(260,202)" d="m0 0 2 2-2 4v5 3l-3-2-3 2 1-4z" fill="#292C35"/>
<path transform="translate(68,718)" d="m0 0 2 2v6l1 2h3v2h-3l1 4-4-2z" fill="#435D7C"/>
<path transform="translate(440,496)" d="m0 0 8 1 1 3-13 1z" fill="#7E8FA6"/>
<path transform="translate(248,185)" d="m0 0h2l-3 9-4 10-2-3 1-5 3-3z" fill="#4B505D"/>
<path transform="translate(349,173)" d="m0 0v3l-3 3-4 1h-4-2l1-4 8-1z" fill="#191F29"/>
<path transform="translate(289,146)" d="m0 0 1 3-3 8-1-2-3-1 1-4 2-3z" fill="#252832"/>
<path transform="translate(208,436)" d="m0 0h5l-2 5-5 1-2-5z" fill="#414552"/>
<path transform="translate(273,424)" d="m0 0h2l-1 6 2 1-1 1h-13l1-6h2v5h7z" fill="#99A1AD"/>
<path transform="translate(441,239)" d="m0 0v3l-1 2 2 2-8 4h-2l2-4z" fill="#13151C"/>
<path transform="translate(469,173)" d="m0 0 3 1 2 10 3 5v6l-2-2v-6h-2l-4-11z" fill="#566071"/>
<path transform="translate(96,772)" d="m0 0 2 2 1 10 3 1-4 1-3-4z" fill="#191D26"/>
<path transform="translate(146,367)" d="m0 0h6v3l-3 1h-9v-2z" fill="#45556C"/>
<path transform="translate(443,344)" d="m0 0h13l-1 4h-3v-2h-15v-1z" fill="#5F6D83"/>
<path transform="translate(191,269)" d="m0 0h2v11l-2 2-2-4v-6h2z" fill="#ADB1B9"/>
<path transform="translate(429,226)" d="m0 0h6l4 9 1 2-4-2-1-1v-6l-10 2z" fill="#282A33"/>
<path transform="translate(471,133)" d="m0 0 3 4 5 12-1 3v-2h-2l-3-8-1-4-3-3h2z" fill="#383B45"/>
<path transform="translate(512,545)" d="m0 0h5l6 7 3 5-2 4h-1l-2-8-2-1-3-5z" fill="#2B2D36"/>
<path transform="translate(737,813)" d="m0 0h15l4 2-22 1z" fill="#515765"/>
<path transform="translate(363,542)" d="m0 0h10l-1 3-10 2h-8v-1l12-2z" fill="#7286A3"/>
<path transform="translate(496,477)" d="m0 0 6 1 1 1v5l-2 1-1-5-4 1v6h-2l-1-3z" fill="#9AA2AE"/>
<path transform="translate(456,273)" d="m0 0h3v2l-5 3-2 7-2-2v-6z" fill="#495162"/>
<path transform="translate(341,279)" d="m0 0h6v6l-4 2-2-4z" fill="#505664"/>
<path transform="translate(326,248)" d="m0 0 4 1 6 4 1 5-4-5-2-1v2l-6-2 2-1z" fill="#64748D"/>
<path transform="translate(700,824)" d="m0 0 4 2-1 6-3 2-4-1 4-3z" fill="#41444F"/>
<path transform="translate(776,782)" d="m0 0 1 2 3 1v1l-13 1v-2z" fill="#1C212B"/>
<path transform="translate(284,619)" d="m0 0 2 1-1 2 2 1-1 2-8 1 1-4z" fill="#6D83A2"/>
<path transform="translate(290,603)" d="m0 0h5l2 4-7 1-2-4z" fill="#6D83A2"/>
<path transform="translate(414,463)" d="m0 0 2 3-2 2 2 5-6-2-1-3 2-3h3z" fill="#647D9F"/>
<path transform="translate(451,454)" d="m0 0h7l2 1-1 2-6-1 1 7h-2l-2-5v-3z" fill="#5A779B"/>
<path transform="translate(424,416)" d="m0 0 3 2v7l-2 5-2-1z" fill="#8190A7"/>
<path transform="translate(448,414)" d="m0 0h3v9l-3 2-1-1v-8z" fill="#BABFC8"/>
<path transform="translate(330,355)" d="m0 0h7l3 3-3 1-8 1z" fill="#6D83A2"/>
<path transform="translate(215,284)" d="m0 0h3l1 5-3 3h-4l1-4 3-2z" fill="#2C2F38"/>
<path transform="translate(253,271)" d="m0 0h1v18h-1v-6h-2l-1-5z" fill="#A6AAB2"/>
<path transform="translate(215,272)" d="m0 0 1 2-3 4-8-2 2-1v-2h7z" fill="#191F29"/>
<path transform="translate(443,248)" d="m0 0h2l-2 5-8 6-2 1 2-4 5-6z" fill="#363842"/>
<path transform="translate(250,202)" d="m0 0 4 1 1 6-3 4 1-5 1-2h-3l-3 7-2 1 3-9z" fill="#232730"/>
<path transform="translate(257,140)" d="m0 0 5 2 1 1 7 1-2 8-1-4 1-2-7-1-4-4z" fill="#657690"/>
<path transform="translate(463,122)" d="m0 0 1 3 2 1 2 4 3 3v2l-4 2-4-11z" fill="#4E5361"/>
<path transform="translate(705,780)" d="m0 0h6l-3 2-7 4-10 1 3-2 10-3z" fill="#41444F"/>
<path transform="translate(221,440)" d="m0 0h8v2l-4 1h-11l1-2z" fill="#424651"/>
<path transform="translate(249,437)" d="m0 0 13 1-4 2h-14v-2z" fill="#4B5E78"/>
<path transform="translate(358,325)" d="m0 0 4 1 2 3-1 3-3 1-3-3 2-3-2-1z" fill="#505765"/>
<path transform="translate(301,317)" d="m0 0 1 2h2v2h2l1-2 2 3-7 1-6-2z" fill="#515867"/>
<path transform="translate(232,265)" d="m0 0h3l1 5-3 3v-2l-4 2 1-4z" fill="#23262F"/>
<path transform="translate(242,238)" d="m0 0h1v6l-5 7-2-1 5-11z" fill="#4A4F5C"/>
<path transform="translate(262,192)" d="m0 0 2 3-5 11h-2l1-5z" fill="#434652"/>
<path transform="translate(398,555)" d="m0 0h9l3 2-7 2-3 1-2-2z" fill="#6D83A2"/>
<path transform="translate(85,453)" d="m0 0 4 1 3 3-4-1v2l1 4-2 6h-1z" fill="#7687A0"/>
<path transform="translate(231,436)" d="m0 0h8l-1 2-6 2 4 2h-7v-2l-3-1h4z" fill="#4D5565"/>
<path transform="translate(393,296)" d="m0 0h2l1 2v11l-3-3z" fill="#3D414E"/>
<path transform="translate(278,93)" d="m0 0 5 1 5 2 2 5-5-3-3-2-7-1z" fill="#8894A7"/>
<path transform="translate(342,76)" d="m0 0 5 2 4 2 5 1v2h-8v-2h-3z" fill="#41444F"/>
<path transform="translate(440,17)" d="m0 0 4 1-1 5-10-2v-1l5-1z" fill="#2C2E37"/>
<path transform="translate(236,577)" d="m0 0h4l2 3-1 4-4-1z" fill="#687C95"/>
<path transform="translate(405,533)" d="m0 0 5 1 1 3-13 1 4-2h2z" fill="#E9EBEF"/>
<path transform="translate(62,531)" d="m0 0 3 1v5h-2v15h-1z" fill="#738197"/>
<path transform="translate(207,338)" d="m0 0h4l-1 4-9 5v-3h3l2-5z" fill="#59708F"/>
<path transform="translate(557,332)" d="m0 0h11l-2 2-3 1h-8l-1-2z" fill="#3A5370"/>
<path transform="translate(343,321)" d="m0 0 3 1 1 6 2 1v2l-3 2-3-1 2-7-3-1z" fill="#494E5B"/>
<path transform="translate(219,286)" d="m0 0 1 3h5l-3 3-1 2-9-1 4-2h2z" fill="#697D9A"/>
<path transform="translate(251,205)" d="m0 0 3 1-2 9-3-1v-6z" fill="#15181F"/>
<path transform="translate(277,175)" d="m0 0 1 2-3 5-2 4-2-2h-2l2-4 4-2z" fill="#2D3441"/>
<path transform="translate(290,107)" d="m0 0 5 2v2l4 1-3 1-1 2-5-5z" fill="#6E829F"/>
<path transform="translate(684,831)" d="m0 0 12 2v1h-6v2h-2v-2l-4 2-1-4z" fill="#525866"/>
<path transform="translate(85,766)" d="m0 0 6 3v7l-5-5z" fill="#30323C"/>
<path transform="translate(295,421)" d="m0 0 5 1-1 3h-3l-1 4-4-1 2-3h2z" fill="#B2BAC7"/>
<path transform="translate(231,271)" d="m0 0h2v5l-4 5-1-8z" fill="#1F222B"/>
<path transform="translate(263,203)" d="m0 0 1 4-3 6-2 1v-6z" fill="#1C1F28"/>
<path transform="translate(393,28)" d="m0 0 9 1 2 2h-14z" fill="#050508"/>
<path transform="translate(745,779)" d="m0 0h13v2l-13 1-1 2z" fill="#555D6E"/>
<path transform="translate(129,439)" d="m0 0h2l1 2v8h-3l-1-3z" fill="#5E799D"/>
<path transform="translate(196,276)" d="m0 0h3v10l-3-1z" fill="#161A23"/>
<path transform="translate(329,16)" d="m0 0h2v19h-1l-1-13h-1v-5z" fill="#525A6A"/>
<path transform="translate(708,834)" d="m0 0h5l-3 3-9 1v-2z" fill="#B0B4BD"/>
<path transform="translate(77,736)" d="m0 0 8 2-1 3h-9l-1-2z" fill="#505765"/>
<path transform="translate(427,492)" d="m0 0 2 1-8 12v-6l2-3h2z" fill="#8B97AA"/>
<path transform="translate(336,325)" d="m0 0h9l-1 2-4-1-2 6-3-3z" fill="#22252E"/>
<path transform="translate(461,276)" d="m0 0 2 1v7h-2v3h-5l1-2h2v-2h2z" fill="#5B677C"/>
<path transform="translate(329,270)" d="m0 0 2 3 3 1 3 4v2l-3-1v-2l-5-2-2-4z" fill="#2B2D36"/>
<path transform="translate(268,127)" d="m0 0h3l-1 5-2 3h-4l2-4h2z" fill="#535B6C"/>
<path transform="translate(267,126)" d="m0 0 4 1h-3v4l-4 4 4 1h-5l1-7 3-1z" fill="#353842"/>
<path transform="translate(376,121)" d="m0 0 5 1v2h-12v-2z" fill="#BEC2CB"/>
<path transform="translate(335,61)" d="m0 0 4 2 1 8 2 2-4-1-1-6-2-1z" fill="#A6AAB2"/>
<path transform="translate(384,21)" d="m0 0h11l-4 3h-10z" fill="#535A69"/>
<path transform="translate(73,747)" d="m0 0 3 1 2 4v6l-3-3-2-5z" fill="#8694A9"/>
<path transform="translate(289,426)" d="m0 0 2 1v5h-9v-2h6z" fill="#50596B"/>
<path transform="translate(243,425)" d="m0 0 3 1-1 4-1 2 2 1-4 1-2 2 1-5h1z" fill="#939DAC"/>
<path transform="translate(234,228)" d="m0 0 1 4-3 7h-2l1-7z" fill="#282B34"/>
<path transform="translate(282,154)" d="m0 0 4 1-1 5-1 3h-3v-3h2z" fill="#1A1D26"/>
<path transform="translate(286,141)" d="m0 0 1 3-5 12-2 1 2-8z" fill="#5E6B80"/>
<path transform="translate(293,114)" d="m0 0 5 2-2 9-3-2z" fill="#464B57"/>
<path transform="translate(713,828)" d="m0 0h4v6l-4 4 2-7-3 1z" fill="#4F5665"/>
<path transform="translate(708,823)" d="m0 0 4 1-1 7h-3z" fill="#2B2D36"/>
<path transform="translate(417,559)" d="m0 0 3 1v4l-6 1v-3h2z" fill="#6D83A2"/>
<path transform="translate(454,415)" d="m0 0h8l-3 1 1 8-2-1-2-4v-3z" fill="#6B778A"/>
<path transform="translate(371,340)" d="m0 0h7v2l-5 2h-7l4-2z" fill="#525969"/>
<path transform="translate(237,245)" d="m0 0 2 1-2 4 1 5h-5l3-9z" fill="#3D414C"/>
<path transform="translate(255,171)" d="m0 0h2l-2 6-4 8h-1v-5h2l1-4z" fill="#4A4E5B"/>
<path transform="translate(229,23)" d="m0 0h7v2l4 1h-9-2l-2 1z" fill="#333742"/>
</svg>
