<?xml version="1.0" encoding="UTF-8"?>
<svg version="1.1" viewBox="0 0 884 916" width="1280" height="1280" xmlns="http://www.w3.org/2000/svg">
<path transform="translate(343,7)" d="m0 0h35l24 3 25 5 34 7 27 5 26 7 30 11 15 5 68 1 29 2 25 4 27 9 19 9 20 13 15 11 14 12 15 16 6 7 9 12 12 17 12 21 14 29 11 30 7 26 7 36 3 20 2 23v68l-5 51-7 47-6 33-9 36-9 30-11 31-11 25-14 29-12 22-13 21-16 24-10 13-13 15-9 11-30 30-11 9-13 11-18 12-21 12-21 10-19 7-28 8-24 5-24 2h-13l-20-2-25-6-25-9-23-11-24-14-16-9-7-3-29-6-40-12-19-6-37-5-12-3-14-3-20-7-20-9-23-12-12-8-13-10-12-11-7-6-7-8-7-7-9-11-13-18-13-21-13-24-9-20-9-24-9-29-6-27-5-37-2-23v-59l2-24 4-34 4-24 8-33 12-39 9-26 12-29 12-25 14-27 12-19 14-19 11-14 13-16 11-12 12-13 13-13 8-7 13-11 17-12 19-12 30-15 22-8 26-6 25-4z" fill="#2C2C2C"/>
<path transform="translate(343,7)" d="m0 0h35l24 3 25 5 34 7 27 5 26 7 30 11 15 5 41 1v1l-13 2-9 2h-12v2h-4l-1 3-23 7-19 9-16 9-8 5-3 3-6 1v2l-11 9h-3v2h-2l-1 3-12 9-10 8-8 8h-3l-2 4-12 13-4 4h-2l-2 4h-2l-2 4-8 10-4 2-1 4-5 6-6 7-3 5-8 11-4 7-5 5-6 9-5 6h-5v-3l-6 1-8 13-6 13h-2l-2 6-6 13-1 3h-2l-1 5-10 25-15 39-11 35-4 20-7 29h-2l-2 16-3 18-2 21-1 32-2 16v37l2 35 4 29 8 38 8 32 8 24 8 19 10 19 8 15 7 11 3 1 3 3 4 7 10 14 9 10 2 2 4 1 7 8 5 5 1 3-3 1 2 2-11-1-9-2-19-5-30-9-19-6-37-5-12-3-14-3-20-7-20-9-23-12-12-8-13-10-12-11-7-6-7-8-7-7-9-11-13-18-13-21-13-24-9-20-9-24-9-29-6-27-5-37-2-23v-59l2-24 4-34 4-24 8-33 12-39 9-26 12-29 12-25 14-27 12-19 14-19 11-14 13-16 11-12 12-13 13-13 8-7 13-11 17-12 19-12 30-15 22-8 26-6 25-4z" fill="#3C3938"/>
<path transform="translate(615,229)" d="m0 0 22 1 19 6 15 5 16 9 10 8 7 8 10 9 3 3v2h2l8 12 9 13 8 16 8 21 7 25 4 22 2 14 1 13v46l-2 21-5 30-7 26-12 36-7 17-10 19-6 11-8 14-6 9-10 13-12 14-7 7-7 8-12 10h-2v2l-9 6-10 7-11 6-12 6-15 5-13 5-20 2-27-1-16-3-12-4-29-15-7-6 1-5 11-23 15-29 9-18 1-12-2-4-6-3h-5l-4 7-3 9v6l5 4 2 2-2 7-11 19-10 17-5 10-4 3-8-9-14-21-6-10-9-19-4-9-3-10-3-7-3-11-3-21-2-16-2-34v-19l1-17 6-36 10-40 8-23 13-32 1-2h2l7 8 10 10v2l6 2 5-5 5 5 8 4 1-4 3-1-3-6-5-1h-9l-2-1v-2l2-1-1-3-4 2h-3l-1-3-4-1-1-1v-6l-4-6-3-2 1-5 7-12 12-17 11-16 18-18 11-10 13-10 15-10 13-8 19-8 18-5z" fill="#0A0909"/>
<path transform="translate(347,78)" d="m0 0 6 1 9 1 3 1 14 2 15 3 10 3 17 2 25 4 7 1 9 3h7l1-2 9-3 1-1h5l-3 5-4 1v2l-11 8-3 1v2l-9 7-11 9h-2l-2 4-7 5-7 8-9 9-1 2h-2l-2 4-10 11h-2l-2 4-4 3-4 2-1 2-5 1-5 4-10 10-8 9-16 28-9 14-6 13h-2l-2 6-6 13-1 3h-2l-1 5-10 25-15 39-12 38-7 18-2 3-7 1-2-5v-8l-5 6-4-1v-9l5-22-2 4-9 24-5 1-3-6-4 3h-5l-1-1v-15l1-5-4 5-3 8-3 2-6 2-3 3-5-1-3-3-5-2-4-2-3 2-8-1-3-3v-2h-3v-2l-10-2-12-6v-12l5-22 9-29 17-44 12-25 8-14 11-20 10-15 11-14 9-12 9-13 7-8 1-3 27-27 5-2v-2l8-7 17-14 11-7 4-1v-2z" fill="#B6B3B0"/>
<path transform="translate(440,18)" d="m0 0 43 8 20 5 17 5 32 12 7 2 41 1v1l-22 1-9 2-23 6-18 6-23 11h-7l-7-4-9-1-9-4-27-2-14-4-15-3-15-4-4-3 9-4 1-2-16 4-11 3-13 6h-4v2l-14 8-3 3-7 4-8 4-9 7-13 10-22 18-11 11-1 2h-2l-2 5-3 1-1 4-5 5-7 9h-2l-2 4-9 11-9 12-14 19-12 21-9 15-1 3h-2l-1 4-11 23-7 16-5 13-5 12-4 9-3 8-7 23-9 37-2 6h-3v-10l2-11 5-20 12-40 7-19 9-17 7-16 8-16 12-22 9-14 7-12 12-17v-2l-8 10-7 10-7 11-10 15-6 11-9 17-4 9-8 16-9 19-12 36-7 20-9 26-3 6-2-1-2-5-10-2-3-8-2-1v2l-2 1h-19v-5l-7 2-5-1-1-8-4 1-5-2-3-1-6 3-5 1-2 3h-3v3h-2l3-16 9-32 5-15 2-7 7-16 1-4h2l1-7h2l3-9 15-30 8-13 3-6h2l2-5 8-12 7-6 5-2-1-2-3-1v-2l-5 1 1-2 6-7h2l2-5 5-1 7-5 4-6 9-11 1-2-8 3-4 2 1-4 3-5 12-9h3v-2l8-6 6-6h2v-2l10-8h2l2-4 5-4h2l2-4 14-11 19-13 9-6 8-4 8 1 1 2 2-1h8l10-3 26-11 10-4h2v-3l-10-1-3-2v-2l11-4 12-3 17-3 15-2h49l26 1z" fill="#B6B3B0"/>
<path transform="translate(343,7)" d="m0 0h35l24 3 25 5 13 3v2h-75l-15 2-21 4-17 5h-2l3 3 10 2v3l-14 6-24 10-10 3h-9l-2 1v-3h-8l-16 9-14 10-11 8-10 8-5 5-10 9-5 4h-2v2l-8 7-6 5h-2v2l-9 5-6 5-4 8 5-4 7-1-2 5-9 10-3 5-9 6v-2l-4 4-8 10h3v2l4 1v2l-9 6-7 9-6 10-3 3-4 8-9 16-13 26-2 5h-2l-1 7h-2l-1 6-6 14-2 7-7 21-5 18h-3l-6 30-1 16 2-2 8-1 9 2 2 2 6 2 3 2v2h9l5 3 5 4 2 3 8-1 3-2h5l3 3v2l4 1 5 10h2l4-16 3-10 4-5-1 30-2 19v6h1l5-24h2l1-8 5-21h1v13l-1 7-2 29-2 19-1 20-3 20-3 13-1 2h-2v-3h-2l-1-11-2-6h-2l-1 6v40l1 14v12l-2-2-2-13-1-59-6-2-8 2-15-3-1-3-6-2-5 1-2-2-11-1-8-1v-2h-8l-7-4v-2l-6 4h-2l-1 9v58l5 37 1 10h2l3 11 1 12 5 16v2h2l3 9v3h2l10 26 8 16 9 16 6 11 9 13 3 4v2h2l8 11 12 13 17 17 2 1v2l4 2 9 7 12 8v2l5 1 7 4v3l5 1 4 2v2l6 1 7 3v2l21 7 7 2 6 2v2l11 3 5 3v1h-11l-12-3-14-3-20-7-20-9-23-12-12-8-13-10-12-11-7-6-7-8-7-7-9-11-13-18-13-21-13-24-9-20-9-24-9-29-6-27-5-37-2-23v-59l2-24 4-34 4-24 8-33 12-39 9-26 12-29 12-25 14-27 12-19 14-19 11-14 13-16 11-12 12-13 13-13 8-7 13-11 17-12 19-12 30-15 22-8 26-6 25-4z" fill="#0C0B0B"/>
<path transform="translate(149,507)" d="m0 0 9 1 11 3 16 3 6 2 12 6 2 5 5-3h5l11 5 6 3h7l6 1 4-1 4 1 1 3 2 45 3 30 4 29 8 38 8 32 8 24 8 19 10 19 8 15 7 11 13 20 9 12 5 8h-3l-8-5v-2l-5-2-8-4-9-2-3-3-3-1-4-4-6-1-4 1-9-3-10-5-8-6-5-2h-9l-10-9-8-7-8-8-9-11-8-10-8-11-6-9-6-11-10-19-11-26-7-19-5-15-4-11-4-20-1-2-2-12-3-19-3-27-2-29v-11l1-2h2v-3z" fill="#B7B4B1"/>
<path transform="translate(40,477)" d="m0 0 5 1 5 3h5l3 2 19 5 5 5 2-3 5 1 4 6 7-1 5 2 7 1 2 2 5 1 1 11 1 32 5 44 5 26 4 19 10 31 9 24 9 21 7 13 11 19 7 10 10 14 10 13 8 9 1 5-2 1-7-3-4-1 4 8 9 5 6 2 1 2h5l1 4v2h3v2l-8-1-12-5-24-11-16-9-4-1-3-3-16-11-6-5v-2l-4-2-24-24-11-14v-2h-2l-4-6-7-10-7-11-6-12-10-18-10-26-6-19-5-17-4-18-4-21-3-19-2-18-1-16v-26l2-7z" fill="#B6B3B0"/>
<path transform="translate(41,466)" d="m0 0h2v2l4 1 4 2 7 1v2l5-1 3 1 11 1 2 2 7-1 5 5 15 3 10-2 4 3 1 15 1 44 2 13v-10l-1-14v-40l2-6h2l3 6 2 19h2l3-12h2l2-5 3-1 11 1 14 2 16 4 9 3 7-1 7 6 19 2 7 4 5 1 7-2 2-1 5 3 2 3 1 38 2 33v13h-1l-2-22-2-48h-6l-5 1-12-2-11-5-4-2-7 1-3 1-3-5-12-6-13-3-13-2-10-3h-13v3h-2v13l3 40 3 25 3 13 1 9 2 5 3 17 6 16 7 22 5 12 11 25 11 21 3 5 9 13 9 12 9 11 12 13 14 13 3 2h9l6 3 10 7 13 5 4 1 4-1 7 2 2 4 4 1 2 2 9 2 13 7 3 3 7 4-6-9-8-11-11-17v-2h2l3 3 4 7 10 14 9 10 2 2 4 1 7 8 5 5 1 3-3 1 2 2-11-1-9-2-19-5-30-9-19-6-22-3-6-1v-3l-14-5v-2l-12-2-10-4-12-5v-2l-9-3-4-1v-2l-9-3v-2l6 2 23 11 14 5 9 3v-2h-3l-1-5h-5l-2-3-9-3-6-4-4-8h4l9 3-1-5-9-10-9-12-10-14-10-15-9-16-8-15-11-27-12-36-4-14-5-23-4-24-4-37-1-32-1-11-5-1-1-1-7-1-7-2-5 1-5-7h-4l-3 3-2-4-8-3-13-3-3-2-8-1-3-3h-4l-2 3h-2l-1 10v23l2 24 2 19 5 25 3 16 4 15 6 20-1 4-3-8v-4h-2l-6-18-1-12-2-7v-4h-2l-4-23-3-25v-57l2-9z" fill="#2B2A2A"/>
<path transform="translate(584,412)" d="m0 0h18l10 4 10 7v2h2l8 14 5 16v27l-4 15-6 15-6 10-8 15-5 6-10 7-13 3h-19l-9-4-8-7-6-8-7-16-3-13v-12l2-17 7-23 7-13 7-9 5-6 11-8z" fill="#0A0909"/>
<path transform="translate(406,47)" d="m0 0h2l-1 3-7 3 2 2 23 6 15 3 6 2 27 2 9 4 9 1 7 4h7l26-12 18-6 20-5 9-2h12l-3 2-9 2h-12v2h-4l-1 3-23 7-19 9-16 9-8 5-3 3-6 1v2l-11 9h-3v2h-2l-1 3-12 9-10 8-8 8h-3l-2 4-12 13-4 4h-2l-2 4h-2l-2 4-8 10-4 2-1 4-5 6-6 7-3 5-8 11-4 7-5 5-6 9-5 6h-5v-3h-5l2-5 11-20 9-11 4-5 5-4h2l2-4 6-4 4-1 2-3 4-1 4-5 5-4 7-8 2-3h2l2-4 9-9 3-4h2l2-4 7-5 5-5 11-9 5-4h2v-2l12-9h2v-2l5-3 1-2-5 1-10 4-7 1-13-4-23-3-21-3-20-5-17-3h-5l-4-2h-7l-5-1-9 4h-3v2l-7 4-9 6-13 11-8 7-3 1v2l-8 6-19 19-3 4h-2l-1 4-6 7-7 10-8 11-12 15-10 15-12 21-8 15-9 17-8 19-15 40-9 30-3 15-1 12 9 3 6 3 7 2v2h3l3 4 8 1 4-2 4 3 5 2 4 3 4-1 3-3 8-2 1-5 5-10 2 3-1 4v15h5l5-3 2 6h5l3-10 7-20 2-1-5 25v9l4-1 4-5 1 1v9l1 3 7-1 3-6h1l-1 8h-2v8l-3 9-3 2-5-2-2-2h-8l-3-3-2-5-4 4-4-1-9-3-4-1-4-8-5 7-13-3-5-5-4-1h-13l-10-4-15-4h-6v-18l2-21-1 6h-2l1-9 7-26 5-15 4-10 4-8 6-15 5-12 9-20 7-14h2l1-4 14-25 9-14 27-36h2l2-4 9-11 4-5h2l1-4 4-4 1-2h2l2-4 13-13 20-16 13-10 11-8 7-3 11-8 9-5h2v-2l16-6 9-3z" fill="#6B6866"/>
<path transform="translate(42,374)" d="m0 0h1v9l2-2 8-1 9 2 2 2 6 2 3 2v2h9l5 3 5 4 2 3 8-1 3-2h5l3 3v2l4 1 5 10h2l4-16 3-10 4-5-1 30-2 19v6h1l5-24h2l1-8 5-21h1v13l-1 7-2 29-2 19-1 20-3 20-3 13-1 2h-2v-3h-2l-1-11-2-6h-2l-1 6v40l1 14v12l-2-2-2-13-1-59-6-2-8 2-15-3-1-3-6-2-5 1-2-2-11-1-8-1v-2h-8l-7-4v-2l-6 4h-2l-1 9v56h-1l-1-9v-48l2-18 2-33 3-30z" fill="#3C3938"/>
<path transform="translate(440,21)" d="m0 0h8l1 1 19 1 28 6 24 7 32 12 7 2 41 1v1l-22 1-9 2-23 6-18 6-23 11h-7l-7-4-9-1-9-4-27-2-14-4-15-3-15-4-4-3 9-4 1-2-16 4-11 3-13 6h-4v2l-14 8-3 3-5 3-2-1 3-4v-2l-10-1-5-2-11-1-5 1-10-2-1-1-11 3-9 4-14 6-8 2h-3l-6 2 2-4 7-4 21-10 12-5 4-2h5v-2l10-5 8-3 12-6 24-8 21-5 11-2 13-1 29-1z" fill="#6A6665"/>
<path transform="translate(654,325)" d="m0 0 9 1 4 3-1 15-3 6-5 2-2 8-8 13-9 19-10 21v4l8 10 5 11 3 10 1 12v10l-2 18-7 24-3 10 13 13 8 6 4 4 7 4h5l4 6v6l-4 6-5 3-1 8-3 1-4-4-3-5 1-5 2-3v-5l-4-2-10-8-14-14-3 1-7 10-12 12-13 8-7 3-5 1h-14l-11-4-10-5-2 7-9 16-15 28h-2l-1 3-6-1-1-3 4-7 15-27 10-19-1-4-9-15-3-9-2-20v-11l4-27 5-17 7-13 1-2 1-5 5-5 2-4 5-4 4-6 9-8 14-7 4-1h17l10 3 5 4 4-1 7-12 6-12 9-15 5-10 1-3 2-1 3-7v-3l-5 6h-4l-2-5v-7l3-7zm-70 87-12 5-8 6-5 4-8 10-8 14-6 18-3 14-1 10v12l4 16 8 16 9 10 7 4 5 2h19l13-3 10-7 6-8 9-16 7-14 6-18 1-5v-27l-6-18-7-12h-2v-2l-11-8-9-3z" fill="#2C2C2C"/>
<path transform="translate(125,487)" d="m0 0h2l3 6 2 19h2l3-12h2l2-5 3-1 11 1 14 2 16 4 9 3 7-1 7 6 19 2 7 4 5 1 7-2 2-1 5 3 2 3 1 38 2 33v13h-1l-2-22-2-48h-6l-5 1-12-2-11-5-4-2-7 1-3 1-3-5-12-6-13-3-13-2-10-3h-13v3h-2v13l3 40 3 25 3 13 1 9 2 5 3 17 6 16 7 22 5 12 11 25 11 21 3 5 4 6v2h-2l-4-7-6-9-3-3-1-8h-2l-5-11-1-6h-2l-5-10-5-15-10-24-8-34-6-32v-3h-2l1 3 2 18 5 25 1 2 1 12 8 28 13 30 8 17 13 23 8 11 1 3 5 5 8 10 3 5 9 10 2 5-7-6-9-10-9-9-6-9-6-7-10-16-13-22-8-18-8-20-3-9-3-10-5-16-7-27-5-30-4-44-1-1v-40z" fill="#6B6866"/>
<path transform="translate(330,8)" d="m0 0h7v2l-23 3-6 2-13 3-10 3-6 5-10 3-15 9-9 6-10 5-3 1v2l-14 8-11 8-10 8-6 4-6 5-32 32-6 8h-2v2l-5 5-11 13-5 8-7 9-8 12-5 9-4 8-10 19-4 7-11 21-7 16-3 2-2 7-5-1 4-13h2l2-5 3-7 2-3h2l-1-4-3-1v-2h-2l-3 3 2-6 12-24 12-21 11-16 13-17 8-10 11-14 24-26 13-13 8-7 13-11 17-12 19-12 30-15 22-8 26-6z" fill="#3E3B3A"/>
<path transform="translate(41,466)" d="m0 0h2v2l4 1 4 2 7 1v2l5-1 3 1 11 1 2 2 7-1 5 5 15 3 10-2 4 3 1 15 1 44 2 13v-23h1l4 44 5 30 7 27 3 10 10 30 8 20 8 16 8 14 10 16 7 10 7 9 7 8 10 10 7 8-4-6-4-4 1-2 17 17v2l4 2 5 6v2h2v3l2 1-4-1-6-4-5-5-7-6v-3l-4-1v-2l-4-2-7-8-7-6 1 5 7 8 7 6 5 5 13 12 6 5v2l4 1v2h2l4 4 6 2v3l-9-1-1-1-9-2-16-4-10-4-12-5v-2l-9-3-4-1v-2l-9-3v-2l6 2 23 11 14 5 9 3v-2h-3l-1-5h-5l-2-3-9-3-6-4-4-8h4l9 3-1-5-9-10-9-12-10-14-10-15-9-16-8-15-11-27-12-36-4-14-5-23-4-24-4-37-1-32-1-11-5-1-1-1-7-1-7-2-5 1-5-7h-4l-3 3-2-4-8-3-13-3-3-2-8-1-3-3h-4l-2 3h-2l-1 10v23l2 24 2 19 5 25 3 16 4 15 6 20-1 4-3-8v-4h-2l-6-18-1-12-2-7v-4h-2l-4-23-3-25v-57l2-9z" fill="#6A6664"/>
<path transform="translate(397,52)" d="m0 0 3 1 2 2 23 6 15 3 6 2 27 2 9 4 9 1 7 4h7l26-12 18-6 20-5 9-2h12l-3 2-9 2h-12v2h-4l-1 3-23 7-19 9-16 9-8 5-3 3-6 1v2l-11 9h-3v2h-2l-1 3-12 9-10 8-8 8h-3l-2 4-12 13-4 4h-2l-2 4h-2l-2 4-8 10-4 2-1 4-5 6-6 7-3 5-8 11-4 7-5 5-6 9-5 6h-5v-3h-5l2-5 11-20 9-11 4-5 5-4h2l2-4 6-4 4-1 2-3 4-1 4-5 5-4 7-8 2-3h2l2-4 9-9 3-4h2l2-4 7-5 5-5 11-9 5-4h2v-2l12-9h2v-2l5-3 1-2-5 1-10 4-7 1-13-4-23-3-21-3-20-5-17-3h-5l-4-2h-7l-3-3 5-2 13 2 10 2 13 2 11 3 6 2h10l13 1 8 1h17l23-2 5-2 1-2 4-2 1-2-13-2-2-1v-3l-25-2-1-1-13-2-3-2-9-1-20-5-8-3z" fill="#797674"/>
<path transform="translate(256,561)" d="m0 0h1v7l6-3 3 3 4 32 2 24 3 21 1 9 2 9 3 15 4 13 2 11 3 8 4 13 6 14 6 16 4 10 7 14 1 3 2 1 3 8 4 7 4 9 2 4v3h2l3 5 6 4 12 13 14 15 5 8-1 2-7-3v-2l-3-1 4-1-7-8-6-6v-2l-5-1-9-9-15-21v-3l-3-1v-2l-4-1-9-14-7-14-10-19-9-22-8-26-8-33-8-42-2-17-2-35z" fill="#3D3A39"/>
<path transform="translate(230,171)" d="m0 0 1 3-10 13-18 30-12 21-7 14-9 20-10 19-12 36-9 32-3 12-2 18h3l4-17 1-5h1v8l-3 9-3 12-5 1-1-3v-15l2-6 1-7h-2l-2 9-1 3h-2l-2 11-3 5-4-2v-3l-7-2-7-6-3 3-8 1-9-4-3-4h-2l-1 2-7 1-4-6h-6l-3-3h-5l-5-2h-3v2l-4 1-1 2v-13l3-11 1 3-2 8h2v-3l3-1 2-3 6-2 7-2 4 2 3 1 4-1 1 9 11-1v5l12-1h9v-2l3 1 2 7 10 2 3 6 2-3 4-11 10-28 8-25 8-22 8-17 9-17 7-16 6-11 10-17 7-10 7-11 8-11z" fill="#787573"/>
<path transform="translate(363,234)" d="m0 0h1v8l-4 8-4 2-3 10-3 7h-2l-1 6-4 8-1 4h-2l-1 5-14 31-4 9-9 26-10 33-5 17-10 41-6 37-3 29-1 29v19l-1 15-1 4-1 5h-1l-2-17-2-28v-20l3-22v-13l4-14 2-13 9-41 10-37 4-11 4-13 12-32 8-19 7-15 10-23 13-23 6-10z" fill="#0A0909"/>
<path transform="translate(16,452)" d="m0 0 2 3v26l1 22 1 8v6l1 5 1 21 4 26 2 11 2 13 3 12 4 15 6 17 9 24 10 24 14 24 10 15 7 11 2 2-1 4-9-10-14-20-12-20-12-22-9-20-9-24-9-29-6-27 1-5 1-2-2-16v-9l-2-26-1-27 1-20 2-10z" fill="#3C3A39"/>
<path transform="translate(471,43)" d="m0 0 31 1 19 3 14 1 2 1h11l-1-2 12 3 10 1v1l-17 4-23 7-14 5-5-2-13-3 2-2 5-1v-3l-15 1-13 3h-17l-10-2-9-3-8-3-15-2-1-2 19-4 11-1z" fill="#E7E6E4"/>
<path transform="translate(526,497)" d="m0 0h1l3 21 4 8 5 9v2l6-1 10 11 9 4 2 1h19l12-1h6l2-1 2-5 8-6 1-2 5-1-3-2 3-11 8-5 1 4-2 7-5 8h-2l-2 5-11 11-5 4-1 3-14 7-5 1h-14l-11-4-10-5-2 7-9 16-15 28h-2l-1 3-6-1-1-3 4-7 15-27 10-19-1-4-9-15-3-9-2-20z" fill="#2C2C2C"/>
<path transform="translate(395,53)" d="m0 0 2 1v2l13 4 12 2 4 1 7 2 8 2 7 1 3 1 20 2 3 1v3l11 1 4 2-2 4h-3l-1 3-5 2-23 2h-21l-7-1-16-1-8-1-4-2-9-2-21-3-5-2-10-1-16 7h-2l1-3 15-6 6-1 13 2 6 1 7 1h11l6-2 5-5 3 2h8l6-3h4v2l5-1 1-3h-29l-7-3v-2h-3l-3-5z" fill="#6B6866"/>
<path transform="translate(67,226)" d="m0 0 3 1v2l3 3v2h-2l-2 4-4 9-1 2h-2l-2 10-1 3h3l2-6 3-2-1 6-10 25-9 29-6 21-5 19-4 9v4l-2 1-2 9-4 1-1-3 1-14-1-4 1-5 1-4 1-1-1-3 2-3-2-2 1-8 13-41 7-20 12-29 5-11z" fill="#2C2C2C"/>
<path transform="translate(125,496)" d="m0 0 2 2 4 22 5 56 2 8 3 21 6 26 7 27 5 15 12 27 14 28 9 14 5 7 1 3 5 5 8 10 3 5 9 10 2 5-7-6-9-10-9-9-6-9-6-7-10-16-13-22-8-18-8-20-3-9-3-10-5-16-7-27-5-30-4-44v-37z" fill="#B7B4B1"/>
<path transform="translate(450,41)" d="m0 0h34l19 1 5 1 17 1 8 2h5l-4-2v-2l10 3 5 5h-12l-2-1-14-1-19-3-31-1-25 1-17 2-12 3 19 3 5 3 11 3 7 1h17l13-3 12-1 3 1v3l-5 2v1l11 2 5 2 27-9 21-6 6-1h31v1l-22 1-9 2-23 6-18 6-23 11h-7l-7-4-9-1-9-4-27-2-14-4-15-3-15-4-4-3 11-4 21-5z" fill="#B7B4B1"/>
<path transform="translate(212,757)" d="m0 0 5 5 10 11 7 8 7 7 8 7 4 3h9l6 3 10 7 13 5 4 1 4-1 7 2 2 4 4 1 2 2 9 2 13 7 3 3 7 4-6-9-8-11-11-17v-2h2l3 3 4 7 10 14 9 10 2 2 4 1 7 8 5 5 1 3-3 1 2 2-11-1-9-2 1-3-10-2-7-3-8-2v-2l-10-2-10-4-1-3-6-2v-2l-6-1-9-4-5-3v-3h-2v-2l-5-1-7-3-12-11-8-7-11-10-6-7-5-4-5-10h-2z" fill="#84817E"/>
<path transform="translate(41,466)" d="m0 0h2v2l4 1 4 2 7 1v2l5-1 3 1 11 1 2 2 7-1 5 5 15 3 10-2 4 3 1 15 1 44 2 18v11h-1l-3-28-1-32-1-11-5-1-1-1-7-1-7-2-5 1-5-7h-4l-3 3-2-4-8-3-13-3-3-2-8-1-3-3h-4l-2 3h-2l-1 10v23l2 24 2 19 5 25 3 16 4 15 6 20-1 4-3-8v-4h-2l-6-18-1-12-2-7v-4h-2l-4-23-3-25v-57l2-9z" fill="#635F5E"/>
<path transform="translate(134,382)" d="m0 0h1l-1 30-2 19v6h1l5-24h2l1-8 5-21h1v13l-1 7-2 29-2 19-1 20-3 20-3 13-1 2h-2v-3h-2l-1-28 2-26 1-4h-2l-3 24h-2v10l-3 13h-1v-28l4-40 1-6 1-18 4-14z" fill="#2C2C2C"/>
<path transform="translate(316,290)" d="m0 0 3 6-5 16-7 19-7 20-6 18-6 20-12 50-2 10-1 17-4 16-2 3v-2h-2l-1-4v-10l3-26 5-25 4-15 4-20 12-36 14-37 3-7 5-12z" fill="#100F0F"/>
<path transform="translate(153,366)" d="m0 0h1v10l9 3 6 3 7 2v2h3l3 4 8 1 4-2 4 3 5 2 4 3 4-1 3-3 8-2 1-5 5-10 2 3-1 4v15h5l5-3 2 6h5l3-10 7-20 2-1-5 25v9l4-1 4-5 1 1v9l1 3 7-1 3-6h1l-1 8h-2v6l-5 7h-2v-2h-4l-2-8h-6l-3-3v-8l1-2h-2l-2 6-3 3-5-1-7-1-2 1-5-5-1-8-6 8h-6l-3 2-4-1-3-4-7-2v-2l-5 2h-8l-8-5-4-1-9-3-3-2-5-1-1-2v-10z" fill="#797674"/>
<path transform="translate(409,28)" d="m0 0h66l15 2h10l14 4v1l-9 1-38-1h-11l-28 4-17 4-11 4-6 1-14-2-6-1-5-1h-11l-8-1 4-4 16-5 16-2 13-3z" fill="#B6B3B0"/>
<path transform="translate(50,337)" d="m0 0h2l-1 8-1 5h-2l-2 11v11l4-1v-2l5-1 5 2 4 1 2 2h6l4 6h7l1-3 3 1 5 5 6 2 10-1 1-3 7 6 7 3v3l4 1 3-7 2-8h2l2-9 1-3h2v7l-2 6v18l4-1-1 7-3 3-2-7-1-15-3 7-6 24-4-2-5-10-3-1v-2l-3-1v-2l-6 2-5 2h-5l-9-9-12-2-4-4-6-2-7-2-7-1-3 2h-3v-16l5-25z" fill="#4F4B4A"/>
<path transform="translate(421,14)" d="m0 0 19 4v2h-75l-15 2-21 4-17 5h-2l3 3 10 2v3l-14 6-24 10-10 3h-9l-2 1v-3h-8l-16 9-14 10-11 8-10 8-5 5-10 9-2-1 3-5 10-8 13-11h2v-2l9-6h2v-2l11-7 10-7 32-16 19-8 20-7 11-3 12-2 8-2 10-1h52l8 1z" fill="#63605E"/>
<path transform="translate(636,451)" d="m0 0 2 2 2 17-1 5-2 17h-2l-1 13h-2l-1 4 1 4h2l2-9 2-5 3-6 1 3-6 19-2 7 13 13 8 6 4 4 7 4h5l4 6v6l-4 6-5 3-1 8-3 1-4-4-3-5 1-5 2-3v-5l-4-2-10-8-14-14-3 1-7 10-12 12-4 3h-2l2-4 12-11 4-5 1-2h2l2-5 4-8v-5l-7 4-3 11 2-1v3l-5 1-1 3-8 6-2 5-5 1h-6l1-2 9-5 4-2 2-4 6-9 7-14 4-6 7-19 2-9z" fill="#2C2C2C"/>
<path transform="translate(440,21)" d="m0 0h8l1 1 19 1 28 6 3 2h-9l-15-2h-66l-16 2-9 2-14 2-11 3-9 2-9 4-24 9-21 8-10 3-5 1 1-3h2v-2l12-5h5v-2l10-5 8-3 12-6 24-8 21-5 11-2 13-1 29-1z" fill="#353333"/>
<path transform="translate(406,47)" d="m0 0h2l-1 3-12 4h-2l-1 4 2 4h3l3 3 5 1h26l2 1 1 4h-7v-2l-10 4-8-1-1 2-3-3-4 5-6 2h-11l-7-1-6-1-17-2-9 4-8 3-2 4-7 4-9 6-4 3-3-1 5-6 14-10 4-3 7-3 11-8 9-5h2v-2l16-6 9-3z" fill="#5F5B5A"/>
<path transform="translate(727,606)" d="m0 0 4 2 1 3-2 7-4 10h-2l-2 9-5 4-3 9-1 5 1 7-3 4 1 7-1 7-1 5-2 2-6-1-2 4-3-1-1-11-1-4h-5l-10 9-2 2-6 1 3-6h2v-2h2l2-4h2l3-6h2l2-5 4-5 2-5 10-13 3-3 4-8h2l2-5 6-10z" fill="#3C3938"/>
<path transform="translate(380,611)" d="m0 0 4 2 7 6 10 18v2h2l3 4 3 7 4 9 3 8 2 10-1 7-3 3-8-4-4-4-4-9-2-7-8-15-3-5-2-6-3-1-1-13-1-9z" fill="#3D3A39"/>
<path transform="translate(536,72)" d="m0 0h5l-1 4-8 10-7 2-5 1-9 4-8 5h-2v2h-2v2l-5 5-6 5-4 1v2l-4 3h-2l-1 3-10 7-5 5-17 8-6 3-5-1 1-2h2l2-4 8-7 10-9 10-8 17-13 13-8 15-8h4v-2l16-9z" fill="#0A0909"/>
<path transform="translate(479,100)" d="m0 0 2 1-6 5h-3v2h-2l-1 3-12 9-10 8-8 8h-3l-2 4-12 13-4 4h-2l-2 4h-2l-2 4-8 10-4 2-1 4-5 6-6 7-3 5-8 11-4 7-5 5-6 9-5 6h-5v-3h-5l2-5 11-20 9-11 4-5 5-4h2l2-4 6-4 4-1 2-3 4-1 4-5 5-4 7-8 2-3h2l2-4 9-9 3-4h2l2-4 7-5 5-5 11-9 5-4h2v-2l12-9z" fill="#787573"/>
<path transform="translate(312,95)" d="m0 0 2 1-1 4-13 11-3 3h-2v2l-8 6-19 19-3 4h-2l-1 4-6 7-7 10-8 11-12 15-10 15-12 21-8 15-9 17-8 19-15 40-9 30-3 15-2 2 1-12 4-16 2-9-3 3 3-13 5-12 4-8 6-15 5-12 9-20 7-14h2l1-4 14-25 9-14 27-36h2l2-4 9-11 4-5h2l1-4 4-4 1-2h2l2-4 13-13 20-16z" fill="#74716F"/>
<path transform="translate(371,215)" d="m0 0 1 3-9 14-4 9-14 24-10 22-7 15-4 10-6 14h-2l-2 5h-2l-1 2-1-5 4-11 6-13 3-8 2-5 3-5 1-1 3-14 3-12 1-5h-3l2-6 9-14 4-1 2 1v3l6-2 8-11 5-7h2z" fill="#3D3A39"/>
<path transform="translate(230,171)" d="m0 0 1 3-10 13-18 30-12 21-7 14-9 20-10 19-12 36-9 32-3 12-2 18h3l4-17 1-5h1v8l-3 9-3 12-5 1-1-3v-15l2-6 1-7h-2l-2 9-2 3-1-5 11-32 5-14 10-30 7-17 9-17 12-26 6-10 6-11 12-18 7-11 10-13z" fill="#625E5C"/>
<path transform="translate(144,501)" d="m0 0h11l19 3 16 4 4 3v2h7l5 5v2l2-1h8l7 2h7l2 4h12l5-3h3l2 5v9l-1-3h-6l-5 1-12-2-11-5-4-2-7 1-3 1-3-5-12-6-13-3-13-2-10-3h-13v3h-2v13l3 40v5l-2-4-3-35v-23l5-5z" fill="#797674"/>
<path transform="translate(236,36)" d="m0 0 2 1-2 3h-2v2l-7 4-5 4-5 1v3l-3 2-1 3-7 2-7 6-6 5-9 6-3 1-2 4-15 16-5 5-8 6-1 3-3 2v3l-3 1-1 4h-2l-2 5-5 5-3 1-1 4-4 5h-2v3l-5-1-13 13 2-4 12-16 10-12 9-11 9-9 7-8 15-15 8-7 13-11 17-12 19-12z" fill="#B6B3B0"/>
<path transform="translate(139,580)" d="m0 0h2l5 23 4 20 6 26 6 15 5 12 6 17 2 2v3h2l5 12 1 5h2l2 10 4 2 7 11 1 4 4 1 9 12-1 2-2-1-3-5-6-5 2 5 5 5-1 3-4-4v-2l-3-1-5-9-7-10-7-12-11-23-11-25-7-22-3-11-1-12-3-11-4-21z" fill="#484544"/>
<path transform="translate(148,390)" d="m0 0h1v10l6-1 21 6 4 2h13l5 2 6 5 9 2 2 1 2-5 4-3 3 9 9 1 5 3h5l2-5 2 3 1 6h10l3 3 5 1 2-1-2 9-1 1-9-1-9-2-2-6-4 1-3 2-6-5-2-3-9-3-3-3-4 8-3 2-3-7-8-4v-2h-2l-3-3-7-1-10 1-7-3-7-2-4-1-11 1-1-1z" fill="#504C4B"/>
<path transform="translate(742,785)" d="m0 0 1 2-9 11-12 13-23 23-11 9-13 11-18 12-21 12-21 10-19 7-7 1 4-4 7-2 4-2h3v-2l6-3 10-4 5-5 8-4 8-3 6-4 4-1v-2l14-8 4-2 1-2h2l2-4 6-5 5-3 5-5h2l2-4 8-7 6-3 10-10 4-7 2-3h2v-2l4-1 3-4h2v-2z" fill="#111010"/>
<path transform="translate(330,8)" d="m0 0h7v2l-23 3-6 2-13 3-14 4-4 1-5 2-7 3h-3v2l-15 6-11 8h-2l-1 3-7 4-7 6-7 4-14 11h-2v2l-7 4-5 6-5 4h-2l-2 5-5 5h-2l-1 3-6 5-5 5-10 11-1 2h-3l-2 5-4 2 1-3 3-3 1-2h2l1-5 2-1 2-4h2l1-4 7-5 14-14 7-8 5-5 9-6 6-5h2l2-4 4-3h6l1-4 3-1v-3l6-3 8-6h3v-2l6-6 22-10 21-7 22-5z" fill="#676462"/>
<path transform="translate(496,612)" d="m0 0 7 1 6 4 1 8-2 10-5 8-10 21-10 19-3 6-5 2 2-9 8-16 6-11 1-6 2-3 1-5-7-6 1-9 4-9z" fill="#2C2C2C"/>
<path transform="translate(440,18)" d="m0 0 21 4v1h-12l-1-1-19 1-29 1-18 2-20 4-11 3h-21l-5-2 3-3 6-2h4v-2l16-4 11-1h49l26 1z" fill="#B7B4B1"/>
<path transform="translate(184,105)" d="m0 0 4 1-3 3h-2v2l-8 7-6 5h-2v2l-9 5-6 5-4 8 5-4 7-1-2 5-9 10-3 5-9 6v-2l-4 4-8 10h3v2l4 1v2l-9 6-7 9-6 10-3 3-4 8-9 16-3 4 1-6 10-19 7-14 4-4 3-5h2l1-5-3-1 2-6 3-4h3v-2h2l2-5 3-3 2-6 3-6h2l2-6 4-6 11-9 10-9 4-2 3-3 8-7z" fill="#767371"/>
<path transform="translate(142,491)" d="m0 0h8l14 2 10 2 23 6 2-4 5 2 2 4 16 2 5-3 7 1 2 5 6-1 3-3 5-1 5 3 1 4v47h-1l-1-38-3-4-4-1-3 2-9 1-5-4-13-2-9-1-7-6-7 1-9-3-16-4-20-3h-7l-4 5 1-7z" fill="#504C4B"/>
<path transform="translate(204,768)" d="m0 0 8 6 7 7 5 6 3 1v3l4 2 8 7 1 2 5 3 2 1 1-3 7 6v2l5 2 4 3 7 3 11 7 4 5 7 2v3l-11-3-12-2-19-3v-3l-14-5 4-1 9 2 5 2 5 1v-3l-6-1-4-3v-2h-2v-2l-4-1-4-5-8-7-12-10-5-6-11-11z" fill="#5A5655"/>
<path transform="translate(149,382)" d="m0 0h1v11h6l7 3 5 2 8 2 6 3 10-1 8 3 2 4 8 1 4-1 3-1 4-6h2l2 10h8l3 2 6 1 4-6h2l1 10 3 1 5-1 3 5 4 3h2l3-8 2-1-2 9-4 4-5-2-2-2h-8l-3-3-2-5-4 4-4-1-9-3-4-1-4-8-5 7-13-3-5-5-4-1h-13l-10-4-15-4h-6z" fill="#5F5B5A"/>
<path transform="translate(50,337)" d="m0 0h2l-1 8-1 5h-2l-2 11v11l4-1v-2l5-1 5 2 4 1 2 2h6l4 6h7l1-3 3 1 5 5 6 2 10-1 1-3 7 6 7 3v3l4 1 3-7 2-8h2l2-9 1-3h2v7l-2 6v18l4-1-1 7-3 3-2-7-1-15-3 7-4 9-3-1-1-2-11-6v-2h-4l-2 2-6 1-11-4-4-4-8 1-4-4-9-2-1-3-11-2-4 4-4 1v-19l4-18z" fill="#5F5B5A"/>
<path transform="translate(203,772)" d="m0 0 7 6 5 5 6 7 11 9 12 11v2l4 1v2h2l4 4 6 2v3l-9-1-1-1-9-2-16-4-10-4-12-5v-2l-9-3-4-1v-2l-9-3v-2l6 2 23 11 14 5 9 3v-2h-3l-1-5h-5l-2-3-9-3-6-4-4-8h4l9 3-1-5-9-10-3-4z" fill="#827F7D"/>
<path transform="translate(629,518)" d="m0 0 1 4-2 7-5 8h-2l-2 5-11 11-5 4-1 3-14 7-5 1h-14l-7-2v-4h-2v-2l-5-2 2-5 5 1 2 1v2l6 1 1 2 9-2-1-3h9v-2l12-2 5-1 2-5 8-6 1-2 5-1-3-2 3-11z" fill="#3C3938"/>
<path transform="translate(474,44)" d="m0 0h28l19 3 14 1 2 1h11l-1-2 12 3 10 1v1l-17 4-17 5-14 1-1-4 5-3v-2l-10-1-24 1-6-2-1-2-8-2z" fill="#FBFAFA"/>
<path transform="translate(283,20)" d="m0 0 2 1-6 5-10 3-15 9-9 6-10 5-3 1v2l-14 8-11 8-10 8-6 4-6 5-32 32-6 8h-2v2l-5 5-11 13-5 8-7 9-8 12-5 9-2 1 2-7 2-2 2-7 3-1 2-6 2-3h2l1-4 4-5h2l2-5h2l2-5 3-1 2-5 6-7 1-2h3l2-4 9-10 5-5 3-1 1-3 3-3h2l2-4 3-1 2-5 10-8 4-4 5-2v-2l11-8 9-7 7-4 7-6 3-1 3-3 11-8 13-5h2v-2l12-5 3-1 4-1z" fill="#363434"/>
<path transform="translate(65,350)" d="m0 0 9 3 4-1 1 9 11-1v5l12-1h9v-2l3 1 2 7 10 2 3 6 2-3h2l-1 6-1 2-4-1-3-4h-7v-2l-4-2-1-3-8 2-10-1-5-2-2-3-6 3v-2l-3 1-3-7h-6l-4-3h-9l-5 3h-2v2h-2v-3h2v-3l3-1 2-3 6-2z" fill="#85827F"/>
<path transform="translate(146,384)" d="m0 0h1v13l-7 59-3 33-2 10-3 1-1-7v-18l4-36 5-31z" fill="#0A0909"/>
<path transform="translate(600,51)" d="m0 0h27v1l-26 1-9 2-15 4-17 6h-7l-16 5-5 2-1 3-13 7h-2v2l-8 3-18 10-14 10-22 18-10 9h-2l-1 3-8 7-23 23v-3l6-7 8-7 11-12 1-2 5-3 4-5 11-8 11-9 3-3h2v-2l7-4 4-2 1-3h2v-2l7-3 6-5 11-6 17-9 13-6 21-6 1-2h4v-2l17-2 7-2z" fill="#3A3837"/>
<path transform="translate(321,799)" d="m0 0h2l3 3 4 7 10 14 9 10 2 2 4 1 7 8 5 5 1 3-3 1 2 2-11-1-9-2 1-3-10-2-7-3-8-2v-2l-10-2-10-4-1-3-6-2v-2l-6-1-9-4-5-3 2-1h8l2 4 12 6 9 4 5 2v2l12 2 7-1 7 4 9 3 6 4-2-5-13-16-5-5-7-10-7-11z" fill="#6B6866"/>
<path transform="translate(145,497)" d="m0 0 14 1 15 3 8 2 9 3 3 2h8l4 6v2l11-2 9 1 6 4 2 2 11-2h8l2 6 2 51 1 14v13h-1l-2-22-1-19-1-35-1-5-7 3-5 1h-8l-3-4h-8l-5-2h-10l-2-5-10-2v-2l-9-3-11-3-19-3h-11l-4 3h-2l2-5z" fill="#6D6A68"/>
<path transform="translate(153,366)" d="m0 0h1v10l9 3 6 3 7 2v2h3l3 4 8 1 4-2 4 3 5 2 4 3 4-1 3-3 8-2 1-5 5-10 2 3-1 4v15h5l5-3 2 6h5l1-2-1 5-4 3-3-1-3-3-4 1-3 2-3-6v-11l-1-1-3 7h-2v3l-5 2-4 1-5 2-5-5-6-3-5 1h-8l-10-7-9-2-6-4-5-2v-10z" fill="#868380"/>
<path transform="translate(16,452)" d="m0 0 2 3v26l1 22 1 8v6l1 5 1 21 4 26 2 11 1 5v8l-2-2-5-28-1-12-2-12-2-13-1-3 1-2h-2v16h-1l-2-26-1-27 1-20 2-10z" fill="#2C2C2C"/>
<path transform="translate(456,34)" d="m0 0h15l45 1 17 6 2 3 4 2v1l-10-1-4-1-17-1-5-1-19-1h-34l-14 2h-6l3-1v-2l13-2 29-1h7l-3-1h-14l-18-1v-1z" fill="#797674"/>
<path transform="translate(541,445)" d="m0 0h1l-1 7-3 17-3 14-1 10v12l4 16 6 13v2l-5 1-5-9-5-10-2-11v-18l3-19 5-17 4-7z" fill="#3C3938"/>
<path transform="translate(601,52)" d="m0 0h43l27 3 6 2-5 4-11-2-3-2h-26l-6-1-24 3-14 3-15 3-16 4-7-1 2-2 20-6 15-5 12-2z" fill="#0D0C0C"/>
<path transform="translate(418,29)" d="m0 0h54v1l-33 5-18 3-16 4-7-1-9-1-10-2v-2l7-1 12-3 7-2z" fill="#FCFCFC"/>
<path transform="translate(312,95)" d="m0 0 2 1-1 4-13 11-3 3h-2v2l-8 6-19 19-3 4h-2l-1 4-6 7-7 10-8 11-12 15-10 15-8 13h-2l1-5 9-16 14-19 10-13 6-8h2l2-4 9-11 4-5h2l1-4 4-4 1-2h2l2-4 13-13 20-16z" fill="#73706E"/>
<path transform="translate(663,655)" d="m0 0 3 1-1 4-8 8-8 7-10 10-7 8-6 5-19 19-4 2-4-1v-5l8-7 11-9 17-17 5-4 1-2h2v-2h2v-2l8-7z" fill="#2D2D2D"/>
<path transform="translate(42,471)" d="m0 0 4 4 9 2 1 1 12 2 8 1 4 3v2h3l1-3 4 2 6 5 7 1 7 2 10-1 1 1 1 8v12h-1l-1-11-5-1-1-1-7-1-7-2-5 1-5-7h-4l-3 3-2-4-8-3-13-3-3-2-8-1-3-3h-4l-2 3h-2l-1 7h-1v-8l3-5z" fill="#797674"/>
<path transform="translate(384,229)" d="m0 0 5 2 5 5 4 5-1 7-4 4-1 3-3 2h-10l-3-3-3-6v-8l3-6 5-4z" fill="#0A0909"/>
<path transform="translate(406,47)" d="m0 0h2l-1 3-12 4-7 4-10 4-8 4h-3v2l-19 9-11 4-2 4-7 4-9 6-4 3-3-1 5-6 14-10 4-3 7-3 11-8 9-5h2v-2l16-6 9-3z" fill="#2F2E2E"/>
<path transform="translate(142,494)" d="m0 0 13 1 14 2 16 4 9 3 7-1 7 6 19 2 7 4 5 1 7-2 2-1 5 3 2 3v6l-2-4v-2l-16 3-4-1-5-4-2-1-11-1-9 1-4-7h-8l-5-3-9-3-6-1-16-3-13-1-4 2-3 5h-2l1-5h2l2-5z" fill="#5F5B5A"/>
<path transform="translate(509,407)" d="m0 0 1 2h4v2l5 2 12 11 3 2v2l4 2 4 4-5 10-5-2-7-8-8-7-11-12-1-5 1-2z" fill="#2C2C2C"/>
<path transform="translate(169,721)" d="m0 0 3 1 4 6 4 10 4 5 2 1 2-3 7 10 7 9 7 8 10 10 7 8-4-6-4-4 1-2 17 17v2l4 2 5 6v2h2v3l2 1-4-1-6-4-5-5-7-6v-3l-4-1v-2l-4-2-7-8-7-6-1 3-4-2-13-18-10-15-8-14z" fill="#5F5B5A"/>
<path transform="translate(259,580)" d="m0 0 3 1 2 29 2 4v7l2 11 1 9 2 5 1 7 2 9 2 7 2 13 1 8-2 3-2-11h-2l-5-21-1-9-1-1-3-14-2-11-3-44z" fill="#2E2E2E"/>
<path transform="translate(632,425)" d="m0 0h2l5 10 4 12 2 16-1 17-2 13-3 6-3 9-2 5h-2l-2-5 2-3h2l-1-5 2-8h2l1-21 1-3-2-15-1-5 2-2-4-9-3-2-2-7z" fill="#3D3A39"/>
<path transform="translate(53,364)" d="m0 0 6 1 4-1 3 1 1 3h7l2 5h8l1-2 4 4 5 2h6l3 1 7-2 5 5 10 4v3l5-1-2 6h-3l-2-1v-3l-7-2-7-6-3 3-8 1-9-4-3-4h-2l-1 2-7 1-4-6h-6l-3-3h-5l-5-2h-3v2l-4 1-1 2v-3h2v-3h3v-2z" fill="#6C6967"/>
<path transform="translate(147,504)" d="m0 0 23 3 13 3 4 1 11 6 4 1 4 5 8-1 9 3 8 4h14l3-3 3 1 2 3v3h-6l-5 1-12-2-11-5-4-2-7 1-3 1-3-5-12-6-13-3-13-2-10-3h-13v3h-2v13l3 40v5l-2-4-3-35v-19l3-5z" fill="#84817E"/>
<path transform="translate(440,21)" d="m0 0h8l1 1 19 1 28 6 3 2h-9l-15-2h-76v-2l3-1 24-1h-39v-1l13-1 29-1z" fill="#53504F"/>
<path transform="translate(403,873)" d="m0 0 9 2 2 3 3 1v2l5 1 9 4 12 5 13 4 5 2 14 2 6 2 14 2 15 3 1 3h-18l-28-6-28-10-23-11-11-7z" fill="#121111"/>
<path transform="translate(683,571)" d="m0 0 5 1 8 10 6 5 5 5 6 8 1 6-5 1-10-9-4-3v-2l-4-2-9-7-3-4v-5z" fill="#2C2C2C"/>
<path transform="translate(760,502)" d="m0 0h3l1 5-1 11-1 4-1 5-3 18-2 2v7l-8 16-4 4-2-1 2-8h2l1-13 7-23 4-16z" fill="#3A3837"/>
<path transform="translate(774,709)" d="m0 0 5 2 4 8v7h2l-2 5-4 6h-9l-4-2-1-4v-11l4-8z" fill="#0B0A0A"/>
<path transform="translate(40,462)" d="m0 0 4 1 1 3 4 1h8l15 4h5v2h4l6-5 3 8 6 1 8 2h5l7-8 3-1v15l-5-2-8 2-15-3-1-3-6-2-5 1-2-2-11-1-8-1v-2h-8l-7-4v-2l-7 4 1-5 3-1z" fill="#504C4B"/>
<path transform="translate(141,569)" d="m0 0 2 2 2 18 3 13 1 9 2 5 3 17 6 16 7 22 5 12 11 25 11 21 3 5 4 6v2h-2l-4-7-6-9-3-3-1-8h-2l-5-11-1-6h-2l-5-10-5-15-10-24-8-34-4-21-2-18z" fill="#797673"/>
<path transform="translate(135,131)" d="m0 0 1 2-3 5-4 4-4 5-7 8-1 3h-2l-2 5-2 4-3 3-6 8h-2l-1 4-5 2 1-3-6 1 5-9 10-14 5-4 7-8 4-3 4 2v-3l5-5 2-4z" fill="#6D6A68"/>
<path transform="translate(122,443)" d="m0 0h1l-1 22v25l2-10 1-10h2v-10l2-12 1-2h2l-2 32v15l-3-4v-2h-2l-1 6v40l1 14v12l-2-2-2-13-1-44v-36z" fill="#2D2C2C"/>
<path transform="translate(349,77)" d="m0 0 16 1 5 2 15 2 7 2 11 3 25 3 11 2 19 2 17-1 8-4 4-3 5 1-1 4-1 3-4 1v2l-3 3-5 1v-2l5-3 1-2-5 1-10 4-7 1-13-4-23-3-21-3-20-5-17-3h-5l-4-2h-7z" fill="#868380"/>
<path transform="translate(578,52)" d="m0 0h12l-3 2-9 2h-12v2h-4l-1 3-23 7-19 9-16 9-8 5-3 3h-2v-2l7-6 4-4h3l1-3 10-5 3-3 13-6 18-6 20-5z" fill="#6E6B69"/>
<path transform="translate(354,46)" d="m0 0h7v2l7-1 6 2 1 2-11 2h-3l-1 2-8 2-4 2-9 1v-3h-2l-1 2h-9l-2-5 6-3 9-2z" fill="#605C5B"/>
<path transform="translate(359,21)" d="m0 0h32l2 2-15 2-20 4-16 4h-12l-5-2 3-3 15-4z" fill="#F9F9F8"/>
<path transform="translate(130,399)" d="m0 0 2 1-1 22-3 22-3 36-3 13h-1v-28l4-40 4-23z" fill="#0A0909"/>
<path transform="translate(173,697)" d="m0 0 2 2 1 2 1-3 5 12 1 5h2l2 10 4 2 7 11 1 4 4 1 9 12-1 2-2-1-3-5-6-5 2 5 5 5-1 3-4-4v-2l-3-1-5-9-7-10-7-12-8-16z" fill="#42403F"/>
<path transform="translate(77,683)" d="m0 0 4 5 9 17 8 11 5 7v2h2l8 11 12 13 17 17 2 1v2l4 2 9 7 12 8v2l5 1 7 4-2 1-9-4-10-6-1-3-5-1-11-9-15-16-10-10-3-1-9-11-12-16v-3h-2l-9-16-6-9z" fill="#585554"/>
<path transform="translate(51,671)" d="m0 0 3 3v2h2l1 4 4 2 6 12 12 20 7 10 7 11 2 2-1 4-9-10-14-20-12-20-9-16z" fill="#3F3C3B"/>
<path transform="translate(696,271)" d="m0 0 5 1-3 9-4 8-4 7-13 26-3 5-3-1v-6l13-25 4-8h2l1-7z" fill="#2B2B2B"/>
<path transform="translate(306,30)" d="m0 0 2 1-9 4-2 3 4 2v2h-2v3l-6 3-10 4-6-1 1-5-8 2-14 6-2-1 15-8 27-12z" fill="#504C4B"/>
<path transform="translate(147,111)" d="m0 0h3v2l-3 2v3l-3 1-1 4h-2l-2 5-5 5-3 1-1 4-4 5h-2v3l-5-1-13 13 2-4 12-16 10-12 9-11 5-3 2 1z" fill="#787573"/>
<path transform="translate(262,810)" d="m0 0 7 2 5 2v2h2l1 3 7 4 12 4 1 2 5 2 3 3 10 4 8 2v2l10 2 8 3 7 2v2l-10-1-40-12-4-2 4-1h3l-5-3-7-3-14-9-12-8z" fill="#373636"/>
<path transform="translate(440,36)" d="m0 0h39l4 2-2 1h-16l-21 1-11 1v2h-3v2l-14 3h-3v-2l-13 1 3-2 15-5z" fill="#706D6B"/>
<path transform="translate(330,8)" d="m0 0h7v2l-23 3-6 2-13 3-14 4-4 1-5 2-7 3h-3v2l-12 5-5 1h-7l2-2 22-10 21-7 22-5z" fill="#6C6967"/>
<path transform="translate(383,196)" d="m0 0 2 1-7 9-6 9-7 9-10 13h-5v-3h-5l2-5 2-4 5-3 5-5 8-2v-2l4-1 2-5 5-7h2l1-3z" fill="#5F5B5A"/>
<path transform="translate(151,360)" d="m0 0h1l-1 15-2 15-2 3-1-6-6 26h-2l-1 10-3 14h-3v-9l2-16 1-23h1l2 15 1 1 5-15 3-14 1-1 1-8h2v-6z" fill="#3B3837"/>
<path transform="translate(144,339)" d="m0 0 1 3v6l1 3-5 20-2 18h3l4-17 1-5h1v8l-3 9-3 12-5 1-1-3v-15l2-6 1-7h-2l-2 9-2 3-1-5 11-32z" fill="#757270"/>
<path transform="translate(849,231)" d="m0 0 3 3 7 23 8 36 2 12v9l-2-1-2-10-6-23-1-8-2-6-1-5v-11h-2l-3-8-2-9z" fill="#131212"/>
<path transform="translate(309,57)" d="m0 0h2v3h8l6 1 13 2 4-1v2l7-2v2l5 1-2 4-5 4-5 3-2-1 3-4v-2l-10-1-5-2-11-1-5 1-10-2-1-3z" fill="#777472"/>
<path transform="translate(283,20)" d="m0 0 2 1-6 5-10 3-15 9-9 6-10 5-3 1v2l-14 8h-3l4-2 1-3 10-8 3-1 3-3 11-8 13-5h2v-2l12-5 3-1 4-1z" fill="#2C2C2C"/>
<path transform="translate(40,470)" d="m0 0 5 1 5 2 9 3 17 3 4 3 6-2 8 7h9l5 2 8-2 3 2-1 4-11 1-8-3h-5l-8-7h-2l-1 2h-3v-2l-4-2-11-1-9-2-7-2-5-3-2-2h-2l-1 3-3 1 2-5z" fill="#6C6967"/>
<path transform="translate(479,100)" d="m0 0 2 1-6 5h-3v2h-2l-1 3-12 9-10 8-8 8h-3l-2 4-12 13-4 4h-2l-2 4h-2l-2 4-8 10-4 2 5-6 4-7 7-8h2l2-4 9-9 3-4h2l2-4 7-5 5-5 11-9 5-4h2v-2l12-9z" fill="#706D6B"/>
<path transform="translate(41,474)" d="m0 0 4 2 2 2 9 2 3 2h5l3 1 3-1 9 4 3 3 3-3 7 5v2h7l14 4h3l3 1 1 3v12h-1l-1-11-5-1-1-1-7-1-7-2-5 1-5-7h-4l-3 3-2-4-8-3-13-3-3-2-8-1-3-3h-4l-2 3h-2l-1 7h-1v-8z" fill="#85827F"/>
<path transform="translate(506,35)" d="m0 0h10l17 6 2 3 4 2v1l-10-1-4-1-17-1-5-1-19-1 4-2 7 1 1-2h7l2-1z" fill="#7E7B79"/>
<path transform="translate(498,643)" d="m0 0h1l-1 11-8 16-10 19-5 2 2-9 8-16 9-17z" fill="#3A3736"/>
<path transform="translate(204,768)" d="m0 0 8 6 7 7 5 6 3 1v3l4 2 8 7 6 7v2l4 2 3 2v2h-4v-2l-4-1-4-5-8-7-12-10-5-6-11-11z" fill="#2F2E2E"/>
<path transform="translate(139,580)" d="m0 0h2l5 23 4 20 6 26-1 4h-2l-5-17-8-40z" fill="#3D3B3A"/>
<path transform="translate(133,524)" d="m0 0 3 1 4 42 3 14v7h-1l-1-8h-2l1 3 2 18 5 25 1 2v8h-1l-4-17-3-14-2-14-2-25-2-32z" fill="#625F5D"/>
<path transform="translate(56,246)" d="m0 0 4 1-1 4-4 14-3 7-2 2v2l-2 1-1 5-4 12-3 1v-8l9-25z" fill="#141313"/>
<path transform="translate(248,402)" d="m0 0h2v12h8l2 7v2h4v2l4-3-1 5h-4l-7-7-6 1-2-2v-10l-3 2-3 5-7-2-4-1h-6l-2-4v-4h2l4 4 6-1 5 2 4-1z" fill="#6C6967"/>
<path transform="translate(160,291)" d="m0 0h3l-1 8-12 38-3 11-3 1 1-13 8-25z" fill="#625F5D"/>
<path transform="translate(316,828)" d="m0 0 6 1 9 3 11 6 4 3 4 1-2-5 5 5 2 4 1 3-5-2-3-3-10-3-5-3-8 1-9-2-2-1 1-3h3l-3-4z" fill="#787573"/>
<path transform="translate(356,34)" d="m0 0 1 2-8 3-1 2-7 3-16 6-5 2-9 2-14 5h-2v-2l11-4 9-3 1-2 9-4 5-1v-2l6-2 11-2z" fill="#383736"/>
<path transform="translate(421,14)" d="m0 0 19 4v2h-26l-64-1v-1l10-1h52l8 1z" fill="#383635"/>
<path transform="translate(230,171)" d="m0 0 1 3-10 13-24 40-2-2-2 1 2-5 7-11 8-12 7-11 10-13z" fill="#6C6866"/>
<path transform="translate(205,765)" d="m0 0 7 6 7 7 7 8-4-6-4-4 1-2 17 17v2l4 2 5 6v2h2v3l2 1-4-1-6-4-5-5-7-6v-3l-4-1v-2l-4-2-14-16z" fill="#787573"/>
<path transform="translate(321,799)" d="m0 0h2l3 3 4 7 10 14 9 10 2 2 4 1 7 8 5 5 1 3-3 1 2 2-11-1-1-2h9l-7-8-5-6-8-6-4-5-5-5-7-10-7-11z" fill="#4F4B4A"/>
<path transform="translate(391,185)" d="m0 0 1 2-7 9-4 2-1 2h-2l-2 5-5 7-4 1v2l-3 2-5 1-5 5-4 2 2-5 4-4 1-2h2l2-4 3-4 9-2 3-3 2-4 8-7z" fill="#6C6967"/>
<path transform="translate(487,86)" d="m0 0 5 1-1 4-1 3-4 1v2l-3 3-5 1v-2l5-3 1-2-5 1-10 4-7 1-12-4v-2h15l10-1 8-4z" fill="#868380"/>
<path transform="translate(146,121)" d="m0 0 1 4h-2v2l-5 5-11 13-5 8-7 9-8 12-5 9-2 1 2-7 2-2 2-7 3-1 2-6 2-3h2l1-4 4-5h2l2-5h2l2-5 3-1 2-5 6-7 1-2h3z" fill="#383736"/>
<path transform="translate(251,54)" d="m0 0 3 1h-2v3l-12 7-14 10-11 8-10 8-5 5-10 9-2-1 3-5 10-8 13-11h2v-2l9-6h2v-2l11-7 10-7z" fill="#4D4A49"/>
<path transform="translate(293,737)" d="m0 0 3 1v2l3 3 1 8v3h2l8 18 2 6h2l4 8 1 4-6-4-5-9v-4h-2l-4-7-3-9v-3h-2l-4-12z" fill="#2D2D2D"/>
<path transform="translate(405,30)" d="m0 0h10v1l-15 2 1 3 2 1h12l4-1h7v1l-19 4-7 1-7-2h-7l-7-2v-2l7-1 12-3z" fill="#E7E6E4"/>
<path transform="translate(564,900)" d="m0 0 5 1-1 2-24 5-8 1h-18l3-3 8-2h16l9-3z" fill="#151414"/>
<path transform="translate(190,75)" d="m0 0 3 1-4 2-5 6-5 4h-2l-2 5-5 5h-2l-1 3-6 5-5 5-10 11-1 2h-3l-2 5-4 2 1-3 3-3 1-2h2l1-5 2-1 2-4h2l1-4 4-3 4-1 1-2h2v-2l5-4h2l2-4 10-11 3-3z" fill="#5B5756"/>
<path transform="translate(163,665)" d="m0 0h2l11 28 14 29 6 9 3 6 2 5h-2l-4-7-6-9-3-3-1-8h-2l-5-11-1-6h-2l-5-10-5-15-2-5z" fill="#73706E"/>
<path transform="translate(121,173)" d="m0 0 1 2-3 4v2h5l-7 14-7 11-3 3-4 8-9 16-3 4 1-6 10-19 7-14 4-4 3-5h2l1-5-3-1 2-6z" fill="#434141"/>
<path transform="translate(697,63)" d="m0 0 6 1 20 9 10 6 1 4-8-2-8-4-7-3v-2l-5-1-7-4h-2z" fill="#131211"/>
<path transform="translate(756,96)" d="m0 0 5 2 15 13 15 16 3 3-1 3-5-4v-2h-2v-2l-4-2-5-5-6-5v-2l-5-2-7-6-1-3-2-1z" fill="#141313"/>
<path transform="translate(208,218)" d="m0 0 1 2 2 1-12 22-9 17-2 5-2-3 1-5 9-19h2l1-4z" fill="#7B7876"/>
<path transform="translate(251,396)" d="m0 0h1l1 8 4-1 4-5 1 1v9l1 3 7-1 3-6h1l-1 8h-2v3l-2 1-2 4-6-1-1-11-4-1-1 3-4-1z" fill="#84817E"/>
<path transform="translate(102,164)" d="m0 0 2 4 6-4 2 1-4 5-6 8h-2l-1 4-5 2 1-3-6 1 5-9 5-5z" fill="#5D5958"/>
<path transform="translate(164,707)" d="m0 0h2l4 8 3 1 6 10 5 9 3 4v6l-5-3-6-10-4-10-3-1-5-13z" fill="#4F4C4B"/>
<path transform="translate(760,689)" d="m0 0 6 1v3l-7 2v3l4 1v-2h3l-2 6 2 4-2 3h-2l-2-4-4-2-6 1-1-7 6-3 2-5z" fill="#3D3A39"/>
<path transform="translate(541,445)" d="m0 0h1l-1 7-3 17-3 14h-1v-16l-2 7-2 6-1-4 4-17 5-12z" fill="#373534"/>
<path transform="translate(353,248)" d="m0 0v3l-8 14-10 22-7 15-4 10-3 7-1-3 6-15 1-4h2v-6l2-5 3-4 1-3h2l3-10 5-11 3-5 3-1z" fill="#2C2C2C"/>
<path transform="translate(450,69)" d="m0 0 4 5h7v-2h7l-5 5-5 2-6 3-4-2-4-4-8-4v-1h8v-1z" fill="#605C5B"/>
<path transform="translate(275,694)" d="m0 0 2 3 4 11 3 12 7 20v3l4 1 2 6v4h2l3 7v5l-4-5-9-19-9-25-5-19z" fill="#716E6C"/>
<path transform="translate(124,534)" d="m0 0h1l5 57v11h-1l-3-15v-5h-2l-1-25h1z" fill="#5A5756"/>
<path transform="translate(40,389)" d="m0 0h1v15l-2 23v28l-3 7-1 7h-1l1-29 3-34z" fill="#2C2C2C"/>
<path transform="translate(403,169)" d="m0 0v3l-10 11-4 1-1 3h-3l-1 3h-3l-1 3-5 1v2l-5 1-1 3-5 3 2-4 5-6 5-4h2l2-4 6-4 4-1 2-3 4-1 4-5z" fill="#84817F"/>
<path transform="translate(116,741)" d="m0 0 7 6 19 19 2 1v2l4 2 9 7 12 8v2l5 1 7 4-2 1-9-4-10-6-1-3-5-1-11-9-15-16-12-12z" fill="#5E5B5A"/>
<path transform="translate(184,105)" d="m0 0 4 1-3 3h-2v2l-8 7-6 5h-2v2l-9 5-8 7h-2l-1 4h-2l-2 5-6 9-5 5 2-4 2-5h2l2-6 4-6 11-9 10-9 4-2 3-3 8-7z" fill="#4B4948"/>
<path transform="translate(401,24)" d="m0 0h25l1 2-28 1v2l-21 2-13 3-3-1 4-2 12-3h8l1-3z" fill="#2E2D2D"/>
<path transform="translate(312,95)" d="m0 0 2 1-1 4-13 11-3 3h-2v2l-8 6-3 3-3-1 3-5 7-7 20-16z" fill="#575452"/>
<path transform="translate(37,561)" d="m0 0h1l4 20 3 7 5 22 5 16 2 7-1 4-3-8v-4h-2l-6-18-1-12-2-7v-4h-2l-3-16z" fill="#575453"/>
<path transform="translate(130,446)" d="m0 0h2l-2 32v15l-3-4v-2h-2l-1 2 2-19 3-22z" fill="#3D3A39"/>
<path transform="translate(128,128)" d="m0 0 3 3v6l-5 6h-2v3l-5-1-13 13 2-4 12-16z" fill="#8F8C89"/>
<path transform="translate(429,39)" d="m0 0h8v2h-4v2h-3v2l-14 3h-3v-2l-13 1 3-2 15-5z" fill="#6D6A68"/>
<path transform="translate(397,52)" d="m0 0 3 1 2 2 23 6 15 3 6 2 9 1v1h-14l-8-2-7-2-11-2-16-4-4-3z" fill="#7D7A77"/>
<path transform="translate(259,611)" d="m0 0 2 4 2 17 3 12 1 7 1 1 2 14 5 20v8l-2-3-8-36-5-27-1-8z" fill="#6B6866"/>
<path transform="translate(352,38)" d="m0 0 4 1-5 3 8 1h10l9 1 6 2 10 1v2l-3 1h-12l-1-3-8-1h-21l-6 1 2-4h3v-3z" fill="#817E7B"/>
<path transform="translate(160,328)" d="m0 0 1 3-5 21-2 10-2 7-1-4v-4l-1 6h-2l1-9 7-26z" fill="#53504F"/>
<path transform="translate(255,807)" d="m0 0 5 2 15 10 14 9 14 7 1 2-11-1v-3l-7-1-5-6-16-10-9-7z" fill="#0A0909"/>
<path transform="translate(34,514)" d="m0 0h1l2 24 2 19 5 25-1 4-3-10-2-9v-6h-2l-3-25z" fill="#6A6765"/>
<path transform="translate(135,157)" d="m0 0 1 2-3 7-8 10h3v2l4 1v2l-12 8 2-5 2-3-5 1v-4l3-5h2v-2h2l2-5 3-3 3-5z" fill="#75716F"/>
<path transform="translate(164,315)" d="m0 0h1v10l-7 24-3 15-2 2 1-12 4-16 2-9-3 3 3-13z" fill="#716E6C"/>
<path transform="translate(125,487)" d="m0 0h2l3 6 2 19h2l1-2v12h-2l-5-19-2-8-1-1-1 39h-1v-40z" fill="#676362"/>
<path transform="translate(205,61)" d="m0 0 1 3-5 6-5 2v2l-9 4-5 2-2 4-10 11-5 5-3 1v2h-2l-1 3-2-1 4-5 8-7 11-12 5-5 10-6 4-4h2l2-4z" fill="#7C7976"/>
<path transform="translate(431,23)" d="m0 0h12l15 1v3h-16l-38 1-5 1v-2l3-1 24-1v-1z" fill="#3F3C3B"/>
<path transform="translate(389,52)" d="m0 0h5l-4 3-29 13-12 7-2-1 4-4h3v-2l17-9z" fill="#0A0909"/>
<path transform="translate(326,259)" d="m0 0 1 3-7 14-2 7h-2l-1 4-3-1v-7l6-12 3-4 4-2z" fill="#E6E5E3"/>
<path transform="translate(199,745)" d="m0 0 5 3 5 5v3l3 1 1 4h2l5 7-1 2-2-3-1 1 2 3-1 3-4-4-4-7-2-2-1-5-5-5-2-3z" fill="#484544"/>
<path transform="translate(195,224)" d="m0 0h1l-1 7-7 12-6 13-3 2 2-11 10-19z" fill="#5A5755"/>
<path transform="translate(281,122)" d="m0 0 2 4-15 15-3 4h-2l-1 4-6 7-5 8-3-2 1-3h2l2-4 9-11 4-5h2l1-4 4-4 1-2h2l2-4z" fill="#868380"/>
<path transform="translate(214,766)" d="m0 0 4 1 5 6 8 7 4 5 6 5-3 1v3l-20-20z" fill="#323030"/>
<path transform="translate(272,46)" d="m0 0h6v4l3 2v2h-2v2l-11-1-2-2-3 1h-7l2-2z" fill="#5E5A59"/>
<path transform="translate(406,47)" d="m0 0h2l-1 3-12 4-7 4-10 4-8 4h-3v2l-10 5h-2l2-4 26-12 9-4-3-2z" fill="#363534"/>
<path transform="translate(344,19)" d="m0 0h21v1l-15 2-21 4-11 3-10 1 2-2 15-5 17-3z" fill="#4E4C4B"/>
<path transform="translate(268,68)" d="m0 0 9 1 5-1-3 3-13 5-7 2h-3l-6 2 2-4 7-4z" fill="#878481"/>
<path transform="translate(215,523)" d="m0 0 8 2 8 4h14l3-3 3 1 2 3v3h-6l-5 1-12-2-11-5-4-2z" fill="#868380"/>
<path transform="translate(434,137)" d="m0 0 2 1-15 16-3 3h-2l-2 4h-2l-2 4-8 10-4 2 5-6 4-7 7-8h2l2-4 9-9 3-4z" fill="#6B6866"/>
<path transform="translate(312,49)" d="m0 0 4 1-10 4-7 3h-4v2l18-7 4 1-21 8-10 3-5 1 1-3h2v-2l12-5h5v-2z" fill="#413F3E"/>
<path transform="translate(192,752)" d="m0 0 4 2 5 4 6 10 4 4-1 2-5-5-1 3-4-2-4-5-2-6-2-3z" fill="#534F4E"/>
<path transform="translate(364,222)" d="m0 0 1 2-10 13h-5v-3h-5v-2h3l1-4 5-3h6z" fill="#504C4B"/>
<path transform="translate(330,8)" d="m0 0h7v2l-23 3-6 2-13 3-9 2 1-4 18-4z" fill="#5A5856"/>
<path transform="translate(256,407)" d="m0 0 4 1 1 11h6l2-4h2l-1 4-4 6h-2v-2h-4l-2-8h-6l-3-3 1-3h5z" fill="#787573"/>
<path transform="translate(57,637)" d="m0 0 2 2 9 24 8 16 1 4-4-4v-2h-2l-8-17-6-16z" fill="#555351"/>
<path transform="translate(769,748)" d="m0 0h2l-2 5-8 12-10 13-3 4h-2l2-4 5-7 5-9 4-7h2l2-4z" fill="#181616"/>
<path transform="translate(139,580)" d="m0 0h2l5 23 2 14h-3-1l-4-21z" fill="#423F3E"/>
<path transform="translate(135,131)" d="m0 0 1 2-3 5-4 4-4 5-3 3-6 5-1 2h-3v-3l-2-1 9-9 5 2v-3l5-5 2-4z" fill="#797674"/>
<path transform="translate(212,757)" d="m0 0 5 5 10 11 7 8 7 7 8 7 3 2-1 3-20-18-6-7-5-4-5-10h-2z" fill="#686563"/>
<path transform="translate(137,366)" d="m0 0h2v7l-2 6v18l4-1-1 7-3 3-2-7-1-15-2 2 2-11z" fill="#474443"/>
<path transform="translate(410,170)" d="m0 0 2 2-1 4-4 5h-2l-1 3h-2v2h-3v2h-3l2-6 7-9z" fill="#0A0909"/>
<path transform="translate(456,68)" d="m0 0h17l9 4 9 1 7 4h7l8-4 3 1-9 5-7 1-1 2-3-3-7-3-10-2-8-4-15-1z" fill="#84817E"/>
<path transform="translate(306,30)" d="m0 0 2 1-9 4-11 5-5 1v2l-9 3-18 8-2-1 15-8 27-12z" fill="#353433"/>
<path transform="translate(160,291)" d="m0 0h3l-1 8-6 19-4 5 1-12z" fill="#575352"/>
<path transform="translate(15,570)" d="m0 0h2v2h2l2 10 2 7 1 9-2 2-3-8-4-18z" fill="#313130"/>
<path transform="translate(262,810)" d="m0 0 7 2 5 2v2h2l1 3 7 4 12 4 1 2 5 2-3 1-7-1-16-10-10-7z" fill="#3C3A3A"/>
<path transform="translate(181,794)" d="m0 0 6 2 23 11 14 5 8 3 4 2-2 1-9-2-10-4-12-5v-2l-9-3-4-1v-2l-9-3z" fill="#5B5957"/>
<path transform="translate(236,36)" d="m0 0 2 1-2 3h-2v2l-7 4-5 4-5 1v3l-3 2-1 3-4-1 2-5 4-1 7-8z" fill="#7F7C7A"/>
<path transform="translate(440,21)" d="m0 0h8l1 1 19 1v1h-37l-30 1h-14v-1l13-1 29-1z" fill="#6C6867"/>
<path transform="translate(291,49)" d="m0 0h5l-4 3-12 5-5 1h-9l-2 1v-3h-8l-4 1v-2l2-1 9-1 4-1 1 3h7l4 1v-2l12-3z" fill="#7E7B78"/>
<path transform="translate(600,51)" d="m0 0h27v1l-26 1-9 2-8 2-13 1-9 1 4-1v-2l17-2 7-2z" fill="#494645"/>
<path transform="translate(249,161)" d="m0 0 1 4-9 12-5 6h-3l1-4 9-12 4-5z" fill="#75726F"/>
<path transform="translate(578,52)" d="m0 0h12l-3 2-9 2h-12v2l-6 2-14 1 3-2 20-5z" fill="#74716F"/>
<path transform="translate(134,382)" d="m0 0h1l-1 21-2 1-1-4-3 12h-1v-11l4-14z" fill="#2D2D2D"/>
<path transform="translate(344,41)" d="m0 0h4v2l-4 2-1 2 7-2h11v1l-25 5-3 1-2-3 5-2v-2z" fill="#6B6866"/>
<path transform="translate(465,38)" d="m0 0m-21 1h21l16 1v1l-31 1-14 2h-6l3-1v-2z" fill="#7E7B78"/>
<path transform="translate(738,702)" d="m0 0 5 5 3 6-1 2-6 1-2-1-2-4 1-8z" fill="#3D3A39"/>
<path transform="translate(152,678)" d="m0 0 2 1v2h2l7 16v7h-2l-9-21z" fill="#434140"/>
<path transform="translate(318,839)" d="m0 0 5 1v2l10 2 8 3 7 2v2l-10-1-17-5-1-5z" fill="#393737"/>
<path transform="translate(738,717)" d="m0 0 5 1v5 2l4 6-2 2-4-1v-2l-3-1v-3l-2-1v-6z" fill="#3D3A39"/>
<path transform="translate(464,346)" d="m0 0 2 2h6l1 2-1 2 2 1v6l-2 1-2 3-3-5-1-7-3-1z" fill="#2C2C2C"/>
<path transform="translate(418,29)" d="m0 0h54v1l-20 3h-7l4-2 1-1h-32z" fill="#E7E6E4"/>
<path transform="translate(360,26)" d="m0 0h7v1l-19 5-6 1h-12l-5-2 3-3 5-1-1 3 3 1z" fill="#E7E6E4"/>
<path transform="translate(156,665)" d="m0 0h2l6 15 7 14 1 8-3-4-11-25-2-5z" fill="#6A6665"/>
<path transform="translate(144,339)" d="m0 0 1 3v6l1 3-2 4-1-3-1 2h-2l-4 18-2 6-2-3 3-11z" fill="#797673"/>
<path transform="translate(216,57)" d="m0 0 3 1-8 7-10 8-10 7-4 1 2-4 5-3h2v-2l11-8z" fill="#3A3837"/>
<path transform="translate(230,171)" d="m0 0 1 3-10 13-8 13-3-2 7-11 10-13z" fill="#807D7A"/>
<path transform="translate(529,73)" d="m0 0 3 1-14 8h-2v2l-8 3-18 10v-3l4-3 7-3 15-8 7-4z" fill="#2C2C2C"/>
<path transform="translate(276,818)" d="m0 0h10l2 4 12 6 9 4 3 2-10-1v-2l-6-2v-2l-6-1-9-4-5-3z" fill="#6E6A69"/>
<path transform="translate(624,698)" d="m0 0 1 2-8 7-10 10-4 2-4-1v-5l8-7h2v2l-7 5v3l5-2 4-5 5-5 2-3z" fill="#2C2C2C"/>
<path transform="translate(121,523)" d="m0 0 2 3 2 21v12l-2-2-2-13z" fill="#363434"/>
<path transform="translate(185,261)" d="m0 0 2 1-1 7-6 15-3 2v-8l7-15z" fill="#6D6A68"/>
<path transform="translate(637,682)" d="m0 0v3l-1 2h-2l-2 4-6 7-5 3h-3l2-4 8-8z" fill="#3B3837"/>
<path transform="translate(151,360)" d="m0 0h1l-1 15-2 15-2 3-1-17 1-1 1-8h2v-6z" fill="#2F2E2E"/>
<path transform="translate(245,35)" d="m0 0 2 1-11 8h-2l-1 3-5 3h-2l1-5 4-3h3v-2l4-4z" fill="#575352"/>
<path transform="translate(311,29)" d="m0 0 3 1-4 1 3 3 10 2v3l-9 4-3-1 5-1v-4l-7 1-3-5 2-3z" fill="#706D6B"/>
<path transform="translate(232,795)" d="m0 0 7 5 6 7v2l4 2 3 2v2h-4v-2l-4-1-4-5-8-7z" fill="#3E3B3A"/>
<path transform="translate(355,31)" d="m0 0 4 1-20 7-9 2v2l-11 5-9 2 1-2 8-3 12-6z" fill="#73706E"/>
<path transform="translate(256,31)" d="m0 0 4 1-16 9-9 6-4 1v2l-4 1v2l-5 2 4-5 7-4 3-3 11-8z" fill="#3E3B3A"/>
<path transform="translate(133,524)" d="m0 0 3 1 2 23v17h-1l-2-12z" fill="#4C4847"/>
<path transform="translate(390,29)" d="m0 0h9v1l-15 3-14 2-11 3-3-1 5-2h4v-2l13-3z" fill="#585655"/>
<path transform="translate(347,835)" d="m0 0 5 2 7 8v2l4 2 1 3-10 1 1-5-2-5z" fill="#6C6967"/>
<path transform="translate(487,86)" d="m0 0 5 1-1 4-1 3-4 1v2l-3 3-5 1v-2l5-3 1-2-4-2z" fill="#827F7D"/>
<path transform="translate(271,820)" d="m0 0 5 2 6 4 4 5 7 2v3l-11-3-5-2-2-7z" fill="#3A3838"/>
<path transform="translate(537,567)" d="m0 0 4 2-5 9h-2l-1 5-5 10-4 4 2-7 8-16z" fill="#3D3A39"/>
<path transform="translate(143,351)" d="m0 0h1v8l-3 12h-2v-5h-2l1-6 2-6h2z" fill="#676462"/>
<path transform="translate(534,67)" d="m0 0 4 1-19 9-16 9-3 1 1-3 6-4 7-4 5-2 8-4z" fill="#504C4B"/>
<path transform="translate(571,57)" d="m0 0h9l-3 2-17 6h-5l2-4 10-3z" fill="#353333"/>
<path transform="translate(97,192)" d="m0 0 1 3-10 18-7 13-1-3 1-4h2l1-7 3-1 1-7 4-1 2-6z" fill="#2C2C2C"/>
<path transform="translate(616,701)" d="m0 0h2l-2 4-4 2-2 5-4 4-4 1-2-2 4-5 5-2v-2l6-4z" fill="#3D3A39"/>
<path transform="translate(823,641)" d="m0 0h2l1 5-4 10h-2l-1 2h-2l1-8 4-8z" fill="#373534"/>
<path transform="translate(251,54)" d="m0 0 3 1h-2v3l-12 7-11 8h-2v-3l11-7 10-7z" fill="#52504F"/>
<path transform="translate(131,615)" d="m0 0h2l2 11v-10l2 3 4 18-3-1v-6h-2v6l-2-2-3-15z" fill="#6B6866"/>
<path transform="translate(356,34)" d="m0 0 1 2-8 3-1 2-7 3-9 1 1-3 10-4z" fill="#292828"/>
<path transform="translate(251,824)" d="m0 0 14 1 2 1v2l3-1 5 2-4 2-20-3v-3z" fill="#43403F"/>
<path transform="translate(395,182)" d="m0 0 2 1-9 13-7 8-8 11-1-2 11-15 4-6 4-5z" fill="#3D3A39"/>
<path transform="translate(98,172)" d="m0 0 6 2-2 4h-2l-1 4-5 2 1-3-6 1 5-5z" fill="#504D4B"/>
<path transform="translate(321,799)" d="m0 0h2l3 3 4 7 7 10 2 7-5-5-11-17z" fill="#666261"/>
<path transform="translate(218,787)" d="m0 0 7 6 13 12 6 5v2l-4-2-8-7-9-9-5-3z" fill="#625E5D"/>
<path transform="translate(173,697)" d="m0 0 2 2 1 2 1-3 4 10v2h-2v-2h-2l2 5-1 3-6-11z" fill="#504D4C"/>
<path transform="translate(136,630)" d="m0 0h2l1 6 2 1 2 11v5l-4-4-3-9z" fill="#504D4C"/>
<path transform="translate(141,637)" d="m0 0 2 3 3 11 1 7-1-2h-2l2 8-1 4-5-16 1-3 1-1z" fill="#686563"/>
<path transform="translate(125,582)" d="m0 0h1l3 15v-12h1l3 24v2h-2l-3-5-3-17z" fill="#5B5857"/>
<path transform="translate(45,277)" d="m0 0h3l-1 5-4 12-3 1v-8l4-9z" fill="#100F0F"/>
<path transform="translate(436,136)" d="m0 0 2 1-1 4-8 7-19 19v-3l6-7 8-7 11-12z" fill="#3C3939"/>
<path transform="translate(163,700)" d="m0 0 4 5 5 11-3-1-3-6 1 5 2 7-3-3-5-10v-4h2z" fill="#635F5E"/>
<path transform="translate(820,655)" d="m0 0 1 3-12 26-2-1 1-5 8-15z" fill="#191817"/>
<path transform="translate(301,61)" d="m0 0 17 1 12 2-4 2-9-1-5 1-10-2z" fill="#868380"/>
<path transform="translate(164,707)" d="m0 0h2l4 8 3 1 2 4 1 8-4-4v-2l-3-1-5-13z" fill="#454241"/>
<path transform="translate(208,218)" d="m0 0 1 2 2 1-8 15-5 2 1-4z" fill="#7D7A78"/>
<path transform="translate(144,656)" d="m0 0h2v2h2l3 7v11l-2-1-1-7h-2z" fill="#494645"/>
<path transform="translate(849,231)" d="m0 0 3 3 5 16-1 2-3-2-3-8-2-9z" fill="#1A1918"/>
<path transform="translate(803,146)" d="m0 0 4 1 7 10v2l-6-2-4-3-2-7z" fill="#141313"/>
<path transform="translate(388,26)" d="m0 0h5v3l-3 1-12 1-13 3-3-1 4-2 12-3z" fill="#0A0909"/>
<path transform="translate(133,542)" d="m0 0h1l2 18 2 14v10h-1l-2-8-2-20z" fill="#787573"/>
<path transform="translate(327,84)" d="m0 0 3 1-5 6-6 4-4 3-3-1 5-6z" fill="#2A2828"/>
<path transform="translate(397,52)" d="m0 0 3 1 2 2 15 4-2 2-10-1-10-4z" fill="#7D7A78"/>
<path transform="translate(283,17)" d="m0 0h4l-1 3-6 3h-5l-5 3h-2l1-4 10-4z" fill="#726E6D"/>
<path transform="translate(231,793)" d="m0 0 4 2 3 2-2-4 4 2 5 6v2h2v3l2 1-4-1-6-4-5-5z" fill="#6E6B69"/>
<path transform="translate(292,743)" d="m0 0 3 1 2 6v4h2l3 7v5l-4-5-6-12z" fill="#5B5857"/>
<path transform="translate(167,276)" d="m0 0 2 2 1-2 2 1-8 17-1-3h-2l3-9z" fill="#6B6866"/>
<path transform="translate(148,626)" d="m0 0 2 3 3 13 3 7-1 4h-2l-5-17z" fill="#333231"/>
<path transform="translate(125,571)" d="m0 0h2l3 20v11h-1l-4-20z" fill="#343232"/>
<path transform="translate(281,61)" d="m0 0 3 1h-2v2l3 2-8 4-7-1v-2z" fill="#5C5957"/>
<path transform="translate(541,445)" d="m0 0h1l-1 7-3 7-4 1 1-7 4-7z" fill="#393736"/>
<path transform="translate(373,172)" d="m0 0h5l-1 6h-2l-2 4-4-1-1-3z" fill="#E7E6E4"/>
<path transform="translate(141,113)" d="m0 0v3l-2 4v6l-2 1-3-1v4l-3-1-1-3 9-11z" fill="#9C9996"/>
<path transform="translate(265,49)" d="m0 0h6l2 4 6 2-4 1-7-1-2-2-3 1h-7l2-2z" fill="#686563"/>
<path transform="translate(283,20)" d="m0 0 2 1-6 5-13 3-3 2-3-1h2v-2l12-5 3-1 4-1z" fill="#403D3C"/>
<path transform="translate(302,766)" d="m0 0 4 5v2h2l3 7 7 12 1 4h2l-1 3-6-9-12-21z" fill="#696664"/>
<path transform="translate(199,745)" d="m0 0 5 3 5 5 2 5-1 3-3-2-1-3-5-5-2-3z" fill="#272626"/>
<path transform="translate(185,718)" d="m0 0h3l7 12 6 10v2h-2l-4-7-6-9-3-3z" fill="#73706E"/>
<path transform="translate(164,315)" d="m0 0h1v10l-3 1v2l-5 4 3-13z" fill="#676462"/>
<path transform="translate(104,210)" d="m0 0h2l-2 5-10 18-3 4 1-6 10-19z" fill="#4D4B4A"/>
<path transform="translate(155,106)" d="m0 0 2 1-5 5-2 1 1-4zm-7 7 2 1-3 7-2 3h-3l-2 5-4 2 1-3 3-3 1-2h2l1-5 2-1z" fill="#676362"/>
<path transform="translate(752,710)" d="m0 0 4 1h4l-3 5h-2v2l-5-1v-4z" fill="#3C3938"/>
<path transform="translate(257,370)" d="m0 0 1 3-5 22-2-3-2 2 1-6 6-17z" fill="#868380"/>
<path transform="translate(281,122)" d="m0 0 2 4-12 12h-2v-3l4-4 1-2h2l2-4z" fill="#767371"/>
<path transform="translate(205,61)" d="m0 0 1 3-5 6-5 2v2l-5 1 2-4 6-5h2l2-4z" fill="#787572"/>
<path transform="translate(560,59)" d="m0 0 2 1-8 3-16 4v-2l4-2h4v-2z" fill="#5A5655"/>
<path transform="translate(249,798)" d="m0 0 7 6 6 5h-3-2l9 7-2 1-9-6-3-3v-2h2l-5-6z" fill="#393737"/>
<path transform="translate(784,711)" d="m0 0h6l-1 5-3 7-2-2-2-9z" fill="#3D3A39"/>
<path transform="translate(685,573)" d="m0 0 4 4-1 6-5-1-2-2 1-5z" fill="#3D3A39"/>
<path transform="translate(50,337)" d="m0 0h2l-1 8-1 5h-2l-3 17h-1v-7l4-18z" fill="#413F3F"/>
<path transform="translate(57,637)" d="m0 0 2 2 7 19-1 3-1-4h-2l-5-13z" fill="#5C5957"/>
<path transform="translate(216,204)" d="m0 0h3l-1 5-7 11h-2l1-5z" fill="#6F6C6A"/>
<path transform="translate(205,765)" d="m0 0 7 6 7 7 6 7-1 3-1-3-4-2-14-16z" fill="#716E6C"/>
<path transform="translate(452,120)" d="m0 0 2 1-5 5-6 5-4 5-7 3 2-4 7-5 5-5z" fill="#797673"/>
<path transform="translate(102,727)" d="m0 0 4 2 5 4 5 6 1 5h-2l-9-11z" fill="#4B4948"/>
<path transform="translate(187,239)" d="m0 0 1 4-6 13-3 2 2-11h3l1-4z" fill="#494645"/>
<path transform="translate(352,38)" d="m0 0 4 1-5 3 7 1v1h-5v2l-10 1 2-4h3v-3z" fill="#7C7876"/>
<path transform="translate(331,793)" d="m0 0 6 1 2 5-1 2-4 1-4-7z" fill="#0A0909"/>
<path transform="translate(135,386)" d="m0 0h1l1 11 4-1-1 7-3 3-2-7z" fill="#555150"/>
<path transform="translate(251,390)" d="m0 0h1l-1 19-2-1 1-6h-3v-6l1-2h2z" fill="#7A7775"/>
<path transform="translate(190,75)" d="m0 0 3 1-4 2-5 6-5 4h-2l-2 4-2-1 9-11z" fill="#625F5D"/>
<path transform="translate(295,14)" d="m0 0h13v1l-13 3-9 2 1-4z" fill="#4B4948"/>
<path transform="translate(169,721)" d="m0 0 3 1 4 6 4 10 5 7-1 2-7-10-8-14z" fill="#706D6B"/>
<path transform="translate(155,637)" d="m0 0h1l3 9 5 16v3l-3-1-4-16-2-5z" fill="#7C7876"/>
<path transform="translate(184,105)" d="m0 0 4 1-3 3h-2v2l-8 7-3 3-2-1 7-8z" fill="#585554"/>
<path transform="translate(635,680)" d="m0 0m-1 1m-1 1m-1 1m-1 1m-1 1m-1 1m-1 1m-1 1v3l-13 13-5 2 4-5 8-7z" fill="#2C2C2C"/>
<path transform="translate(278,390)" d="m0 0 1 3-5 22-3 2v-5h2l1-11z" fill="#555251"/>
<path transform="translate(138,373)" d="m0 0 1 4-1 12 2 5 2-1v3l-5 1-1-3v-15z" fill="#676462"/>
<path transform="translate(33,310)" d="m0 0 4 1-2 8h-2l-1 4h-2l1-8z" fill="#151414"/>
<path transform="translate(147,136)" d="m0 0 2 1-2 4h-2l-2 5-6 9-5 5 2-4 2-5h2l2-6 4-6z" fill="#363434"/>
<path transform="translate(146,121)" d="m0 0 1 4h-2v2l-5 5-6 7-1-3 5-7 3-3 1-2h3z" fill="#373535"/>
<path transform="translate(321,48)" d="m0 0 2 1-12 5-14 5h-2v-2l11-4 10-4z" fill="#0C0B0B"/>
<path transform="translate(278,41)" d="m0 0 3 1-7 4-18 8-2-1 15-8z" fill="#343332"/>
<path transform="translate(236,36)" d="m0 0 2 1-2 3h-2v2l-6 3h-5l-1 2v-3z" fill="#A09D9B"/>
<path transform="translate(51,671)" d="m0 0 3 3v2h2l2 6v6l-3-4-5-9z" fill="#555150"/>
<path transform="translate(120,177)" d="m0 0 2 2 4-1 2 1-1 5-7 5 2-5 2-3-5 1v-4z" fill="#64605F"/>
<path transform="translate(241,803)" d="m0 0 6 3 1-3 7 6 1 4-5-2-6-2z" fill="#615E5C"/>
<path transform="translate(242,171)" d="m0 0 1 4-7 8h-3l1-4 4-5z" fill="#6B6866"/>
<path transform="translate(376,62)" d="m0 0 2 1-3 5-4 2-4 1-3-3h3v-2z" fill="#504C4B"/>
<path transform="translate(382,25)" d="m0 0h5l-1 3-14 1-8 2h-5l3-2z" fill="#666361"/>
<path transform="translate(267,22)" d="m0 0 2 1-1 3-3 2-9 2-3-2z" fill="#93908E"/>
<path transform="translate(60,308)" d="m0 0 1 2-8 27h-1v-8l7-20z" fill="#52504F"/>
<path transform="translate(200,213)" d="m0 0 1 2-1 2 2 1-5 9-2-2-2 1 2-5z" fill="#73706E"/>
<path transform="translate(237,83)" d="m0 0 4 1-9 7-6 1 5-5z" fill="#7B7875"/>
<path transform="translate(516,78)" d="m0 0m-3 1h3l-1 3-16 8-4 1 4-4 11-6z" fill="#3F3C3B"/>
<path transform="translate(318,839)" d="m0 0 5 1v2l10 2-3 3-9-2-1-5z" fill="#454241"/>
<path transform="translate(153,636)" d="m0 0h2l2 10 3 8-1 4-4-9-2-8z" fill="#615E5C"/>
<path transform="translate(382,51)" d="m0 0h7v1l-9 3-12 5-2-1 3-3 7-3z" fill="#595554"/>
<path transform="translate(263,824)" d="m0 0 9 1 2 1 3-1v6l-4-1-4-2h-2v-2h-8z" fill="#514E4C"/>
<path transform="translate(141,569)" d="m0 0 2 2 3 27-3-4-2-18z" fill="#7A7775"/>
<path transform="translate(31,325)" d="m0 0 2 2-3 7h-2l-1 3h-1l1-9z" fill="#111010"/>
<path transform="translate(391,185)" d="m0 0 1 2-7 9-4 2-1 2h-3l1-3 8-7z" fill="#676462"/>
<path transform="translate(291,112)" d="m0 0 2 1-4 4v3l-5 5-3-1 3-5z" fill="#5D5A58"/>
<path transform="translate(199,93)" d="m0 0 3 1-6 5-5 5h-3l3-5z" fill="#514F4E"/>
<path transform="translate(289,62)" d="m0 0h12l-4 2-13 4-2-1 3-1 1-3z" fill="#797674"/>
<path transform="translate(144,595)" d="m0 0 3 4 2 12v9h-1l-4-21z" fill="#706D6B"/>
<path transform="translate(258,594)" d="m0 0h2l1 21-1-4h-2z" fill="#514D4C"/>
<path transform="translate(383,196)" d="m0 0 2 1-7 9-5 5 1-5 4-6h2l1-3z" fill="#575352"/>
<path transform="translate(232,181)" d="m0 0 1 2h2l-2 4-5 7-2-3 2-4z" fill="#7A7775"/>
<path transform="translate(219,186)" d="m0 0 1 3-7 11-3-2 7-11z" fill="#7C7976"/>
<path transform="translate(135,131)" d="m0 0 1 2-3 5-4 4-4 5-3 3v-3l2-4 5-5 2-4z" fill="#615E5C"/>
<path transform="translate(456,68)" d="m0 0h17l12 5v1h-6l-8-4-15-1z" fill="#868380"/>
<path transform="translate(418,40)" d="m0 0h5l-3 1v2l-16 4-4-1z" fill="#7E7B78"/>
<path transform="translate(236,784)" d="m0 0 8 6 8 7-1 3-10-9-5-5z" fill="#74716F"/>
<path transform="translate(146,668)" d="m0 0h2l2 7 1-5 2 3 2 4-1 4-1-2-2 2v-3h-2z" fill="#605D5B"/>
<path transform="translate(121,173)" d="m0 0 1 2-3 4v2h5l-2 4-2 3-2-1 1-3-3-1 2-6z" fill="#343232"/>
<path transform="translate(347,835)" d="m0 0 5 2 7 8v2l4 2h-3l-3-1v-3l-4-2z" fill="#656160"/>
<path transform="translate(214,766)" d="m0 0 4 1 5 6 2 1 3 5-1 2-11-11z" fill="#0A0909"/>
<path transform="translate(164,685)" d="m0 0 4 2 3 7 1 8-3-4-5-11z" fill="#6E6A68"/>
<path transform="translate(669,551)" d="m0 0 5 5-2 4-4-2-1-5z" fill="#3D3A39"/>
<path transform="translate(86,243)" d="m0 0h2l-2 6-7 15h-1l1-7 3-6z" fill="#4B4948"/>
<path transform="translate(488,94)" d="m0 0 2 1-1 3-13 9-2 1 2-4 5-4h2l1-3h2v-2z" fill="#3F3C3C"/>
<path transform="translate(529,40)" d="m0 0 5 2 1 2 4 2v1l-10-1-4-2h5z" fill="#888582"/>
<path transform="translate(348,837)" d="m0 0 5 5 2 4 1 3-5-2-3-3v-2h2z" fill="#797674"/>
<path transform="translate(303,833)" d="m0 0 11 1v2l9 3-2 1-8-2-10-4z" fill="#595554"/>
<path transform="translate(144,339)" d="m0 0 1 3v6l1 3-2 4-1-3-2 2v-7z" fill="#6E6B69"/>
<path transform="translate(465,111)" d="m0 0 2 1-11 9-4 2 4-6 6-5z" fill="#676462"/>
<path transform="translate(508,84)" d="m0 0m-1 1v3l-18 9 1-3 4-3 7-3z" fill="#2F2F2E"/>
<path transform="translate(330,65)" d="m0 0 16 2 2 2-2 3-3-1v-2l-10-1z" fill="#84817F"/>
<path transform="translate(264,52)" d="m0 0 4 1v2l2 1h-14l-4 1v-2l2-1 9-1z" fill="#777472"/>
<path transform="translate(410,44)" d="m0 0h12v2l-9 2v-2h-6z" fill="#6B6866"/>
<path transform="translate(467,36)" d="m0 0h12l4 2-2 1h-15z" fill="#6C6967"/>
<path transform="translate(433,17)" d="m0 0 7 1v2h-26v-1l18-1z" fill="#545150"/>
<path transform="translate(805,686)" d="m0 0 1 4-4 8h-3l1-5 4-6z" fill="#1B1919"/>
<path transform="translate(307,56)" d="m0 0 3 1-2 2-7 3h-10v-1l13-4z" fill="#64605F"/>
<path transform="translate(349,19)" d="m0 0h16v1l-15 2-9 1 2-2z" fill="#6D6968"/>
<path transform="translate(160,291)" d="m0 0h3l-1 8-2 3-3-1z" fill="#615D5C"/>
<path transform="translate(513,76)" d="m0 0 1 2-4 4-8 5h-2l1-3 6-4z" fill="#5A5655"/>
<path transform="translate(268,68)" d="m0 0 9 1 5-1-3 3-9 2h-2z" fill="#7B7876"/>
<path transform="translate(325,42)" d="m0 0h5l-3 2-8 4-9 2 1-2 8-3z" fill="#726F6D"/>
<path transform="translate(337,821)" d="m0 0 14 14-1 2-6-5-7-9z" fill="#595554"/>
<path transform="translate(262,810)" d="m0 0 7 2 5 2v2h2v2l-5-1-9-6z" fill="#4D4B4A"/>
<path transform="translate(201,742)" d="m0 0 5 5 6 8-1 2-2-1-3-5-5-5z" fill="#74706E"/>
<path transform="translate(15,570)" d="m0 0h2v2l2 1v12l-2-1-2-10z" fill="#1E1C1C"/>
<path transform="translate(124,489)" d="m0 0 4 2 1 3v9h-1l-2-8-1-1-1 5h-1z" fill="#635F5E"/>
<path transform="translate(176,281)" d="m0 0 3 4-3 10-1-3h-2z" fill="#757270"/>
<path transform="translate(289,58)" d="m0 0 3 1-1 3-6 3-4-1 1-2h2v-2z" fill="#4A4846"/>
<path transform="translate(251,54)" d="m0 0 3 1h-2v3l-7 4-4-1z" fill="#4F4D4C"/>
<path transform="translate(376,46)" d="m0 0 11 2h7l-3 2h-12l-1-3z" fill="#797674"/>
<path transform="translate(323,840)" d="m0 0 10 2h3l5 5-7-1-3-2-8-2z" fill="#5C5857"/>
<path transform="translate(275,694)" d="m0 0 2 3 4 11-1 3-2-1-3-12z" fill="#696664"/>
<path transform="translate(17,561)" d="m0 0 2 4v7h-2v-2l-3-1 1-5z" fill="#333"/>
<path transform="translate(171,268)" d="m0 0 2 2 2-1-1 4-2 3h-2l-1 3h-1l1-7z" fill="#656260"/>
<path transform="translate(335,78)" d="m0 0 2 1-4 3 2 1v2l-7 4-2 1 1-3h2l1-5z" fill="#464443"/>
<path transform="translate(349,45)" d="m0 0h12v1l-16 3h-5l2-1 1-2z" fill="#6C6967"/>
<path transform="translate(251,29)" d="m0 0 2 1-4 1v3l-4 2h-7l2-2z" fill="#A09D9A"/>
<path transform="translate(330,813)" d="m0 0 4 2 3 4 2 7-5-5-4-6z" fill="#6D6967"/>
<path transform="translate(203,772)" d="m0 0 7 6 5 5 1 2-4-1-7-7z" fill="#726F6D"/>
<path transform="translate(395,182)" d="m0 0 2 1-7 10-5 3 2-4 4-5z" fill="#454241"/>
<path transform="translate(347,846)" d="m0 0 7 2v4h-7l1-3-2-1z" fill="#595554"/>
<path transform="translate(195,743)" d="m0 0 5 5 4 6 3 2-1 3-4-4v-2l-3-1-4-7z" fill="#6F6C6A"/>
<path transform="translate(131,509)" d="m0 0 1 3h2l1-2v12h-2l-2-8z" fill="#514D4C"/>
<path transform="translate(126,176)" d="m0 0h2v2l4 1v2l-5 2 1-4-8 1 1-3z" fill="#888583"/>
<path transform="translate(110,168)" d="m0 0 2 1-6 11-4 4 2-7 3-5h2z" fill="#2C2C2C"/>
<path transform="translate(97,169)" d="m0 0h3v3l-8 8-2-1z" fill="#666361"/>
<path transform="translate(138,156)" d="m0 0h2v3l3 1-6 4v-2h-2v-3h2z" fill="#85827F"/>
<path transform="translate(109,155)" d="m0 0h2l-2 5-3 4-4-2 5-5z" fill="#7B7876"/>
<path transform="translate(128,128)" d="m0 0 3 3-1 4-5 5-2-1 4-4-1-4z" fill="#B5B2AF"/>
<path transform="translate(155,111)" d="m0 0 3 1-5 5-5 6-1-3z" fill="#323030"/>
<path transform="translate(256,73)" d="m0 0h5l-5 5-6 2 2-4z" fill="#7F7C7A"/>
<path transform="translate(245,35)" d="m0 0 2 1-10 5h-2v2l-4-1h3v-2l4-4z" fill="#686563"/>
<path transform="translate(224,795)" d="m0 0 7 6 6 7-4-1-5-6-4-4z" fill="#797674"/>
<path transform="translate(160,328)" d="m0 0 1 3-3 11-2-1 1-9z" fill="#504C4B"/>
<path transform="translate(37,296)" d="m0 0h4l-1 8-2 1v-3h-2z" fill="#121111"/>
<path transform="translate(209,199)" d="m0 0h3l-1 5-3 3-1-1-1 2-2-1z" fill="#716E6C"/>
<path transform="translate(98,718)" d="m0 0 5 5v2h2l2 5-7-5z" fill="#676462"/>
<path transform="translate(812,672)" d="m0 0 1 4-4 8-2-1 1-5z" fill="#1D1C1C"/>
<path transform="translate(425,125)" d="m0 0h2l-2 5-5 4h-2l2-5 5-2z" fill="#E7E6E4"/>
<path transform="translate(147,111)" d="m0 0h3v2l-9 6-2-2 5-5 2 1z" fill="#84817E"/>
<path transform="translate(327,84)" d="m0 0 3 1-5 6-5 1 4-6z" fill="#232121"/>
<path transform="translate(435,64)" d="m0 0 9 1 2 1 9 1v1h-14v-2l-6-1z" fill="#83807D"/>
<path transform="translate(678,58)" d="m0 0h7l3 1-1 4-6-1v-3z" fill="#131212"/>
<path transform="translate(406,47)" d="m0 0h2l-1 3-5 2h-3v-2l-3-1z" fill="#413F3E"/>
<path transform="translate(356,34)" d="m0 0 1 2-9 4-7 1 2-3z" fill="#0A0909"/>
<path transform="translate(169,684)" d="m0 0h2v2h2l2 4v5l-4-4z" fill="#676362"/>
<path transform="translate(405,170)" d="m0 0 1 3-8 10-2-2 2-4 6-5z" fill="#353433"/>
<path transform="translate(130,134)" d="m0 0 1 3-5 6h-2l-1 3v-5h2l2-4z" fill="#7C7977"/>
<path transform="translate(276,64)" d="m0 0h2v2h-3v2l4 1-7 1-2-1v-2z" fill="#6A6664"/>
<path transform="translate(392,50)" d="m0 0h7v2l-8 4-3-1 4-2-3-2z" fill="#2F2E2D"/>
<path transform="translate(600,890)" d="m0 0m-1 1v3l-6 2-4-1 4-3z" fill="#131212"/>
<path transform="translate(136,375)" d="m0 0 1 4-1 7-2-2-2 2 1-8h2z" fill="#3E3B3A"/>
<path transform="translate(143,351)" d="m0 0h1v6l-3 5h-1v-8h2z" fill="#524E4D"/>
<path transform="translate(147,338)" d="m0 0 1 2-1 8-3 1v-7l1-3z" fill="#524F4E"/>
<path transform="translate(190,253)" d="m0 0h1l-1 7-2 5-2-3 1-5h2z" fill="#74716F"/>
<path transform="translate(135,157)" d="m0 0 1 2-3 7-5 2 2-4 4-6z" fill="#6D6967"/>
<path transform="translate(156,138)" d="m0 0h4l-2 5-6 5 2-5 3-3-4-1z" fill="#817E7B"/>
<path transform="translate(129,127)" d="m0 0h2l2 2 2-2 1 4-3 3h-2l-2-4z" fill="#858280"/>
<path transform="translate(281,122)" d="m0 0 2 4-4 4h-3l1-4z" fill="#6B6766"/>
<path transform="translate(318,36)" d="m0 0h5v3l-9 4-3-1 7-3z" fill="#7D7A77"/>
<path transform="translate(283,20)" d="m0 0 2 1-6 5-8 1 2-2z" fill="#2C2C2C"/>
<path transform="translate(185,718)" d="m0 0h3l3 5-1 4-4-4z" fill="#625E5D"/>
<path transform="translate(133,615)" d="m0 0 2 1 1 4v8l-2-2-1-3z" fill="#413E3D"/>
<path transform="translate(128,397)" d="m0 0h3l-3 15h-1v-11z" fill="#313030"/>
<path transform="translate(147,333)" d="m0 0 3 1-2 11h-1v-6h-2l1-5z" fill="#6C6866"/>
<path transform="translate(253,155)" d="m0 0h2l-1 4-4 5-2-4 3-1z" fill="#7E7B79"/>
<path transform="translate(312,95)" d="m0 0 2 1-1 4-4 3-3-1z" fill="#444241"/>
<path transform="translate(501,82)" d="m0 0m-1 1 1 2-9 9h-2v-2l7-6z" fill="#64615F"/>
<path transform="translate(194,74)" d="m0 0 4 1-8 6-3-1 4-4z" fill="#3A3737"/>
<path transform="translate(204,66)" d="m0 0 2 1-6 7h-4v-2z" fill="#3C3A39"/>
</svg>
