<?xml version="1.0" encoding="UTF-8"?>
<svg version="1.1" viewBox="0 0 912 884" width="1280" height="1280" xmlns="http://www.w3.org/2000/svg">
<path transform="translate(516,43)" d="m0 0h96l44 2 31 3 49 7 19 5 9 4 10 6 7 8 5 14 4 20 1 7v8l-3 12-4 6-4 3-7 2-4 3 1 6 9 9 3 16 2 19 6 2 4 7 4 20 5 42 2 21v11l-3 11-9 19-11 20-10 14-13 16-6 9-1 11-4 89-2 61-1 25 10 7 13 8 16 10 8 7 9 11 8 8 6 8 4 2v2l3-1 3 2v3l-2 1 1 7 3 11v16l-4 19-6 15-5 21-15 43-10 13-10 10-4 6-20 8-19 6-15 3-12 1h-26l-26-3-36-8-17-5-29-13-27-10-15-8-10-8-20-15-15-9-8-4-6 1-14 10-10 7-17 10-28 10-28 8-17 3-56 5-25 1v2l-13-2-46-1-20-2-20-4-29-8-16-6-10-6-14-12-9-10-2-4-6-31-2-18-1-18v-17l2-4 1-7-4-6 1-4 2-3-1-4-5-4-7-10-2-11-3-16-2-8-1-24v-17l1-6 1-22 4-16 4-8 25-15 14-7 3-1v-10l-2-9 3-4 1-4-1-39-2-16-2-8 1-12 3-16 4-24 4-21 3-16 15-36 11-24 9-14 10-11 7-8 12-11 13-9 13-4 6-1 22-1 21 1 27 3 13 1h11l6-7 7-14-1-5-10-13-3-7-1-12 4-17 3-11 2-11 5-8 7-5 17-7 15-4 28-5 22-3 41-3zm268 167-1 28-5 6-13 9-5 5-3 71-2 41v12l7-6 8-10 10-15 8-14 8-18 4-12v-14l-4-38-4-30-3-11-3-4zm-494 52-8 7-13 26-12 27-6 27-6 37v5l1 1 2 54 3 5 21 5 6-2 7-9 7-15 8-26 5-21 2-15 1-16v-18l-2-25-5-24-6-18-2-4z" fill="#aaa"/>
<path transform="translate(231,174)" d="m0 0h26 3v3l48 2 15 2 9 3 1 4-2 6-3 17-5 21-3 6h-3v2l-5 3-4-1-6-39-3-1-8 6-1 2-1 52-7 9-12 24-12 27-6 27-6 37v5l1 1 2 54 2 4 21 5 6-2 7-9h2l2-5 4 3h8l3 2 15 1 7 1h9v-2l13-4 7-3 10-3 12-6h2l-3 10-9 21-3 5-1 6h2l2-4 5 1 5 4v2h3v2h-4l-1 3 4 1 1 4 5-1 2-3 4 2 2 3 4 1 1-5 4-8 2-6 6 2h4l-2-6-5-1v-2l-4 3h-2l-1-4 2-4 3-17 1-2h2l-1-7-6-2-4-4-4 2-6 2-3 2 1-11 7-6 23 1 4-4 3-6 1-13-5-4-10-3-10-6-5-4-1-2v-10l1-3 4-1 4-3 5-2 5 1 2 2v3l5 4v2l8 2 5 5-1 5 1 5h2l-1 5h-9v2h4l2 5 2 4v4l4 2 3 8-1 2h-2l1 5v3h-2l-1 3-10-1-1 2 4 2 3 5 10 7 6 4 11 6 6 4 6 2 1 3h-8l-4-2v-2h-2v-2l-4 1-3-5-14-5-5-1-8-1v2l10 2v2l4-1v2l8 2 2 2 4-1v4l-6 2-10 1-8-4-12-2-1-5-2-1-1-2-5 13h7l8 1 10 4h3v2l7 1 5 3-4 6-4 1v2h2l1 11 5 7 3 6 7 2-4 4-1 2-5 1-1 3h6l1-3 2 2 2 5 1 1v9l-1 5 1 4-1 2h4v3l5 2 17 9 4 4 14 7 6 5h-3l-4-2-1 5-4 2v-4l-4-1v-3l-4-1-1-2-4-1 2 5-6-1v-2h-3v2l3 1v2l-8-1-12-3-2 1-1 10 10 3 15 6 27 9 4 5 2 4v3l-6-1v-4l2-2h-5l-2-3-22-6-4-3v2l8 4 9 5-1 3-5-3v5h7l2 2h-20v2l4 2 10 11 13 3 20 3 13 2 4 3-3 1-12-3-6 1-4 1-8-3h-7l2 1 3 11v3l-5 1-12-9-6-3v-2l-2 1 8 7 7 8 13 10 1 2-5-2-7-5-7-3-4-2 3 4v4l-4-1 4 4 6 5 1 4-6-2-3-2-1 2 6 2 6 5 1 5-2 1-1 2-8-5-5-3-11-8 6 9 9 8 8 6v2l5 2 5 6-5-2-11-7-3-3-7-4 4 5-1 2-4-2-6-1 4 5v2h2l5 5 2 3-15-5 8 10 7 7-3 1-10-4v2l4 2 3 3v2l-5-2-7-3v3l4 2 4 6-4-2h-3l-1-2-3 1 5 5v2l4 2 5 4 3 5-5-1-7-5-4 1 1 4-5 7 4-1v3l-4 2-4-1-4-4h-2l1 2 1 4-7 3-4 2-1 3-5 3h-2v3l-7 2-2 2-14 2-4 2-8 1-4 1 10 1 14-5 9-1 9-3 4 3-3 5-13 5-19 7-28 8-17 3-56 5-25 1v2l-13-2-46-1-20-2-20-4-29-8-16-6-10-6-14-12-9-10-2-4-6-31-2-18-1-18v-17l2-4 1-7-4-6 1-4 2-3-1-4-5-4-7-10-2-11-3-16-2-8-1-24v-17l1-6 1-22 4-16 4-8 25-15 14-7 3-1v-10l-2-9 3-4 1-4-1-39-2-16-2-8 1-12 3-16 4-24 4-21 3-16 15-36 11-24 9-14 10-11 7-8 12-11 13-9 9-3z" fill="#484848"/>
<path transform="translate(231,174)" d="m0 0h26 3v3l48 2 15 2 9 3 1 4-2 6-3 17-5 21-3 6h-3v2l-5 3-4-1-6-39-3-1-8 6-1 2-1 52-7 9-12 24-12 27-6 27-6 37v5l1 1 2 54 2 4 21 5 6-2 7-9h2l2-5 4 3h8l3 2 15 1 7 1h9v-2l13-4 7-3 10-3 12-6h2l-3 10-9 21-3 5-2 10-4 11-4 1-2 4-10 10-9 7-11 7h-3v2h-11l-2-3 12-3 1-4h-20l-2 6-1 2-9-1-7-1-2-1-3-7-5-8h-5l-3 5-4 3-6 1-1 2-3 2 1-12 6-25v-4h-2l-2 7-4 5h-2v5l-5-3-2-6 1 7 5 20-1 3-4-2-4-7-2-6 1 10-2 4-3 2-5-1-4-2-7-11v-3h-2v7l-5 2-6-1-3-2-2 4-6-1-4 1-5-5-4-3-2 7-9-3-4 1-1 2-4-1-5-3-5-6-2-3-2 5-5-3-10-5-10-4h-6l-5 4 6 3 5 2 13 4 5 3-1 5-5 6-10-1-20-4-16-2v3h3l2 2 24 4 13 2 8 9v3l-9-1-32-5h-14l-1 6-3-3 1 8v3l1 3-2 9v4l-1 1 1 4-1 2 2 10 3 6-3 1v10l1 3h-4l1 4-2-1-1-24v-17l1-6 1-22 4-16 4-8 25-15 14-7 3-1v-10l-2-9 3-4 1-4-1-39-2-16-2-8 1-12 3-16 4-24 4-21 3-16 15-36 11-24 9-14 10-11 7-8 12-11 13-9 9-3z" fill="#aaa"/>
<path transform="translate(343,669)" d="m0 0 7 1 1 1 9 1 2 4 4 1v2l4 1v4h10l-4 4-7 1v2l5 1v2l-4 3 3 2 1 5-4 1v2l7 1 3 3v2l-4 1-1 2-7 2v3l2 1-2 4-1 4-6 3h13v3l-6 2 1 4-3 1v3l6 1-3 3-9 4 14 1-4 2-7 3-15 2-3-1v-2l4-2-5-5v-3l3-3 5-3v-3l3-5 2-2-3-1h-12l-26 3-12 2-2 2 4 4-3 2-9 2-1 3 1 2 12 1-1 2-13 2v4l-2 6 5 1h32l13-1 16-4h9l9 1h5v2l-10 4 1 3-2 5-7 2-1-3-13-3-4-2-6 1-8 1-2 1-3-1-1 2-8 1-5 2-5-1-9 1 2 2-1 4-10 1v2l3-1 2 1v2l-2 1 2 4 4 1h30v1l-24 2-25 1v2l-13-2-46-1-20-2-20-4-29-8-16-6-10-6-14-12-9-10-2-4-6-31-2-18-1-23 2 3 3 19 1 4-2 3 1 4 3 3 1 5 3 1-3 2h-2l4 8h2l5 5-1 2-7-3 1 7h-2l3 7h3v2l3 1v4h4l6 4 7 3 13 4 18 5 4 1-11-4-21-9-11-7-5-4v-2l9 3v2l5 1 15 6 9 3 7 1-15-5-5-3-7-3-12-6v-2l-4-1-2-3 6 2 17 7 16 5 7 1-9-4-10-4-8-5 2-1 25 8 16 4-4-2-13-5-14-6v-2l-5-2-9-2-2-1v-3l21 2 16 3h7l1-1-12-3-9-3-7-4-2-4 1-2-4-1v-2l9 1 8 3h5l-8-4-8-3-9-4-1-2-4-2 4-1 10 3 1 1h7l-6-5 3-2-5-3v-2l-5-2v-3h2v2l11 1-4-5-1-4-2-2v-4l-2-2 10 1 21 5 17 2-9-4 2-2h11l19 2 8 1h9v3l2 1h21l8-2 13-1 5 3 7-1 1-2 4 1-3 5-4 2 6 4 2 4 6 6-1 4-5 2-2 4-1 6 18 1-1 3-15 1v2l5 2-1 3-2 2 3 1h22l32-5 5-3h3v-2l-21 1-2-1v-2l5-1-2-4 1-1 7-1 3-2-4-4 6-3v-4l-3-4 1-1-16 2-7 1h-20l-6-2 2-2 4-1 28-1 7-2 2-2-6-4 2-4 7-7h-7v-2z" fill="#aaa"/>
<path transform="translate(124,546)" d="m0 0 11 1 16 1 13 2 24 2 12-1 10-2 4-2h14l20 2 4 1v4l4 2 9-1 11 2 1 4-5 4-3 3v7l3 1h6l1 5-1 5-4 4 2 5-3 12 6 2 3 3-11 2 1 5 1 4-1 7 6 2 3 3-1 5-4 1-1 8 2 6v5l-2 2 1 8-4 1-8-3-1-3 1-3 5-2v-3l-5-2h-7l-6 2-7 1 10 2 8 7-2 4-1 1h-26l-19-1-10-2-17-2h-11l-38-9-10-3-16-6-2-2h10l-1-3-11-6-2-5h2v-2l13 1 26 6 14 2-18-5-17-5-12-5v-3l3-1 2 1v-3l-5-2-3-3 1-2 14 1-1-3 9 1 1-2-9-2-13-5-3-5 2-1 13 3h5l-17-6-11-7-1-3 12 2 9 2 18 3 10 1-3-3-12-5v-2l10-2-3-2-17-6-6-3 2-4 1-1h17l9 1-5-3-3-2 9-1h11l-14-2-17-5-6-3z" fill="#aaa"/>
<path transform="translate(231,174)" d="m0 0h26 3v3l48 2 15 2 9 3 1 4-2 6-3 17-5 21-3 6h-3v2l-5 3-4-1-6-39-3-1-8 6-1 2-1 52-7 9-3 6-3-1-2-10v-11l-3-6v-2l-12 7-3 1-3 9-3 3 1-11-6 5-3 6-1-3 1-2v-6l-7 12-3 1 1-7 2-9-5 2v-5h-2l-1-4-3-1v-2l-4 2-6 11-5 3-1-3 4-8-3-1v-5l-5 1h-8l-1-6-7 9-5 6-1-3 4-9 2-7-6 3-3-1 2-8-7 9-4 5-4 2 1-6-5 2 1-8 2-4 2-7 9-11 12-13 10-9 13-9 9-3z" fill="#1E1E1E"/>
<path transform="translate(81,498)" d="m0 0 10 1 24 4 8 2h6l2-1-2 6 4 7 4 6v2l12 2 6 4 1 4-7 3 2 1 10 1 7-2 12 3 3 5 5 2 11-1 1 1h7l5-2h15v1l-13 1-7 3-13 2-16-1-23-2-4-1-16-1-11-1 3 2 8 3 11 3 14 2 2 2h-19l5 4 1 2-10-1h-17l-3 4 4 1 24 9-2 2-10 1v2l5 1 10 5v2h-10l-19-3-17-4h-2l4 4 5 3 8 3 13 5v1h-7l-14-3 2 4 19 7 3 1-1 3-9-2 2 4-15-1 1 1 1 3 5 2v3h-5v3l24 8 21 5 8 3-2 1-23-4-27-6-7-1v2h-2l3 6-5-2-4-3h-6l-3 2-6-5-7-10-2-11-3-16-1-9v-2l3-1-1-7v-6l3-1-3-5-2-11 1-4-1-2h2l-1-5 2-9-2-3 1-5-1-6 3 2 2-5h14l36 6 5 1-4-7-4-4-31-5-7-2-2-2h-3z" fill="#484848"/>
<path transform="translate(130,336)" d="m0 0 7 1 4 1v2l3-1 2-2h6l5-1 3 2v2h3v-2h2l5 10 4 2 2-3 6 2 3 5 4-7 5 2 3 1v2l4-2 7 2 2 3 6-2 6-4h2v-2h3l1 3-1 21 3 1-2 1v14l-1 4-2 26-1 2-2 17-2-1-3-19-3-1-2 5-3-1-1-2-3 3-2 18-3-3-1-11-3-8-3 1-1-3-6 3-8-5-2 4h-2v-2l-6-2-2 4h-2l-4-17-1-6h-1l-1 8-3 3-2 4h-2l-1 9h-3l-2-5-3 3-2-11-1-8h-1l-2 22h-2l-2-15-2-2-2 2-1 4-3-1-1-14-3-12 1-12 3-16 2-14 4-1z" fill="#484848"/>
<path transform="translate(415,537)" d="m0 0h7l2 4 4 1-1 6 3 1-1 7 3 1-4 7-1 2 7 2-1 5 2 7 2 2h7l-1 3 1 2-3 8-2 13v3h-2l-2 9-1 4v8l2 2 3 14h-2l1 9 3 9v3l-4-1v8l-4 10-2 1h-6l-1-3-5-2v-2l-3-2 5-2v-3l-15 2-5 1v-2l-10 5h-6v-2l4-3-1-1-12-2 4-3h3l1-4-7 4-5 2 1 2-4 1-11-3v-2l11-5h4l3-10-5-1v-2l7-4 4-11h-2v-2l6-3 1-5v-8l1-4-1-4 4-5h2v-9l-4-3-2-6 5-6v-3l-6-3 1-2h2v-8l-4-2 1-5 5-6 1-5 1-1 11-2 4-4z" fill="#1E1E1E"/>
<path transform="translate(93,633)" d="m0 0h7l7 5 10 4 4 4-1 2h-8l18 7 37 9 9 2h12l5 1v1l-15 1 3 2 18 2 3 2h-18l10 5v1l-13-1-16-3-16-4h-4l2 6 4 8 2 2-3 1-9-2v-2h-2l1 3 4 2 6 6-3 1 6 5v1h-8l-8-3h-3l1 3 9 3 10 4 7 4v1l-10-1-9-3-4-1v2l4 1 1 4 4 4 5 2 7 2 12 3 2 2-3 1-13-1-10-2-21-3v3l14 3 3 2-1 2 9 3 10 4 12 4v3l-16-4-25-8 6 4 12 5 7 3 6 2-4 1-17-4-21-8-9-4 5 3v2l5 1 10 6 8 3 9 4 8 3-4 1-13-4-20-8v-2l-9-3 5 5 13 8 19 8 11 4 6 2-4 1-20-6-12-4-5-1-10-5-6-4-1 2-1-5-2-1v-2l-3 1-3-6 1-3-1-3 1-3 5 1h1l-3-3v-2l-3 1-2-5-1-4 4-2-3-3-3-5-2-2 1-4 1-3-5-25v-12l2-4 1-7-4-6 1-4z" fill="#494949"/>
<path transform="translate(775,616)" d="m0 0h10l4 2 1 5 4-1v2l3 1 1 3v3l1 4h-7l-5-5-4-1-1-3-8 1-8-2v-2h-2v7l5 13 6 9 26-2h18l2 2v5l3 1v4l-3 1 1 8-5 6-8-1-10-4-1-8-2 1-3 5-7-2-11-1-4 6h-2v2h-2l-2 5 10 1 18 4 22 5 6 3-6 11-5 5-4 8-9 2v-3l-6-1v-2l5-5h-2l-3-3-6-3-5-3-16-9-14-7-1-2-1-8-2 2-2 7h-2l-2 4-12 4 15 6 24 10 5 4-12 2h-18l-3-1-1-3-2-1-1-3-6-4v-3l-7-1-3-3v-3h3v-8l2-9 1-8 4-13 2-13 3-7v-3l5-2 12 4 3 7v3h2l2-6 1-1 1-11 1-2 7-3z" fill="#474747"/>
<path transform="translate(363,549)" d="m0 0h7l-2 5 6 1-1 4-5 3 3 2 5 1-2 5-1 9h7v4l-5 2h-4l-1 6 4 3-1 3 7 1-1 5-1 1h-5l2 4-3 1-4 6 5 2-3 3-7 1v3h2l-2 4-2 5-5 4 1 5-3 5-8 4-3 5 1 5-1 2-12 4-8 5-4 1-5-6v-10l4-2 8-2 3-2-1-5 7-3 7-2h-9l-4-1-2-6 2-3v-11l1-4v-7h-2v-2l-3 1-3-2 5-3 2-4-2-3 1-8 1-4v-4l2-3-6-1-1-3 5-4-5-2-1-3 1-2-5-1-1-2 8-5 4-3 21-1 1 1z" fill="#ABABAB"/>
<path transform="translate(377,428)" d="m0 0h2l-3 10-9 21-3 5-2 7-4 5-8 6h-2l-1 2-2-1-1 3h-3v-2l-7 3-1 3-6 1-3-3-6-2h-10l-16-2-14-3-6-1-4-1-2-5 9-18h3l1-4 6-8h2l2-5 4 3h8l3 2 15 1 7 1h9v-2l13-4 7-3 10-3z" fill="#474747"/>
<path transform="translate(253,467)" d="m0 0 3 1-1 9-6 26v5l2-3 8-3 4-3 2-4h5l3 5-5-1-3 7-3 10-6 7-4 10h-2l-1 3-4 2-4-4-6-1-3-3-5-4-11 2-3-2h-9l-12-5-6-7-2-1 1 9-1 2-4-1-3-1-6 1-9-3-7-6-2-3-3-10v-3l-2 1 1 10 3 1-2 7-3-4-6-12-4-4-1 3-2-1v-4l-12-5-9-2-2-2-5-2-1-2h3l1-3 2-1h6l19 8 5 4 2-4h3l3 5 4 5 7 3 2-4 6 1 5 2 2-7 5 3 5 4v2l6-2 4 1 2-4 5 3 8-1 1-7h2l5 10 3 4 5 2 4-1 2-1 1-6-1-8 3 2 3 9 5 5-1-7-2-6-2-10-1-9 2 2 1 6 4 2 1-4 5-5z" fill="#484848"/>
<path transform="translate(137,497)" d="m0 0 3 1 4 7 6 11 1-6-2-1-2-10 3-1 4 13 8 8 9 3 8-1 5 3-1-9 1-2 4 2 5 6 11 4h9l3 2 8-1h4l7 5v2h6l5 4 4-4h2l1-5 4-8 4-2 4-16 3-4 3 1 4 6 1 5-1 16-1 3-1 14-2 7-8-1h-13l-22-1-1-1h-15l-5 2h-7l-5-1-7 1-6-3-2-4-12-3-8 2-9-1-7-2v-1l11-2-2-5-4-2-12-3-7-11-2-6 2-2 2-5 4-2z" fill="#1E1E1E"/>
<path transform="translate(406,351)" d="m0 0 5 1 2 2v3l5 4v2l8 2 5 5-1 5 1 5h2l-1 5h-9v2h4l2 5 2 4v4l4 2 3 8-1 2h-2l1 5v3h-2l-1 3-10-1-1 2 4 2 3 5 10 7 6 4 11 6 6 4 6 2 1 3h-8l-4-2v-2h-2v-2l-4 1-3-5-14-5-5-1-8-1v2l10 2v2l4-1v2l8 2 2 2 4-1v4l-6 2-10 1-8-4-12-2-1-5-2-1-1-2-5 13h7l8 1 10 4h3v2l7 1 5 3-4 6-4 1v2h2l1 11 3 4-1 2-6-5-1-6-12-6v-4l-5 1-1 2-7 1-1-1v-6l-2-1h8l-2-6-5-1v-2l-4 3h-2l-1-4 2-4 3-17 1-2h2l-1-7-6-2-4-4-4 2-6 2-3 2 1-11 7-6 23 1 4-4 3-6 1-13-5-4-10-3-10-6-5-4-1-2v-10l1-3 4-1 4-3z" fill="#5B5B5B"/>
<path transform="translate(197,204)" d="m0 0 2 4-3 7h2l-1 5-3 9 9-3 1-2 1 4-1 4 5-3h3l1-3 3 1v2l4-2 3 1v2l2 1v2l5-3 1 7 4-1 7-6-2 9h3l-1 6h-2v7h2l5-8h2l1 3 3 3h3l5-7 10-7 8-7 2-2 4 6 2-10 1-14 2-1-1 54-7 9-3 6-3-1-2-10v-11l-3-6v-2l-12 7-3 1-3 9-3 3 1-11-6 5-3 6-1-3 1-2v-6l-7 12-3 1 1-7 2-9-5 2v-5h-2l-1-4-3-1v-2l-4 2-6 11-5 3-1-3 4-8-3-1v-5l-5 1h-8l-1-6-7 9-5 6-1-3 4-9 2-7-6 3-3-1 2-8-7 9-4 5-4 2 1-6-5 2 1-8 2-4 2-7 5-6h2l3 10h3l2-4 11-11h2z" fill="#494949"/>
<path transform="translate(78,568)" d="m0 0 6 4 3 3 4 2v2l3-1 9 4-1 2 4 4 5 3 8 3 13 5v1h-7l-14-3 2 4 19 7 3 1-1 3-9-2 2 4-15-1 1 1 1 3 5 2v3h-5v3l24 8 21 5 8 3-2 1-23-4-27-6-7-1v2h-2l3 6-5-2-4-3h-6l-3 2-6-5-7-10-2-11-3-16-1-9v-2l3-1-1-7v-6z" fill="#484848"/>
<path transform="translate(231,174)" d="m0 0h26 3v3l48 2 15 2 9 3 1 4-2 6-3 17-5 21-3 6h-3v2l-5 3-4-1-6-39-3-1-5 4-2-1 4-4 1-4-3-4v-2h-6l-1-4-7 1h-13l-3-3 1-2h-5l-1 2v-2l-14 4-4-2 1-4-11 1-6 2-3 3-7 1-5-1h-3v-4l-1-2 8-4 6-2z" fill="#484848"/>
<path transform="translate(150,296)" d="m0 0 3 4 4-1 4-2 3 5 4-1h7l2 4 5 5 6 2 1 1 7-1 4-2 4 1 3 2h5l5 5h6l8-4 1-1h7l2-4 2 2-2 13-2 5-6 1-5 5-3 1v-2l-6 4-1 2-10-3-4-2-3-2-8 1-2-1h-9l-8-4-7-6-6-1-2 1h-6l-2-2h-6l-2 3h-2l-3-3-4 2-4-4v-8l3-9 2-2h5l3 2 4-1z" fill="#494949"/>
<path transform="translate(433,763)" d="m0 0 5 2-2 5-10 5-18 6-25 8-17 4-30 3-27 1h-13l-5-1-2-6h3v-2h-5l-1-3 11-1v-3l-2-2 1-1 10-1 6 1 7-3 9-1 1-1 10-2 6 1 5 2 10 2 1 2-1 2 11-2 4-1-1-3 5 2 1 4-1 3h3l1-5v-3l7-3h12l14-5 9-1 6-2z" fill="#484848"/>
<path transform="translate(342,731)" d="m0 0h12l4 2-4 5-2 4 1 2-8 4 1 2-1 3 7 3-3 2-4 1v2l14-1 6-1 1 1 28-6 19-4 21-7 7-4 2 1-1 3-10 5-12 5-13 2-6 2-18 4-8 1h-9l-1 2h-9l-16 4-13 1h-32l-6-2 2-6v-4l6-2 8-1-11-1-2-5 5-3 8-2v-2l-4-2 3-3 26-4z" fill="#484848"/>
<path transform="translate(289,688)" d="m0 0 5 2v3h9l-1 2 11 1h14l24-3-1 3 4 4-2 4-5 2 4 4-4 3-7 1 1 4-5 1v2h23v2l-8 4-32 5h-22l-4-2 3-3v-2l-4-2v-2l15-2 1-2h-12l-6-1v-6l4-6h4v-4l-7-6-1-4z" fill="#474747"/>
<path transform="translate(389,485)" d="m0 0h3v5l-2 1 1 5 8 7 5 2-2 4-2 7 3 1-3 1v2l-10 7h-2v2l-10 4-13 1-5 1-5 3h-8l-3-3-5-3-1-5-2-8-1-6-3-3 5-5 4-1 7 5 3 3h3l6 3 2-13 2-2 4 1 2 1h6l2-3h2l2-5 5-5z" fill="#1E1E1E"/>
<path transform="translate(580,659)" d="m0 0 9 1 16 7 7 3-2 5v6l-8 7-2 2 2 4h-8l-1 4-1 7 4 3 4 2-4 1-12-3-10-3-12-7-14-7-3-3 6 1 14 6 6 2-5-5-2-3h2l-4-5-7-6 5-4 7 1-2-4 7-2-1-2v-6z" fill="#494949"/>
<path transform="translate(775,616)" d="m0 0h10l4 2 1 5 4-1v2l3 1 1 3v3l1 4h-7l-5-5-4-1-1-3-8 1-8-2v-2h-2v7l2 8-3-1-3 4h-2v7h-2v6h-2l-1 8-3 1-1-7v-9l-1-6h-7v2h-2l-3 9-2 5h-2l-2 9-3 15-2 2 1 2-1 3h5l-2 2 15 6 24 10 5 4-12 2h-18l-3-1-1-3-2-1-1-3-6-4v-3l-7-1-3-3v-3h3v-8l2-9 1-8 4-13 2-13 3-7v-3l5-2 12 4 3 7v3h2l2-6 1-1 1-11 1-2 7-3z" fill="#5C5C5C"/>
<path transform="translate(98,718)" d="m0 0h7l2 2 12 4 8 1-1 4 14 3 3 2-1 2 9 3 10 4 12 4v3l-16-4-25-8 6 4 12 5 7 3 6 2-4 1-17-4-21-8-9-4 5 3v2l5 1 10 6 8 3 9 4 8 3-4 1-13-4-20-8v-2l-9-3 5 5 13 8 19 8 11 4 6 2-4 1-20-6-12-4-5-1-10-5-6-4-1 2-1-5-2-1v-2l-3 1-3-6 1-3-1-3 1-3 5 1h1l-3-3v-2l-3 1-2-5-1-4z" fill="#4A4A4A"/>
<path transform="translate(397,417)" d="m0 0 3 1 3 3 3 2 4 1 1 5 5 1 3 3 1 6 3-2 10 2-4 2-8-1v2l10 2v2l4-1v2l8 2 2 2 4-1v4l-6 2-10 1-8-4-12-2-1-5-2-1-1-2-5 13h7l8 1 10 4h3v2l7 1 5 3-4 6-4 1v2h2l1 11 3 4-1 2-6-5-1-6-12-6v-4l-5 1-1 2-7 1-1-1v-6l-2-1h8l-2-6-5-1v-2l-4 3h-2l-1-4 2-4 3-17 1-2h2l-1-7-6-2-4-4-4 2-6 2-3 2 1-9 4 2h6z" fill="#5B5B5B"/>
<path transform="translate(367,466)" d="m0 0 5 1 5 4v2h3v2h-4l-1 3 4 1 2 5 3 2h4l-1 4-6 7-1 2h-2l-2 4h-6l-3-2-4 1-1 9-2 4-6-2-5-1-4-4-4-3-6 1 1-3 9-7 8-8 1-2 3-1 5-13 1-2h2z" fill="#474747"/>
<path transform="translate(446,741)" d="m0 0 4 2v4l-7 3-4 2-1 3-5 3h-2v3l-7 2-2 2-14 2-4 2-8 1-5 2-8 4 1 3-1 4-1 2-4-2 1-6-4-2v2l-7 3h-7v-1l7-2 2-6-2-1 6-3 5-1v-2l-9 1-4-1v-2l22-3 18-4 6-2 11-2 5-2 8-4 6-1z" fill="#484848"/>
<path transform="translate(498,524)" d="m0 0 4 1 10 9 6 5 5 5 3 4v2l4 1-3 7-7 4-8 7-1 2h-3l2-5 8-9v-3l-11-4-12-6-19-9v-3l15-6z" fill="#484848"/>
<path transform="translate(419,408)" d="m0 0 5 2 2 5v5l-4 4 4 2 3 5 10 7 6 4 11 6 6 4 6 2 1 3h-8l-4-2v-2h-2v-2l-4 1-3-5-14-5-1-3-10-1-5 1v-6l-2-1v-2h-6l-1-6h-4v-2l-5-1-1-3-3 1-3 3h-6l-2-5 7-6 23 1z" fill="#484848"/>
<path transform="translate(257,654)" d="m0 0h7l6 3-1 3-5 2v5l8 3v2l-10 2-4 1h-22l2 1 16 1h6l1-1h9l5 1v1l-19 3-7 1h-16l-3-3 1-2-14 1-13-2-5-2-18-2-4-4h27l10 2 24 1h21l2-4-9-7-10-2v-1l11-1z" fill="#494949"/>
<path transform="translate(523,521)" d="m0 0h34l6 1 6 13 2 5v5l-1 1h-12l-7-2-7-5v-2l-5-2-11-9z" fill="#474747"/>
<path transform="translate(670,547)" d="m0 0 5 1 16 6 16 8v2l-9 5-4 4h-16l-8-4-2-2-1-5 2-4-1-7z" fill="#484848"/>
<path transform="translate(612,705)" d="m0 0 8 1 16 5 13 5 9 4v3l-7 2-1 2h-5v3l-9 2-7-1-15-5v-3h12l-4-5 2-1-12-7-5-4z" fill="#5C5C5C"/>
<path transform="translate(397,417)" d="m0 0 3 1 3 3 3 2 4 1 1 5 5 1 3 3 1 6 3-2 10 2-4 2-8-1v2l10 2v2l4-1v2l8 2 2 2 4-1v4l-6 2-10 1-8-4-12-2-1-5-2-1-2-2v-5l-3 3 1-6h2l-1-7-6-2-4-4-4 2-6 2-3 2 1-9 4 2h6z" fill="#5C5C5C"/>
<path transform="translate(790,781)" d="m0 0h5l-1 4-4 5-12 9-4 1-15 3-31 1-10-1 1-2 29-2 8-2-3-3 8-4 4-3 9-1 6-2 9-2z" fill="#494949"/>
<path transform="translate(433,763)" d="m0 0 5 2-2 5-10 5-18 6-22 7h-3l-1-8v-3l2-3 6-2h12l14-5 9-1 6-2z" fill="#4C4C4C"/>
<path transform="translate(99,731)" d="m0 0 5 1 9 3v3l4 2v2l5 1 10 6 8 3 9 4 8 3-4 1-13-4-20-8v-2l-9-3 5 5 13 8 19 8 11 4 6 2-4 1-20-6-12-4-5-1-10-5-6-4-1 2-1-5-2-1v-2l-3 1-3-6 1-3-1-3z" fill="#4E4E4E"/>
<path transform="translate(304,520)" d="m0 0 4 2 5 14 1 5-6 4-19 1-2-4 4-5 1-11 3-1 1-2z" fill="#1E1E1E"/>
<path transform="translate(311,720)" d="m0 0h8l11 1 5 1h8l1-1h15v2l-8 4-32 5h-22l-4-2 3-3 12-2 1-4z" fill="#464646"/>
<path transform="translate(111,528)" d="m0 0h31l9 2 2 1-1 5-35 1-9-4v-4z" fill="#ABABAB"/>
<path transform="translate(724,691)" d="m0 0h7l36 15 5 4-12 2-13-2-2-1v-2l-9-5-6-5-6-3z" fill="#494949"/>
<path transform="translate(339,771)" d="m0 0 6 1 5 2 10 2 1 5h-3l1-4h-26l-18 3-11 2v5l-6 1v3l-2 2 1 2 12 1v1h-13l-5-1-2-6h3v-2h-5l-1-3 11-1v-3l-2-2 1-1 10-1 6 1 7-3 9-1 1-1z" fill="#5B5B5B"/>
<path transform="translate(72,588)" d="m0 0 3 4 1 4 2 2 2 8h-2l4 8 1 3 4 1 1 3h2l4 4-1 3 3 1 2-1 6 1 4-1 6 2v1h-6v2h-2l3 6-5-2-4-3h-6l-3 2-6-5-7-10-2-11-3-16z" fill="#606060"/>
<path transform="translate(547,735)" d="m0 0 9 1 3-1 8 3 7 1 1 2 6 3v2h2l2 5-3 3-9-1-5-4-13-6-9-6z" fill="#484848"/>
<path transform="translate(100,748)" d="m0 0 7 6 5 1v2l6 2 1 2 5 2 3 3 11 5 9 4 1 5-16-3v-2h-6l-10-8-10-9-6-7zm10 8 1 3v-3z" fill="#565656"/>
<path transform="translate(266,474)" d="m0 0 9 4 11 2h7l16 3h14l5-2 11-1 9-3 8-1-5 5-3 1-1 2-2-1-1 3h-3v-2l-7 3-1 3-6 1-3-3-6-2h-10l-16-2-14-3-6-1-4-1z" fill="#5C5C5C"/>
<path transform="translate(612,705)" d="m0 0 8 1 16 5 13 5 4 2 1 4h-9l-15-4-9-3-9-5-5-4z" fill="#4A4A4A"/>
<path transform="translate(490,429)" d="m0 0 33 2 32 2-1 4-56-1-7-1-2-5z" fill="#2A2A2A"/>
<path transform="translate(786,771)" d="m0 0h4l1 3-5 6-13 5-2 1-6-1-24-2v-1l19-3 9-3 13-4z" fill="#484848"/>
<path transform="translate(306,573)" d="m0 0 5 1 1 7-7 3-18 1-9 3 1 5v4h-2l-1 4-2 3 1-10-2-5 5-4v-9h8l3 1-1 4 13-2-2-3z" fill="#5C5C5C"/>
<path transform="translate(457,588)" d="m0 0 2 1-1 9h-2l2 10 1 3-1 2h-2l-1-5-2 1-2 7h-2l1 4 3 8-1 4-5-4v-3h-2v7l-6 3-2-4 1-4 2 1 9-23 3-8h3l-1-5h-3v-2l6 1z" fill="#1E1E1E"/>
<path transform="translate(289,688)" d="m0 0 5 2v3h9l-1 2 11 1h20l-7 7-25 2-8 1 1-2h4v-4l-7-6-1-4z" fill="#5C5C5C"/>
<path transform="translate(337,713)" d="m0 0 3 1 1 4-5 1v2l7 1v1h-8l-5-1-19-1-2 2 2 2-13 3-4-4-2-1v-2l15-2 1-2h-12v-1h30l10 2-1-3z" fill="#5B5B5B"/>
<path transform="translate(323,604)" d="m0 0 3 1v2h2v2h2l1 8-1 6v8l-2 1-1-10v-9l-2-3h-9l-5 2-16 1-11 1-6-1 3-2-3-3 25-1 15-1z" fill="#5C5C5C"/>
<path transform="translate(81,498)" d="m0 0 10 1 24 4 8 2h6l2-1-2 6 3 5v2h-2l-5-6-31-5-7-2-2-2h-3z" fill="#4B4B4B"/>
<path transform="translate(537,775)" d="m0 0 10 2 20 10v2h-2l-1 3v-2l-8 1-10-2-6-3-5-5v-3h2z" fill="#4E4E4E"/>
<path transform="translate(441,739)" d="m0 0 2 1-1 3-10 5-12 5-13 2-6 2-18 4-8 1h-14v-1l23-5 21-4 27-8z" fill="#1E1E1E"/>
<path transform="translate(453,536)" d="m0 0 5 1-1 5 2 1 3 3v3h2l1 2 6 1 1 5 4-1 7 3-4 1 2 5-6-1v-2l-4 1-1-2h3l-2-2-4 1v-4h-3l-3-3-2 2v5l-4-1-2-5z" fill="#5C5C5C"/>
<path transform="translate(368,432)" d="m0 0 2 1-6 5-2 2-7 1-10 3-5 4-16 3-5-2-12-1-7-3-2 1-8-2v-2l-2-1 2-2 3 3h8l3 2 15 1 7 1h9v-2l13-4 7-3 10-3z" fill="#5C5C5C"/>
<path transform="translate(99,731)" d="m0 0 5 1 9 3v3l4 2v2l5 1 10 6 8 3 9 4 8 3-4 1-13-4-20-8v-2l-10-2-5-4v-3l-4-1-2-2z" fill="#4F4F4F"/>
<path transform="translate(615,692)" d="m0 0 9 2 11 3h8l4-3 1 6 3 1v2l-12 2-2 2h-5l-5-4-5-5-7-3z" fill="#5C5C5C"/>
<path transform="translate(436,521)" d="m0 0h9l-2 5v5h2v5l-4 3-4-1-3-7-8 1v-2l-3-1 1-2-5-1 1-2 3 1 12-2z" fill="#ABABAB"/>
<path transform="translate(354,780)" d="m0 0 2 1v2l5 1v4l-4 4 1 2-22 2h-27v-1l26-1 4-2 2 1 2-4 4-2 1-6z" fill="#646464"/>
<path transform="translate(555,746)" d="m0 0 9 4 1 3 3 2 6 2v5l2 3-9-2-9-4-14-7-3-2v-2l7 1 10 4h2v-3l-7-2z" fill="#494949"/>
<path transform="translate(89,675)" d="m0 0 2 3 3 19 1 4-2 3 1 4 3 3 1 5 3 1-3 2h-2l4 8h2l5 5-1 2-7-3 1 7h-3l-4-16-3-24z" fill="#A7A7A7"/>
<path transform="translate(583,795)" d="m0 0 10 1 16 4 13 3 7 3v1l-14 1-20-5-6-2v-2l-5-1z" fill="#4E4E4E"/>
<path transform="translate(319,191)" d="m0 0h6l3 2-2 7h-3l2 6-3 16-2 3h-2v-6h-2l1-11 2-6-1-8z" fill="#5C5C5C"/>
<path transform="translate(370,195)" d="m0 0h2l-3 12-7 16-4 6h-1v-6l2-6v-9l-2-4v-3l6-1 4 2-1-3h2z" fill="#454545"/>
<path transform="translate(217,396)" d="m0 0h1l1 12v12l-2-4-3-1-2 5-3-1-1-2-4 3v-8l3-11 2-3 3 9 3-2z" fill="#5C5C5C"/>
<path transform="translate(72,529)" d="m0 0 3 1 1 3-2 9v4l-1 1 1 4-1 2 2 10 3 6-3 1v10l1 3h-4l1 4-2-1-1-24v-17z" fill="#ABABAB"/>
<path transform="translate(796,657)" d="m0 0 4 1 1 5 3 1 1 3 2 1 1 5 7 2 1-5 1-8 4-4h3v4l-3 1 1 8-5 6-8-1-10-4-1-8-2 1-1-6z" fill="#606060"/>
<path transform="translate(555,700)" d="m0 0 9 2 12 4 10 5 7 2-1 3h-10l-14-6-7-4-6-5z" fill="#4E4E4E"/>
<path transform="translate(416,443)" d="m0 0 17 2 2 1v1l8 2 2 2 4-1v4l-5 1-10-2-6-2-6-1-2 1v-2l-3 1-2-5z" fill="#4B4B4B"/>
<path transform="translate(402,359)" d="m0 0 5 2 6 4 1 2-2 4-3 3-1 2h-5l-4 1-2-4h3l1-5 1-2h-2v-5h2z" fill="#474747"/>
<path transform="translate(257,654)" d="m0 0h7l6 3-1 3-5 2v7l-3 3-2-1 2-4-9-7-10-2v-1l11-1z" fill="#4E4E4E"/>
<path transform="translate(785,752)" d="m0 0h13v4l-10 5-7 1-5-2-4-2 1-2z" fill="#5C5C5C"/>
<path transform="translate(79,551)" d="m0 0 6 2 15 8 7 4 2 1v2l3 1v1l-7-1-14-5-8-5-4-6z" fill="#1E1E1E"/>
<path transform="translate(427,710)" d="m0 0 3 1-1 3-13 5-15 4-7 2h-9l2-2 10-3 24-8z" fill="#1E1E1E"/>
<path transform="translate(419,519)" d="m0 0 1 3h16l-1 2-13 2 2 1v2l2 1v2l-14 3v-9l-2-1 4-4z" fill="#5C5C5C"/>
<path transform="translate(116,603)" d="m0 0 10 3 9 3-1 3-9-2 2 4-15-1 1 1v3l-7-4 3-3 4-2 1-3h2z" fill="#5C5C5C"/>
<path transform="translate(819,693)" d="m0 0 2 1-6 10-5 5-4 8-9 2v-3l-6-1v-2l5-5 2-1 1 2 2-1v2l6-2 5-5 2-4z" fill="#5C5C5C"/>
<path transform="translate(339,771)" d="m0 0 6 1 5 2 10 2 1 5h-3l1-4h-26l-18 3-4-1 4-3 8-1 6-2z" fill="#5C5C5C"/>
<path transform="translate(596,756)" d="m0 0 10 1 10 5 12 4 3 3-9-1-18-4-7-2z" fill="#4D4D4D"/>
<path transform="translate(554,724)" d="m0 0 9 2 8 3 13 5-1 2-6 1-13-3-12-7 2-1z" fill="#505050"/>
<path transform="translate(775,785)" d="m0 0h5l-1 4-4 1-3 2-4 3-7 3h-5l-3-4 8-4 4-3 9-1z" fill="#5C5C5C"/>
<path transform="translate(475,583)" d="m0 0 12 3 13 5 5 2 3 4 2 4v3l-6-1v-4l2-2h-5l-2-3-22-6-2-2z" fill="#4A4A4A"/>
<path transform="translate(775,616)" d="m0 0 9 1 3 3 1 5h3v3l3 1v5l-3-3-6-3-2-3-6-2h-5v-2l-3-1 3-1z" fill="#474747"/>
<path transform="translate(480,591)" d="m0 0 7 3 3 2-1 3-5-3v5h7l2 2h-14l-7 1 1-3-5-5-1-3 4 1 2 1 8 1 2 1v-3l-3-1z" fill="#565656"/>
<path transform="translate(111,478)" d="m0 0h6l2 2h-3v2l5 1 1 3 2 1 3 3 8 3-1 2-12-5-9-2-2-2-5-2-1-2h3l1-3z" fill="#5B5B5B"/>
<path transform="translate(315,559)" d="m0 0 4 1 5 2v5l3 1h-5l-1-4-22 1-6-1-5-1 4-2 6-1z" fill="#5E5E5E"/>
<path transform="translate(177,668)" d="m0 0h16l15 2 1 4-7 1-3-1-18-2z" fill="#1E1E1E"/>
<path transform="translate(461,552)" d="m0 0 3 2v2h3v4l5-2 1 3-2 1 4 3v2l-8-1-10-3-1-3h3l-1-6z" fill="#484848"/>
<path transform="translate(178,407)" d="m0 0h2l7 7 3-4h6l4 10-1 4-3-8-3 1-1-3-6 3-8-5-2 4h-2v-2l-6-2-1 2 1-5 8 1z" fill="#5C5C5C"/>
<path transform="translate(158,386)" d="m0 0 2 1 1 4-2 2h-1l-1 8-3 3-2 4h-2l-1 9h-3l-2-5-3 3-1-7h3l3 1v2l2-1 4-13 2-3h2l1-6z" fill="#5C5C5C"/>
<path transform="translate(264,672)" d="m0 0h8l2 1v2l-2 1-11 1-1 1h-12l-10-1-3-3h25z" fill="#1E1E1E"/>
<path transform="translate(421,440)" d="m0 0h12l10 4 6 3 1 4-6 1-1-3-8-1-2-2h-2v-2h-6l-4-2z" fill="#ABABAB"/>
<path transform="translate(384,534)" d="m0 0 2 2h-2l2 2 6-3 4 1 1 3-5 1-1 3-6 2-7-1-5-1 1-2h5l2-6z" fill="#5C5C5C"/>
<path transform="translate(390,772)" d="m0 0 1 3 1 5-1 4 4-1 1 2-10 3h-3l-1-8v-3l2-3z" fill="#ABABAB"/>
<path transform="translate(547,735)" d="m0 0 9 1 3-1 8 3 7 1 1 2 6 3v2h2v2l-10-3-9-4-10-3h-6l-2-2z" fill="#606060"/>
<path transform="translate(318,679)" d="m0 0h12l5 3-3 3-12 2-5-2 1-4z" fill="#ABABAB"/>
<path transform="translate(140,663)" d="m0 0 16 2 19 4v3h-9l-12-3-13-4z" fill="#ABABAB"/>
<path transform="translate(562,715)" d="m0 0 13 2 3 2 10 3 4 4-4 1-13-4-11-5v-2z" fill="#505050"/>
<path transform="translate(139,670)" d="m0 0 9 1-3 2 2 6 4 8 2 2-3 1-9-2 1-2h2l-3-3v-6l-2-5z" fill="#5B5B5B"/>
<path transform="translate(445,531)" d="m0 0 2 4-1 4 2 6-1 3-3 1-2 3-4-1v-10l-1-3 6-1z" fill="#5C5C5C"/>
<path transform="translate(381,763)" d="m0 0h4l-1 4-4-1-1 4-2 2 1 3h-3v2l-7 3h-7v-1l7-2 2-6-2-1 6-3 5-1v-2z" fill="#5B5B5B"/>
<path transform="translate(135,575)" d="m0 0 7 1 5 2-2 2-10 1v2l5 1 1 2-10-3v-2l-3 1-1-2-5-2v-2h13z" fill="#5C5C5C"/>
<path transform="translate(489,558)" d="m0 0 7 3 8 6h-3l-4-2-1 5-4 2v-4l-4-1v-3l-4-1 1-2 2 1v-3z" fill="#4F4F4F"/>
<path transform="translate(402,279)" d="m0 0 3 4 2 5 1-4v5l-5 6-4 1-2-5 1-7z" fill="#5C5C5C"/>
<path transform="translate(572,663)" d="m0 0 2 2 1 7-7-1 5 5-1 3h-7l-4 1 1 3-4-2-3-4 5-3 7 1-2-4 7-2-1-2z" fill="#5D5D5D"/>
<path transform="translate(433,763)" d="m0 0 5 2-2 5-10 5-8 2 1-3h2l1-4 3-1v-3l6-2z" fill="#5E5E5E"/>
<path transform="translate(343,748)" d="m0 0 3 2-1 3v3l-4-1h-30v-2l21-2z" fill="#5C5C5C"/>
<path transform="translate(72,588)" d="m0 0 3 4 1 4 2 2 2 8h-2l4 8 1 3-3 1-1 2 4-1 4 2 1 3-7-2-2 1-2-5-3-21z" fill="#A8A8A8"/>
<path transform="translate(302,505)" d="m0 0h17l1 4-5 3h-5l2-4-7-1-3 3h-2l1 3-5 1 2-6 1-2z" fill="#5A5A5A"/>
<path transform="translate(114,553)" d="m0 0 7 1 17 3 5 1v2l5 3 1 2-10-1v-2l-16-4-9-4z" fill="#6C6C6C"/>
<path transform="translate(774,774)" d="m0 0h5l-2 2-7 2h-4v2l-7 2 16 1-4 3-6-1-24-2v-1l19-3 9-3z" fill="#5C5C5C"/>
<path transform="translate(312,764)" d="m0 0h29v1l-10 2h-32v-2z" fill="#1E1E1E"/>
<path transform="translate(372,592)" d="m0 0h7l1 3 5 2-2 4-2 2v4l-10 4 1-3 2-1-1-3 5-1 2-5h-8l1-4z" fill="#5D5D5D"/>
<path transform="translate(176,347)" d="m0 0 6 2 3 5 4-7 3 3h-3l-2 11-3 2-2-3-1-6-5-2-4 1-2-4 4 1z" fill="#5C5C5C"/>
<path transform="translate(602,750)" d="m0 0 11 2 4 1 9 2 3 4-2 1-13-3-11-4z" fill="#5C5C5C"/>
<path transform="translate(78,568)" d="m0 0 6 4 3 3 4 2v2l3-1 9 4-2 4-6-3v-2h-5v-2l-5-1-6-4-5-2 1-3z" fill="#616161"/>
<path transform="translate(357,201)" d="m0 0h3l5 15-6 12-2 1v-6l2-6v-9l-2-4z" fill="#585858"/>
<path transform="translate(322,203)" d="m0 0h2l1 3-3 16-2 3h-2l-1-7 2-10z" fill="#ABABAB"/>
<path transform="translate(199,653)" d="m0 0h13l15 1 9 2 1 2h-16l-22-4z" fill="#595959"/>
<path transform="translate(767,804)" d="m0 0 6 1v5l-7 3h-7v-6l3-2z" fill="#616161"/>
<path transform="translate(454,539)" d="m0 0h2v8l4 2-1 11-4-1-2-5v-14z" fill="#ABABAB"/>
<path transform="translate(821,657)" d="m0 0 3 1v4l-3 1 1 8-5 6-8-1v-2l6 1 1-5 1-8 4-4z" fill="#5C5C5C"/>
<path transform="translate(780,616)" d="m0 0 7 1 2 1 1 5 4-1v2l3 1 1 3v3l1 4h-7l2-1-1-5-2-1v-3h-3l-1-5-3-1v-2z" fill="#5D5D5D"/>
<path transform="translate(463,745)" d="m0 0 3 1-1 5-14 10-5 3h-3v-2h3l3-6 6-2 6-6 2-1z" fill="#585858"/>
<path transform="translate(396,525)" d="m0 0 3 1-3 4 6 1-2 1v5l-2 3-6 1 2-2h3l-2-3-3-1-3-3v-2h3l2-4z" fill="#636363"/>
<path transform="translate(307,179)" d="m0 0 16 2 9 3-5 4-6-2h-5l-1-2 4-1h-2v-2l-5 1h-9l-1-2z" fill="#626262"/>
<path transform="translate(89,538)" d="m0 0 8 2 19 8 2 3-13-3-13-6z" fill="#1E1E1E"/>
<path transform="translate(261,501)" d="m0 0v3l-2 4-10 3-2 6-3-1 1-6 2-6 2 4 2-3 8-3z" fill="#5C5C5C"/>
<path transform="translate(389,248)" d="m0 0 3 1 1 4-7 9h-1l-2-8v-4z" fill="#5C5C5C"/>
<path transform="translate(437,550)" d="m0 0 5 2v2h5v9l-1 2-4 1-2-3h2l-1-4h-4l1-3h2l-3-4z" fill="#5C5C5C"/>
<path transform="translate(250,629)" d="m0 0h15l-5 6 5 2-2 2h-5l-1-5-7-2z" fill="#575757"/>
<path transform="translate(140,690)" d="m0 0 4 1 6 6-3 1 6 5v1h-8l-1-4-5-3 1-3v-2z" fill="#5C5C5C"/>
<path transform="translate(112,689)" d="m0 0 13 6 9 3-3 2 4 2-1 2-16-8-6-4z" fill="#5C5C5C"/>
<path transform="translate(609,800)" d="m0 0 13 3 7 3v1l-14 1-4-2 1-2-4-1z" fill="#5A5A5A"/>
<path transform="translate(486,639)" d="m0 0 7 6 12 9 1 2-5-2-7-5-7-3-6-4 4-1z" fill="#4C4C4C"/>
<path transform="translate(543,763)" d="m0 0h3v2l10 3 12 6 1 2-9-2-7-1-1-3-8-3z" fill="#515151"/>
<path transform="translate(408,766)" d="m0 0h8l-3 3-11 4-11-1 1-2 7-2h6z" fill="#ABABAB"/>
<path transform="translate(237,474)" d="m0 0 2 2 1 6 4 2 1-4 5-5 2-1-2 7-4 8-3-1-1-2h-3l-2-6z" fill="#5C5C5C"/>
<path transform="translate(391,772)" d="m0 0h9l-4 3v4l-1 2 8 1-4 2h-8l-1-9z" fill="#626262"/>
<path transform="translate(122,390)" d="m0 0h2v11l1-2h2v-6h4l1 3v7l-3-2-2 2-1 4-3-1z" fill="#6C6C6C"/>
<path transform="translate(553,521)" d="m0 0 6 1-1 6 4 3h-2l-1 3-4-1v-3l-4-2z" fill="#5B5B5B"/>
<path transform="translate(89,675)" d="m0 0 2 3 3 19 1 4-3 7h-1l-2-28z" fill="#ABABAB"/>
<path transform="translate(480,654)" d="m0 0h5l7 6 1 4-6-2-3-2h-3l-2-5z" fill="#505050"/>
<path transform="translate(117,560)" d="m0 0h9l5 1 3 2-12 1-3 4-4-2-1-5z" fill="#5C5C5C"/>
<path transform="translate(638,299)" d="m0 0h5l-4 4-15 1h-4v-3l2-1z" fill="#4C4C4C"/>
<path transform="translate(437,720)" d="m0 0h6l-1 3-15 5h-6l3-3 4-1z" fill="#5C5C5C"/>
<path transform="translate(354,732)" d="m0 0 4 1-4 5-2 4 1 2-6 2 1-3-4-1 1-3 9-5z" fill="#5E5E5E"/>
<path transform="translate(131,708)" d="m0 0 11 2-2 2-2-1v2l4 1 1 4 1 3-5-1-3-3h2v-2l-4-2-4-4z" fill="#5C5C5C"/>
<path transform="translate(123,448)" d="m0 0h2l2 16-3-1-4-9 1-4z" fill="#616161"/>
<path transform="translate(747,667)" d="m0 0h3v3l3 1v7l-1 5-3-1-1-9-3 2 1-7z" fill="#5C5C5C"/>
<path transform="translate(472,301)" d="m0 0 7 1-2 1-1 5h8l1 4h-5l-4-1-4-4z" fill="#414141"/>
<path transform="translate(260,763)" d="m0 0h14l6 2-1 2h-12l-7-3z" fill="#494949"/>
<path transform="translate(232,490)" d="m0 0 3 2 3 10-4 1-2 4-5 2-6-2v-2l8 1 3-2 1-6z" fill="#5C5C5C"/>
<path transform="translate(270,728)" d="m0 0h8l3 1v2l-8 1h-10l-3-2 1-1z" fill="#535353"/>
<path transform="translate(395,490)" d="m0 0h4l2 5 2 3-1 4-4-2-3-5-2-1v-3z" fill="#ABABAB"/>
<path transform="translate(372,468)" d="m0 0h2l3 3v2h3v2h-4l-1 3 4 1 1 4-4-2v-2l-3-1v-2l-4-2 1-3h3z" fill="#5E5E5E"/>
<path transform="translate(346,693)" d="m0 0h5l-1 3 4 4-2 4-3-1v-5h-5l-1-1-9-1v-1z" fill="#5C5C5C"/>
<path transform="translate(467,593)" d="m0 0 4 1 2 1 5 1 2 1v2l-3 1v3l-5 1 1-3-5-5z" fill="#727272"/>
<path transform="translate(661,296)" d="m0 0h4l-1 3-9 3-7 1-1-3 6-2z" fill="#494949"/>
<path transform="translate(729,800)" d="m0 0h12v1h-5l-1 3h-13l-4-2 1-1z" fill="#5C5C5C"/>
<path transform="translate(75,593)" d="m0 0 4 2v2h2l2 10-3 1-1 3-2-6 2-1-2-3-1-4z" fill="#5B5B5B"/>
<path transform="translate(211,490)" d="m0 0h2l3 6-1 2-2-2-1 3-5 2h-5l-4-3-2 1 1-4 5 3 8-1z" fill="#5C5C5C"/>
<path transform="translate(399,484)" d="m0 0h9l3 1-1 3-9 2-3-1z" fill="#ABABAB"/>
<path transform="translate(247,172)" d="m0 0 12 1-1 3-1-2-6 1h-27v-1l6-1z" fill="#ABABAB"/>
<path transform="translate(134,770)" d="m0 0 4 1 9 4 1 5-10-2 1-3z" fill="#5B5B5B"/>
<path transform="translate(248,613)" d="m0 0h9l1 3-3 2h-3v2h-3l-1-3-2-1v-2z" fill="#565656"/>
<path transform="translate(304,736)" d="m0 0 4 1h-3v2l5 1v5l-3 1h-10v-1l8-2v-2l-4-2z" fill="#5D5D5D"/>
<path transform="translate(332,533)" d="m0 0 5 2v3h2v2l-6 1-4-2 1-5z" fill="#1E1E1E"/>
<path transform="translate(587,782)" d="m0 0 6 1 18 5 1 3-16-4-9-4z" fill="#5B5B5B"/>
<path transform="translate(456,738)" d="m0 0 3 1v2h3v3l-4 2-4-1-4-4 3-2z" fill="#5C5C5C"/>
<path transform="translate(646,694)" d="m0 0 2 4v4l-7 1-5-3v-1h7l2-4z" fill="#4B4B4B"/>
<path transform="translate(404,478)" d="m0 0h4v2h5l2 4-15-1v-3z" fill="#1E1E1E"/>
<path transform="translate(140,762)" d="m0 0 5 1 12 4 8 3-4 1-19-6z" fill="#555"/>
<path transform="translate(455,451)" d="m0 0h6l8 4v2h-8l-4-2v-2h-2z" fill="#5C5C5C"/>
<path transform="translate(446,443)" d="m0 0 5 2 8 5v2l-6-1h-3l-2-4-5-2z" fill="#505050"/>
<path transform="translate(204,238)" d="m0 0h3v2h3l1 5 3-1-1 5-4-2v-5l-5 1h-8l3-2 4-1z" fill="#5C5C5C"/>
<path transform="translate(446,741)" d="m0 0 4 2v4l-7 2v-2l-7 1 3-3 6-3z" fill="#5F5F5F"/>
<path transform="translate(361,651)" d="m0 0 5 1-3 3-5 1h-7v-3z" fill="#1E1E1E"/>
<path transform="translate(397,482)" d="m0 0 2 3-1 4 12-1-1 4h-9l-1 2v-4l-3-1z" fill="#5C5C5C"/>
<path transform="translate(555,746)" d="m0 0 9 4 1 3 3 3-3 1-6-2 1-5-7-2z" fill="#5C5C5C"/>
<path transform="translate(92,707)" d="m0 0 5 4 1 5 3 1-3 2h-3l-3-7z" fill="#808080"/>
<path transform="translate(99,731)" d="m0 0 5 1 3 5v2l4 2 2 2-3 1-5-4v-3l-4-1-2-2z" fill="#5F5F5F"/>
<path transform="translate(559,674)" d="m0 0 5 2 1 3-4 1 1 3-4-2-3-4z" fill="#5A5A5A"/>
<path transform="translate(119,654)" d="m0 0 11 2 5 2 6 1v1h-10l-12-4z" fill="#1E1E1E"/>
<path transform="translate(87,569)" d="m0 0 4 1 8 3 6 3 1 2-7-1-8-4z" fill="#1E1E1E"/>
<path transform="translate(291,672)" d="m0 0h5l1 1v7l-2 4-3-7z" fill="#1E1E1E"/>
<path transform="translate(81,621)" d="m0 0 4 2 5 7h-2l-1 2-5-5-2-5z" fill="#787878"/>
<path transform="translate(231,683)" d="m0 0 18 1-3 3h-9l-6-2z" fill="#5C5C5C"/>
<path transform="translate(457,628)" d="m0 0h3l1 5 3-1 2 2v6l-4-2v-2h-2l-3-6z" fill="#6A6A6A"/>
<path transform="translate(302,505)" d="m0 0h7l-4 2-3 3h-2l1 3-5 1 2-6 1-2z" fill="#5C5C5C"/>
<path transform="translate(284,252)" d="m0 0h2l1 2v11l-3 1-1-7z" fill="#252525"/>
<path transform="translate(535,778)" d="m0 0 7 2 1 4 3 2-2 2-4-2-5-5z" fill="#737373"/>
<path transform="translate(595,778)" d="m0 0 10 1 11 4v1l-9-1-12-4z" fill="#5B5B5B"/>
<path transform="translate(786,771)" d="m0 0h4l1 3-5 6-6 1 5-4 1-4-4-1z" fill="#5B5B5B"/>
<path transform="translate(199,653)" d="m0 0h13l11 2v1h-13l-11-2z" fill="#525252"/>
<path transform="translate(379,602)" d="m0 0 3 2-1 3-10 4 1-3 2-1-1-3z" fill="#5C5C5C"/>
<path transform="translate(328,583)" d="m0 0 2 1-2 9-2 3v-4l-7-2 1-2 8-2z" fill="#5C5C5C"/>
<path transform="translate(374,258)" d="m0 0 4 1 3 5v2l-5-1-3-3z" fill="#5C5C5C"/>
<path transform="translate(352,784)" d="m0 0h6l2 1v2l-4 3-5-1z" fill="#ABABAB"/>
<path transform="translate(270,738)" d="m0 0h6l2 4-1 1h-7l-2-4z" fill="#595959"/>
<path transform="translate(781,656)" d="m0 0h6l1 3-2 7-3-2v-7z" fill="#797979"/>
<path transform="translate(465,536)" d="m0 0h6l5 4v3l-5-2-6-3z" fill="#444"/>
<path transform="translate(194,349)" d="m0 0 3 1v2l4-2 5 1-4 2-2-1-1 3h-2v2l-2-1-1-3-2-1v-2z" fill="#5C5C5C"/>
<path transform="translate(558,542)" d="m0 0h6l6 3v1h-12l-5-1v-1l5-1z" fill="#5C5C5C"/>
<path transform="translate(182,224)" d="m0 0 2 1-2 7h2v-2h2v2h3l-1 3v-2l-6 3-3-1z" fill="#5B5B5B"/>
<path transform="translate(265,748)" d="m0 0h11l2 2-1 1h-11l-4-2z" fill="#565656"/>
<path transform="translate(365,544)" d="m0 0 2 2-1 1 6 1-2 5-1-3h-11l2-3h3v-2z" fill="#5C5C5C"/>
<path transform="translate(228,246)" d="m0 0 5 1 1 4h2l-1 2-5 2v-5h-2z" fill="#5B5B5B"/>
<path transform="translate(379,774)" d="m0 0 4 1 1 4-1 4-1 2-4-2 1-6z" fill="#5C5C5C"/>
<path transform="translate(204,675)" d="m0 0h17l8 1v1l-12 1-13-2z" fill="#595959"/>
<path transform="translate(72,588)" d="m0 0 3 4 1 4 2 2 2 8h-4l-4-15z" fill="#ABABAB"/>
<path transform="translate(146,556)" d="m0 0 14 1 2 2h-18l2-1z" fill="#5C5C5C"/>
<path transform="translate(78,515)" d="m0 0h4v3h-2l-1 7h-3l-3-4 1-3 2 2z" fill="#595959"/>
<path transform="translate(135,400)" d="m0 0h1v9l-1 9h-2l-2-14h2l1 2z" fill="#5C5C5C"/>
<path transform="translate(488,623)" d="m0 0 4 1 4 7 2 2-5-1-5-5z" fill="#626262"/>
<path transform="translate(159,743)" d="m0 0 7 2 8 3-1 2-13-3z" fill="#5C5C5C"/>
<path transform="translate(417,732)" d="m0 0 3 1-1 2-9 2h-5l3-3z" fill="#1E1E1E"/>
<path transform="translate(131,731)" d="m0 0 9 1 3 2-1 2 2 1-7-1-1-3-3 1v-2z" fill="#5C5C5C"/>
<path transform="translate(473,630)" d="m0 0 4 2 9 8-1 2-8-6-3-2z" fill="#1E1E1E"/>
<path transform="translate(443,543)" d="m0 0 3 1v4l-4 4-4-2h2l1-5h2z" fill="#ABABAB"/>
<path transform="translate(392,535)" d="m0 0 4 1 1 3-7 2-4-1z" fill="#ABABAB"/>
<path transform="translate(144,527)" d="m0 0 7 1 5 5-1 3-3-1 1-4-11-2z" fill="#4B4B4B"/>
<path transform="translate(509,479)" d="m0 0h7v3l-5 1h-6l-2-2z" fill="#4B4B4B"/>
<path transform="translate(149,637)" d="m0 0 10 1 8 3-2 1-18-3z" fill="#545454"/>
<path transform="translate(523,625)" d="m0 0 10 1 4 3-3 1-12-3z" fill="#4D4D4D"/>
<path transform="translate(386,479)" d="m0 0 5 2-1 2-3 4-4-1-3-3 5-1z" fill="#5E5E5E"/>
<path transform="translate(437,720)" d="m0 0h6l-1 3-5 2-4-1v-2z" fill="#6C6C6C"/>
<path transform="translate(149,710)" d="m0 0 5 1 7 4v1l-10-1-2-2h2v-2z" fill="#5C5C5C"/>
<path transform="translate(162,495)" d="m0 0 6 1 3 2h-7l-5 3-5-2-1-2 4 1 3 1z" fill="#5C5C5C"/>
<path transform="translate(389,252)" d="m0 0 3 1-2 4-5 5 1-7z" fill="#494949"/>
<path transform="translate(583,748)" d="m0 0 2 3-3 3-9-1-3-3 10 1 3 1z" fill="#5C5C5C"/>
<path transform="translate(379,540)" d="m0 0h5v3l-1 1-10-1 1-2z" fill="#ABABAB"/>
<path transform="translate(407,437)" d="m0 0 2 2-2 10-3 1 2-12z" fill="#4A4A4A"/>
<path transform="translate(420,336)" d="m0 0h3l2 4v3l-4 1-2-3z" fill="#545454"/>
<path transform="translate(262,676)" d="m0 0h8l5 1v1l-6 1h-9z" fill="#4C4C4C"/>
<path transform="translate(794,663)" d="m0 0h1v5l-4 2-5-2h-3l1-3 10 2z" fill="#5C5C5C"/>
<path transform="translate(475,308)" d="m0 0h9l1 4h-5l-4-1z" fill="#555"/>
<path transform="translate(340,676)" d="m0 0h2l-2 4v4h-3l-5-4 5-1z" fill="#5C5C5C"/>
<path transform="translate(116,618)" d="m0 0 3 1v3h-5l-1 3-4-3v-2h7z" fill="#5C5C5C"/>
<path transform="translate(506,597)" d="m0 0h2l2 4v3l-6-1v-4z" fill="#555"/>
<path transform="translate(163,338)" d="m0 0h2l2 7-6 1-1-6h3z" fill="#5C5C5C"/>
<path transform="translate(163,231)" d="m0 0 2 2v3l3-1 2 6-4 2 1-6-5 2z" fill="#5C5C5C"/>
<path transform="translate(254,174)" d="m0 0 4 1 2-1v3h6v1h-11l-3-1v-2z" fill="#5C5C5C"/>
<path transform="translate(620,764)" d="m0 0 5 1 6 3v1l-9-1-4-2z" fill="#595959"/>
<path transform="translate(372,694)" d="m0 0h2l-1 3 4 1v2h-2l-1 4v-2l-3-1h2l-1-2-4-2z" fill="#5C5C5C"/>
<path transform="translate(454,685)" d="m0 0 4 1 3 4v3l-5-2z" fill="#1E1E1E"/>
<path transform="translate(376,563)" d="m0 0 5 2-2 4-5 1 2-5-2-1z" fill="#5C5C5C"/>
<path transform="translate(450,520)" d="m0 0 1 4h2l1 6-5-1v-7z" fill="#696969"/>
<path transform="translate(790,781)" d="m0 0h5l-1 4-5 5v-4h3v-2l-3-1z" fill="#727272"/>
<path transform="translate(568,756)" d="m0 0h5l1 4 2 5-4-2v-3h-3z" fill="#5C5C5C"/>
<path transform="translate(614,723)" d="m0 0h7l2 3-7 1-2-1z" fill="#595959"/>
<path transform="translate(480,591)" d="m0 0 7 3 3 2-1 3-5-3v2l-2-1 1-3-3-1z" fill="#5C5C5C"/>
<path transform="translate(526,550)" d="m0 0 4 1-3 7-8 4 1-3 7-5z" fill="#5C5C5C"/>
<path transform="translate(240,320)" d="m0 0 1 4-2 5-3 1-3-2 3-2z" fill="#5C5C5C"/>
<path transform="translate(456,303)" d="m0 0 5 1 1 3-6 1-1-4z" fill="#363636"/>
<path transform="translate(360,218)" d="m0 0 2 3-2 5-3 3v-6z" fill="#5C5C5C"/>
<path transform="translate(463,745)" d="m0 0 3 1-1 5-5 2v-3l1-3h2z" fill="#676767"/>
<path transform="translate(267,704)" d="m0 0 10 1-1 2h-11l-1-2z" fill="#5C5C5C"/>
<path transform="translate(615,692)" d="m0 0 6 1 2 1-1 3-7-2z" fill="#5A5A5A"/>
<path transform="translate(368,553)" d="m0 0 11 1-1 3h-2v2l-3-1 1-3h-7z" fill="#5C5C5C"/>
<path transform="translate(548,495)" d="m0 0 1 2-1 3-4 1-1-3-2-1z" fill="#454545"/>
<path transform="translate(145,755)" d="m0 0 11 3 1 2-9-1-5-2z" fill="#575757"/>
<path transform="translate(107,721)" d="m0 0 5 1 9 3-8 2-4-4z" fill="#777"/>
<path transform="translate(120,544)" d="m0 0 9 1v1l-5 1v2l-6-2v-2z" fill="#5F5F5F"/>
<path transform="translate(271,500)" d="m0 0 4 2 3 5v4l-3-1-2-6z" fill="#4B4B4B"/>
<path transform="translate(307,179)" d="m0 0 10 1-4 2h-10l-1-2z" fill="#5C5C5C"/>
</svg>
