<?xml version="1.0" encoding="UTF-8"?>
<svg version="1.1" viewBox="0 0 2048 1143" width="1280" height="1280" xmlns="http://www.w3.org/2000/svg">
<path transform="translate(297,36)" d="m0 0h84l54 1 54 2 106 6 170 11 157 9 37 3 53 3 29 3 17 4 29 9 11 4h8l4-5 5-2h11l16 3 12 3 4 2 12 1v-6l5-4h9l6 3 10 2 4-1 11 5 11 2 7-1 4-5 3-1h13l19 4 18 6 8-3 4-5h10l27 8 15 7 10 6 6 9 4 18 2 14h82l82 1 125 3 67 2h172l134-5h10v141l-9 1-66 3-42 1h-445l-106 1-4 30-2 13-5 6-12 5-20 7-15 5-12 2h-8l-7-7h-7l-7 3-2 2-21 2-8 5-4-1-2-1v2l-6-2-3-4-10-2-28 7-12 2-4 1-12-6h-6l-2-1-18 6-4 1-11 1-7 4-4-1-3-1-4-1-4-4h-11l-16 6-35 10-24 4-49 6-229 22-80 9-32 5-7 2-7 3-32 6-27 3-31 2h-14l-1 4-7-2-1-1-1 2h-8v-3l-2-1-82-1h-96l-11-1-10-5-12-11-13-14-11-14-9-13-9-17-7-16-8-16-12-22-6-3-36-4-19-2-14-2-22-1h-44l-7 2-3-1-12-1-6-3-3-7-2-19v-55l2-33 2-12 2-2 37-1 3-2h39l8 3h79l2-10 8-26 12-22 8-21 7-12 11-13 9-11 11-12 12-10z" fill="#3E3E3C"/>
<path transform="translate(1066,659)" d="m0 0h52l89 5 209 9 67 4 56 5 45 6 56 9 35 6 52 11 15 4 11 6 7 6 5 3 8-1 5-5 3-2h12l29 4 30 8 16 8 5 5 6 4h9l3-8 14 1 27 4 26 5 23 5 16 5 6 4 6 5 7 14 4 17 4 26 2 29v43l-1 35-2 17-5 26-3 6-6 4-21 7-35 10-37 7h-14l-12-6-6 1-7 9-9 5-28 7-30 6-8 1h-9l-8-3-5-6-4-2-6 1-7 11-6 5-10 4-36 8-58 11-62 11-52 7-53 4-119 7-174 10-46 3-26 3-18 1h-14l-16-1-12-3-10-6-7-10-7-14-9-6-20-10-8-7-3-5-6-26-3-20-2-30-2-54v-108l4-71 3-12 7-19 4-6 30-15 8-9 10-15 6-6z" fill="#3E3E3C"/>
<path transform="translate(432,748)" d="m0 0h168l11 2 10 6 10 9 8 9 5 10 3 22 4 37 2 31 1 29v38l-1 32-3 32-4 18-6 12-10 11-10 4-20 2-121 5h-72l-15-1-3-3-5-18-5-9-1-3-4-2-9-3-10-1h-14l-11 2-6 3-4 8-4 23-3 7-7 1-9-6-11-12-9-10-8-5-22-2-5-2-7-7-4-9-4-16-7-12-1-1h-123l-38-1-15-2-6-3-3-4-5-32-1-10v-36l1-16 4-18 6-10 4-3 14-3 27-4h64l42 2h31l3-8 4-17 3-14 3-6 6-4h12l8 3 7-1 7-7 4-8 6-16 5-6 8-4h5l2 2 2 24 3 10 8 5 6 2h40l7-3 4-10 6-27 2-5z" fill="#AA9866"/>
<path transform="translate(297,36)" d="m0 0h84l54 1 54 2 74 4v1l-43 3h-28l-4-1h-12l-7-1-2 2-12 2-3 2-5 1-8 7-3 1-1 4 2 1-1 4-1 3-5-1-2-1v-2h-5l-3 2h-2l-3 1-1 2-2 1v2l2 1v-3h4l1 4-3 3-5-1-3 1h-3l-2 5-2 1-2-2v-7l5-6 1-6-1-2-5-1-3-2-3 3-7-5-13-2-39-2-16 1-9 4-8 6-3 4h-2l-5 10v17l2 3 1 10 4 8 3 2v2l-5-2-3-2 2 5h2v2l4 2-3 1-6-4v-2h-2l-4-9-3-4-3-7 2 10 2 9-3-2v-2h-2v1l3 7 2 4-9-1v2h5l7 7 11 7 5 1 16 1 2 2h-23l7 2 10 1v1h-20l9 2 15 1 18-1 15 3 8 2 6 2v2h7l4-1v2l13-1 2 1 4-4 5-1 10-4 7 1 5 2 4 5 1 5-2 2-7 3-13 5-6 4-2 2-6 1-1 7-3 3-1 3-7 6-3 7-12 7-9 3-15 4-7 4-35 14-14 1-9-2-3-8-2 4-1-7-2-1 1 9-1 4 1 1v10l-1 2v11l-4 9 1 13 3 14-1 4-6 2-4-1 5 7-2 1 1 4h-2l4 8 7 12-1 8 2 1v2l2 1-1 5 2 5v3h2v8l5 18 6 19 4 6 4 2 39 4 47 2 15 2 14 5 2 1v-2l5 2v5l2 5 2 4 3 2h-110l-11-1-10-5-12-11-13-14-11-14-9-13-9-17-7-16-8-16-12-22-6-3-36-4-19-2-14-2-22-1h-44l-7 2-3-1-12-1-6-3-3-7-2-19v-55l2-33 2-12 2-2 37-1 3-2h39l8 3h79l2-10 8-26 12-22 8-21 7-12 11-13 9-11 11-12 12-10z" fill="#53514F"/>
<path transform="translate(932,818)" d="m0 0 5 1 2 24 1 22 1 46 1 14v19l-2 7-1 12-1 1-11-1-8-1h-46l-35 1-60 1h-75l-4-8-3-12-2-19v-29l2-12-1-12-2-14v-21l2-9 4-4 9-1 55-2 125-1z" fill="#AA9866"/>
<path transform="translate(537,749)" d="m0 0h38l20 1 10 6v2l4 1 9 11 7 10 6 14 6 25v11l-3 20-2 5-3 9-2 4h-2l-3 9-3 1-1 4-4 8-7 7-6 4v2h-4v-2l-8 4-2-1-9 3-11 3-1 2-4 3-14 3-4 2-14 2h-21l-16-3-16-6-11-6-9-7-6-12-4-12-1-8-1-4-1-8 1-12 4-6 13-9 6-4 3-9 7-26 7-13 10-11 10-7 13-6 9-3z" fill="#3E3E3C"/>
<path transform="translate(1141,661)" d="m0 0h15l51 3 209 9 67 4 56 5 45 6 56 9 35 6 52 11 15 4 11 6 7 6 5 3 8-1 5-5 3-2h12l29 4 30 8 16 8 5 5 6 4h9l3-8 14 1 27 4 26 5 23 5 16 5 6 4 6 5 2 5-7-3-31-4-17-4-3 1-7 1-11-4-10-2-1 2-6-3-4-1-10-3-5 1h-9l-8-2h-3l-4 1h-15l-18-4v-1h7l7 2v-3l-4 1-3-1v-2l-16-1-11-2-17-8-6-2-15-1-4-2-7 2h-3l-22 2-3 3v23l-5 35-3 10-3 3h-2v3l-6 3-8 1-22-3-11-1-9-2-13-10-4-5-5-5-9-8-6-3-1-3h-2v-2l-4-1-11-6-5-4-4-4-3-13 2-4 6-7 12-3 13-2 4-1 1-3-6-5-2-1-15-2-8-3-12-3h-3l9 3 8 2 9 3v3l-15 3-8 6-2 1 2-4 2-7-5-2-8-5-13-6-13-4-5-1 3-2-9-1v-2l-5 1v-2l-4 1v-2l-15-1-4-1-5 1-6-1-4-1h-8v-2l-4 1-4-1-11-2-10-1h-3-47-3-6l-4-1h-12l-4-1h-7l-9-2-25-3h-7l-2-1-1 2v-2l-9 1-13 1-5-1h-17l-5-1-2 2-4-1h-8l-3 2-10-1-26-1-13-1-1-2h5l-2-1v-2h-8l-16-4-14-7-4-1-3 1h-1l4 3-7-1 1 3 3-1v2l6 1-4 1-7 1-8-3-12-5-8-4-10-3z" fill="#53514F"/>
<path transform="translate(84,173)" d="m0 0h39l10 4v9l3 7 3 1h22l9 1h27l4-1h8l3 7 3 9 4 10v23l-1 8v16l-6 4-3-5-4-6-6-3-9-1h-23l-18-2-10-3-2-3 1-6-5-5-3-7 1-5 1-1-1-12-1-6h-36l-14 1v21l-5 9-2 3 1 4 9 1 6 2-1 2-19 3-13 5-5 1v8l8 3 6 1 31 1 39 1h18l20-1h12l25 1v3l5 2 6 3 3 7 1 8v20l2 18 6 21 1 5-3-4-8-16-11-20-6-3-36-4-19-2-14-2-22-1h-44l-7 2-3-1-12-1-6-3-3-7-2-19v-55l2-33 2-12 2-2 37-1z" fill="#AA9866"/>
<path transform="translate(777,370)" d="m0 0h24l9 2 3 5v2h2l1-5 3-1 1 4h12l11 2-1 2h-6l-6-1 4 1h18l8 1 3 3 4 1 1 5-5 2-3-1-1 2-10 5-9 2v8l2-1v-2h2l3 4-86 8-91 10-29 4-3-1 2-3h-18l-6-2-10 1-3 1h-13l-9-3-1 3-10 4-2 1h-9l-16-1h-7l-3-1-2-6-5-2-5 1-1 2 2 5-1 4-10 3h-9l-3-1-19-3-17-2-2 1 1 7-2 2h-5l-11-6-6-4v-3l5-2 2-6 4-4 21-2 9-3 10-7 5-2 2-1h7 1 4l2 4v-2l-1-2 7 2 5 4 4 1 12-2 6-2 2-4 1 1 2-2v2l5 1 1-2 6 5 8 3h6l4-2 1-5-6-2-1-3 8 2 7 3-1 4 5-2 12-2v-9l4-1 9 2 3 5 10-4 6 4-1-4 3-1 1 3 9 1 2-1 1-9 3-2 4 1 3 5h5l4-5v-3l19-2 2 1v-2l9 1 3 4v2h6l2-8 4-1v5h4l4 1 2-4 6-2v-2l6-1v2l9 2v-2l2-1-8 1-1-2 3-1h19l2 1 8-4h6z" fill="#53514F"/>
<path transform="translate(537,749)" d="m0 0h38l20 1 10 6v2l4 1 9 11 7 10 6 14 6 25v11l-3 20-2 5-3 9-2 4h-2l-3 9-3 1-1 4-4 8-7 7-6 4v2h-4v-2l-8 4-2-1-9 3-11 3-1 2-4 3-14 3-4 2-14 2h-21l-16-3-16-6-11-6-9-7-6-12-4-12-1-8-1-4-1-8 1-12 4-6 13-9 6-4 3-9 7-26 7-13 10-11 10-7 13-6 9-3zm-4 5-13 3-5 2v2l-10 3-10 8-7 8-7 11-5 16-3 18v25l3 12 8 16 5 5 14 7 6 1-2-4-8-7-6-8-3-8v-5l3-4v-3h2l-1-7v-11h7l9 5 3 3 4 1 2 2 2-1 2 4 5 1 3 1h3l1 2 4 3h2v4l-6 2h-8l-11-2h-7l1 3 24 8 9 2 1 2-2 5-1 8 1 6-9 4 3 2 2 1h12l18-5 10-5 10-7 7-9 2-7 7-12 5-19 1-6v-13l-4-19-5-10-6-9-7-7-10-7-14-7-9-3-8-1z" fill="#77693E"/>
<path transform="translate(278,49)" d="m0 0v3l-6 8-8 14-4 8-1 4h-2l1 3-6 11-6 8-4 7-6 6-3 16-1 11-4 16-3 24v33l1 41 2 20 2 17 3 21 2 7 2 1 2 6 1 4 3 1 6 9 6 10 11 21 10 20 4 11 5 17 6 12-4-2-12-12-9-11-7-8-11-16-9-17-5-12-4-13-5-21-1-21v-11l-2-11-2-4-10-5v-3l-3 1-23-1h-12l-25 1h-22l-40-1-20-1-12-3-3-2v-6l3-3 11-4 10-3 14-2-5-2-9-1-2-2 1-5 5-7 1-4v-17l1-3 2-1 18-1h28l2 1 2 6 1 12-2 3 2 9 1 3 4 2v4l1 5 15 4 21 1h17l10 2 6 5 4 8 5-3v-18l1-6v-23l-5-13-4-12h-8l-7 1h-24l-17-1h-14l-4-2-3-9v-6l1-1 15-1h62l2-10 8-26 12-22 8-21 7-12 11-13 9-11z" fill="#81744B"/>
<path transform="translate(927,899)" d="m0 0h7l3 3v3h2v8l-2 7-5 4-7 4-7 11-6 7-9 4-13 2h-16l-20-3-19-5-17-4-39-4-7-1-21-1-23-2h-12l-10-3-10-4-1-2v-10l5-5 4-2 21-2 30-1 63-1 10-1 35-1h16l13 2h27z" fill="#A87C4F"/>
<path transform="translate(932,818)" d="m0 0 5 1 1 8v24l-11-1-5-1 12 6 3 2-4 4-9-1-8-4-22-2h-11l-8 1-30 1-69-2-9-1h-44l-20-3-7-3-1-1v-18l4-4 9-1 55-2 125-1z" fill="#8F6B3E"/>
<path transform="translate(1372,340)" d="m0 0h2l-2 5-5 4-18 7-27 9-12 2h-8l-7-7h-7l-7 3-2 2-21 2-8 5-4-1-2-1v2l-6-2-3-4-10-2-28 7-12 2-4 1-12-6h-6l-2-1-18 6-4 1-11 1-7 4-4-1-3-1-4-1-4-4h-11l-16 6-35 10-24 4-49 6-83 8h-10l5-8 1-7 5-2 18-2 21-4 22-2 18-2 41-3 39-4 9-1 1-2 1 1 21-5 11-2h10l7 5 6-2 21-3 13-5 13-1 11 4 13 1 13-4h10l10-2 2-1h7l9 4h6l4-2h8l27-4 4-2h6l8 5 8-2h18l9-1 11-4 5-2 14-3 4-2h4z" fill="#53514F"/>
<path transform="translate(537,749)" d="m0 0h38l20 1 10 6v2l4 1 9 11 7 10 6 14 6 25v11l-3 20-2 5-3 9-2 4h-2l-3 9-3 1-1 4-4 8-7 7-6 4v2h-4v-2l-8 4-2-1-9 3-11 3-1 2-4 3-14 3-4 2-14 2h-21l-16-3-16-6-11-6-9-7-6-12-4-12-1-8-1-4-1-8 1-12 4-6 13-9 6-4 3-9 7-26 7-13 10-11 10-7 13-6 9-3zm7 2-13 1-16 5v3h-6l-11 7-5 4v2l-3 1-7 10-6 13-8 35-4 6-5 6-2 9 2 12 10 24 6 8 10 6 13 4 9 2 15 1h10l12-2 18-5 11-7 11-6 12-7 10-4 4-5 5-5 4-5 3-9 3-12 1-8v-22l-5-14-7-11-14-14-10-6-11-7-15-6-12-3z" fill="#82754C"/>
<path transform="translate(94,205)" d="m0 0h34l2 1 2 6 1 12-2 3 2 9 1 3 4 2v4l1 5 15 4 24 2h10l14 4 2 2-1 8-3 2h-28l-25 1h-22l-40-1-20-1-12-3-3-2v-6l3-3 11-4 10-3 14-2-5-2-9-1-2-2 1-5 5-7 1-4v-17l1-3 2-1z" fill="#8D6B3F"/>
<path transform="translate(1010,922)" d="m0 0h3l1 2v7l-2-1-1 7v6l1 4-2 3 2 8 2 1-1 20-1 1 2 4 1 23-2 3-1-4-1 5v14l-1 2v13l6 7 14 10 13 10 11 6 7 7 6 5 11 4 9 1h13l9-2h13l11 3 18 6 29 1 15 3 34 2-3 2-79 5-26 3-18 1h-14l-16-1-12-3-10-6-7-10-7-14-9-6-20-10-8-7-3-5-6-26-2-16h2v3l4 1 4-2 2-6 4-16 1-12v-13l2-30z" fill="#53514F"/>
<path transform="translate(931,886)" d="m0 0 6 1 2 3v10h-12l-8 3h-30l-10-2h-24l-32 1-11 1-57 1-31 1-20 2-7 4-1 2v12l20 6h13l26 2 17 1 52 6 17 5 17 4 16 2h17l12-2 6-2 6-6 11-6 1-2h2l2 5-2 2 1 7v4l-2 2-15 3-16 2h-22l-52-2-14-1h-14l-77-3-8-2-8-5-4-4v-2h-2l-1-2-1-12v-19l5-4 7-2 20-2 42-2 59-1h34l10-1h10l24 4h9l9-3v-2z" fill="#B68E62"/>
<path transform="translate(694,864)" d="m0 0 3 4 6 2 8 1 44 1 33-1h30l70-1 16-3 5-3h7l6 4 3 6v9l-3 7-6 4h-8l-18-4-4-1h-12l-11 2-109 2-50 2-8 2-2 4 1-9 1-14z" fill="#D5BC8A"/>
<path transform="translate(38,267)" d="m0 0h1l2 9 5 2 15 3h56l13-1h16l7 3 15-1 10 3 5 6 9 6 9 5 7 12 2 3-19-3-40-4-14-2-22-1h-44l-7 2-3-1-12-1-6-3-3-7-2-19z" fill="#C5B785"/>
<path transform="translate(1361,671)" d="m0 0 34 1 74 4 49 4 38 4 54 8 60 10 57 12 15 4 11 6 7 6 3 3-10-2-11-2-23-4-16-3-32-5-21-4-24-4-39-6-7-2-8-2-19-2-9-2-7-2-24-4-20-3-11-1h-19l-14 1-27-2-20-4-20-2-8-3-4-2-9-1z" fill="#6D6A60"/>
<path transform="translate(305,848)" d="m0 0 23 1 13-1 14 1 5 3 3 4 7 24v20l-3 8-7 4-5 1-14 1h-18l-8-3-8-6-4-8v-28l-1-3v-14z" fill="#DCCEA3"/>
<path transform="translate(31,946)" d="m0 0 3 3v2h2v2h2v2l4 2 9 3 21 3 5 1h42l14-2 6-2 23-4 35-6 10-1h11l4 5 4 20 8 12v7l-1 3v10l3 8 4 5 7 4 7 2v1h-7l-5-2-7-7-4-9-4-16-7-12-1-1h-123l-38-1-15-2-6-3-3-4-3-19z" fill="#C5B785"/>
<path transform="translate(915,65)" d="m0 0 19 1 90 6 22 3 21 6 20 6 11 4h8l4-5 5-2h11l16 3 12 3 4 2 12 1v-6l5-4h9l6 3 10 2 4-1 11 5 11 2 7-1 4-5 3-1h13l19 4 15 5v1l-7 1-6 3-12 3-4 2-5 2v-2l-2-1 2-1-3-2h-6l-2 1 2 3h-2l-1 2-4-5-1-5-10-1-8 2-29 1-6 2h-8l-8-3-20-1h-18l-16-2-10-1h-13l-20-2-24-5-17-4-17-2-12-1h-47l-15-4-12-5-11-6z" fill="#53514F"/>
<path transform="translate(247,181)" d="m0 0 9 3 4 5 3 11 3 33v27l-3 9-9 11-3 1-9-3-7-2-6-12-1-5-1-17v-22l3-22 6-12 8-4z" fill="#3E3E3C"/>
<path transform="translate(229,882)" d="m0 0h21l8 4 2 4v9l-3 8-6 5-9 3h-9l-12-2h-47l-16 1-8-4-5-5 1-8 3-6 7-5 7-2h61z" fill="#DCCEA3"/>
<path transform="translate(708,823)" d="m0 0h12v1l-15 2-2 7 2 4 10 3 4 1 102 2h42l27-2 17 3 12 3v2l4 1 11 5 3 2-4 4-9-1-8-4-22-2h-11l-8 1-30 1-69-2-9-1h-44l-20-3-7-3-1-1v-18l4-4z" fill="#A87C4F"/>
<path transform="translate(1490,288)" d="m0 0h12l4 2h11l5 1 1-2v2l7-1 1-1h10 1l8-1 1 3h11l4-1 1 1 23 1 98 2v-2h7l1 3h47l119 2v-2l-5 1-7-1v-1h15l2 1h15v-2h9v3h3v-2l-2-1 5 1 1-1h12v1h6l1-2h18v1l11 1-1-3h7 2 27l2 1 3-1 4 1 3-2h8v1h10l1-2 5 1 1-1h5l1 1 4-1-1 2h8v-2l12 1 1 3-9 1-66 3-42 1h-520v-1l31-4 15-1 7-1h5l1-2 8 1 2-1h1z" fill="#53514E"/>
<path transform="translate(938,843)" d="m0 0h1v23l-3 3-6 1-12-8-8-1-6 2h-16l-11 1-31 1h-124l-15-2-10-3-2-1-1-4v-9l9 3 21 3h43l14 1 64 2 30-1 8-1h11l22 2 11 5h6l3-3-17-8 4-1 15 3z" fill="#B68E62"/>
<path transform="translate(939,906)" d="m0 0h1l1 5 1 14v19l-2 7-1 12-1 1-11-1-8-1h-46l-35 1-60 1h-75l-4-8-3-12v-5h2l6 7 8 4 6 1 81 3h16l12 1 32 1 16 1h26l23-4 5-3-1-3h2l-2-4 1-4 1-2-1-4h-2l-2 4-6 3h-3l7-10 5-5 8-5 2-10z" fill="#AB9967"/>
<path transform="translate(497,833)" d="m0 0 6 1 8 5v2l6 1 4 2 2 3 5 1 8 3v2l5 2 1 4-7 3h-8l-11-2h-6v2l9 2 15 5 9 2 2 3-2 5-1 8 1 6-5 3-3 1 3 2h12l11-3 3 1-7 3-13 2h-8l-15-3-11-4-10-5-9-2-6-3-6-10-4-10-3-13v-16h1l1 14 3 12 8 16 1 3 6 2 11 6 6 2-13-13-5-9-2-5v-5l4-7h2l-2-7 1-11z" fill="#53514F"/>
<path transform="translate(140,866)" d="m0 0 6 1 13 4 17 1h15v4l-5 2h-10l-24 3-9 2-3 11-3 3-4 1h-47l-7-3-2-4v-8l6-7 16-8 4-1h12l9 3 5-1 4-2z" fill="#D4BC89"/>
<path transform="translate(225,262)" d="m0 0h1l2 20 2 17 3 21 2 7 2 1 2 6 1 4 3 1 6 9 6 10 11 21 10 20 4 11 5 17 6 12-4-2-12-12-9-11-7-8-11-16-9-17-5-12-4-13-5-21z" fill="#6B6860"/>
<path transform="translate(138,205)" d="m0 0 5 2 3 7 2 1 21 2 33 1 6 3 1 3v9l-2 7-5 4-5 1-19 1h-22l-9-2-12-11-1-2v-6l3-9-2-8z" fill="#DBCDA2"/>
<path transform="translate(868,909)" d="m0 0h9l10 2 21 1 3 2v6l-8 7-9 3-20 2-16-3-19-5-32-2-46-3-19-1-2-2 1-1 13-1 4-1 23-1h26l20-1z" fill="#8F6B3E"/>
<path transform="translate(302,911)" d="m0 0 5 3 5 5 10 5 23 6 6 2v2l4 1 5 5 2 8v8l-2 2-43 2-11-1-3-3-3-16v-16l1-11z" fill="#786A3E"/>
<path transform="translate(38,267)" d="m0 0h1l2 9 5 2 15 3h56l13-1h16l4 7v7l-4 3-5-1-9-4-13-1-15 3-14 1-9 3-9-1-6-3h-4l2 6 13 3 51 2v2h-57l-7 2-3-1-12-1-6-3-3-7-2-19z" fill="#D6BD8B"/>
<path transform="translate(915,65)" d="m0 0 19 1 90 6 22 3 21 6 20 6 11 4 5 1-1 3h-12l-20-2-24-5-17-4-17-2-12-1h-47l-15-4-12-5-11-6z" fill="#54514F"/>
<path transform="translate(335,967)" d="m0 0h21l9 4 4 5 1 9-3 8-7 3-15 2-17 1-5 1h-7l-6-5-4-9v-12l4-5 3-1z" fill="#C5B785"/>
<path transform="translate(135,254)" d="m0 0 12 1 14 1h27l14 4 2 2-1 8-5 1h-73l-12-3-5-1-45-1-2-2 1-5 12-3h25l7-1 6 2 11-1z" fill="#786A3E"/>
<path transform="translate(47,872)" d="m0 0 9 1 9 5 4 5 4 9 1 8v9l-2 5-8 4-3 1h-15l-9-2-5-5-2-1-1 16h-1v-36l1 4h2l3-9 8-11z" fill="#C9BA89"/>
<path transform="translate(1e3 706)" d="m0 0 2 1-1 1 1 8 2 7 3 29 2 25 2 13 1 19 2 29v11l-2 7h-3l-2-27-2-1 1-5h-1v-8l-1-3v-5l-2-7v-3l-2-1 1-4-2-1-2-10-4-7-4-1 2-2-2-1-3 7h-1v-17l1-17 3-12 7-19z" fill="#53514F"/>
<path transform="translate(337,802)" d="m0 0h26l3 3 1 4v12l-2 7-6 4-17 1h-24l-7-3-2-4-1-8 1-10 4-5z" fill="#786A3E"/>
<path transform="translate(1248,144)" d="m0 0 4 1 6 7 1 4 8-5 4-5 7-1 10 5 1-3v-3l3 5 2 14v12l-3 5-1 1-16 2-10-1-9-4-3-2h-5l-3 4-3-1-1-6v-12l3-1v-6l3-8z" fill="#52504E"/>
<path transform="translate(990,1017)" d="m0 0 4 5 6 9 7 16 7 6 6 4 8 9v2l4 2 11 6 9 4 5 4 6 7v2h2v2l4 2 7 5 15 3 2 1 33 2 13 2v1l-18 2-18 1h-14l-16-1-12-3-10-6-7-10-7-14-9-6-20-10-8-7-3-5-6-26z" fill="#6D6A60"/>
<path transform="translate(1756,1043)" d="m0 0 3 1-12 5-36 8-58 11-62 11-52 7-53 4-66 4h-6v-2l39-3 19-2 13-3 9-3 30-3 42-1 34-3 15-5 18-4 26-3 16-5 19-3 21-3 14-3 19-2z" fill="#595651"/>
<path transform="translate(1891,746)" d="m0 0 14 1 27 4 26 5 23 5 16 5 6 4 6 5 2 5-7-3-31-4-17-4-3 1-7 1-11-4-10-2-1 2-6-3-4-1-10-3-5 1h-9l-7-2 2-4 4-2z" fill="#53514E"/>
<path transform="translate(586,45)" d="m0 0 23 1 156 10 104 6 39 2v1l-12 1-3 1-19 1-30-1h-31l-15-3-4-1-20-1h-22l-17-1-39-1-12-3-6-3v-2h-13l-6 2h-22l-33-3-11-4-7-1z" fill="#595651"/>
<path transform="translate(328,872)" d="m0 0h11l6 2 18 7 2 2v13l-2 4-10 3-11 1h-23l-9-6-2-2v-11l5-7 8-4z" fill="#F6EED7"/>
<path transform="translate(1161,141)" d="m0 0 3 4 2 12 1 10v12l-6 2h-19l-27-6v-3-1l1-2 7 2 12 3h2l1-2-9-4-9-2-1-2 12 2h1l-1-1-11-2-3-5v-7l3-6 5-1 11 4h8l6-3h9l2 1z" fill="#52504E"/>
<path transform="translate(94,205)" d="m0 0h34l2 1 2 6 1 12-3 6h-3l-2 7-3-1h-9l-7-2h-9l-4 1h-9l-3-2-1-14 4-10 3-2h7z" fill="#786A3E"/>
<path transform="translate(278,49)" d="m0 0v3l-6 8-8 14-4 8-1 4h-2l1 3-6 11-6 8-4 7-6 6-3 16-1 11-4 16-3 24v74h-1l-1-29-3-35-2-9-1-7 1-14v-18l2-10 12-22 8-21 7-12 11-13 9-11z" fill="#6B6860"/>
<path transform="translate(180,845)" d="m0 0h38l3 5-1 13-1 2-9 1-39-2-12-2-10-5v-2h-2v-2h-2v-5l5-2z" fill="#786A3E"/>
<path transform="translate(1031,814)" d="m0 0 5 3 4 9 6 13 2 10v18l-3 5-5 5-6 5-4-1-3-8-5-14-1-22 2-12 5-9z" fill="#53514F"/>
<path transform="translate(2012,289)" d="m0 0 5 1 1-1h5l1 1 4-1-1 2h8v-2l12 1 1 3-9 1-66 3-42 1h-480v-1l10-1 31-1h41l80 1 249 1v-2l-5 1-7-1v-1h15l2 1h15v-2h9v3h3v-2l-2-1 5 1 1-1h12v1h6l1-2h18v1l11 1-1-3h7 2 27l2 1 3-1 4 1 3-2h8v1h10z" fill="#585650"/>
<path transform="translate(1308,127)" d="m0 0 5 1 8 10 3 9 4 8v5 1h2l1-6 2 3-1 6-1 2h6v3l10-2v2l-5 2 9 1-3 2-13 4-10-1-9-1-4 8-2 10-4-1-2-10v-26l1-10-1-2 1-13z" fill="#52504E"/>
<path transform="translate(209,951)" d="m0 0h8l3 3 2 16 3 12 2 6h-2l-6-9h-123l-13-1v-1l78-1 22-3 5-3 3-4-5-2-1-3 5-5 5-3z" fill="#D6BE8C"/>
<path transform="translate(497,857)" d="m0 0 6 1 16 6 20 7 1 4-1 3 1 5-1 1v8l-3 2-9 1-9-2-13-8-6-8-4-10v-5z" fill="#6B685D"/>
<path transform="translate(1088,372)" d="m0 0h5l-3 2-11 4-35 10-24 4-49 6-83 8h-8l5-6 20-2 35-5 31-2 17-1 34-5 20-2 23-5 10-3 11-2z" fill="#6F6B61"/>
<path transform="translate(305,848)" d="m0 0 23 1 13-1 14 1 5 3 3 4 7 24v20l-3 8-7 4-5 1-14 1h-18l-8-3-8-6-4-8v-28l-1-3v-14zm2 5-2 2v7l5 4h2l-2 5-5 9-1 4v10l4 8 9 6 6 2h11l23-2 8-3 3-5v-20l-6-10-3-4h-2l-1-3-8-5-4-1-22-1-11-3z" fill="#D5BC89"/>
<path transform="translate(184,891)" d="m0 0h33l3 4v8l-4 4h-59l-5-3-1-6 2-4 5-2z" fill="#F6EED7"/>
<path transform="translate(164,223)" d="m0 0h33l7 2 1 1v9l-3 3-9 1-15 1h-13l-15-1-8-4-5-5 1-5 3-1h14z" fill="#F6EED7"/>
<path transform="translate(1302,747)" d="m0 0h10l15 3 5 5 3 2h2l-3 6h-2v3l-5 4-9 2-11 4-12-4-5-4-3-4 1-5 4-2v-2h2l1-5h2v-2z" fill="#52504E"/>
<path transform="translate(145,177)" d="m0 0h58l2 1-1 7-4 5-12 2-13 1-21-1h-14l-4-4 2-4 3-3z" fill="#786A3E"/>
<path transform="translate(1781,725)" d="m0 0h12l29 4 30 8 16 8 5 5 1 2-16-4-16-3-17-2-8-2-15-5-14-3-6-2h-5l-5 4h-6l8-4 5-5z" fill="#6B6960"/>
<path transform="translate(340,969)" d="m0 0 13 1 6 3 2 3v6l-4 4-6 2h-15l-4-1h-7l-2 1h-8l-4-5v-8l3-3 3-1h13z" fill="#D6BD8A"/>
<path transform="translate(82,206)" d="m0 0h12v1l-7 1-3 1-3 10 1 14 2 1h9l4-1h9l8 2h8l3 2 1-7 3-2v2h2l3 9h2l1 4-6 2-8 1h-26l-11-1h-12l-2-2 1-5 5-7 1-4v-17l1-3z" fill="#8E6B3E"/>
<path transform="translate(337,802)" d="m0 0h26l3 3 1 4v12l-2 7-6 4-17 1h-24l-7-3-2-4-1-8 1-10 4-5zm-4 5-13 4-5 4-1 4 3 5 5 3 10 1h25l5-3 3-6-1-7-2-3-11-2z" fill="#82754C"/>
<path transform="translate(229,882)" d="m0 0h21l8 4 2 4v9l-3 8-6 5-9 3h-9l-12-2h-47l-16 1-8-4-5-5 1-8 3-6 7-5 7-2h61zm-1 2-5 5-4-1-13-1-45 1-9 3-3 4-1 3v7l5 4 12 2 53-1 4-3 10 4 13-1 8-3 4-4 1-3v-11l-5-4-2-1z" fill="#D1BB88"/>
<path transform="translate(47,177)" d="m0 0h29l3 1-3 17-3 8-4 1-11-7-3-2-10-2-3-3 1-10 1-2z" fill="#786A3E"/>
<path transform="translate(1891,746)" d="m0 0 14 1 27 4 26 5 23 5 16 5 4 3-29-3-21-4-22-2-13-3-9-2h-9l-7-2h-1z" fill="#726E62"/>
<path transform="translate(649,887)" d="m0 0h3l1 13v16l-2 7-3 3h-3l-1-2v-8h-3l-2 6-6 1-9-3 2-5 5-9 9-13 5-1 2-4z" fill="#82754C"/>
<path transform="translate(165,286)" d="m0 0 6 1 4 3v2l5 2v2l6 2 7 6 5 5v2l5 2 1 2-23-2-30-3-14-2-2-1v-2l4-2 6 1 9 2 1 1h7l5-5-1-4-3-9z" fill="#D6BE8C"/>
<path transform="translate(115,876)" d="m0 0 8 1 9 2 4 4 1 7-2 3-5 1-22-3-16 2h-6l-4-3-1-4 5-5 11-1 5 2h5z" fill="#DCCEA3"/>
<path transform="translate(1240,87)" d="m0 0h13l19 4 15 5v1l-7 1-6 3-12 3-4 2-5 2v-2l-2-1 2-1-3-2h-6l-2 1 2 3h-2l-1 2-4-5-1-5-8-1v-2l6-3 3-4z" fill="#53514F"/>
<path transform="translate(182,929)" d="m0 0h21l7 1 2 4-4 3-13 2h-9l-26-2h-9l-5 1-15 1-22-2-4-1v-2l9-1 43-1 18-2z" fill="#82754C"/>
<path transform="translate(999,710)" d="m0 0 1 4 3 8 3 43v6l-2 3-4-1-7-18-2-9h-2v5h-1v-8l3-12 7-19z" fill="#6B6860"/>
<path transform="translate(49,887)" d="m0 0h9l7 4 3 6v8l-4 4-9 2h-9l-6-3-2-4v-6l6-9z" fill="#F6EED7"/>
<path transform="translate(1302,89)" d="m0 0h10l27 8 15 7 6 3-3 1-4-2-12-1-1 1-12-1-23-1-1 2 1 3h-2l-5-10-6-2v-1l6-2z" fill="#55524F"/>
<path transform="translate(1484,295)" d="m0 0h49l80 1 318 1v1h-480v-1l10-1z" fill="#7D7662"/>
<path transform="translate(245,931)" d="m0 0 5 1 3 5 2 11-1 9-4 5-5 1-11-6-3-9v-7l4-5z" fill="#786A3E"/>
<path transform="translate(302,911)" d="m0 0 5 3 5 5 10 5 23 6 6 2v2l4 1 5 5 2 8v8l-2 2-43 2-11-1-3-3-2-10v-5l2 4 3 9 3 3h25l17-4 4-2-1-5-4-4v-2l-4-2-4-3-21-7-11-6-5-4h-2l-1 5h-1v-10z" fill="#82754C"/>
<path transform="translate(39,220)" d="m0 0 2 1 32 3 1 1v5l-4 3-15 7-15 2-2 1v-20z" fill="#F6EED7"/>
<path transform="translate(47,879)" d="m0 0h10l6 3 5 6 3 8v14l-5 4-5 1h-16l-7-3-4-5-1-8 4-10 8-9zm2 8-6 3-5 8v6l2 4 6 3h9l9-2 4-4v-8l-4-7-6-3z" fill="#DCCEA3"/>
<path transform="translate(138,205)" d="m0 0 5 2 3 7 2 1 21 2 33 1 6 3 1 3v9l-2 7-5 4-5 1-19 1h-22l-9-2-6-7 10 5 22 1 26-2 6-2 1-2v-13l-2-2-4-1-23-1-35 2-5 2-2 1 2-10-2-7z" fill="#D1BB88"/>
<path transform="translate(696,874)" d="m0 0 12 3 44 3 2 1-1 3-12 3-32 1-13 3z" fill="#DCCEA3"/>
<path transform="translate(506,863)" d="m0 0h6l10 4 4 5v8l1 4 4 3v4l-4 1-9-2-9-6-6-10v-7z" fill="#AA9866"/>
<path transform="translate(1066,659)" d="m0 0h7l-4 2-9 3-1 8v11l-3 16-3 1-4-4-2-4-4-5-4-1-2 1 2-4 11-16 6-6z" fill="#53514E"/>
<path transform="translate(472,836)" d="m0 0h1l1 14 3 12 8 16 1 3 6 2 11 6 6 2-2-5 13 7 11 1 7-2v-8l1-3-1-4 1-5-2-2 6 1 2 3-2 5-1 8 1 6-5 3-3 1 3 2h12l11-3 3 1-7 3-13 2h-8l-15-3-11-4-10-5-9-2-6-3-6-10-4-10-3-13z" fill="#53514F"/>
<path transform="translate(513,187)" d="m0 0 2 1-5 6-2 1-1 4-16 9-8 6-9 3-5 2-13 2-9-2-14-7-10 1-4-1 6-3 7 1 1-2 9 3 1 1 15 1 5-1 10-1 14-5 6-5 5-2 2-3h2v-2l5-3h2l1-3z" fill="#53514F"/>
<path transform="translate(911,819)" d="m0 0h15l-3 2-17 2-71 1h-109l3-2 34-1 125-1z" fill="#AF9E6C"/>
<path transform="translate(88,905)" d="m0 0h46l5 2 1 5h-17l-12 3-8 1h-9l-9-4-1-4z" fill="#7A6B3F"/>
<path transform="translate(136,240)" d="m0 0 3 2-1 6 1 2 15 4 13 1v1l-7 1-19-1-7-1-11-1-5 2-6-1-5-2-4-2-12-2-1-2 12-2h24l10-2z" fill="#82754C"/>
<path transform="translate(180,845)" d="m0 0h38l3 5-1 13-1 2-9 1-39-2-12-2-10-5v-2h-2v-2h-2v-5l5-2zm-14 3-12 2-2 2v4l6 4 9 2 9 1 31 1h8l4-3v-10l-4-3z" fill="#82754C"/>
<path transform="translate(503,841)" d="m0 0h3v2l6 2 9 4 12 3 5 3-2 5-4 1h-9l-14-3-7-3-3-3 2-9z" fill="#696760"/>
<path transform="translate(911,867)" d="m0 0 7 1 3 5 1 10-3 5-2 2-9-1-8-3-3-3 1-5 5-5z" fill="#DCCEA3"/>
<path transform="translate(1117,1061)" d="m0 0 17 1h15l7 3-1 7-2 2h-3l1-5-9-1-1 4v-2l-4-1-6-2h-16l-5 3-2 3-1 8-2-4-4-4-6-4 1-4 13-3z" fill="#52504E"/>
<path transform="translate(231,887)" d="m0 0h9l9 1 5 3 1 3-3 6-5 3-7 2h-8l-4-4-1-2v-7z" fill="#F6EED7"/>
<path transform="translate(533,754)" d="m0 0h14l11 2 12 5 10 5 11 9 8 9 7 14 4 19v13l-3 15h-1v-28l-4-17-5-10-10-14-9-8-15-7-14-4h-20l-11 3-3-1 7-3z" fill="#53514F"/>
<path transform="translate(1224,151)" d="m0 0 2 2 1 12-3 4h-2l-1 3-5 3-14-1-2 1h-12l-6-2-2-3 1-5 6 2h7l6-2h7l9 1 6-2 1-12z" fill="#52504E"/>
<path transform="translate(39,203)" d="m0 0h1l1 13 23 3 11 2 2 7-3 5-5 3-8 5-4 5-15 1-4 2v-6l2-2 15-2 17-8 1-1v-5l-32-3-2-2z" fill="#DBCDA2"/>
<path transform="translate(1098,143)" d="m0 0 3 3 1 6v19l-3 3-3-2h2v-2l2-1-5-1-1-2-8-3-4-7-1-5 1-3 2-1 13-1z" fill="#52504E"/>
<path transform="translate(295,442)" d="m0 0 16 1 11 2h21l26-2h11l31 3-1 2h-96l-11-1-8-4z" fill="#7B7562"/>
<path transform="translate(586,45)" d="m0 0 23 1 64 4v1l-13 2-1 1h-22l-33-3-11-4-7-1z" fill="#5B5852"/>
<path transform="translate(40,276)" d="m0 0 6 2 15 3h56l13-1h13v1l-17 3-5 2-22-2-5 1h-22l-6 3-1 1-7-1-5-4-9-2-4-3z" fill="#C5B785"/>
<path transform="translate(319,1006)" d="m0 0 9 2 21 6 14 1 10 3 4 3-1 2-4-3-7-2-10-1h-14l-11 2-6 3-3 3-4-9-1-6z" fill="#C7B887"/>
<path transform="translate(1285,358)" d="m0 0h3v2l-7 3-2 2-21 2-8 5-4-1-2-1v2l-6-2-3-4-10-2-28 7-12 2-4 1-10-5 2-1 6 1h10l27-5 7-3 8 1 11 4 7-1h7l5-2 20-3z" fill="#767162"/>
<path transform="translate(2046,179)" d="m0 0h2v12h-26l-17-2v-3l20-3 4-1 15-1z" fill="#52504E"/>
<path transform="translate(171,930)" d="m0 0 6 1-4 2-1 2 3 1-24 1-5 1-15 1-22-2-4-1v-2l9-1 43-1z" fill="#8E6B3E"/>
<path transform="translate(229,882)" d="m0 0h21l8 4 2 4v9l-3 8-6 5-9 3h-9l-12-2-32-1v-1l27-1 6-4 10 4 13-1 8-3 3-3 1-3v-11l-6-4-23-1z" fill="#CFBA88"/>
<path transform="translate(47,177)" d="m0 0h29l3 1-2 13h-1v-6l-3-1-3-4-4-1h-16l-3 1 1 5 11 6 5 5 5 2 6-1-2 6-4 1-11-7-3-2-10-2-3-3 1-10 1-2z" fill="#82754C"/>
<path transform="translate(47,875)" d="m0 0h7l9 4 5 5 3 6v2h2v16l-2 5-6 3-4 1h-16l-9-3-3-4-1-3v-12l3-7h2l2-5 6-7zm0 4-8 7-5 9-1 7 2 7 4 4 6 2h16l7-2 3-3v-14l-4-10-7-6-3-1z" fill="#D6BD8A"/>
<path transform="translate(1175,83)" d="m0 0h9l6 3 10 2 4-1 11 5 11 2v1h-16l-27-3-8-1-5 1v-5z" fill="#706D60"/>
<path transform="translate(304,761)" d="m0 0h1l1 16 3 10 8 5 6 2h40l7-3 4-10 1-5 2 1-3 17-3 2-43 1-23-3-2-3v-28z" fill="#CCBE8E"/>
<path transform="translate(1300,751)" d="m0 0h7l1 3 4 2 3 2 2 7-10 3-3-2-7-1-2-3v-5l1-3 4-1z" fill="#3E3E3C"/>
<path transform="translate(305,848)" d="m0 0 23 1 13-1 14 1 5 3 3 4 4 14-1 3-6-15-4-4-3-1-13-1h-19l-7-1h-8l-2 3v10l2 4-1 9-1 6h-1v-14l-1-3v-14z" fill="#C5B785"/>
<path transform="translate(701,959)" d="m0 0 4 2h130l3 2-60 1h-75z" fill="#CBBC8C"/>
<path transform="translate(1010,922)" d="m0 0h3l1 2v7l-2-1-1 7v6l1 4-2 3 2 8 2 1-1 20-6-1-1-13 2-30z" fill="#52504E"/>
<path transform="translate(540,766)" d="m0 0h9l14 3 6 4 2 5-1 1h-6l-5-2-9-2-12-5v-3z" fill="#6E6A5B"/>
<path transform="translate(245,931)" d="m0 0 5 1 3 5 2 11v6l-3 1-1-7-2-4-6-2h-9v9l-3-3v-7l4-5z" fill="#8E6B3E"/>
<path transform="translate(1410,206)" d="m0 0h27l17 1 9-1 1 1 9 1 2 2-8 1-18-1-29 1-8 1-3-1-1-3z" fill="#53514F"/>
<path transform="translate(1874,1018)" d="m0 0 4 1-7 5-26 7-35 7-8 1h-9l-2-1v-2h10l37-6 16-4 8-4 10-3z" fill="#645F55"/>
<path transform="translate(155,871)" d="m0 0 21 1h15v4l-5 2h-10l-19 2h-5l8-4v-2l-5-2z" fill="#C5B785"/>
<path transform="translate(39,280)" d="m0 0 2 3 1 4 4 2 2 9 5 5 6 2 12 1-1 2-6 1-3-1-12-1-6-3-3-7-1-7z" fill="#DED0A7"/>
<path transform="translate(1257,1085)" d="m0 0 3 1h14l9 1 3 2 20 3 1 2-12-1-13-1-6-2-13 1-3-1-7 2-3-1-5 3h-5l5-4z" fill="#53514F"/>
<path transform="translate(138,205)" d="m0 0 5 2 3 7 2 1 21 2-1 2-25 1-4 1-4 4 2-10-2-7z" fill="#C5B785"/>
<path transform="translate(74,229)" d="m0 0h2l-2 4-5 3-8 5-4 5-15 1-4 2v-6l2-2 15-2 17-8z" fill="#DBCDA1"/>
<path transform="translate(1066,1034)" d="m0 0 3 1 6 10 11 14 4 4v5l-6 4-2-11-2-5-8-10-2-2-5 1-3 3 1-9z" fill="#53514F"/>
<path transform="translate(86,244)" d="m0 0 11 1-3 2-3 1 12 2 1 2-7 1h-6l-2 1h-3l-8 1h-7-1l-6 1-2-2 7-3 19-3-5-2z" fill="#82744B"/>
<path transform="translate(1758,822)" d="m0 0h1v10l-4 5-14 3h-15l-20-2 1-2 25 1 13-2 8-4 3-4z" fill="#52504E"/>
<path transform="translate(1115,84)" d="m0 0h11l16 3 12 3 4 3-19-1-9-2-4-2h-15l-4 3 2-4z" fill="#777363"/>
<path transform="translate(1789,725)" d="m0 0 21 2 20 4 19 5-1 2-18-3-17-2-12-4-12-3z" fill="#AE9C6B"/>
<path transform="translate(544,751)" d="m0 0 13 2 13 4 7 6 3 3-5-2-14-6-6-2-8-1h-14l-13 3-5 1v-2l16-5z" fill="#756943"/>
<path transform="translate(218,146)" d="m0 0 2 1-4 17v7l-3 9h-4v-2l-61-1v-1h62l2-10z" fill="#AB9A68"/>
<path transform="translate(1396,1084)" d="m0 0h58l-4 2-24 1h-24l-18 3h-9l2-2z" fill="#53514F"/>
<path transform="translate(32,953)" d="m0 0 2 1 3 8 2 3v3h2l4 4 11 3 17 1 3 2h-18l-15-2-6-3-3-4z" fill="#D9C393"/>
<path transform="translate(1160,365)" d="m0 0 2 1-12 5-11 3-11 1-7 4-4-1-3-1-4-1 4-2 13-1 19-6z" fill="#716D61"/>
<path transform="translate(1240,1046)" d="m0 0h12l4 2-1 4-8 2-12-1-2-1v-2z" fill="#53514F"/>
<path transform="translate(367,902)" d="m0 0v3l-4 4-8 2-13 1h-19l-10-4-2-4 12 5h11l23-2 8-3z" fill="#D6BD8A"/>
<path transform="translate(708,823)" d="m0 0h12v1l-15 2-2 7 2 4 10 3 4 2h-9l-8-3-4-4-2-5v-3l3-3z" fill="#AB9866"/>
<path transform="translate(1027,73)" d="m0 0 14 1 17 4 29 9v2l-15-3-9-2-7-3-10-3-17-3z" fill="#777262"/>
<path transform="translate(47,875)" d="m0 0h7l9 4 5 5 3 6v2h2v6h-2l-5-12-6-5-3-1h-10l-7 6h-2l2-5z" fill="#D5BC89"/>
<path transform="translate(140,866)" d="m0 0 6 1 3 2h-12l-8 4-7-1-5-2h-13l-13 5-8 4-5 4 2-4 5-4 14-7 4-1h12l9 3 5-1 4-2z" fill="#C5B785"/>
<path transform="translate(100,245)" d="m0 0h15l6 3-3 4h-7l-11-2-9-1-1-2z" fill="#A99765"/>
<path transform="translate(1239,1076)" d="m0 0h20l5 1v1l-22 1-16 4h-12l-7-1v-1l28-4z" fill="#53514F"/>
<path transform="translate(732,379)" d="m0 0 7 1 5 4-1 4-5 2-7-1-4-4 2-4z" fill="#3E3E3C"/>
<path transform="translate(938,67)" d="m0 0 21 1 53 3v1h-30l-28-1h-8l-8-3z" fill="#7B7562"/>
<path transform="translate(1240,87)" d="m0 0h13l19 4 2 2-20-1h-8l-4-3h-2l-1 3-5 3-4-1 4-2 3-4z" fill="#726E61"/>
<path transform="translate(53,848)" d="m0 0h8l5 3 4 4 1 8-4 1-3-4-3-5-7-3z" fill="#82754C"/>
<path transform="translate(47,872)" d="m0 0 9 1 9 5 4 5 3 6-1 3-5-9v-2l-4-2-8-3h-7l-6 5-4 7h-2l-2 5-1-3 9-14z" fill="#C5B785"/>
<path transform="translate(307,903)" d="m0 0 10 6 6 2h19l18-2 5-2 3-3-2 5-6 3-5 1-14 1h-18l-8-3-8-6z" fill="#C5B785"/>
<path transform="translate(271,269)" d="m0 0 3 1 1 3v8l-3 7h-4l-1-2v-11z" fill="#504E4C"/>
<path transform="translate(107,905)" d="m0 0h27l5 2 1 5h-17l-12 3h-7v-1l15-3 6-2 5-1-8-1-15-1z" fill="#82754C"/>
<path transform="translate(938,843)" d="m0 0h1v21l-8-1-2-2 5-2 2-2-17-8 4-1 15 3z" fill="#AA9866"/>
<path transform="translate(1579,746)" d="m0 0 4 2 4 7v13l-2 8-2 3v-11l-1-6v-6l-2-1z" fill="#53514F"/>
<path transform="translate(557,768)" d="m0 0 6 1 6 4 2 5-1 1h-6l-5-2-9-2v-1l9-1v-2l-2-1z" fill="#6E6A5B"/>
<path transform="translate(510,851)" d="m0 0h9l8 2 1 5h-12l-8-4v-2z" fill="#AA9866"/>
<path transform="translate(1465,1088)" d="m0 0m-12 1h12v2l-45 3h-6v-2z" fill="#635F54"/>
<path transform="translate(408,94)" d="m0 0 4 1 5 1-2 3-12 4h-3v2l-5 3-6 2 1-3 8-4 1-4h3v-2l4-1z" fill="#52504E"/>
<path transform="translate(124,842)" d="m0 0h8l7 3-1 3-6 1-9-1-2-1v-2l-2-1z" fill="#82754C"/>
<path transform="translate(1302,89)" d="m0 0h10l21 6-4 1-8-2h-8l-6 1-8-1z" fill="#736F61"/>
<path transform="translate(314,1050)" d="m0 0h2l-2 9-3 2-7-1-9-7v-2h2v2l10 2 7-2z" fill="#C9BA89"/>
<path transform="translate(440,185)" d="m0 0h5l8 3v2l5 2 3 1 3-1 4 2v2l-10 1-5-2-2-2-3-1v-2l-5-2z" fill="#53514F"/>
<path transform="translate(551,817)" d="m0 0h10l1 4-4 5-4 1-4-2v-7z" fill="#6F6B5C"/>
<path transform="translate(1285,358)" d="m0 0h3v2l-7 3-2 2-24 2 3-3 9-2 14-2z" fill="#726E61"/>
<path transform="translate(39,203)" d="m0 0h1l1 13 23 3 11 2v3l-6-2-28-3-2-1z" fill="#CBBA88"/>
<path transform="translate(1204,366)" d="m0 0h3v2l-10 3-12 2-4 1-10-5 2-1 6 1h10z" fill="#736F62"/>
<path transform="translate(168,308)" d="m0 0 7 1 2 1 20 2 1 2-17-1-22-2-1-2z" fill="#DDD0A6"/>
<path transform="translate(1188,151)" d="m0 0 5 2 1 6v1l2 1-3 2-7-1-2-3 1-3 1 1 1-5z" fill="#52504E"/>
<path transform="translate(1301,1082)" d="m0 0 6 1 14 3 15 1-2 2h-21l-9-3-3-2z" fill="#53514F"/>
<path transform="translate(157,295)" d="m0 0 5 3 2 5-4 3-4-1-3-4 1-5z" fill="#AA9866"/>
<path transform="translate(1306,362)" d="m0 0h22l-3 2-15 3h-8l-3-4z" fill="#747061"/>
<path transform="translate(1874,1018)" d="m0 0 4 1-7 5-14 4-4-1 6-4 13-4z" fill="#5E5B53"/>
<path transform="translate(1882,293)" d="m0 0h9l1 4h-30v-2l-5 1-7-1v-1h15l2 1h15z" fill="#514F4D"/>
<path transform="translate(647,1013)" d="m0 0 1 3-4 12-7 11-7 7-4 2-3-1 8-5 7-9 6-11z" fill="#CBBD8D"/>
<path transform="translate(535,753)" d="m0 0h17l16 5 8 4 4 4-5-2-14-6-6-2-20-2z" fill="#696760"/>
<path transform="translate(636,901)" d="m0 0 3 1-1 6-3 5-3 2h-3l2-7 3-6z" fill="#786A3E"/>
<path transform="translate(1971,780)" d="m0 0h9v2h9l10 3v1l-12 1-11-4-5-2z" fill="#53514F"/>
<path transform="translate(509,760)" d="m0 0h6l-4 3-7 3-9 7-7 9-2-2 5-7h2v-2l11-8z" fill="#766940"/>
<path transform="translate(786,880)" d="m0 0h11l3 1v2l-6 1h-9l-8-1 1-2z" fill="#DCCEA3"/>
<path transform="translate(1209,157)" d="m0 0 1 2h7l2-1-1 4v3l-7 1-9-4v-1l8 1z" fill="#504E4C"/>
<path transform="translate(1593,779)" d="m0 0h8l11 7-3 1-9-6-4 1-7 11-1-2 3-10h2z" fill="#53514F"/>
<path transform="translate(1242,108)" d="m0 0 7 1 2 1-4 6-1 4-3 3-1-5z" fill="#53514F"/>
<path transform="translate(234,954)" d="m0 0 10 5 6-2 4-3-1 5-3 3-5 1-11-6z" fill="#82754C"/>
<path transform="translate(80,195)" d="m0 0 9 2-1 4-8 1-2-2v-4z" fill="#C5B785"/>
<path transform="translate(630,765)" d="m0 0 7 6 6 10 2 8v5l-2-2-3-10-5-9-5-6z" fill="#CBBD8D"/>
<path transform="translate(541,764)" d="m0 0h7l12 3v1h-7l-4-1h-9l-2 2 4 3-6-1-3-3 4-3z" fill="#53514F"/>
<path transform="translate(1129,372)" d="m0 0 4 2-9 3-3 2-4-1-3-1-4-1 4-2 13-1z" fill="#757061"/>
<path transform="translate(932,818)" d="m0 0 5 1-1 3v-2l-5 2-12 1h-13v-1l17-2z" fill="#877A50"/>
<path transform="translate(1223,361)" d="m0 0 8 1 5 2-1 2-10-2-12 3-6 1v-2l11-3z" fill="#7C7766"/>
<path transform="translate(226,883)" d="m0 0h2l-2 4-3 3-4-1-13-1v-2h18v-2z" fill="#D5BC89"/>
<path transform="translate(1360,1084)" d="m0 0 2 2-9 3 3 2-9 1-2-2-8-1v-1l15-1z" fill="#52504E"/>
<path transform="translate(229,808)" d="m0 0h2l-2 14-4 16h-3l5-18z" fill="#CEBE8F"/>
<path transform="translate(114,196)" d="m0 0h8l2 4-1 1h-9l-4-1v-2z" fill="#C5B785"/>
<path transform="translate(1490,1068)" d="m0 0h9v1l-18 3-11 3-8 1 4-3z" fill="#53514F"/>
<path transform="translate(152,908)" d="m0 0 12 2 1 1 9 1v1l-16 1-6-3z" fill="#CEBA87"/>
<path transform="translate(297,751)" d="m0 0h5l2 4-5-1-9 4h-2l-2 5-2 4-2-1 3-6 4-5z" fill="#CABC8C"/>
<path transform="translate(938,67)" d="m0 0 21 1 4 2-17 1-8-3z" fill="#767161"/>
<path transform="translate(1568,723)" d="m0 0h5l7 6 3 3v2l-5-2-7-6h-6z" fill="#53514F"/>
<path transform="translate(304,777)" d="m0 0h2l3 10 8 5-3 1-8-4-2-4z" fill="#DFD2A9"/>
<path transform="translate(59,241)" d="m0 0v3l-2 2-15 1-4 2 1-4 3-1 14-1z" fill="#CBB986"/>
<path transform="translate(1046,673)" d="m0 0h1l-1 10-7 3-2 1 2-4z" fill="#6F6B5E"/>
<path transform="translate(1871,829)" d="m0 0h2v7l4 4 5 1v1h-7l-6-4-1-3h2z" fill="#53514F"/>
<path transform="translate(590,395)" d="m0 0h7l1 1v5l-1 1h-6l1-6z" fill="#52504E"/>
<path transform="translate(1755,1036)" d="m0 0h8v2l-10 1-3 2-7-1 3-2z" fill="#52504E"/>
<path transform="translate(447,427)" d="m0 0 5 2-2 5-6-1v-4z" fill="#696760"/>
<path transform="translate(1010,922)" d="m0 0h3l1 2v7l-2-1-2 5h-1v-10z" fill="#53514F"/>
<path transform="translate(1183,733)" d="m0 0 4 5 2 7 2 5v3l-4-4-1-5-3-7z" fill="#53514F"/>
<path transform="translate(1596,750)" d="m0 0 2 4 4 9 1 5-4-4-3-8-2-4z" fill="#53514F"/>
<path transform="translate(272,238)" d="m0 0 2 3 3 5 1 1h12v1l-10 2-6-1-2-7z" fill="#53514F"/>
<path transform="translate(415,213)" d="m0 0 4 1-9 3-12 5-2-1 5-3 8-4z" fill="#53514F"/>
<path transform="translate(550,769)" d="m0 0 9 1v4h-6l-4-4z" fill="#AA9866"/>
<path transform="translate(1171,368)" d="m0 0 17 2 1 2-8 2-10-5z" fill="#777262"/>
<path transform="translate(1311,129)" d="m0 0 1 2 3 1 3 6 1 10-2-2-3-10-2-3-4-2z" fill="#3E3E3C"/>
<path transform="translate(1010,867)" d="m0 0 2 3v2l4-3h3l1 4-4-1-3 5h-2l-1-2z" fill="#53514F"/>
<path transform="translate(1994,994)" d="m0 0 4 2-20 6h-2v-2l9-3h5v-2l4 1z" fill="#686356"/>
<path transform="translate(279,944)" d="m0 0h6l-1 6-6-1z" fill="#C5B785"/>
<path transform="translate(567,771)" d="m0 0 4 2 3 7-1 2-9-2v-1l6-1-2-5z" fill="#53514F"/>
<path transform="translate(1242,124)" d="m0 0 8 2-8 8h-1z" fill="#52504E"/>
<path transform="translate(73,839)" d="m0 0h5l-1 2-3 1h-17v-1z" fill="#CABC8C"/>
<path transform="translate(893,385)" d="m0 0h2v2l-10 2-2 3-2 2-1-6 6-2z" fill="#52504E"/>
<path transform="translate(701,959)" d="m0 0 4 2 11 1v2h-13z" fill="#CDBB89"/>
<path transform="translate(1612,799)" d="m0 0 13 3 7 4-2 1-17-6z" fill="#53514F"/>
<path transform="translate(1756,794)" d="m0 0h1l1 27h-1v-5h-2z" fill="#53514F"/>
<path transform="translate(2035,289)" d="m0 0 12 1 1 3h-9l-4-2z" fill="#514F4D"/>
<path transform="translate(74,229)" d="m0 0h2l-2 4-5 3-5 2 3-5 6-3z" fill="#D2C496"/>
<path transform="translate(191,218)" d="m0 0h11l6 3v3l-4-2-4-1v-2h-9z" fill="#CBB986"/>
<path transform="translate(548,818)" d="m0 0 3 1v6l5 2-3 1-5-3-1-1v-5z" fill="#53514F"/>
<path transform="translate(985,144)" d="m0 0h6v1l-5 1 5 1v1l-7 2-2 2-1-4z" fill="#4E4D4B"/>
<path transform="translate(1202,161)" d="m0 0 14 2 3 1-4 2-6-1-7-3z" fill="#53514F"/>
<path transform="translate(241,1020)" d="m0 0 6 3 7 2v1h-7l-5-2z" fill="#CCBE8E"/>
<path transform="translate(1568,767)" d="m0 0h6v5h-6l-2-4z" fill="#53514F"/>
<path transform="translate(509,760)" d="m0 0h6l-4 3-7 3-4 2 2-4z" fill="#6B634A"/>
<path transform="translate(1882,293)" d="m0 0h9l1 4h-7l-1-2h-2z" fill="#52504E"/>
<path transform="translate(554,819)" d="m0 0h4l-1 5-5 1-1-3z" fill="#B3A271"/>
<path transform="translate(432,182)" d="m0 0 7 1 1 2h-2l-1 2-7-1v-3z" fill="#53514F"/>
<path transform="translate(1240,87)" d="m0 0h2v2h-2l-1 3-5 3-4-1 4-2 3-4z" fill="#6F6C60"/>
<path transform="translate(156,886)" d="m0 0 3 1-4 2-5 6-3 1 2-5z" fill="#CDBA87"/>
<path transform="translate(987,760)" d="m0 0h1v9h2l-1 6-2 2z" fill="#766F5B"/>
<path transform="translate(278,49)" d="m0 0v3l-6 7h-2l2-4z" fill="#807963"/>
</svg>
