<?xml version="1.0" encoding="UTF-8"?>
<svg version="1.1" viewBox="0 0 900 900" width="1280" height="1280" xmlns="http://www.w3.org/2000/svg">
<path transform="translate(571,119)" d="m0 0h25l25 4 21 6 10 3 11 2 6 5 13 28 5 6 4 1 4-1h9l21 5 56 12 25 6 5 4 8 12 9 10 11 11 9 11 10 15 8 17 7 25 3 14 1 10v23l-3 21-6 18-7 14-7 8-4 9-2 27-10 7-16 17-12 12-12 6-20 7h-7l-3 1h-10l-9-2-106 25-40 9-24 4h-10l-3 2-6 12-8 10-6 8-10 10-16 10-16 7-20 5-30 4h-4l1 3 2 26v59l-1 18-4 5-60 15-26 6-27 7-43 12-37 11-15 6-43 13-16 4-8-1-10-5-7-7-3-7v-17l2-14h-8l-14-10-19-13-4-3-11 1-21 5-6-1-11-8-4-4-2-11-1-52 1-20v-112l-1-106-2-4v-8l1-3-1-19 2-4v-6l-2-4v-24l2-7 13-3 32-4 26-3 12-1 49-7 59-8 26-4 3-1 13-1 10-5 4-15 7-24 8-20 12-20 8-10 6-7 8-7 10-6 15-6 10-3 20-2 38-2 11-4 7 1 2 2h6l7-8 10-17 4-6 7-2 21-2 29-4z" fill="#1D589A"/>
<path transform="translate(571,119)" d="m0 0h25l25 4 21 6 10 3 11 2 6 5 13 28 5 6 4 1 4-1h9l21 5 56 12 25 6 5 4 8 12 9 10 11 11 9 11 10 15 8 17 7 25 3 14 1 10v23l-3 21-6 18-7 14-7 8-4 9-2 27-10 7-16 17-12 12-12 6-20 7h-7l-3 1h-10l-8-3-3-3 1-5-2-7v-4h-2v-2l-10 1-13 3-7 1-10 4-12 1-5 3v7l-4 3-5-1-3-6-11 1-3 1-7-1-15 5-2 1-6 1-2 1 1 5 2 5-2 3-6-1-4-6-1-6-16-3-3-1-1-5 3-5h6l3-2v-5h-9l-1-17 2-10v-6l-4-8h-2l1-4 5-2v-10l-4-4-2-5 1-4 6-5-3-5-5 1-2 2v7l-5 15-3 20-3 3-6 1-1 2h-2v-34l-1-5v-18l-2-5v-7h2v-12l-3-1-2-6 1-8-3-3-5-13v-5l-5-10-6-17-11-28-11-23-7-11-8-12-8-11-9-11-16-17 1-4-3-5-6-8-4-3 1-7 7-10 10-17 4-6 7-2 21-2 29-4z" fill="#1D589B"/>
<path transform="translate(330,509)" d="m0 0h10l12 3 11 5 10 9 6 7 4 8 6 23-1 21-5 16-8 18-6 7-4 8-3 1-2 4-11 11-17 9-13 4h-16l-13-4-12-7-8-9v-2h-2l-6-13-3-9-1-7v-17l3-16 5-15 8-15 6-9 12-13 8-6 10-6 11-4z" fill="#494B51"/>
<path transform="translate(332,469)" d="m0 0h1l-1 17-12 3-1 1 4 1 11 3h8l4-1v2l13 1 6 2v2h2l1 2 7 3 5 6 1 5-7-6-7-4-11-5h-11l-15-1 1 4 17 2 15 5 8 6 5 4 7 10 5 10 3 10 2 16h3v-11l-1-15 1-2 2 2 2 7 1 5 9-1 6-3-1-5h-2l-5-7v-3h-3v-2l-4-1 1-7h3v-2h3l3 11v2l4 1 7 8 4 4 3 8v12l-3 9h-2l-1 5-9 12-2 6-1 9-3 3h-2l-2 32-6 12-4 6-1 4-14 3-8 2-6 3-7 8-7 3-5 4-6 9-4 8-3 3h-2l-1 2-15 4-6-2-7-8-8-5h-11l-4-2v-2l-15 2-8 3h-7l-5-4-8-10-1-7v-17l-3-8-4-4v-8l-4-7-5-5-8-6-2-4v-18l3-9 8-9 4-5 4 1v5l-3 5 13-3 2-1 2 3 2 17v16l-4 1-2-4-3-1v2l-8 3 2 5 5 6 2 4 6 1-1 6 1 14 1 2v6l5-3 3-3-1-7-4-7v-7h-2v-7l2-4-1-5-1-37 3-4h3v17l1 5-3 6v2h2l5 19 7 14 7 9 9 8 3 3 7 4 17 4 16 1 2-9-12 1-12-2v-2l21-1 7-1v-2l16-8 8-5 10-10 6-8 3-6 3-1 2-5 9-21 3-11 1-21-6-23-6-11-10-10-7-4-13-5-6-1h-10l-15 4-12 6-11 8-7 7-7 9-9 16-3 3-1-5 9-15 11-13 7-7 13-9 14-6h2v-5l-16 6-11 7-8 7h-2l-2 4-7 7-9 14-7 12h-1l-2-7-3-4 1-7-2-1 1-10 8-10v-5l-4-3-5 1-4 5-3 13-5 1h-4v-10l6-10 9-10 5-3 15-3h4v2h5v2l-13 5h-3l1 4 4 2 2 3 5-2 10-8 1-2 7-3 9-6 7-2 2-4h2l1-3 8-5 8-8z" fill="#D6DEE5"/>
<path transform="translate(454,157)" d="m0 0 7 1 2 2h6l3-2-2 4-1 7 7 6 4 6 2 5v4l8 8 7 8 11 13 12 18 10 16 11 23 10 26 7 19 4 9 1 7 4 10v2l3 1-1 9 3 4 2 2-1 12h-2l1 11 2 1v18l1 5v33l9-4 2-6 2-15 5-15v-7l4-4 5 1 2 4 2 1-8 6 1 8 3 1 2 3-1 10-5 3-1 3 3-1 4 9v9l-2 7v17l2-1h7l1 1v5l-4 3h-6l-2 5v4l15 2 5 2 2 8 2 4h6l1-4-3-5 1-4 4-2h5l7-3 10-3 7 1 7-2h6l3 5v2l7-1 1-4 1-5 5-3 12-1 10-4 20-4 7-1 3 1v2h2l3 11v6 3l-106 25-40 9-24 4-9-1 3-8-2-5-4-1-1-11-2 8-2 5-8 17-8 16-2 1v-8l4-11 3-8 1-6-3 1-4-2v-4l5-3 3-18 3-4 1-8 5-1 1-7 2-4v-12l-1-5 2-4h3v-25l-1-4h-2l-3-4h-3l-2-10-1 5v22l-2 4h-2l-1-2-1-10-2-7v-7l-2-12-3-24-3-15-4-21v-6l5 1 10 8h2v-8l-10-33-10-26-12-23-14-22-12-16-7-8-11-11-9-7-2-1v-2l-4-1-6-2-10-1-2-2-8-2-13-4-16-4-10-1-4-3 49-3z" fill="#3784C9"/>
<path transform="translate(324,536)" d="m0 0h16l10 4 8 7 6 9 3 9 1 6v12l-2 13-5 13-7 11-8 7-7 5-11 5-11 2-10-1-12-6-5-5v-2l-4-2-5-14-1-6v-17l4-15 6-11 9-10 8-7 10-5z" fill="#A0A1A0"/>
<path transform="translate(106,327)" d="m0 0 9 3 20 9 16 7 20 9 3 1h10l45-6 10 2 4 1v2l7 2 1 2 16-1 5-1h6l-2 4-14 4h-6l-2 11-2 1-14 2-26 5-16 1-9 3-1 26 2 6 3-1v3l10-6 5-2 3 4v10l-5 2-4 5h-2l-1 3-5 1-5-3v-4l-8 4-3 2-3-1-1-5v22h3 2v-5h-2v-5h2l-1-3h10l-2 11-4 5-2 5-10 5-10-5-8-3-2-8-2-42v-41l-5-5-16-8-31-14-14-6-5-3v-2l6 1 27 12 29 13 11 5 5 2 9-3 8-1v-2l-6-1-21-10-24-11-14-6z" fill="#3784C9"/>
<path transform="translate(95,371)" d="m0 0h11l9 6 4 5 8 12 7 16 4 12 2 18v28l-3 12-7 12-6 5h-10l-8-4-8-8v-2h-2l-8-17-4-9-1-7h-2l-4-29v-16l4-16 6-11z" fill="#494B50"/>
<path transform="translate(426,570)" d="m0 0h1l-1 7h-2l-1 5-9 12-2 6-1 9-3 3h-2l-2 32-6 12-4 6-1 4-14 3-8 2-6 3-7 8-7 3-5 4-6 9-4 8-3 3h-2l-1 2-15 4-6-2-7-8-8-5h-11l-4-2v-2l-15 2-8 3h-7l-5-4-8-10-1-7v-17l-3-8-4-4v-8l-4-7-5-5-8-6-2-4v-18l3-9 8-9 4-5 4 1v5l-3 5 13-3 2-1 2 3 2 17v16l-4 1-2-4-3-1v2l-8 3 2 5 5 6 2 4 6 1-1 6 1 14 1 2v6h2v2l-6 3-1 4v8l4 6 7 6h8l18-4 4-2h-14l1-9 2-1 2-4h7l10 3 2 2 20 1 1 1-1 15h-8l-5-2-3-3h-4l-1-8-3 1-2 5-1 4 1 1 14 1 6 5 8 8 10-1 9-4h3l2-5 5-7 1-3-6 3-2-6-1-9 4-4 13-7h3l3-9h2l1-3h2l-1-2-8 7-8 5h-4v2l-5 2h-5l1-4 11-6 12-7 12-11 8-10 8-14 8-21 4-21h4l1 10 3-5 7-2h7l1 2-3 9 3-1v-3h2l1-4h2v-3h2l1-4z" fill="#DBE4EB"/>
<path transform="translate(454,157)" d="m0 0 7 1 2 2h6l3-2-2 4-1 7 7 6 4 6 2 5v4l8 8 7 8 11 13 12 18 10 16 11 23 10 26 7 19 4 9 1 7 4 10v2l3 1-1 9 3 4 2 2-1 12h-2l1 11 2 1v18l1 5v21l-1 2-3 30-4 31-4 14-3 8-3 7h-2v-8l5-16 5-17 2-12 2-31v-18l-1-4h-2l-3-4h-3l-2-10-1 5v22l-2 4h-2l-1-2-1-10-2-7v-7l-2-12-3-24-3-15-4-21v-6l5 1 10 8h2v-8l-10-33-10-26-12-23-14-22-12-16-7-8-11-11-9-7-2-1v-2l-4-1-6-2-10-1-2-2-8-2-13-4-16-4-10-1-4-3 49-3z" fill="#3783C9"/>
<path transform="translate(328,462)" d="m0 0 1 2h2l4 6v11l1 5 2 1 15 1-1-7-3-2v-4l-1-3 8 1 6 1 2 2 4 1h8l8-2h7l8 7 4 5 6 2-1 3-3 1v17l2 6 4 7 2 12h-2l-3-13h-3v2h-3v7l3 1v2h3l4 7 1 3h2l2 5-4 3-7 2h-5l-2-7-3-7 1 23-1 4h-3l-4-21-5-11-6-10-4-5-11-8-15-5-17-2-1-5h26l15 7 8 6-1-4-6-5-5-2v-2h-2v-2l-19-3h-4-8l-11-3-5-1v-2l12-3h2v-14l-5 6-8 6-4 2-1 2h-2l1 3-5 3-7 2-8 6-6 1-2 4-10 8-4 1-4-5-3-3v-2l12-5h4v-2h-5l-1-3 6-4 5-6 8-2 3-1v-2l5-5 8-12h4v2l7 1-3 6h7l4 1-1-7h-5l2-2 3-1z" fill="#A3B7CD"/>
<path transform="translate(412,200)" d="m0 0h2l1 7-5 35 2 2v9l-5 19 1 2 1-2h2l2-7 5-8h2l2-4 6 2 3 2v2l4 1v2l4 2 10 10 10 13 9 15 6 15-1 4-10 2-19-1-11-3-1-4-10-2-23-1-5-2v-2l5-1 2 1-1-2-13-5-3-2-13-2-3-5 4-4 7-1h9l12 4 8 4-1-7-1-2-1-6-3 4-4 1v-12l3-19 6-29 2-16 2-8z" fill="#6695C9"/>
<path transform="translate(73,350)" d="m0 0 5 1 7 5 3 5v2l8-2h7l9 5 1 2 7 4 6 9 4-2 2-3 6 1 4 4 2 5v19l-1 4-2 1 1 8 3 22v28l-3 15-1 10 4 9v14l-4 6h-4l-3-5-4-5-1-5-6 2h-10l-9-5-6-5-6-8-2-4-3-1-2 4-4 1-5-5-2-6v-16l2-4v-8l-3-17-1-13v-17l1-13v-12l-1-8v-19zm22 21-8 7-6 11-4 16v16l4 29h2l2 9 4 10 7 14h2l2 4 9 8 5 2h10l6-5 5-8 3-8 2-8v-28l-2-18-7-19-7-14-8-11-8-6-2-1z" fill="#D6DEE5"/>
<path transform="translate(95,371)" d="m0 0h11l9 6 4 5 8 12 7 16 4 12 2 18v28l-3 12-7 12-6 5h-10l-8-4-8-8v-2h-2l-8-17-4-9v-3h2l5 12 7 11 1 3 7 7v2l8 1v2l7-2v-2l4-1 3-4v-2h2l1-5h3v-13l1-10-2-10 1-8h-2l-1-6-5-2-1-3h-2l-2-6-4-1-1-3h-7l-6 2-9 1-3 5-7-1-1 13 1 9h-2l3 5-1 5-1-3h-2l-4-29v-16l4-16 6-11z" fill="#585A63"/>
<path transform="translate(474,500)" d="m0 0 2 1 1 9-1 16-1 2 5-1v-2l4-3h5l3 4 2 10 2 7v16l-2 2h-8l-4-3v-2l-4 1v14l-3 11-6 8-2 6-8 1-4-1 1-58 1-24 8-6 7-7z" fill="#061535"/>
<path transform="translate(115,551)" d="m0 0 16 8 14 8 8 5-2 58-3 2-13-9-10-6-9-5-2-3-1-55z" fill="#C9CDD4"/>
<path transform="translate(327,557)" d="m0 0h7l8 4 6 9 1 5v8l-4 12-5 9-8 8-8 4h-11l-6-3-6-8-3-7-2-1v-7l2-7 4-5 5-10 6-5h2v-2l7-3z" fill="#0E121C"/>
<path transform="translate(247,584)" d="m0 0h3v17l1 5-3 6v2h2l5 19 7 14 7 9 9 8 3 3 7 4 17 4 17 1v2l-7 3-8-1-3 3h-15l-2-2-10-3h-7l-2 4h-2l-1 9 4-1h7l3 1-1 2-21 5h-8l-10-9-2-4v-8l2-5 6-2 2-4 4-4-1-7-4-7v-7h-2v-7l2-4-1-5-1-37z" fill="#C8CDD4"/>
<path transform="translate(571,119)" d="m0 0h25l25 4 21 6 12 4-4 1-19 2-27 3-40 4-16-3-15-4-2-1-12-2-12-3-10-2v-1l21-2 29-4z" fill="#C9CDD4"/>
<path transform="translate(148,368)" d="m0 0 6 1 1 2 12 3 4 3-1 88-7-1-13-5-2-8-2-42 1-39z" fill="#C5D2DF"/>
<path transform="translate(137,309)" d="m0 0h4v3h2l-1 3-12 3-21 3-9 2-23 3-4 2 2 2-2 1-4-2-1 4 1 58-1 24h-3l-4-4-5-2-1 9h-1v-19l-2-4v-8l1-3-1-19 2-4v-6l-2-4v-24l2-7 13-3 32-4 26-3z" fill="#E3EAEF"/>
<path transform="translate(328,462)" d="m0 0 1 2h2l4 6v11l1 5 2 1 15 1-1-7-3-2v-4l-1-3 8 1 6 1 2 2 12 2v1l-8 1v4l-8 1-3 5 4 1 4 4 5 1 7-6 1-2h3v-2l3 1 1 6 8-1 2-3-2-5h2l1-2 3 4v2h2l1 2v7l-5 5 1-6-8 2-6 6h-2l1 4 1 5-4-2-8-7-5-2v-2h-2v-2l-19-3h-4-8l-11-3-5-1v-2l12-3h2v-14l-5 6-8 6-4 2-1 2h-2l1 3-5 3-7 2-8 6-6 1-2 4-10 8-4 1-4-5-3-3v-2l12-5h4v-2h-5l-1-3 6-4 5-6 8-2 3-1v-2l5-5 8-12h4v2l7 1-3 6h7l4 1-1-7h-5l2-2 3-1z" fill="#AAB0B9"/>
<path transform="translate(341,542)" d="m0 0 10 1 6 3 7 10 3 9 1 6v12h-1l-2-17-2-3-5 3-1 2-7 2v16l-4 11-5 9-8 8-5 4-7 2h-14l-3 1-12-6-3-3v-3l-2-1-1-7v-10l3-13 8-15 5-6 12-9 13-4 5-1zm-14 15-12 4v2l-5 2-5 6-3 7-5 7-1 5v7l3 3 4 8 5 6 5 2h11l9-5 8-8 6-13 2-7v-8l-3-9-5-6-7-3z" fill="#898A8E"/>
<path transform="translate(264,561)" d="m0 0 3 3-5 15-3 16v17l2 10 5 13 2 6h2l6 8 5 4 14 7 8 2h16l8-1-3 2-4 1h-21v2l14 1h10l-1 9-3 1-20-2-13-4-8-5-13-13-9-15-5-16-1-8h-2l-1-3 3-5-1-5v-10l1-7h-3l-2 4 1 37 1 7-2 2-1 7h2l2 10 4 6v5l-6 6h-3l-2-8-1-15 2-5h-6l-8-11-2-5 5-3h4v-2l5-1v6l4-1-2-26-1-7-2-4 2-2 10-2 1 2-1 16 3-3 5-25z" fill="#9AA4B1"/>
<path transform="translate(840,236)" d="m0 0 5 4 10 14 9 17 6 18 6 26 1 10v23l-1 9-8 4-8 2h-4l-2-11v-21l1-33v-37l-6-9-6-10v-2h-2z" fill="#10151F"/>
<path transform="translate(151,684)" d="m0 0 20 10 1 1v87l-7-3-8-7-3-4-1-5v-16l2-14h-5v-48z" fill="#A1B3C9"/>
<path transform="translate(224,580)" d="m0 0 4 1v5l-3 5 13-3 2-1 2 3 2 17v16l-4 1-2-4-3-1v2l-8 3 2 5 5 6 2 4 6 1-1 6 1 14 1 2v6h2v2l-6 3-2 4-1-11-3-10-5-5v-8l-4-7-5-5-8-6-2-4v-18l3-9 8-9z" fill="#A4ABB4"/>
<path transform="translate(300,496)" d="m0 0h2v2l2 1-1 2h-3v2l5 2 3 1v2l-10 5-10 8-4 2-2 4-7 7-9 14-7 12h-1l-2-7-3-4 1-7-2-1 1-10 8-10v-5l-4-3-5 1-4 5-3 13-5 1h-4v-10l6-10 9-10 5-3 15-3h4v2h5v2l-13 5h-3l1 4 4 2 2 3 5-2 10-8 1-2 7-3z" fill="#F6F8F9"/>
<path transform="translate(454,157)" d="m0 0 7 1 2 2h6l3-2-2 4-1 7 7 6 4 6 2 5v4l8 8 7 8 11 13 12 18 5 8 3 8 2 4-1 5-4-5-9-16-8-12-12-16-7-8-11-11-9-7-2-1v-2l-4-1-6-2-10-1-2-2-8-2-13-4-16-4-10-1-4-3 49-3z" fill="#A2B5CC"/>
<path transform="translate(332,469)" d="m0 0h1l-1 17-12 3-1 1 4 1 11 3h8l4-1v2l13 1 6 2v2h2l1 2 7 3 5 6 1 5-7-6-7-4-11-5h-11l-15-1 1 4 17 2 15 5 8 6 5 4 7 10 5 10 2 5-1 4-2-4-1 5-2-3-4-11-6-9-8-8-7-4-13-5-6-1h-10l-15 4-12 6-11 8-7 7-7 9-9 16-3 3-1-5 9-15 11-13 7-7 13-9 14-6h2v-5l-11 4h-5l-3-3-2-1v-2h3l-2-6 9-3 2-4h2l1-3 8-5 8-8z" fill="#A6B7CB"/>
<path transform="translate(525,247)" d="m0 0 4 4 12 25 10 26 7 19 4 9 1 7 4 10v2l3 1-1 9 3 4 2 2-1 12h-2l1 11 2 1v18l1 5v21l-1 2-3 30-4 31-4 14-3 8-3 7h-2v-8l5-16 5-17 2-12 2-31v-18l-1-2-4-36-3-23-6-33-11-33v-2h-2l-9-22-4-8v-7l-4-8z" fill="#6CA0D5"/>
<path transform="translate(56,590)" d="m0 0h1l1 32 13 6v83l-6-4-8-7-2-11-1-52z" fill="#ACB9C7"/>
<path transform="translate(359,653)" d="m0 0 2 1-4 5h-2l-2 15h-1v-6l-16 8-3 3 2 14 3-2h3l-1 4-7 11-16 6h-6l-5-5-1-3-5-2-3-3-14-1-2-2 1-4 3-5 4-2v9l4-1 3 2v2l13 2v-15l-5-1 3-4 9 1 6-2v-8l2 3v2h2l1-8h3l-1 3 10-2v-2l7-3 11-8z" fill="#CAD6E1"/>
<path transform="translate(847,439)" d="m0 0h1v6l-10 7-16 17-12 12-12 6-20 7h-9l1-3h3l2-4 11-11h2v-2l8-7 13-13h2l1-4h2l1-3 5 1 1 2 3 1 1-3 11-4 7-1 1 1 1-2h2z" fill="#A9BBCE"/>
<path transform="translate(73,350)" d="m0 0 5 1-2 1-2-1v23h2l1-14 4 2 2 5v4l6 1 1-1h5l-5 5-4 5-4 8-4 16v16l3 21v8h2l5 15 7 13-1 2-2-1v-2h-2v2 7h-3l-2 4-4 1-5-5-2-6v-16l2-4v-8l-3-17-1-13v-17l1-13v-12l-1-8v-19z" fill="#D6DEE5"/>
<path transform="translate(320,520)" d="m0 0h18l3 2h2l1 3 10 1 3 6 3 2 2 5 2 2 4 12v7l-3-4-6-10-8-6-4-2-7-1h-16l-10 3-11 7-10 10-7 12-2-2 1-5 2-5-2-1 1-2h2l1-3 3-6 1-3 5-4 5-5 3-1-3-2-4 1 1-2h2v-2h2v-2l10-3 6 1z" fill="#383B46"/>
<path transform="translate(74,351)" d="m0 0 7 2 5 5 2 5 8-2h7l9 5 1 2 7 4 6 9 4-2 2-3 6 1 4 4 2 5v19l-1 4-2 1 1 8 1 10h-2l-1-2-1 8h-1l-1-12-7-19-7-14-8-11-9-6h-16l-5 1v-2h-2l-3-9-3-2v15l-3-1z" fill="#C1CDD9"/>
<path transform="translate(412,200)" d="m0 0h2l1 7-5 35 2 2v9l-5 19 1 2 1-2h2l2-7 5-8h2l2-4 6 2 3 2v2l4 1v2l4 2 10 10 8 10-1 2-3-3v-2h-2l-7-8-3-2v-2l-3-1-1-2-4-2-7 1v3l-6 4h-2l-1 10v10l2 8-1 2-5-1-5-3-3-3h3l-1-7-1-2-1-6-3 4-4 1v-12l3-19 6-29 2-16 2-8z" fill="#5B8CC5"/>
<path transform="translate(106,327)" d="m0 0 9 3 20 9 16 7 20 9 3 1h10l45-6 10 2 4 1v2l7 2v2l-11 3-1 1-13 1-27 5-12 2h-10l-1-2 8-2 6-2-2-4-11 1-13 3h-8l1-3 10-3h4v-2l-6-1-21-10-24-11-14-6z" fill="#92ACCA"/>
<path transform="translate(279,568)" d="m0 0 5 1-1 8-2 9v17l3 13 4 8 5 5 9 6 6 3 6 1h15l4 2v2h-3v2h-4l-1 2-3-1-6 3-7-1v-2l-6 1-9-4-11-8-1-4h-3l-2-3v-3h-2l-5-14-1-13 2-16 4-9 2-4h2z" fill="#393D47"/>
<path transform="translate(75,330)" d="m0 0 6 1 27 12 29 13 11 5 5 2h3l-1 2 18-3 3-1h11l1 2 3 2-8 3-7 2h10l17-3h6l-5 4h-11l-11 2v2l-7 6-2 1-1 48v24h3 2v-5h-2v-5h2l-1-3h10l-2 11-4 5-2 5-10 5-2-2h4v-88l-9-4-7-2v-2l-6-1-1 2-3-5-10-6-54-24-5-3z" fill="#709ECF"/>
<path transform="translate(384,475)" d="m0 0h7l8 7 4 5 6 2-1 3-3 1v17l2 8-4-2-1-6-1 19-4-1-2-5-4-2-2-3-1-7 3-6 9-6 1-2v-9h-2l-3-5-2 2 2 5-3 3-5 1-3-1-2-6-2-1v2h-3l-2 4-6 5-5-1-4-3v-2l-5-1 4-6 7-1v-2l-2-1 3-1h8v-2z" fill="#8CA7C6"/>
<path transform="translate(236,666)" d="m0 0h1l1 19 4 6 7 6h8l18-4 4-2h-14l1-9 2-1 2-4h7l10 3 2 2 20 1 1 1-1 15h-8l-5-2-3-3h-4l-1-8-3 1-2 5-1 4 1 1 14 1 6 5 8 8 10-1 9-4h3l2-5 6-9 2 1-7 13-3 3h-2l-1 2-15 4-6-2-7-8-8-5h-11l-4-2v-2l-15 2-8 3h-7l-5-4-8-10-1-7z" fill="#88A7CB"/>
<path transform="translate(383,545)" d="m0 0 2 3 4 16-1 21-5 16-8 18-6 7-4 8-3 1-2 4-11 11-17 9-5 2-4-1h2v-3l-3-2 16-8 9-6 11-12 4-6 12-24 3-8 2-2 1-2h2v-3h2l1-5 1-3v-10l-2-12-2-8z" fill="#585A63"/>
<path transform="translate(571,119)" d="m0 0h25l25 4 21 6 6 2-4 2-21 1-7-2-6-4-11-3h-9l-11-1h-17l-9 2-5 3-4 1-2 4-13-1-18-6v-1l28-4z" fill="#DCDCDD"/>
<path transform="translate(405,522)" d="m0 0h3l3 11v2l4 1 7 8 4 4 3 8v12l-2 2-1-8-8 7-4 5-6 2-4-1-1-1v-11l-5 3-1 4-4-1v-2h3v-11l-1-15 1-2 2 2 2 7 1 5 9-1 6-3-1-5h-2l-5-7v-3h-3v-2l-4-1 1-7h3z" fill="#C8CCD3"/>
<path transform="translate(716,176)" d="m0 0 27 6 34 7 26 6v1l-16 1-13 2h-8l-45-9-4-4z" fill="#C8CCD3"/>
<path transform="translate(247,584)" d="m0 0h3v17l1 5-3 6v2h2l5 19 7 14 7 9 9 8 3 3 7 4 17 4 14 1-1 2-23-1-11-3-6-3-2-4-4-4-4-1v-3l-7-2h-2l-3-8-3 1-1 3 2 4-1 6-4 4-2-1 4-4-1-7-4-7v-7h-2v-7l2-4-1-5-1-37z" fill="#A3B6CC"/>
<path transform="translate(362,583)" d="m0 0 2 1 1 6-3 11-8 16-3 5-10 5-6 2-1 2-8 1-2-2h2l1-4 3-6 3-1 2-4 3-3h2l4-10h2l3-11 4-4h5z" fill="#A9AEB5"/>
<path transform="translate(306,471)" d="m0 0h2l-1 6 2 1 1 13-20 12h-3l-2 4-10 8-4 1-4-5-3-3v-2l12-5h4v-2h-5l-1-3 6-4 5-6 8-2 3-1v-2l5-5 2-3h3z" fill="#D6E1E9"/>
<path transform="translate(789,254)" d="m0 0 5 1 8 11 3 6v58l-1 19-2 1-2-5-1-12v-11l-3-8v-7l3-10-5-5-4-9 1-4 8-3 1-5-7-2-2-3z" fill="#061433"/>
<path transform="translate(327,500)" d="m0 0h3l1 4 17 2 15 5 8 6 5 4 7 10 5 10 2 5-1 4-2-4-1 5-2-3-4-11-6-9-8-8-7-4-13-5-6-1h-10l-15 4-12 6-11 8-7 7-7 9-9 16-3 3-1-5 9-15 11-13 7-7 13-9 14-6h2l1-2 4 2 1-1-2-1z" fill="#A1B5CB"/>
<path transform="translate(854,352)" d="m0 0h1l1 11 14-4 5-1-1 11-6 18-7 14-7 6-2-3 1-16z" fill="#4A4C51"/>
<path transform="translate(324,536)" d="m0 0h16l10 4 5 4-1 2-7-3-19 1-9 3-8 4-10 8-8 13-1 2h-5l-3 12h-2v-9l5-12 7-10 10-10 10-6z" fill="#B9BBC0"/>
<path transform="translate(368,383)" d="m0 0 4 2 3 10 1 11-2 2-17 3-5 2v2l-5-1v-2l-11 1-3-3-10-2-2-4 11-1 12-3 13-3 14-2-3-7z" fill="#639BD2"/>
<path transform="translate(799,427)" d="m0 0h3l1 2v23l-3 3-4 2-5 10-6 5-4 1-6-4-6-2 1-2 10-4 4-4 3-9-1-10 5-5 7-3z" fill="#061434"/>
<path transform="translate(443,184)" d="m0 0 7 4 9 7v2l4 2 16 16 11 14 14 22 5 11 3 8v3l4 2 4 11 3 9v5l-3-3-7-19-7-13-8-13-14-20-4-6-15-18-8-7-9-7-4-5-2-1z" fill="#3784C9"/>
<path transform="translate(330,457)" d="m0 0 4 1 10 9 5 5 2 5h-2l5 6-1 5-5 1-10-1-3-2-1-5v-12l-3-3v-2l-4 1-3 1 3 1 1 7-3 1-1-1-7-1 1-4-1-1-4-2v-2l-3-1 8-4z" fill="#8AA6C7"/>
<path transform="translate(488,266)" d="m0 0h7l6 4 3 6v12l-3 8-5 4h-5l-4-5-4-8-1-10 5-10z" fill="#A1A2A2"/>
<path transform="translate(248,582)" d="m0 0 4 1-2 2-3-1-2 4 1 37 1 7-2 2-1 7h2l2 10 4 6v5l-6 6h-3l-2-8-1-15 2-5h-6l-8-11-2-5 5-3h4v-2l5-1v6l4-1-2-26-1-7-2-4 2-2z" fill="#A3ACB7"/>
<path transform="translate(330,500)" d="m0 0h15l14 3 14 7 9 9 6 10 5 10 3 9 1 15-1 4h-3l-4-21-5-11-6-10-4-5-11-8-15-5-17-2z" fill="#1E5798"/>
<path transform="translate(251,608)" d="m0 0h4l4 19 6 15 8 10 7 7 10 6 6 2 7 1h19l-2 6-4 1h-10l-16-4-16-9-9-9-9-15-5-16z" fill="#1F5797"/>
<path transform="translate(154,696)" d="m0 0 9 3 4 4 1 2v14l-1 9v13l-3 2-4-1-3-5-3-4-1-7v-29z" fill="#9FABB9"/>
<path transform="translate(337,214)" d="m0 0h6l6 8 2 5v8l-3 10-2 3-7-1-6-4-2-2-1-5v-9l4-10z" fill="#A7B2C1"/>
<path transform="translate(379,287)" d="m0 0h9l12 4 5 3 5 5 8 7v4h-9l-6-4-9-2-10-5-13-2-3-5 4-4z" fill="#8DA9C9"/>
<path transform="translate(137,309)" d="m0 0h4v3h2l-1 3-12 3-21 3-9 2-23 3h-10l-2-1v-3l15-2 6-1-3-4 35-4z" fill="#CBD7E3"/>
<path transform="translate(305,308)" d="m0 0 13 1 6 3 1 5h-2l-1 5-4 3h-8l-1-3-6 2h-11l-8-5v-5l5-3z" fill="#A3A4A4"/>
<path transform="translate(393,576)" d="m0 0h4l-1 14-6 21-8 16-7 11-11 12-13 11-8 5h-4v2l-5 2h-5l1-4 11-6 12-7 12-11 8-10 8-14 8-21z" fill="#212632"/>
<path transform="translate(387,545)" d="m0 0 2 2 3 9 1 13 4 1 1-5 5-2 1 5v6l4 1 6-1 2-4 8-8h2l1 2-1 10-3 5h-2v3l-2 1-1 3h-2v3l-4 3 1-6 2-6-13 1-3 5-1 3h-1v-13h-4l-1 10-2 5-1-3 1-9v-9l-3-16-1-1v-7z" fill="#E3EAEE"/>
<path transform="translate(74,351)" d="m0 0 7 2 5 5 2 5 8-2h7l9 5 1 2 7 4 3 4v5l-1 2-4-1-4-5-8-5h-16l-5 1v-2h-2l-3-9-3-2v15l-3-1z" fill="#D9E1E7"/>
<path transform="translate(299,277)" d="m0 0 1 3 19 1v2l3 1h-11v3h13l2 2-16 4-28 4h-9l-12-2v-1l-5-1v-1l15-2 3-1 13-1 10-5z" fill="#799EC8"/>
<path transform="translate(197,539)" d="m0 0h6l6 4 5 7-3 9-7 6-5 2h-7l-1-3 7-2-4-4h-5l-2-2 2-9 6-7z" fill="#D4D5D6"/>
<path transform="translate(75,330)" d="m0 0 6 1 27 12 29 13 11 5 5 2h3l-1 2 18-3 3-1h11l1 2 3 2-11 3-9 2h-9l-5-2h-9l-1 2-3-5-10-6-54-24-5-3z" fill="#6493C8"/>
<path transform="translate(566,448)" d="m0 0h3v10l-1 14-3 15-7 24-4 14-1 4h-2v2l-2-1 2-5 1-6-3 1-4-2v-4l5-3 3-18 3-4 1-8 5-1 1-7 2-4v-12l-1-5z" fill="#3683C9"/>
<path transform="translate(115,551)" d="m0 0 6 3v1h-5l2 10 5 11v14l-1 22 18 10 4 3v3l-5-2-10-7-13-7-2-3-1-55z" fill="#ABB0B8"/>
<path transform="translate(426,570)" d="m0 0h1l-1 7h-2l-1 5-9 12-2 6-1 9-3 3h-2l-2 32-6 12-1-3 5-10 1-22 2-10 4-3 1-5-13-1 1-9 1-3-2 1-2 3 1-16h1l1 8 3-5 7-2h7l1 2-3 9 3-1v-3h2l1-4h2v-3h2l1-4z" fill="#91ADCC"/>
<path transform="translate(267,712)" d="m0 0h6l6 4 2 8-1 6-3 5-7 1-7-1-5-4-1-2v-9l4-5z" fill="#DFE5E9"/>
<path transform="translate(147,650)" d="m0 0h1l1 6v75l-4 1-4-4v-3h2l-1-37v-20l2-14z" fill="#0D121C"/>
<path transform="translate(483,525)" d="m0 0h6l3 1 2 10 2 7v16h-7l-5-5-3-1-2-6v-14l3-7z" fill="#10151F"/>
<path transform="translate(266,447)" d="m0 0h6l5 3 3 5 1 8-7 8-6 2-4-1 2-3h-3v-2l-5-2-1-1v-9l4-5z" fill="#CECFD1"/>
<path transform="translate(363,562)" d="m0 0 3 4 1 6v20l-5 15-6 10-2 3h-2l2-4 5-11 3-7 2-9-1-5-5 4h-5l-3 3-2 4-1-2 2-7 1-16h2l1-2h4l2-5z" fill="#A1A1A1"/>
<path transform="translate(589,315)" d="m0 0h5l3 7v8l6 9v5h-2v16l-3 1-3-3-5-12-5-2v-6l5-5-3-14z" fill="#3784CA"/>
<path transform="translate(412,200)" d="m0 0h2l1 7-5 33h-2l-1 10 3-2-1 11-4 13-2 6-1 2-3-1v-14l4-21 4-19 2-16 2-8z" fill="#6291C7"/>
<path transform="translate(222,582)" d="m0 0h4l-1 4v7h7l5 4v14l-2 6-6 3h-4v2l-5-1-4-6 1-6 7-1 7 1v-2h2l-2-9-3-1v-2l-4 2h-5v2l-4 2h-3v-7l8-9z" fill="#B9BBC0"/>
<path transform="translate(359,687)" d="m0 0 9 1 4 6v9l-2 5-8 4h-6l-4-5-1-5v-7l6-7z" fill="#C2C4C9"/>
<path transform="translate(594,231)" d="m0 0 6 3 12-1 5 3 2 7-2 4h-7l-4 3h-14l-4-8 2-8z" fill="#3784CA"/>
<path transform="translate(288,685)" d="m0 0h1v9l4-1 3 2v2l9 3 6-1 4 3v2l6-3 6-4h2v2h6l1-4 2-4h3l-1 4-7 11-16 6h-6l-5-5-1-3-5-2-3-3-14-1-2-2 1-4 3-5z" fill="#E2E9EE"/>
<path transform="translate(384,475)" d="m0 0h7l8 7 4 5 6 2-1 3-3 1v17l2 8-4-2-1-6-1 19-4-1-2-5-4-2-2-3-1-7 3-6 9-6 1-2v-9h-2l-3-5h-4l-3-5v-2h-5z" fill="#80A2C8"/>
<path transform="translate(325,529)" d="m0 0h17v2l6 1 11 6 3 4v2h2l4 9v7l-3-4-6-10-8-6-4-2-7-1h-16l-10 3-4 2h-7l9-9z" fill="#131721"/>
<path transform="translate(143,635)" d="m0 0h4l-1 5-8 13-2 6v64l-5-1-1-2h2l-1-18v-51l4-8 3-3h2l2-4z" fill="#061535"/>
<path transform="translate(358,431)" d="m0 0h7l4 1 3 6 1 9-4 6-8 3-5-1-2-3 5-2v2l3-2-5-3-6-1v-10l5-4z" fill="#D3D4D7"/>
<path transform="translate(395,482)" d="m0 0 4 4v2h2l1 2v7l-5 5 1-6-8 2-6 6h-2l1 4 1 5-4-2-8-7-5-2v-2l-2-1 6-2 1-3 5-4 1-2h3v-2l3 1 1 6 8-1 2-3-2-5h2z" fill="#A7AEB8"/>
<path transform="translate(543,352)" d="m0 0h2l4 9 5 25 1 12v24l-4-1v-11h-2l-2-12-1-19-3-16z" fill="#6D9FD2"/>
<path transform="translate(224,580)" d="m0 0 4 1v5l-3 5 13-3 2-1 2 3 2 17v16l-4 1-2-4-3-1v2l-8 3 2 5 5 6 2 4 2 2-5-1-7-9-3-5 1-4 1-2 10-4 1-5v-14l-4-3h-8v-8l2-4-3-1z" fill="#A2ABB6"/>
<path transform="translate(723,194)" d="m0 0 16 1 17 4 8 6 1 3h2v2h-8l-23-4-10-4-4-7z" fill="#061434"/>
<path transform="translate(422,597)" d="m0 0 5 1 3 4 3 1 2 4-1 8-4 5-9 2-5-2-1-3v-12l4-7z" fill="#DFE5E8"/>
<path transform="translate(55,633)" d="m0 0 4 1 5 2 3 4v11l-1 4 1 4v8l-2 6-6-1v-2h-2l-1-3v-14-4l1-5-1-1z" fill="#A1AAB5"/>
<path transform="translate(252,663)" d="m0 0h4v4h-3l-2 4h-2v2h-2v2h-2l-3 9 9 1 2-2h8v3l-4 3 3 3v2h-2l-1 4h-8l-10-9-2-4v-8l2-5 6-2 1-3 5-3z" fill="#D9D9DB"/>
<path transform="translate(254,512)" d="m0 0 5 1 3 3-1 7-5 6-2 2-1 10 1 5-2 2-3-9-2-2-4 1-3 7-3 1-1-1v-7l2-6h6l3-13 5-6z" fill="#DAE2E9"/>
<path transform="translate(847,439)" d="m0 0h1v6l-9 6-12 2h-11v2l-8 5-6 7-7 5-7 8-6 5-4 5-7 4-2-1 1-2h3l2-4 11-11h2v-2l8-7 13-13h2l1-4h2l1-3 5 1 1 2 3 1 1-3 11-4 7-1 1 1 1-2h2z" fill="#759DC9"/>
<path transform="translate(348,472)" d="m0 0 8 1 6 1 2 2 12 2v1l-8 1v4l-8 1-3 5 4 1 4 4 5 1 2-1-2 4-7-1-12-3v-3l-10-1-5 2v-2l2-1-5-2v-8l3 3v3l2 1 15 1-1-7-3-2v-4z" fill="#83A2C7"/>
<path transform="translate(270,677)" d="m0 0h7l10 3 2 2 20 1 1 1-1 15h-8l-5-2-3-3h-4l-1-8-2 1 1-5-15-3v4l-6 2v-3l2-1z" fill="#98AFC9"/>
<path transform="translate(547,295)" d="m0 0 2 2 7 18 3 7 3 9 1 6 4 10v2l3 1-1 9 3 4 2 2-1 12h-2l1 11 2 1v18l1 5v21h-1l-1-20-1-5-2-20-4-26-5-19-3-9-5-19-6-17z" fill="#3784C9"/>
<path transform="translate(454,157)" d="m0 0 7 1 2 2h6l3-2-2 4-1 7 7 6 4 6 2 5-3 3-8-8-11-6-3-4v-2l-5-2v-2h7l2 1v-2l-10-2-2-2z" fill="#8FAAC9"/>
<path transform="translate(300,496)" d="m0 0h2v2l2 1-1 2h-3v2l5 2 3 1v2l-10 5-10 8-4 2-2 4-6 5-2-4v-3l5-9 6-4 5-3 4-5-2-1 5-5z" fill="#E1E8EE"/>
<path transform="translate(457,286)" d="m0 0 4 4 7 12 6 15-1 4-10 2-19-1-11-3-1-4-16-3v-1l8-1 1-1h6l1 5 11 3 6 2h7l3-4 5-2v-9l-6-14z" fill="#5B8CC5"/>
<path transform="translate(267,643)" d="m0 0 2 1v2h2v2l5 1 5 4 14 7 8 2h16l8-1-3 2-4 1h-21v2l14 1h10l-1 9-3 1-20-2-13-4-8-5 1-2 14 7 13 3h14l1-5h-18l-10-2-10-5-10-9-6-7z" fill="#99AEC4"/>
<path transform="translate(572,408)" d="m0 0h1l1 5v22l-3 30-4 31-4 14-3 8-3 7h-2v-8l5-16 5-17 2-12 2-31 1-18h1l1 10z" fill="#6496CB"/>
<path transform="translate(73,350)" d="m0 0 5 1-2 1-2-1v23h2l1-14 4 2 2 5v4l6 1 1-1h5l-5 5-4 5-4 8h-1v-9l-5 9-1 5-2 28h-1v-17l1-13v-12l-1-8v-19z" fill="#C6D0DB"/>
<path transform="translate(143,518)" d="m0 0 1 2 3-1 1 5-4 5v3l6-5 1 6-1 7 1 4-3 7-3 5h-2v-2l-3 1-1-7v-11l-2-12 5-5z" fill="#061434"/>
<path transform="translate(279,580)" d="m0 0 1 4-1 19h2l3 13 4 8 5 5 4 5v2l-6-1-11-11-6-16-1-18 3-8z" fill="#141822"/>
<path transform="translate(194,653)" d="m0 0h7l1 4-3 4 10 7 1 4-5 4-9 3h-4v-12h-2l-1-6 2-5z" fill="#8F9094"/>
<path transform="translate(419,495)" d="m0 0h6l3 7 1 4h2l-4-10h4l2 4 2 1v10l-5 5-2 1h-9l-2-3-1-5v-9z" fill="#ACB0B7"/>
<path transform="translate(148,368)" d="m0 0 6 1 1 2 12 3 4 3-1 88-7-1-13-5-1-4 11 5 9 4-1-17v-56l-1-6-1 14h-1l-1-18-6-3-5-1v23h-1v-30h-4z" fill="#A4B7CD"/>
<path transform="translate(56,590)" d="m0 0h1l1 32 13 6v42h-2l-1-16-4-2 2-1v-11l-3-4-8-3v-16z" fill="#A3B2C4"/>
<path transform="translate(492,202)" d="m0 0 7 6 11 14 10 15 5 8 3 8 2 4-1 5-4-5-9-16-8-12-12-16-7-8-1-2z" fill="#8FACCC"/>
<path transform="translate(153,377)" d="m0 0 8 1 4 3v24l-5-2-7-3z" fill="#205898"/>
<path transform="translate(667,222)" d="m0 0 2 2 1 6-2 11-8 4-1 3-5-1v-9l2-12 1-2z" fill="#3A85CA"/>
<path transform="translate(525,247)" d="m0 0 4 4 12 25 6 16 2 9 8 24v5l-2-1-11-33v-2h-2l-9-22-4-8v-7l-4-8z" fill="#5F97D0"/>
<path transform="translate(443,184)" d="m0 0 7 4 9 7v2l4 2 16 16 4 7 3 5-1 4-5-5-15-18-8-7-9-7-4-5-2-1z" fill="#598BC5"/>
<path transform="translate(157,746)" d="m0 0 7 6 2 1 1 22-3 2-8-6-3-7 2-16z" fill="#285B96"/>
<path transform="translate(321,502)" d="m0 0 1 4-3 3-16 7-13 10-8 8-1 2h-2l-1-3-2 1 2-4 6-7 14-11 14-7z" fill="#1F528D"/>
<path transform="translate(238,640)" d="m0 0h4l-1 6 1 14 1 2v6h2v2l-6 3-2 4-1-11-3-10-4-5 2-4v-6z" fill="#9FB3CB"/>
<path transform="translate(339,216)" d="m0 0 6 1 4 5 1 10-3 5h-3l-1-13h-3v16l-3 1-4-4-1-4v-7l2-5z" fill="#BCBEC3"/>
<path transform="translate(318,684)" d="m0 0h7l3 3v7h-2l-1 5-7 5h-3v-2l-5-2-5 1-2-2h6v-8l1 3h2l1-2-2-1h2v-3z" fill="#C7CBD3"/>
<path transform="translate(620,516)" d="m0 0 3 4-2 3-25 5-6 1h-8l1-5 11-3h5v-2l2-1 14-1z" fill="#225EA0"/>
<path transform="translate(75,316)" d="m0 0h10l2 2v2l-11 2h-11v3l9 1-1 2 2 2-2 1-4-2-1 2-2-1h-13v-8l1-2 13-3z" fill="#5082B9"/>
<path transform="translate(368,383)" d="m0 0 4 2 3 10 1 11-2 2-16 2-2-2 4-2v-7l-3-1v-1l14-2-3-7z" fill="#6097D0"/>
<path transform="translate(793,436)" d="m0 0 6 1 2 6-2 8-5 2-3 9-2 3h-7l1 3-1 1h6l-3 3-4 1-6-4-6-2 1-2 5-1h3l6-2 3-5h3l1-4h2l-1-6v-8z" fill="#0E121C"/>
<path transform="translate(349,668)" d="m0 0h3v6l-7 8-4 4-2 5-4 3-2-6-1-9 4-4z" fill="#9AB1CB"/>
<path transform="translate(353,511)" d="m0 0h7l9 4 7 6 7 10 5 10 2 5-1 4-2-4-1 5-2-3-4-11-6-9-8-8-7-4-6-4z" fill="#B7BFCA"/>
<path transform="translate(214,483)" d="m0 0 7 1 3 5-4 6-5 7-5 1-3-4-1-9 4-5z" fill="#DAE2E8"/>
<path transform="translate(405,522)" d="m0 0h3l3 11v2l4 1 7 8 3 2 1 9-2 3-1-3-6-2-2-7v-2h-2l-5-7v-3h-3v-2l-4-1 1-7h3z" fill="#C7CED7"/>
<path transform="translate(81,379)" d="m0 0 1 4-2 13-2 9-1 29-1 5-1-4h-2v-27l1-14 2-7z" fill="#D7E0E8"/>
<path transform="translate(53,331)" d="m0 0 9 1 1 4v17l-1 2-4-1-6-3v-18z" fill="#265B98"/>
<path transform="translate(130,628)" d="m0 0 5 1-2 7-6 9-2 5-2 15-1 23h-1l-1-6v-11l-1-15 2-14 6-11z" fill="#061535"/>
<path transform="translate(117,556)" d="m0 0h2v2l9 2 15 8 8 4v6l-6-1-13-7-5-2v-3l-6 1-4-6z" fill="#D8D8D9"/>
<path transform="translate(133,377)" d="m0 0h5l5 10v17l-1 3-4-1-1-4 1-3v-9l-4-6-2 4-1 6-2-1v-2l-4-1-2-5 1-2 6-2z" fill="#DDE5E9"/>
<path transform="translate(239,357)" d="m0 0h11v2l-11 3-1 1-13 1-22 4h-12l2-3 6-2 21-3 2-1 12-1z" fill="#AFC0D2"/>
<path transform="translate(305,311)" d="m0 0 5 1 1 2 3-3 6 1 3 2-2 9-3 2h-8l-1-3-6 2h-11l-2-2h9l5-2-1-6z" fill="#A2ABB5"/>
<path transform="translate(720,177)" d="m0 0 52 11 3 2-2 1h-11l-7-2h-11l-3-1v-2l-14-1-4-3 1-2h-5z" fill="#D4DEE7"/>
<path transform="translate(115,551)" d="m0 0 6 3-3 1-3-1 2 28 1 8v22l7 2 15 8 4 3v3l-5-2-10-7-13-7-2-3-1-55z" fill="#82A3C8"/>
<path transform="translate(336,471)" d="m0 0 4 2 12 7 2 5-1 3-5 1-10-1-3-2-1-9z" fill="#1D589B"/>
<path transform="translate(854,352)" d="m0 0h1l1 11 14-4 5-1-1 11-5 1v2l-5 1-2-1-1 2-5-1-2-9z" fill="#393D48"/>
<path transform="translate(56,677)" d="m0 0 3 3 6 3 1 2v18l-5 1-4-4-2-11v-8z" fill="#24558D"/>
<path transform="translate(369,640)" d="m0 0h3l-2 4-9 9-13 10-5 3h-4v2l-5 2h-5l1-4 11-6 12-7 12-11z" fill="#18345D"/>
<path transform="translate(387,637)" d="m0 0h7l1 3v7l-5 5-4 3-7 2v-11h2l1-5z" fill="#B8BDC5"/>
<path transform="translate(283,422)" d="m0 0h3v6l-14 5-10 6v2l-4-1v-3h-5l1-5 17-6 9-2z" fill="#061535"/>
<path transform="translate(309,464)" d="m0 0h4v2l7 1-4 7v6l5 2-4 3-3 3h-2l1 3-5 3-3-1 4-2-1-13h-2l2-7h-2v2l-2-1z" fill="#BABCC2"/>
<path transform="translate(213,687)" d="m0 0 4 1 6 7v5l-5 5h-8l-2-2-1-9z" fill="#D5DDE4"/>
<path transform="translate(482,277)" d="m0 0h1l1 5 3 1 2-5 6-1 4 4v7l-4 5-5-2-2-1 2 6 5 2 2 1-1 1h-5l-4-5-4-8z" fill="#8A8B8F"/>
<path transform="translate(327,556)" d="m0 0h8l8 3 4 4 3 8v15l-4 11-5 9-8 8-6 3-4 1h-10l-8-5-3-2-1-6 9 9 3 1h11l9-5 7-7 6-13 2-7v-8l-3-9-4-5-7-3-7-1z" fill="#4B4E56"/>
<path transform="translate(342,537)" d="m0 0 6 2 6 4v3l-7-3-19 1-9 3-8 4-10 8v-3l5-5h2v-2l13-8 7-2 14-1z" fill="#9FA4AB"/>
<path transform="translate(396,165)" d="m0 0 16 1 19 4 6 2 14 2 8 4 8 5-3 1-7-3-10-1-2-2-8-2-13-4-16-4-10-1z" fill="#6292C8"/>
<path transform="translate(143,686)" d="m0 0h1l1 15 1 2 1-17h1l1 45-4 1-4-4v-3h2l-1-37z" fill="#071533"/>
<path transform="translate(360,484)" d="m0 0h12l6 1 1 3-5 6-4 3-5-1-4-3v-2l-5-1z" fill="#1D589B"/>
<path transform="translate(234,607)" d="m0 0 2 1-2 9-5 3h-4v2l-5-1-4-6 1-6 7-1h8z" fill="#CACED5"/>
<path transform="translate(155,719)" d="m0 0 6 2 4 5 1 3v9l-2 5-4-1-3-5-2-3z" fill="#21242E"/>
<path transform="translate(163,691)" d="m0 0 7 2 2 2v87l-2-4-1-81-6-4z" fill="#789DC8"/>
<path transform="translate(789,327)" d="m0 0h7l1 4v12l-2 2h-6l-3-3-1-12z" fill="#87A7CA"/>
<path transform="translate(106,327)" d="m0 0 9 3 20 9 16 7 20 9 3 2-3 3h-5l4-1v-2l-6-1-21-10-24-11-14-6z" fill="#83A5CA"/>
<path transform="translate(854,379)" d="m0 0h1l1 7 3 1v2l8-1-5 11-7 8-3-3 1-16z" fill="#5B5D67"/>
<path transform="translate(797,306)" d="m0 0 1 2-1 5h8v17l-1 19-2 1-2-5-1-12v-11l-3-8v-7z" fill="#061535"/>
<path transform="translate(138,494)" d="m0 0 5 2 2 6v14l-4 6h-4l-3-8-1-3 1-2 2 2 4 1-3-12v-5z" fill="#DCE4EB"/>
<path transform="translate(75,330)" d="m0 0 6 1 27 12 23 10v3l-8-2-29-13-14-6-5-3z" fill="#6B9DD0"/>
<path transform="translate(235,620)" d="m0 0 3 2 4 17-6 1-8-11-2-5 5-3z" fill="#1F5898"/>
<path transform="translate(155,410)" d="m0 0 7 1 2 4v18l-6-2-3-5z" fill="#111929"/>
<path transform="translate(176,441)" d="m0 0h10l-2 11-4 5-2 5-7 3v-11l3 1 3-1v-5h-2v-5h2z" fill="#3683C9"/>
<path transform="translate(299,277)" d="m0 0 1 3 19 1v2l3 1h-11v3l11 1-4 2h-15l-4-4-4 2h-6l3-2 5-3z" fill="#A9B7C7"/>
<path transform="translate(307,477)" d="m0 0 2 1 1 13-15 9h-2v-7l4-2 2-4 4-5z" fill="#1F599B"/>
<path transform="translate(385,449)" d="m0 0h6l4 5-2 12-4 1-9-8 1-6h2z" fill="#9CB3CD"/>
<path transform="translate(241,644)" d="m0 0 4 1 7 12v5l-6 6h-3l-2-8-1-15z" fill="#225895"/>
<path transform="translate(284,501)" d="m0 0h4l-2 5-11 9-4 1-4-5-3-3v-2l11-3 8-1z" fill="#225EA0"/>
<path transform="translate(67,389)" d="m0 0h1v26h-3l-4-4-5-2-1 9h-1v-15l1-2 9 1 1-6h2z" fill="#D6E0E8"/>
<path transform="translate(716,176)" d="m0 0 4 2h-2l1 5 8 4 11 2 12 3 11 3v2h5v1l-11-1-19-4-15-3-4-4z" fill="#97ABC3"/>
<path transform="translate(397,504)" d="m0 0h2l1 2v23l-4-2-6-10v-6l5-5z" fill="#1D589B"/>
<path transform="translate(287,574)" d="m0 0h4l-3 11-2 4-1 7v15l2 3v3l-4-1-3-13v-17l1-5h1v5h2z" fill="#A4A8AD"/>
<path transform="translate(497,127)" d="m0 0h16l16 5 21 5 4 1v2l23 1v1l-14 1-15-3-15-4-2-1-12-2-12-3-10-2z" fill="#82A2C8"/>
<path transform="translate(758,240)" d="m0 0 4 2 1 2v6l-5 5h-8v-2h-2v-5l4-6z" fill="#5C8DC5"/>
<path transform="translate(198,650)" d="m0 0 9 1 5 7v8h-2l-1 3-5-4-5-3v-3h2v-5l-7-1 1-2z" fill="#54565F"/>
<path transform="translate(140,425)" d="m0 0 1 3h2l2 12v28l-2 6h-1v-10l-1-1-1-25-1-3v-9z" fill="#EDEFF2"/>
<path transform="translate(224,356)" d="m0 0h11l1 2-8 2h-7l-7 2-19 2 1-5 8-2z" fill="#749AC7"/>
<path transform="translate(407,238)" d="m0 0h1l-1 12 3-2-1 11-5 16-3 2-1-7 5-28z" fill="#6CA0D5"/>
<path transform="translate(288,685)" d="m0 0h1v9l4-1 3 2v2l9 3 6-1 4 4-3 1h-3l-2 4-2-4-5-2-3-3-14-1-2-2 1-4 3-5z" fill="#C6CBD4"/>
<path transform="translate(344,537)" d="m0 0 5 1 9 6 6 8 3 6-1-8-2-6 3 2 4 12v23h-2l-1-9-2-7-4-11-8-10-8-5z" fill="#3B3E49"/>
<path transform="translate(365,432)" d="m0 0h4l3 6 1 9-4 6-8 3-5-1-2-3 5-2v2l3-2-5-3-6-1 1-2h6l7 6v2l4-2 2-9-7 1-2-3 1-4h3z" fill="#949CA6"/>
<path transform="translate(86,318)" d="m0 0 4 1 1 2h6l1-1 15-2h11v1l-15 2-9 2-23 3h-10l-2-1v-3l15-2 6-1z" fill="#8DAACB"/>
<path transform="translate(397,608)" d="m0 0h3v9l-2 15-6-2-2-2v-8l6-11z" fill="#205A9D"/>
<path transform="translate(299,553)" d="m0 0 2 1-3 7h-2v2h-2l-3 11h-4l-3 12h-2v-9l5-12 4-6z" fill="#C3C6CC"/>
<path transform="translate(56,361)" d="m0 0 5 2 2 5v14l-7-1-3-10 2-9z" fill="#0B1325"/>
<path transform="translate(118,311)" d="m0 0h10l2 1v2l-25 4h-13l-2-1v-2l9-2z" fill="#9EB6D0"/>
<path transform="translate(348,472)" d="m0 0 8 1 6 1 2 2 12 2v1l-8 1v4h-8l-1-2-4 1-1 2-2-4-3-2v-4z" fill="#7EA0C8"/>
<path transform="translate(368,572)" d="m0 0h1v13l-3 16-4 9-3 6-12 13-10 6-11 4-5 1-13-1v-1h12l13-4 12-7 7-7h2l2-5 5-8 5-15z" fill="#585A63"/>
<path transform="translate(332,469)" d="m0 0h1l-1 17-12 3h-6l-1 2-1-3h2l1-3 8-5 8-8z" fill="#DFE5E9"/>
<path transform="translate(300,496)" d="m0 0h2v2l2 1-1 2h-3v2l5 2 3 1v2l-12 6-5-3v-3l3-4-2-1 5-5z" fill="#E0E7ED"/>
<path transform="translate(172,357)" d="m0 0h24l-2 5-5 1v-3l-11 1-9 3-6 1h-8l1-3 6-2 9-1z" fill="#B2C3D5"/>
<path transform="translate(56,590)" d="m0 0h1l1 32 7 4-3 1-2-1 6 8 2-5h1v11l-3-3-7-2-4-2v-16z" fill="#B7BAC1"/>
<path transform="translate(566,485)" d="m0 0h1v11l-4 14-3 8-3 7h-2v-8l5-16 4-14h2z" fill="#689AD0"/>
<path transform="translate(567,384)" d="m0 0 2 2 1 8h2l1 25v14l-2 2-1-12-1-3-1-16-2-12v-7z" fill="#9CB4CD"/>
<path transform="translate(394,164)" d="m0 0h20l5 2 14 1 13 3 12 6-3 1-9-3-9-1-9-3-17-3-17-2z" fill="#90ABCA"/>
<path transform="translate(847,439)" d="m0 0h1v6l-8 5-26 3h-3l1-3h2l1-3 5 1 1 2 3 1 1-3 11-4 7-1 1 1 1-2h2z" fill="#3E87CA"/>
<path transform="translate(56,653)" d="m0 0 6 2 3 3v15l-6-1v-2h-2l-1-3z" fill="#242832"/>
<path transform="translate(197,539)" d="m0 0h6l6 4 5 7-3 9-3 2-1-3h2v-3h-2l-1-2-4-1-1-5-2-1 1-2h2v-3l-5-1z" fill="#8D96A1"/>
<path transform="translate(401,534)" d="m0 0 5 1 8 11-1 4-4 2-5-1-3-10-1-6z" fill="#1D589B"/>
<path transform="translate(194,653)" d="m0 0h7l1 4-3 4 7 5 1 3h-10l-3-4-3-1 1-9z" fill="#D3D4D6"/>
<path transform="translate(239,587)" d="m0 0 3 3 2 17v16l-4 1-2-11 1-2v-18l1-1-5-1v-2z" fill="#88898D"/>
<path transform="translate(408,581)" d="m0 0h4l-1 7-2 3-2 6-6 5-2-1 1-8 1-6 2-4h5z" fill="#5E8FC6"/>
<path transform="translate(311,491)" d="m0 0 3 1v5l-3 1 1 2h2l1 2v3l-7 2h-3l-3-3-2-1v-2h3l-2-6 9-3z" fill="#C4CDD8"/>
<path transform="translate(766,469)" d="m0 0 5 3 6 2-1 8-7 5-3-1-1-2v-13z" fill="#09152F"/>
<path transform="translate(287,288)" d="m0 0 2 1-1 1 6 2-1 2h-20v2l-12-1v-1l-5-1v-1l15-2 3-1z" fill="#9DB0C6"/>
<path transform="translate(55,634)" d="m0 0h1l1 9v3l-1 3 2 1v3h-2l1 17 2 1v4h5l3 5v18h-1l-1-13-3-3-5-3-2 2-1-44z" fill="#9AAFC8"/>
<path transform="translate(122,555)" d="m0 0 14 7 16 9 1 1-2 58-3 2-4-4 5 1 1-28v-29l-7-3-19-10v-2h-2z" fill="#7FA1C8"/>
<path transform="translate(197,499)" d="m0 0 4 1h3 2v2h4v2l5-1-2 6-2 1-4-1-1 2-3-2v-2l-9 2-1-3z" fill="#061535"/>
<path transform="translate(563,363)" d="m0 0h2l2 7v4h2l2 14v6h-1l-3-9v9l2 10 1 19-2-2-4-36v-13z" fill="#6B9ED3"/>
<path transform="translate(356,689)" d="m0 0h7l1 3v11l-1 1h-5l-1-3-5-1v-7z" fill="#EAEFF2"/>
<path transform="translate(502,273)" d="m0 0 2 3v12l-3 8-2 2-6 1-5-5-1-4h3l5 2 3-4 1-6 2 1z" fill="#9EA1A5"/>
<path transform="translate(292,685)" d="m0 0h16v11l-1 3-4-2-1-3-10-4z" fill="#1D589A"/>
<path transform="translate(176,361)" d="m0 0h11l1 2 3 2-11 3-14 1-4-1 2-1v-2z" fill="#1D589B"/>
<path transform="translate(271,678)" d="m0 0 16 4-2 4-2 2-17 1 1-5 5-1z" fill="#1D589B"/>
<path transform="translate(772,220)" d="m0 0 4 3 6 13-1 5-3 1-6-3-1-5z" fill="#0E121C"/>
<path transform="translate(369,654)" d="m0 0 5 1 3 5-3 3-12 5h-5l2-5 6-5z" fill="#1D589C"/>
<path transform="translate(330,486)" d="m0 0h3v2l7 1-4 2v2l6-3 9 2v3h-5-4-8l-11-3-5-1v-2z" fill="#AAAFB6"/>
<path transform="translate(150,445)" d="m0 0 3 1v2l4 2 9 7 1 5-3 1-5-3-7-3-2-3z" fill="#DFE7ED"/>
<path transform="translate(251,608)" d="m0 0h4l1 3 1 15 4 13-2 2-2-6h-2l-4-13z" fill="#21314A"/>
<path transform="translate(193,355)" d="m0 0 8 1 3 2-8 1 1 6-5 2 6 1v1l-12 2h-10l-1-2 8-2 6-2-2-4h-9v-1h11l1 2h4l1-4-11-1v-1z" fill="#8AA7C9"/>
<path transform="translate(543,352)" d="m0 0h2l4 9 2 8-1 15-4-5-3-16z" fill="#70A0D2"/>
<path transform="translate(261,715)" d="m0 0 2 1-3 3v5l6 2 5 7h5v-3h3l-2 5-7 1-7-1-5-4-1-2v-9z" fill="#9FA0A0"/>
<path transform="translate(319,494)" d="m0 0h7l1 4h-3l1 2 4-2v2h-2l1 3-3 3 3 1-3 2v-2h-3l-1-4-5 1-3-2 1-2-3 1v-3l3-3z" fill="#B2C0D0"/>
<path transform="translate(52,327)" d="m0 0 1 3 13-1 2 4 1 58-2-2-1-41-1 6h-1l1-15 1-4-4 1v-4l-9-1-1 2z" fill="#A7BBD1"/>
<path transform="translate(52,387)" d="m0 0 5 1 6 3 1 11h-7l-3-3-2-4z" fill="#476D9B"/>
<path transform="translate(339,216)" d="m0 0 6 1 4 5 1 10-3 5h-3l-1-11-5-5z" fill="#D0D3D7"/>
<path transform="translate(644,132)" d="m0 0h8l2 2-16 1-51 6h-9l3-2 23-3 21-2v-1z" fill="#8AA9CB"/>
<path transform="translate(331,681)" d="m0 0h2l2 12 3-1-2 4-1 3h-6v-2l-4 1 1-4h2l-1-7-2-2-5-1v-1z" fill="#C9CDD4"/>
<path transform="translate(313,461)" d="m0 0h9l5 4-3 1 3 1 1 7-3 1-1-1-7-1 1-4-1-1-4-2v-2l-3-1z" fill="#A6ADB6"/>
<path transform="translate(154,438)" d="m0 0 9 3 2 2v10h-5l-6-5-1-9z" fill="#2E5687"/>
<path transform="translate(466,165)" d="m0 0h2l2 5 6 5 4 6 2 5-3 3-12-12v-5-2l-2-4z" fill="#5B8CC5"/>
<path transform="translate(155,698)" d="m0 0 5 2 6 4v11l-5-2-6-4z" fill="#191D29"/>
<path transform="translate(73,350)" d="m0 0 5 1-2 1-2-1 1 29 3-1v7l-2 3-1 5-2 28h-1v-17l1-13v-12l-1-8v-19z" fill="#93ADCC"/>
<path transform="translate(211,596)" d="m0 0 1 4v12l9 12-3 4-2 1-6-5-1-3v-18z" fill="#87A5C8"/>
<path transform="translate(800,406)" d="m0 0h2l1 2v16l-1 2h-2l-5-6-1-3 2-8z" fill="#061535"/>
<path transform="translate(147,650)" d="m0 0h1l1 6v26h-1l-1-15h-2l-1 18-2-2v-15l2-14z" fill="#061432"/>
<path transform="translate(247,584)" d="m0 0h3v17l1 5-4 7-2-3-1-22z" fill="#BDC0C5"/>
<path transform="translate(247,630)" d="m0 0 3 1v12l3 13 1 5-5 6-2-1 4-4-1-7-4-7v-7h-2v-7z" fill="#B1B8C2"/>
<path transform="translate(428,481)" d="m0 0 4 1 2 5 3 3v9h-2l-2-4-6-3v-2l-4-1 1-4z" fill="#061433"/>
<path transform="translate(256,683)" d="m0 0h5v3l-4 3 3 3v2h-2l-1 4h-8l-2-2 1-5 4-1 1-5z" fill="#E3EAEF"/>
<path transform="translate(381,383)" d="m0 0 4 2 2 3 1 5v15l-4 1-3-20z" fill="#679DD3"/>
<path transform="translate(492,527)" d="m0 0 4 2 5 12-1 9-3 6h-1l-1-13-3-9z" fill="#4A4C55"/>
<path transform="translate(710,288)" d="m0 0 4 1 2 2v8l-3 5-5-1-1-1v-12z" fill="#679AD0"/>
<path transform="translate(245,610)" d="m0 0 3 2v2h2l3 12v11l-2-2v-4l-5-1-1-5z" fill="#ADBBCB"/>
<path transform="translate(107,366)" d="m0 0 9 3 7 7v5l-1 2-4-1-4-5-6-4z" fill="#E8EDF2"/>
<path transform="translate(554,520)" d="m0 0h1l1 8-4 12-6 11-2 1v-8l4-11 3-4h2z" fill="#5089C6"/>
<path transform="translate(236,666)" d="m0 0h1l1 19 4 6 7 6h8l18-4 2 1-21 7h-7l-5-4-8-10-1-7z" fill="#97AFCB"/>
<path transform="translate(257,614)" d="m0 0 2 2 6 17 3 6v2h2l4 7h-3v-2h-2l-1-2-2 1-6-12-3-9z" fill="#98AABF"/>
<path transform="translate(379,287)" d="m0 0h9v1l-12 2-2 1 5 3 11 3v3l2 2-5-1-3-2-13-2-3-5 4-4z" fill="#5B8CC5"/>
<path transform="translate(349,671)" d="m0 0h3l-1 5-15 15 1-11 4-4 7-4z" fill="#1D589B"/>
<path transform="translate(169,395)" d="m0 0h1v70l-7-1-13-5-1-4 11 5 9 4-1-17v-43z" fill="#AABBCE"/>
<path transform="translate(152,690)" d="m0 0 7 3-2 4h-3v36h-3v-20z" fill="#CACED5"/>
<path transform="translate(392,496)" d="m0 0h6l-1 6-6 4-3 3h-5l-2-3 5-5z" fill="#CCCFD5"/>
<path transform="translate(147,370)" d="m0 0h1l2 40v9l-1 4-1 13h-1l-1-27z" fill="#9BB2CC"/>
<path transform="translate(634,378)" d="m0 0h5l4 4-3 9-5 1-2-4-1-8z" fill="#6B9FD3"/>
<path transform="translate(75,316)" d="m0 0h10l2 2v2l-11 2h-11v2h-7l-3-2 1-1h7l6-4z" fill="#225C9D"/>
<path transform="translate(561,194)" d="m0 0 4 1 3 3h2l1 9-4 1-3 3-3-3z" fill="#3784CA"/>
<path transform="translate(151,684)" d="m0 0 12 6v1h-10l-2 42h-1v-48z" fill="#A4B4C6"/>
<path transform="translate(393,576)" d="m0 0h4l-1 14-3 11-2-1-3 7-2 1 3-11z" fill="#1D212B"/>
<path transform="translate(392,336)" d="m0 0 2 1v5l-8 5h-8l1-5 2-4z" fill="#3784C9"/>
<path transform="translate(392,601)" d="m0 0h1v5l5 1-7 13-1 8-3-1-1-5-1-2 6-15z" fill="#D5DEE4"/>
<path transform="translate(103,496)" d="m0 0 4 2 10 4 5 1v5h-8l-7-2-4-6-2-1v-2z" fill="#F8F9FB"/>
<path transform="translate(733,199)" d="m0 0h10l9 3v2l2 1 1 2h-8l-10-2-4-2z" fill="#0E121C"/>
<path transform="translate(340,654)" d="m0 0 2 1-8 5h-3v2l-9 4-1 1-10 1-12-2v-2l21-1 7-1v-2z" fill="#BEC3CA"/>
<path transform="translate(293,516)" d="m0 0 3 1-3 5-7 8-5 6h-2l-1-3-2 1 2-4 6-7z" fill="#0D1F3F"/>
<path transform="translate(131,570)" d="m0 0 4 1 12 6 4 1v23h-1v-18l-5-2-14-7z" fill="#B6BAC0"/>
<path transform="translate(419,495)" d="m0 0h6l3 7 2 4v5h-2l-5-7-3-1-1 4h-2v-9z" fill="#E6E8EA"/>
<path transform="translate(214,361)" d="m0 0h2v3l7-1-2 2-18 3h-12l2-3 6-2z" fill="#A1B5CC"/>
<path transform="translate(276,666)" d="m0 0 5 1 7 4 17 4 14 1-1 2-23-1-11-3-6-3z" fill="#B2B9C3"/>
<path transform="translate(143,518)" d="m0 0 1 2 3-1 1 5-4 5 1 4-3 2-2 3-2-6-1-7 5-5z" fill="#091736"/>
<path transform="translate(427,496)" d="m0 0h4l2 4 2 1v10l-3 4h-4v-3l-5-2v-6l5 5v2h2v-7z" fill="#CBCED2"/>
<path transform="translate(77,421)" d="m0 0h1l3 21v8h2l1 6-4-1-2-4v-3h2l-1-7h-2l1 6-1 5h-1l-2-11v-6l2-1z" fill="#B8C1CB"/>
<path transform="translate(551,262)" d="m0 0 4 2 2 4h5l1 1v7l-2 4-3 1-4-8-3-8z" fill="#8DA9CA"/>
<path transform="translate(386,553)" d="m0 0 2 1 3 16v9l-1 11 1 3-2 7-2-4h-2l1-7 1-4 1-21z" fill="#AFB7C1"/>
<path transform="translate(254,512)" d="m0 0 5 1 3 3-1 7-4-1-2-1v-2l-3 1-3 3-1-1-2 1 2-6z" fill="#1C202A"/>
<path transform="translate(253,668)" d="m0 0 4 1 4 6-1 5-9-1-2-3v-5z" fill="#98A3B2"/>
<path transform="translate(284,533)" d="m0 0 1 2-7 9-9 16-3 3-1-5 9-15 7-8z" fill="#C0C9D2"/>
<path transform="translate(266,447)" d="m0 0h6l5 3 3 5 1 8-4 4v-9l-3 7h-1l-1-9-3-1 1-3 4-1-3-2-5-1z" fill="#A1AAB6"/>
<path transform="translate(411,537)" d="m0 0 5 5 9 6 1 7-2 3-1-3-6-2-2-7v-2h-2l-2-3z" fill="#CED6DE"/>
<path transform="translate(278,664)" d="m0 0 15 7 13 3h14l1-5h-18v-1l10-1h10l-1 9-3 1-20-2-13-4-8-5z" fill="#83A3C9"/>
<path transform="translate(415,605)" d="m0 0h1v7l9 2 2 4 4 1-9 3-6-2-1-3z" fill="#919296"/>
<path transform="translate(302,576)" d="m0 0 1 2-5 7-2 12 3 1 2 4-1 3-3-5h-2l-2-4v-12l2-5h3v-2z" fill="#54565F"/>
<path transform="translate(257,455)" d="m0 0h1v8h6v-2h2l4 4 4 2-2 3 2 1-6 2-4-1 2-3h-3v-2l-5-2-1-1z" fill="#999A9C"/>
<path transform="translate(791,352)" d="m0 0h4l1 5-5 13-3-2-1-11 2-4z" fill="#5D90C9"/>
<path transform="translate(177,688)" d="m0 0 6 1 2 3v8l-4 1-5-2v-7z" fill="#3784CA"/>
<path transform="translate(55,633)" d="m0 0 4 1 5 2 2 2v7l-2 1-8-3z" fill="#323742"/>
<path transform="translate(361,440)" d="m0 0 3 2 7-1v7l-3 4h-3l-5-5-1-5z" fill="#D7D7D9"/>
<path transform="translate(137,309)" d="m0 0h4v3h2l-1 3-12 3h-5l4-2-4-2h5v-2l-5-1 4-1z" fill="#C7D3E0"/>
<path transform="translate(356,430)" d="m0 0h10l3 2h-11l-6 4-1 10h6l6 4-1 2h-3v-2l-4 3 1 2-3-1-4-10 1-9z" fill="#54565E"/>
<path transform="translate(305,311)" d="m0 0 5 1 3 4v3l-4 1v2l-6 2h-11l-2-2h9l5-2-1-6z" fill="#8A8B8F"/>
<path transform="translate(116,555)" d="m0 0h6v2h2v2l-5-1v-2h-2l3 8 3 1h4v3l5 1-1 4-3-1v-3l-3 1-2-1-1 5-3-4-3-7z" fill="#C6CBD2"/>
<path transform="translate(269,456)" d="m0 0h4l1 7 2-6 2 1v7l-3 5h-3l1-3-6-3-1-7z" fill="#E1E6EA"/>
<path transform="translate(519,237)" d="m0 0 4 4 5 12 2 4-1 5-4-5-8-14v-2h2z" fill="#5792CD"/>
<path transform="translate(653,298)" d="m0 0h3v2h2v11l-2 2-5-1v-11z" fill="#548CC7"/>
<path transform="translate(492,202)" d="m0 0 7 6 5 6-1 2-2-1 6 9-1 2-10-13-7-8-1-2z" fill="#88A8CC"/>
<path transform="translate(252,519)" d="m0 0h3v2l5 2-4 2-4 6-5-1-1-7 2-3 2 1z" fill="#9DA3AB"/>
<path transform="translate(294,311)" d="m0 0h3v9l-7 1v-2l-5-2v-4z" fill="#C6C9D0"/>
<path transform="translate(267,712)" d="m0 0h6l6 4 2 8-1 6h-1l-2-11-2-1 1 7-2 2-2-6-4 1 1-4 3-1v-4h-5z" fill="#999EA5"/>
<path transform="translate(395,482)" d="m0 0 4 4v2h2l1 2v7l-3-1h-12l-1-3 7-1 2-3-2-5h2z" fill="#A9AEB4"/>
<path transform="translate(154,696)" d="m0 0 9 3 4 4 1 2v14l-3 2-7-8 1-2 7 4-1-11-10-6v6h-1z" fill="#8CA2BC"/>
<path transform="translate(146,457)" d="m0 0h3v30l-2-1-1-10-1-2v-12z" fill="#071534"/>
<path transform="translate(790,328)" d="m0 0h5v13l-5 1-2-3v-9z" fill="#DBE3EA"/>
<path transform="translate(401,509)" d="m0 0 2 1 1 6 4 2 3 5 2 12h-2l-3-13h-3v2h-3v6h-1z" fill="#A6B8CD"/>
<path transform="translate(341,692)" d="m0 0 2 1-7 13-3 3h-2l-1 2-15 4-2-1 15-7 5-1 2-5z" fill="#5B95CC"/>
<path transform="translate(250,585)" d="m0 0h1v15h4l1-5h1v7l-2 6h-4v9l-1-3h-2l-1-3 3-5-1-5v-10z" fill="#A8B5C4"/>
<path transform="translate(237,457)" d="m0 0 4 1-2 10-3 2-1-7-6 3-1-5 2-3z" fill="#061535"/>
<path transform="translate(53,371)" d="m0 0 2 4 1 6 7 1v4h-2l1 4h2v8h-1v-7l-4-1-6-3z" fill="#BFCBD8"/>
<path transform="translate(359,687)" d="m0 0 9 1 4 6v9h-1l-2-10-2 10-3-1-1-12-6-1z" fill="#909194"/>
<path transform="translate(53,352)" d="m0 0 5 1 4 2 1-2 1 7-2 4-6-2-3 8-1-4 2-5v-6z" fill="#CAD6E0"/>
<path transform="translate(423,492)" d="m0 0 8 1 4 4 1 2v12h-1v-10l-4-2v-3l-3 1 3 9h-2l-4-7v-4h-5z" fill="#5F646D"/>
<path transform="translate(84,457)" d="m0 0 2 2 4 10 5 9-1 2-2-1v-2h-2v2 7h-2l-2-17-3-6z" fill="#BAC6D2"/>
<path transform="translate(238,640)" d="m0 0h4l-1 5-2 2-1 4h-5l-2-4v-6z" fill="#B7BEC7"/>
<path transform="translate(391,546)" d="m0 0h2l3 7 1 3v7l-1 4h-3l-2-11z" fill="#0E182D"/>
<path transform="translate(297,457)" d="m0 0h3l-2 5-9 11-8 7-3-1 1-2h2l2-4h3l2-4 4-6h2l1-4h2z" fill="#3784CA"/>
<path transform="translate(604,474)" d="m0 0h7l1 1v5l-4 3h-5l-2-2v-5z" fill="#5E8EC6"/>
<path transform="translate(405,235)" d="m0 0 2 2-6 33v5h3l-2 5-3-1v-14l4-21z" fill="#6090C7"/>
<path transform="translate(302,516)" d="m0 0h3v3l-9 6-10 9-5 1 6-7 10-9z" fill="#A8B4C2"/>
<path transform="translate(359,499)" d="m0 0 13 4 8 7 1 6-7-6-7-4-9-4z" fill="#CACED5"/>
<path transform="translate(275,718)" d="m0 0 3 1 1 4v7l-2 1-1 3h-5l-3-4h3l1-7 2 3 1-2z" fill="#C2C4C9"/>
<path transform="translate(258,681)" d="m0 0 4 1 2 10 6 1-2 2-11 2 1-3h2l-4-5 3-3h2v-3h-5z" fill="#D1D9E0"/>
<path transform="translate(320,684)" d="m0 0h5l3 3v7l-5-1-6-3 1-4z" fill="#8B8D92"/>
<path transform="translate(225,620)" d="m0 0h10l-8 4 2 5 5 6 2 4 2 2-5-1-7-9-3-5 1-4z" fill="#7DA0C8"/>
<path transform="translate(633,493)" d="m0 0 5 1v7l-2 2h-5l-3-4 1-4z" fill="#6293C9"/>
<path transform="translate(384,485)" d="m0 0h8l4 4-3 4-5 1-3-1z" fill="#8A8B8F"/>
<path transform="translate(330,504)" d="m0 0 18 2 15 5 3 3-6-2h-6l-2 1-3-2 1-1-8-2-12-2z" fill="#93A7BF"/>
<path transform="translate(393,453)" d="m0 0 2 1-2 12-4 1-8-7 4-2 6-2h2z" fill="#8CA9C9"/>
<path transform="translate(603,313)" d="m0 0 6 1 4 2-1 5-8 1-2-1v-6z" fill="#809FC4"/>
<path transform="translate(70,679)" d="m0 0h1v32l-6-4-3-3 5-1v-5h2z" fill="#9FB4CB"/>
<path transform="translate(350,676)" d="m0 0v3l-2 4h5l-5 4-4 5-5-1 2-6z" fill="#B2C5D8"/>
<path transform="translate(196,652)" d="m0 0h8l5 5 1 6-4-1v-2l-3 1-2-1 1 2 4 2-1 2-6-4v-3h2v-5l-5-1z" fill="#9C9D9F"/>
<path transform="translate(287,574)" d="m0 0h4l-3 11-3 6-2 1-1 7h-1v-18h1v5h2z" fill="#B1B4B8"/>
<path transform="translate(123,517)" d="m0 0 5 5 1 2v6h-4v-2h-2l-2-5h-2l1-4z" fill="#061535"/>
<path transform="translate(550,410)" d="m0 0h1l1 11h4l1 3v8l-2 4h-2l-1-2-1-10-2-7z" fill="#3984C9"/>
<path transform="translate(206,353)" d="m0 0h13l4 2v2h-22l-3-2z" fill="#A5B6CA"/>
<path transform="translate(305,308)" d="m0 0 13 1 6 3 1 5h-2l-1 5h-1v-6l1-2-4-2h-5l-2 3-1-3-12-2v-1z" fill="#8299B6"/>
<path transform="translate(262,713)" d="m0 0 3 1-6 4-1 2v9l4 7-8 2v-3l2-2-2-4 1-9 3-5z" fill="#343947"/>
<path transform="translate(366,587)" d="m0 0h1l-1 9-5 13-7 11h-2l2-4 5-11 3-7 2-7z" fill="#979899"/>
<path transform="translate(275,479)" d="m0 0 2 1-2 4-5 4-11 5-3-1 3-3h2v-2l7-4z" fill="#3784CA"/>
<path transform="translate(81,321)" d="m0 0h6v3l-10 2h-10l-2-1v-3z" fill="#A1B5CC"/>
<path transform="translate(337,214)" d="m0 0h6v3l-5 1-4 4-1 4v13l4 4v2l-4-2-2-2-1-5v-9l4-10z" fill="#89A4C3"/>
<path transform="translate(422,597)" d="m0 0 5 1 3 4 3 1 2 4v5l-1-4-10-1 1-6-5-1-1-2z" fill="#9EA0A3"/>
<path transform="translate(264,561)" d="m0 0 3 3-6 17h-2l-2 4 2-13z" fill="#A2B0C1"/>
<path transform="translate(417,554)" d="m0 0m-4 1h4l2 3v7l-8-1-1-8z" fill="#9CA2AA"/>
<path transform="translate(334,659)" d="m0 0 2 1-3 1 1 4-6 2-2 8h-2l-1-2v-6l-2-1 2-2 8-2v-2z" fill="#D7E1E9"/>
<path transform="translate(245,626)" d="m0 0 2 4-2 4-1 7h2v6l-5-4 1-3-2-1h2l-2-6v-5l2-1 3 1z" fill="#A2A9B2"/>
<path transform="translate(379,625)" d="m0 0h2l-1 5-6 9-4 3-3-1 3-5 6-8h2z" fill="#181E2C"/>
<path transform="translate(116,563)" d="m0 0 2 2 5 11v14l-1 14-2 1v-29l-4-5z" fill="#BBBDC2"/>
<path transform="translate(165,424)" d="m0 0h1l1 13-1 2h-6l-5-5v-2l5-1 5 3z" fill="#DFE7ED"/>
<path transform="translate(99,313)" d="m0 0h11l-3 1v2l2 1-4 1h-13l-2-1v-2z" fill="#7592B4"/>
<path transform="translate(412,200)" d="m0 0h2l1 7-3 21h-1v-8l1-13-1 3-2 15h-1v-11l3-13z" fill="#5B8CC5"/>
<path transform="translate(267,643)" d="m0 0 2 1v2h2v2l5 1 5 4 7 4-4 1-9-3-8-9z" fill="#A9AEB5"/>
<path transform="translate(387,545)" d="m0 0 2 2 3 9 1 11h-2l-1 3-3-16-1-1v-7z" fill="#CBD4DD"/>
<path transform="translate(345,405)" d="m0 0h5v5h2v2l2 1h-2v2l-5-1v-2l-11 1-3-3-4-2h5l2 2h11z" fill="#4788C8"/>
<path transform="translate(109,345)" d="m0 0 6 1 16 7v3l-8-2-16-7z" fill="#689ACF"/>
<path transform="translate(206,666)" d="m0 0 4 3-1 4-4 3h-6l-2-4 2-1-1-2 8-1z" fill="#A4A8AC"/>
<path transform="translate(408,581)" d="m0 0h4l-1 7-5 8-4 4h-2l2-5 2-6 2-1z" fill="#1D589B"/>
<path transform="translate(149,527)" d="m0 0 2 2-1 5-2 5-5 2-2-1v-5l6-5z" fill="#0C1220"/>
<path transform="translate(782,462)" d="m0 0m-1 1 2 4-1 2h6l-3 3-4 1-6-4-6-2 1-2 5-1h3z" fill="#121723"/>
<path transform="translate(176,707)" d="m0 0 3 4v14h-1l-2 9h-1v-26z" fill="#3682C8"/>
<path transform="translate(369,640)" d="m0 0h3l-2 4-9 9-4 2-1-3 2-2 6-7 4-2z" fill="#1D3B63"/>
<path transform="translate(426,607)" d="m0 0 8 1v7l-2 3h-5l-2-3-3-2h6z" fill="#BFC2C8"/>
<path transform="translate(391,575)" d="m0 0h7v4h10v1l-7 2-3 7h-1v-13h-4l-1 10-2 5-1-3z" fill="#C5D2DF"/>
<path transform="translate(692,480)" d="m0 0 5 1 2 5-2 3h-6l-2-3v-5z" fill="#5E8FC6"/>
<path transform="translate(229,475)" d="m0 0 2 4 1 3h-2l-2 4-3 1-1 2-4-7h3v-3l5-2z" fill="#091836"/>
<path transform="translate(265,713)" d="m0 0h7l-1 2-5 1-1 5 3 6-1 2-1-3h-5l-2-2v-5l4-5z" fill="#D7D7D8"/>
<path transform="translate(203,556)" d="m0 0 1 4-2 2 6-1-4 4-5 2h-7l-1-3 7-2-1-2 3-1z" fill="#A0ADBD"/>
<path transform="translate(133,388)" d="m0 0 5 1 1 1v9l-4 2-3-6v-6z" fill="#5B5D66"/>
<path transform="translate(758,240)" d="m0 0 4 2 1 6-1-3h-7l-2 3-2 7-1-2h-2v-5l4-6z" fill="#3784CA"/>
<path transform="translate(238,532)" d="m0 0 6 2-1 4-3 7-3 1-1-1v-7z" fill="#DAE3EB"/>
<path transform="translate(56,590)" d="m0 0h1l1 32 2 2h-3v2h2l-2 7h-2v-16z" fill="#91ABCA"/>
<path transform="translate(122,555)" d="m0 0 14 7 16 9 1 1v6h-2l-1-6-7-3-19-10v-2h-2z" fill="#9CAEC3"/>
<path transform="translate(386,499)" d="m0 0 2 1-4 4h-2l1 4 1 5-4-2-4-5v-4l3-2z" fill="#BBBDC2"/>
<path transform="translate(801,381)" d="m0 0 2 2v14h-4l-2-2 1-6z" fill="#061535"/>
<path transform="translate(598,377)" d="m0 0 3 1 1 5 3 3-1 2-6 2-3-3 2-9z" fill="#3784CA"/>
<path transform="translate(106,327)" d="m0 0 9 3 18 8-1 3-20-9-7-3z" fill="#7FA3CB"/>
<path transform="translate(156,691)" d="m0 0 5 1 8 6v6l-4-2v-2l-6-2-2-2 1-3z" fill="#BABCC1"/>
<path transform="translate(189,657)" d="m0 0 1 4v6h2l1 12 5-2 7-1-3 2-5 3-5 1-2-4-1-8-1-3v-8z" fill="#575962"/>
<path transform="translate(57,674)" d="m0 0 7 1 3 5v18h-1l-1-13-3-3-5-3z" fill="#A5ADB7"/>
<path transform="translate(327,556)" d="m0 0h8l8 3 4 4 3 8v15h-1l-2-16-6-9-7-3-7-1z" fill="#51535C"/>
<path transform="translate(171,359)" d="m0 0m-9 1h9l5 1-3 2-10 2h-8l1-3z" fill="#A2B8D0"/>
<path transform="translate(409,557)" d="m0 0 2 4v3l8 1-4 2-4 5h-3l-1-6 1-7z" fill="#B9BBC0"/>
<path transform="translate(193,355)" d="m0 0 8 1 3 2-8 1v4l-8 1-1-3h-9v-1h11l1 2h4l1-4-11-1v-1z" fill="#8DA9CA"/>
<path transform="translate(396,578)" d="m0 0h1l1 8 2-4h1l1 9-3 10 2 1h-4l1-9 1-3-2 1-2 3z" fill="#9DB2CB"/>
<path transform="translate(319,508)" d="m0 0 7 2v1l-13 4-8 3v-2l-2-1z" fill="#9CADC2"/>
<path transform="translate(206,359)" d="m0 0h13l-2 2-10 2-12 1 2-4z" fill="#2B588D"/>
<path transform="translate(408,240)" d="m0 0 4 4v9l-4 15h-2l3-14v-5l-2 2-1-2z" fill="#5F8FC6"/>
<path transform="translate(604,136)" d="m0 0h7v2l-24 3h-9l3-2z" fill="#8DAACB"/>
<path transform="translate(405,534)" d="m0 0h3l4 7 1 3h2l2 5-4 3-3 1h-7l-2-5v-7h1l3 10 6-1 2-1-1-4z" fill="#8BA8CA"/>
<path transform="translate(400,305)" d="m0 0 5 1 2 4 8 1v1h-16l-5-2v-2l5-1 2 1z" fill="#5B8CC5"/>
<path transform="translate(454,157)" d="m0 0 7 1 3 4-6 2-9-3 2-3z" fill="#575962"/>
<path transform="translate(344,537)" d="m0 0 5 1 9 6 6 8 3 9-1 4-4-11-8-10-8-5z" fill="#50525B"/>
<path transform="translate(324,536)" d="m0 0h16l3 3-15 1-5 1v-2l-3-2z" fill="#B2B5BB"/>
<path transform="translate(120,613)" d="m0 0 5 1 15 8 4 3v3l-5-2-10-7-9-5z" fill="#94AAC4"/>
<path transform="translate(422,576)" d="m0 0 1 3h-2v3l-2 1-1 3h-2v3l-4 3 1-6 2-6-7-1v-1h14z" fill="#CCD7E2"/>
<path transform="translate(135,499)" d="m0 0 3 1 2 6v6l-5-1-2-8z" fill="#253046"/>
<path transform="translate(308,493)" d="m0 0h3l-2 4-4 4v2l5 2v2h-5l-3-3-2-1v-2h3l-2-6z" fill="#C9D4E0"/>
<path transform="translate(213,492)" d="m0 0 3 3v6l-3 2-4-1-1-1v-5z" fill="#DEE6EC"/>
<path transform="translate(239,587)" d="m0 0 3 3 1 14-3-1v7h-1v-17l1-1-5-1v-2z" fill="#868B92"/>
<path transform="translate(568,458)" d="m0 0 3 4-3 26-3-1 2-15z" fill="#6292C8"/>
<path transform="translate(194,653)" d="m0 0h7l-1 5-5 2v2l-4-1 1-6z" fill="#DDE3E7"/>
<path transform="translate(301,605)" d="m0 0 9 9 3 1h11l7-1-1 2-7 2h-10l-8-5-3-2z" fill="#4F515A"/>
<path transform="translate(206,483)" d="m0 0 4 1-2 5-2 2-1 4-5-1 1-5 3-5z" fill="#091734"/>
<path transform="translate(801,303)" d="m0 0h2l1 2v9l-7-1 1-7z" fill="#0E121C"/>
<path transform="translate(299,277)" d="m0 0 1 3 19 1v2l3 1h-11v3l2 1h-4l-1-3 1-2-10-2z" fill="#7FA1C8"/>
<path transform="translate(840,236)" d="m0 0 5 4 10 14 1 3-2 2-6-8-5-9v-2h-2z" fill="#172032"/>
<path transform="translate(228,703)" d="m0 0 6 1 4 4-2 4-5-1-3-5z" fill="#061535"/>
<path transform="translate(392,660)" d="m0 0h2l-1 6-14 3-8 2-5 1 3-3 5-2 10-1z" fill="#7DA3CB"/>
<path transform="translate(220,608)" d="m0 0 11 1v1l-11 3v3l5 6-5-1-4-6 1-6z" fill="#BABCC2"/>
<path transform="translate(223,599)" d="m0 0 8 1 1 4-2 3-5-1-3-3z" fill="#565861"/>
<path transform="translate(314,489)" d="m0 0 8 1 8 3-4 2h-13z" fill="#B2BCC7"/>
<path transform="translate(154,362)" d="m0 0 2 1-1 2 11-1-2 1-1 3 8 1v1h-9l-5-2h-8l1-2h2z" fill="#5C8CC4"/>
<path transform="translate(791,194)" d="m0 0h7l5 1v1l-16 1-13 2h-8v-1l11-2 1-1z" fill="#89A5C5"/>
<path transform="translate(351,695)" d="m0 0h1l1 5 5 1v5l3 5-5-1-2-5h-2l-1-3z" fill="#CACCD0"/>
<path transform="translate(245,675)" d="m0 0h1l2 6 2 2 5-2 3 1-6 3-5 1-6-2 2-5z" fill="#CACED5"/>
<path transform="translate(368,653)" d="m0 0 4 1-3 1-4 4-6 5-2 4 7-1-1 2-6 1-2-4 3-5 4-4h2v-2z" fill="#84A6CC"/>
<path transform="translate(236,660)" d="m0 0h4l1 9 4 1-6 3-2 4z" fill="#ADBBCB"/>
<path transform="translate(187,556)" d="m0 0 7 1 3 3 3 2-9 2-1 2-2-3z" fill="#575961"/>
<path transform="translate(153,433)" d="m0 0 7 5 6 3v14l-5-1 4-1-1-10-5-3-5-1-2 3v-7z" fill="#96ADC7"/>
<path transform="translate(77,360)" d="m0 0 4 2 2 5-1 4-4 2-1-1z" fill="#4B4D55"/>
<path transform="translate(153,697)" d="m0 0h1l3 17 2 4-4 1v14h-1l-1-7z" fill="#A9B7C7"/>
<path transform="translate(299,699)" d="m0 0 9 1 3-1 4 4-3 1h-3l-2 4-2-4-5-2z" fill="#D0D5DB"/>
<path transform="translate(220,589)" d="m0 0 2 3-2 4h-2l-2 4-4 1v-5h2l2-4z" fill="#C9CDD4"/>
<path transform="translate(383,533)" d="m0 0 3 3 4 10-1 4-2-4-1 5-2-3-1-7-1-6z" fill="#ABB9CA"/>
<path transform="translate(140,391)" d="m0 0 3 1v12l-1 3-4-1-1-4 1-2h2z" fill="#FBFCFC"/>
<path transform="translate(132,376)" d="m0 0 4 1h-3l-2 4-2 2h-5l1 5 2 6-3-3-5-7 1-2 3-1 1-3 2 3 4-2z" fill="#ADBDCE"/>
<path transform="translate(383,545)" d="m0 0 2 3 4 16v8l-2 4-2-19-2-6-1-5z" fill="#575962"/>
<path transform="translate(207,489)" d="m0 0 7 1 4 5-1 4-1-4-3-1-4 2-2 3-1-9z" fill="#D5D7DA"/>
<path transform="translate(319,468)" d="m0 0h8l1 1v5l-3 1-1-1-7-1 1-4z" fill="#3D4049"/>
<path transform="translate(434,174)" d="m0 0 12 1 11 3v3l-10-1-2-2-8-2z" fill="#5B8CC5"/>
<path transform="translate(497,127)" d="m0 0h16l10 3v1l-10 1-8-3-8-1z" fill="#7FA1C9"/>
<path transform="translate(175,757)" d="m0 0h2v21h-4l1-17z" fill="#3784CA"/>
<path transform="translate(265,682)" d="m0 0 1 3-1 6 4-1h7l3 1-1 2-10 2-5-5 1-6z" fill="#BCC6D2"/>
<path transform="translate(332,469)" d="m0 0h1l-1 17-4 1 2-6v-2l-7 2 6-7z" fill="#CFD1D6"/>
<path transform="translate(637,378)" d="m0 0 5 2 1 4-3 7-5 1-2-4h6l-1-7z" fill="#3884C9"/>
<path transform="translate(176,372)" d="m0 0h9l-3 1v2l-7 6-3 1 1-5 1-4z" fill="#6292C7"/>
<path transform="translate(773,353)" d="m0 0 4 2 2 6-1 1h-6l-2-6z" fill="#538AC6"/>
<path transform="translate(359,653)" d="m0 0 2 1-4 5h-2l-2 15h-1v-6l-2-1 2-4-6 1 5-4z" fill="#BBC6D3"/>
<path transform="translate(365,432)" d="m0 0h4l2 3-1 5-6 1-2-2 1-4h3z" fill="#919295"/>
<path transform="translate(156,349)" d="m0 0 6 2 12 5-1 3-7 1 4-1v-2l-6-1-8-4z" fill="#7EA2CA"/>
<path transform="translate(287,288)" d="m0 0 2 1-1 1 6 2-1 2h-13v-5z" fill="#A9BBCF"/>
<path transform="translate(650,226)" d="m0 0 2 1v8l-5 2-2-6v-2z" fill="#3784CA"/>
<path transform="translate(263,669)" d="m0 0 5 2 1 3-2 5h-4l-1-2v-7z" fill="#DBDADA"/>
<path transform="translate(408,579)" d="m0 0h7l1 2-2 5-3-1 1-4h-4v2l-7 2 1-5z" fill="#8FAACA"/>
<path transform="translate(278,532)" d="m0 0 2 2-1 4-6 8-2-2 1-4 2-4 1-3z" fill="#225895"/>
<path transform="translate(375,526)" d="m0 0h2v2l5 1 2 12h-2l-6-11z" fill="#BEC6D1"/>
<path transform="translate(354,500)" d="m0 0 9 3 8 4 8 6 1 4-7-6-14-7-8-2z" fill="#9AB0C9"/>
<path transform="translate(324,312)" d="m0 0 4 2 3 4h-2l-1 3-7 4-3-1 4-3 1-4h2z" fill="#585A63"/>
<path transform="translate(294,698)" d="m0 0 4 1 5 4 8 8h9l-2 2-8 1-8-9-8-5z" fill="#90ACCC"/>
<path transform="translate(247,673)" d="m0 0h2l2 6 7 1-3 2-6 2-3-4z" fill="#B1B5BB"/>
<path transform="translate(159,442)" d="m0 0 5 5v5h-5l-4-6 2-3 2 1z" fill="#0E1321"/>
<path transform="translate(286,321)" d="m0 0 6 2h11l6-1 1 2 8 1-3 2-6-1-20-1z" fill="#585A63"/>
<path transform="translate(337,692)" d="m0 0v3l-2 4h-6v-2l-4 1 1-4 9-1z" fill="#CED9E3"/>
<path transform="translate(356,689)" d="m0 0h7l1 3v8l-4-2-1-3 2-5-6 3-3 2 2-4z" fill="#D1D2D3"/>
<path transform="translate(251,670)" d="m0 0h5l3 5v4l-5-2-4-3z" fill="#585A63"/>
<path transform="translate(276,666)" d="m0 0 5 1 7 4 7 2-4 1h-7l-6-3z" fill="#AFB9C5"/>
<path transform="translate(239,618)" d="m0 0h1v6l4-1v-5h1l1 8-1 2-6 1-3-8-1-2z" fill="#86A4C7"/>
<path transform="translate(384,475)" d="m0 0h7l8 7 1 3-4-2h-4l-3-5v-2h-5z" fill="#7FA1C8"/>
<path transform="translate(79,468)" d="m0 0 3 1 1 4v7h-4l-1-3v-8z" fill="#272C38"/>
<path transform="translate(74,410)" d="m0 0h1v14h2v10l-1 5-2-4z" fill="#EEF2F5"/>
<path transform="translate(56,361)" d="m0 0 5 2 1 5-1-3h-2l-1 4-1-5v10l-3 1-1-7z" fill="#223C60"/>
<path transform="translate(263,728)" d="m0 0 4 2 4 3h5v-3h3l-2 5-7 1-7-1 3-2z" fill="#8E9298"/>
<path transform="translate(199,678)" d="m0 0 3 1 4 5-3 3-4-2-3-4z" fill="#091633"/>
<path transform="translate(262,628)" d="m0 0 2 3 4 8v2h2l4 7h-3v-2h-2l-1-2-2 1-4-13z" fill="#99A4B2"/>
<path transform="translate(222,582)" d="m0 0h4l-1 4-2 3-6 3-3 4h-2l2-4 6-7z" fill="#AAB9CB"/>
<path transform="translate(381,383)" d="m0 0 4 2 2 3 1 5v15h-1l-1-14-4-5h-1z" fill="#3784C9"/>
<path transform="translate(75,330)" d="m0 0 6 1 9 4 4 5-5-1-14-7z" fill="#6292C7"/>
<path transform="translate(495,269)" d="m0 0 4 1 3 2v13l-2-2-3-9-2-2z" fill="#BCBFC5"/>
<path transform="translate(245,730)" d="m0 0 4 1 4 5h-9l-3-2 1-3z" fill="#061535"/>
<path transform="translate(424,600)" d="m0 0 2 2-2 5 4 2v4h-9l-3-1v-2h5l6 2-2-2-4-1 1-4z" fill="#D4D4D7"/>
<path transform="translate(386,450)" d="m0 0 5 1 1 2-2 3-9 2 2-4z" fill="#D4DDE5"/>
<path transform="translate(56,389)" d="m0 0 4 1 3 1v8l-2 2-2-1-2-7z" fill="#121825"/>
<path transform="translate(229,350)" d="m0 0 6 1v1h-10v3l4 1-6 1v-2h-5l-4-3z" fill="#7C9EC6"/>
<path transform="translate(346,595)" d="m0 0h2l-1 5-1 2h-2l-1 5-8 7-5 2 11-11z" fill="#939496"/>
<path transform="translate(551,538)" d="m0 0 1 2-6 11-2 1v-8l3-4h2z" fill="#3984C9"/>
<path transform="translate(317,538)" d="m0 0h8l-2 1v2l-10 4-2-1 2-4z" fill="#C3C7CD"/>
<path transform="translate(421,503)" d="m0 0h2l1 7 4 2v3l2 1-2 1h-6v-3z" fill="#888B90"/>
<path transform="translate(120,315)" d="m0 0h10l-1 2-16 2h-5l1-2z" fill="#D7E1E9"/>
<path transform="translate(302,286)" d="m0 0h7v2h13l-4 2h-15z" fill="#A7B8CD"/>
<path transform="translate(340,224)" d="m0 0h3v13h-4v-10z" fill="#A5A6A6"/>
<path transform="translate(78,390)" d="m0 0 3 1-3 14-1 12h-1v-14l1-12z" fill="#B5B9BF"/>
<path transform="translate(313,311)" d="m0 0h5l-4 2v3l3 1-2 3-3 1v2l6 1v1h-8l-1-5 4-1-1-7z" fill="#A1A2A3"/>
<path transform="translate(394,164)" d="m0 0h20l6 3v1l-11-1-15-2z" fill="#93ADCA"/>
<path transform="translate(357,704)" d="m0 0 6 1-1 4h5l-2 2-9 1-4-5v-2h2l3 5h3l-3-4z" fill="#A0A2A4"/>
<path transform="translate(62,682)" d="m0 0 3 1 1 2v18l-3 1-1-5 2-5v-7l-2-3z" fill="#4E525C"/>
<path transform="translate(238,606)" d="m0 0h1l1 6-1 2v6h-10l1-2 5-2z" fill="#A3ADBA"/>
<path transform="translate(197,539)" d="m0 0h6l5 3-1 5-6-1-1-2h2v-3l-5-1z" fill="#A3A5A8"/>
<path transform="translate(328,498)" d="m0 0 1 2h-2l1 3-3 3 3 1-3 2v-2h-3v-5l-4-1 5-2v2z" fill="#C8D3DD"/>
<path transform="translate(189,429)" d="m0 0 9 1-1 4-1 1h-7l-1-3z" fill="#6393C9"/>
<path transform="translate(155,734)" d="m0 0 2 2v7l2 2h-4v15h-1l-1-13z" fill="#AEBCCC"/>
<path transform="translate(257,597)" d="m0 0h1l1 19-3 3-1-14z" fill="#969CA5"/>
<path transform="translate(396,548)" d="m0 0 2 3 1 3v8l-2 8-4-1v-2h3z" fill="#A6AFBB"/>
<path transform="translate(710,288)" d="m0 0 4 1 2 2v8l-2-1-1-7-3 1-3 4v-6z" fill="#3784CA"/>
<path transform="translate(157,737)" d="m0 0 3 2 1 3h4v3l-10 3v-3l2-1-1-3z" fill="#97A4B5"/>
<path transform="translate(209,658)" d="m0 0 2 1v7l-2 3-4-5-4-2v-2h5v2l4 1z" fill="#76777D"/>
<path transform="translate(391,613)" d="m0 0h3l-2 6-1 1-1 8-3-1v-8l3-3z" fill="#B2C6DB"/>
<path transform="translate(124,608)" d="m0 0h4l4 8-7-1-1-1z" fill="#D9D9DA"/>
<path transform="translate(425,548)" d="m0 0 3 4 1 4v12l-2 2z" fill="#719ECC"/>
<path transform="translate(204,553)" d="m0 0h3v2h2l-1 6-4 2-3-1 2-2-1-5z" fill="#BDBFC5"/>
<path transform="translate(420,548)" d="m0 0 5 2 1 5-2 3-1-3-4-2v-4z" fill="#E4EBEF"/>
<path transform="translate(571,445)" d="m0 0h1v10l-1 7-2 1v-17z" fill="#6A9ED3"/>
<path transform="translate(81,379)" d="m0 0 1 4-1 8-6 1 1-5z" fill="#DEE4E8"/>
<path transform="translate(556,268)" d="m0 0h6l1 1v7l-2 4-3 1-2-3 1-3 3 1 1-6-4 1z" fill="#5990C9"/>
<path transform="translate(695,173)" d="m0 0h9l6 1-4 2h-10l-1 1-7-1 1-2z" fill="#85A6CA"/>
<path transform="translate(255,620)" d="m0 0h1l2 9 3 10-2 2-4-9z" fill="#061535"/>
<path transform="translate(240,603)" d="m0 0 3 1v12l-2 2-2-7z" fill="#585A63"/>
<path transform="translate(397,590)" d="m0 0h2l-2 12h6v1h-7l-1-3-2 1 1-7h2z" fill="#C0CDDB"/>
<path transform="translate(422,596)" d="m0 0 8 1 5 4v6l-2-4-4-1-4-4z" fill="#585A63"/>
<path transform="translate(421,555)" d="m0 0h2l1 2 2-2 1 9-1-2-5 3-1-3z" fill="#CED5DC"/>
<path transform="translate(321,502)" d="m0 0 1 4-1 2h-11v-2z" fill="#13315B"/>
<path transform="translate(386,477)" d="m0 0 4 1 2 5-5 1-4-4v-2z" fill="#A9ADB4"/>
<path transform="translate(316,471)" d="m0 0 1 2 4 1h-2l2 8-5-1-1-1z" fill="#A2A9B0"/>
<path transform="translate(604,475)" d="m0 0h6l1 3-4 4h-3l-1-4z" fill="#91ABC9"/>
<path transform="translate(321,473)" d="m0 0h3v3l4 1-7 5-2-4v-4z" fill="#BBBDC3"/>
<path transform="translate(276,457)" d="m0 0 2 1v7l-3 5h-3l1-3-3-2h4z" fill="#C7C9CE"/>
<path transform="translate(268,448)" d="m0 0 5 1 2 3-11 3-1-4h4z" fill="#DDE2E5"/>
<path transform="translate(77,441)" d="m0 0h2l1 7h-2l3 7 2-1 1 4-2 2v-3l-4-1-1-9z" fill="#DDE1E4"/>
<path transform="translate(85,358)" d="m0 0 3 3v2l8-2h7l6 3-3 1-5-2-7 1-6 2-3-5z" fill="#83A4CA"/>
<path transform="translate(404,342)" d="m0 0 4 1v6l-5 1-1-1v-5z" fill="#3784CA"/>
<path transform="translate(293,310)" d="m0 0h11l-5 5 1 4-2 2-3-1h2l-1-5 1-4-8 1z" fill="#A4ADB8"/>
<path transform="translate(160,701)" d="m0 0 5 2 1 1v11l-5-2-5-3 4-1 5 2-2-7z" fill="#51535C"/>
<path transform="translate(69,684)" d="m0 0h1v14h-3v-12zm-3 14h1v5h-1z" fill="#AAB7C5"/>
<path transform="translate(138,617)" d="m0 0 5 1 2 2v5l-5-2-3-2z" fill="#D9D9DA"/>
<path transform="translate(415,605)" d="m0 0h1v7l6 1-2 1 1 5-4-1-2-1z" fill="#A1A1A0"/>
<path transform="translate(426,570)" d="m0 0h1l-1 7h-2l-1 5-7 9-1-2 1-3h2l1-4h2v-3h2l1-4z" fill="#6C9CCD"/>
<path transform="translate(312,546)" d="m0 0 4 2-6 4-9 7v-3l5-5h2v-2z" fill="#A1A9B2"/>
<path transform="translate(153,367)" d="m0 0 6 1 9 2v1l-7 1-2 1-5-2v-2l-3-1z" fill="#6695C9"/>
<path transform="translate(779,232)" d="m0 0 2 1 1 7-4 2-6-3-1-5 3 4 5-1z" fill="#061535"/>
<path transform="translate(291,686)" d="m0 0 3 4 5 2 5 5 1 2-6-2-4-4-5-1z" fill="#6495C9"/>
<path transform="translate(309,478)" d="m0 0 2 1 2 12-5 3-3-1 4-2z" fill="#9BB2CC"/>
<path transform="translate(255,456)" d="m0 0h1l1 11h2l-1 4-5-6v-6z" fill="#111623"/>
<path transform="translate(166,449)" d="m0 0 2 1 1 4v10h-3l-1-7-1-2h2z" fill="#CDD9E4"/>
<path transform="translate(815,447)" d="m0 0 5 1 3 4-12 1 1-3h2z" fill="#3784CA"/>
<path transform="translate(569,415)" d="m0 0 4 4v14l-2 2-1-12z" fill="#90ABCA"/>
<path transform="translate(240,646)" d="m0 0h1l1 14 1 2v6l2 1h-4l-1-2z" fill="#719AC8"/>
<path transform="translate(60,636)" d="m0 0 4 2 1 5-5 1v-2h-2z" fill="#09132A"/>
<path transform="translate(416,597)" d="m0 0h3l-1 4-2 4h-2v5h-1l-1-8z" fill="#161E30"/>
<path transform="translate(253,583)" d="m0 0 3 2-2 10-1 3h-2v-7z" fill="#071431"/>
<path transform="translate(273,536)" d="m0 0 2 1-3 4v7l-3 1-2-1 1-5z" fill="#142D52"/>
<path transform="translate(193,499)" d="m0 0 3 1-1 4-2 4-5 2 2-5z" fill="#3975B5"/>
<path transform="translate(270,452)" d="m0 0 6 2-1 9-2 2-1-9-3-1z" fill="#7F8085"/>
<path transform="translate(813,454)" d="m0 0 3 1-8 5-6 7-4 3-2-1 9-9 2-3z" fill="#8DA9C9"/>
<path transform="translate(520,242)" d="m0 0h2l8 15-1 3-9-15z" fill="#92ACCA"/>
<path transform="translate(152,718)" d="m0 0 2 2v13h-3v-11z" fill="#CCD3DC"/>
<path transform="translate(273,717)" d="m0 0h2l1 8-2 2-2-6-4 1 1-4z" fill="#96979A"/>
<path transform="translate(154,696)" d="m0 0 9 3 4 4v6h-1l-2-6-9-5v6h-1z" fill="#98A0AB"/>
<path transform="translate(213,687)" d="m0 0 4 1 6 7v5l-2 1v-6h-3l-3-5-5 1z" fill="#99AEC6"/>
<path transform="translate(258,681)" d="m0 0 4 1 1 6-2 4-5-2 3-4h2v-3h-5z" fill="#DCDBDB"/>
<path transform="translate(226,595)" d="m0 0h2v2l4 1 1 9-3-1 1-6-8-1v-2z" fill="#999FA6"/>
<path transform="translate(224,580)" d="m0 0 4 1v5l-3 5 9-1v2h-10v-6l2-4-3-1z" fill="#8CA8C8"/>
<path transform="translate(115,551)" d="m0 0 6 3-3 1-3-1v19h-1l-1-19z" fill="#7C9FC8"/>
<path transform="translate(422,493)" d="m0 0 7 2-1 2 3 9h-2l-4-7v-4h-5z" fill="#7A7C81"/>
<path transform="translate(385,486)" d="m0 0h5l2 5-1 1h-5l-2-4z" fill="#4F525A"/>
<path transform="translate(361,440)" d="m0 0 2 1 2 5 3 3-2 1-6-3-1-5z" fill="#E2E9EC"/>
<path transform="translate(368,383)" d="m0 0 4 2 2 9-3 1-3-7z" fill="#5D8FC7"/>
<path transform="translate(224,356)" d="m0 0h11l1 2-8 2-5-1z" fill="#2E588A"/>
<path transform="translate(63,332)" d="m0 0 1 3h2l-2 19h-1z" fill="#E5ECF0"/>
<path transform="translate(267,643)" d="m0 0 2 1v2h2v2l5 1v6l-7-6-2-3z" fill="#B0B8C3"/>
<path transform="translate(60,626)" d="m0 0h7l1 4-1 5-5-5z" fill="#A7ADB6"/>
<path transform="translate(123,569)" d="m0 0h5l1 5-4 3-3-3z" fill="#DCDBDB"/>
<path transform="translate(334,507)" d="m0 0h8l10 3v1l-12-1-7-1z" fill="#ACB6C2"/>
<path transform="translate(421,496)" d="m0 0h2l1 3h-2l-2 6-1 2h-2v-7z" fill="#FCFDFD"/>
<path transform="translate(403,488)" d="m0 0 6 1-1 3-3 1-1 16h-1z" fill="#5D8DC5"/>
<path transform="translate(67,317)" d="m0 0 2 1-4 3h-2l-1 2v-2l-6 1-1 2h-2l1-4z" fill="#9DB7D4"/>
<path transform="translate(653,301)" d="m0 0 3 1v9h-4v-8z" fill="#6CA0D5"/>
<path transform="translate(157,748)" d="m0 0 3 1 1 3 4 3-1 4-2 1-3-6v-2h-2z" fill="#0B1835"/>
<path transform="translate(387,637)" d="m0 0 4 1v3h-3l-1 3h-4l1-5z" fill="#565861"/>
<path transform="translate(113,631)" d="m0 0h2l-2 8-2 6h-1v-11z" fill="#061535"/>
<path transform="translate(400,558)" d="m0 0 5 1-1 7-1-3-5 2 1-5z" fill="#DAD9DA"/>
<path transform="translate(368,515)" d="m0 0 8 6 4 5v2h-3v-2h-2v-2h-2l-3-5z" fill="#97AFCB"/>
<path transform="translate(251,514)" d="m0 0h5l-3 3 2 2-3 1-3 3-1-1-2 1 2-6z" fill="#4E505A"/>
<path transform="translate(632,495)" d="m0 0 4 1 1 4-1 1h-5l-2-4z" fill="#95AECA"/>
<path transform="translate(767,467)" d="m0 0 8 1-1 5-6-1z" fill="#454954"/>
<path transform="translate(309,464)" d="m0 0 2 4-2 10h-3l2-7h-2v2l-2-1z" fill="#9AB2CC"/>
<path transform="translate(257,464)" d="m0 0 6 3v2h3l-1 3h-6v-5h-2z" fill="#52545D"/>
<path transform="translate(294,311)" d="m0 0h3v9l-7 1 3-1v-7z" fill="#BBBDC2"/>
<path transform="translate(302,665)" d="m0 0h16l1 2-8 1-9-1z" fill="#D7E1E9"/>
<path transform="translate(391,639)" d="m0 0h1l-1 8h-4v-2h-5l1-4v3l4-1 1-2h3z" fill="#8A8C91"/>
<path transform="translate(121,622)" d="m0 0 3 1-3 5-5 2 1-6z" fill="#061535"/>
<path transform="translate(412,557)" d="m0 0 5 1 1 5h-5l-2-2z" fill="#4A596F"/>
<path transform="translate(413,535)" d="m0 0 5 5 7 6-1 2-9-6-2-4z" fill="#85A5C9"/>
<path transform="translate(149,455)" d="m0 0 11 5 6 3-1 2-15-6z" fill="#9BB1CA"/>
<path transform="translate(225,352)" d="m0 0h12l1 2-3 1h-10z" fill="#B8BDC5"/>
<path transform="translate(332,233)" d="m0 0 2 4 3 3h3v5l1 2-4-1-1-3-4-4z" fill="#A4A8AE"/>
<path transform="translate(330,227)" d="m0 0h2l1 12 4 4v2l-4-2-2-2-1-5z" fill="#8193A9"/>
<path transform="translate(64,675)" d="m0 0 3 3h3l-1 11-2-3-2-7z" fill="#B6BCC4"/>
<path transform="translate(257,614)" d="m0 0 2 2 3 11h-4l-1-3z" fill="#99A5B4"/>
<path transform="translate(203,556)" d="m0 0 1 4-5 4-8 2v-2l7-2-1-2 3-1z" fill="#919294"/>
<path transform="translate(395,486)" d="m0 0 4 4-1 3-11 3-1-3 7-1 2-3z" fill="#A2A3A3"/>
<path transform="translate(306,471)" d="m0 0h2l-1 5-2 4-1-2-5 1 4-6h3z" fill="#C0D0DF"/>
<path transform="translate(65,322)" d="m0 0h7l4 2 1 2h-10l-2-1z" fill="#82A3C9"/>
<path transform="translate(60,322)" d="m0 0 1 2 6 1-4 2h-8v-4l5 1z" fill="#6295CB"/>
<path transform="translate(488,266)" d="m0 0h7l6 4-1 2-5-3 1 4h-2l-3-3v-2z" fill="#91A6BE"/>
<path transform="translate(622,124)" d="m0 0 11 2 3 2-2 1-9-1v-2l-3-1z" fill="#E5ECF0"/>
<path transform="translate(345,672)" d="m0 0 3 1-7 4-3 3-1 5-2-2v-5l5-3z" fill="#6293C9"/>
<path transform="translate(150,616)" d="m0 0h1v14l-3 2-4-4 5 1v-8z" fill="#6E97C6"/>
<path transform="translate(392,601)" d="m0 0h1v5l5 1-3 6-2-3h-3z" fill="#AFC1D4"/>
<path transform="translate(299,559)" d="m0 0v3l-7 12-1-4 3-7h2v-2z" fill="#A5AAAF"/>
<path transform="translate(252,519)" d="m0 0h2v6l-1 2h-2l-1 2-2-4z" fill="#BEC0C5"/>
<path transform="translate(269,465)" d="m0 0 5 1-2 4 2 1-6 2-4-1 4-2z" fill="#98A3B0"/>
<path transform="translate(84,457)" d="m0 0 2 2 3 12h-2l-4-8z" fill="#CACED3"/>
<path transform="translate(203,367)" d="m0 0h6l-5 4h-9l3-3z" fill="#5F90C8"/>
<path transform="translate(772,220)" d="m0 0 4 3 3 9-4-4v-2h-2v5h-1z" fill="#061535"/>
<path transform="translate(411,206)" d="m0 0 2 1-1 13-2 1v-11z" fill="#6695C9"/>
<path transform="translate(282,692)" d="m0 0h3v2h3v4h-5l-2-2z" fill="#D7D8DA"/>
<path transform="translate(339,604)" d="m0 0 1 3-7 7-6 1 3-3 8-7z" fill="#464951"/>
<path transform="translate(391,575)" d="m0 0h2v7l-3 9-1-3z" fill="#D0DAE2"/>
<path transform="translate(243,567)" d="m0 0h3l-1 4-4 4h-3l1-4z" fill="#6090C7"/>
<path transform="translate(200,545)" d="m0 0 8 3 1 5-8-4v-2l-2-1z" fill="#585A63"/>
<path transform="translate(261,499)" d="m0 0h5l-3 3-9 2h-3l2-3z" fill="#C6D4E2"/>
<path transform="translate(333,480)" d="m0 0 3 3v3l2 1 10 1v1h-12l-3-1z" fill="#7098C7"/>
<path transform="translate(124,383)" d="m0 0 3 1 3 6 1 4-2-1v-2l-4-1-2-5z" fill="#FBFCFC"/>
<path transform="translate(716,176)" d="m0 0 4 2h-2l1 5 4 2-4 3-2-2z" fill="#A1B6CD"/>
<path transform="translate(447,160)" d="m0 0 1 4h-10l-11-1v-1l16-1z" fill="#CDD2D9"/>
<path transform="translate(275,718)" d="m0 0 3 1 1 8-1 2h-2z" fill="#C5C8CE"/>
<path transform="translate(270,677)" d="m0 0h5l1 2h-4v4l-6 2v-3l2-1z" fill="#6E9ACB"/>
<path transform="translate(296,585)" d="m0 0h1l-1 12 3 1 2 4-1 3-3-5h-2v-12z" fill="#484B53"/>
<path transform="translate(396,556)" d="m0 0h1v7l-1 4h-3l-1-8 3 1z" fill="#2F3A4C"/>
<path transform="translate(284,533)" d="m0 0 1 2-8 10-1-2 2-5z" fill="#C8D2DB"/>
<path transform="translate(260,515)" d="m0 0 2 1-1 7-4-1-2-1 1-3 4 1-1-3z" fill="#515763"/>
<path transform="translate(330,504)" d="m0 0 18 2-4 2-11-1-3-1z" fill="#789DC7"/>
<path transform="translate(280,500)" d="m0 0h7l-4 3-10 2-4-1z" fill="#79A3CF"/>
<path transform="translate(382,388)" d="m0 0 4 4 1 5-3 1-2-1z" fill="#6E9CCE"/>
<path transform="translate(62,368)" d="m0 0h1v14l-7-1-1-5 4 2-1 1h3z" fill="#395578"/>
<path transform="translate(53,352)" d="m0 0 5 1 4 2 1-2v6l-6-2v-2h-3z" fill="#A7B7C9"/>
<path transform="translate(133,339)" d="m0 0 10 3 2 2-2 2-10-5z" fill="#80A4CC"/>
<path transform="translate(106,327)" d="m0 0 9 3 5 2-3 2-12-5z" fill="#6495CB"/>
<path transform="translate(788,309)" d="m0 0 1 2h2l1 4-4 1-3-2 1-4z" fill="#5F8FC6"/>
<path transform="translate(551,262)" d="m0 0 4 2 2 9-2-1v-2h-2l-2-5z" fill="#9DACBE"/>
<path transform="translate(341,692)" d="m0 0 2 1-5 10-5 3 2-5z" fill="#80A5CC"/>
<path transform="translate(364,672)" d="m0 0 2 1-8 9-5 1 1-3 5-3z" fill="#86A8CC"/>
<path transform="translate(358,656)" d="m0 0 2 4-3 3-2 5h-2l2-9h2z" fill="#CFDAE5"/>
<path transform="translate(136,565)" d="m0 0 6 2 2 2 4 2h-8l-4-4z" fill="#CACED5"/>
<path transform="translate(268,553)" d="m0 0 3 1-2 6-3 3-1-5z" fill="#BCC3CD"/>
<path transform="translate(387,545)" d="m0 0 2 2 2 4v3l-5-1v-7z" fill="#C5CFDB"/>
<path transform="translate(291,526)" d="m0 0v3l-6 5-4 1 6-7z" fill="#B6C4D2"/>
<path transform="translate(297,504)" d="m0 0v3l-2 3 1 3-6-2 2-4z" fill="#D1DAE2"/>
<path transform="translate(389,495)" d="m0 0h10l2 4-4 3 1-6-8 2-2 1z" fill="#B2B9C3"/>
<path transform="translate(694,481)" d="m0 0 3 2-1 5-2 1-2-1v-6z" fill="#6CA0D5"/>
<path transform="translate(393,453)" d="m0 0 2 1-2 12-4 1-3-4h5z" fill="#6494C9"/>
<path transform="translate(120,311)" d="m0 0h8l2 1v2l-7 1-3-1z" fill="#33435B"/>
<path transform="translate(798,281)" d="m0 0 3 2-2 6-3-1-1-4z" fill="#0E121C"/>
<path transform="translate(485,275)" d="m0 0 3 2-1 6-4-1v-6z" fill="#A6A9AC"/>
<path transform="translate(763,188)" d="m0 0h9l3 2-2 1h-9z" fill="#CED9E2"/>
<path transform="translate(245,695)" d="m0 0 4 2 2 2 10-1-2 2-3 1h-7l-3-2z" fill="#7CA3CD"/>
<path transform="translate(55,634)" d="m0 0h1l1 9v3l-1 6h-1l-1-15z" fill="#A1B7D1"/>
<path transform="translate(133,621)" d="m0 0 7 1 4 3v3l-5-2-6-4z" fill="#7EA0C7"/>
<path transform="translate(390,593)" d="m0 0h1v5h2l-1 3-1-1-3 7-2 1 3-11z" fill="#3E4757"/>
<path transform="translate(264,561)" d="m0 0 3 3-3 6h-3l1-5z" fill="#AFB8C4"/>
<path transform="translate(344,537)" d="m0 0 5 1 9 6 2 4-5-3-5-4-6-3z" fill="#4A4C54"/>
<path transform="translate(248,520)" d="m0 0 2 1-1 5 2 4h-4l-1-7z" fill="#96999D"/>
<path transform="translate(637,513)" d="m0 0 2 1v2 3h-6l-1-4z" fill="#2761A1"/>
<path transform="translate(330,509)" d="m0 0h10l9 2-2 2-8-1-5-1z" fill="#585A63"/>
<path transform="translate(427,496)" d="m0 0h4l2 4 2 1-1 2-2-1-1 4z" fill="#A9ABAE"/>
<path transform="translate(351,497)" d="m0 0 10 1 6 2-4 1-4-1-3 1-5-3z" fill="#BBBDC2"/>
<path transform="translate(80,446)" d="m0 0 1 4h2l1 6-4-1-2-4v-3h2z" fill="#CACCCF"/>
<path transform="translate(137,391)" d="m0 0 2 2v6l-4 2v-8z" fill="#494C52"/>
<path transform="translate(68,326)" d="m0 0h6l-1 2 2 2-2 1-4-2-1 2-7-2v-1z" fill="#5A8DC6"/>
<path transform="translate(315,319)" d="m0 0h3v5h-6v-4z" fill="#BABCC1"/>
<path transform="translate(482,283)" d="m0 0 7 14 2 3-4-2-3-4-2-6z" fill="#585A63"/>
<path transform="translate(424,169)" d="m0 0 7 1 2 5-9-3z" fill="#6190C7"/>
<path transform="translate(265,713)" d="m0 0h7l-1 2-5 1-5 4-2 4v-5l4-5z" fill="#C8C9CC"/>
<path transform="translate(67,653)" d="m0 0 2 1v12l-2-4-2-7z" fill="#B4BCC7"/>
<path transform="translate(374,619)" d="m0 0 1 2-3 5-5 5 2-7 4-2z" fill="#969FAC"/>
<path transform="translate(254,605)" d="m0 0 1 3h-4v9l-1-3h-2l-1-3 3-5 4 1z" fill="#91A9C5"/>
<path transform="translate(495,534)" d="m0 0 3 3 2 4v5l-3-1z" fill="#8D8E91"/>
<path transform="translate(351,444)" d="m0 0h7l7 6-1 3-4-4-3-2-6-1z" fill="#9B9D9F"/>
<path transform="translate(566,436)" d="m0 0h2v9l-3 1v-9z" fill="#061535"/>
<path transform="translate(563,363)" d="m0 0h2l2 7v7h-2z" fill="#90ABCA"/>
<path transform="translate(197,360)" d="m0 0h7l3 3-12 1z" fill="#475973"/>
<path transform="translate(262,679)" d="m0 0h4l-1 5-2 3-1-5-4-2z" fill="#CCD5DF"/>
<path transform="translate(393,576)" d="m0 0h4l-1 8-3-1-1 2z" fill="#1D3457"/>
<path transform="translate(212,573)" d="m0 0 1 3-8 9-1-3z" fill="#3984C9"/>
<path transform="translate(404,566)" d="m0 0h1l2 7 3 3h-5l-2-2v-6z" fill="#D6DADE"/>
<path transform="translate(391,567)" d="m0 0h2v2h2v6h-4z" fill="#F5F6F7"/>
<path transform="translate(315,561)" d="m0 0 2 1-2 1zm-2 2 2 1-9 9v-3l5-6z" fill="#393B44"/>
<path transform="translate(122,555)" d="m0 0 14 7-4 1-8-4v-2h-2z" fill="#8BA4C3"/>
<path transform="translate(188,549)" d="m0 0 1 4h3l1 4-4 1-2-2z" fill="#9D9EA1"/>
<path transform="translate(500,541)" d="m0 0h1l-1 9-2 5h-1v-10l3 1z" fill="#585A63"/>
<path transform="translate(408,520)" d="m0 0 3 3 2 12h-2l-3-11z" fill="#88A8CC"/>
<path transform="translate(634,378)" d="m0 0 4 1-3 4v5l-3-3v-5z" fill="#5C8EC6"/>
<path transform="translate(549,258)" d="m0 0h2v2l4 2 3 4 2 3-4-1-3-5h-3z" fill="#4E535E"/>
<path transform="translate(454,157)" d="m0 0 7 1 2 3-5-1h-8l1-2z" fill="#AEB2B9"/>
<path transform="translate(294,698)" d="m0 0 4 1 5 4 4 4h-3l-8-6-2-1z" fill="#98B0CB"/>
<path transform="translate(316,688)" d="m0 0 1 2 6 2 3 2v2l-5-1-6-5z" fill="#AFB2B8"/>
<path transform="translate(151,684)" d="m0 0 12 6-4 1-5-3-4-1z" fill="#759BC7"/>
<path transform="translate(201,676)" d="m0 0 4 1-7 3-2 2-5-1v-2l5-1z" fill="#54565F"/>
<path transform="translate(384,596)" d="m0 0 2 4-2 6h-3l1-5z" fill="#B0B9C3"/>
<path transform="translate(248,582)" d="m0 0 4 1-2 2-5 1-3 1-2 2-1-3 2-2z" fill="#779CC7"/>
<path transform="translate(220,540)" d="m0 0 3 1-6 8-1-4 1-2h2z" fill="#478ACA"/>
<path transform="translate(196,537)" d="m0 0 3 1h-2v2l-7 5-1-3z" fill="#1A202F"/>
<path transform="translate(334,536)" d="m0 0h6l3 3h-14v-1l5-1z" fill="#AEB1B6"/>
<path transform="translate(295,521)" d="m0 0 4 1-6 5-4-1z" fill="#AAB8C9"/>
<path transform="translate(199,517)" d="m0 0 3 1-2 6-5-3z" fill="#061535"/>
<path transform="translate(354,433)" d="m0 0 2 1-3 3-1 5 6 1-3 2-4-1v-8z" fill="#BCBDC0"/>
<path transform="translate(310,281)" d="m0 0h9v2l3 1h-10v-2z" fill="#5B8CC5"/>
<path transform="translate(519,237)" d="m0 0 4 4 2 6-3-3v-2h-2l-1 3-2-4h2z" fill="#719DCD"/>
<path transform="translate(591,236)" d="m0 0 3 1v6h-4z" fill="#6597CC"/>
</svg>
