<?xml version="1.0" encoding="UTF-8"?>
<svg version="1.1" viewBox="0 0 900 900" width="1280" height="1280" xmlns="http://www.w3.org/2000/svg">
<path transform="translate(408,161)" d="m0 0h16l33 1 59 1 13 1 1 5-1 42h-23l-3-1v34l-2 39-1 12 76-2 20-1 1-1h25l3-2h11l9 2 5 4 6 1 3-5 2-10 4-5 6-2 7 2h15l13 3 9 5 8 7 7 10 7 14 5 16 3 19 1 12v12l-3 38-3 9-2 14 2 12 3 31v29l-2 15-1 23h29l5 4 5 6 1 3-1 25-3 29-1 20 7 5 20 9 14 8 8 3 4 5 5 11-1 5-7 8-7 2 6 9 10 8 2 3 1 11-4 5-6 4-7-1-9-8-3-4-1-10-7-11-9-16v-7l-14-23-3-2-2 7-6 56-3 16-2 4-10 2h-25l-59-3-18-1-2 25-1 1h-251l-184 1h-80l-2-3-7-45-8-59-9-60-6-49-6-39 5-6 17-12 33-22 20-14 22-15 20-14 18-12 11-6 4-1h36l49 1h32l-1-18-1-44-1-26v-14l1-1 9-1 37-1h17l6 1v-83l-17-1-3-3v-30zm256 242-1 1v38l2 1h4l-5 1-1 2v23l2 9 6 17 5 6h5l2-7 2-34v-22h-4l4-4-1-21-1-8-1-1-7-1z" fill="#1B4680"/>
<path transform="translate(408,161)" d="m0 0h16l33 1 59 1 13 1 1 5-1 42h-23l-3-1v34l-2 39-1 12 76-2 20-1 1-1h25l3-2h11l9 2 5 4 6 1 3-5 1-8h1l1 6 2-3v2l4 2 8 9 4 6v7h-2l-6-9-6-5h-3l3 5 8 9 8 16 3 7 2 9 1 8-2-4-4-9-9-21-6-8-3-3 1 5 5 8v5h2l10 30 2 8 1 11 2 12v9l-3 1-11-46-4-14-3-10-4-9-10-18-5-2-1-1v3l3 1h-2v2h2l5 10 4 21 3 39v15l-4 1-2-4-2-2-4-33-3-40-1 7-3 44-2 11-3 3-12-2h-11l-12 2-29 7-28 8-23 7-17 3-7 3-14 4h-3l-1 6 6 1-1 4-6 7-12 6-7 2-5 1-3 1h-8l-17-3-9-5-2-5-18 4-42 7-23 4-22 3-5 1v2l7 1v2h9l2 2 9-1 20-6 6-1 4 1h35l21-2 2-2 6-1 5 1 7 2 5 4-3 2-2 7 2 5 5 5 1 7h30l27-1v-2h-2l-1-3 1-2 10-1h24l19-1 7-1v-2l12-5 9-6 4-3 34-1 8 4h7l6-2 1-4h2v2h2v3l-6 3-9 2v2l5 3 7 11 9 10 4 6 3 3 3 5 5 5 1 3h-492l-80-1 5-5 39-26 17-12 19-13 43-30 15-9 8-3h36l49 1h32l-1-18-1-44-1-26v-14l1-1 9-1 37-1h17l6 1v-83l-17-1-3-3v-30z" fill="#1B4680"/>
<path transform="translate(137,522)" d="m0 0h342l11 1 1 1v98l-2 69-1 6-3 1-64 1h-236l-32-1-4-1-2-18-3-36-8-104v-16z" fill="#5D5C5E"/>
<path transform="translate(670,274)" d="m0 0 8 2h15l13 3 9 5 8 7 7 10 7 14 5 16 3 19 1 12v12l-3 38-3 9-2 14 2 12 3 31v29l-2 15-1 23h29l5 4 5 6 1 3-1 25-3 29-1 20 7 5 20 9 14 8 8 3 4 5 5 11-1 5-7 8-7 2 6 9 10 8 2 3 1 11-4 5-6 4-7-1-9-8-3-4-1-10-7-11-9-16v-7l-14-23-3-2-2 7-6 56-3 16-2 4-10 2h-25l-59-3-11-1-3-2 3-31 2-22 2-34 2-26 2-25 1-2 2-29 1-3 6-3v-9h-2v-11l1-4v-8l-2-6v-12l1-2 9 3 1-7 3-56-5 1 2-3h2l-1-23-1-8-7-1h-11v38l9-1-4 3h-5v25l2 9 3 8v5l-7-6-7-8-10-10-8-12v-2l-5-2-2-3 5-2 7-2 5-1v-3h-2v-2h-2l-1 5-6 2h-7l-8-4-34 1-8 6-14 7h-3v2l-7 2-19 1h-34v5h2v2l-6 1-21 1h-27l-3-1-3-8-5-5-1-6 4-8-4-3-9-1-4-1-5 2-1 1-21 2h-35l-5-1-23 6-5 2h-6l-2-2-9-1v-2l-7-1v-2l5-2 26-4 61-10 18-4 3 6 8 4 17 3h11l1-2 8-1 10-4 5-3 6-7 1-3-6-1 1-6 20-6 4-2 17-3 29-9 30-8 24-6 9-1h14l10 2 2-6 2-22 2-29 1-8 2 1 4 49 3 24h2l1 6 3-1v-15l-3-39-4-21-4-8v-2h-2l-2-8 3 3 5 2 11 20 3 7 6 20 10 41 2 8h2l-2-18-1-5-2-13-6-20-4-12v-2h-2l-2-7-5-8-1-6 5 5 6 7 9 20 4 11v-3l-3-11-7-16-7-10-6-6v-3l3-1 8 7 4 6v2h2l-1-7-10-13-5-4 1 1-3 1-1-1v-8l4-5z" fill="#1D1C1D"/>
<path transform="translate(243,397)" d="m0 0h36l49 1 15 1v1h-40l-2 4-9 5-22 14-7 5-14 5-6 3h-2l1 3v9l-3-2v-2l-12-1-4-3h2v-2l-9 3-2 4-2 3v15l3 5v2l4 2-1 6 26-2h21l5-2v-6l7-11 5-3 18-8 4-2 4 2v3l4-1 3 2-4 5-1 8 9-1 12-5 24-4h4l1 2v7l-1 1-25 2v2l19-1 7-1 22 2h9l12 3h6l9 2v2l3-1 7 3 14 2h30l12-2 19-2 55-5 29-6 10-3 3-3v-2l9-3 9 3h5l5 1 8 3v2l4 2 20 20 3 5 5 5 1 3h-492l-80-1 5-5 39-26 17-12 19-13 43-30 15-9z" fill="#3485D7"/>
<path transform="translate(203,564)" d="m0 0 67 1h3l2 1 1-2 1 1h15l3-1 4 1v2h92l1 34v34h-200l-1-1-4-57-1-1v-10l5-1h11z" fill="#54536C"/>
<path transform="translate(589,378)" d="m0 0 3 1h-2l2 4h7l5-2h12l10 4 4 4v2l-4 1-18-3 3 4 15 6 4 3-1 5-3 5 2-1h6l-1 3-4 3-4 1v-2l-23 6 14-1-4 2-13 4h-6l-6 2 3 3 2 1h10l16-1-4 2-5 1 10 1 2 2 3-1 3 2 2 5-6-2-2-1-34 1-8 6-14 7h-3v2l-7 2-19 1h-34v5h2v2l-6 1-21 1h-27l-3-1-3-8-5-5-1-6 4-8-4-3-9-1-4-1-5 2-1 1-21 2h-35l-5-1-23 6-5 2h-6l-2-2-9-1v-2l-7-1v-2l5-2 26-4 61-10 18-4 3 6 8 4 17 3h11l1-2 8-1 10-4 5-3 6-7 1-3-6-1 1-6 20-6 4-2 17-3 29-9 19-5 14-2z" fill="#0C172D"/>
<path transform="translate(304,401)" d="m0 0 30 2 3 1h22l20 1h37l1 2 3 1-1 5h-5l-3 5-20 4-37 6-34 6-12 2-2 1 2 3h-2v2l7 1v2h9l2 2 9-1 20-6 6-1 4 1h35l21-2 2-2 6-1 5 1 7 2 5 4-3 2-2 7 2 5 5 5 1 7h30l27-1v-2h-2l-1-3 1-2 10-1h24l19-1 7-1v-2l12-5 9-6 4-3 34-1 8 4h7l6-2 1-4h2v2h2v3l-6 3-9 2v2l5 3 7 11 9 10 1 2-4-2-12-12-2-1v-2l-5-1-7-1-3-1-6-1-7-2-6 2h-2l1 3-4 3-18 5-21 4-55 5-19 2-13 2h-29l-18-3-4-2-12-3-9-1-9-2h-9l-22-2-6 1h-19v-2l13-2 12-1v-9l-28 5-15 6-6-1v-8l2-3h2v-2l-6-1-1-3-5-1-8 5-15 6-8 12v6l-2 2-4 1h-21l-23 2-3-1v-6l-5-5-1-6 2-4 1-6 4-1 1-2h6l5 3h2l-1-2-2-3 1-1h6l1 4 5 2 2-6 4-3h6v2l11 1 6 4 7-3v-2l-5-1v-2l2-2-2-2 5-1h3l5-4h4l-2-4v-4h3v2l10 1v-2l-5-2-1-4 5-3h4l-1-6-12 6-9 6-8 4h-2v2l-9 6h-4v-2l9-6h2l1-3 13-8 10-6 6-4z" fill="#1B457F"/>
<path transform="translate(243,397)" d="m0 0h36l49 1 15 1v1h-40l-2 4-9 5-22 14-7 5-14 5-6 3h-2l1 3v9l-3-2v-2l-12-1-4-3h2v-2l-9 3-2 4-2 3v15l5 9 1 3-4 16-1 3-4 1h-112l5-5 39-26 17-12 19-13 43-30 15-9z" fill="#80ACEB"/>
<path transform="translate(408,161)" d="m0 0h16l33 1 59 1 13 1 1 5-1 42h-23l-3-1-1 3-75-1-3-1-14-1-3-3v-30z" fill="#5E5D5F"/>
<path transform="translate(573,369)" d="m0 0 8 1v1l-20 4-11 3-16 4-18 4-24 7-9 2v5l13-4 19-5 12-2 31-9 35-10 6-1h14l10 1v1l-18 2-24 6-30 8-19 6-16 4-11 2-7 3-14 4h-3l-1 6 6 1-1 4-6 7-12 6-7 2-5 1-3 1h-8l-17-3-9-5-2-5-18 4-42 7-23 4-22 3-5-1-3-2 17-3 40-7 48-8 3-1 3-5h5l1-4-4-1v-2l-40 1-20-1h-19l-3-1-30-2-5 6-11 6-16 10-3 3-7 5h-2v2l5-2 6-4h2v-2l15-8 5-4 11-5 2 5-1 2-8 3v3l5 3v2l-5 1-5-2v-2h-3l2 5v3l-7 3-4 3-4-1 1 1-1 3h-2v2h5v4l-5 2h-3l-5-3-9-1-2-1v-2l-8 2-3 5-1 2-6-2v-4l-6 1 1 2 2 1-3 3-5-3-6-1-1 3h-4v6l-3 6h-1v-15l5-7 5-3h4l2 4 12 2 2 3v-11l15-7 8-3 23-15 9-5 5-2 1-5h41l17-1v-2h37l7 2 1-3 15 1 3-1 3-4 13-3 9-1 3 1 1 2v6h3v-8h3v2l9-2 9 1 23-3 28-7 23-5z" fill="#5C5B5E"/>
<path transform="translate(670,274)" d="m0 0 8 2h15l13 3 9 5 8 7 7 10 7 14 5 16 3 19 1 12v12l-2 26h-1l-3-26-3-24-3-21-3-5-2-10-9-16-7-8-7-4-3-3-9-3-7-1-4 1 1 5 5 9 6 3 4 3v2h2l-3-7h2l3 5 2 1 1-2h2l3 3-7-8-8-6-7-2v-2h6l12 6 8 7 7 10 5 10 4 10 1 9 3 9 2 36v15l-1 4h-2v-3h-6v-2h-2v-3h-2l-8-24-7-25-3-8v-4l-4-1 6 20 2 12 4 14 4 22 1 15 2 15-2 2-1-5-2-2v-4-3l-2 2-3-2-1-11-3-8-6-29-6-25-1-11-7-18-4-8v-2l-4-2-4-8-8-11v-3l-6 2 4-6z" fill="#454345"/>
<path transform="translate(203,564)" d="m0 0 67 1h3l2 1 1-2 1 1h15l3-1 4 1v2h92v19l-2 1-4-10-4-1h-43l-29-1-18 1h-30l-20 2-9 1v-2l-15 3-11 6-4 2v2h-2l-1 6-5 5v28h175l22 1 1 5h-200l-1-1-4-57-1-1v-10l5-1h11z" fill="#4B4C5F"/>
<path transform="translate(548,387)" d="m0 0 3 1-7 4 3 3-8 1-7-1h-7l-3 9-8 5h-3l-1 7 4-2v-1h8v-2l-7 1-1-2 17-1 13 2 18 5 16 4 4 4 2 4v4h2l-1 6-5 5-6 4-16 3-28-1-3-2h-11l-2 1h-7l-2-2-1 2h-15l-1-1v-20l2-1-1-3h4v-2l5-2-7-2-4-2-2 5-5 3 2-4 3-3 1-3-6-1 1-6 20-6 4-2 17-3z" fill="#1D1C1D"/>
<path transform="translate(589,378)" d="m0 0 3 1h-2l2 4h7l5-2h12l10 4 4 4v2l-4 1-18-3 3 4 15 6 4 3-1 5-3 5 2-1h6l-1 3-4 3-4 1v-2l-23 6 14-1-4 2-13 4h-6l-6 2 3 3 2 1h16v1l-16 2-4-1v-2h-5l-1-7-2-4-8-3-18-4-16-4-13-1-10 1h7v2l-7 1-3 3-3-1 2-7 10-5 4-9 12-1 3 1 6-1-6-1 4-2 5-3h2v-2l19-5 14-2z" fill="#0C162D"/>
<path transform="translate(473,522)" d="m0 0 17 1 1 1v98l-2 69-1 6-3 1-64 1h-236l-32-1-3-1-1-13v-14l2 2 2 21 1 2 79 1h148l29-1 50-1 22-1v-78l1-18v-40l1-29h-41l-83-1h-190l-25-1v-2l190-1z" fill="#696A6C"/>
<path transform="translate(304,401)" d="m0 0 30 2 3 1h22l20 1h37l1 2 3 1-1 5h-5l-3 5-20 4-37 6-34 6-18 3-5 1-3-2-1-1-4-2 1-4-1-5h3v2l10 1v-2l-5-2-1-4 5-3h4l-1-6-12 6-9 6-8 4h-2v2l-9 6h-4v-2l9-6h2l1-3 13-8 10-6 6-4z" fill="#1C1B1D"/>
<path transform="translate(411,161)" d="m0 0 105 2 13 1 1 5-1 42h-23l-3-1-1 3v-2h-19v-2l-4-1-2-2 1-4 3-1v-8l1-6-3-9 1-5 4-5h4v-3l-59-1h-6l-1 3h-3v-2l-8-2z" fill="#70726E"/>
<path transform="translate(597,526)" d="m0 0h7l10 7 1 3 3 1 8 10 3 9-2 10-4 7-5 5-11 5h-11l-11-4-5-6-4-18 1-7 4-12 7-6z" fill="#702732"/>
<path transform="translate(670,274)" d="m0 0 8 2h15l13 3 9 5 8 7 7 10 7 14 5 16 3 19 1 12v12l-2 26h-1l-3-26-3-24-3-21-3-5-2-10-9-16-7-8-7-4-3-3-9-3-7-1-4 1 1 5 5 9 6 3 5 5v2l-4-1-6-4-3-1 3 9 5 7 5 13v3h2l6 20 2 12 4 14 4 22 1 15 2 15-2 2-1-5-2-2v-4-3l-2 2-3-2-1-11-3-8-6-29-6-25-1-11-7-18-4-8v-2l-4-2-4-8-8-11v-3l-6 2 4-6z" fill="#605F60"/>
<path transform="translate(573,369)" d="m0 0 8 1v1l-20 4-11 3-16 4-18 4-24 7-9 2v5l13-4 19-5 12-2 31-9 35-10 6-1h14l10 1v1l-18 2-24 6-30 8-19 6-16 4-11 2-7 3-14 4h-3l-1 6 6 1-1 4-6 7-12 6-7 2-10 2-2-4 2-2-1-4-2-1v-3h-3v-4h2l1-7 3-2 3-5 5-4v-6l-2 4-1-8h3v2l9-2 9 1 23-3 28-7 23-5z" fill="#4C4D60"/>
<path transform="translate(226,577)" d="m0 0h6v3l-12 3-8 5-4 2-2 8-5 7 4 1-3 3v9l1 1 26 3h22l14 1h25l20-1 13-2 12-2 5-3 1-1h12l8 4 13 3 4 1h9l3-2v-23l2 4v31l-1-2h-195l-2-1-1-7v-21l5-5 2-6h2v-2l7-5 8-4z" fill="#534E5F"/>
<path transform="translate(272,465)" d="m0 0 2 4 2 11 1 1 1 12 5 1 238 1v1h-344v-1l12-1h24l2-10 2-11-2-3 4 2-1 6 26-2h21l5-2v-6z" fill="#3082D4"/>
<path transform="translate(457,391)" d="m0 0 2 1v6l-7 6-2 5-2 1-2 6h-2v4h3v3l3 1 1 6-2 1 1 3-9-1-14-2-9-5-2-5-18 4-42 7-23 4-22 3-5-1-3-2 17-3 40-7 48-8 3-1 3-5h5l3-1v-10l10-2 2-3-4-1 7-1 2 1v-2l4-1h7l1 5 6-1z" fill="#575966"/>
<path transform="translate(788,652)" d="m0 0 4 1 8 5v2l8 4 4 11 6 9 5 2v1l-5 1 6 9 10 8 2 3 1 11-4 5-6 4-7-1-9-8-3-4-1-10-7-11-9-16v-10-4l1-4z" fill="#282728"/>
<path transform="translate(187,567)" d="m0 0 5 1 2 5 7 2-1 5-4 1-1 2h-2v20l1 26h175l22 1 1 5h-200l-1-1-4-57z" fill="#444244"/>
<path transform="translate(249,442)" d="m0 0h6v2l11 1 7 5 1 9-4 6-4 4-5 1-3 3-4-1-8-8-4-1-4 1-2 3h-2l-1 3h-3v2l-6 1-4-2-5-6v-2h2l-2-3v-9l4-1 1-2h6l5 3h2l-1-2-2-3 1-1h6l1 4 5 2 2-6z" fill="#1D1C1D"/>
<path transform="translate(486,574)" d="m0 0h2l1 9-1 63v41l-1 10-2 1-64 1h-236l-32-1-3-1-1-13v-14l2 2 2 21 1 2 79 1h148l95-1 7-1 1-30 1-74z" fill="#8D9FB7"/>
<path transform="translate(774,632)" d="m0 0 11 6 19 9 10 6 10 4 4 5 5 11-1 5-7 8-7-1-7-10-3-7v-4l-5-2-4-4-7-4h-2l3 6-1 4v4h-3l-12-20-4-4z" fill="#201F20"/>
<path transform="translate(138,526)" d="m0 0h2l3 27 6 67 2 26 2 12 1 5-1 6 1 15 1 7h2v2l11 1 213 2v1h-148l-79-1-2-3-2-21v25h-1l-2-18-3-36-4-52-3-41v-22z" fill="#79786E"/>
<path transform="translate(660,283)" d="m0 0h1l1 6 2-3v2l4 2 8 9 4 6v7h-2l-6-9-6-5h-3l3 5 8 9 8 16 3 7 2 9 1 8-2-4-4-9-9-21-6-8-3-3 1 5 5 8v5h2l10 30 2 8 1 11 2 12v9l-3 1-11-46-4-14-3-10-4-9-10-18-5-2-2-2-69-1v-1l20-1 1-1h25l3-2h11l9 2 5 4 6 1 3-5z" fill="#59585A"/>
<path transform="translate(292,452)" d="m0 0h10l2 1v4h2l2 6-1 4-7 3-8 1v2h-3l7 8 8 6 5 7-1 1h-25l-5-2-2-12-2-5-1-12 3-6 6-2 7-3z" fill="#6BA0E2"/>
<path transform="translate(243,397)" d="m0 0h36l49 1 15 1v1h-40l-2 4-9 5-22 14-7 5-14 5-6 3h-2l1 3v9l-3-2v-2l-12-1-4-3h2v-3l7-1 10-4 9-4 2-2 9-2 6-4h3v-2l7-2v-2l4-1 1-4-7-1h-5v2l-9-1-3-1-9-1-14 2-2-1-1-4h2v-4z" fill="#71A0DB"/>
<path transform="translate(696,618)" d="m0 0h29l5 2v24l22 1 4 2v11l-1 17-2 5-5 1h-21l-1 14-3 9-6 1 1-4h2l2-12 1-13 3-1h24l1-26h-15l-9-1-1-5 2-22-3 1h-28l-3 24-1 2-27 1-3 23h-2v-15l1-11 1-2h27l2-14 2-9z" fill="#444244"/>
<path transform="translate(332,465)" d="m0 0h2v2l19-1 7-1 22 2h9l12 3h6l9 2v2l3-1 7 3 14 2h30l12-2 19-2 66-6-2 2-20 4-13 2-10 2-15 1-8 2-30 1-17 1-4-1h-11l-19-2-17-4-16-2-6-1v-2l-4 1-9-2-14-1-28-1 1-2z" fill="#2877C9"/>
<path transform="translate(470,618)" d="m0 0 4 1 2 5 2 1 2 5 1 1v6l-2-3-2 6-1 7 3 1-1 2h-2l2 6 1 13 1 2-2 7-1 2-3 1-1 2h2l1-2v2l2 1-4 4h-7l-6-3 4-2 1-4 1-22-5-1h-4l-3-1v-2h-4l-4 1-1-2 3-7 19-3 1-4v-11l-2-3v-3h2z" fill="#67696B"/>
<path transform="translate(445,387)" d="m0 0 6 1 1 2v6l-2-3h-11v2l-5 1-2 4-9 2-1 9h-2v-3l-4-1v-2l-40 1-20-1h-19l-3-1-26-2v-1h34l13-1 4-2 1-2h37l7 2 1-3 15 1 3-1 3-4 13-3z" fill="#4A4B5E"/>
<path transform="translate(186,596)" d="m0 0 2 2 2 29 1 8h202l1-3h2l1 7-2 1h-24l-34-1h-31l-2-1v2h-49l-13-1-4 1h-6l-3 2h-6l-2-2h-9l-4 2-2-2h-17l-2-1-1-25z" fill="#6D6F6D"/>
<path transform="translate(449,659)" d="m0 0h18l1 4-1 16-1 4h-29l-1-1v-22z" fill="#434143"/>
<path transform="translate(704,405)" d="m0 0 3 1v32l-1 51-3 22-1 3h-2l-2 9h-3l1-20 2-19 2-14 1-63z" fill="#6C6A65"/>
<path transform="translate(646,302)" d="m0 0h3l5 10 4 21 3 39v15l-4 1-2-4-2-2-4-33-3-40z" fill="#4A4A5C"/>
<path transform="translate(457,391)" d="m0 0 2 1v6l-7 6-2 5-2 1-2 6h-2l2 8 3 1-3 1-4-1-2-1-1-6-18-1-1-1v-5h2v-10l10-2 2-3-4-1 7-1 2 1v-2l4-1h7l1 5 6-1z" fill="#71726D"/>
<path transform="translate(482,164)" d="m0 0h6l1 2-1 2-5 2-3 4v6l3 7-1 11-1 3-3 2 1 4 5 3 18 1v1h-20l-13-2v-3h2l2-5v-6l-2 1v-3l-5-2-6-5v-4h2l-3-7-6-2 1-2 5-1 3 1 1-2v2l9-3h3l3-1z" fill="#67686B"/>
<path transform="translate(589,378)" d="m0 0 3 1h-2l2 4h7l5-2h12l5 2v1h-15l-3 2-12 2-15 4-9 2-19 3-19 4-4 2-3 6h-8l5-4 3-3 3-7 12-1 3 1 6-1-6-1 4-2 5-3h2v-2l19-5 14-2z" fill="#090C15"/>
<path transform="translate(335,523)" d="m0 0h47v1l18 1 3 2h-233l-25-1v-2z" fill="#6D6E6D"/>
<path transform="translate(695,339)" d="m0 0 2 3 3 12 2 2 4 2-2-13 2-3 3 12 2 10 3 12 4 22 1 15 2 15-2 2-1-5-2-2v-4-3l-2 2-3-2-1-11-3-8-6-29-6-25z" fill="#444244"/>
<path transform="translate(741,591)" d="m0 0h25v11l-2 13h-21l-4-2v-10z" fill="#6F2832"/>
<path transform="translate(555,310)" d="m0 0h7v2h2l1 7-4 2-8 1-40 1-10-2-3-6 1-4 3 1h39l10-1z" fill="#0C172E"/>
<path transform="translate(489,429)" d="m0 0h14l2 6h9l29 2v6l-3 5h-4l-1-4h-8v-3h-2l-1 4-5-1v-2h-2v2l-6 3-3-1-2-5h-2l-1 5-1 1h-14v-17z" fill="#454345"/>
<path transform="translate(689,284)" d="m0 0h6l12 6 8 7 7 10 5 10 4 10 1 9 1 1 2 25v21l-2 4-2-2-3-15-1-32-4-19-3-2h-2l-4-11-2-5-8-7-8-6-7-2z" fill="#A3A4A8"/>
<path transform="translate(203,564)" d="m0 0 67 1h3l2 1 1-2 1 1h15l3-1 4 1v2h92v1l-56 1h-55l-16 1-13-1-5 1-3 1-10-1-23-2v2l-9-1-9 3-1-4-4-1v9h-1v-10l5-1h11z" fill="#54505E"/>
<path transform="translate(700,626)" d="m0 0h24v20l-2 2h-24v-11z" fill="#585758"/>
<path transform="translate(390,597)" d="m0 0 2 4v31l-1-2h-69l-7-1v-3l8-2 14-1 1-1h7l3-3 8 1h7l10 4 10-1 7-3z" fill="#4B4C5F"/>
<path transform="translate(581,370)" d="m0 0h9l-1 2-24 7-42 12-11 2-27 7h-2l-1-5 6-2 26-7 16-4 14-4 15-3 16-4z" fill="#1D1C1D"/>
<path transform="translate(220,560)" d="m0 0h46l30 1 6-1h27l-2 6h-25-3l-6-1v1h-16l-5-1-2 1-69-1 1-3zm97 1v1h6v-1z" fill="#67696B"/>
<path transform="translate(725,652)" d="m0 0h22l2 1-1 20-1 1h-20l-3-1-1-2v-8z" fill="#7E7B6E"/>
<path transform="translate(210,448)" d="m0 0h1l1 15 5 9 1 3-4 16-1 3-4 1h-112l5-5 13-9h4v2l6-1v2l-5 1-1 5-3 2h92l2-1 4-14h-3v-2l-4-1 2-8v-17z" fill="#6AA0E2"/>
<path transform="translate(463,398)" d="m0 0h3v2h6l3 3 5 2v7l6 1-1 4-6 7-12 6h-6l-1-3v-4l-3-3h3v-4h2l-2-1v-2h2l1-9-1-4z" fill="#534E5E"/>
<path transform="translate(697,676)" d="m0 0h22v17l-2 5-3 1h-12l-7-2v-13l1-7z" fill="#585759"/>
<path transform="translate(664,587)" d="m0 0 1 2 22 1v15l-1 7h-24z" fill="#444245"/>
<path transform="translate(356,398)" d="m0 0 3 1-4 2-13 1h-38l-5 6-11 6-16 10-3 3-7 3-12 5h-2l-2 4-2 1-1 11-6-2v-4l-6 1 1 2 2 1-3 3-5-3-6-1-1 3h-4v6l-3 6h-1v-15l5-7 5-3h4l2 4 12 2 2 3v-11l15-7 8-3 23-15 9-5 5-2 1-5h41z" fill="#6A6B6B"/>
<path transform="translate(671,651)" d="m0 0h22v20l-3 2-21-1-1-1 1-17z" fill="#5A595A"/>
<path transform="translate(739,545)" d="m0 0h30l5 4 5 6-1 4h-18l-22-1z" fill="#464546"/>
<path transform="translate(813,700)" d="m0 0h1v7l1 3 15-6 4 1 2 3 1 11-4 5-6 4-7-1-9-8-3-4v-10h3z" fill="#302F30"/>
<path transform="translate(797,668)" d="m0 0 11 6 7 8 8 4v1l-5 1 6 9 8 6-2 2-11 5h-4l-2-5-1-7-1-4h-2v-3h-2l-3-6-7-11v-2h-2v-3z" fill="#9E9FA3"/>
<path transform="translate(608,452)" d="m0 0 7 2 8 1 5 1 8 3v2l4 2 11 11-3 1-7-6-9-3v-2l-2 1v2h-9l-9-3-5 1-9 1-11-2 4-2 9-4v-3z" fill="#2877C9"/>
<path transform="translate(286,663)" d="m0 0h21l3 1 1 3v12l-4 2-14 1-3-2v-2h-4l-2-3v-7z" fill="#73736D"/>
<path transform="translate(698,652)" d="m0 0h22v13l-1 7h-22v-16z" fill="#7D7A6E"/>
<path transform="translate(735,316)" d="m0 0 3 2 4 13 3 19 1 12v12l-2 26h-1l-3-26-3-24-3-21-3-5 1-4 2-3z" fill="#5C5B5C"/>
<path transform="translate(460,395)" d="m0 0 4 1-1 5 1 8-2 4h-2v2l3 1-3 1 1 4h-3l3 2v6l3 2-8 1-6 2-2-4 2-2-1-4-2-1v-3h-3v-4h2l1-7 3-2 3-5 6-5z" fill="#454345"/>
<path transform="translate(628,387)" d="m0 0 5 2 7 4 3 4 1 6-4 9-2 3-8 1 4-5-8 1 1-4 2-2-1-5-14-6-5-3-1-3h8l11 2h3z" fill="#080C15"/>
<path transform="translate(363,663)" d="m0 0h22l1 1v15l-1 1h-20l-3-2v-13z" fill="#9A9B9F"/>
<path transform="translate(425,660)" d="m0 0 3 1v19l-4 1-8 1h-14l-2-1v-17l1-2h7l3 2v14l4-1 1-15 4 2v14l3-1 1-16z" fill="#939596"/>
<path transform="translate(660,283)" d="m0 0h1l1 6 2-3v2l4 2 8 9 4 6v7h-2l-6-9-6-5h-3l3 5 8 9 8 16 3 7 2 9 1 8-2-4-4-9-9-21-6-8-3-3-2 2-7-10 4-8z" fill="#494749"/>
<path transform="translate(486,574)" d="m0 0h2l1 9-1 63v41l-1 10-2 1h-9l1-3 6-1 1-30 1-74z" fill="#9B9FA4"/>
<path transform="translate(224,662)" d="m0 0 8 1 1 1v8h-4l-1-6h-6l1 9h3v3l6-2 2-2 1 5-6 2h-6l-3-1-9 1-3-1v-16l1-1z" fill="#72726E"/>
<path transform="translate(488,537)" d="m0 0 2 4v74l-1 76-1 6h-1v-51l1-67v-5h-2v11h-1v-35l1-12z" fill="#79776D"/>
<path transform="translate(625,289)" d="m0 0h11l9 2 5 4 5 2 10 15 5 8 3 16-3-1-6-12-4-10-8-14-5-2-2-2-69-1v-1l20-1 1-1h25z" fill="#73736D"/>
<path transform="translate(138,526)" d="m0 0h2l3 27v10l-2-4 1 25 3 40 3 39 2 21v13h-1l-2-18-3-36-4-52-3-41v-22z" fill="#6B6C6C"/>
<path transform="translate(327,664)" d="m0 0h18l3 2v13l-5 1h-13l-5-3v-10z" fill="#999B9E"/>
<path transform="translate(575,397)" d="m0 0h7l11 3 1 4-4 3-9 3-11-1-9-5h-3l-4-1-1-3 7-2h13z" fill="#1B4680"/>
<path transform="translate(702,454)" d="m0 0 2 1 1 29-1 22-2 8h-2l-2 9h-3l1-20 2-19 3-17z" fill="#9B9D9F"/>
<path transform="translate(787,640)" d="m0 0 9 3 11 6 9 5 8 3 4 5 2 6-1 1v7l-1-3-4-2-2-3v-3h-2v-4l-6-1-3 4-4-2-4-7-14-12z" fill="#434143"/>
<path transform="translate(699,306)" d="m0 0 4 2 5 17 7 20 7 21-1 5 1 2-1 5h-2l-8-28-10-30-2-10z" fill="#5A595B"/>
<path transform="translate(439,418)" d="m0 0h1v6l8 1-4-4 3-1v3l3 1 1 6-2 1 1 3-9-1-14-2-9-5-1-5 7 1 2-2h8z" fill="#5E5C5E"/>
<path transform="translate(137,522)" d="m0 0h41l157 1v1h-190v2h18v1h-22v9h-1v-10h-2l-1 13h-1v-16z" fill="#59596A"/>
<path transform="translate(577,548)" d="m0 0h1l4 21 3 5 7 3h3l3 1 1-4 3-1h8l9-8 3-3 1 3-5 5-3 5-5 4 11-5-1 3-13 6h-11l-11-4-5-6-4-18z" fill="#4F4E63"/>
<path transform="translate(688,305)" d="m0 0 4 5 4 7 4 10v3h2l3 9v7l2 9-1 4-4-2h-2l-5-18v-7l1-3-5-12-3-6z" fill="#5C5B5D"/>
<path transform="translate(437,552)" d="m0 0 7 1v12l-1 6h-14l-1-2-1-15 1-1z" fill="#444244"/>
<path transform="translate(407,553)" d="m0 0h17l1 3-1 9-3 5-2 1h-9l-3-6z" fill="#444244"/>
<path transform="translate(596,369)" d="m0 0h17l10 1v1l-18 2-24 6-30 8-10 2-4-1 23-7 5-3z" fill="#545465"/>
<path transform="translate(665,280)" d="m0 0h2l4 7 7 10 3 6 3 3 6 12 5 14v6l-2-3-1-6-2-1-1-7-1 1 1 7-3-3-6-11-1-3v-7l-10-13-5-4 1 1-3 1-1-1v-7z" fill="#403E40"/>
<path transform="translate(140,550)" d="m0 0h1l2 15 4 45 1 11v16l1 9v24h-1l-1-7-3-39-4-57z" fill="#8F9090"/>
<path transform="translate(686,297)" d="m0 0 8 3 3 3 3 1v-2l5 2 4 11 1 5-3 1-5-13-2-1 1 11 4 11-1 2-4-1-6-16-6-9-2-5z" fill="#434143"/>
<path transform="translate(436,660)" d="m0 0h6l-1 20 4-1 2-8v-6h2l1 14 4 1 9-1 1-9v-9h3v18l-1 4h-29l-1-1z" fill="#444244"/>
<path transform="translate(249,662)" d="m0 0h21v3l-4-1 1 2v6l-2 5-11-1-2-5-1-6-2-1v6h2l1 9 3 1h-6v-2h-2v-15z" fill="#75746C"/>
<path transform="translate(432,602)" d="m0 0h11l1 1v15l-2 2-13-1-1-1v-14z" fill="#444244"/>
<path transform="translate(485,594)" d="m0 0h1l-1 70-1 30-1 1-7 1h-66v-1l50-1 22-1v-78l1-11h2z" fill="#77766D"/>
<path transform="translate(407,577)" d="m0 0h15l1 1v11l-1 4-10 1-4-1-2-10v-5z" fill="#444244"/>
<path transform="translate(276,416)" d="m0 0m-1 1v3l-11 7-12 5-9 4h-2l1 3v9l-3-2v-2l-12-1-4-3h2v-3l7-1 10-4 9-4 2-2 9-2 6-4h3v-2z" fill="#6CA0E2"/>
<path transform="translate(166,661)" d="m0 0h31l2 7v14l-5 2-2-2 3-2v-12l-1-4-6 1v3h-2l-3-3-2 1 4 8-4-1-4-8-7-2 1 15 1 5h-4l-2-9z" fill="#444244"/>
<path transform="translate(707,281)" d="m0 0 5 1 10 8 8 11 7 14-2 4-3 2-8-16-7-11-5-6 1-2h-2v-2l-4-1z" fill="#68686A"/>
<path transform="translate(453,602)" d="m0 0h13l2 1v8l-1 6-9 2h-5l-1-1v-15z" fill="#444244"/>
<path transform="translate(430,577)" d="m0 0h12l2 2v14l-1 1h-11l-3-1v-15z" fill="#444244"/>
<path transform="translate(658,349)" d="m0 0h1l2 23v15l-4 1-2-4-2-2-2-17v-10l1 3h4z" fill="#4A4B5D"/>
<path transform="translate(411,602)" d="m0 0h11l1 1v12l-1 4h-10l-5-5v-11z" fill="#444244"/>
<path transform="translate(287,420)" d="m0 0 5 2-4 1v9l-8 6-2-1 1-1-7-2 1 4h-2l1 3-2 3-2-1v-2h-3v-2h-2l1-4h2l1-3 11-6z" fill="#63656A"/>
<path transform="translate(425,402)" d="m0 0h10l5 2 1 7-4 5h-15l-1-5 3-8z" fill="#FCFCFC"/>
<path transform="translate(445,387)" d="m0 0 6 1 1 2v6l-2-3h-11v2l-5 1-2 4-9 2-1 9h-2v-3h-3l2-9 7-8 13-3z" fill="#696A6B"/>
<path transform="translate(341,561)" d="m0 0h51l2 2v5l-2 1-1-2-24-1h-12l-12-1-4-3z" fill="#686A6C"/>
<path transform="translate(573,369)" d="m0 0 8 1v1l-20 4-11 3-16 4-18 4-7 2h-6l3-4 26-6 36-8z" fill="#6B6B69"/>
<path transform="translate(452,577)" d="m0 0h14l2 1v12l-1 2h-13l-2-3z" fill="#444244"/>
<path transform="translate(303,409)" d="m0 0 3 3-1 4-8 3v3l5 3v2l-5 1-5-2v-2h-3l2 5v3h-3v-9l3-1-4-1-16 10-4 2-3 3-5-1-1-3 1-2 5-1-2 3h-2v2l5-2 6-4h2v-2l15-8 5-4z" fill="#4C4C5E"/>
<path transform="translate(221,438)" d="m0 0h4l2 4 12 2 1 6-3-1v-4l-6 1 1 2 2 1-3 3-5-3-6-1-1 3h-4v6l-3 6h-1v-15l5-7z" fill="#4B494A"/>
<path transform="translate(223,454)" d="m0 0h2v2l5-1 5 2 3 4-4 5-6 1 2 5-6 1-4-2-4-4 1-3h2l-3-9h5v3h-2l1 2 3-1-1-4z" fill="#0C172D"/>
<path transform="translate(452,626)" d="m0 0h14l3 3-4 6h-4l-2 4h7l2 1v2l-16 1-1-1v-5h2l-2-10z" fill="#444244"/>
<path transform="translate(597,526)" d="m0 0h7l10 7v3l-9-3-13 2-4 3h-2v2l-4 1-3 12h-1v-8l3-9 7-6z" fill="#191A20"/>
<path transform="translate(281,472)" d="m0 0h5l5 8 8 5-1 4-5 1h-10l-2-3v-7l-4-2v-5z" fill="#7FACEB"/>
<path transform="translate(489,429)" d="m0 0h14v10l-3 6-11 1z" fill="#5E5D5F"/>
<path transform="translate(698,652)" d="m0 0h22v13l-1 7h-22v-16zm1 1-1 9v9h19l1-1 1-11-3-2-1 7-5-1-4-6 1-3z" fill="#646563"/>
<path transform="translate(453,553)" d="m0 0h13l1 1v12l-8 3v-2l-6-1-1-5v-7z" fill="#444244"/>
<path transform="translate(315,405)" d="m0 0h15l1 1 10 2v3l-8 1 1-3-7 1-2 2v3l-6 2h-2l-1-3-1 4-2-2 1-2h-2l-2-4-3-1 3-3 3 1v3h2l-1-4z" fill="#0C1527"/>
<path transform="translate(354,427)" d="m0 0h5l-4 2-3 1h11v1l-52 8-5-1-3-2 17-3z" fill="#3F4A68"/>
<path transform="translate(367,666)" d="m0 0h14l2 2v8l-3 2h-13z" fill="#212021"/>
<path transform="translate(741,337)" d="m0 0 2 1 2 12 1 12v12l-2 26h-1l-3-26v-6l2 3-1-22-1-3 1-3z" fill="#555355"/>
<path transform="translate(645,308)" d="m0 0 2 1v24h-1l-1 7-1 17v21l-8-2-8-3 3-1 7 1 2-6 2-22 2-29z" fill="#0B1428"/>
<path transform="translate(725,652)" d="m0 0h22l2 1-1 20-1 1h-20l-3-1-1-2v-8zm3 1-1 18 1 1h19v-17l-1-1-9-1z" fill="#585759"/>
<path transform="translate(115,481)" d="m0 0h4v2l6-1v2l-5 1-1 5-3 2 1 2-11 1h-9l5-5z" fill="#6BA0E1"/>
<path transform="translate(430,627)" d="m0 0h13l1 1v8l-2 3h-13l-1-1v-10z" fill="#444244"/>
<path transform="translate(528,181)" d="m0 0h1v26l-1-4h-3v-3h-5l-2-1h-6l-1-3 9-2v-2l-8-1 1-4 15 3z" fill="#7C7A6E"/>
<path transform="translate(224,662)" d="m0 0 8 1 1 1v8h-4l-1-6h-6l-1 6-4-6h-6v10l9 1v3l-9 1-3-1v-16l1-1z" fill="#848481"/>
<path transform="translate(701,627)" d="m0 0h16v3l-11 3-2 2-1 8 15 1 2 2-1 1-11 1-9-1 1-14z" fill="#7D7A6D"/>
<path transform="translate(457,391)" d="m0 0 2 1v6l-8 7-3-1v-3l-5-1v-3l-7 3-4-1 2-3-4-1 7-1 2 1v-2l4-1h7l1 5 6-1z" fill="#606163"/>
<path transform="translate(680,351)" d="m0 0 2 4 2 8 1 11 2 12v9l-3 1-7-29v-5l3 3 1 6v-7l-1-4z" fill="#444244"/>
<path transform="translate(660,283)" d="m0 0h1l1 6 2-3v2l4 2 8 9 4 6v7h-2l-6-9-6-5v-2h-9l2-5z" fill="#626261"/>
<path transform="translate(414,627)" d="m0 0 8 1 1 1v9l-2 3h-6l-4-2-3-8v-3z" fill="#444244"/>
<path transform="translate(797,658)" d="m0 0h3v2l8 4 4 11 4 6-1 2-8-9-8-4-4-1-1 2 1-9z" fill="#5A5859"/>
<path transform="translate(187,567)" d="m0 0 5 1 2 5 7 2-1 5-4 1-1 2h-2l-1 7-3 2-2-15z" fill="#444244"/>
<path transform="translate(330,667)" d="m0 0h3v6h2v-6h10v10l-1 1h-9l-6-2-1-1v-7z" fill="#4D4C4D"/>
<path transform="translate(727,338)" d="m0 0h1l1 32 3 15 1 1 1-3v-21l-1-21 2 4 1 15v34l-1 2h-2l-8-26 1-7z" fill="#666562"/>
<path transform="translate(393,578)" d="m0 0 2 1 1 23v16l-1 8-2 1-1-3v-45z" fill="#686A6C"/>
<path transform="translate(541,412)" d="m0 0 11 1 16 5 1 2-4 1-8-2-6 2-2 3-3-2-1 5h-3l2-12-5-1z" fill="#444244"/>
<path transform="translate(143,563)" d="m0 0h1l5 57 2 26 2 12 1 5-1 6-1 3-1-2-2-22-1-2-1-10v-15l-4-43-1-14z" fill="#6E706D"/>
<path transform="translate(504,441)" d="m0 0h2l3 5 8-2v-2h2l1 2h4l1-3h2v3l8-1 1 5h4l1-3 1 2 20 1-4 2-28-1-3-2h-11l-2 1h-7l-2-2-1 2h-15v-1l13-1z" fill="#1D1C1D"/>
<path transform="translate(699,306)" d="m0 0 4 2 5 17 4 11v10l-4-5-7-21-2-10z" fill="#5E5D5F"/>
<path transform="translate(787,640)" d="m0 0 9 3 11 6 9 5 4 1v3h-5l-5-3-2 1v2h-3l-5-6-10-8z" fill="#9EA0A3"/>
<path transform="translate(774,632)" d="m0 0 11 6 5 5 6 5-2 1h-7v-2l-2 1v3l-5-4-3-6-1-1-1 6-2-2z" fill="#4B494B"/>
<path transform="translate(413,658)" d="m0 0 10 1-1 2h-22v20h23v2l-8 1h-17l-1-1v-23l1-1z" fill="#474547"/>
<path transform="translate(393,632)" d="m0 0h3l1 7-2 1h-24l-15-2 1-2 36-1z" fill="#70726D"/>
<path transform="translate(581,437)" d="m0 0 1 4-8 6-8 2-25-1 1-3 20-1 11-2z" fill="#525359"/>
<path transform="translate(457,459)" d="m0 0h21v3l-9 3-15 1-4-1-1-4z" fill="#080C15"/>
<path transform="translate(671,675)" d="m0 0h21v19l-2 5-2-1v-13l2-6h-18l-2-1z" fill="#444244"/>
<path transform="translate(618,539)" d="m0 0 6 5 4 7 1 8-3 10-4 5-12 6-3-1 8-5 4-6 3-3h2l1-13-3-6-4-5z" fill="#4C444C"/>
<path transform="translate(561,379)" d="m0 0 3 1-10 4-13 4 4 1-17 5h-20l4-2 18-4 28-8z" fill="#4A4A5A"/>
<path transform="translate(138,526)" d="m0 0h2l3 27v10l-2-4-1 5-2-1-1-13v-22z" fill="#6D6F6D"/>
<path transform="translate(719,331)" d="m0 0 5 1v2l3 1v10l-1 13-2-1-4-11-1-7z" fill="#1D1C1D"/>
<path transform="translate(597,291)" d="m0 0h43l4 1v2h-68v-1l20-1z" fill="#6F9FD6"/>
<path transform="translate(425,660)" d="m0 0 3 1v19l-4 1-8 1h-14l-2-2 19-1v-9h1v8l3-1 1-16z" fill="#76746B"/>
<path transform="translate(698,678)" d="m0 0h2l1 6h1v9l8-1 6 1-1 4h-18l-1-5 1-11z" fill="#7C796D"/>
<path transform="translate(444,416)" d="m0 0 7 1 1 9 4-1v-2l4-1 1 5v2l3 2-8 1-6 2-2-4 2-2-1-4-2-1v-3h-3z" fill="#444244"/>
<path transform="translate(268,663)" d="m0 0 3 2v8l-2 6-14 1-3-1-2-8-2-1 1-6 3 1 2 10 11 2 1-11v-2z" fill="#9D9FA3"/>
<path transform="translate(665,280)" d="m0 0h2l4 7 7 10 5 10v3h-2l-4-8-9-11-4-3 1 1-3 1-1-1v-7z" fill="#1E1D1E"/>
<path transform="translate(672,528)" d="m0 0 1 2-1 11h2l1 9-5 3h-2l-1 3v-8l1-5-1-9 2-5z" fill="#757987"/>
<path transform="translate(297,665)" d="m0 0 4 1 1 6 4-1-1 6-2 1h-9l-2-1 2-9z" fill="#454345"/>
<path transform="translate(466,401)" d="m0 0 5 1 1 3 6-1 2 1 1 9-2 1-10-2v-5l-3-1-1-5z" fill="#6F6F72"/>
<path transform="translate(732,658)" d="m0 0 11 1 3 6-1 3-3 1-12-1z" fill="#5E5D5F"/>
<path transform="translate(414,414)" d="m0 0h6l1 2 18 1-1 2-6 2h-6l-4 2-8-2h-6l1-2 4-2z" fill="#72736D"/>
<path transform="translate(228,436)" d="m0 0h13l1 3v9l-3-2v-2l-12-1-4-3h2v-3z" fill="#9D9FA3"/>
<path transform="translate(362,397)" d="m0 0h27v2l-5 2-8 1-1 1h-7l-7-3z" fill="#54536C"/>
<path transform="translate(788,652)" d="m0 0 4 1 7 4-3 5-1 9 4 4-1 2-2-1v-2h-2l3 9v4l-3-4-3-5v-10-4l1-4z" fill="#444244"/>
<path transform="translate(464,661)" d="m0 0h3v18l-1 3h-22l3-1v-16h2l1 14 4 1 9-1 1-9z" fill="#1D1C1D"/>
<path transform="translate(445,387)" d="m0 0 6 1 1 2v6l-2-3h-11v2l-5 1-2 4-5-2 1-4 10-3-2-2z" fill="#4E5067"/>
<path transform="translate(622,562)" d="m0 0 1 3-5 5-3 5-4 3-12 1v-5l3-1h8l9-8z" fill="#8F8F8D"/>
<path transform="translate(302,412)" d="m0 0 2 1-7 4v5l5 3v2l-5 1-5-2v-2h-3l2 5v3h-3v-9l3-1-2-2 5-5z" fill="#4D4F61"/>
<path transform="translate(293,664)" d="m0 0h11l6 1 1 2v9l-2 3h-3v-13h-3l1 6h-2l-2-6h-5l-2 6-2-3-1-4z" fill="#9D9FA3"/>
<path transform="translate(400,661)" d="m0 0h19v3l-3-2v15l-5 1-1-14-9-2-1 2z" fill="#6D6D68"/>
<path transform="translate(125,492)" d="m0 0h26l8 1v2h-53v-1z" fill="#609BE0"/>
<path transform="translate(689,284)" d="m0 0h6l12 6 8 7-1 3-5-1-7-7-6-4-7-2z" fill="#959699"/>
<path transform="translate(672,498)" d="m0 0 9 3-3 1v6l-4 1v6l2 2v7l-1 4h-2v-10l-2-6v-12z" fill="#172136"/>
<path transform="translate(470,419)" d="m0 0 6 2h3v3l-12 6h-6l1-6 4 1 1-3h2z" fill="#5B5A5D"/>
<path transform="translate(407,177)" d="m0 0h1v19l5-3 13 2-3 3h-3v2l-12-2v9h-1z" fill="#84847E"/>
<path transform="translate(529,414)" d="m0 0h7v3l-1 3h-2l1 3h-2v-2l-4 1-8-3-1-3z" fill="#444244"/>
<path transform="translate(273,457)" d="m0 0 1 2-4 6-4 4-5 1-3 3-4-1 3-4-5-1-2-2 4-1 10 1 5-4h2v-3z" fill="#0D172C"/>
<path transform="translate(430,400)" d="m0 0 11 2 2 2v12l-1 1h-21l-1-1v-5l2 4h15l3-4-1-7-4-1h-10l-2 1-1-3z" fill="#9D9FA3"/>
<path transform="translate(661,295)" d="m0 0 5 1-1 2h-2l3 5 5 6h-5l-2-2-2 2-7-10 1-3z" fill="#424042"/>
<path transform="translate(354,427)" d="m0 0h5l-4 2-3 1h11v1l-20 3h-13v-2l14-3z" fill="#4A4E67"/>
<path transform="translate(729,303)" d="m0 0 3 1 5 11-2 4-3 2-6-13v-3h2z" fill="#6A6B6B"/>
<path transform="translate(590,546)" d="m0 0h2l-1 6-3 3 1 10 3 8-4-1-4-7v-9l1-3h2l1-5z" fill="#919190"/>
<path transform="translate(268,423)" d="m0 0 2 1-4 5-18 6-2 4-2 1-1 11-3-1 1-3v-11l15-7 8-3z" fill="#66686A"/>
<path transform="translate(736,340)" d="m0 0 3 3 3 6 1 23-2-1-2-6-2-15z" fill="#575557"/>
<path transform="translate(707,305)" d="m0 0 3 1 3 7 1 11h2l1 11h-2l-5-17v-3h-2z" fill="#5C5B5D"/>
<path transform="translate(676,658)" d="m0 0h9l1 1-1 7-9 1-1-1v-7z" fill="#444244"/>
<path transform="translate(602,541)" d="m0 0h6l8 5 5 5 1 5h-3l-5-7-7-3h-5l-1-4z" fill="#807E74"/>
<path transform="translate(404,663)" d="m0 0h4l1 2v12h-7v-8z" fill="#666562"/>
<path transform="translate(272,434)" d="m0 0 7 1-3 3v3h-2v2h5v4l-5 2h-3l-2-2 1-4 1-5h2z" fill="#4F4F67"/>
<path transform="translate(728,316)" d="m0 0 3 1 2 9 2 3 1 17-2-1-3-9-1-9-3-7z" fill="#2D2C2D"/>
<path transform="translate(522,380)" d="m0 0h7l-1 3-14 4-11 1 3-4z" fill="#6A6A68"/>
<path transform="translate(663,311)" d="m0 0 4 4 3 5 3 16-3-1-6-12v-8z" fill="#616161"/>
<path transform="translate(411,161)" d="m0 0 46 1v1l-34 1-1 3h-3v-2l-8-2z" fill="#80817D"/>
<path transform="translate(376,666)" d="m0 0h5l2 2v8l-3 2h-13v-1l8-1z" fill="#494849"/>
<path transform="translate(249,439)" d="m0 0 7 1v2l5-1 2 1v-2l5 1 2 7-4-2-9-1-2-1v-2l-8 2-3 2 2-4z" fill="#424042"/>
<path transform="translate(221,438)" d="m0 0h4l2 4 9 1v1h-19l-3 3-2 16h-1v-15l5-7z" fill="#6A6C6C"/>
<path transform="translate(646,302)" d="m0 0h3l4 9-2 13-2-1-1-9-2-5z" fill="#535468"/>
<path transform="translate(223,454)" d="m0 0h2v2l5-1 5 2 1 3-3 4h-5l-5-5-1-4z" fill="#080C15"/>
<path transform="translate(741,337)" d="m0 0 2 1 2 12v17h-3l-1-18-1-3 1-3z" fill="#444243"/>
<path transform="translate(669,292)" d="m0 0 5 5 6 8v7h-2l-6-9-6-5 4-1-1-3z" fill="#545254"/>
<path transform="translate(208,492)" d="m0 0m-36 0 36 1v1l-21 1h-28v-2z" fill="#6CA1E3"/>
<path transform="translate(445,407)" d="m0 0h5l-2 4-2 5h-2l2 8 3 1-3 1-4-1-2-1-1-7 5-3v-6z" fill="#676868"/>
<path transform="translate(564,379)" d="m0 0h8l-2 1v2l-22 6-11 1 3-2 20-6z" fill="#5F6064"/>
<path transform="translate(434,661)" d="m0 0 2 1v19l-4 2v-19z" fill="#73746D"/>
<path transform="translate(187,567)" d="m0 0h3l2 10-1 13-2 2-2-15z" fill="#1D1C1D"/>
<path transform="translate(581,370)" d="m0 0h9l-1 2-16 5h-5l-1-4z" fill="#16171C"/>
<path transform="translate(429,662)" d="m0 0h3v19l-4 1v-19z" fill="#444244"/>
<path transform="translate(310,428)" d="m0 0h9l-2 3 4 2-1 1-15 1-1-3h2v-2z" fill="#0C1424"/>
<path transform="translate(391,666)" d="m0 0h4l1 8-1 9-5 2 1-9 2-4h-2l-1-5z" fill="#67696B"/>
<path transform="translate(443,662)" d="m0 0 2 1 1 5v9l-3 3h-2v-17z" fill="#68696A"/>
<path transform="translate(676,598)" d="m0 0 7 1v4l-6 4-5-2-1-3 2-3z" fill="#1D1C1D"/>
<path transform="translate(494,405)" d="m0 0h2l1 5-5 3h-8v-2h-3v-2z" fill="#080C15"/>
<path transform="translate(443,392)" d="m0 0h7v4l-8 1-6 3-4-1 2-3-4-1 7-1 2 1v-2z" fill="#6E7071"/>
<path transform="translate(809,654)" d="m0 0 5 2 6 2v-2l5 2-3 3-8-1-3 4-4-2-1-4h2z" fill="#6D6B64"/>
<path transform="translate(487,415)" d="m0 0 5 2 7 2-3 2h-3v2h-12l5-6z" fill="#080C15"/>
<path transform="translate(698,497)" d="m0 0h1l2 17-3 9h-3l1-12z" fill="#F6F6F7"/>
<path transform="translate(689,278)" d="m0 0h14l5 2v3l3 1v2h2l-1 3-4-2-5-4-9-3-5-1z" fill="#5E5E64"/>
<path transform="translate(365,425)" d="m0 0h11v2l-13 3-16 1 4-2z" fill="#606269"/>
<path transform="translate(642,360)" d="m0 0h1l1 18-8-2-8-3 3-1 7 1 3-12z" fill="#0B1428"/>
<path transform="translate(687,305)" d="m0 0 2 4 2 6 5 11 1 7-3-1-7-18-2-8z" fill="#676768"/>
<path transform="translate(797,664)" d="m0 0 7 1 6 9-1 2-4-3-8-4h-2l1-4z" fill="#7A786E"/>
<path transform="translate(548,387)" d="m0 0 3 1-7 4 3 3-8 1-7-1h-4v-2z" fill="#141923"/>
<path transform="translate(735,316)" d="m0 0 3 2 4 13 1 7h-3l-2-10-2-4-4-2-1 2 1-4 2-3z" fill="#545253"/>
<path transform="translate(658,349)" d="m0 0h1l1 7v12l-5-1-2-4v-5h3z" fill="#444244"/>
<path transform="translate(652,311)" d="m0 0 2 1 2 16-1 5-1-3-3 1-1-7z" fill="#514D5D"/>
<path transform="translate(255,666)" d="m0 0h9l1 5-3 2h-7l-1-1v-5z" fill="#1D1C1D"/>
<path transform="translate(707,632)" d="m0 0h6l1 1v7l-1 3h-5l-1-4z" fill="#444244"/>
<path transform="translate(253,666)" d="m0 0 2 1v5h8l1-5 3-1v6l-2 5-11-1-1-1z" fill="#5E5D5B"/>
<path transform="translate(488,393)" d="m0 0h8l3 2-7 3-9 2-1-5z" fill="#161820"/>
<path transform="translate(708,515)" d="m0 0 14 2 3-2h3l1 3-1 1h-21l-2-1v-2z" fill="#5A5858"/>
<path transform="translate(581,437)" d="m0 0 1 4-8 6-10-1-2-2 11-2z" fill="#4B4A5B"/>
<path transform="translate(725,652)" d="m0 0 2 1-1 16-1 3 22 1v1h-20l-3-1-1-2v-8z" fill="#444244"/>
<path transform="translate(469,629)" d="m0 0h1v9l-2 4v-2l-9-1 2-5 5-1z" fill="#5E5D5F"/>
<path transform="translate(140,550)" d="m0 0h1l2 15 1 17-1 2h-2l-1-17z" fill="#7F7C70"/>
<path transform="translate(614,436)" d="m0 0h5l2 2 3-1 3 2 2 5-6-2-2-1-11-1-3-1v-2z" fill="#0C162B"/>
<path transform="translate(393,632)" d="m0 0h3l1 7-2 1h-9l-2-2 3-3h6z" fill="#6C6E6C"/>
<path transform="translate(149,670)" d="m0 0 2 2 2 21 2 5-5-1-1-13z" fill="#989FA9"/>
<path transform="translate(450,663)" d="m0 0 3 1 1 14-5 1v-15z" fill="#646567"/>
<path transform="translate(438,661)" d="m0 0 4 1-1 2-1 17h-3v-19z" fill="#1D1C1D"/>
<path transform="translate(303,666)" d="m0 0h3l1 2v8l-1 3 3-1 2-2-1 4-11 2h-6l-1-2 10-1 1-2h2v-5l-2-4z" fill="#70706B"/>
<path transform="translate(401,662)" d="m0 0h7l-4 2-1 5v8l7 2v1h-10v-16z" fill="#9D9FA3"/>
<path transform="translate(338,412)" d="m0 0h7l2 2-11 3h-10l3-3z" fill="#4D4A50"/>
<path transform="translate(660,372)" d="m0 0h1v15l-4 1-2-4-2-2v-9l2 4v2h4z" fill="#444244"/>
<path transform="translate(701,302)" d="m0 0 4 2 4 11 1 5-3 1-6-16z" fill="#1D1C1D"/>
<path transform="translate(414,414)" d="m0 0h5v5h4l3 1-2 3-10-2h-6l1-2 4-2z" fill="#65676D"/>
<path transform="translate(421,397)" d="m0 0 1 2 8 1v1l-7 1-1 9h-2v-3h-3l2-9z" fill="#757571"/>
<path transform="translate(190,668)" d="m0 0 2 3-1 10-5 3-6-1-1-2 2-3 1 4 3-2h3z" fill="#444244"/>
<path transform="translate(297,667)" d="m0 0 3 1 1 5 3 1-3 2-7 1v-6z" fill="#1D1C1D"/>
<path transform="translate(217,443)" d="m0 0 12 1-4 3-8-1v2h-2l1 3-2 7-2 3 1-14z" fill="#54535F"/>
<path transform="translate(417,421)" d="m0 0 5 1v2h6v2l4 1-7 2-6-2-2-3z" fill="#534F5B"/>
<path transform="translate(432,405)" d="m0 0 4 1 1 5-10 1-1-3 2-3z" fill="#8D8E90"/>
<path transform="translate(498,401)" d="m0 0m-4 1h4v2l-6 3-7 2h-4v2l3 1h-4l1-6z" fill="#191A20"/>
<path transform="translate(625,289)" d="m0 0h11l9 2 6 5v2l-4-1-2-2-2-1-3-2-16-1z" fill="#5D6270"/>
<path transform="translate(335,668)" d="m0 0h9v7h-2v2l-2-1 1-5h-2l-1 4-3-1z" fill="#1D1C1D"/>
<path transform="translate(284,424)" d="m0 0h3l1 7h-10l-2-2z" fill="#6CA1E3"/>
<path transform="translate(480,412)" d="m0 0 6 1-1 4-3 3-5-1-2-3 1-3 4 1z" fill="#59585B"/>
<path transform="translate(208,672)" d="m0 0h2l1 4 9 1v3l-9 1-3-1z" fill="#80807A"/>
<path transform="translate(224,665)" d="m0 0 5 1-1 2-3-2 3 4v6l2 2h-4v-3h-3l-1-9z" fill="#5F5E60"/>
<path transform="translate(149,638)" d="m0 0h1l2 15 2 6-1 13-2-2-2-22z" fill="#6C6E6D"/>
<path transform="translate(145,610)" d="m0 0h2l1 11v14h-1l-1-12-2 1-1-13z" fill="#838176"/>
<path transform="translate(600,573)" d="m0 0 10 1v2l4-1-3 3-12 1v-5z" fill="#7D7B74"/>
<path transform="translate(704,405)" d="m0 0h2v13l-1 8-2-4-1-8v-8z" fill="#9C9EA2"/>
<path transform="translate(408,663)" d="m0 0 3 1v14l5-1 1 3h-7l-7-2v-1h6z" fill="#878783"/>
<path transform="translate(667,308)" d="m0 0 5 1 6 10v6h-2l-6-12-3-3z" fill="#555355"/>
<path transform="translate(577,548)" d="m0 0h1l4 21 1 4-2-1v-2h-2l-3-15z" fill="#46464F"/>
<path transform="translate(390,597)" d="m0 0 2 4v31h-1l-1-8-3-1 3-3z" fill="#544F5F"/>
<path transform="translate(678,504)" d="m0 0h1l-1 14-2 1-3-4v-7l4-1z" fill="#080C16"/>
<path transform="translate(621,416)" d="m0 0 4 1-6 3-14 3h-6l3-2z" fill="#1B4680"/>
<path transform="translate(599,369)" d="m0 0h14l10 1v1l-18 2-7 1 4-3z" fill="#4E4E64"/>
<path transform="translate(727,338)" d="m0 0h1v38l-2-4-1-5 1-4z" fill="#666664"/>
<path transform="translate(690,657)" d="m0 0 2 1-1 13-5-1v-2h2v-10z" fill="#7E7B6E"/>
<path transform="translate(663,469)" d="m0 0h1l2 9 3 8v5l-3-2-2-6 1-2-3-1z" fill="#3E3D41"/>
<path transform="translate(503,385)" d="m0 0 2 1-1 1 3 2-11 3-3-1 1-1-3-2z" fill="#504E54"/>
<path transform="translate(586,372)" d="m0 0 4 1-4 3-16 3h-5l4-2z" fill="#484753"/>
<path transform="translate(412,664)" d="m0 0h4v13h-4z" fill="#3B393B"/>
<path transform="translate(654,476)" d="m0 0 7 6 7 8 2-1 1 6-4-2-5-5-6-8z" fill="#204578"/>
<path transform="translate(489,456)" d="m0 0h5l1 3-4 4-8-3 3-3z" fill="#080C15"/>
<path transform="translate(275,425)" d="m0 0 2 1-4 4-6 3-3 3-5-1-1-3 1-2 5-1-2 3h-2v2l5-2 6-4h2v-2z" fill="#494854"/>
<path transform="translate(514,393)" d="m0 0h10v2l-8 2h-9l1-3z" fill="#595B69"/>
<path transform="translate(433,392)" d="m0 0h8l-2 1v2l-5 1-2 4-5-2 1-4z" fill="#4F4E5E"/>
<path transform="translate(233,674)" d="m0 0 2 1-1 5-11 1v-5l3-1v3l6-2z" fill="#7B7A71"/>
<path transform="translate(643,438)" d="m0 0h2v2h2v3l-6 3-12 1-1-2 12-2 2-1z" fill="#504F58"/>
<path transform="translate(813,700)" d="m0 0h1v7l1 3 2 1-1 2h-3l-1 3-2-5v-5l2-2z" fill="#5C5B5A"/>
<path transform="translate(735,660)" d="m0 0h4v7l-3 1-4-1v-5z" fill="#444244"/>
<path transform="translate(504,394)" d="m0 0h4l1 2 3 2-7 1-8 3v-2l4-2-5-1v-1z" fill="#4A4B5E"/>
<path transform="translate(540,376)" d="m0 0 4 1-3 1 1 2-14 3 1-3-2-1z" fill="#5F5F64"/>
<path transform="translate(518,184)" d="m0 0h6l2 2v3h-10l-2-4z" fill="#636363"/>
<path transform="translate(225,663)" d="m0 0h7l1 1v8h-4l-1-6z" fill="#7E7F7C"/>
<path transform="translate(540,438)" d="m0 0 2 3-1 5-1 2h-4v-9z" fill="#545354"/>
<path transform="translate(606,480)" d="m0 0 7 1 1 2-1 2-7 1-3-3z" fill="#FDFDFD"/>
<path transform="translate(287,420)" d="m0 0 5 2-4 1-1 4v-3l-8 4-1 3-4-1 5-5z" fill="#6A6C6C"/>
<path transform="translate(492,397)" d="m0 0h10l-2 3h-3l-1 2h-9l3-3h2z" fill="#525064"/>
<path transform="translate(701,312)" d="m0 0 2 4 5 14-1 3-3-4-3-9z" fill="#6D6D6A"/>
<path transform="translate(704,683)" d="m0 0 4 1 1 7-5 1-1-1v-7z" fill="#3F3D3F"/>
<path transform="translate(376,666)" d="m0 0h5l-2 1v6l-2 4 3 1h-13v-1l8-1z" fill="#6C6C6A"/>
<path transform="translate(411,421)" d="m0 0 4 1v3l-11 2-1-4z" fill="#0A0E18"/>
<path transform="translate(512,181)" d="m0 0h10l2 2-9 3 1 2h-4z" fill="#7B796E"/>
<path transform="translate(799,677)" d="m0 0 3 3 4 6-2 4-4-4-2-5-1-2h2z" fill="#413F40"/>
<path transform="translate(287,664)" d="m0 0h1l2 12 2 3-6-1-1-6 1-7z" fill="#9D9FA3"/>
<path transform="translate(369,397)" d="m0 0h17v2l-13 2z" fill="#67696C"/>
<path transform="translate(447,366)" d="m0 0 7 1v5h-8v-5z" fill="#BDBDBF"/>
<path transform="translate(724,295)" d="m0 0 3 1 3 5-1 5-5-1-1-6 1-1z" fill="#626265"/>
<path transform="translate(688,295)" d="m0 0 7 2 5 5v2l-4-1-8-6z" fill="#939495"/>
<path transform="translate(333,527)" d="m0 0 17 1 2 3-17-1-4-2z" fill="#544F5F"/>
<path transform="translate(273,440)" d="m0 0 3 1h-2v2h5v4l-1 1h-6z" fill="#476894"/>
<path transform="translate(444,416)" d="m0 0 7 1v8l-4-2v-3h-3z" fill="#1D1C1D"/>
<path transform="translate(452,403)" d="m0 0 1 3-1 9h-6l2-7 2-1z" fill="#5A585F"/>
<path transform="translate(488,398)" d="m0 0 4 1-3 2h7l-2 2-10 3v-3l1-4z" fill="#494959"/>
<path transform="translate(656,296)" d="m0 0 4 1 4 11-2 1-7-10z" fill="#333233"/>
<path transform="translate(513,187)" d="m0 0 11 2v3h-9l-3-1z" fill="#9D9FA3"/>
<path transform="translate(211,669)" d="m0 0h2v2h2l1 3 2-3 2 5-4 1-5-2z" fill="#515051"/>
<path transform="translate(250,670)" d="m0 0h1l1 9 3 1h-6v-2h-2v-6z" fill="#828078"/>
<path transform="translate(404,665)" d="m0 0h3v12h-4z" fill="#3D3B3D"/>
<path transform="translate(429,662)" d="m0 0h3l-1 18-2 1z" fill="#1D1C1D"/>
<path transform="translate(618,539)" d="m0 0 6 5 3 5v12l-2 1v-10l-3-6-4-5z" fill="#454349"/>
<path transform="translate(541,388)" d="m0 0 4 1-13 4h-6l1-2 4-2z" fill="#4B506A"/>
<path transform="translate(645,308)" d="m0 0 2 1v14h-1l-1 5h-1v-12z" fill="#0E172B"/>
<path transform="translate(457,663)" d="m0 0h5l-2 10-3 1z" fill="#67696A"/>
<path transform="translate(425,660)" d="m0 0 3 1v12h-1l-1-7-1 10h-1v-15z" fill="#6F716D"/>
<path transform="translate(598,575)" d="m0 0 1 4 10-1-2 2h-13l-7-2v-1h5 3l3 1z" fill="#5E5D5F"/>
<path transform="translate(554,383)" d="m0 0 3 1-2 2-14 3-4-1z" fill="#606169"/>
<path transform="translate(573,369)" d="m0 0 8 1v1l-14 3-3-1v-2z" fill="#5D5F67"/>
<path transform="translate(682,333)" d="m0 0h2l3 11 1 8-2-4-4-9z" fill="#444244"/>
<path transform="translate(245,434)" d="m0 0 1 3v2l-2 1-1 11-3-1 1-3v-11z" fill="#77756C"/>
<path transform="translate(486,389)" d="m0 0h9l-3 4h-9l1-3z" fill="#54505E"/>
<path transform="translate(699,306)" d="m0 0 4 2 2 9-3-1-2 2z" fill="#585759"/>
<path transform="translate(633,291)" d="m0 0h7l4 1v2h-19v-1z" fill="#72A4E5"/>
<path transform="translate(717,292)" d="m0 0h3l4 4v2h2l-1 2v3h-2l-6-9z" fill="#6F716D"/>
<path transform="translate(153,684)" d="m0 0h1l1 7h2v2l9 1v1h-13z" fill="#6C6E6D"/>
<path transform="translate(511,410)" d="m0 0 9 1h2v2l-7 1-3 3-3-1z" fill="#0A1122"/>
<path transform="translate(463,175)" d="m0 0h4v3h2l2 4-3 2-4-2z" fill="#5E5D5F"/>
<path transform="translate(226,435)" d="m0 0 2 2-12 4-2 4-3 3 1-4 4-5 4-3z" fill="#6CA1E3"/>
<path transform="translate(452,388)" d="m0 0h3l1 2v6l-5 1v-8z" fill="#101623"/>
<path transform="translate(733,312)" d="m0 0 3 1 1 4-5 4-3-8 4 1z" fill="#6D6D69"/>
<path transform="translate(467,664)" d="m0 0h1v10h2l1 5-3 3h-2z" fill="#58565A"/>
<path transform="translate(370,669)" d="m0 0h3v6h2l1-2-1 4h-8l2-1z" fill="#454345"/>
<path transform="translate(174,667)" d="m0 0 2 1 1 5v10h-2l-1-5z" fill="#444244"/>
<path transform="translate(297,665)" d="m0 0 4 1 1 6-2-4-4 1-2 8h-2l2-9z" fill="#585755"/>
<path transform="translate(489,429)" d="m0 0h14v3l-2 1h-6l-6-3z" fill="#444244"/>
<path transform="translate(687,305)" d="m0 0 2 4 2 6 1 2-2 4-4-9-1-6z" fill="#686968"/>
<path transform="translate(704,280)" d="m0 0 3 1 1 2 3 1v2h2l-1 3-4-2-5-5z" fill="#555358"/>
<path transform="translate(217,445)" d="m0 0 5 1 3 2h-5l-1 3-4-1z" fill="#444244"/>
<path transform="translate(653,712)" d="m0 0h1v13l2 2-6-1v-4h2z" fill="#484F66"/>
<path transform="translate(289,674)" d="m0 0h2l3 3 9 1-1 2h-12v-3z" fill="#77766D"/>
<path transform="translate(432,664)" d="m0 0h1l1 13h2l-1 5-3 1z" fill="#6B6D6C"/>
<path transform="translate(671,664)" d="m0 0 4 4 6 1-1 2h-10z" fill="#7E7B6E"/>
<path transform="translate(725,515)" d="m0 0h3l1 3-1 1h-14l4-2 5-1z" fill="#4B494A"/>
<path transform="translate(321,463)" d="m0 0h7l-4 4-6 1-2-2z" fill="#6CA1E3"/>
<path transform="translate(221,438)" d="m0 0h4l2 4 9 1v1h-11v-2l-4 1-2-4z" fill="#7B796E"/>
<path transform="translate(587,431)" d="m0 0 5 2h16v1l-16 2-4-1z" fill="#080C15"/>
<path transform="translate(441,418)" d="m0 0h2l3 4v2l3 1-3 1-4-1-1-1z" fill="#9D9FA3"/>
<path transform="translate(732,322)" d="m0 0 5 1v7l-2 3-3-7z" fill="#706F69"/>
<path transform="translate(288,666)" d="m0 0h3l2 8-2 2v-2h-2l-1-2z" fill="#6D6D69"/>
<path transform="translate(735,316)" d="m0 0 3 2-1 5h-3l-2-1-1 2 1-4 2-3z" fill="#5E5D5F"/>
<path transform="translate(427,192)" d="m0 0 4 1-1 3-5 3h-5l3-2 2-1v-3z" fill="#6F716D"/>
<path transform="translate(148,620)" d="m0 0h1l1 18-1 8h-1l-1-10z" fill="#73736D"/>
<path transform="translate(371,425)" d="m0 0h5v2l-8 2h-6l1-2z" fill="#6E706D"/>
<path transform="translate(302,412)" d="m0 0 2 1-7 4-3 2h-3v2l-2-1 5-5z" fill="#58576C"/>
<path transform="translate(706,332)" d="m0 0 3 1 3 10-1 3-4-8z" fill="#636362"/>
<path transform="translate(645,321)" d="m0 0 2 4v8h-1l-1 7h-1v-12z" fill="#080C15"/>
<path transform="translate(510,182)" d="m0 0 3 3-2 6h-3v-7z" fill="#5D5C5F"/>
<path transform="translate(792,673)" d="m0 0 3 4 2 6v4l-3-4-3-5z" fill="#525051"/>
<path transform="translate(580,570)" d="m0 0 8 6 1 4-5-2-4-5z" fill="#4C4B5A"/>
<path transform="translate(614,436)" d="m0 0h5l1 3-10 1-3-1v-2z" fill="#080C15"/>
<path transform="translate(477,405)" d="m0 0 2 1v6l-5-1 1-5z" fill="#FDFDFD"/>
<path transform="translate(302,399)" d="m0 0 4 2-5 5-6 4-1-2h2v-2l5-2z" fill="#555560"/>
<path transform="translate(575,377)" d="m0 0h11v1l-13 3-3-1v-2z" fill="#575760"/>
<path transform="translate(597,370)" d="m0 0h10v1l-9 3h-7l3-2h3z" fill="#686A6C"/>
<path transform="translate(211,665)" d="m0 0h6l-4 2v2h-2l1 6 2 2-4-1v-10z" fill="#666566"/>
<path transform="translate(672,513)" d="m0 0 4 4v7l-1 4h-2v-10z" fill="#0B162D"/>
<path transform="translate(276,418)" d="m0 0 4 1-8 5-3 3-2-1 5-5z" fill="#53535E"/>
<path transform="translate(506,384)" d="m0 0h7v2l-4 2h-6z" fill="#787771"/>
<path transform="translate(655,334)" d="m0 0 2 4 1 7-2 1-2-1 1-3-1-7z" fill="#524E5F"/>
<path transform="translate(663,311)" d="m0 0 4 4 1 5-1 2-3-1v-6z" fill="#74736C"/>
<path transform="translate(649,314)" d="m0 0 3 1-1 9-2-1-1-8z" fill="#56566C"/>
<path transform="translate(510,192)" d="m0 0h10l1 3h-9z" fill="#5E5D5F"/>
<path transform="translate(830,704)" d="m0 0 4 1 2 3-1 3-3-3-2-1h-5l2-2z" fill="#5E5D5C"/>
<path transform="translate(225,666)" d="m0 0 4 2 2 5v3h-4v-6z" fill="#444244"/>
<path transform="translate(256,431)" d="m0 0 3 1v3h-3l-1 3-3-3v-2z" fill="#544F60"/>
<path transform="translate(451,418)" d="m0 0 4 1v6l-3 1-1-2z" fill="#B7B8BA"/>
<path transform="translate(429,407)" d="m0 0h6v4h-7z" fill="#3E3C3F"/>
<path transform="translate(457,391)" d="m0 0 2 1v6l-2 2h-4l2-4h2z" fill="#A0A2A5"/>
<path transform="translate(651,296)" d="m0 0 4 1 2 4 2 7h-2l-6-10z" fill="#969899"/>
<path transform="translate(707,281)" d="m0 0 5 1 3 2v4h-2v-2h-2v-2l-4-1z" fill="#6A6C6B"/>
<path transform="translate(224,669)" d="m0 0 4 1v6l2 2h-4v-3l-2-1z" fill="#676868"/>
<path transform="translate(774,632)" d="m0 0 4 3v2h-2l-1 9-2-2z" fill="#595859"/>
<path transform="translate(386,578)" d="m0 0h5v8l-2 1z" fill="#544F5F"/>
<path transform="translate(600,416)" d="m0 0 7 1v2l-8 1z" fill="#080C15"/>
<path transform="translate(321,412)" d="m0 0 5 1-3 3-6 1 1-4z" fill="#080C15"/>
<path transform="translate(443,392)" d="m0 0h7v4l-8-1z" fill="#C9CACC"/>
<path transform="translate(668,326)" d="m0 0 3 1 2 9-3-1-2-4z" fill="#70716D"/>
<path transform="translate(690,324)" d="m0 0h2l3 8v6l-2-3-1-6-2-1z" fill="#444244"/>
<path transform="translate(673,440)" d="m0 0 2 1z" fill="#7E7B6E"/>
<path transform="translate(678,439)" d="m0 0" fill="#9D9FA3"/>
</svg>
