<?xml version="1.0" encoding="UTF-8"?>
<svg version="1.1" viewBox="0 0 2048 1547" width="1280" height="1280" xmlns="http://www.w3.org/2000/svg">
<path transform="translate(1730,71)" d="m0 0 7 1 6 8 9 17 11 28 12 31 14 32 15 34 17 41 12 29 14 32 16 36 14 32 18 41 11 26 11 27 12 29v5l-10 5-21 7-55 15-37 10-72 21-94 27-29 8-4 3 16 41 12 29 13 30 12 29 12 31-2 4-10 4-22 7-47 13-54 16-56 16-37 11-42 13-29 8h-3l16 39 14 35 19 47 2 6v6l-4 3-24 9-57 16-44 12-59 17-45 14-14 5h-2l11 26 12 29 15 36 11 29 2 9-12 6-30 9-49 14-40 12-56 16-65 19-53 15-59 17-64 18-55 16-69 20-42 12-58 16-95 27-87 26-104 30-39 10-4-1-3-4-7-20-17-62-9-31-13-44-30-100-12-44-7-28-19-67-7-31-5-28v-6l5-3 29-9 38-12 27-8 31-10 81-25 16-6 1-4-9-30-7-24-10-48-4-18v-8l8-5 25-9 29-9 28-8 56-17 58-17 31-9 40-10 5-3-4-16-8-31-8-26-7-38-2-12v-12l5-4 8-4 40-12 35-10 36-11 32-10 20-6 29-9 39-11 38-9 11-4v-7l-10-40-7-25-12-47-7-38 1-9 4-5 12-6 37-12 29-8 52-16 41-12 52-15 57-15 39-10 164-48 32-10 58-17 25-7 34-10 35-10 25-7 47-14 23-6 33-10 21-6 44-13 25-7z" fill="#1B181D"/>
<path transform="translate(1605,615)" d="m0 0 3 3 1 5-28 7-40 11-23 6-21 7-25 8-35 10-19 5-31 9-28 8-10 3-18 2-22 7-8 3-19 5-31 10-56 17-22 6-29 7-29 9-14 4-8 2-45 13-39 12-29 7-37 13-2-1-5-19-12-40-15-54-4-15 1-4 4 12 7 25 10 37 12 40v4h2l1 7 36-10 33-10 28-8 33-10 35-10 15-5 40-11 28-8 47-14 48-14 23-7 46-13 18-5 23-7 27-7 13-4 30-8 15-5 30-8 58-16 15-4 20-6z" fill="#5D5B63"/>
<path transform="translate(1171,1077)" d="m0 0 2 3 1 5-12 2-26 7-31 9-42 12-46 13-25 7-42 12-96 27-31 9-27 8-78 22-38 11-42 11-49 15-19 6-31 9-21 6-40 10-30 8-9 3h-6l-1-3-1-10-10-35-14-50-1-9 3 4 9 29 15 56 3 14 39-10 40-11 23-7 21-6 49-15 21-7 35-10 54-15 86-25 43-13 26-7 25-7 47-14 54-16 88-25 42-11 35-9 7-1z" fill="#5D5B63"/>
<path transform="translate(1369,868)" d="m0 0 2 3 2 7-11 1-36 11-42 11-33 10-36 10-51 14-23 7-48 14-54 15-96 28-22 6-39 10-37 11-29 9-18 5-16 5-31 9-33 9-29 9h-5l-2-6 3-2 1 1 11-1 29-8 42-12 22-7 20-6 27-8 15-4 27-9 40-11 23-6 26-8 45-13 91-27 60-17 27-8 131-37 27-7 17-5h3z" fill="#5D5B63"/>
<path transform="translate(919,999)" d="m0 0h13l-3 2-6 2-2 2-39 10-37 11-29 9-18 5-16 5-31 9-33 9-29 9h-5l-2-6 3-2 1 1 11-1 29-8 42-12 22-7 20-6 27-8 15-4 27-9z" fill="#605E66"/>
<path transform="translate(905,681)" d="m0 0 2 2 8 28 12 44 13 44v5l-2-4-9-29-17-60-7-26z" fill="#FDFDFD"/>
<path transform="translate(649,940)" d="m0 0 3 4 5 15 8 30 3 17-2-1-5-16-7-26-5-19z" fill="#5D5B63"/>
<path transform="translate(892,638)" d="m0 0 3 4 10 32 1 7-2 3-7-24-5-18z" fill="#66646B"/>
<path transform="translate(903,671)" d="m0 0 2 3 1 7-2 3-2-6z" fill="#807F85"/>
</svg>
