<?xml version="1.0" encoding="UTF-8"?>
<svg version="1.1" viewBox="0 0 1600 1464" width="1280" height="1280" xmlns="http://www.w3.org/2000/svg">
<path transform="translate(610,37)" d="m0 0 6 1 16 7 65 34 18 10 29 15 30 16 19 10 15 8 16 8 39 20 15 8 20 9 16 8 17 7 37 14 21 9 55 22 35 16 19 8 14 5 10-1 13 4 52 26 28 13 16 8 13 6 18 8 12 7 9 7 10 10 12 16 9 6 12 6 17 10 25 14 24 14 28 16 24 15 21 14 12 12 11 7 15 9 11 9 4 6 1 3v7l-5 13-9 16-9 10-5 5-6 4-3 1h-14l-15-4-32-13-24-11-33-16-37-19-36-18-23-13-13-6-33-7-20-7-15-8-14-7-6 1-11 7-14 11-14 12-12 12h-2l-2 4-20 20-7 8-9 10-13 17-12 17-16 24-16 23-12 16-12 14-8 10-12 14-13 15-16 17-10 10-7 8-12 14-10 13-12 14-15 15-11 9-18 13-17 11-18 13-14 11-18 14-14 11-28 24-7 7-8 7-14 13-11 9-13 12-8 7-12 11-35 35-8 7-15 14-26 26-8 7-37 37-7 8-22 22-1 2h-2l-2 4-10 10-7 8-12 14-10 11-11 14-10 11-13 17-7 9-10 15-10 17-11 18-11 17-10 14-13 18-12 18-16 31-12 22-8 14-17 28-11 17-22 33-3 4h-193l3-10 13-30 14-29 8-15 13-28 12-25 16-27 8-12 10-14 8-10 9-7 13 2 6-4 6-8 2-8-2-26 7-14 11-14 11-13 9-11 13-14 7-9 11-13 8-10 9-11 11-14 12-14 14-17 8-10 12-14 9-11 11-14 11-13 11-14 13-15 9-11 10-11 7-8 12-14 9-10 7-8 11-12 9-11 15-16 7-8 13-14 9-11 7-7 11-14 9-13 13-20 12-16 9-11 22-26 8-10 11-12 7-8 10-11 7-8 9-11h2l2-4 15-16 6-4h10l7 3 4-1 24-15 9-6 19-10 27-9 25-5 1-2v-7l-2-2-9-2-11-9-8-6-14-12-6-8-1-6 3-13 7-12 11-13 11-12 12-12 10-6 7-3h12l11 7 15 13 11 13 3 13 3 3 11-6 14-10 25-13 21-8 18-7 12-7 11-9 16-13 14-11 16-13 9-7 10-8 11-9 10-9 4-4-1-6-8-12-7-10-14-10-15-10-10-9-10-10-9-11-1-3h-2v-2l-4-2-9-8-20-13-28-17-29-16-21-12-23-13-27-16-27-15-21-12-46-26-25-15-28-16-48-28-22-13-18-11-6-7v-11l3-9 6-7z" fill="#155F94"/>
<path transform="translate(610,37)" d="m0 0 6 1 16 7 65 34 18 10 29 15 30 16 19 10 15 8 16 8 39 20 15 8 20 9 16 8 17 7 37 14 21 9 55 22 35 16 19 8 14 5 10-1 13 4 52 26 28 13 16 8 13 6 18 8 12 7 9 7 10 10 12 16 9 6 12 6 17 10 25 14 24 14 28 16 24 15 21 14 12 12 11 7 15 9 11 9 4 6 1 3v7l-5 13-9 16-9 10-5 5-6 4-3 1h-14l-15-4-32-13-24-11-33-16-37-19-36-18-23-13-13-6-33-7-20-7-15-8-14-7-6 1-11 7-14 11-14 12-12 12h-2l-2 4-20 20-7 8-9 10-13 17-12 17-16 24-16 23-12 16-12 14-8 10-12 14-13 15-16 17-10 10-7 8-8 10-3-4 2-8-10-13-8-9v-2l-3-1-7-8-10-10-7-8-6-7-5-5-8-9-2-4 2-1-2-4-2-1v-2l-8-4v-2l-5-2-5-4v-2l-5-2-2-2-7-2-1-3-5-5 9-2v-5l-5-1-6 2-3-4-12-3-11-9-8-6-14-12-6-8-1-6 3-13 7-12 11-13 11-12 12-12 10-6 7-3h12l11 7 15 13 11 13 3 13 3 3 11-6 14-10 25-13 21-8 18-7 12-7 11-9 16-13 14-11 16-13 9-7 10-8 11-9 10-9 4-4-1-6-8-12-7-10-14-10-15-10-10-9-10-10-9-11-1-3h-2v-2l-4-2-9-8-20-13-28-17-29-16-21-12-23-13-27-16-27-15-21-12-46-26-25-15-28-16-48-28-22-13-18-11-6-7v-11l3-9 6-7z" fill="#484347"/>
<path transform="translate(808,598)" d="m0 0 2 3 2 5 10 9 8 7 6 5 6 7 4 7 8 5 7 11 1 3v7l-5 13-4 6-8 11-8 8-7 8-11 9-13 10-11 7-5 3-1 2-6 3-7 6-7 5h-2v2l-9 6-8 6h-2l-1 3-5 3-7 8-4 3-7 4-9 7-13 13h-2l-2 5-4 4h-2l-2 4-8 8-1 2h-2v2h-2l-2 4h-2l-1 3-8 7-5 6h-2l-2 4-8 8h-2v2l-5 3-5 6-5 2v2h-2v2h-2l-2 4-4 4h-2l-2 4-16 16-6 5-3 5h-2l-2 4-6 8h-2l-2 4-8 7-8 9-5 5-4 3-2 4-5 2-1 3-11 9-5 5h-2l-2 4-6 8-3 1-5 7h-3l-2 5-3 1v2h-2l-1 4-7 6-6 7h-2l-1 3-6 5-6 7h-2l-2 5-3 3h-2l-2 5-6 5h-2v2l-3 3-7 8-4 4h-2l-2 4-9 8-4 4-7 3-4 4-6 2-6 5h-2l-3 6h-2l-1 3h-2l-1 3-5 4-6 8-12 14-7 8-5 5-7 8-6 5-7 8-3 3h-2l-2 4-10 9-7 4-7 9-4 5-9 6h-2v2l-4 3h-2v2l-4 1-2 13-5 5-7 6-7 1-13-3-14-10-9-4-7-1-2-2h-1l-3-20 1-8 8-14 14-17 11-13 12-14 8-9 9-11 14-17 9-11 11-14 12-14 14-17 8-10 12-14 9-11 11-14 11-13 11-14 13-15 9-11 10-11 7-8 12-14 9-10 7-8 11-12 9-11 15-16 7-8 13-14 9-11 7-7 11-14 9-13 13-20 12-16 9-11 22-26 8-10 11-12 7-8 10-11 7-8 9-11h2l2-4 15-16 6-4h10l7 3 4-1 24-15 9-6 19-10 27-9 25-5z" fill="#479DDC"/>
<path transform="translate(610,37)" d="m0 0 6 1 16 7 65 34 18 10 29 15 30 16 19 10 15 8 16 8 39 20 15 8 20 9 16 8 17 7 37 14 21 9 55 22 35 16 19 8 14 5 10-1 13 4 52 26 28 13 16 8 13 6 18 8 12 7 9 7 10 10 12 16 9 6 12 6 17 10 25 14 24 14 28 16 24 15 21 14 12 12 11 7 15 9 11 9 4 6 1 3v7l-5 13-9 16-9 10-5 5-6 4-3 1h-14l-15-4-32-13-24-11-33-16-37-19-36-18-23-13-13-6-33-7-20-7-15-8-1-1v-13l5-16 9-20 9-16 7-12 5-9 11-15 5-8 2-2-1-4-4-1-16-8-13-5-18-7-12-6-9-3-8-3-5-3-12-6v-2l-5-1-10-6-11-1-7 3-5 2h-4l1-5 3-4-1-4-12-2-10-5-14-5h-6l4 8-1 5-2 1h-9l-7-4-4-4-3 3-8 3-4-2-5 2-1-4-3-1-2-5-6-2-8-4-3-3v-2l-34-17-15-7-26-13-17-9-12-6v-2l-6-2-18-10-12-6-14-8-16-9-14-7-10-6-11-6-14-7-24-14-23-12-14-8-12-6-23-13-19-10-19-11-20-11-12-5-5-2-4 1-2 7 2 5 4 1v2l5 2 18 10 10 6 10 7 8 5v3l4 1v2l4 2 5 3 4 4 8 4 4 3 6 2 2 3 8 3 10 5 8 7 10 5 9 7 9 5v2l5 2 6 4 8 4 10 6 12 7 3 1v2l4 1 17 8 8 5v2l9 3 7 4 10 4 16 9 4 2v2l5 1 4 3 11 6 6 4 7 3 5 3 7 4 6 4 10 5 23 14 14 8 7 5 10 6v2l5 2v2l4 1 9 7 8 6 6 10 9 16 2 5 5 1 3 3 11 8 2 4-8-4-14-10-16-16-9-11-1-3h-2v-2l-4-2-9-8-20-13-28-17-29-16-21-12-23-13-27-16-27-15-21-12-46-26-25-15-28-16-48-28-22-13-18-11-6-7v-11l3-9 6-7z" fill="#C78CB2"/>
<path transform="translate(1154,388)" d="m0 0h10l7 2 7 7 4 8 4 1 6 2v7l-5 13-4 13-4 4-9-1-10 5-13 10-11 9-13 12-7 7h-2l-2 4-20 20-7 8-9 10-13 17-12 17-16 24-16 23-12 16-12 14-8 10-12 14-13 15-16 17-10 10-7 8-8 10-3-4 2-8-10-13-8-9v-2l-3-1-7-8-10-10-7-8-6-7-5-5-8-9-2-4 6-1 5 1 5-1 2-4 4-5 4-3h2v-2l8-6 1-2h2v-2h2v-2l5-3 4-5 8-6 7-8 5-6 9-7 7-8 4-2 2-4 7-8 4-8 5-5h2v-2l11-8 15-10 10-7 6-4h2v-2l6-4 6-8 4-3h2l2-4 4-2 11-2 10-8h3l1-3 15-12 5-5 9-7h2l1-3 8-7 6-6h3v-2l5-5 2-3 3-5 12-9 9-6h2v-2l9-7z" fill="#282527"/>
<path transform="translate(233,1263)" d="m0 0 1 2h2l2 3 5 2 4 1v2l4 1v2l6 3v2h2v2h8l7 3 12 7 14 7 13 9 11 4 11 2 8-1 6-2-1 5-15 29-12 22-8 14-17 28-11 17-22 33-3 4h-129l4-11 1-13 5-21 5-16 1-16 1-12-5-10 4-3 6-2 3-2v-16l1-3 5-4 4-9h2l2-5 6-12 5-6 7-6h2v-2l6-5 5-1-1-15 2-2h9l9 1 6-1 6-2z" fill="#282527"/>
<path transform="translate(803,601)" d="m0 0 3 1-1 2h-3v8l2 8-8 4-4 1v4l-5 3-7 3-8 7-13 8-4 4-3 11-1 2-10 3-4 9-1 3-4-2-8-3h-10l-5 3-6 2-8 3-5 2v2l-4 1v2h-2l-2 4-7 8-7 6-9 9h-2v2h-2l-2 4-3 1-2 4-6 7h-2l-2 5-5 6h-2v2h-2v2h-2l-2 4-8 7-7 6h-2v2l-6 5-9 9v8l12 3v5l-5 6-8 6-5 1v2h-2l-2 5-7 7-4 6h-2l-2 5-4 5-9 12h-2l-2 4-9 8-8 7-3 1v2l-6 4-12 10-12 7-3 8-4 6-5 3-9 3-8 4-3 1-2 4-4 4h-2l-2 5-2 3h-2v2h-2l-2 5-5 3-4 7h-2l-2 4-4 7-4 5-5 2-2 5-4 4h-2l-2 6-3 3h-2l-2 5-11 12-1 3h-2l-1 5-5 5-4 5-5 5-3 6-3 3-1 2h-2l-1 4-1 2h-2l-1 4-10 10-5 9-5 6-1 2h-2l-2 7h-2l-2 6-4 2-1 4-5 4-4 10-5 4-2 4-6 2-2 5-7 9h-2l-2 5-6 7-2 4-6 5-2 4-8 7-3 1-2 4-10 10-2 3h-2l-2 5-4 5-1 3h-2l-1 5-2 6-2 1v3h-2l-3 9-7 8-4 1-8-1-5 5h-1l-3-20 1-8 8-14 14-17 11-13 12-14 8-9 9-11 14-17 9-11 11-14 12-14 14-17 8-10 12-14 9-11 11-14 11-13 11-14 13-15 9-11 10-11 7-8 12-14 9-10 7-8 11-12 9-11 15-16 7-8 13-14 9-11 7-7 11-14 9-13 13-20 12-16 9-11 22-26 8-10 11-12 7-8 10-11 7-8 9-11h2l2-4 15-16 6-4h10l7 3 4-1 24-15 9-6 19-10 27-9z" fill="#75B7EC"/>
<path transform="translate(610,37)" d="m0 0 6 1 16 7 65 34 18 10 29 15 30 16 19 10 15 8 16 8 39 20 15 8 20 9 16 8 17 7 37 14 21 9 55 22 35 16 19 8 14 5 10-1 6 2v2l5 1 12 6 9 5 20 11 30 14 23 10 16 8 3 3-1 5-8 9-14 20-11 18-7 12-11 24-4 11-1 5v7l3 9-5-2-1-1v-13l5-16 9-20 9-16 7-12 5-9 11-15 5-8 2-2-1-4-4-1-16-8-13-5-18-7-12-6-9-3-8-3-5-3-12-6v-2l-5-1-10-6-11-1-7 3-5 2h-4l1-5 3-4-1-4-12-2-10-5-14-5h-6l4 8-1 5-2 1h-9l-7-4-4-4-3 3-8 3-4-2-5 2-1-4-3-1-2-5-6-2-8-4-3-3v-2l-34-17-15-7-26-13-17-9-12-6v-2l-6-2-18-10-12-6-14-8-16-9-14-7-10-6-11-6-14-7-24-14-23-12-14-8-12-6-23-13-19-10-19-11-20-11-12-5-5-2-4 1-2 7 2 5 4 1v2l5 2 18 10 10 6 10 7 8 5v3l4 1v2l4 2 5 3 4 4 8 4 4 3 6 2 2 3 8 3 10 5 8 7 10 5 9 7 9 5v2l5 2 6 4 8 4 10 6 12 7 3 1v2l4 1 17 8 8 5v2l9 3 7 4 10 4 16 9 4 2v2l5 1 4 3 11 6 6 4 7 3 5 3 7 4 6 4 10 5 23 14 14 8 7 5 10 6v2l5 2v2l4 1 9 7 8 6 6 10 9 16 2 5 5 1 3 3 11 8 2 4-8-4-14-10-16-16-9-11-1-3h-2v-2l-4-2-9-8-20-13-28-17-29-16-21-12-23-13-27-16-27-15-21-12-46-26-25-15-28-16-48-28-22-13-18-11-6-7v-11l3-9 6-7z" fill="#81747C"/>
<path transform="translate(1128,273)" d="m0 0 9 3 50 25 28 13 16 8 13 6 18 8 12 7 9 7 10 10 12 16 9 6 12 6 17 10 25 14 24 14 28 16 24 15 14 9-3 2h-7l-5-2-4-1v-2l-20-8-19-10-5-3-1-2-5-2h-2v-2l-20-6h-7l-2-1v3l-2 1 1 9 3 7 1 4-1 1h-9l-10-6-8-3-9-2-18-1-9-2-20-8-1-4 4-11 8-12 4-10h2v-2h2l1-4 2-7-8 2-2 4-8 9-1 2h-2l-2 5-7 11-8 14-8 18-4 13-1 10 2 1-10-1-25-6-15-6-8-4-4-10v-7l4-13 7-16 8-16 8-14 14-21 9-12 7-9-1-4-6-4-22-10-21-9-16-8-5-2-12-7-16-8-7-4-11-5z" fill="#E1A9CB"/>
<path transform="translate(233,1263)" d="m0 0 1 2h2l2 3 5 2 4 1v2l4 1v2l6 3v2h2v2l4 1-1 5-5 7h-2v2l-6 1-9-2-4 1 13 13 6 8-1 4-5 1-4 1-1 5-1 2-7 2-4 4h-2l-1 5 1 6h2v2l4 2 5 5 4 10 2 4-1 8-5 4h-2l-2 10-2 2h-9l-6-4-9-9-9-2-6-2-2 1-2 6-2 3-7 1v4l3 1 2 3v5l-14 4-5 3-5 2-10 7-2 4-1 8 1 14-1 19h-20l4-11 1-13 5-21 5-16 1-16 1-12-5-10 4-3 6-2 3-2v-16l1-3 5-4 4-9h2l2-5 6-12 5-6 7-6h2v-2l6-5 5-1-1-15 2-2h9l9 1 6-1 6-2z" fill="#484347"/>
<path transform="translate(782,605)" d="m0 0 3 1-4 3-5 2h-3l-1 3-8 3-7 3h-2v2l-8 4-7 3-4 3-4 2-12 8-3 3-8 6-9 4-8 11-4 8h-2l-2 4-10 10-7 8-11 12-9 11-8 8-8 7-5 5-10 9-9 10h-2l-1 3-5 5-3 4h-2v2l-10 8-11 9-4 5h-2l-2 4h-2l-2 4-8 9-5 6-5 5h-2l-1 5-4 2v2h-2l-2 5-4 5-5 5-3 4h-2l-2 4-4 2-2 4-2 3h-2l-2 5-4 1-2 4-7 8-2 1-3 5-3 3h-2l-2 4-2 1-3 5-5 7-2 5h-2v2l-9 9h-2l-2 4-4 5-2 1-3 5-3 4h-2v3l-7 6-3 5h-2l-1 4h-3l-2 5-5 4-4 5-1 3-4 1-2 4h-2l-1 4-3 1-2 4-4 5-5 5-6 5-2 4h-2l-2 5-9 10-2 2-2 3h-2l-1 4-5 7-3 3-3 6h-2l-1 6-3 1-2 5-2 1-4 7-3 3-3 5-8 10-4 4-3 5-7 10h-2l-1 5h-2l-2 5-4 2-2 4-4 5h-2v2h-2l-2 6-3 2-1 3-4 1-2 4-3 5h-2l-2 4-8 10-4 4h-2l-2 4-9 11h-2l-1 4-8 15-5 8-6 8-3 3-1 6v5l-5 5h-1l-3-20 1-8 8-14 14-17 11-13 12-14 8-9 9-11 14-17 9-11 11-14 12-14 14-17 8-10 12-14 9-11 11-14 11-13 11-14 13-15 9-11 10-11 7-8 12-14 9-10 7-8 11-12 9-11 15-16 7-8 13-14 9-11 7-7 11-14 9-13 13-20 12-16 9-11 22-26 8-10 11-12 7-8 10-11 7-8 9-11h2l2-4 15-16 6-4h10l7 3 4-1 24-15 9-6 19-10z" fill="#91C4F1"/>
<path transform="translate(210,1237)" d="m0 0 2 1v1l9 2 8 4v4l3 12 1 5-1 4-9 4h-8l-4-1h-9l-1 4 1 9-1 3-6 3-3 3h-2v2l-5 3-2 3h-2l-2 4-5 7-6 12h-2l-3 9-4 4h-2v19l-5 4-7 2v4l4 7-1 18-2 14-6 19-3 14-1 13-3 9-2 2h-64l3-10 13-30 14-29 8-15 13-28 12-25 16-27 8-12 10-14 8-10 9-7 13 2 6-4 6-8 3-9z" fill="#7E737A"/>
<path transform="translate(813,608)" d="m0 0 4 2 16 15 9 9 4 7 8 5 7 11 1 3v7l-5 13-4 6-8 11-8 8-7 8-11 9-13 10-11 7-5 3-1 2-6 3-7 6-7 5h-2v2l-9 6-8 6h-2l-1 3-5 3-7 8-4 3-7 4-9 7-13 13h-2l-2 5-4 4h-2l-2 4-8 8-1 2h-2v2h-2l-2 4h-2l-1 3-8 7-5 6h-2l-2 4-8 8h-2v2l-5 3-5 6-5 2v2h-2v2h-2l-2 4-4 4h-2l-2 4-16 16-6 5-3 5h-2l-2 4-6 8h-2l-2 4-8 7-8 9-5 5-4 3-2 4-5 2-1 3-11 9-5 5h-2l-2 4-6 8-3 1-5 7h-3l-2 5-3 1v2h-2l-1 4-7 6-6 7h-2l-1 3-6 5-6 7h-2l-2 5-3 3h-2l-2 5-6 5h-2v2l-3 3-7 8-4 4h-2l-2 4-9 8-4 4-7 3-4 4-6 2-6 5h-2l-3 6h-2l-1 3h-2l-1 3-5 4-6 8-12 14-7 8-5 5-7 8-6 5-7 8-3 3h-2l-2 4-10 9-7 4-7 9-4 5-9 6h-2v2l-4 3h-2v2l-4 1-2 13-5 5-7 6-7 1-13-3-14-10 2-1 10 4 6 2h13v-3h2l1-8v-4l3-9 6-5 5-8 4-8h2v-2h2v-2l6-4 4-6 7-9h2l1-3 19-10 3-5 9-10 1-2h2l2-4 4-5 5-5 10-8 4-7h2l2-6 6-7h2l2-5 9-8 6-10h2l2-4 5-4 5-8 5-4h2l2-5 5-4h7v-2h2l1-6 3-6 4-2-1 7-2 7-4 11-1 8 3 1 4-1 1-3h2l3-6h2l1-8 5-4h3l2-4 4-2v-2l3-3h2v-2l8-7 5-5 4-5 6-4 5-6 5-5 2-3h2l2-4 3-1v-2h2l2-4 7-6 6-7 3-3h2l2-4 8-6 7-8h2v-2h2v-2l5-5 3-1 2-5 5-6 2-4 8-7 4-5h2v-2l2-1 1-3 5-4h2l2-4 5-5 3-1 2-5 4-2 6-7 10-10h3l1-2 4-2 3-3 7-6 2-3h4l1-4 6-6 2-3 5-4h2l2-4 3-3h2l1-4 7-6 4-5h2l2-4 6-7h2l2-4 3-5 1-3h2l2-4 4-2 2-4 6-5h2l2-2 5-2 3-1 1-3 22-16h2l1-3 8-7 4-5 5-1v-2l5-1 1-3 4-1 1-3 5-1v-2l7-5h2l1-3 11-6 3-3 9-7 5-4 3-3 8-7 4-6 5-4 7-14 2-6v-11l-3-9-1-1-9-1-2-10-7-8-11-10-2-1v-2l-4-2z" fill="#2086C8"/>
<path transform="translate(1296,381)" d="m0 0h4l-1 6-3 6h-2v2h-2l-1 5-4 8-6 10-2 1-2 11v2l9 2 9 4 4 2 7 1 18 1 11 3 9 4 7 4h9l-2-5-3-9v-6l3-1v-3h9l18 6 2 1v2l3-1 5 3v2l4 1 9 5 15 8 11 4 5 3v2l3-1 2 2 8 1h7l6 4-9 3-7 5-3 4h-2l-1 3h-2l-2 4-5 7-2 1-1 3-9 6-6 1-4-4-11-6-4-5-5-3v-2l-9-2-14-5v-2l-7-2-7-4-13-4-8-2-7-2-9-1-8 2-7 6-8 2h-10l-4-2-8-1 1 1-3 1-3-1v2h2v3l5 2 2 4-5-2-17-8-7-3v-10l4-13 6-14 10-18 10-16h2l2-4 7-8 4-4z" fill="#D69BC0"/>
<path transform="translate(1251,332)" d="m0 0 9 3 11 6 11 8 11 11 9 12-1 2-7 3-7 5-7 8-10 14-7 10-4 6-4 8h-2l-2 7-6 10-6 11-7 4-14-2v-2l-10-3-1-3-5-2-6-7-1-2v-7l4-13 11-26 10-18 12-17 13-17 5-6z" fill="#FDFDFD"/>
<path transform="translate(1146,456)" d="m0 0 2 2-13 11-12 11-7 7h-2l-2 4-20 20-7 8-9 10-13 17-12 17-16 24-16 23-12 16-12 14-8 10-12 14-13 15-16 17-10 10-7 8-8 10-3-4 2-8-2-4 2-2 8-4 1-3h2l2-5 4-3h2v-2h2v-2h2l2-5 1-2h2l1-3 5-6h2v-2h2l2-4h2l2-4h2l2-4 4-4h2l1-5 2-2 2-6 1-7 5-6 8-15 4-9h2l1-4 5-7 3-7 1-2h2v-3h2l2-7 11-18 3-6 9-10 4-1v-3h2v-2h2v-2h2v-2l5-1v-2h2l2-4 5-5h3v-2l5-2v-2l4-4h2v-2h2v-2h2l1-2 3-3h3l1-4 7-4 7-6 8-6 3-3 7-4 5-4 5-1 1-3h4l1-3z" fill="#494448"/>
<path transform="translate(1026,431)" d="m0 0 2 1-2 7h-2l-1 3-8 8v3h-2l-2 4h-2l-2 5-3 3h-2l-2 4-2 3h-3l-2 4h-3l-1 3h-2l-1 3-14 8h-3v2l-4 3-1 12-6 10h-2v2l-8 4-9-1-6-3v-2l-13 1-15 3v2l-14 5-7-2-11-1 4-3 11-7 14-9 21-11 21-8 18-7 12-7 11-9 16-13 14-11z" fill="#80747C"/>
<path transform="translate(319,1312)" d="m0 0 16 3 8-1 6-2-1 5-15 29-12 22-8 14-17 28-11 17-22 33-3 4h-26l1-4 6-9h2l2-4 7-10h2l-1-13 2-2 19-2 4-4 1-3 3-3 1-2h2l2-7 4-4 2-4h2v-2l3-3 4-5 2-7 2-1 3-8 4-6 3-9 4-5h2v-10l-1-5 3-5 4-1-1-6-8-7z" fill="#4A4449"/>
<path transform="translate(818,475)" d="m0 0h12l11 7 15 13 6 8-4-1-7-7-5-2-7-4-10-3-9-2-4 1-9 2h-5l-2 4-2 2 1 5 4 2 10 9 6 5 5 5 9 6 3 4-1 4-3 3-6-1-11-8v-2l-8-2-1-3-5-3 6 9 3 2v2l3-1v3h2l4 7 3 4-1 5-4 3-5-1-8-9-8-7-9-9-5-4-4-2-4 1-3 3-2 4-2 14 1 7 3 1v2h2l3 6v2l4 2 4 7 4 4v2h2l4 7 2 3 10 2v3l-9-2-11-9-8-6-14-12-6-8-1-6 3-13 7-12 11-13 11-12 12-12 10-6z" fill="#81747C"/>
<path transform="translate(677,69)" d="m0 0 16 8 24 13 27 14 30 16 5 3v4h2l1 2 7 3 14 8 24 12 17 10 24 13 45 25 36 21 11 8-2 2-16-8-29-15-22-12-16-8-25-13-22-12-30-16-23-13-28-15-23-13-27-15-8-5-9-5v-2h-2l2-6-3-2z" fill="#D6A5C9"/>
<path transform="translate(1466,473)" d="m0 0 7 6 8 7 19 11 13 10 5 7 1 3v7l-1-2-7 3-5 2-5 6-4 2-2 5-5 2h-6l-4 3v-2l-3 1-1-3-10-2-4-4-3-10v-10l8-16 2-10-2-12z" fill="#D69BC0"/>
<path transform="translate(682,643)" d="m0 0h10l8 4-2 5-10 10-10 13-8 8-8 7-5 5-13 12-8 7-3 1-1 3-8 7-4 2v2l-8 6-5 6-4 2-5 5-8 7h-2l-2 4-4 3h-3l-1 4h-3l-2 4-4 4-2-1 11-14 11-13 9-11 11-13 7-8 12-14 13-14 7-8 9-11h2l2-4 15-16z" fill="#E1A9CB"/>
<path transform="translate(872,207)" d="m0 0h6l13 7 8 4 6 4 11 6 15 8 38 19 5 2 12 6 4 3v4l6 2 5 4v2l11 3 4 3v2l5 1v2h2v3l-4 3-5-1-9-8-10-3-10-6-8-5-19-9-11-7-10-6-10-5-8-3-1-2-16-8-7-4-5-2v-2l-6-2-8-5-6-7v-2z" fill="#7E737A"/>
<path transform="translate(854,510)" d="m0 0 5 1v2l3 1 3 9 2 9-8 8-7 4-5 3h-2v2l-5 5-3 1v2h-2v2l-8 4-2 4-4 4-4 5-12 6-4-1-3-4 1-7 3-1 2-6 4-4h2v-3l9-5 4-5 3-6 10-6 4-10h2l1-5 7-5 1-3z" fill="#282527"/>
<path transform="translate(1095,278)" d="m0 0h4l-1 4-10 14-8 11-8 16-7 16-5 13-4 1-6-10-14-9-5-4-4-5-3-7-2-5-5-8 1-2h7l8 4 4 3v2l5 1 5 2 7 4 1 1 8-1 5-3 2-7 1-6 4-3h2v-2h2l2-5 8-11 1-2z" fill="#282527"/>
<path transform="translate(210,1237)" d="m0 0 2 1-2 9-2 2-2 5-6 7-4 1h-16l-3 1v2l-6 3-3 6h-2l-2 5-4 6-2 4h-2l-2 7-2 1-2 6-3 3v3h-2l-2 5-7 9h-2v5l-2 3v11l-2 3h-2l-2 4-2 8h-2l-1 4-5 12h-2l-1 5-3 5-5 12-3 5-2 7h-2l-2 6-6 12-5 9-5 7-3 5-3 1 1-5 11-25 8-16 11-21 13-28 12-25 16-27 8-12 10-14 8-10 9-7 13 2 6-4 6-8 3-9z" fill="#C98EB4"/>
<path transform="translate(1295,382)" d="m0 0 3 1-5 10-4 5-3 5h-2l-1 4-10 17-4 10-1 4h-2l-2 13-1 3h-2l2 9-2 7-5 2h-5l-3-2v-10l4-13 6-14 10-18 10-16h2l2-4 7-8 4-4z" fill="#C78CB2"/>
<path transform="translate(683,649)" d="m0 0 5 1v8l-7 8h-2l-2 4-3 3h-2l-2 4-4 4h-2l-1 3-11 9-8 7-12 11-5 4-1 3-6 4-1-1v-5h2l2-5 5-5h2l2-5 5-5 6-7h2l2-4h2l2-5h2v-2h2l1-4h3l1-5 4-4h2l1-4 7-5 2-4 3 1v-2z" fill="#C78CB2"/>
<path transform="translate(677,69)" d="m0 0 16 8 24 13 27 14 30 16 5 3v4h2l-1 3-5-2-5-4-6-3-22-12-15-8-12-6-9-3v3l-5-2-12-7-9-5v-2h-2l2-6-3-2z" fill="#C78DB3"/>
<path transform="translate(858,175)" d="m0 0 6 1 5 3 4 2v2l7 1 3 3 6 2 6 1 18 10 36 21 11 8-2 2-16-8-29-15-22-12-5-5-14-7-9-5-5-3z" fill="#D1AACD"/>
<path transform="translate(1081,520)" d="m0 0h2l-2 4-10 11-13 18-11 16-21 31-4 4 1-7h2l2-5 4-8 9-16 7-10 6-9 4-2 1-4 6-8h2l1-3 3-1 1-3h3l1-4h3l1-3z" fill="#81747C"/>
<path transform="translate(682,643)" d="m0 0h10l3 4-1 5-5 6-2-2v-6l-8 1v2l-4 1v3l-5 3-3 1-1 4-4 4h-2l-1 5h-3l-1 4h-2v2h-2l-2 5-4 4h-2l-2 4-7 8h-2l-2 5-5 5-2-1 8-10 3-7 7-7 7-8 9-11h2l2-4 15-16z" fill="#D79CC1"/>
<path transform="translate(1091,358)" d="m0 0 7 1 6 4 1 3-3 6-5 4-13 3-4-1-2-2 1-6 3-7 6-4z" fill="#282527"/>
<path transform="translate(705,91)" d="m0 0 10 3 42 22 8 5-3 1v-2l-7-2h-3l8 5 5 3-1 2-28-15-21-12-9-5z" fill="#D7A6C9"/>
<path transform="translate(1128,273)" d="m0 0 9 3 50 25 28 13 16 8 13 6 4 4-1 5-4 5-2-1 4-5-1-4-6-4-22-10-21-9-16-8-5-2-12-7-16-8-7-4-11-5z" fill="#D096BA"/>
<path transform="translate(780,506)" d="m0 0 3 4 2 4 6 4 5 5v2l5 2v2l4 2 6 4v2l5 2 4 5-1 4-6-1-7-8-8-6-14-14-6-5h-4l2-4z" fill="#C78CB2"/>
<path transform="translate(1474,481)" d="m0 0 9 6 17 10 13 10 5 7 1 7-2-3-3-3-5-2-5-5-5-2-1-4-6-1-5-3-12-12z" fill="#E2A9CB"/>
<path transform="translate(1246,330)" d="m0 0 5 1-1 5-12 15-13 18-8 13-15 30-2 1 1-10 8-15 10-16 10-15 9-12 2-3 5-3 2-3z" fill="#C9A7CC"/>
<path transform="translate(1048,246)" d="m0 0 5 1 35 16 20 8 6 1 8-1 5 1-4 2-15 1-6-4-9-2-16-8-9-3-19-3-4-2-1-4h3z" fill="#C78CB2"/>
<path transform="translate(779,124)" d="m0 0 6 2 16 8 15 8 16 8 9 5-3 1-11-5-6-1-26-13-8-5-6-3v-2h-2z" fill="#877883"/>
<path transform="translate(961,224)" d="m0 0 8 2 9 4 7 4 8 3v2l6 1 6 5-2 1v2l-7-1-7-5-8-4-20-12z" fill="#484347"/>
<path transform="translate(1038,296)" d="m0 0h7l12 7 8 5-1 5-8-1-13-7-6-5z" fill="#D4A3C7"/>
<path transform="translate(1511,533)" d="m0 0 3 1-1 5-8 14-9 10-5 5h-2l2-6 6-10 4-7z" fill="#81747C"/>
<path transform="translate(1035,293)" d="m0 0h8l14 7 11 8v5l-3 3h-6l-16-8-11-8 1-5zm3 3-1 4 9 7 13 6h5l1-5-13-8-7-4z" fill="#7E737A"/>
<path transform="translate(918,204)" d="m0 0 5 2 16 9 10 6 11 8-2 2-16-8-27-14 3-1h4z" fill="#D79EC2"/>
<path transform="translate(736,101)" d="m0 0 6 2 23 12 14 8v4h2l-1 3-5-2-5-4-6-3-16-9-5-5-8-4z" fill="#C58DB1"/>
<path transform="translate(210,1237)" d="m0 0 2 1-2 9-2 2-2 5-6 7-4 1h-16l-3 1v2l-6 3-3 6h-2l-2 5-4 2 2-5 11-13 8-6 13 2 6-4 6-8 3-9z" fill="#CE93B8"/>
<path transform="translate(833,158)" d="m0 0 6 1 23 13 19 10 10 6-3 2-8-4v-2l-7-1-1-2-7-3-8-4-7-4v-2l-6-2-8-4-3-2z" fill="#D3A4C8"/>
<path transform="translate(625,856)" d="m0 0h3l-1 4h-2l-2 4-8 7-13 8-13 7-7 2 1-3 18-10 5-2v-2l9-6 8-7h2z" fill="#2086C8"/>
<path transform="translate(596,56)" d="m0 0h2l5 5 12 8v2h3l1 3-5-1-8-3v4l3 1v2l3 1-2 1-10-7-4-5z" fill="#C88DB3"/>
<path transform="translate(1218,372)" d="m0 0v3l-13 22-11 24-4 11-1 5v7l3 9-5-2-1-1v-13l5-16 9-20 9-16 6-10z" fill="#7E737A"/>
<path transform="translate(162,1279)" d="m0 0 1 2-4 5-1 3h-2l-2 7-2 1-2 6-3 3v3h-2l-2 5-7 9-3-1 13-22 12-18z" fill="#CA8FB4"/>
<path transform="translate(836,566)" d="m0 0h6l3 3-1 8-3 3-6-1-2-3v-6z" fill="#7E737A"/>
<path transform="translate(751,116)" d="m0 0 4 1 7 3v2h6l7 4 1 2 5 1 1 3h-2l-2 2-2-3-2 1-7-2-2-4-5-2-10-6z" fill="#CCABD0"/>
<path transform="translate(903,187)" d="m0 0 6 2 19 8 32 12v1l-8-1-8-2-25-10-5-3-10-5z" fill="#CC91B6"/>
<path transform="translate(657,824)" d="m0 0 1 4h-2l-2 5-16 16-4 1v-3l4-5 3-3h2l2-4 6-6h2l1-3z" fill="#2086C8"/>
<path transform="translate(1068,255)" d="m0 0 5 1 22 10 17 6 10-1 5 1-4 2-15 1-6-4-9-2-16-8-6-2z" fill="#D49CBE"/>
<path transform="translate(1090,404)" d="m0 0 3 1-1 4-11 8-7 3-2-1 2-4 12-10z" fill="#282527"/>
<path transform="translate(807,589)" d="m0 0 4 2 1 2 9-2v2h2v5l-3 2-7 2-2 4-2-5-1-10z" fill="#7F737B"/>
<path transform="translate(810,149)" d="m0 0 9 3 2 2 7 3 22 11v2l6 2 2 3-4-1-16-8-12-7-14-7z" fill="#FDFDFD"/>
<path transform="translate(845,170)" d="m0 0 4 1 14 7 20 11 6 3 1 3-5-2-20-10-20-11z" fill="#D2A4C8"/>
<path transform="translate(1128,273)" d="m0 0 9 3 40 20-3 1-9-3-19-10-7-4-11-5z" fill="#CD94B9"/>
<path transform="translate(1171,295)" d="m0 0 10 3 21 10 2 4-9-3-16-8-5-2-3-2z" fill="#D096BA"/>
<path transform="translate(809,149)" d="m0 0 14 8 12 6 10 6v2l-6-2-30-16-1-2z" fill="#D8A4C7"/>
<path transform="translate(1022,244)" d="m0 0 11 2 6 3 2 3-13-1-7-3-1-3z" fill="#C78CB2"/>
<path transform="translate(1211,388)" d="m0 0 1 3-9 20-3 2 1-10 6-11 3-1z" fill="#C4ADD3"/>
<path transform="translate(1188,426)" d="m0 0 1 3-2 8-1 12-6-2-2-2 3-1 3-11 3-6z" fill="#4A4448"/>
<path transform="translate(935,218)" d="m0 0 8 2-1-2 6 2 12 9-2 2-16-8-7-4z" fill="#C78CB2"/>
<path transform="translate(858,175)" d="m0 0 6 1 5 3 4 2v2l7 1 3 3 12 6-4 1-20-11-8-4-5-3z" fill="#FDFDFD"/>
<path transform="translate(1200,406)" d="m0 0 2 1-1 5 1 2-4 10-3 1-2-1 1-5z" fill="#D2A6CA"/>
<path transform="translate(1049,265)" d="m0 0h7l2 3v6h-5l-5-5z" fill="#A7B4DE"/>
<path transform="translate(210,1237)" d="m0 0 2 1-2 9-2 2-2 5-6 7-3-1 4-4 6-12 2-6z" fill="#C68EB4"/>
<path transform="translate(1246,330)" d="m0 0 5 1-1 5-12 15-2 3-2-1 4-8 2-3 5-3 2-3z" fill="#D2ADD0"/>
<path transform="translate(171,1369)" d="m0 0 5 2 2 3-1 4h-5v-2l-4-1 1-5z" fill="#7E737A"/>
<path transform="translate(1235,349)" d="m0 0 2 1-4 8-7 10-4 1 2-5z" fill="#D3A2C6"/>
<path transform="translate(819,151)" d="m0 0h6l10 6-2 2-5-1-8-4z" fill="#DAA1C4"/>
<path transform="translate(824,524)" d="m0 0 5 1 4 3v5l-5-1-3-3z" fill="#D096BA"/>
<path transform="translate(792,493)" d="m0 0 3 4v2l4 1 1 4-5-2-4-2h-5z" fill="#CA8FB4"/>
<path transform="translate(685,796)" d="m0 0h3l-1 4h-2v2h-2v2h-2v2l-6 3v-3l5-5z" fill="#2086C8"/>
<path transform="translate(1051,247)" d="m0 0 6 2 11 5v1l-10-1-7-4z" fill="#E0A9CB"/>
<path transform="translate(871,183)" d="m0 0 17 8 2 4-5-2-14-7z" fill="#D7A2C5"/>
<path transform="translate(874,181)" d="m0 0 7 1 10 6-3 2-8-4v-2l-7-1z" fill="#D3A5C9"/>
<path transform="translate(1062,353)" d="m0 0 2 3v8l-2 2-5-6-2-2 5-2z" fill="#7E737A"/>
<path transform="translate(1068,255)" d="m0 0 5 1 16 8 1 2-5-1-11-5-3-1z" fill="#CD95BA"/>
<path transform="translate(736,101)" d="m0 0 6 2 14 8-3 1-5-2-8-5-5-2z" fill="#917C89"/>
<path transform="translate(862,173)" d="m0 0 6 2 9 5-4 2-8-4-4-3z" fill="#D5A3C7"/>
<path transform="translate(769,125)" d="m0 0 6 1 1 2 5 1 1 3h-2l-2 2-2-3-2 1-6-3z" fill="#9AC0EB"/>
<path transform="translate(1187,437)" d="m0 0h1l2 10 2 6-5-2-1-1v-12z" fill="#81747D"/>
<path transform="translate(751,116)" d="m0 0 4 1 7 3v2l3 1h-2l-1 2-9-5-3-3z" fill="#90C4F1"/>
<path transform="translate(821,145)" d="m0 0 16 8 4 3-5-1-11-5-4-3z" fill="#C890B5"/>
<path transform="translate(966,478)" d="m0 0 2 1-7 5-12 4h-5l3-2 15-6z" fill="#CD93B8"/>
<path transform="translate(811,540)" d="m0 0 6 1 3 3v3l-6-1-3-4z" fill="#DBA2C5"/>
<path transform="translate(596,56)" d="m0 0h2l3 6-1 4-4 1z" fill="#DDA3C6"/>
<path transform="translate(1240,327)" d="m0 0 4 1 4 4-1 5-4 5-2-1 4-5-1-4-4-3z" fill="#CC92B7"/>
<path transform="translate(793,507)" d="m0 0 5 3 2 3v3l-5-1-3-5z" fill="#484347"/>
<path transform="translate(210,1237)" d="m0 0 2 1-2 9-4 2 2-10z" fill="#C193BA"/>
<path transform="translate(1188,437)" d="m0 0h1l2 9 2 5h2v2h2v2l-5-1-4-10z" fill="#C78CB2"/>
<path transform="translate(809,149)" d="m0 0 12 7-1 3-12-7z" fill="#DAA3C6"/>
<path transform="translate(800,505)" d="m0 0h4v2l3 1 1 6-3-1 1-2-5-2z" fill="#C78CB2"/>
<path transform="translate(1225,320)" d="m0 0 9 3 6 3v2l-9-3-6-3z" fill="#CC95BA"/>
<path transform="translate(852,169)" d="m0 0h5l5 3v3l-5-1-5-3z" fill="#D9A7CA"/>
<path transform="translate(162,1279)" d="m0 0 1 2-4 5-1 3-5 2 2-4 3-5z" fill="#CB90B6"/>
<path transform="translate(1224,367)" d="m0 0 1 2-6 9-3-1 5-8z" fill="#D1A6CB"/>
<path transform="translate(801,516)" d="m0 0 6 4 1 6h-2l-6-9z" fill="#4B464A"/>
<path transform="translate(1038,296)" d="m0 0h7v1h-5l1 4 4 4-5-2-3-3z" fill="#C78CB2"/>
<path transform="translate(925,197)" d="m0 0 9 2 2 2-5 1-6-3z" fill="#CE93B8"/>
<path transform="translate(1171,295)" d="m0 0 10 3 4 3-10-1-4-3z" fill="#CF99BE"/>
</svg>
