<?xml version="1.0" encoding="UTF-8"?>
<svg version="1.1" viewBox="0 0 1455 2048" width="1280" height="1280" xmlns="http://www.w3.org/2000/svg">
<path transform="translate(767,418)" d="m0 0h23l18 2 17 5 15 8 10 10 4 8 2 8 1 9v34l-2 28v16l4 13 14 27 4 12 4 19v20l-2 33-3 103-2 43-4 46-3 18-10 21-11 18-9 10-8 7-15 9-17 7-21 6-4 3 2 5 12 10 13 8 23 12 15 8 14 4 8 1 29 1 26 5 12 4 13 2 4-16 1-7 2-98 1-31 2-27 6-36 4-10 9-16 4-13 6-42 4-13 7-10 9-9 17-9 13-4 6-1h30l13 3 16 8 11 9 10 12 8 16 3 11 2 19 1 19 4 14 4 10 8 14 5 3 5-2 3-11 5-85 4-15 10-19 10-11 14-8 15-5 21-3h24l22 3 21 6 16 8 11 7 11 10 8 13 3 9 1 7v48l-1 19v25l4 24v29l-4 106-3 41-4 83-3 31-4 18-6 12-13 19-9 11-11 12-8 7-11 5-16 4-32 4-16 1-2 14-7 26-6 15-10 19-10 14-13 15-10 9-8 5-11 3-8 1h-12l-22-3-25-5-4 16-6 28-6 17-9 17-10 15-9 11-11 10-10 6-9 4-15 3-10 1h-18l-14-4h-6l-5 4-7-2-5-1-15-8-17-11-38-24-27-16-47-26-29-17-21-13-21-12-6-3h-2l-2 12v10l3 12v13l-3 10-6 10-14 15-9 8-14 11-13 8-39 19-32 14-37 14-29 10-38 14-41 14-36 12-28 9-21 5-18 3-10-1-25-5-15-6-12-2-15 2-20 7-19 8-22 8-20 6h-8l-8-4-11-10-8-13-9-21-6-20-4-23-1-17 2-13 9-6 14-6 38-13 15-3 15-7 18-6 5-5 9-15 8-11 9-10 7-6 13-8 23-12 33-13 40-14 43-14 40-13 29-9 30-11 44-15 10-6-2-5-7-7-10-8-14-13-9-12-2-10 1-14 6-29v-15l-16 4-21 8-23 11-16 8-11 5-7-1-8-3-15-2h-9l-11 2-25 11-30 14-19 10-22 7h-8l-12-6-11-9-8-8-10-15-8-16-9-25-7-28v-20l5-14 5-6 18-8 20-9 25-12 21-10 17-10 7-6 9-12 4-2v-2l14-9 22-12 16-8 20-9 28-11 16-8v-7l-7-14-8-12-1-4-1-135-1-61-2-38-1-16v-19l6-26 8-15 7-9 8-8 5-8 1-5v-18l-1-25v-31l3-14 5-9 5-6 11-7 10-4 21-4 19-1 15 2 13 4 12 6 10 10 5 8 3 12 1 14v63l3 8 11 13 9 14 9 21 4 14 1 19v110l-1 55v42l2 11 14 2h10l1-7 2-92 3-126 1-24 5-15 4-15 7-12 10-14 3-6 3-27v-61l3-14 5-9 9-9 16-8 16-4zm-98 644-3 4-1 8 4 6h6l2-2 1-4v-9l-4-3zm452 21-5 4-2 9-7 8 1 9 5 6 6 3h9l3-6 2-15v-12l-3-5-2-1z" fill="#B1759E"/>
<path transform="translate(767,418)" d="m0 0h23l18 2 17 5 15 8 10 10 4 8 2 8 1 9v34l-2 28v16l4 13 14 27 4 12 4 19v20l-2 33-3 103-2 43-4 46-3 18-10 21-11 18-9 10-8 7-15 9-17 7-21 6-4 3 2 5 12 10 13 8 23 12 15 8 14 4 8 1 29 1 26 5 12 4 13 2 3-11h1v14l2 4 14 7 8 7 7 8-1 8 4 6 17 10 8 4 9 2h10l7-2 13 4 2 1v2l5 1 16 8 19 10 12 6 8 2 2-1 1-5 5 10 8 5h9l3-10 1-10 2-2 1 13v17l4 5 5 3v2l3 1 1 4-3 5-10 7h-2v2l-5 3-4 5h-2l-2 6-3 2-8 3-3 1-2 4-8 8-7 8-8 8-1 2h-2l-2 4-10 15-3 5-6 3h-5l-12-6-13-4-12-5-25-10-15-9-4-3-14-7-14-9-3-1v-2l-6-2-13-6-10-5-14-9-18-10-17-8-6-3v-2l-5-1-13-8-11-6-21-13-11-6-7-3-6-4-7-7v-2h-2v-2l-4-2-14-10-19-9-11-7-6-5-4-2v-2l-4-2h-8l-4 2h-8l-5-1-1-2v-15l4-10 8-16 6-10 4-5h2l1-3h2l2-4 11-10 8-7 11-8h2v-3l-12-5 3-3-7 1-10 7-6 4-7 1-8-2h-6l-6 4-8 5-7 3-13 3-19 8-15 7-9 4-19 7-13 5-11 5-15 7-13 5-6 3-4 1-11 4-6 3-9 3-13 5-21 6-5 4-16 6-4 2-15 1-10-1-6 3-4 5-4 6-9 8-4 2-10 7-7 6-5 1v1l-9 1-2 1h-8v3l-11 6-9 4-11 6-11 4-5 6-7 4-5-1-5-10-3-5-3-4v-2h-2l-4-8-9-11v-2h-2l-6-7-2-1v-2l-4-2-3-2v-2l-5-1-13-4-8 3-3 2-3 10-1 16v8l2 16 5 16 4 10 7 9v2l4 2 4 5v2l4 2v2l4 2 5 4 5 5v2h2l4 4 4 2 1 3 2 1v2h2l3 6v2l5 1v2h-8l-12-6-11-9-8-8-10-15-8-16-9-25-7-28v-20l5-14 5-6 18-8 20-9 25-12 21-10 17-10 7-6 9-12 4-2v-2l14-9 22-12 16-8 20-9 28-11 16-8v-7l-7-14-8-12-1-4-1-135-1-61-2-38-1-16v-19l6-26 8-15 7-9 8-8 5-8 1-5v-18l-1-25v-31l3-14 5-9 5-6 11-7 10-4 21-4 19-1 15 2 13 4 12 6 10 10 5 8 3 12 1 14v63l3 8 11 13 9 14 9 21 4 14 1 19v110l-1 55v42l2 11 14 2h10l1-7 2-92 3-126 1-24 5-15 4-15 7-12 10-14 3-6 3-27v-61l3-14 5-9 9-9 16-8 16-4z" fill="#C792B7"/>
<path transform="translate(552,1233)" d="m0 0 8 4h23l7 3 9 1 16-1 10 2 7 2 13 5 8 5 3 3v2l3 1 7 9 6 8 10 18 7 20 4 11 2 2-2 12v10l3 12v13l-3 10-6 10-14 15-9 8-14 11-13 8-39 19-32 14-37 14-29 10-38 14-41 14-36 12-28 9-21 5-18 3-10-1-25-5-15-6-12-2-15 2-20 7-19 8-22 8-20 6h-8l-8-4-11-10-8-13-9-21-6-20-4-23-1-17 2-13 9-6 14-6 38-13 15-3 15-7 18-6 5-5 9-15 8-11 9-10 7-6 13-8 23-12 33-13 40-14 43-14 40-13 29-9 30-11 44-15 10-6-2-5z" fill="#C792B7"/>
<path transform="translate(767,418)" d="m0 0h23l18 2 17 5 15 8 10 10 4 8 2 8 1 9v34l-2 28v16l4 13 14 27 4 12 4 19v20l-2 33-3 103-2 43-4 46-3 18-10 21-11 18-9 10-8 7-15 9-17 7-29 8h-7l-5-5 1-12-1-4v-14l-3-12-2-2-4-10-4-7v-2h-2l-4-5v-2l-4-2-3-3v-2l-4-2v-2l-4-2-8-5-9-4-12-3-19-2-1-1v-54l3-121 1-45 1-24 5-15 4-15 7-12 10-14 3-6 3-27v-61l3-14 5-9 9-9 16-8 16-4z" fill="#B1759E"/>
<path transform="translate(1343,886)" d="m0 0h6l3 9 1 10-2 14-1 18-2 4v24l2 13v20l-3 57-2 41-3 31-4 18-6 12-13 19-9 11-11 12-8 7-11 5-16 4-32 4-16 1-2 14-7 26-6 15-10 19-10 14-13 15-10 9-8 5-11 3-8 1h-12l-22-3-25-5-4 16-6 28-6 17-9 17-10 15-9 11-11 10-10 6-9 4-15 3-10 1h-18l-14-4h-6l-5 4-7-2-5-1-15-8-9-6-5-5-4-5-3-5-4-4-1-8 4-2 7-2 5-5 4-6 5-10 8-21 3-5 4-11 7-11 6-8h2l-1 7-9 19-5 14-2 10-1 16 2 8 3 4h7l8-5 8-2 17-9 11-9 3-1 2-6 8-11 7-10 11-13 7-7 12-9 14-7 15-2h6l3-3-1-6-6-8-9-11-5-5-11-10-6-10-7-10-12-7-11-6-13-8-14-8-18-10-26-14-16-9-11-6-13-8-10-6v-2l-6-2-11-7-12-7-8-5-14-7v-2l-4-1 1-2 5 3 11 4 8 4 10 4 20 9 11 5 7 3 10 5v2l4 2 12 7v2l4 1 17 9 1 2 18 8 7 4 5 3v2l5 2 9 6 1 2 6 1v2l7 2 19 10 11 9 4 4 13 5 11 1 3-5 2-5 3-3h5l3 6 2 15 1 5h2l4 4 11 4 11 3 8 4 6 1 2-2 4-15 8-16 10-14 6-8 8-10 11-11 14-9 11-4 16-1 2-1v-7l-5-9-9-11-8-11-5-9-10-9-11-8-10-6-7-6-1-8v-16l2-4 2-9 5-5 9-4 4-8h2l4-16 1-23 2-10 1-10 2-5 4-1-1-6 3-9 1-6-1-7 2-5h2l1 6v-8l3-14 6-11 3-10 5-7 2-14-3-9 1-4 5-2h9l19 3 1 1h22l10-1 26-2 25-7 19-9z" fill="#985C87"/>
<path transform="translate(544,434)" d="m0 0 16 1 16 4 14 7 10 10 5 8 3 12 1 14v63l3 8 11 13 9 14 9 21 4 14 1 19v110l-1 55v48l-3 2-17 4-20 7-23 10-15 7h-3l-1 2-32 11-21 8-17 7-16 5h-6l-12-7-12-18-1-135-1-61-2-38-1-16v-19l6-26 8-15 7-9 8-8 5-8 1-5v-18l-1-25v-31l3-14 5-9 5-6 11-7 10-4 21-4z" fill="#B1759E"/>
<path transform="translate(1236,658)" d="m0 0h24l22 3 21 6 16 8 11 7 11 10 8 13 3 9 1 7v17l-5 1-6 8-10 9-18 9-17 5-25 3h-19l-24-3-20-5-16-5-5-4-11-4v-2l-6 1-3 8v18l-3 8v19l-3 7-2 2v9l1 14-2 5 4 12h2l1 4 4 2 2 4 4 2 5 8v2h3v2l4 1 7 5 12 5 6 3 1 2h-9l-5-1-9-2-11-1v-2l-6-1-14-8-7-5-5-7-4-2-1-2h-6v2l-9 6-5 8-3 6-3 1-1 4h-2l-2 6-8 15-3 1-1 5-6 5-2-1 2-3-3 3h-2l-2 5-6 4-6 8-4 6-3 7-2 1h-24l-16 3-12 3-19 7-15 8-12 6-8 7-8 4-4 3-3 11h-1l2-103 1-31 2-27 6-36 4-10 9-16 4-13 6-42 4-13 7-10 9-9 17-9 13-4 6-1h30l13 3 16 8 11 9 10 12 8 16 3 11 2 19 1 19 4 14 4 10 8 14 5 3 5-2 3-11 5-85 4-15 10-19 10-11 14-8 15-5z" fill="#C792B7"/>
<path transform="translate(603,1055)" d="m0 0h10l13 4 14 6 10 5 9 2 7-6v8l3 5h6l2-5 1-7h1l3 10 2 10 2 1v2l6 2 17 9 11 4 9 1h7l28 14 18 11 10 6 12 9 3 1 1 2 6 3v2l5 1 12 6v2l4 1 7 3 9 6 15 9 10 5 12 7 8 4 11 6 23 12 14 8 11 6 30 18 17 10 1 5-6 5-12 6-11 7-12 8-5 4-7 8-6 7-5 4-1 2h-2l-1 4h-2l-3 6h-2l-1 4h-2l-2 5-3 5h-2l-2 4-8 11-5 5h-7l-5-3v-2l-4-2-7-2-16-12-5-5-11-6-18-10-15-7-8-5-11-12-10-7-3-3-16-8-12-7-12-6-9-6-11-6-12-5-10-6-7-3-10-2-15-7-16-8-17-5-6-2-10-2-14-8-5-5-10-4-9-4-22-12-9-7-7-5-9-3-3-2-4 1-7 4-2 4-1-4 4-18v-14l3-4 8-17 6-9 10-13 18-18 20-12 9-3z" fill="#C792B7"/>
<path transform="translate(657,1328)" d="m0 0h9l7 3 7 1 11 8 2 10 3 12v13l-3 10-6 10-14 15-9 8-14 11-13 8-39 19-32 14-37 14-29 10-38 14-41 14-36 12-28 9-21 5-18 3-10-1-25-5-15-6-12-2-15 2-20 7-19 8-22 8-20 6h-8l-8-4-11-10-8-13-9-21-6-20-4-23v-15l2-10 3-4 4-2 5 1 5 7v2h2l3 6 2 1 1 5 3 1 5 10 5 11 4 14 2 1v-2l5-2v-2h2l2-4 12-6 12-5 7-3 16-4 6-2 9-2 15-5 4-2 15-6 32-9 27-6 16-4 20-4 11-3 12-5 35-12 10-4 39-13 17-5 24-8 11-5 17-6h3v-2l9-3 14-4 16-4 20-9 10-6 14-5 11-2 11-4 10 2 6-4 4-6z" fill="#B1759E"/>
<path transform="translate(678,626)" d="m0 0 4 2 2 13 5 12 6 21 2 6 2 10 4 14 1 16 4 23 2 12 3 11 6 7v2h9l-3 4h-5v2l8 1 14 1 1-4 3-4 1-4h2l1-5 2-1 2-5 3-3 3-9 2-7h2l1-4 4-8v-8l-3-9 2-11 8-9 9-4 7-4 12-6 9-1 16 1 9 8 2 5v23l-3 24-1 3-1 17-2 8-1 7 1 18 3 10 5 8-1 10-2 4-3 3-4 22-3 9-5 18v31l2 4 4 2 2 4v10h-2l-1 8h-2l-1 3-5 2-2 4-18 8-24 7-8 2h-7l-5-5 1-12-1-4v-14l-3-12-2-2-4-10-4-7v-2h-2l-4-5v-2l-4-2-3-3v-2l-4-2v-2l-4-2-8-5-9-4-12-3-19-2-1-1v-54l3-121 1-45z" fill="#985C87"/>
<path transform="translate(682,1375)" d="m0 0 5 1 5 5v6l-6 9-12 13-10 9-14 11-13 8-39 19-32 14-37 14-29 10-38 14-41 14-36 12-28 9-21 5-18 3-10-1-25-5-15-6-12-2-15 2-20 7-19 8-22 8-13 4h-7l-2-6 4-13 1-14h2l1-3 6-4h5l1-2 6-2 15-6 12-3 18-6 22-6 16-3 35-2 20-6 24-9 48-12 11-4 24-8 13-4 22-5 14-4 11-2 19-6 30-10 12-5 12-4 21-6 13-6 13-5 8-3 7-1 10-5 11-3 15-2 9-5 5-3z" fill="#985C87"/>
<path transform="translate(643,655)" d="m0 0 2 2v150l-1 40-3 6-6 3-16 4-13 5-25 10-9 4-5 1-14 5-2 1h-9l-20 4-3-2 1-10 3-10-1-14v-16l-3-19 1-16 2 3 1 1v-14l3-13 2-15 3-11 2-36v-6l4-7h2v-2l9-7 11-5 13-4 6-3 12-2 4-2h6l6-2 1-3 7-5h2v-2l7-6 15-4z" fill="#985C87"/>
<path transform="translate(560,1242)" d="m0 0 21 1 17 5h14l20 4 13 2 11 8 7 8 8 9 6 15-5-1-4-5-12-8-5-5-8-7-9-6h-15l-9-2-7 2-2 7-5 4-9 1-15 6-6 4-6 8-7 5-1 2h-2v2l-11 7-10 6-6 5-10 3-15 4-24 3-12 4-3-1 3-2-10 3-6 1v2l-10 4-7 4-1 2-10 2-10 4-7 1-9 4-10 2-8 1-10 4-9 3-11 4-10 4-9 3-13 6-11 4-6 2h-8l-9 4-8 4-18 14-9 5-9 4-10 2-4 2h-9l-13 4-18 3-17 6-14 3-2 1h-15l-7-2h-3v-2l40-14 16-4 9-3 11-5 18-6 5-5 9-15 8-11 9-10 7-6 13-8 23-12 33-13 40-14 43-14 40-13 29-9 30-11 44-15 10-6z" fill="#D3A4C5"/>
<path transform="translate(544,434)" d="m0 0 16 1 16 4 14 7 10 10 5 8 3 12 1 14v30h-1l-2-19-2-4-6 1-6 4-20 7-15 3h-27l-22-3-9-2-6 2-1 5 1 13 1 9-1 20-1 8v3h-2l2 13 3 7 5 6 11 8 5 2v2l11 3v2l4 1 7 3 8 2h13l14-3 7-2h10l5 7-1 4-8 7-9 4-7 2-9 1-7 5-12 3-10 2-18 4-10 2-16 6-10 1-14-1-9 3-5 8-2 4h-2l1 14v8l-2 2-2-38-1-16v-19l6-26 8-15 7-9 8-8 5-8 1-5v-18l-1-25v-31l3-14 5-9 5-6 11-7 10-4 21-4z" fill="#C792B7"/>
<path transform="translate(1070,963)" d="m0 0 9 1 16 3 18 5h8l6 4 7 13v3l2 1 2 7v11l-2 9 1 18v25l-1 19-2 3-3-1-1-2-7 1-6 4-2 9-7 8-3 6-13-4-17-8-18-10-24-13-23-13-22-12-7-5-2-5 3-5 14-9 23-9 10-2h21l17 2h12v-2h2l3-10 4-7 6-6v-7l-5-5-8-6-13-7-1-3z" fill="#985C87"/>
<path transform="translate(1319,768)" d="m0 0h7l6 3 1 6v17l2 5 2 11 3 13v12l-3 8-8 16-9 8-6 4-13 8-16 5-10 2-19-1-13-3-7-3-13-10-5-5-4-5-1-13v-12l2-16 3-8v-13l4-15 6-2 10-1 8-1 21 1 17-2 10-2z" fill="#985C87"/>
<path transform="translate(767,418)" d="m0 0h23l18 2 17 5 15 8 10 10 4 8 2 8 1 9v34h-1l-2-14-3-3-7 1-5 4-16 9-11 4-17 3-26 1-16-2-12-2-12-1-7 5h-2l-4 16-2 7-2 21h-2l1 5-4 11-6 5-8 3 2-5 9-13 3-6 3-27v-61l3-14 5-9 9-9 16-8 16-4z" fill="#D3A5C6"/>
<path transform="translate(504,915)" d="m0 0h13l2 1 2 9v6l-4 5h-2l-2 4-8 5-17 4-6 5-16 8h-3v2l-6 3h-2v2l-7 4-13 4h8l-1 2-9 2-10 6-8 7-5 5-4 2-3 6-7 9-9 7-4 2v2l-6 3-5 4-5 3-14 2-10 3-9 2-5 3-19 5-7 3-6 6-14 6-10-2-2-2-11-4-19-4-5 1-5 2-3-1 25-11 26-12 31-15 17-10 7-6 9-12 4-2v-2l14-9 22-12 16-8 20-9 28-11 16-8v-7l-1-5 5 4h11l9-3z" fill="#D3A4C5"/>
<path transform="translate(1242,670)" d="m0 0h22l17 3 9 4 13 7 3 3 4 1v2h2v2h2l3 3v2l3 1 8 13 3 12-3 7-5 6-13 10-17 7-14 3h-27l-16-3-19-7-11-6-9-7v-2l-3-1-5-12-1-6 3-13 6-8 13-10 11-6z" fill="#985C87"/>
<path transform="translate(548,1078)" d="m0 0 4 1 2 1 1-2-1 4-10 11-10 15-10 18-5 5-27 9-26 12-15 8-16 7-7-1-8-3-15-2h-9l-11 2-25 11-30 14-5 3h-5l-7-3-1-2v-8l2-5 7-6 9-4 12-5 19-5 13-3 11-6 3-1v-2l5-3 10-8 6-4h2v-2l6-4 8-8 14-6h9l8 1h10l14-7 13-3 10-4 16-4 9-4 6-1 9-3z" fill="#985C87"/>
<path transform="translate(544,434)" d="m0 0 16 1 16 4 14 7 10 10 5 8 3 12v7l-4-2-5 2-3 4h-2l-1 3-14 8-5 3-14 5-13 2h-14l-15-3-12-3-13-6v-2l-10-2h-4l-1 24h-1l-1-6v-31l3-14 5-9 5-6 11-7 10-4 21-4z" fill="#D4A6C6"/>
<path transform="translate(667,1258)" d="m0 0h8l20 6 15 6 12 9h2l2 3 5 3 3 2v2l5 2 11 8 7 8 5 10 6 9 6 7v2l4 2 13 14 10 8 10 6 8 8 11 8 2 3v3l1 9-2 1h-8l-9-2-29-16-25-14-28-17-20-12-12-7-4-4-10-23-8-16-5-9-8-13 1-5z" fill="#985C87"/>
<path transform="translate(1236,658)" d="m0 0h24l22 3 21 6 16 8 11 7 6 5-2 1-2-1 2 6h2v3h2l6 11 5 6-1 7-4 2 1 6-2 10-4 6-10 7-10 6-13 4-23 5-6 1h-27l-29-5-13-4-14-7-5-3-4-4-9-7-9-11h-5v-7l4-15 10-19 10-11 14-8 15-5zm6 12-21 5-11 6-10 8-5 5-4 5-3 14 3 11 4 7h2l2 4 14 9 14 6 17 5 8 1h27l17-4 16-7 11-9 7-9 1-5-4-13-8-12h-2v-2l-3-3h-2v-2h-2v-2l-5-2-5-4-12-6-10-4-17-2z" fill="#D3A5C5"/>
<path transform="translate(1153,1157)" d="m0 0 9 1 14 9 8 9 7 8 4 6v5l-4 4-16 7-20 14-5 5-13 15-9 8-7 1-18-2-6-2-4 1-8 1-5-3 1-10 5-11 4-12 5-9 6-8 9-11 6-7h2v-2l4-3 6-2 9-6 12-5z" fill="#C792B7"/>
<path transform="translate(1029,1020)" d="m0 0h17l20 4 13 4 11 7 9 9 6 12 1 5v10l-4 10-2 9-5 10-5 1-11-4-29-15-13-8-24-14-18-10-7-5-1-3 3-5 17-10 17-6z" fill="#583648"/>
<path transform="translate(856,554)" d="m0 0 2 3 15 29 4 12 4 19v20l-2 1v-7l-3-1-2-9h-4l-4 4-11 7-7 1-16 1-8 1h-11l-30 3-22 1-7 1v-2h-21l-7-1-5-4-6-8-1-7 3-6 1-7 7-6 6 1 11 7 13 3 18 5 8 2 14 1 17-6 9-4 9-6 5-5 14-11 4-6 3-3 1-3v-13z" fill="#C792B7"/>
<path transform="translate(1007,1281)" d="m0 0 8 2 14 9 9 6 9 9v2h2v5l-4 3-14 4-14 8-15 11h-2l-2 4-6 4-13 2h-7l-3-2h-8l-7 4-7 3-9 3-2-2v-6l8-20 11-16 7-7 3-4h2v-2l15-11 10-5z" fill="#C792B7"/>
<path transform="translate(776,429)" d="m0 0h13l14 4 10 5 4 3v2l4 2 6 8 3 9-1 10-7 8-13 6-15 3h-10l-13-2-16-5-10-6-7-11v-13l5-9 5-4 12-6z" fill="#985C87"/>
<path transform="translate(241,1077)" d="m0 0h8l6 2v2l4 1 6 5 9 11 10 15 5 13 3 9 3 11 1 18-2 7-3 2h-8l-8-2-5-3v-2h-4l-1-4-3-1v-2l-4-2-8-8v-2h-2l-7-10-2-5h-2l-4-10-1-4-3-16v-8l2-9 4-5z" fill="#985C87"/>
<path transform="translate(557,520)" d="m0 0 7 1 12 2 4 2 5 9 2 9v9l-5 15v17l-2 5-5 2v2l-13 4-9 1-9-2-8-6-4-8-1-8 3-15 3-29 4-4 11-5z" fill="#985C87"/>
<path transform="translate(1018,970)" d="m0 0h12l8 3 5 3 1 5-2 5v16l-3 3-23 8-12 5-26 8-8 1-8-3-3-5-1-4v-8l5-10 6-7 10-8 12-6 9-3z" fill="#C792B7"/>
<path transform="translate(771,963)" d="m0 0 7 6 8 7 13 8 23 12 15 8 14 4 8 1 29 1 26 5 12 4-1 2-9-2-33 1-8 2-9 5-10 4h-21l-5-1h-18l-6-2v-5l-8 3h-5l-3-7 2-8h2l2-4 2-6v-3l-11-3-2-1-4-8v-2l-5-2-5-5-2-4 1-7z" fill="#D3A4C5"/>
<path transform="translate(1037,1331)" d="m0 0 10 1 8 7 2 3 1 10v9l-6 11-3 2-2 4-4 1-2 4-4 2-22 2-5 2-10 2-8 4-5-2-2-2v-8l13-23 7-9 7-7h2v-2l14-9z" fill="#794166"/>
<path transform="translate(971,790)" d="m0 0 5 1 1 5 1 4-4 11-1 7 2 12v20l-3 16-1 2-2 26-2 4-2 24-2 7v8l-5 8-5 2h-3l-4-7v-15l2-33 1-25 4-28 1-9 2-8v-8l1-7 8-10 4-6z" fill="#B1759E"/>
<path transform="translate(535,448)" d="m0 0h9l11 1 7 3 6 2 7 6 7 10 1 4v7l-5 5-7 4-11 4-6 1h-17l-16-4-9-5-6-7-1-8 3-7 9-9 4-3z" fill="#985C87"/>
<path transform="translate(696,991)" d="m0 0h2l-1 6-8 16-8 19-5 17-1 13-7 2-9 9-11-3-19-9-3-1-1-4-5-3-1-4-2-1 1-5 4-3 6-1 6-4 12-3 5-3h2l3-5 8-7 12-7 3-3h2l2-4 3-1 1-3h2v-2l4-2z" fill="#985C87"/>
<path transform="translate(1242,670)" d="m0 0h22l17 3 9 4 13 7 3 3 4 1v2h2v2h2l3 3v2l3 1 8 13 3 12-3 7-5 6-13 10-17 7-14 3h-27l-16-3-19-7-11-6-9-7v-2l-3-1-5-12-1-6 3-13 6-8 13-10 11-6zm7 8-5 1-11 1-6 3-9 3-14 11-2 4h-2l-4 8v14l5 8 7 7 12 7 15 6 18 4h20l13-2 16-5 11-7 6-7 1-5-3-12-3-10-13-13-6-4-8-3h-2v-2l-19-5z" fill="#B1759E"/>
<path transform="translate(1190,1213)" d="m0 0 6 2 4 5 1 4v12l-5 17h-2l-2 4-8-1h-17l-10 3-6 2v2l-11 4h-2l-1-7 5-10 9-12 9-10 11-9 11-5z" fill="#794166"/>
<path transform="translate(776,429)" d="m0 0h13l14 4 10 5 4 3v2l4 2 6 8 3 9-1 10-7 8-13 6-15 3h-10l-13-2-16-5-10-6-7-11v-13l5-9 5-4 12-6zm2 12-16 6-9 9-4 8 3 9h2l2 4 5 4 14 5 8 1h13l13-3 9-6 1-7-3-6-5-6-5-7h-2l-1-3-14-7z" fill="#B1759E"/>
<path transform="translate(1238,665)" d="m0 0h29l12 2 15 4 11 6 5 4 6 2 5 5 1 4h2l3 4 3 1 1 5h2l3 6 1 4 1 9-6 12h-2l-2 4-16 11-12 5-14 4-20 2-21-2-19-4-19-7-5-3v-2l-4-2-4-4v-2h-2l-7-14-1-9 1-9 5-9 6-7 9-6 4-5 10-4 7-2zm4 5-21 5-11 6-10 8-5 5-4 5-3 14 3 11 4 7h2l2 4 14 9 14 6 17 5 8 1h27l17-4 16-7 11-9 7-9 1-5-4-13-8-12h-2v-2l-3-3h-2v-2h-2v-2l-5-2-5-4-12-6-10-4-17-2z" fill="#C792B7"/>
<path transform="translate(1187,1296)" d="m0 0 2 1-9 12-12 14-10 9-8 5-11 3-8 1h-12l-2-2h2l-4-13-2-8v-12l1-4 5 1 3 1 5 5 3 2 9-1 4-1 1-2 4-1 8 3 10-2 20-10z" fill="#B2769F"/>
<path transform="translate(117,1465)" d="m0 0 7 1 5 4 9 13 4 13 4 12 1 6v14l-7 6-10-5v-2l-4-2-3-4v-3h-2l-5-11-2-9h-2l-3-11-1-12 1-3z" fill="#975B86"/>
<path transform="translate(851,467)" d="m0 0h4l2 12v23h-1l-2-14-3-3-7 1-5 4-16 9-11 4-17 3-26 1-16-2-12-2-12-1-7 5h-2l-4 16-2 7-2 21h-2l1 5-4 11-6 5-8 3 2-5 9-13 3-6 3-27 1-35 2-3 9-1 15 7 14 4 15 3 12 1h21l19-5 9-4 11-7 4-5h2l2-4z" fill="#C792B7"/>
<path transform="translate(781,422)" d="m0 0 17 2 13 4 8 4 9 8 6 8 2 5 1 13-4 8-8 7-12 6-12 3-6 1h-13l-14-2-18-6-9-6-4-3-4-7-2-10v-8l3-6 10-11 8-4 12-4zm-5 7-18 5-11 6-5 5-4 7v13l7 11 10 6 16 5 13 2h10l15-3 14-7 6-7 1-10-3-9-8-10h-2l-1-3-8-5-16-5-3-1z" fill="#C792B7"/>
<path transform="translate(536,442)" d="m0 0h9l18 2 11 4 4 2 7 8 3 6 4 11-1 5-8 7-8 4-19 5-7 1h-11l-18-4-10-4-3-2v-2l-4-2v-2h-2v-2l-3-1v-2h-2l-1-7 5-9h2l1-3 3-3h2v-2l12-6 9-3zm-1 6-14 4-12 11-3 4-1 8 3 7 7 6 9 4 13 3h17l12-3 9-4 5-3 3-4v-7l-3-7-8-10-5-4-10-3-6-1-7-1z" fill="#C792B7"/>
<path transform="translate(535,448)" d="m0 0h9l11 1 7 3 6 2 7 6 7 10 1 4v7l-5 5-7 4-11 4-6 1h-17l-16-4-9-5-6-7-1-8 3-7 9-9 4-3zm-3 8-9 4v2l-3 1-6 9 1 8 1 4h2l2 4 9 4 4 1h25l12-5 6-4 1-6-4-8-7-6-5-1-6-1v-2l-7-3-13-1z" fill="#B1759E"/>
<path transform="translate(673,855)" d="m0 0 23 2 13 3 12 6 12 9 7 8 5 5 7 10 7 12 8 19 4 17 2 6 16-1 11-1-3 2-29 8h-7l-5-5 1-12-1-4v-14l-3-12-2-2-4-10-4-7v-2h-2l-4-5v-2l-4-2-3-3v-2l-4-2v-2l-4-2-8-5-9-4-12-3-19-2z" fill="#B1759E"/>
<path transform="translate(798,552)" d="m0 0 10 1 3 3-2 12-2 6-2 15-3 2-7 2-6-1-4-4-1-7 2-12 2-4v-7l5-4z" fill="#985C87"/>
<path transform="translate(1034,1425)" d="m0 0 3 1-9 11-11 10-10 6-9 4-15 3h-7v-2h2l2-5 1-2-9-4v-4l6-3h7l11 1 10-3 11-2 6-1v-2h4l2-4z" fill="#B2769F"/>
<path transform="translate(222,1119)" d="m0 0 2 1 7 21 7 11 2 4 4 2 4 5v2l4 2v2l4 2 5 4 5 5v2h2l4 4 4 2 1 3 2 1v2h2l3 6v2l5 1v2h-8l-12-6-11-9-8-8-10-15-8-16-9-25z" fill="#C893B8"/>
<path transform="translate(1120,1020)" d="m0 0h5l2 2 4 12 1 16v12l-2 11-6 9h-4v-12l-1-16-1-3-1-16 1-2z" fill="#794166"/>
<path transform="translate(696,1078)" d="m0 0 20 4 13 7 8 3 6 6v4l-5 1-4-1h-14l-10-4-8-5v-2l-4-2-5-3-2-3v-3z" fill="#985C87"/>
<path transform="translate(1029,1020)" d="m0 0h17l20 4 13 4 11 7 9 9 6 12 1 5v10l-4 10-2 9-5 10-5 1-11-4-6-3 3-1 7 1 5-5h2l2-4 3-5 7-12v-8l-4-11-7-9-8-6-10-5-20-5-6-1h-19l-16 5-12 6-8 6-1 6 3 1-2 1-5-5 3-6 17-10 17-6z" fill="#794166"/>
<path transform="translate(1346,1045)" d="m0 0h1l-1 32-2 32-3 24-2 1v-22l-1-9v-10l4-18 3-29z" fill="#B47AA2"/>
<path transform="translate(956,808)" d="m0 0h1v15l-2 7-1 9-4 28-2 46-1 12h-1v-25l1-31 2-27 5-31z" fill="#C995B9"/>
<path transform="translate(1353,910)" d="m0 0h1l-1 38-2 39h-2v-9l-2-15v-22l2-4 1-18z" fill="#B479A1"/>
<path transform="translate(1149,1191)" d="m0 0h6l6 6-1 7-4 2v2l-7 2-3-3-1-13z" fill="#D3A4C5"/>
<path transform="translate(477,553)" d="m0 0h2l-1 7-7 11-8 11-4 9-2 4-5 4-1 2h-2l-2 11-2 4-1-2 4-16 8-15 7-9 8-8 5-8z" fill="#D3A4C5"/>
<path transform="translate(467,825)" d="m0 0 6 2 2 2 1 5v11l-5 4-4-2-2-4v-13z" fill="#985C87"/>
<path transform="translate(678,1067)" d="m0 0h1l2 12v5l-5 3-9-2-5-4-1-2v-7l5-4v6l3 5h6l2-5z" fill="#D3A5C5"/>
<path transform="translate(124,1537)" d="m0 0 3 3 3 5v2l7 2h3l4 9 4 6 1 2-5-2-11-10-8-13z" fill="#C893B8"/>
<path transform="translate(248,1093)" d="m0 0h6l8 7v5l-4 1-5-3-5-4-1-4z" fill="#794166"/>
<path transform="translate(678,1026)" d="m0 0h1v6l-7 21-2-1-1-8 2-7 5-9z" fill="#794166"/>
<path transform="translate(1107,1110)" d="m0 0 2 3 4 5 6 3h9l3-10h1v8l-3 7h-8l-13-8-2-2z" fill="#D4A7C7"/>
<path transform="translate(1227,659)" d="m0 0h5l-2 2-16 4-6 3h-6l-12 6-2-1 10-6 10-4 13-3z" fill="#FCFCFC"/>
<path transform="translate(1216,1218)" d="m0 0h5v2h-5l-2 14-3 12h-1v-15l2-9z" fill="#B77DA4"/>
<path transform="translate(1284,1025)" d="m0 0 5 3 1 6-2 4-5-1-2-5 1-6z" fill="#794166"/>
<path transform="translate(640,1065)" d="m0 0 6 1 5 2 8 1 4-3 2 1-6 6-11-3-8-4z" fill="#B1759E"/>
<path transform="translate(1034,679)" d="m0 0h7l-1 2-20 4-9 3v-2l13-5z" fill="#D3A4C5"/>
<path transform="translate(822,788)" d="m0 0h2l2 13-1 2h-2l-2-6z" fill="#794166"/>
<path transform="translate(477,553)" d="m0 0h2l-1 7-4 6h-2l2-4z" fill="#D5A9C8"/>
</svg>
