<?xml version="1.0" encoding="UTF-8"?>
<svg version="1.1" viewBox="0 0 2048 1288" width="1280" height="1280" xmlns="http://www.w3.org/2000/svg">
<path transform="translate(409,251)" d="m0 0h7l2 2 1 7v14l3 7 5 2 26 2 25 3 5 3 5 10 10 26 14 2 52 4 155 9 111 8 80 6 102 7 131 8 111 8 130 10 37 3 4-16 3-6 7-6 15-7 16-5 10-2h27l23 3 15 4 5 3 1 3 2 38 26 2 35 3 20 3 11 4 5 4 2 6v11l-2 22-4 16-1 1h-22l-46-4-9-1 4 19 15 3 21 2 27 2 13 1 3-10h12l31 3 10 3 5 4 6 8 2 3v10l-8 16-5 7-1 3v13l4 13 3 8 1 12 2 118 1 23 3 20 13-1 7-3 14-1h63l54 4 38 4 10 2 6 4 3 8v18l-4 15-3 3-4 1-20-1-58-7-68-10-29-5-5-6-3-1-6 4-8 1-12-3-4-2-4-7-3-20-4-52-5-82-2-49-1-13-5-2-30-11-10-4-21-4-35-3-6-1-2 13-9 29-9 17-9 12-2 6-1 12v17l4 10 10 14 10 15 2 7-4 8-7 6-14 4-2 6v85l-1 6 5 9 1 24 1 52 1 27 16 1 2 1-1 4-9 7-10 2h-17l-22-2-24-5-20-5-1 39-3 17-8 16-7 8-5 3-9 2h-16l-46-5-64-9-29-5-25-4-65-8-56-7-121-11-42-5-30-3-76-9-39-4-35-5-62-8-57-7-22-4-35-6-52-7-47-6-112-12-23-2-71-4-12-1v-2l19-9 2-3 1-100 2-11 7-15 1-5v-20l-3-101v-59l4-6v-14l-7 1-7 2-22 2h-12l-2-5-3 1-2 4-14 2h-14l-1-2-1-12-2-76v-48l2-21 5-21 6-15 7-12 9-10 8-5 24-8 38-8 16-2h42l4-1v-9l-4-13 1-5 7-2zm110 204-5 13-5 8-23 23v8l6 26 8 12 12 13 8 9 1 6-3 6-10 9-11 4-15 2v54l1 38 4 2 51 4 251 26 120 13 72 8 132 14 110 12 90 9 67 8h10v-127l1-32 1-10-6-5-19-9-9-7-4-7-3-9-1-7 7-10 4-15 3-2 18-2 6-4 2-4-1-5-5-2-25-3-57-3-45-4-47-3-69-6-52-4-114-10-85-7-42-3-54-5-68-5-85-7-67-6-42-4z" fill="#1A4F99"/>
<path transform="translate(423,284)" d="m0 0 14 2 22 1 17 2h5l4 5 13 33 14 2 52 4 155 9 111 8 80 6 102 7 131 8 111 8 130 10 34 3 1 4 2 18 3 2 3-1 6 2 8 1v1h-18l-7-3-1-3-44-2-31-3-44-4-41-3-37-3-47-3-50-4-29-2-26-3-28-2-42-2-41-5-53-3-23-2-24-3-52-2-35-3-5-1-14-1-43-2-32-3-11-2-19-1-27-1-29-3-11-3-11-1-99-2-8-2-5-6-1-2h-10l-4 5-4 8v12l2 4 12 3 26 3 29 4 26 3 45 3 43 3 65 3 22 2 19 2 72 4 17 2 44 3 72 5 27 2 50 3 38 4 48 3 37 3 47 2 60 5 45 2 26 2 27 3 28 1h34l9 1 8-2 5-2 11-1 8 3 7 1h51l7-1 4 5 2 5 2 12 3 5 8 3 15 4 18 1 9 2 2 13 3 8 14 2 1 1 34 3 12 2 8 1-1 7-35-1-54-4v-2h-15l-24-2-3-1v11l2 7 18 6 1 2-3 14-8 16-6 10h-4l-3-7-2-11v-13l-1-10-2-5-3-18-1-17-2-12-4-3h-8l-8 1-5 2-9 3-13 5-11 5-6 3h-4l-1 3h-4l-1 4-9 9-1 4v8l-2 11 3 5 1 6 4 2v2l18 6 9 6 4 6 3 7 1 5-1 7-3 4-5 4-11 8h-3l-2 4-2 2h-3l-1 3-8 6-8 9-5 11-1 3-4-1v-16l-5-4-19-9-9-7-5-8-3-9-1-7 7-10 4-15 4-3 18-2 5-3 2-4-1-5-18-3-80-5-33-3-47-3-69-6-52-4-114-10-85-7-42-3-54-5-68-5-85-7-67-6-55-5-1 6-7 14-24 24v8l6 26 8 12 12 13 8 9 1 6-3 6-11 10-11 4-15 1v72h-12l-11 4-5 6-2 6h-2v3l7 1 3 1-2 5-6 5-25 10-30 11-5 1h-8l-5-5-1-11v-15l-1-15v-96l-1-20v-14l-1-20-2-17-4-4h-11l-2-1v-2l-10-1h-6l-8 4h-3l-1 6h-3l-1-7-1-3-5 1-1 13-10 4-2 1h-19l-8-2-3-1-1-4-6-5-5-7v-2h-2v-12l1-6-1-4 1-3 6-3h5l1-3 6-4 3-5 8-4 11-2 3-5 6-3 12-1 1-13h1l1 14v-26l1-5h4l6 25 4 8 3 5 4 13 9 8 8 4 7 1 8-2 3-6 3-15 4-11 4-7h3l1-5h2v-9l1-2v-15l1-10v-13l1-7 9-2 7-1-1-8-3-4-1-21 3-18 2-9-5-1h-23l-5-1h-15l-8-3h-3l-3-3 1-4 26-7 10-3 7 3 2 1h9l4-4 1-3z" fill="#0F3A79"/>
<path transform="translate(433,350)" d="m0 0h1l2 12 7 3 38 5 49 6 45 3 43 3 65 3 22 2 19 2 72 4 17 2 44 3 72 5 27 2 50 3 38 4 48 3 37 3 47 2 60 5 45 2 26 2 27 3 28 1h34l9 1 8-2 5-2 11-1 8 3 7 1h51l7-1 4 5 2 5 2 12 3 5 8 3 15 4 18 1 9 2 2 13 3 8 14 2 1 1 34 3 12 2 8 1-1 7-35-1-54-4v-2h-15l-24-2-3-1v11l2 7 18 6 1 2-3 14-8 16-6 10h-4l-3-7-2-11v-13l-1-10-2-5-3-18-1-17-2-12-4-3h-8l-8 1-5 2-9 3-13 5-11 5-6 3h-4l-1 3h-4l-1 4-9 9-1 4v8l-2 11 3 5 1 6 4 2v2l18 6 9 6 4 6 3 7 1 5-1 7-3 4-5 4-11 8h-3l-2 4-2 2h-3l-1 3-8 6-8 9-5 11-1 3-4-1v-16l-5-4-19-9-9-7-5-8-3-9-1-7 7-10 4-15 4-3 18-2 5-3 2-4-1-5-18-3-80-5-33-3-47-3-69-6-52-4-114-10-85-7-42-3-54-5-68-5-85-7-67-6-55-5-1 5-13-2-20-1-16-3-7-3-1-2-13-4-8-6-2-5-2-10 9 4 19 3 14 2 11 3 16 3 44 2 40 4 43 3 28 3 18 2 19 1 25 1 21 1 31 4 57 2 25 4 10 1 44 2 25 1 17 2 16 2 18 1 25 1 20 4 21 2 36 2 22 2 21 3 46 4 38 4 13 1 43 2 16 1 21 2h26l22-2 22-1 4-1h7l2 3 3-1 1-3v-13l-6 1h-8l-27-5-12-2-14-3-27-3-16-3-18-2-47-3-22-2-67-3-30-3-63-3-64-5-23-1-46-5-21-2-47-4-21-3-22-2-37-2-32-4-40-3-36-3-14-2-28-2h-31l-15-2h-11l-25 2h-34l-32-2-9-1h-9l-3 1v-13l-5-12v-8l1-7h2l-3-12z" fill="#0F3A79"/>
<path transform="translate(443,333)" d="m0 0h10l6 8 8 2 99 2 15 2 14 3 25 2 30 1 15 1 17 3 40 3 27 1 14 1 13 2 47 3 32 1 35 4 25 2 40 2 25 3 16 2 56 3 34 3 17 2 42 3 53 4 48 3 33 3 39 3 22 2 31 3 41 2 3 1 2 3 6 2 30 1 38 5 10 4 1 4-10 2h-48l-10-2-5-2-11 1-7 3-7 1-16-1h-36l-30-2-25-3-34-2-43-2-29-3-41-2-37-2-21-2-48-3-38-4-66-4-53-4-63-4-23-2-5-1-72-4-26-3-58-3-55-3-65-5-32-4-36-5-13-2-4-3-1-3v-12l6-11z" fill="#7B7273"/>
<path transform="translate(441,412)" d="m0 0h9l11 1 35 2h29l29-2 13 1 9 1h31l38 3 14 2 55 4 26 3 19 2 35 2 30 3 24 3 36 3 21 2 46 5 36 2 51 4 63 3 30 3 70 3 34 3 43 3 18 3 23 3 20 3 7 2 25 4 10 2h8l6-1 1 4v10l-3 5-4-2v-2l-11 2-22 1-22 2h-26l-37-3-43-2-35-3-29-3-42-4-20-3-50-3-27-3-14-3-25-1-29-2-10-2-30-2-26-1-25-1-37-5-55-2-31-4-39-2h-12l-26-2-14-2-32-3-31-2-40-4-44-2-24-5-8-2-24-3-10-3-3-3 1-9z" fill="#7B7273"/>
<path transform="translate(433,350)" d="m0 0h1l2 12 7 3 38 5 49 6 45 3 43 3 65 3 22 2 19 2 72 4 17 2 44 3 72 5 27 2 50 3 38 4 48 3 37 3 47 2 60 5 45 2 26 2 27 3 28 1h34l9 1 8-2 5-2 11-1 8 3 7 1h51l7-1v3l-4 2 4 1 1 3v7l-4-2-31-1-28-2-7-1-9 7h-2l-2 4-5 3-6 1h-13l-28-3-58-3-65-5-73-5-80-6-134-11-61-4-51-4-144-10-86-5-52-5-48-4-19-4-34-3h-25l-4-8v-3h2l-3-12z" fill="#4C4547"/>
<path transform="translate(1647,485)" d="m0 0h12l31 3 10 3 5 4 6 8 2 3v10l-8 16-5 7-1 3v13l4 13 3 8 1 12 2 118 1 23 3 20 13-1 7-3 14-1h63l54 4 38 4 10 2 6 4 3 8v18l-4 15-3 3-4 1-20-1-58-7-68-10-29-5-5-6-3-1-6 4-8 1-12-3-4-2-4-7-3-20-4-52-5-82-2-49-1-13-5-2-30-11-10-4 1-3 2-21 2-13 6-1z" fill="#DBDBDB"/>
<path transform="translate(471,315)" d="m0 0 8 1 2 3v3h6l3 1 6-1 2 5 14 2 52 4 155 9 111 8 80 6 102 7 131 8 111 8 130 10 34 3 1 4 2 18 3 2 3-1 6 2 8 1v1h-18l-7-3-1-3-44-2-31-3-44-4-41-3-37-3-47-3-50-4-29-2-26-3-28-2-42-2-41-5-53-3-23-2-24-3-52-2-35-3-5-1-14-1-43-2-32-3-11-2-19-1-27-1-29-3-11-3-11-1-99-2-8-2-5-6-1-2-8-1 2-2 7-4 5-4 5-1 8 1-6-2 1-3z" fill="#4C4547"/>
<path transform="translate(409,251)" d="m0 0h7l2 2 1 7v14l3 7 5 2 26 2 25 3v2l-14-1-5-1-23-1-13-2-6 1-2 5-3 2h-9l-5-3-6-1-16 5-18 5 2 4 4 2 7 2h20v2l5-1h19l4 2-1 9-3 21 1 18 3 4 1 8-3 2h-7l-1 1h-6v26l-1 4v16l-1 2-1 8h-2l-1 5-3 1-5 10-4 16-2 9-3 4-9 2-8-2-10-6-7-8-4-13-5-9-4-13-3-13-3-1v31l-2 2-2-43h-11l-8-5-2-3 1-6 6-3 13-2v-9l-1-3-5-3-8-3 1-8 11-28 8-16 3-4 1-4-25-1-3-3 1-5-2-3 7-3 31-6 10-1h42l4-1v-9l-4-13 1-5 7-2z" fill="#1A4F99"/>
<path transform="translate(301,291)" d="m0 0 3 1 2 3-1 6 2 1 25 2-1 5-6 10-10 24-6 16v5l9 3 4 3 1 3v9l-1 1-16 3-3 3 1 5 3 3 5 3 11 1 1 6v34l-1 1-12 1-6 3-3 5-14 3-6 4-3 5-5 3-1 2-7 2-4 1 1 11-1 2v12l4 7 8 10 5 5 8 1v1h-12l-2-5-3 1-2 4-14 2h-14l-1-2-1-12-2-76v-48l2-21 5-21 6-15 7-12 9-10 8-5 24-8z" fill="#DADBDB"/>
<path transform="translate(312,848)" d="m0 0h17l33 3 39 5 33 5 62 9 22 3h13l13 3 24 1 13 1 20 4 10 1h16l6 1 35 4 28 4 15 3 41 3 33 4 23 2 23 3 12 2 37 3 16 3 26 2 24 3 19 3 40 4 16 3 38 3 42 5 12 2 26 2 30 4 5 1 28 2 37 5 22 2 32 4 11 2 27 2 72 8 17 2 3 1v4h-54l-10-2h-32l-27-1-9-1 1-3-20 1-25-4-65-8-56-7-121-11-42-5-30-3-76-9-39-4-35-5-62-8-57-7-22-4-35-6-52-7-47-6-112-12-23-2-71-4-12-1v-2z" fill="#103B7A"/>
<path transform="translate(441,416)" d="m0 0h8l21 2 17 1 84 1 34 2 51 5 40 3 40 4 42 3 40 4 45 3 117 10 70 5 50 4 44 3 48 4 42 3 86 8 29 4 27 3 4 3-1 4-5 1h-22l-48-2-42-3-103-8-127-10-212-17-32-3-68-5-81-6-51-5-59-5-66-6-14-1-7-2-2-2z" fill="#DBDBDB"/>
<path transform="translate(437,348)" d="m0 0h14l16 1 38 1 102 6 46 4 61 4 31 3 62 4 46 4 48 3 32 3 65 4 47 4 58 4 45 4 45 3 46 4 48 3 48 4 60 4 17 2 12 3 2 1v3l-14 4-27-1-163-12-143-9-53-4-45-3-34-3-71-5-48-4-81-6-124-8-44-3-51-5-54-4-34-4-4-2v-6z" fill="#DBDBDB"/>
<path transform="translate(1476,350)" d="m0 0h27l23 3 15 4 5 3 1 3 2 38 26 2 35 3 20 3 11 4 5 4 2 6v11l-2 22-2 7-6 4h-6l-3 1v2l-2 1-11-1-5-2-2-3v-5l10-5 5-2h8l1-4v-15h-11l-56-4-55-4h-11l-13-3-26-2-28-3-8-3-1 2-4-3-2-19 1-3h2l4-16 3-6 7-6 15-7 16-5z" fill="#1A4F99"/>
<path transform="translate(439,394)" d="m0 0 6 2 18 2 67 3 39 3 49 3 45 4 45 3 43 4 66 4 31 3 58 4 28 3 54 4 51 4 66 4 36 3 59 4 33 3 47 3 38 4 24 2 30 5 15 2 10 1 4-3h5l-3 2-7 6-1 4 1 5-7 1h-8l-27-5-12-2-14-3-27-3-16-3-18-2-47-3-22-2-67-3-30-3-63-3-64-5-23-1-46-5-21-2-47-4-21-3-22-2-37-2-32-4-40-3-36-3-14-2-28-2h-31l-15-2h-11l-25 2h-34l-32-2-9-1h-9l-3 1v-13l-2-5z" fill="#4C4547"/>
<path transform="translate(434,377)" d="m0 0 2 3 2 5 14-1h11l34 3 19 4 102 9 84 5 88 6 56 4 51 4 88 6 97 8 146 11 43 3 54 4 43 2 28 3h13l9-2 4-5 11-8 21 2 18 1 27 1 5 4v8l-16 1-23 2h-11l-12 2-4 1-1 3-2 1h-18l-16 2-4 3-10-1-32-5-22-3-25-2-28-3-59-4-34-3-73-5-39-3-64-4-48-4-40-3-17-2-71-5-18-2-66-4-56-5-44-3-33-3-66-4-22-2-49-2-27-2-12-2-3-1h-4l-2-6v-8z" fill="#090708"/>
<path transform="translate(609,813)" d="m0 0 9 1 3 1 31 3 8 2 1 10 2-7 7-3 11 1 16 2 5 3 2 3 3-4 2-5 3-3 9 2 4 7-1 5-6 8-1 7 5 1 3-6 2-11 3-2h10l23 3 7 3 2-7 3-3h7l4 1 12 1 15 2 3 1v6l-3 5-1 9 12-9 4-1h8l2 1v2l2-1h13l11 1h8l7 2 16 2 3 3 1 5-1 12 4-16 4-8 2-1h11l14 2 11 4-1 4-4-1-3-1 3 4v5l-6 4-1 2v17l-1 1-10-1-6-3-1-6 2-9v-5h-2l-4 10-3 8-5 3-6-1-2-4-5 3h-14l-16-3-5-4v-7l4-16-6 12-3 10-4 3-10-1-12-2-6-8-6-4-1-1-3 8-3 3-11-1-28-3-4-4-5 3-14-1-14-2-8-3-2 1h-12l-5-3 1-15-2 2 1 2-4 10-2 2-30-3-8-4v-2h-2l-1 3-8 1-3-3v-7l3-7v-4h-5l-3 4-3 12-3 2h-9l-3-2 4-21-7 2-4 13-4 6h-7l-6-4v-2l3-1 1-5 3-13z" fill="#F6FCFC"/>
<path transform="translate(1747,744)" d="m0 0h63l54 4 38 4 10 2 6 4 3 8v18l-4 15-3 3-4 1-20-1-58-7-68-10-29-5-5-6-3-1-5 1v-7l1-11 2-5 4-4 4-2z" fill="#0B090A"/>
<path transform="translate(433,350)" d="m0 0h1l2 12 7 3 38 5 49 6 45 3 43 3 65 3 22 2 19 2 72 4 17 2 44 3 72 5 27 2 50 3 38 4 48 3 37 3 47 2 60 5 45 2 26 2 27 3 28 1h34l9 1 8-2 5-2 11-1 8 3 7 1h51l7-1v2l-15 2h-20l-30-1-8-2-9 1-7 6-5 2h-19l-31-2h-14l-12 1-36-2-42-1-18-2-27-2-11-1h-40l-18-3-32-3-15-2-24-1-59-8-27-1-15-2-17-1-14-2-24-2-22-1-28 1h-13l-27-2-13-1-16-2h-29l-40-4-62-3-31-4-18-2-15-2-36-3-46-5-55-5-17-3-8-3-4-7z" fill="#595254"/>
<path transform="translate(436,424)" d="m0 0 9 4 19 3 14 2 11 3 16 3 44 2 40 4 43 3 28 3 18 2 19 1 25 1 21 1 31 4 57 2 25 4 10 1 44 2 25 1 17 2 16 2 18 1 25 1 20 4 21 2 36 2 22 2 21 3 46 4 38 4 13 1 43 2 16 1 21 2h26l22-2 22-1 4-1h7l2 4-3 6v6l-33-1-64-5-25-2-23-2-55-4-42-4-38-3-42-4-42-3-31-3-66-5-43-4-45-3-31-3-63-4-33-3-66-4-44-3h-24l-5 2-1 2-18-1-35-3-1 5-13-2-20-1-16-3-7-3-1-2-13-4-8-6-2-5z" fill="#4C4547"/>
<path transform="translate(578,454)" d="m0 0h26l119 8 35 3 62 4 31 3 47 3 53 5 55 4 28 3 44 3 39 4 41 3 43 4 56 4 18 2 69 5 16 1 25 1 4 2v11l-19-3-80-5-33-3-47-3-69-6-52-4-114-10-85-7-42-3-54-5-68-5-85-7-67-6-2-1 2-4z" fill="#353235"/>
<path transform="translate(1474,422)" d="m0 0h15l11 3h11l122 9 1 7v8l-2 5h-8l-12 5-3 1 2 8 10 2h8v-2l4-3v2l6-2 5-2-2 9-1 1h-22l-46-4-9-1 4 19 15 3 21 2 27 2 7 1v9l-2 11-1 15-2 2-21-3-35-3-6-1-1 7-3-3-28-6-24-5-9-4-2-7v-7l1-4 42 3v2h14l40 3 27 1 8 1 1-7-17-1-3-1-34-3-6-2-9-1-3-5-2-11v-6l-27-2-15-4-8-3-4-6-2-12-7-14-9-3-17-2z" fill="#1A4F99"/>
<path transform="translate(1540,802)" d="m0 0 2 4 1 19 1 52 1 27 16 1 2 1-1 4-9 7-10 2h-17l-22-2-24-5-15-4-2-2v-30l1-22 10-8 16-12 17-12 19-12 9-6z" fill="#0F3A79"/>
<path transform="translate(554,423)" d="m0 0 34 2 181 15 32 3 119 9 53 5 53 4 48 4 210 16 46 5 6 2v2h-26l-47-3-96-7-90-7-88-7-280-22-71-6-84-8-20-3-1-2 4-1z" fill="#FCFDFD"/>
<path transform="translate(443,333)" d="m0 0h10l6 8 8 2 99 2 15 2 14 3 25 2 30 1 15 1 17 3 40 3 27 1 14 1 13 2 47 3 32 1 35 4 25 2 40 2 25 3 16 2 56 3 34 3 17 2 42 3 53 4 48 3 33 3 39 3 22 2 31 3 41 2 3 1 2 3 7 3-2 1-16-3-56-4-93-7-44-3-31-3-47-3-44-4-59-4-48-4-63-4-34-3-46-3-48-4-60-4-32-3-62-4-32-3-102-6-38-1-16-1h-14l-3 1 1-4 5-10z" fill="#7B7273"/>
<path transform="translate(493,355)" d="m0 0h58l37 2 34 3 61 4 31 3 57 4 33 3 61 4 60 5 47 3 52 4 44 3 33 3 69 5 46 4 48 3 48 4 48 3 46 4 6 2-1 3-24-1-87-6-110-8-74-6-58-4-112-8-40-3-60-4-105-8-103-7-50-3-71-6-21-2-5-1z" fill="#FCFDFD"/>
<path transform="translate(443,407)" d="m0 0 30 1 96 1 39 2 35 3 52 4 29 3 25 2 12 2 33 2 36 3 30 3 36 3 26 2 13 2 48 3 79 6 43 2 31 3 34 2 10 1 24 1 54 4 38 3 43 5 14 4 18 4 9 4 16 1-1 2-6 1h-8l-27-5-12-2-14-3-27-3-16-3-18-2-47-3-22-2-67-3-30-3-63-3-64-5-23-1-46-5-21-2-47-4-21-3-22-2-37-2-32-4-40-3-36-3-14-2-28-2h-31l-15-2h-11l-25 2h-34l-32-2-9-1h-11l3-5z" fill="#5A5355"/>
<path transform="translate(459,323)" d="m0 0h2v5l-1 5 5 4 17 1h23l52 3h11l25 2 30 5 24 2h13l37 2 31 5 21 1 39 1 26 2 16 2 11 1 34 1 32 3 16 2 13 1 53 2 39 5 3 1 25 1 30 1 18 1 17 4 10 2 20 1 34 1 5 1h11l16 1 21 3 38 2 24 3 49 4 27 2 16 2 23 2 3 4v2l2 1-4-1-1-3-44-2-31-3-44-4-41-3-37-3-47-3-50-4-29-2-26-3-28-2-42-2-41-5-53-3-23-2-24-3-52-2-35-3-5-1-14-1-43-2-32-3-11-2-19-1-27-1-29-3-11-3-11-1-99-2-8-2-5-6-1-2-8-1 2-2 7-4z" fill="#5A5355"/>
<path transform="translate(434,374)" d="m0 0 7 2 26 2 34 3 36 5 8 2 56 5 28 4 89 6 41 3 36 2 56 5 29 2 36 1 30 3 37 3 25 1 31 3 54 4 26 3 37 3 49 3 34 3 54 3 35 3h79l8-3 5-5 7-5 11 2 25 1h39l1 3v7l-4-2-31-1-28-2-7-1-9 7h-2l-2 4-5 3-6 1h-13l-28-3-58-3-65-5-73-5-80-6-134-11-61-4-51-4-144-10-86-5-52-5-48-4-19-4-34-3h-25l-4-8z" fill="#343134"/>
<path transform="translate(787,828)" d="m0 0h9l16 2 1 1-1 18 12-9 4-1h8l2 1v2l2-1h13l11 1h8l7 2 16 2 3 3 1 5-1 12 4-16 4-8 2-1h11l14 2 11 4-1 4-4-1-3-1 3 4v5l-6 4-1 2v17l-1 1-10-1-6-3-1-6 2-9v-5h-2l-4 10-3 8-5 3-6-1-2-4-5 3h-14l-16-3-5-4v-7l4-16-6 12-3 10-4 3-10-1-12-2-6-8-6-4-1-1-3 8-3 3h-6l-5-3 2-6 2-3 2-18 2-5-4 4-3 15-4 11-5 2-4-3v-8l1-3 1-12 3-9z" fill="#F6FCFC"/>
<path transform="translate(436,424)" d="m0 0 9 4 19 3 14 2 11 3 16 3 44 2 40 4 43 3 28 3 18 2 19 1 25 1 21 1 31 4 57 2 25 4 10 1 44 2 25 1 17 2 16 2 18 1 25 1 20 4 21 2 36 2 22 2 21 3 46 4 38 4 13 1 43 2 16 1 21 2h26l22-2 22-1 4-1h7l-1 2-24 4-6 2-15 1h-23l-30-2-33-3-40-2-34-3-18-2-45-3-33-4-39-2-31-3-14-2-47-3-28-3-15-2-39-2-34-3-15-2-38-2-32-2-41-4-38-2-41-4-36-3-63-4-37-2-24-3-17-4-5-2-9-1-4-5-4-3z" fill="#5A5355"/>
<path transform="translate(756,469)" d="m0 0h26l35 3 7 1 67 4 32 3 67 5 58 5 37 3 75 7 12 3 2 2 9 1 16-1 25 1 26 3 10 3 2 3h-21l-55-4-45-4-52-4-114-10-85-7-42-3-54-5-44-3-3-1v-2z" fill="#201D21"/>
<path transform="translate(581,789)" d="m0 0 27 2 5 5v10l4 2 11 2 10 3 19 4 32 2 9 1 5 2 5-1-1 6-4 4-3-6-9-2-16-2-7 1-5 2-2 8h-1v-12l-39-4-7-2h-5l-5 6-3 13-2 6h-3l1 2 5 3h7l4-7 3-11 2-2h6v7l-3 14 2 1h9l2-1 4-14 3-3h5l1 5-3 7v9l10-1 1-2h2l1 2 7 3 9 1v1l-12 1-12 3h-12l-6-1-4 1h-12l-8-2-5-2-2-3-8-3-3-4v-2l-5 3h-7l-24-5-2-4 2-2 3-20 6-12 7-6z" fill="#2A5FA6"/>
<path transform="translate(442,427)" d="m0 0 14 1 47 5 15 3 43 2 60 6 39 3 20 2 22 1 57 3 24 2 3 1 46 3 40 3 16 2 74 5 58 5 28 2 40 4 48 4 5 2 38 4 14 1 13 2 17 1 7 1 57 3 25 1h63l12-3 2 3-11 2-22 1-22 2h-26l-37-3-43-2-35-3-29-3-42-4-20-3-50-3-27-3-14-3-25-1-29-2-10-2-30-2-26-1-25-1-37-5-55-2-31-4-39-2h-12l-26-2-14-2-32-3-31-2-40-4-44-2-24-5-8-2-24-3-7-2z" fill="#73696A"/>
<path transform="translate(695,413)" d="m0 0h14l57 5 58 3 32 3 60 4 27 3 66 5 52 4 50 3 36 3 61 4 47 4 40 2 31 3 48 6 21 3 3-3 10-2-1-1-31-3-27-4-219-16-52-4-97-8-84-6v-1h17l71 5 97 8 146 11 43 3 54 4 43 2 28 3h13l9-2 4-5 11-8 21 2 18 1 27 1 5 4v8l-16 1-23 2h-11l-12 2-4 1-1 3-2 1h-18l-16 2-4 3-10-1-32-5-22-3-25-2-28-3-59-4-34-3-73-5-39-3-64-4-48-4-40-3-17-2-71-5-18-2-66-4-56-5z" fill="#1B191D"/>
<path transform="translate(1565,478)" d="m0 0h1l2 9 15 3 21 2 27 2 7 1v9l-2 11-1 15-2 2-21-3-35-3-6-1-1 7-3-3-28-6-24-5-9-4-2-7v-7l1-4 42 3v2h14l40 3 27 1 8 1 1-7-17-1-3-1-34-3-6-2-9-1-3-5z" fill="#7D7475"/>
<path transform="translate(1072,369)" d="m0 0h21l35 1 126 9 130 10 34 3 1 3h-2v2l-3 2-8 1h-51l-24-3-26-2-47-3-18-5-7-1-52-1-23-2-17-5-37-2-23-2-8-2z" fill="#383538"/>
<path transform="translate(439,394)" d="m0 0 6 2 18 2 67 3 39 3 49 3 45 4 45 3 43 4 66 4 31 3 58 4 28 3 54 4 51 4 66 4 36 3 59 4 33 3 47 3 38 4 24 2 30 5 15 2 10 1 4-3h5l-3 2-8 7-10-1-15-3-16-3-12-3-60-5-27-3-49-3-48-4-36-2-61-5-40-2-60-5-32-2-52-5-46-3-31-3-55-4-52-5-60-4-35-3-39-2-40-1h-22l-30-2-22-3-5-1h-3l-1-4z" fill="#343134"/>
<path transform="translate(434,355)" d="m0 0 4 5 8 3 44 5 15 2 17 2 20 2 32 2 27 2 66 4 43 2 33 3 57 3 46 5 68 4 42 4 60 3 32 4 65 3 34 3 59 2 25 2 17 2 61 3 18 2 13 2 14 1h58l17-3 7 3 6 1 26 1h19l9-2h6v2l-10 2h-48l-10-2-5-2-11 1-7 3-7 1-16-1h-36l-30-2-25-3-34-2-43-2-29-3-41-2-37-2-21-2-48-3-38-4-66-4-53-4-63-4-23-2-5-1-72-4-26-3-58-3-55-3-65-5-32-4-36-5-13-2-4-3z" fill="#73696A"/>
<path transform="translate(1076,816)" d="m0 0 32 2 60 7 35 3 106 12 72 7 60 7h11l11-9 8-4-1 5-8 8-6 9h-11l-61-7-43-5-52-5-42-5-88-10-61-8-27-4-4-2z" fill="#2B60A7"/>
<path transform="translate(967,853)" d="m0 0 10 1 4 1 8-1 10 2 9 4h8l9 3 2 4 3-1 1-2 7-1 4 4 3 11v10l-3 6-4 2-4-2-21-1-30-4-14-3v-2l-5-1-1-2v-16l1-10z" fill="#2B60A6"/>
<path transform="translate(291,457)" d="m0 0h8l4 7h-5l2 10 1 3h2l2 4h4l1-16 4-1 13 2 3 17-5 12-1 3-6 1-1 13-10 4-2 1h-19l-8-2-3-1-1-4-6-5-5-7v-6l4-3h2v-7l1-2 11 1v-2h-2l1-7 6 2h2l-4-7v-4l5-1 3 1z" fill="#090708"/>
<path transform="translate(1391,537)" d="m0 0 5 5 7 6h18l-2 9h-2l-2 9-5 8-5 20-5 5-9 5-5 5-19-9-9-7-5-8-3-9-1-7 5-6 5-5h2l1 6 7 2 6 2h12l2-7 1-19z" fill="#1B191D"/>
<path transform="translate(1124,933)" d="m0 0 49 2 24 3 23 3 15 2 28 4 15 2 18 2 30 4 95 10 30 5 1 2-3 6-25-4-56-7-121-14-43-5-59-7-22-4v-3z" fill="#2B60A7"/>
<path transform="translate(409,251)" d="m0 0h7l2 2 1 7v14l3 7 5 2 26 2 25 3v2l-14-1-5-1-23-1-13-2-6 1-2 5-3 2h-9l-5-3-6-1-16 5-27 7-11 2-5 2-1 2v-3l-25-1-3-3 1-5-2-3 7-3 31-6 10-1h42l4-1v-9l-4-13 1-5 7-2z" fill="#2D60A6"/>
<path transform="translate(441,412)" d="m0 0h9l11 1 35 2h29l29-2 13 1 9 1h31l38 3 14 2 55 4 26 3 19 2 35 2 30 3 24 3 36 3 21 2 46 5 36 2 51 4 63 3 30 3 70 3 34 3 43 3 18 3 23 3 20 3 7 2 25 4 10 2h10l-5 5-10-4-38-5-27-4-21-2-23-4-23-2-31-2-43-3-55-3-48-4-57-3-73-6-24-2-27-3-50-4-42-5-40-2-29-3-25-3-49-3-23-3-13-1-46-1h-66l-46-3-16-2z" fill="#73696A"/>
<path transform="translate(775,824)" d="m0 0h7l4 1 12 1 15 2 3 1v6l-4 5v-9l-16-2h-9l-3 9-1 12-1 3v8l5 2 3-3 5-17 2-9 4-2-3 23-4 7v2l2 2-15-1-16-2-4-4-5 3-14-1-14-2-6-2v-10l3-6 2-11 3-2h10l23 3 7 3 2-7z" fill="#F6FDFD"/>
<path transform="translate(443,333)" d="m0 0h10l6 8 8 2 99 2 15 2 14 3 25 2 30 1 15 1 17 3 40 3 27 1 14 1 13 2 47 3 32 1 35 4 25 2 40 2 25 3 16 2 56 3 34 3 17 2 42 3 53 4 48 3 33 3 39 3 22 2 31 3v1h-17l-43-4-67-5-32-3-55-3-41-4-47-3-30-3-64-4-36-4-11-1-39-2-31-3-24-2-64-3-17-2-20-2-54-3-18-2-14-2-62-3-21-3-12-2-93-2-14-4-6 3-3 3-2-1 6-11z" fill="#73696A"/>
<path transform="translate(434,377)" d="m0 0 2 3 2 5 14-1h11l34 3 19 4 102 9 84 5 88 6 56 4v1h-18l-116-8-53-3-59-3-24-2h-22l8 2 42 3v1h-20l-43-3-11-1-49-2-27-2-12-2-3-1h-4l-2-6v-8z" fill="#1B191D"/>
<path transform="translate(1114,877)" d="m0 0 6 1 5 5 5 7 11 3v-6l4-6 4-2 16 1 14 1 6 3 3 8v15l-2 5-6 2h-8l-7-2-3-3-3 2h-12l-4-4-2-8h-7v-2l-9-3-9-11-2-1-1 8-3 1 2 2 3-4 4 2 3 5-2 7-7 1-5-2-3-8 2-13 3-3z" fill="#2B60A7"/>
<path transform="translate(581,789)" d="m0 0 27 2 5 5v5l-7 7-11 9-2 4-16 9-5 4-3 4 6 2v1l-16-1-6-2v-4l2-5 2-16 6-12 7-6z" fill="#2B60A7"/>
<path transform="translate(1699,524)" d="m0 0h2v3h2l2 5-5 7-1 3v13l4 13 3 8 1 12 2 118 1 23 3 20h10l-2 4-12-2-2-1-3-28-4-44-3-51-1-27v-55l1-5 1-14z" fill="#FCFDFD"/>
<path transform="translate(787,828)" d="m0 0h9l16 2 1 1-1 18 12-9 11 1-1 5-2 5 1 6 2 3v5l-3 4-10-1-5-7-6-4-1-1-3 8-3 3h-6l-5-3 2-6 2-3 2-18 2-5-4 4-3 15-4 11-5 2-4-3v-8l1-3 1-12 3-9z" fill="#F6FDFD"/>
<path transform="translate(1546,380)" d="m0 0h1l2 21 26 2 35 3 15 2 2 3v8l-14-1-9 2-17 1h-11l-10-4-8-1-9-3-6-7-2-4-5-2-2-4v-6l6-5 5-1z" fill="#103B7A"/>
<path transform="translate(1474,422)" d="m0 0h15l11 3h11l122 9v8l-4 1-47-2-52-3-21-2-7-4-2-4-9-3-17-2z" fill="#2A5FA6"/>
<path transform="translate(607,815)" d="m0 0h7l7 2 25 2 13 2v13l-5 13-4 3-6-1-1-2v-7l3-7v-4h-5l-3 4-3 12-3 2h-9l-3-2 4-21-7 2-4 13-4 6h-7l-6-4v-2l3-1 1-5 3-13z" fill="#F5FBFB"/>
<path transform="translate(908,841)" d="m0 0h11l14 2 11 4-1 4-4-1-3-1 3 4v5l-6 4-1 2v17l-1 1-10-1-6-3-1-6 2-9v-5h-2l-4 10-3 8-5 3-6-1-2-4-5 3h-6v-1l6-2 5-7 3-13h1v12l4-16 4-8z" fill="#F5FBFB"/>
<path transform="translate(1423,390)" d="m0 0 8 5 16 2 8 3 4 3 6 4 12 3 7 4-2 3 2 1 20 1 3 3v3l-7 1-13-3-26-2-28-3-8-3-1 2-4-3-2-19 1-3z" fill="#0F3A79"/>
<path transform="translate(324,428)" d="m0 0h1v17l-2 3h-2l-1 2 3 3v3l3 1 2 9h-10l-8-1v16l-5 1-2-5h-2l-3-5v-8l4-1-3-4v-2l-7 1 1 6-9-1 3 7 1 4-4 1-4-3-1 7h2v2l-11-1-1 9-5 3-1 4h-2v-12l1-6-1-4 1-3 6-3h5l1-3 6-4 3-5 8-4 11-2 3-5 6-3 12-1z" fill="#3B373A"/>
<path transform="translate(291,457)" d="m0 0h8l4 7h-5l2 10 1 3h2l2 4h4l2-2v5l-6 2-1-3h-2v-3h-2v2h-4l-1 3-5 1-10-1h-4l-5-2 1 9-2 2 1 5 3 4-1 4 5 1 2 4 13 1 7 1 4-1 6-7 4-4h2l-1-10v-8l4-14-2-5 10 1 3 17-5 12-1 3-6 1-1 13-10 4-2 1h-19l-8-2-3-1-1-4-6-5-5-7v-6l4-3h2v-7l1-2 11 1v-2h-2l1-7 6 2h2l-4-7v-4l5-1 3 1z" fill="#1B191D"/>
<path transform="translate(351,282)" d="m0 0 40 1-3 2-11 5-29 10-10 3-5 2-1 2v-3l-25-1-3-3 1-5-2-3 7-3 31-6z" fill="#807778"/>
<path transform="translate(1476,350)" d="m0 0h16l16 3 2 2v4l-6 5-13 5-7 2h-32l-14-3 5-5 7-6 16-5z" fill="#0F3A79"/>
<path transform="translate(970,855)" d="m0 0 9 2 4 3 3 7 3 5v10h6v-6l-4-3-1-10 4-3 7 1 3 2 1 8 1 13-2 4-2 1h-8l-10-2-2-2h-13l-5-2-1-2v-16l3-9z" fill="#F1F7F7"/>
<path transform="translate(317,728)" d="m0 0 136 16 26 4 3 3-2 1-18-1-47-5-52-5-44-4h-5z" fill="#2B60A7"/>
<path transform="translate(485,553)" d="m0 0h9l5 4 4 4 10 6 8 4-1 7-7 7-9 6-7 2h-11l-1-22z" fill="#1B191D"/>
<path transform="translate(1638,413)" d="m0 0 5 1 4 5 1 4v11l-2 22-2 7-6 4h-6l-3 1v2l-2 1-11-1-5-2-2-3v-5l10-5 5-2h8l1-4 2-21z" fill="#103A77"/>
<path transform="translate(1439,445)" d="m0 0 15 2 28 2h14l6 2 1 4-7 2-31 3h-11l-12 2-6 3h-9l-11-1-3-2 5-3 12-7 3-5z" fill="#090709"/>
<path transform="translate(603,794)" d="m0 0h7l3 2v5l-7 7-11 9-2 4-16 9-5 4-3 4 6 2v1l-16-1-6-2v-4l7-6 6-4 15-14 12-8 8-7z" fill="#F4FAFA"/>
<path transform="translate(1389,532)" d="m0 0 3 4-1 6-1 19-2 7-1 1h-12l-7-3-7-2v-6l-5 5-2-1 3-6 3-12 4-3 18-2 5-3z" fill="#4E4749"/>
<path transform="translate(1733,745)" d="m0 0 3 1-3 2-2 8 12 2 33 3 26 4 9 2 2 4-1 1h-19l-39-4-23-3 1 10-5-2-5 1v-7l1-11 2-5 4-4z" fill="#494245"/>
<path transform="translate(1545,649)" d="m0 0 4 1 9 12 6 10 1 5-4 8-7 6-16 4-1-4v-12l1-13 2-4 3-11h2z" fill="#103B79"/>
<path transform="translate(443,333)" d="m0 0h10l6 8 8 2 99 2 15 2 14 3 25 2 30 1 15 1 17 3 51 4v1h-19l-46-3-21-3-62-3-21-3-12-2-93-2-14-4-6 3-3 3-2-1 6-11z" fill="#73696A"/>
<path transform="translate(828,839)" d="m0 0h8l2 1v2l2-1h13l11 1h8l7 2 16 2-2 2h-12l-5-2-10-1-4 1-4 11-2 3 1-9v-2l-5 10-3 10-4 3-10-1-12-2v-1l9 1 2-4v-5l-3-5 1-7 3-7h-6z" fill="#DBDBDB"/>
<path transform="translate(1087,872)" d="m0 0 7 1 3 3 1 3 11-3 5-1 9 3 3 4-1 2-5-5-6-1-5 2-2 4-1 10 3 8 7 1 4-1 1-6-3-5h-4l-3 3-1-3 2-1 2-8 4 2 7 9 4 3-6 1-1 8h-10l-5-2-3-5-4 1-3 4h-10l-4-4 2-16v-2h-3l2-7z" fill="#2A5FA6"/>
<path transform="translate(541,394)" d="m0 0 23 1 52 5 53 3 109 7 53 4 15 1v1h-18l-116-8-53-3-59-3-24-2h-22l8 2 42 3v1h-20l-43-3-11-1-28-1v-2h34l15 1-3-3-7-1z" fill="#1B191D"/>
<path transform="translate(1521,502)" d="m0 0h20l23 2 55 3 6 1v6l-2 1h-9l-24-2-30-1-30-3-9-3-1-3z" fill="#DBDBDB"/>
<path transform="translate(1538,524)" d="m0 0 16 1 12 3 1 3-5 5-3 4-3 7-5 8-4 2h-5l-1-3-5-2-1-3v-14z" fill="#0F3A79"/>
<path transform="translate(1017,864)" d="m0 0 7 1 3 4 3 9h2l1-10 3-3 4 1 1 1v24l-1 2-5-1-3-9-2 2-2 6h-14l-3-5 1-15z" fill="#DBDBDB"/>
<path transform="translate(712,817)" d="m0 0 9 2 4 7-1 5-6 8-1 7 5 2v8l-4 1h-12l-5-3 1-10h2l1-11 3-12z" fill="#F6FCFC"/>
<path transform="translate(1564,491)" d="m0 0 8 2 18 2 7 2 21 2 19 1-1 6-35-1-54-4v-1h19l-4-1-21-1-6-1 3-2 9-1 11-1z" fill="#333134"/>
<path transform="translate(444,388)" d="m0 0 19 1 21 2 18 2 39 2 9 2 1 3h-15l-39-1-39-2-12-2-4-4v-2z" fill="#090708"/>
<path transform="translate(1391,537)" d="m0 0 5 5 7 6h18l-2 9h-2l-2 9-5 8-4 16h-1l1-25-2-10-8-10-3-2-1 2-1 18-2 6-2 2-15 1-13-2-4 1v10l-2 4-3-9-1-7 5-6 5-5h2l1 6 7 2 6 2h12l2-7 1-19z" fill="#343134"/>
<path transform="translate(409,251)" d="m0 0h7l2 2 1 7v16l-18 1v3l4 2h-5l-2-2-2-12-3-9 1-5 7-2z" fill="#5A5355"/>
<path transform="translate(787,828)" d="m0 0h9l16 2 1 1v5l-5 2-5 3-2 8h-1v-15l1-2-4 4-3 15-4 11-5 2-4-3v-8l1-3 1-12 3-9z" fill="#F7FEFE"/>
<path transform="translate(312,801)" d="m0 0h1l1 34 5 1 8 4h10l23 4 5 2 6 1v2l7 1v1h-25l-24-2h-19l1-3z" fill="#2B5FA6"/>
<path transform="translate(487,510)" d="m0 0h1l4 20 4 8 7 9 9 10 7 7 3 6-1 3v-2l-5-2-10-5-7-5-5-5h-7l-1-1v-10l1-11z" fill="#3F3B3E"/>
<path transform="translate(317,465)" d="m0 0 10 1 3 17-5 12-1 3-6 1-1 13-10 4-2 1h-19l-8-2-3-2 16 1 2 1 10 1 2-4 5-6 4-4h2l-1-10v-8l4-14z" fill="#1B191D"/>
<path transform="translate(847,353)" d="m0 0h21l71 5v2l-6 2h-52l-21-3-11-4z" fill="#393538"/>
<path transform="translate(1504,500)" d="m0 0 2 1 1 5 15 4 16 3 15 2 5 5 1 6-10-1-34-7-9-4-2-7z" fill="#726869"/>
<path transform="translate(324,428)" d="m0 0h1v17l-5 1-7-1v6l-4 1-1 1 3 2 4-1 8 3 2 1v5l-1 1h-6l-5-4-3 3-7-2-2-4h-15l-2 1-3 6-6 6-6 2-4 3v9h-2l-1 12h-1v-12l1-6-1-4 1-3 6-3h5l1-3 6-4 3-5 8-4 11-2 3-5 6-3 12-1z" fill="#857D7E"/>
<path transform="translate(762,346)" d="m0 0h14l66 5 3 2-2 1-70 1-11-2-4-2-1-3z" fill="#393639"/>
<path transform="translate(721,819)" d="m0 0 8 5 23 1 11 2 5 2 4-4 2-3h9l29 4 6 3-1 6h-1v-6l-25-3h-7l-2-1h-7l-3 5-2 4-4-1-12-2-14-2h-10l-2 1-3 14-3 4-5-1-1-1 1-7 6-8 1-5-3-5z" fill="#2B60A6"/>
<path transform="translate(1114,877)" d="m0 0 6 1 5 5 5 7 6 4v4l-9-3-5-4-6-8-2-1-1 8-3 1 2 2 3-4 4 2 3 5-2 7-7 1-5-2-3-8 2-13 3-3z" fill="#F0F5F5"/>
<path transform="translate(508,571)" d="m0 0h9l3 3-1 5-11 10-11 4h-8l2-10 10-8h2v-2z" fill="#0C0A0B"/>
<path transform="translate(1388,534)" d="m0 0h1v6l-3 4 2 2 1 9-2 12h-4l-9-2-3-9v-7l5-1v-4h2v-2l-2-1 10-4z" fill="#7A7071"/>
<path transform="translate(811,836)" d="m0 0h1v13l4-2-2 3v8l3 1-2 1-5-4-3 8-3 3h-6l-5-3 2-6 2-3 2-18h1l1 6 4-5z" fill="#F6FDFD"/>
<path transform="translate(775,824)" d="m0 0h7l4 1 12 1 15 2 3 1v6l-4 5v-9l-16-2h-9l-3 9-1 12-1 3v8l5 2 3-3 5-17 2-9 4-2-3 23-4 7v2l2 2-15-1-5-1 2-2v-10l3-19 1-4-1-3h-7z" fill="#DBDBDB"/>
<path transform="translate(1729,747)" d="m0 0h2l-1 5h-3l2 7 4 2 39 4 21 3v2l-30-1-32-4 1 10-5-2-5 1v-7l1-11 2-5z" fill="#534C4F"/>
<path transform="translate(1151,881)" d="m0 0h5l10 9 2 2 1-2 4 1 3 13-3 1 2 4v3l-8-1-10-15-1-7-5-7z" fill="#F4FBFB"/>
<path transform="translate(846,844)" d="m0 0h9l1 4-5 14-2 7-2 2h-6l-3-4v-12l6-10z" fill="#F6FDFD"/>
<path transform="translate(1065,870)" d="m0 0h5l1 1-1 7-4 8-2 6h3v-2h2l2-7 4-1 2 1v11l-7 4-10-2-2-2v-12l3-7z" fill="#F1F7F7"/>
<path transform="translate(420,592)" d="m0 0h1l2 7 2 5-1 16-1 4v10h2l4 5-1 7-4 2-3-2-2-6-1-9-2-3 1-22z" fill="#1A4F99"/>
<path transform="translate(267,303)" d="m0 0v3l-4 5-8 14-3 5-4 10-3 5-3 12-1 8v19l-2 13-1 24-2-1v-36l2-21 5-21 6-15 7-12 9-10z" fill="#F9FEFE"/>
<path transform="translate(994,860)" d="m0 0 7 1 3 2 1 8 1 13-2 4-2 1h-8v-2l-5-1 1-2 7 2v-11l-5-1-2-5v-6z" fill="#F7FEFE"/>
<path transform="translate(316,444)" d="m0 0 8 2-1 2h-2l-1 2 3 3v3l3 1 2 9h-10l-8-1v16l-4 1-2-4v-3l-4-2 1-6 3-4-1-2 7 1 3-3 5 4h6l1-5-10-3-5 1-4-5h6l1-6z" fill="#554E50"/>
<path transform="translate(1279,515)" d="m0 0h29l41 3 13 3v1h-23l-49-3-11-1-2-2z" fill="#252226"/>
<path transform="translate(648,339)" d="m0 0h18l53 3 9 1 2 2-16 1h-37l-10-2-5-2-13-1z" fill="#3C383A"/>
<path transform="translate(443,333)" d="m0 0h10l6 8 8 2 42 1 1 2h-51l-14-4-6 3-3 3-2-1 6-11z" fill="#716768"/>
<path transform="translate(403,356)" d="m0 0h7l4 2 4 6v6h-9l-3 2-7-1-5-5 1-5 5-4z" fill="#2B60A7"/>
<path transform="translate(983,864)" d="m0 0 4 5 2 3v10h6v-7h2l1 8-1 3-7-1 4 3-10-1-2-2h-13l-4-2 4-1-2-3 1-3 2 2 8-2 1-3h2v-2h3z" fill="#DBDBDB"/>
<path transform="translate(1561,671)" d="m0 0 3 1 1 5-4 8-7 6-6 2h-6l-1-2v-9l14-5h2l1-4z" fill="#232125"/>
<path transform="translate(318,367)" d="m0 0 6 2 1 2v13l-9 3h-2l3 9 7 3 1 2-1 6h-1v-6h-11l-8-5-2-3 1-6 6-3 13-2v-9l-1-3z" fill="#426597"/>
<path transform="translate(1174,883)" d="m0 0h7l4 3 1 3v20l-2 3-7-1-1-3v-16l-3-6z" fill="#DBDBDB"/>
<path transform="translate(1910,759)" d="m0 0 4 2 1 3h3l2-2 1 4v18l-6 1-2-7h-2l2 4-4 1-1-1v-12l1-10z" fill="#383437"/>
<path transform="translate(829,837)" d="m0 0 41 3 21 3 5 2h8l-4 17-2 6-1-4 1-13-1-4-18-2-7-2h-12l-7-1h-15v-2h-10l-7 3-9 7h-1l1-10 1 4 7-3 4-3z" fill="#2B60A7"/>
<path transform="translate(1065,868)" d="m0 0 7 1 7 3 1 9-1 1v11l3 3-1 3-7-1-8 1-8-2-2-4 1-10h1l1 11 9 3 6-2 2-1 1-11h-6l-1 5-1 2h-2v2h-3l2-8 4-8v-5h-5l-2 1z" fill="#3667AA"/>
<path transform="translate(965,361)" d="m0 0h17l47 3 4 2-2 1h-49l-7-2-9-1z" fill="#3C383B"/>
<path transform="translate(1146,882)" d="m0 0 4 1 3 16 5 8v3h-8l-5-2-2-5v-17z" fill="#DBDBDB"/>
<path transform="translate(1432,420)" d="m0 0h13l33 3 4 2-2 2-10 1-6-2-12 2-18-2-3-2z" fill="#DBDBDB"/>
<path transform="translate(262,496)" d="m0 0 4 4 6 8 3 2v4l13 2h17l6-3 6-1v-13l1-1h5l1 9-1 3 1 5-8 1-7 2-9 1h-21l-5-4-4-6-8-10z" fill="#655E5F"/>
<path transform="translate(1359,558)" d="m0 0h2l1 6 7 2 6 2h12l3-2-2 4-1 1-15 1-13-2-4 1v10l-2 4-3-9-1-7 5-6z" fill="#373437"/>
<path transform="translate(1281,383)" d="m0 0h27l10 2 22 2v1l-8 1h-36l-13-2z" fill="#1D1B1F"/>
<path transform="translate(1733,745)" d="m0 0 3 1-3 2-2 8 12 2 33 3 26 4 9 2 2 4-1 1h-19v-1l15-1-15-4-17-2-30-2-16-5-1-4 2-7z" fill="#353235"/>
<path transform="translate(1505,496)" d="m0 0 42 3v2h14l40 3-4 2h-16l-31-2-9-1v-2l-36-3z" fill="#706768"/>
<path transform="translate(1086,874)" d="m0 0h6l2 3v18l1 4-4 2-5-1-1-1v-7l1-10-1-7z" fill="#F2F8F8"/>
<path transform="translate(1106,884)" d="m0 0 6 5 1-3-1 5h-2l2 2 3-4 4 2 3 5-2 7-7 1-5-2-3-8z" fill="#D8D8DA"/>
<path transform="translate(915,856)" d="m0 0 2 2-2 18 3 3 8 2v1l-7 2h-8l-3-2v-2l-6-1 5-5 6-16z" fill="#2B60A6"/>
<path transform="translate(1565,478)" d="m0 0h1l2 9 15 3 21 2 27 2 7 1-1 2h-7-3l-35-2-9-1-6-2-9-1-3-5z" fill="#868083"/>
<path transform="translate(1036,865)" d="m0 0 4 1 1 1v24l-1 2-5-1-1-1-1-11 1-14z" fill="#F6FCFC"/>
<path transform="translate(320,335)" d="m0 0 3 3-1 10-6 15h-2l-4-6 3-11 3-8z" fill="#123C7B"/>
<path transform="translate(1422,549)" d="m0 0h6l3 3v17l-1 2h-4v-2h-2l-2-7-3-5v-5z" fill="#2A5C9F"/>
<path transform="translate(1151,885)" d="m0 0 6 4 2 9 7 10 1 2 4 2v1h-5l-4-4-3 2h-12l-4-4 1-4 1 5 13 2-5-10-3-9z" fill="#295EA5"/>
<path transform="translate(1388,534)" d="m0 0h1v6l-3 4 2 2 1 9-2-2-4 1v2l-5 1-2-3 1-5-1-5h2v-2l-2-1 10-4z" fill="#776E6F"/>
<path transform="translate(706,827)" d="m0 0 1 2-3 15h-1l-1-5-2 2 1 2-2 5-2-2-3 1-2-1h-10v-11l9 3 4 3 4-2 2-3 1-8h3z" fill="#C5CCD4"/>
<path transform="translate(773,826)" d="m0 0 1 2-3 9-1 12-2-1-2-13-1-1-12-1-3-1h-13l-5-1-1 4-3 5-3 4 1-11 2-4 2-1h10l23 3 7 3 2-7z" fill="#DBDBDB"/>
<path transform="translate(269,487)" d="m0 0h2l1 5-2 2 1 5 3 4-1 4 5 1 2 4 13 1 10 2v1h-10l-2-1-16-2-1-3-6-5-5-7v-6l4-3h2z" fill="#1A181C"/>
<path transform="translate(775,824)" d="m0 0h7l4 1 12 1 15 2 3 1v6l-4 5v-9l-16-2h-9l-3 9-2 10h-2l1-15 1-4-1-3h-7z" fill="#C2CAD3"/>
<path transform="translate(609,813)" d="m0 0 9 1 3 1 31 3 8 2 1 14v15l-4-1v-2h-2l-1 3-3-1 3-3 4-11 1-13-13-1-25-2-13-3z" fill="#DBDBDB"/>
<path transform="translate(326,380)" d="m0 0 2 4v10l-2 7-10-5-2-9 10-3z" fill="#0F3A79"/>
<path transform="translate(1151,881)" d="m0 0h5l10 9 2 2 1-2 4 1 3 13-3 1 2 4v3l-8-1-4-6 1-2 2 2 5 1-4-10-6-8-4-2-4-4-1 2z" fill="#DFE0E0"/>
<path transform="translate(908,839)" d="m0 0h11l24 4 7 3v6l-9 4-2 2-3-9 7 1 1-3-16-4-9-1h-12z" fill="#2B60A6"/>
<path transform="translate(283,464)" d="m0 0 2 3 3 5v2l-4 1-4-3-1 7h2v2l-11-1-1 9-5 3-2 4 1-7 3-7 1-3h2v-2l4-2h3l3-8z" fill="#343134"/>
<path transform="translate(1729,747)" d="m0 0h2l-1 5h-3l3 7v12h2l-1 4-4-2-5 1v-7l1-11 2-5z" fill="#7E7677"/>
<path transform="translate(1537,779)" d="m0 0h1v7l-1 6 5 9v5l-2-3-8 4-9 4-2-2 7-6 4-2 1-2 1-15h2z" fill="#2A5EA5"/>
<path transform="translate(413,261)" d="m0 0h3v3h2l1 12-18 1v3l4 2h-5l-2-2-2-13 11 3 2 2h6v-6z" fill="#5D5557"/>
<path transform="translate(1547,500)" d="m0 0h15l34 1 6 1 14 1 16 1 3 1 1-2v3l-35-1-54-4z" fill="#514A4C"/>
<path transform="translate(476,458)" d="m0 0h7l9 4-3 5-4 3-8-1-2-6z" fill="#1A4F99"/>
<path transform="translate(291,452)" d="m0 0m-3 1 11 2v1l-13 1-2 1-3 6-6 6-6 2-4 3v9h-2l-1 12h-1v-12l1-6-1-4 1-3 6-3h5l1-3 6-4 3-5z" fill="#756C6D"/>
<path transform="translate(858,846)" d="m0 0 1 3-4 14v7l4 3 16 3v1h-8l-12-2-5-3v-2l-2-1 5-15z" fill="#2B60A7"/>
<path transform="translate(601,809)" d="m0 0 2 1-8 7-2 4-16 9-5 4-3 4 6 2v1l-16-1 3-3 5-2 7-6 11-7 11-10z" fill="#DBDBDB"/>
<path transform="translate(1018,866)" d="m0 0 8 1 2 9 2 5-3 1v7l-3-1 1-7-3-1-2-5z" fill="#F6FDFD"/>
<path transform="translate(282,461)" d="m0 0 1 3-2 3h-2l-1 7-4 3h-3-2v2l-2 1-1 6-4 5 1-7 1-1v-8l6-5 6-2z" fill="#4C4547"/>
<path transform="translate(1176,885)" d="m0 0h8l1 1v17l-4 3-1-1-2-13-2-4z" fill="#F7FEFE"/>
<path transform="translate(618,824)" d="m0 0h6v7l-2 9-3 1-4-3h-1l1-9z" fill="#1C519B"/>
<path transform="translate(1702,510)" d="m0 0 4 2 2 3 4 1-3 9-3 5-3 1-1-4z" fill="#8A8689"/>
<path transform="translate(1147,883)" d="m0 0h3v23l-4-1-2-3v-9l1-8z" fill="#F6FDFD"/>
<path transform="translate(1910,759)" d="m0 0 4 2 2 3 1 7 2 1-2 4h-2l-1-2-3 3-3-1 1-16z" fill="#564E50"/>
<path transform="translate(303,461)" d="m0 0 5 1 2 19-4 1-2-4v-3l-4-2 1-6 3-4z" fill="#5D5658"/>
<path transform="translate(1114,882)" d="m0 0 4 2 7 9 4 3-6 1-1 8h-10l1-2 7-1 1-6-3-5h-4l-3 3-1-3 2-1z" fill="#2B60A7"/>
<path transform="translate(317,465)" d="m0 0 10 1 3 17-3 6h-2l-1-13-3-4v-3l-4-2z" fill="#302D30"/>
<path transform="translate(880,852)" d="m0 0 3 1 1 2v8l-3 6h-4l-1-13z" fill="#DBDBDB"/>
<path transform="translate(312,454)" d="m0 0 10 2 3 2v5l-1 1h-6l-5-4-3 3h-2v-2h2v-5z" fill="#797071"/>
<path transform="translate(994,860)" d="m0 0 7 1 3 2 1 8 1 13-2 4-2 1h-8l4-2 5-2 1-4-1-3-1-11-2-3h-6l-1 1v9l-2-1-1-10z" fill="#DBDBDB"/>
<path transform="translate(774,822)" d="m0 0h9l29 4 6 3-1 6h-1v-6l-25-3h-7l-2-1h-7l-4 2z" fill="#2B60A7"/>
<path transform="translate(313,506)" d="m0 0 4 1v5l-10 4-2 1h-19l-8-2-3-2 16 1 2 1h10l7-5h2z" fill="#343134"/>
<path transform="translate(1505,507)" d="m0 0 22 11v2l-12-2-9-4z" fill="#5A5355"/>
<path transform="translate(416,252)" d="m0 0 2 1 1 7-1 4h-2l-3-5-3-1v-3h-6l1 2 3 1-1 2-4 2h-3l1-6 1-2 5-1h7l2 1z" fill="#454042"/>
<path transform="translate(415,284)" d="m0 0h8v1l-6 1-2 5-3 2h-9l-5-3-6-1-8 3-4-1 10-4h7l8 3h7l1-5z" fill="#1A4F99"/>
<path transform="translate(744,838)" d="m0 0 4 2v8l-4 6-5-1-2-4 4-2 2-3z" fill="#DBDBDB"/>
<path transform="translate(868,850)" d="m0 0 1 3 3 1 1 4v9l-1 1h-7l2-9z" fill="#DBDBDB"/>
<path transform="translate(1371,541)" d="m0 0 7 1v2h-2v4l-4 1v7l2 9 9 1 1 2-12-2-3-5v-11l4-7z" fill="#5A5355"/>
<path transform="translate(320,499)" d="m0 0 3 1 1 7-1 3 1 5-10 1 2-3h2v-13z" fill="#DBDBDB"/>
<path transform="translate(415,275)" d="m0 0 4 1v3l-7 2h-11l-1-4 1-1z" fill="#393538"/>
<path transform="translate(408,419)" d="m0 0 4 1 2 2 1 7-1 3-5-1-3-4v-6z" fill="#73696A"/>
<path transform="translate(1014,870)" d="m0 0h2l1 14v6l-4-2v-2h-2l1-15z" fill="#F4FBFB"/>
<path transform="translate(1397,484)" d="m0 0h2l3 10-4 8-6 2 3-6v-12z" fill="#1A4F99"/>
<path transform="translate(1057,883)" d="m0 0h1l1 11 9 3 6-2 2-1 1-10h1l1 9 3 3-1 3-7-1-8 1-8-2-2-4z" fill="#2B60A7"/>
<path transform="translate(1086,874)" d="m0 0h6l2 3v18l1 4-4 2-5-1v-1h5v-24h-5z" fill="#DBDBDB"/>
<path transform="translate(809,855)" d="m0 0 9 6 1 6-11-1z" fill="#0F3A79"/>
<path transform="translate(908,841)" d="m0 0h11l14 2 11 4-1 4-4-1-3-1-1 2-1-3 1-2-17-3-10-1z" fill="#DEDFDF"/>
<path transform="translate(321,385)" d="m0 0 2 1v8l-1 4-5-1-3-7v-3z" fill="#1A4F99"/>
<path transform="translate(1727,752)" d="m0 0 3 1v3l16 5 16 2v1l-20-1-9-1-5-5z" fill="#4D4648"/>
<path transform="translate(471,315)" d="m0 0 8 1 2 3v3h-13l-2-2z" fill="#1E1C1F"/>
<path transform="translate(1391,487)" d="m0 0 4 2 1 9-1 2h-4l-3-6 1-5z" fill="#DBDBDB"/>
<path transform="translate(897,854)" d="m0 0h1v12l1 3-3 8-2-3-5 3h-6v-1l6-2 5-7z" fill="#DBDBDB"/>
<path transform="translate(809,831)" d="m0 0 2 1v5l-7 3-2 3-1 6h-1v-15h6v-2z" fill="#FCFDFD"/>
<path transform="translate(435,284)" d="m0 0 18 1 25 3v2l-14-1-5-1-23-1z" fill="#3965A1"/>
<path transform="translate(702,837)" d="m0 0h1l-1 17v3l-9-1 4-5 3-8v-3z" fill="#2B60A7"/>
<path transform="translate(670,820)" d="m0 0 11 1 16 2 3 2h-15l-10-1-7-2z" fill="#DBDBDB"/>
<path transform="translate(318,498)" d="m0 0h5l-1 2h-4v13l-5 4-4 1h-21l2-2h15l6-3 6-1v-13z" fill="#635D60"/>
<path transform="translate(1565,478)" d="m0 0h1l2 9 15 3 21 2v1h-15l-21-2-3-5z" fill="#DBDBDB"/>
<path transform="translate(1073,882)" d="m0 0 4 1v11l-3 2h-4l1-9v-4z" fill="#F3F9F9"/>
<path transform="translate(1404,590)" d="m0 0 1 4-5 5-9 5-5 5-2-2 11-11 6-1z" fill="#343134"/>
<path transform="translate(936,859)" d="m0 0 2 1-2 2v13l-3 7-2-1v-17z" fill="#2B60A7"/>
<path transform="translate(1288,971)" d="m0 0 4 1v2l13 2v2l-17-2-11-2 1-2z" fill="#1E539C"/>
<path transform="translate(901,845)" d="m0 0h3l-4 17-2 6-1-4 1-13-2-5z" fill="#2A5FA6"/>
<path transform="translate(1699,524)" d="m0 0h2v3h2l2 5-6 8h-1v-14z" fill="#F4F8F8"/>
<path transform="translate(268,468)" d="m0 0 4 1h-2l-2 4-3 2v9h-2l-1 12h-1v-12l1-6-1-4 1-3z" fill="#786E6F"/>
<path transform="translate(676,832)" d="m0 0h1v13h-7l1-6 4-6z" fill="#DBDBDB"/>
<path transform="translate(1807,766)" d="m0 0 9 1 5 3v2l-7 1h-17v-1l15-1-1-3z" fill="#1B191D"/>
<path transform="translate(300,459)" d="m0 0 5 5-2 5h-2l1 5 2 1 2 7-3-3v-2h-2l-3-5v-8l4-1z" fill="#343134"/>
<path transform="translate(440,453)" d="m0 0 16 2v1h-9v2l-2 1h-6l-2-1v-3h3z" fill="#262327"/>
<path transform="translate(1798,765)" d="m0 0 9 1 5 2v4h-19v-1l15-1-10-3z" fill="#343134"/>
<path transform="translate(1070,886)" d="m0 0 2 1v6l-2 3 3 1-5 1-5-1 3-1v-2l-3-1 1-2 3 1v-2h2z" fill="#DBDBDB"/>
<path transform="translate(1384,549)" d="m0 0 3 1-1 4h-3v2l-5 1-2-3v-4h7z" fill="#DBDBDB"/>
<path transform="translate(1078,884)" d="m0 0h5l2 2-1 8h-3l-3-5z" fill="#0F3A79"/>
<path transform="translate(324,512)" d="m0 0 2 4 1 11-2 7-6 2 4-7z" fill="#6986AE"/>
<path transform="translate(1163,903)" d="m0 0 3 2h7l2 4v3l-8-1-4-6z" fill="#DBDBDB"/>
<path transform="translate(981,872)" d="m0 0h3l-2 10-7-1v-3l4-5z" fill="#2B60A7"/>
<path transform="translate(588,796)" d="m0 0h6v2h2l-2 4-2 2h-4l-1-7z" fill="#1B509A"/>
<path transform="translate(369,292)" d="m0 0m-3 1 6 1-4 2-22 6-3-1 14-5z" fill="#275CA4"/>
<path transform="translate(930,861)" d="m0 0 3 1-1 2v17l-1 1h-5l3-2h2l-1-12h-3v-5z" fill="#DBDBDB"/>
<path transform="translate(1128,889)" d="m0 0 8 5v4l-9-3-2-2h2z" fill="#E5E7E7"/>
<path transform="translate(1421,550)" d="m0 0h5l1 4-1 3-6 1-1-1v-5z" fill="#958F90"/>
<path transform="translate(985,874)" d="m0 0h3v10l-4 1-1-1v-7z" fill="#F8FFFF"/>
<path transform="translate(1642,465)" d="m0 0 2 1-3 7h-22v-1l17-1z" fill="#466DA2"/>
<path transform="translate(1707,745)" d="m0 0 5 2 1 2h10l-2 4-12-2-2-1z" fill="#F9FEFE"/>
<path transform="translate(1511,467)" d="m0 0h7v5l-2 2h-5l-1-4z" fill="#1B191D"/>
<path transform="translate(311,351)" d="m0 0 1 3-1 4 2 5 5 2v2l-9-2-1-1 1-8z" fill="#416496"/>
<path transform="translate(1107,889)" d="m0 0h2l3 9 2 4h-6l-1-1z" fill="#F5FBFB"/>
<path transform="translate(1040,875)" d="m0 0h1v16l-1 2-5-1-1-1v-6l3 3 1 3z" fill="#DBDBDB"/>
<path transform="translate(786,833)" d="m0 0 3 2-1 7-3 6h-1v-11z" fill="#FCFDFD"/>
<path transform="translate(313,506)" d="m0 0 4 1v5l-10 4-2-1 5-5h2z" fill="#312E32"/>
<path transform="translate(618,824)" d="m0 0h6v7l-1 5h-1l-2-6-2-2-2 1 1-4z" fill="#2358A0"/>
<path transform="translate(1914,756)" d="m0 0 4 2 1 6-2 1-5-5h-3v-3z" fill="#211E22"/>
<path transform="translate(761,858)" d="m0 0 4 4 11 1v1h-15l-11-1v-1l9-2z" fill="#2B60A7"/>
<path transform="translate(1911,759)" d="m0 0 5 5-1 7-3 1-2-11z" fill="#295BA0"/>
<path transform="translate(1625,495)" d="m0 0 6 1h6v3l-17-1-3-2h8z" fill="#555C6F"/>
<path transform="translate(237,375)" d="m0 0h4v9l-2 8h-1z" fill="#F8FFFF"/>
<path transform="translate(715,843)" d="m0 0 3 4 4 1v8l-4 1h-12v-1l11-1 2-1-1-4-3-3z" fill="#DBDBDB"/>
<path transform="translate(876,842)" d="m0 0h8l10 2 2 1-1 2-16-2-3-1z" fill="#3061A3"/>
<path transform="translate(315,446)" d="m0 0 6 1-1 3 3 3v2l-6-1-2-1z" fill="#2D2F39"/>
<path transform="translate(810,846)" d="m0 0 2 3 4-2-2 3v8l3 1-2 1-6-5z" fill="#DBDBDB"/>
<path transform="translate(1911,778)" d="m0 0h2l3 6 3-1 1 5-1 5-2-1-1-3-2-2z" fill="#211F23"/>
<path transform="translate(744,838)" d="m0 0 4 2v8l-4 4 1-6-2 1z" fill="#2B60A7"/>
<path transform="translate(1361,543)" d="m0 0 5 1 3 1-1 3-4 3h-2l-1-2z" fill="#343134"/>
<path transform="translate(959,489)" d="m0 0h10l9 2v1h-15l-4-1z" fill="#161315"/>
<path transform="translate(706,827)" d="m0 0 1 2-3 15h-1v-7l-2-1 1-8h3z" fill="#DBDBDB"/>
<path transform="translate(1389,532)" d="m0 0 3 4-3 14-2-4-5-2v-1h5z" fill="#575052"/>
<path transform="translate(493,355)" d="m0 0h13l-1 2 7 1v1l-16-1-5-1z" fill="#F8FFFF"/>
<path transform="translate(413,261)" d="m0 0h3v3h2l1 12-5-2 1-8z" fill="#8E8787"/>
<path transform="translate(807,828)" d="m0 0 9 1v6l-4 5v-9l-5-1z" fill="#DBDBDB"/>
<path transform="translate(1396,485)" d="m0 0 2 2v12l-2 4-4 1 3-6v-12z" fill="#2D5FA3"/>
<path transform="translate(971,860)" d="m0 0 4 1 1 6-5 1-1-1z" fill="#1E4D8F"/>
<path transform="translate(514,466)" d="m0 0 1 2-5 8-6 5 2-4 2-6z" fill="#1D529B"/>
<path transform="translate(303,852)" d="m0 0 2 1v3l-9 2 2 2h-8v-2z" fill="#3160A1"/>
<path transform="translate(712,817)" d="m0 0 9 2 2 5-4-1v-2l-7-1-4 5 1-5z" fill="#ddd"/>
<path transform="translate(312,462)" d="m0 0 4 1 1 2h-7v14h-1l-2-15z" fill="#2E2B2E"/>
<path transform="translate(1545,686)" d="m0 0 8 3-1 3h-8z" fill="#0D0C0F"/>
<path transform="translate(407,416)" d="m0 0 6 2 3 6v5l-2-3-2-5-4-1-2 5h-1v-6z" fill="#1C519A"/>
<path transform="translate(407,253)" d="m0 0h2v2h-5l1 2 3 1-1 2-4 2h-3l1-6 1-2z" fill="#343134"/>
<path transform="translate(1106,884)" d="m0 0 6 5 1-3-1 5h-2l-1 2v-4h-2v9l-2-4z" fill="#DBDBDB"/>
<path transform="translate(400,277)" d="m0 0 2 1h17l-3 2-5 1h-10z" fill="#0F3A79"/>
<path transform="translate(760,844)" d="m0 0 2 3 1 13h-3l-4 1 1-2h2l1-10z" fill="#DBDBDB"/>
<path transform="translate(1153,902)" d="m0 0 3 1 2 4v3l-5-1-1-6z" fill="#F3F9F9"/>
<path transform="translate(706,467)" d="m0 0h7v2l2 1h-15l1-2z" fill="#1B191D"/>
<path transform="translate(537,424)" d="m0 0h10l-4 2 2 2-11-1-1-2z" fill="#F8FFFF"/>
<path transform="translate(1388,534)" d="m0 0 1 3-3 5h-10l1-2 9-3z" fill="#8D8586"/>
<path transform="translate(809,855)" d="m0 0 9 6-1 2-8-2-1 2z" fill="#275CA4"/>
<path transform="translate(617,827)" d="m0 0 5 4v5h-2v-3l-4 1z" fill="#0F3A7A"/>
<path transform="translate(1511,812)" d="m0 0h2l-2 4-4 3-5 2-1-2z" fill="#2B60A7"/>
<path transform="translate(308,514)" d="m0 0 3 1-2 3h-21l2-2h15z" fill="#514A4C"/>
<path transform="translate(268,468)" d="m0 0 4 1h-2l-2 4h-5v5l-2-4 1-3z" fill="#7B7273"/>
<path transform="translate(733,836)" d="m0 0 3 2 1 11-4-4z" fill="#D5D7D9"/>
<path transform="translate(1565,478)" d="m0 0h1l2 9 8 2v1l-8 1-3-5z" fill="#E2E2E2"/>
<path transform="translate(717,839)" d="m0 0 5 1v5h-4l-1-1z" fill="#1A4F99"/>
<path transform="translate(303,461)" d="m0 0 5 1-1 3h-2l-1 6-3-1-1 3 1-6 3-4z" fill="#4E4749"/>
<path transform="translate(396,267)" d="m0 0 4 2 3 2-3 1-1 8h-1z" fill="#968F90"/>
<path transform="translate(407,420)" d="m0 0 4 2 1 6-4-1-1-1z" fill="#7B7273"/>
<path transform="translate(964,873)" d="m0 0 2 4 4 5v1h-6z" fill="#FAFCFC"/>
<path transform="translate(621,847)" d="m0 0 8 2-2 3h-5z" fill="#1A4F99"/>
<path transform="translate(1041,496)" d="m0 0h10l6 1-2 2-10-1z" fill="#0E0C0E"/>
<path transform="translate(265,474)" d="m0 0 1 2-1 6 2 1-4 8-1-4 2-4v-8z" fill="#564F51"/>
<path transform="translate(948,488)" d="m0 0 11 1v2h-9l-3-2z" fill="#1D1A1B"/>
<path transform="translate(282,461)" d="m0 0 1 3-5 5-2 4-6-2v-1l6-2z" fill="#575052"/>
<path transform="translate(311,445)" d="m0 0h2v6l-4 1-3-2z" fill="#73696A"/>
<path transform="translate(318,367)" d="m0 0 6 2 1 2v12h-1v-10h-2l-1-3z" fill="#456595"/>
<path transform="translate(1277,972)" d="m0 0h9l3 2-1 1-11-1z" fill="#1C4F97"/>
<path transform="translate(1914,773)" d="m0 0m-1 1m-1 1m-4 1 3 1 2 5-4 1-1-1z" fill="#423D40"/>
</svg>
